ply
format ascii 1.0
element vertex 683
property float x
property float y
property float z
element face 556
property list uchar int vertex_indices
end_header
-0.1145 1.3492 3.5943
-0.1317 1.3917 3.5928
-0.1165 1.3917 3.6181
-0.1779 1.2917 3.4884
-0.1692 1.3917 3.4891
-0.1122 1.2917 3.5678
1.4243 0.9917 3.4267
1.5389 1.0917 3.4582
1.4018 0.9917 3.4716
1.3994 1.0917 3.4992
1.4417 0.9917 3.3278
1.5141 1.0335 3.3341
1.5228 1.0386 3.2345
1.4232 1.0030 3.2259
1.4188 0.9917 3.2764
1.3997 1.2917 3.4960
1.6224 1.0917 3.2432
1.6240 1.2917 3.4440
1.6122 1.1917 3.2423
1.6138 1.1917 3.3428
1.6007 1.2917 3.5058
1.6086 1.2917 3.2420
1.6138 1.2917 3.3428
1.4405 0.8917 3.0266
1.5351 0.8917 3.0932
1.5336 0.9917 3.1106
1.4347 0.9917 3.0934
1.5228 1.0386 3.2345
1.4232 1.0030 3.2259
1.5314 1.0165 3.1349
1.4318 1.0140 3.1262
1.6224 1.0917 3.2432
1.6311 1.0657 3.1435
1.6131 0.9917 3.0416
1.6252 1.0917 3.0426
1.6356 1.0917 3.0918
1.6224 1.0917 3.2432
1.6122 1.1917 3.2423
1.6311 1.1300 3.1435
1.6057 1.1917 3.1413
1.6194 1.1917 3.0421
1.6086 1.2917 3.2420
1.6311 1.2917 3.1435
1.6462 1.0917 3.1448
-1.0721 0.8917 3.0632
-0.9734 0.8917 3.0818
-0.9752 0.9917 3.1036
-1.0750 0.9917 3.0962
-0.9765 0.9984 3.1179
-1.0761 0.9979 3.1093
-1.0705 0.7917 3.0442
-0.9720 0.7917 3.0662
-0.9734 0.8917 3.0818
-1.0721 0.8917 3.0632
-0.9720 0.7917 3.0662
-0.8729 0.7917 3.0815
-0.8742 0.8917 3.0959
-0.9734 0.8917 3.0818
-0.7772 0.8917 3.1352
-0.7756 0.7917 3.1167
-0.6776 0.7917 3.1439
-0.6803 0.8917 3.1743
-0.6132 0.7917 3.3502
-0.6111 0.8917 3.3504
-0.5982 0.7917 3.3852
-0.5966 0.8917 3.3666
-0.6265 0.7917 3.2487
-0.6253 0.8917 3.2488
-0.6863 0.9917 3.2435
-0.7772 0.8917 3.1352
-0.6803 0.8917 3.1743
-0.7835 0.9917 3.2071
-0.7945 1.0356 3.3345
-0.5996 1.0920 3.4019
-0.7988 1.0921 3.3922
-0.7859 1.0035 3.2348
-0.7988 1.1920 3.3906
-0.7991 1.2917 3.3890
-0.6111 0.8917 3.3504
-0.5953 0.9917 3.3518
-0.5966 0.8917 3.3666
-0.6253 0.8917 3.2488
-0.5994 1.2917 3.3987
-0.5982 0.7917 3.3852
-0.5007 0.7915 3.4116
-0.5002 0.8917 3.4100
-0.5966 0.8917 3.3666
-0.4011 0.7913 3.4164
-0.3014 0.7912 3.4213
-0.2002 0.7913 3.4262
-0.2001 0.8917 3.4246
-0.5966 0.8917 3.3666
-0.5002 0.8917 3.4100
-0.5953 0.9917 3.3518
-0.5996 1.0920 3.4019
-0.5994 1.2917 3.3987
-0.1998 1.0915 3.4214
-0.2993 1.1919 3.4149
-0.2001 0.8917 3.4246
-0.2054 1.1917 3.4860
-0.1995 1.2917 3.4181
-0.1058 1.0917 3.4946
-0.2054 1.1917 3.4860
-0.1116 1.1917 3.5610
-0.1779 1.2917 3.4884
-0.1122 1.2917 3.5678
-1.7966 2.8917 3.3145
-1.6953 3.0922 3.3162
-1.7963 3.0918 3.3113
-1.5958 3.0920 3.3211
-1.4954 3.0922 3.3259
-1.3968 2.8917 3.3340
-1.3965 3.0921 3.3308
-1.3923 3.1361 3.2826
-1.4919 3.1353 3.2739
-1.3968 2.8917 3.3340
-0.9969 2.8917 3.3535
-1.2948 3.0925 3.3357
-1.3965 3.0921 3.3308
-1.2927 3.0917 3.2912
-1.3923 3.1361 3.2826
-1.1930 3.1295 3.2999
-0.9938 3.1334 3.3172
-1.0848 3.1661 3.2089
-1.1844 3.1672 3.2002
-0.9967 3.0918 3.3502
-0.9851 3.1409 3.2175
-0.9969 2.8917 3.3535
-0.9967 3.0918 3.3502
-0.9938 3.1334 3.3172
-0.9851 3.1409 3.2175
-0.8769 3.1429 3.1266
-0.9765 3.1509 3.1179
-0.6949 3.1233 3.3431
-0.6863 3.1498 3.2435
-0.7772 3.1459 3.1352
-0.6968 3.0918 3.3648
-0.6776 3.1506 3.1439
-0.5971 2.8917 3.3729
-0.5967 3.1920 3.3681
-0.5953 3.1917 3.3518
-0.5866 3.1523 3.2521
-0.5780 3.1491 3.1525
-0.5971 2.8917 3.3729
-0.4968 3.0918 3.3746
-0.5967 3.1920 3.3681
-0.5953 3.1917 3.3518
-0.5866 3.1523 3.2521
-0.4784 3.1570 3.1612
-0.5780 3.1491 3.1525
-0.3466 3.1103 3.3816
-0.2878 3.1631 3.2781
-0.2705 3.1277 3.0788
-0.3701 3.0917 3.0702
-0.4697 3.1438 3.0615
-0.1795 3.1499 3.1871
-0.1973 2.8917 3.3924
-0.1971 3.0680 3.3895
-0.1969 3.1683 3.3879
-0.1708 3.1319 3.0875
1.4020 2.8917 3.4702
1.5035 2.8917 3.4752
1.5036 3.0924 3.4719
1.4022 3.0919 3.4670
1.5055 3.1917 3.4338
1.4059 3.1500 3.4251
1.5037 3.1923 3.4703
1.4278 3.1917 3.3266
1.4145 3.1756 3.3255
1.6034 2.9923 3.4784
-1.7971 2.4917 3.3210
-1.3973 2.4917 3.3404
-1.3968 2.8917 3.3340
-1.7966 2.8917 3.3145
-1.7975 2.1924 3.3258
-1.6965 2.1922 3.3307
-1.7971 2.4917 3.3210
-1.5961 2.1924 3.3356
-1.4967 2.1921 3.3404
-1.3977 2.1922 3.3453
-1.3973 2.4917 3.3404
-1.3973 2.4917 3.3404
-0.9975 2.4917 3.3599
-0.9969 2.8917 3.3535
-1.3968 2.8917 3.3340
-1.3977 2.1922 3.3453
-1.2968 2.1921 3.3502
-1.3976 2.2922 3.3436
-1.3973 2.4917 3.3404
-1.1976 2.1918 3.3550
-1.0967 2.1922 3.3599
-0.9979 2.1919 3.3647
-0.9975 2.4917 3.3599
-0.9975 2.4917 3.3599
-0.5977 2.4917 3.3794
-0.5971 2.8917 3.3729
-0.9969 2.8917 3.3535
-0.9981 2.0917 3.3663
-0.5982 2.0917 3.3858
-0.5977 2.4917 3.3794
-0.9975 2.4917 3.3599
-0.7980 1.6917 3.3825
-0.6970 1.7924 3.3858
-0.7980 1.7920 3.3809
-0.7979 1.8920 3.3793
-0.7976 1.9920 3.3777
-0.7979 2.0917 3.3761
-0.5988 1.6917 3.3922
-0.5888 1.7917 3.2766
-0.5985 1.8923 3.3890
-0.5982 2.0917 3.3858
-0.7991 1.2917 3.3890
-0.7988 1.3919 3.3873
-0.7990 1.4917 3.3857
-0.7985 1.5919 3.3841
-0.6971 1.6917 3.3875
-0.7980 1.6917 3.3825
-0.5994 1.2917 3.3987
-0.5989 1.5918 3.3938
-0.5953 1.6277 3.3518
-0.5988 1.6917 3.3922
-0.5994 1.2917 3.3987
-0.4985 1.5919 3.3987
-0.5989 1.5918 3.3938
-0.5953 1.6277 3.3518
-0.4886 1.6917 3.2790
-0.5988 1.6917 3.3922
-0.1990 1.6917 3.4117
-0.3960 1.6917 3.3691
-0.3976 1.6917 3.4020
-0.1995 1.2917 3.4181
-0.5982 2.0917 3.3858
-0.1984 2.0917 3.4053
-0.1979 2.4917 3.3988
-0.5977 2.4917 3.3794
-0.5977 2.4917 3.3794
-0.1979 2.4917 3.3988
-0.1973 2.8917 3.3924
-0.5971 2.8917 3.3729
-0.5988 1.6917 3.3922
-0.4886 1.6917 3.2790
-0.4899 1.7917 3.2935
-0.5888 1.7917 3.2766
-0.5985 1.8923 3.3890
-0.5982 2.0917 3.3858
-0.3960 1.6917 3.3691
-0.3976 1.6917 3.4020
-0.1990 1.6917 3.4117
-0.1987 1.8921 3.4085
-0.1984 2.0917 3.4053
0.5995 0.8917 3.4635
0.6997 0.9918 3.4668
0.5997 0.9918 3.4619
0.7995 0.9917 3.4716
0.8993 0.9917 3.4765
0.9995 0.9916 3.4814
0.9993 0.8917 3.4830
-0.1058 1.0917 3.4946
-0.2054 1.1917 3.4860
-0.1998 1.0915 3.4214
-0.1779 1.2917 3.4884
-0.2054 1.1917 3.4860
-0.1995 1.2917 3.4181
0.2999 0.8917 3.4489
0.3996 0.8917 3.4538
0.4003 0.9920 3.4522
0.2979 0.9917 3.4696
0.5001 0.9919 3.4570
0.5995 0.8917 3.4635
0.5997 0.9918 3.4619
0.2997 0.7918 3.4505
0.4001 0.7920 3.4554
0.3996 0.8917 3.4538
0.2999 0.8917 3.4489
0.4999 0.7920 3.4603
0.4993 0.6918 3.4619
0.5992 0.6919 3.4667
0.5995 0.8917 3.4635
1.0074 0.1917 3.3905
1.1070 0.2917 3.3992
1.0074 0.2917 3.3905
1.1091 0.3917 3.3752
1.0099 0.3917 3.3608
1.1083 0.4917 3.3838
1.0087 0.4917 3.3757
0.5996 0.5919 3.4684
0.6002 0.5917 3.4555
0.5990 0.4917 3.4699
0.7505 0.6923 3.4741
0.5997 0.6919 3.4667
0.5995 0.8917 3.4635
0.9009 0.4917 3.4846
0.9993 0.8917 3.4830
0.9006 0.7923 3.4798
0.9735 0.4917 3.3876
0.9813 0.5917 3.3882
1.0087 0.4917 3.3757
1.0084 0.5917 3.3787
1.0085 0.6917 3.3773
1.0074 0.7917 3.3905
0.6992 0.3919 3.4764
0.7997 0.3922 3.4813
0.6999 0.4917 3.4749
0.8045 0.2917 3.4153
0.9077 0.2917 3.3819
0.9007 0.3926 3.4862
0.9009 0.4917 3.4846
1.0074 0.2917 3.3905
1.0099 0.3917 3.3608
0.9735 0.4917 3.3876
1.0087 0.4917 3.3757
0.9993 0.8917 3.4830
0.9999 1.2917 3.4765
1.1988 0.9915 3.4911
1.1999 0.8917 3.4927
1.2991 0.9916 3.4959
1.4018 0.9917 3.4716
1.3994 1.0917 3.4992
1.4068 0.9917 3.2244
1.4232 1.0030 3.2259
1.4188 0.9917 3.2764
1.3997 1.2917 3.4960
1.1070 0.5917 3.3992
1.0087 0.4917 3.3757
1.1083 0.4917 3.3838
1.0084 0.5917 3.3787
1.1070 0.6917 3.3992
1.0085 0.6917 3.3773
1.0074 0.7917 3.3905
1.2066 0.4917 3.4078
1.2057 0.5917 3.4182
1.2051 0.6917 3.4253
1.4068 0.9917 3.2244
1.4232 1.0030 3.2259
1.4133 0.9917 3.1246
1.4318 1.0140 3.1262
1.4347 0.9917 3.0934
1.0010 2.0917 3.4636
1.4008 2.0917 3.4831
1.4014 2.4917 3.4767
1.0016 2.4917 3.4572
1.0016 2.4917 3.4572
1.4014 2.4917 3.4767
1.4020 2.8917 3.4702
1.0021 2.8917 3.4508
0.9999 1.2917 3.4765
1.3997 1.2917 3.4960
1.4003 1.6917 3.4895
1.0005 1.6917 3.4701
-0.1779 1.2917 3.4884
-0.1692 1.3917 3.4891
-0.1995 1.2917 3.4181
-0.1994 1.3917 3.4165
-0.1983 2.1920 3.4036
0.2015 2.1918 3.4231
-0.1979 2.4917 3.3988
0.1019 2.2918 3.4166
0.2020 2.4917 3.4183
-0.1979 2.4917 3.3988
0.2020 2.4917 3.4183
0.2025 2.8917 3.4118
-0.1973 2.8917 3.3924
0.2016 2.1918 3.4231
0.3020 2.1920 3.4280
0.2020 2.4917 3.4183
0.4024 2.1922 3.4329
0.5020 2.1920 3.4377
0.6013 2.1921 3.4426
0.6018 2.4917 3.4377
0.2020 2.4917 3.4183
0.6018 2.4917 3.4377
0.6023 2.8917 3.4313
0.2025 2.8917 3.4118
0.6018 2.4917 3.4377
1.0016 2.4917 3.4572
1.0021 2.8917 3.4508
0.6023 2.8917 3.4313
0.6013 2.1921 3.4426
0.7020 2.1920 3.4475
0.6018 2.4917 3.4377
0.8005 2.1914 3.4523
0.9013 2.1918 3.4572
1.0000 2.0917 3.4636
1.0010 2.0913 3.4636
0.9010 2.0917 3.4588
1.0016 2.4917 3.4572
1.0005 1.6917 3.4701
1.0010 2.0913 3.4636
1.4004 1.7911 3.4879
1.3972 1.7917 3.5247
1.4003 1.6917 3.4895
1.4008 2.0917 3.4831
1.3997 1.2917 3.4960
1.5002 1.6917 3.4944
1.4003 1.6917 3.4895
1.6007 1.2917 3.5058
1.6086 1.2917 3.2420
1.6118 1.3917 3.2422
1.6240 1.2917 3.4440
1.6010 1.4922 3.5025
1.6224 1.4917 3.2432
1.5828 1.5917 3.4405
1.6224 1.5917 3.2432
1.5890 1.6917 3.4410
1.5785 1.6917 3.2393
1.6086 1.2917 3.2420
1.6118 1.3917 3.2422
1.6311 1.2917 3.1435
1.6311 1.3917 3.1435
1.6224 1.4917 3.2432
1.6224 1.5917 3.2432
1.5785 1.6917 3.2393
1.6311 1.6917 3.1435
1.5841 2.4917 3.2398
1.5802 2.5917 3.2395
1.5972 2.4917 3.1406
1.5505 2.5917 3.1365
1.4014 2.4917 3.4767
1.5018 2.4917 3.4815
1.5035 2.8917 3.4752
1.4020 2.8917 3.4702
1.5542 2.4917 3.4380
1.5837 2.4917 3.3402
1.5962 2.5917 3.3413
1.5841 2.4917 3.2398
1.5802 2.5917 3.2395
1.6122 2.6917 3.3613
1.6138 2.6503 3.3428
1.5482 2.6917 3.2367
1.6150 2.6917 3.3290
1.6138 2.7120 3.3428
1.5706 2.7917 3.3390
1.5677 2.8917 3.3388
1.4008 2.0917 3.4831
1.5012 2.1918 3.4864
1.5018 2.4917 3.4815
1.4014 2.4917 3.4767
1.6121 2.0917 3.4934
1.5542 2.1917 3.4380
1.6138 2.0917 3.3428
1.5714 2.1917 3.3391
1.5774 2.0917 3.2392
1.5774 2.1917 3.2392
1.6138 2.2917 3.3428
1.5727 2.2917 3.2388
1.5542 2.4917 3.4380
1.5779 2.3917 3.2393
1.5837 2.4917 3.3402
1.5841 2.4917 3.2398
1.5947 1.8917 3.2407
1.5918 1.9917 3.2405
1.5874 1.8917 3.1397
1.5792 1.9917 3.1390
1.3990 1.7911 3.4879
1.3972 1.7917 3.5247
1.4003 1.6917 3.4895
1.5002 1.6917 3.4944
1.5008 1.8919 3.4912
1.4004 1.7911 3.4879
1.4008 2.0917 3.4831
1.5890 1.6917 3.4410
1.5837 1.6917 3.3402
1.5785 1.6917 3.2393
1.5568 1.7917 3.2375
1.5947 1.8917 3.2407
1.6121 2.0917 3.4934
1.6138 2.0917 3.3428
1.5918 1.9917 3.2405
1.5774 2.0917 3.2392
-0.1973 2.8917 3.3924
-0.0971 3.0917 3.3940
-0.1971 3.0439 3.3899
-0.0593 3.1403 3.2477
-0.1969 3.1683 3.3879
-0.1795 3.1499 3.1871
-0.0712 3.0917 3.0961
-0.1708 3.1319 3.0875
0.2028 3.0920 3.4086
0.0284 3.0917 3.1048
0.2104 3.1441 3.3213
0.2190 3.1729 3.2217
0.1280 3.1331 3.1134
0.2025 2.8917 3.4118
0.2277 3.0917 3.1221
0.2025 2.8917 3.4118
0.2028 3.0920 3.4086
0.2104 3.1441 3.3213
0.2190 3.1729 3.2217
0.3273 3.1615 3.1307
0.2277 3.0917 3.1221
0.6023 2.8917 3.4313
0.6175 3.1573 3.2563
0.4269 3.1450 3.1394
0.6026 3.0920 3.4281
0.5092 3.1228 3.3473
0.5265 3.1508 3.1480
0.6089 3.1528 3.3559
0.6262 3.1607 3.1567
1.0021 2.8917 3.4508
1.0024 3.0921 3.4475
1.0074 3.1369 3.3905
1.2153 3.1917 3.3082
1.0160 3.1685 3.2909
1.1243 3.1650 3.1999
1.0247 3.1635 3.1913
1.4022 3.0919 3.4670
1.2043 3.1925 3.4557
1.2239 3.1461 3.2086
1.3062 3.1715 3.4165
1.3149 3.1724 3.3168
1.2153 3.1917 3.3082
1.4020 2.8917 3.4702
1.4059 3.1500 3.4251
1.4145 3.1756 3.3255
0.6023 2.8917 3.4313
0.6026 3.0920 3.4281
0.7127 3.1917 3.3162
0.6089 3.1528 3.3559
0.6708 3.1917 3.2609
0.6175 3.1573 3.2563
0.7258 3.1659 3.1653
0.6262 3.1607 3.1567
0.7225 3.1917 3.2035
0.9077 3.1519 3.3819
0.7770 3.1917 3.2701
0.8254 3.1374 3.1740
1.0024 3.0921 3.4475
1.0247 3.1635 3.1913
0.9250 3.1616 3.1826
1.0021 2.8917 3.4508
1.0074 3.1369 3.3905
1.0160 3.1685 3.2909
-2.3990 0.9917 3.3169
-2.2987 0.9917 3.3176
-2.2976 1.0917 3.3044
-2.3972 1.0917 3.2957
-2.2993 1.1917 3.3239
-2.3987 1.1917 3.3136
-2.1979 0.9917 3.3130
-2.2976 0.9622 3.3044
-2.1979 1.1917 3.3130
-2.2976 1.2165 3.3044
-2.0983 0.9917 3.3217
-2.1979 0.9917 3.3130
-2.0983 1.0917 3.3217
-2.1979 1.1917 3.3130
-2.0983 1.2917 3.3217
-2.1979 0.9917 3.3130
-2.2976 0.9622 3.3044
-2.2944 0.8917 3.2683
-2.1925 0.8917 3.2499
-2.1979 0.9917 3.3130
-2.2976 1.0917 3.3044
-2.1969 1.0917 3.3006
-2.1979 1.1917 3.3130
-2.1979 1.1917 3.3130
-2.2976 1.2165 3.3044
-2.1969 1.2917 3.3015
-2.2934 1.2917 3.2560
-2.0983 0.9917 3.3217
-2.1979 0.9917 3.3130
-2.1925 0.8917 3.2499
-2.0921 0.8917 3.2499
-2.0983 1.0917 3.3217
-2.1979 0.9917 3.3130
-2.1969 1.0917 3.3006
-2.1979 1.1917 3.3130
-2.0983 1.2917 3.3217
-2.1979 1.1917 3.3130
-2.1969 1.2917 3.3015
-1.9941 0.8917 3.2772
-1.9963 0.9917 3.3028
-2.0983 1.0917 3.3217
-1.9973 1.0917 3.3143
-2.0983 1.1917 3.3217
-1.9971 1.1917 3.3122
-2.0983 1.2917 3.3217
-1.9948 1.2917 3.2856
-2.0983 1.2917 3.3217
-2.0983 1.2917 3.3217
-2.1979 1.3917 3.3130
-2.1979 1.3917 3.3130
-2.1969 1.2917 3.3015
-2.0967 1.3917 3.3033
-2.0963 1.4917 3.2981
-2.1961 1.4917 3.2916
-2.0958 1.5917 3.2923
-2.1956 1.5917 3.2856
-1.9948 1.2917 3.2856
-1.9925 1.3917 3.2594
-1.9953 1.4917 3.2911
-2.1979 1.3917 3.3130
-2.2934 1.2917 3.2560
-2.1969 1.2917 3.3015
-2.2956 1.3917 3.2817
-0.4441 0.4917 0.4540
-0.3480 0.4917 0.5028
-0.3503 0.5917 0.5300
-0.4457 0.5917 0.4725
-0.3464 0.6917 0.4852
-0.4457 0.6917 0.4721
-0.3618 0.7917 0.6619
-0.4614 0.7917 0.6532
-0.3531 0.7917 0.5622
-0.4527 0.7917 0.5536
-0.3791 0.9917 0.8611
-0.4700 0.8917 0.7529
-0.3744 0.8917 0.8078
-0.4752 0.9917 0.8127
-0.4700 0.7917 0.7529
-0.4614 0.7917 0.6532
-0.4700 0.8917 0.7529
-0.3704 0.7917 0.7615
-0.3618 0.7917 0.6619
-0.3744 0.8917 0.8078
-0.1061 1.0409 1.1859
-0.2058 1.0393 1.1773
-0.0975 1.0280 1.0863
-0.1971 1.0292 1.0777
-0.0065 1.0380 1.1946
0.0021 1.0261 1.0950
-0.2486 0.8917 1.0732
-0.2344 0.9917 1.0744
-0.2176 0.8917 0.9755
-0.2018 0.9917 0.9769
-0.1798 0.8917 0.8784
-0.1851 0.9917 0.9392
-0.0855 0.9917 0.9488
-0.0975 1.0280 1.0863
-0.1971 1.0292 1.0777
-0.0888 1.0046 0.9867
-0.1885 1.0051 0.9780
0.0194 0.8917 0.8957
0.0140 0.9917 0.9585
-0.2708 0.7917 0.7701
-0.3704 0.7917 0.7615
-0.2621 0.7917 0.6705
-0.3618 0.7917 0.6619
-0.2967 0.8038 1.0690
-0.3964 0.8047 1.0604
-0.2881 0.7973 0.9694
-0.3504 0.8917 0.9640
-0.3913 0.8917 1.0018
-0.2794 0.7917 0.8698
-0.3631 0.8917 0.8625
-0.3704 0.7917 0.7615
-0.3744 0.8917 0.8078
-0.2176 0.8917 0.9755
-0.1798 0.8917 0.8784
-0.2711 0.5917 0.4690
-0.2448 0.6398 0.4713
-0.3503 0.5917 0.5300
-0.2466 0.6917 0.4920
-0.3464 0.6917 0.4852
-0.2621 0.7917 0.6705
-0.3618 0.7917 0.6619
-0.2535 0.7917 0.5709
-0.3531 0.7917 0.5622
-0.2272 0.5917 0.4728
-0.1520 0.5917 0.5576
-0.0472 0.6917 0.5070
-0.1452 0.7917 0.4799
-0.0519 0.5917 0.5607
0.0476 0.5917 0.5717
0.0525 0.6917 0.5153
0.0540 0.7917 0.4972
0.0194 0.8917 0.8957
0.1191 0.8917 0.9044
0.1137 0.9917 0.9660
0.0140 0.9917 0.9585
0.2014 0.9524 1.1123
0.1507 0.9917 1.1079
0.1389 0.8917 1.0065
0.1018 1.0262 1.1036
0.2053 0.8917 1.0668
0.1104 1.0055 1.0040
0.0525 0.6917 0.5153
0.1524 0.6917 0.5200
0.1537 0.7917 0.5059
0.0540 0.7917 0.4972
0.2446 0.7917 0.6141
0.2520 0.6917 0.5293
0.1450 0.8002 0.6055
3 2 0 1
3 0 5 3
3 0 3 1
3 1 3 4
3 7 6 8
3 7 8 9
3 6 11 10
3 7 11 6
3 10 13 14
3 10 11 13
3 11 12 13
3 7 16 11
3 11 16 12
3 17 7 9
3 7 17 16
3 19 18 16
3 17 9 20
3 20 9 15
3 22 18 19
3 21 18 22
3 16 17 19
3 19 17 22
3 24 23 25
3 25 23 26
3 27 29 28
3 28 29 30
3 29 26 30
3 25 26 29
3 31 32 27
3 27 32 29
3 25 29 32
3 25 32 34
3 25 34 33
3 34 32 35
3 36 39 38
3 37 39 36
3 38 34 35
3 38 39 34
3 39 40 34
3 42 39 41
3 39 37 41
3 43 32 31
3 45 44 46
3 46 44 47
3 48 47 49
3 46 47 48
3 51 50 52
3 52 50 53
3 55 54 56
3 56 54 57
3 58 59 56
3 59 55 56
3 60 58 61
3 60 59 58
3 65 64 62
3 63 65 62
3 62 66 63
3 66 67 63
3 66 61 67
3 60 61 66
3 68 70 71
3 70 69 71
3 74 73 72
3 68 75 72
3 68 71 75
3 73 74 82
3 82 74 76
3 82 76 77
3 79 80 78
3 68 79 81
3 79 78 81
3 81 70 68
3 79 72 73
3 79 68 72
3 84 83 85
3 85 83 86
3 87 84 85
3 88 87 85
3 89 88 90
3 90 88 85
3 92 91 93
3 92 93 94
3 96 92 94
3 96 94 95
3 97 96 95
3 98 92 96
3 99 96 97
3 99 97 100
3 97 95 100
3 101 102 103
3 102 104 105
3 102 105 103
3 107 106 108
3 111 106 109
3 109 106 107
3 110 111 109
3 112 111 110
3 112 110 114
3 113 112 114
3 116 115 117
3 117 115 118
3 117 118 120
3 119 117 120
3 121 117 119
3 122 117 121
3 122 121 123
3 121 124 123
3 125 116 117
3 125 117 122
3 122 123 126
3 130 132 131
3 138 127 128
3 133 128 129
3 133 129 134
3 129 130 134
3 134 130 135
3 130 131 135
3 136 138 128
3 136 128 133
3 134 135 137
3 139 138 136
3 133 140 139
3 133 139 136
3 140 133 141
3 133 134 141
3 141 134 142
3 134 137 142
3 144 143 145
3 146 144 145
3 146 147 144
3 144 147 148
3 147 149 148
3 150 144 151
3 151 144 152
3 144 148 152
3 152 148 153
3 148 154 153
3 150 143 144
3 151 152 155
3 150 157 156
3 150 156 143
3 157 150 158
3 158 150 151
3 158 151 155
3 155 152 159
3 162 160 163
3 165 164 166
3 165 166 163
3 163 166 162
3 168 164 165
3 167 164 168
3 169 161 160
3 162 169 160
3 171 170 172
3 172 170 173
3 175 174 176
3 177 175 176
3 179 178 177
3 179 177 180
3 180 177 176
3 182 181 183
3 183 181 184
3 186 185 187
3 189 186 187
3 189 187 188
3 190 189 188
3 191 190 192
3 192 190 188
3 194 193 195
3 195 193 196
3 198 197 199
3 199 197 200
3 202 201 203
3 202 203 210
3 210 203 204
3 210 204 205
3 210 205 206
3 207 202 208
3 201 202 207
3 209 202 210
3 202 209 208
3 217 211 212
3 217 212 213
3 213 214 215
3 215 214 216
3 218 217 213
3 215 219 218
3 215 218 213
3 219 215 220
3 222 221 223
3 222 223 224
3 224 225 222
3 226 225 224
3 227 221 222
3 222 228 229
3 222 229 227
3 222 225 228
3 230 221 227
3 232 231 233
3 233 231 234
3 236 235 237
3 237 235 238
3 240 239 241
3 241 239 242
3 241 242 243
3 245 241 246
3 240 241 245
3 246 241 243
3 248 246 244
3 244 246 243
3 247 246 248
3 248 244 249
3 251 250 252
3 253 250 251
3 250 253 256
3 254 256 253
3 255 256 254
3 257 259 258
3 261 262 260
3 264 263 265
3 265 263 266
3 267 264 265
3 268 264 269
3 269 264 267
3 271 270 272
3 272 270 273
3 274 271 272
3 276 275 274
3 276 274 277
3 277 274 272
3 279 278 280
3 280 281 279
3 282 281 280
3 281 282 283
3 283 282 284
3 285 287 286
3 285 288 287
3 285 289 288
3 289 290 288
3 291 287 288
3 288 290 292
3 293 291 288
3 293 288 292
3 295 294 291
3 296 295 297
3 294 295 296
3 298 295 291
3 293 298 291
3 295 298 297
3 299 298 293
3 299 293 292
3 300 302 301
3 304 303 305
3 305 303 301
3 305 301 306
3 306 301 302
3 308 307 305
3 305 307 304
3 309 308 305
3 306 309 305
3 308 309 310
3 313 314 311
3 313 311 312
3 313 312 315
3 312 317 315
3 317 316 315
3 320 319 318
3 312 321 317
3 322 324 325
3 324 323 325
3 322 327 326
3 325 327 322
3 326 327 328
3 329 322 330
3 330 322 331
3 331 322 326
3 332 335 334
3 333 335 332
3 334 335 336
3 338 337 339
3 339 337 340
3 342 341 343
3 343 341 344
3 346 345 347
3 347 345 348
3 349 352 350
3 351 352 349
3 354 353 355
3 356 354 355
3 357 354 356
3 357 356 355
3 359 358 360
3 360 358 361
3 362 364 363
3 368 363 364
3 365 363 368
3 368 366 365
3 367 366 368
3 370 369 371
3 371 369 372
3 374 373 375
3 375 373 376
3 378 377 379
3 380 378 379
3 380 379 381
3 379 385 381
3 382 385 383
3 382 384 385
3 384 381 385
3 391 386 387
3 388 386 391
3 389 390 388
3 390 386 388
3 393 392 394
3 397 396 398
3 395 392 399
3 401 399 393
3 393 399 392
3 403 401 393
3 402 401 404
3 401 403 404
3 395 399 398
3 400 397 398
3 400 398 399
3 401 402 399
3 399 402 400
3 407 406 408
3 405 406 407
3 406 409 408
3 410 411 412
3 413 414 415
3 415 414 416
3 418 417 419
3 419 417 420
3 422 421 423
3 422 423 424
3 424 423 425
3 426 421 418
3 419 426 418
3 427 423 426
3 423 421 426
3 429 423 427
3 429 428 423
3 428 425 423
3 426 431 430
3 426 419 431
3 431 419 432
3 434 433 435
3 435 433 436
3 438 437 434
3 434 437 433
3 437 440 439
3 438 440 437
3 439 440 441
3 440 442 441
3 435 438 434
3 443 440 438
3 443 444 440
3 444 442 440
3 445 438 435
3 443 438 446
3 438 445 446
3 443 446 444
3 446 445 447
3 446 447 448
3 449 450 451
3 451 450 452
3 453 455 454
3 453 457 455
3 457 456 455
3 453 454 458
3 458 457 453
3 457 458 459
3 457 460 456
3 461 460 462
3 460 457 462
3 462 457 464
3 462 464 463
3 465 457 459
3 457 466 464
3 465 466 457
3 466 467 464
3 468 467 466
3 471 470 469
3 470 471 473
3 470 473 472
3 473 474 472
3 472 474 475
3 474 476 475
3 470 482 469
3 482 470 477
3 477 470 472
3 472 475 478
3 479 477 472
3 479 472 480
3 480 472 481
3 472 478 481
3 480 481 483
3 487 489 488
3 490 484 485
3 486 487 491
3 491 487 492
3 487 488 492
3 493 490 485
3 493 485 486
3 494 493 486
3 494 486 491
3 491 492 495
3 496 493 494
3 496 494 491
3 491 495 497
3 499 500 501
3 500 502 501
3 501 502 503
3 502 504 503
3 511 498 505
3 505 498 499
3 499 506 505
3 501 506 499
3 501 503 507
3 506 508 505
3 508 510 509
3 506 510 508
3 512 505 508
3 512 508 513
3 508 509 513
3 516 515 517
3 516 519 518
3 516 517 519
3 518 520 522
3 518 519 520
3 519 521 520
3 529 514 515
3 523 515 516
3 524 523 516
3 522 520 524
3 520 525 524
3 526 529 515
3 526 515 523
3 523 524 527
3 527 524 528
3 524 525 528
3 530 526 523
3 530 523 531
3 523 527 531
3 533 532 534
3 534 532 535
3 534 535 536
3 536 535 537
3 539 533 538
3 534 538 533
3 540 534 536
3 540 536 541
3 543 544 542
3 545 546 544
3 547 549 548
3 550 549 547
3 551 552 553
3 552 554 553
3 556 557 555
3 558 557 556
3 559 561 560
3 562 561 559
3 564 565 563
3 563 565 566
3 568 569 567
3 559 571 562
3 571 570 562
3 571 572 573
3 559 572 571
3 573 574 575
3 572 574 573
3 575 576 577
3 574 576 575
3 578 582 581
3 579 580 583
3 580 585 583
3 585 584 583
3 584 585 586
3 586 585 587
3 579 583 588
3 583 589 588
3 589 583 590
3 590 583 584
3 591 593 594
3 593 592 594
3 596 595 597
3 597 595 598
3 597 598 599
3 599 598 600
3 601 603 602
3 602 603 604
3 603 600 604
3 599 600 603
3 605 607 608
3 607 606 608
3 612 613 609
3 609 613 610
3 612 609 614
3 614 609 611
3 615 617 616
3 616 617 618
3 619 620 615
3 615 620 617
3 621 622 623
3 623 622 624
3 625 624 626
3 623 624 625
3 627 625 626
3 628 630 629
3 629 630 631
3 630 626 631
3 627 626 630
3 632 625 633
3 633 625 627
3 634 636 635
3 635 636 637
3 641 642 639
3 641 639 640
3 640 639 638
3 640 643 641
3 641 643 644
3 643 646 644
3 645 646 643
3 640 647 648
3 640 648 643
3 650 649 651
3 650 651 652
3 652 651 653
3 654 656 655
3 655 656 657
3 656 653 657
3 652 653 656
3 658 650 652
3 658 652 659
3 659 652 660
3 656 661 652
3 661 660 652
3 662 659 660
3 663 662 664
3 664 662 660
3 664 660 665
3 665 660 661
3 667 666 668
3 668 666 669
3 670 674 672
3 670 672 671
3 671 672 673
3 672 668 673
3 667 668 672
3 673 668 675
3 677 676 678
3 678 676 679
3 680 681 678
3 681 677 678
3 680 678 682
