ply
format ascii 1.0
element vertex 907
property float x
property float y
property float z
element face 755
property list uchar int vertex_indices
end_header
-0.1145 1.3379 3.5943
-0.1317 1.3917 3.5928
-0.1165 1.3917 3.6181
-0.1605 1.2917 3.4899
-0.1612 1.3917 3.4898
-0.1128 1.2917 3.5756
1.5833 0.3917 2.5371
1.6136 0.4917 2.5398
1.6556 0.3917 2.4430
1.6528 0.4917 2.4428
1.6149 0.2917 2.4395
1.6556 0.3917 2.4430
1.6486 0.2917 2.3420
1.6723 0.2917 2.2437
1.6750 0.3917 2.2440
1.7176 0.3338 2.1473
1.6179 0.3231 2.1386
1.6149 0.2917 2.1739
1.7118 0.3917 2.2136
1.6528 0.4917 2.4428
1.6660 0.4917 2.3436
1.6743 0.4917 2.2439
1.7176 0.4917 2.1473
1.5480 0.8917 2.5341
1.5747 0.8917 2.6368
1.5920 0.9155 2.4375
1.4924 0.9073 2.4289
1.4884 0.8917 2.4747
1.5574 0.8917 2.8360
1.6181 0.9920 2.8413
1.6409 0.9917 2.4418
1.6094 1.2917 2.8405
1.6322 1.2917 2.4410
1.5920 0.9155 2.4375
1.4924 0.9073 2.4289
1.5010 0.8917 2.3292
1.6006 0.8917 2.3379
1.6409 0.9917 2.4418
1.6552 0.8917 2.2427
1.6523 0.9916 2.2422
1.6494 1.0913 2.2421
1.6465 1.1918 2.2414
1.6322 1.2917 2.4410
1.6436 1.2917 2.2413
1.5920 0.6917 2.4375
1.4924 0.6486 2.4289
1.5010 0.6917 2.3292
1.6006 0.6917 2.3379
1.5038 0.7917 2.2969
1.6006 0.8917 2.3379
1.5010 0.8917 2.3292
1.6528 0.4917 2.4428
1.6516 0.5917 2.4427
1.6660 0.4917 2.3436
1.6663 0.5917 2.3436
1.6743 0.4917 2.2439
1.6776 0.5917 2.2442
1.7176 0.4917 2.1473
1.6907 0.5917 2.1449
1.6758 0.6917 2.2440
1.7089 0.7917 2.2469
1.6552 0.8917 2.2427
1.6136 0.4917 2.5398
1.5833 0.5484 2.5371
1.6528 0.4917 2.4428
1.6516 0.5917 2.4427
1.5852 0.5917 2.5159
1.5920 0.6917 2.4375
1.4813 0.9917 3.4317
1.3993 0.9920 3.5008
1.5007 1.0923 3.5041
1.4759 0.9917 3.3308
1.5228 0.9917 3.2345
1.5743 1.1939 3.5067
1.4995 1.2917 3.5008
1.3997 1.2917 3.4960
1.5810 1.0921 3.4400
1.5924 1.0914 3.2406
1.5752 1.2909 3.4407
1.5866 1.2917 3.2400
1.5228 0.9917 3.2345
1.4232 0.9917 3.2259
1.4405 0.8917 3.0266
1.5351 0.8917 3.0932
1.5348 0.9917 3.0963
1.4347 0.9917 3.0934
1.4318 1.0086 3.1262
1.5851 0.8917 3.0392
1.6067 0.9922 3.0406
1.5487 0.8917 2.9356
1.6124 0.9919 2.9410
1.5574 0.8917 2.8360
1.6181 0.9920 2.8413
1.5924 1.0914 3.2406
1.5866 1.2917 3.2400
1.6094 1.2917 2.8405
-1.1757 0.9917 3.1006
-1.1706 0.8917 3.0411
-1.0715 0.8917 3.0565
-1.0737 0.9917 3.0814
-1.0848 1.0287 3.2089
-1.1844 1.0300 3.2002
-0.9734 0.8917 3.0818
-0.9753 0.9917 3.1047
-0.9851 1.0151 3.2175
-0.9765 0.9969 3.1179
-1.0690 0.7917 3.0271
-0.9720 0.7917 3.0662
-0.9734 0.8917 3.0818
-1.0715 0.8917 3.0565
-0.9720 0.7917 3.0662
-0.8727 0.7917 3.0783
-0.8741 0.8917 3.0942
-0.9734 0.8917 3.0818
-0.7772 0.8917 3.1352
-0.7756 0.7917 3.1167
-0.6776 0.7917 3.1439
-0.6803 0.8917 3.1743
-0.6132 0.7917 3.3502
-0.6111 0.8917 3.3504
-0.6001 0.7921 3.4067
-0.5999 0.8917 3.4051
-0.6265 0.7917 3.2487
-0.6253 0.8917 3.2488
-0.6949 0.9917 3.3431
-0.7945 0.9917 3.3345
-0.6863 0.9599 3.2435
-0.7859 1.0038 3.2348
-0.7772 0.8917 3.1352
-0.6803 0.8917 3.1743
-0.7835 0.9917 3.2071
-0.7974 0.9927 3.3939
-0.6976 0.9926 3.3987
-0.7973 1.0927 3.3923
-0.7980 1.1924 3.3906
-0.7981 1.2917 3.3890
-0.6111 0.8917 3.3504
-0.5999 0.8917 3.4051
-0.6253 0.8917 3.2488
-0.5994 1.2917 3.3987
-0.6001 0.7921 3.4067
-0.5007 0.7915 3.4116
-0.5999 0.8917 3.4051
-0.4011 0.7913 3.4164
-0.3014 0.7912 3.4213
-0.2002 0.7913 3.4262
-0.2001 0.8917 3.4246
-0.5999 0.8917 3.4051
-0.5994 1.2917 3.3987
-0.2000 0.9918 3.4230
-0.2983 1.0924 3.4166
-0.1995 1.2917 3.4181
-0.2001 0.8917 3.4246
-0.2004 1.0917 3.4281
-0.2024 1.1917 3.4514
-0.1690 1.0917 3.4891
-0.1890 1.1917 3.4874
-0.1114 1.0917 3.5596
-0.1122 1.1917 3.5680
-0.1605 1.2917 3.4899
-0.1128 1.2917 3.5756
-1.7966 2.8917 3.3145
-1.6953 3.0922 3.3162
-1.7963 3.0918 3.3113
-1.5958 3.0920 3.3211
-1.4954 3.0922 3.3259
-1.3968 2.8917 3.3340
-1.3965 3.0921 3.3308
-1.3923 3.1361 3.2826
-1.4919 3.1353 3.2739
-1.3968 2.8917 3.3340
-0.9969 2.8917 3.3535
-1.2948 3.0925 3.3357
-1.3965 3.0921 3.3308
-1.2927 3.0917 3.2912
-1.3923 3.1361 3.2826
-1.1930 3.1295 3.2999
-0.9938 3.1334 3.3172
-1.0848 3.1661 3.2089
-1.1844 3.1672 3.2002
-0.9967 3.0918 3.3502
-0.9851 3.1409 3.2175
-0.9969 2.8917 3.3535
-0.9967 3.0918 3.3502
-0.9938 3.1334 3.3172
-0.9851 3.1409 3.2175
-0.8769 3.1429 3.1266
-0.9765 3.1509 3.1179
-0.6949 3.1233 3.3431
-0.6863 3.1498 3.2435
-0.7772 3.1459 3.1352
-0.6968 3.0918 3.3648
-0.6776 3.1506 3.1439
-0.5971 2.8917 3.3729
-0.5967 3.1920 3.3681
-0.5953 3.1917 3.3518
-0.5866 3.1523 3.2521
-0.5780 3.1491 3.1525
-0.5971 2.8917 3.3729
-0.4968 3.0918 3.3746
-0.5967 3.1920 3.3681
-0.5953 3.1917 3.3518
-0.5866 3.1523 3.2521
-0.4784 3.1570 3.1612
-0.5780 3.1491 3.1525
-0.3466 3.1103 3.3816
-0.2878 3.1631 3.2781
-0.2705 3.1277 3.0788
-0.3701 3.0917 3.0702
-0.4697 3.1438 3.0615
-0.1795 3.1499 3.1871
-0.1973 2.8917 3.3924
-0.1971 3.0680 3.3895
-0.1969 3.1683 3.3879
-0.1708 3.1319 3.0875
1.4020 2.8917 3.4702
1.5035 2.8917 3.4752
1.5036 3.0924 3.4719
1.4022 3.0919 3.4670
1.5055 3.1917 3.4338
1.4059 3.1500 3.4251
1.5037 3.1923 3.4703
1.4278 3.1917 3.3266
1.4145 3.1756 3.3255
1.6034 2.9923 3.4784
-1.7971 2.4917 3.3210
-1.3973 2.4917 3.3404
-1.3968 2.8917 3.3340
-1.7966 2.8917 3.3145
-1.7975 2.1924 3.3258
-1.6965 2.1922 3.3307
-1.7971 2.4917 3.3210
-1.5961 2.1924 3.3356
-1.4967 2.1921 3.3404
-1.3977 2.1922 3.3453
-1.3973 2.4917 3.3404
-1.3973 2.4917 3.3404
-0.9975 2.4917 3.3599
-0.9969 2.8917 3.3535
-1.3968 2.8917 3.3340
-1.3977 2.1922 3.3453
-1.2968 2.1921 3.3502
-1.3976 2.2922 3.3436
-1.3973 2.4917 3.3404
-1.1976 2.1918 3.3550
-1.0967 2.1922 3.3599
-0.9979 2.1919 3.3647
-0.9975 2.4917 3.3599
-0.9975 2.4917 3.3599
-0.5977 2.4917 3.3794
-0.5971 2.8917 3.3729
-0.9969 2.8917 3.3535
-0.9981 2.0917 3.3663
-0.5982 2.0917 3.3858
-0.5977 2.4917 3.3794
-0.9975 2.4917 3.3599
-0.7976 1.6917 3.3826
-0.6971 1.6917 3.3875
-0.6970 1.7924 3.3858
-0.7980 1.7920 3.3809
-0.7979 1.8920 3.3793
-0.7976 1.9920 3.3777
-0.7979 2.0917 3.3761
-0.5884 1.6917 3.2725
-0.5885 1.7917 3.2737
-0.5985 1.8923 3.3890
-0.5982 2.0917 3.3858
-0.7981 1.2917 3.3890
-0.7982 1.3921 3.3874
-0.7984 1.4920 3.3857
-0.7979 1.5921 3.3842
-0.6971 1.6917 3.3875
-0.7976 1.6917 3.3826
-0.5994 1.2917 3.3987
-0.5989 1.5921 3.3938
-0.5953 1.6123 3.3518
-0.5884 1.6917 3.2725
-0.5994 1.2917 3.3987
-0.3986 1.5919 3.4036
-0.5989 1.5921 3.3938
-0.5953 1.6123 3.3518
-0.4870 1.6917 3.2608
-0.5884 1.6917 3.2725
-0.3942 1.6917 3.3483
-0.3481 1.6917 3.3732
-0.2984 1.6917 3.4069
-0.1995 1.2917 3.4181
-0.1990 1.6917 3.4117
-0.5982 2.0917 3.3858
-0.1984 2.0917 3.4053
-0.1979 2.4917 3.3988
-0.5977 2.4917 3.3794
-0.5977 2.4917 3.3794
-0.1979 2.4917 3.3988
-0.1973 2.8917 3.3924
-0.5971 2.8917 3.3729
-0.5884 1.6917 3.2725
-0.4870 1.6917 3.2608
-0.4883 1.7917 3.2758
-0.5885 1.7917 3.2737
-0.5985 1.8923 3.3890
-0.5982 2.0917 3.3858
-0.3942 1.6917 3.3483
-0.3937 1.7917 3.3423
-0.3975 1.8446 3.3996
-0.3481 1.6917 3.3732
-0.2983 1.7920 3.4052
-0.2984 1.6917 3.4069
-0.1990 1.6917 3.4117
-0.1987 1.8921 3.4085
-0.1984 2.0917 3.4053
0.5022 0.3932 3.4668
0.5988 0.3924 3.4715
0.5990 0.4917 3.4699
0.5022 0.4917 3.4652
1.3841 0.9156 2.5198
1.2845 0.9235 2.5112
1.3927 0.9111 2.4202
1.2931 0.9157 2.4116
1.4269 0.8917 2.6239
1.3754 0.9105 2.6195
1.4511 0.8917 2.5256
1.4924 0.9073 2.4289
1.4884 0.8917 2.4747
1.1054 0.6917 2.2610
1.2044 0.6917 2.2776
1.1051 0.7917 2.2644
1.2044 0.8917 2.2774
1.1037 0.8917 2.2808
1.3046 0.6917 2.2796
1.3028 0.8917 2.3000
1.4033 0.6917 2.2984
1.4039 0.7917 2.2912
1.4014 0.8917 2.3206
1.5010 0.6917 2.3292
1.5038 0.7917 2.2969
1.5010 0.8917 2.3292
1.0939 0.9260 2.3943
0.9942 0.9486 2.3856
1.1025 0.8980 2.2946
1.0029 0.9036 2.2860
1.0052 0.8917 2.2587
1.1037 0.8917 2.2808
0.9075 0.6917 2.2281
1.0054 0.6917 2.2571
1.0057 0.7917 2.2535
0.9059 0.7917 2.2464
1.0052 0.8917 2.2587
0.9058 0.8917 2.2477
1.1054 0.6917 2.2610
1.1051 0.7917 2.2644
1.1037 0.8917 2.2808
1.1935 0.9247 2.4029
1.0939 0.9260 2.3943
1.2021 0.9041 2.3033
1.1025 0.8980 2.2946
1.1037 0.8917 2.2808
1.2044 0.8917 2.2774
1.2931 0.9157 2.4116
1.3028 0.8917 2.3000
1.3927 0.9111 2.4202
1.4014 0.8917 2.3206
1.4924 0.9073 2.4289
1.5010 0.8917 2.3292
0.5995 0.8917 3.4635
0.7010 0.9923 3.4668
0.5997 0.9922 3.4619
0.8007 0.9922 3.4717
0.9003 0.9920 3.4765
0.9993 0.8917 3.4830
0.9644 1.0917 3.4872
0.8991 1.0384 3.4815
0.9996 1.0918 3.4797
-0.1690 1.0917 3.4891
-0.1890 1.1917 3.4874
-0.2004 1.0917 3.4281
-0.2024 1.1917 3.4514
-0.1605 1.2917 3.4899
-0.1995 1.2917 3.4181
0.2999 0.8917 3.4489
0.3996 0.8917 3.4538
0.4003 0.9920 3.4522
0.2979 0.9917 3.4696
0.5006 0.9921 3.4571
0.5995 0.8917 3.4635
0.5997 0.9922 3.4619
0.2997 0.7918 3.4505
0.4001 0.7920 3.4554
0.3996 0.8917 3.4538
0.2999 0.8917 3.4489
0.5007 0.7923 3.4603
0.5022 0.4917 3.4652
0.5990 0.4917 3.4699
0.5012 0.5926 3.4636
0.5005 0.6923 3.4619
0.5995 0.8917 3.4635
1.0084 0.2917 3.3785
1.1080 0.2917 3.3871
1.1091 0.3917 3.3751
1.0094 0.3917 3.3670
1.1093 0.4917 3.3726
0.9988 0.4917 3.4894
0.5990 0.4917 3.4699
0.8000 0.4917 3.4797
0.5995 0.8917 3.4635
0.9038 0.4917 3.4278
0.9012 0.7926 3.4798
0.9660 0.4917 3.3869
0.9562 0.5917 3.3861
0.9988 0.4917 3.4894
1.0094 0.5917 3.3674
1.0106 0.6917 3.3537
1.0103 0.7917 3.3565
1.0074 0.8261 3.3905
0.9993 0.8917 3.4830
0.5988 0.3924 3.4715
0.7006 0.3925 3.4765
0.8000 0.4917 3.4797
0.5990 0.4917 3.4699
0.8002 0.3923 3.4813
0.8037 0.2917 3.4243
0.9077 0.2917 3.3819
0.9038 0.4917 3.4278
1.0084 0.2917 3.3785
1.0094 0.3917 3.3670
0.9660 0.4917 3.3869
0.9988 0.4917 3.4894
0.9993 0.8917 3.4830
1.3992 0.8917 3.5024
1.3997 1.2917 3.4960
0.9999 1.2917 3.4765
0.9988 0.4917 3.4894
1.1093 0.4917 3.3726
1.1094 0.5917 3.3720
1.0094 0.5917 3.3674
1.1097 0.6917 3.3684
1.0106 0.6917 3.3537
1.1083 0.7917 3.3843
1.0103 0.7917 3.3565
1.1070 0.8141 3.3992
1.0074 0.8261 3.3905
1.1005 0.8917 3.4879
0.9993 0.8917 3.4830
1.4169 0.9917 3.1249
1.4318 1.0086 3.1262
1.4232 0.9917 3.2259
1.4347 0.9917 3.0934
1.0010 2.0917 3.4636
1.4008 2.0917 3.4831
1.4014 2.4917 3.4767
1.0016 2.4917 3.4572
1.0016 2.4917 3.4572
1.4014 2.4917 3.4767
1.4020 2.8917 3.4702
1.0021 2.8917 3.4508
0.9999 1.2917 3.4765
1.3997 1.2917 3.4960
1.4003 1.6917 3.4895
1.0005 1.6917 3.4701
-0.1605 1.2917 3.4899
-0.1612 1.3917 3.4898
-0.1995 1.2917 3.4181
-0.1994 1.3922 3.4165
-0.1983 2.1920 3.4036
0.2015 2.1918 3.4231
-0.1979 2.4917 3.3988
0.1019 2.2918 3.4166
0.2020 2.4917 3.4183
-0.1979 2.4917 3.3988
0.2020 2.4917 3.4183
0.2025 2.8917 3.4118
-0.1973 2.8917 3.3924
0.2016 2.1918 3.4231
0.3020 2.1920 3.4280
0.2020 2.4917 3.4183
0.4024 2.1922 3.4329
0.5020 2.1920 3.4377
0.6013 2.1921 3.4426
0.6018 2.4917 3.4377
0.2020 2.4917 3.4183
0.6018 2.4917 3.4377
0.6023 2.8917 3.4313
0.2025 2.8917 3.4118
0.6018 2.4917 3.4377
1.0016 2.4917 3.4572
1.0021 2.8917 3.4508
0.6023 2.8917 3.4313
0.6013 2.1921 3.4426
0.7020 2.1920 3.4475
0.6018 2.4917 3.4377
0.8005 2.1914 3.4523
0.9013 2.1918 3.4572
1.0000 2.0917 3.4636
1.0010 2.0913 3.4636
0.9010 2.0917 3.4588
1.0016 2.4917 3.4572
1.0005 1.6917 3.4701
1.4003 1.6917 3.4895
1.4008 2.0917 3.4831
1.0010 2.0917 3.4636
1.6094 1.2917 2.8405
1.6322 1.2917 2.4410
1.6036 1.4921 2.8400
1.6094 1.4923 2.7396
1.6065 1.5925 2.7391
1.6122 1.5925 2.6392
1.6179 1.5924 2.5395
1.6236 1.5917 2.4402
1.6150 1.6917 2.5398
1.5920 1.6917 2.4375
1.6322 1.2917 2.4410
1.6436 1.2917 2.2413
1.6407 1.3917 2.2410
1.6378 1.4916 2.2408
1.6236 1.5917 2.4402
1.6293 1.5918 2.3403
1.6349 1.5912 2.2410
1.3997 1.2917 3.4960
1.4995 1.2917 3.5008
1.5003 1.6917 3.4944
1.4003 1.6917 3.4895
1.5752 1.2917 3.4407
1.5866 1.2917 3.2400
1.5694 1.4907 3.4404
1.5751 1.4906 3.3406
1.6051 1.6917 3.4424
1.5722 1.5905 3.3404
1.5636 1.6917 3.4401
1.5751 1.6917 3.2390
1.5866 1.2917 3.2400
1.5894 1.3914 3.1403
1.6094 1.2917 2.8405
1.5951 1.3917 3.0401
1.6008 1.3920 2.9399
1.5865 1.4910 3.1405
1.5980 1.4920 2.9397
1.6036 1.4921 2.8400
1.5836 1.5904 3.1408
1.5751 1.6917 3.2390
1.6311 1.6917 3.1435
1.5841 2.4917 3.2398
1.5802 2.5917 3.2395
1.5972 2.4917 3.1406
1.5505 2.5917 3.1365
1.4014 2.4917 3.4767
1.5018 2.4917 3.4815
1.5035 2.8917 3.4752
1.4020 2.8917 3.4702
1.5542 2.4917 3.4380
1.5837 2.4917 3.3402
1.5962 2.5917 3.3413
1.5841 2.4917 3.2398
1.5802 2.5917 3.2395
1.6122 2.6917 3.3613
1.6138 2.6503 3.3428
1.5482 2.6917 3.2367
1.6150 2.6917 3.3290
1.6138 2.7120 3.3428
1.5706 2.7917 3.3390
1.5677 2.8917 3.3388
1.4008 2.0917 3.4831
1.5012 2.1918 3.4864
1.5018 2.4917 3.4815
1.4014 2.4917 3.4767
1.6121 2.0917 3.4934
1.5542 2.1917 3.4380
1.6138 2.0917 3.3428
1.5774 2.1917 3.2392
1.5774 2.0917 3.2392
1.5577 2.0917 3.3393
1.6138 2.2917 3.3428
1.5727 2.2917 3.2388
1.5542 2.4917 3.4380
1.5779 2.3917 3.2393
1.5837 2.4917 3.3402
1.5841 2.4917 3.2398
1.5693 1.8910 3.2385
1.5664 1.9910 3.2383
1.5750 1.8914 3.1390
1.5721 1.9915 3.1386
1.4003 1.6917 3.4895
1.5003 1.6917 3.4944
1.5009 1.9419 3.4904
1.4008 2.0917 3.4831
1.6051 1.6917 3.4424
1.5593 1.8417 3.4385
1.5636 1.6917 3.4401
1.5751 1.6917 3.2390
1.5568 1.7917 3.2375
1.5693 1.8910 3.2385
1.6051 1.9917 3.4424
1.5607 1.9902 3.3398
1.5664 1.9910 3.2383
1.6121 2.0917 3.4934
1.5774 2.0917 3.2392
1.5577 2.0917 3.3393
1.6138 1.9917 3.3428
1.6138 2.0917 3.3428
-0.1973 2.8917 3.3924
-0.0971 3.0917 3.3940
-0.1971 3.0439 3.3899
-0.0593 3.1403 3.2477
-0.1969 3.1683 3.3879
-0.1795 3.1499 3.1871
-0.0712 3.0917 3.0961
-0.1708 3.1319 3.0875
0.2028 3.0920 3.4086
0.0284 3.0917 3.1048
0.2104 3.1441 3.3213
0.2190 3.1729 3.2217
0.1280 3.1331 3.1134
0.2025 2.8917 3.4118
0.2277 3.0917 3.1221
0.2025 2.8917 3.4118
0.2028 3.0920 3.4086
0.2104 3.1441 3.3213
0.2190 3.1729 3.2217
0.3273 3.1615 3.1307
0.2277 3.0917 3.1221
0.6023 2.8917 3.4313
0.6175 3.1573 3.2563
0.4269 3.1450 3.1394
0.6026 3.0920 3.4281
0.5092 3.1228 3.3473
0.5265 3.1508 3.1480
0.6089 3.1528 3.3559
0.6262 3.1607 3.1567
1.0021 2.8917 3.4508
1.0024 3.0921 3.4475
1.0074 3.1369 3.3905
1.2153 3.1917 3.3082
1.0160 3.1685 3.2909
1.1243 3.1650 3.1999
1.0247 3.1635 3.1913
1.4022 3.0919 3.4670
1.2043 3.1925 3.4557
1.2239 3.1461 3.2086
1.3062 3.1715 3.4165
1.3149 3.1724 3.3168
1.2153 3.1917 3.3082
1.4020 2.8917 3.4702
1.4059 3.1500 3.4251
1.4145 3.1756 3.3255
0.6023 2.8917 3.4313
0.6026 3.0920 3.4281
0.7127 3.1917 3.3162
0.6089 3.1528 3.3559
0.6708 3.1917 3.2609
0.6175 3.1573 3.2563
0.7258 3.1659 3.1653
0.6262 3.1607 3.1567
0.7225 3.1917 3.2035
0.9077 3.1519 3.3819
0.7770 3.1917 3.2701
0.8254 3.1374 3.1740
1.0024 3.0921 3.4475
1.0247 3.1635 3.1913
0.9250 3.1616 3.1826
1.0021 2.8917 3.4508
1.0074 3.1369 3.3905
1.0160 3.1685 3.2909
-2.7006 0.8917 3.3218
-2.6002 0.8917 3.3214
-2.6006 0.9917 3.3268
-2.6990 0.9917 3.3037
-2.6002 0.8917 3.3214
-2.4986 0.8917 3.3073
-2.6006 0.9917 3.3268
-2.5012 1.0917 3.3376
-2.6012 1.0917 3.3336
-2.3972 0.8917 3.2957
-2.3992 1.0917 3.3191
-2.2976 0.8917 3.3044
-2.2976 1.0917 3.3044
-2.2993 1.1917 3.3239
-2.3987 1.1917 3.3136
-2.1979 0.9487 3.3130
-2.1990 0.9917 3.3258
-2.1979 1.0457 3.3130
-2.1979 1.1917 3.3130
-2.2976 1.2165 3.3044
-2.0983 0.9917 3.3217
-2.1979 0.9487 3.3130
-2.1990 0.9917 3.3258
-2.0983 1.0917 3.3217
-2.1979 1.0457 3.3130
-2.1979 1.1917 3.3130
-2.0983 1.2917 3.3217
-2.2976 0.8917 3.3044
-2.1979 0.9487 3.3130
-2.1960 0.8917 3.2906
-2.1979 1.0457 3.3130
-2.2976 1.0917 3.3044
-2.1971 1.0917 3.3034
-2.1979 1.1917 3.3130
-2.1979 1.1917 3.3130
-2.2976 1.2165 3.3044
-2.1969 1.2917 3.3015
-2.2934 1.2917 3.2560
-2.0983 0.9917 3.3217
-2.1979 0.9487 3.3130
-2.1960 0.8917 3.2906
-2.0921 0.8917 3.2499
-2.0983 1.0917 3.3217
-2.1979 1.0457 3.3130
-2.1971 1.0917 3.3034
-2.1979 1.1917 3.3130
-2.0983 1.2917 3.3217
-2.1979 1.1917 3.3130
-2.1969 1.2917 3.3015
-1.9941 0.8917 3.2772
-1.9963 0.9917 3.3028
-1.9987 1.0917 3.3303
-1.9987 1.0917 3.3303
-2.0983 1.1917 3.3217
-1.9971 1.1917 3.3122
-2.0983 1.2917 3.3217
-1.9948 1.2917 3.2856
-2.0983 1.2917 3.3217
-2.0983 1.2917 3.3217
-2.1979 1.3917 3.3130
-2.1979 1.3917 3.3130
-2.1969 1.2917 3.3015
-2.0967 1.3917 3.3033
-2.0963 1.4917 3.2981
-2.1961 1.4917 3.2916
-2.0958 1.5917 3.2923
-2.1956 1.5917 3.2856
-1.9948 1.2917 3.2856
-1.9925 1.3917 3.2594
-1.9953 1.4917 3.2911
-2.1979 1.3917 3.3130
-2.2934 1.2917 3.2560
-2.1969 1.2917 3.3015
-2.2956 1.3917 3.2817
-0.6310 0.2917 0.4377
-0.6200 0.3917 0.4387
-0.5409 0.2917 0.4128
-0.5414 0.4917 0.4189
-0.6123 0.4917 0.4394
-0.4416 0.2917 0.4254
-0.4429 0.3917 0.4406
-0.4441 0.4917 0.4540
-0.4441 0.4917 0.4540
-0.3499 0.5917 0.5256
-0.5414 0.4917 0.4189
-0.5420 0.5917 0.4257
-0.5437 0.6917 0.4453
-0.4459 0.6917 0.4746
-0.4614 0.7917 0.6532
-0.4527 0.7917 0.5536
-0.3480 0.4917 0.5037
-0.3470 0.6917 0.4918
-0.3618 0.7917 0.6619
-0.3531 0.7917 0.5622
-0.3791 0.9917 0.8611
-0.4700 0.8917 0.7529
-0.3743 0.8917 0.8066
-0.4750 0.9917 0.8105
-0.4700 0.7917 0.7529
-0.4614 0.7917 0.6532
-0.4700 0.8917 0.7529
-0.3704 0.7917 0.7615
-0.3618 0.7917 0.6619
-0.3743 0.8917 0.8066
-0.3615 0.8917 0.8626
-0.3791 0.9917 0.8611
-0.3743 0.8917 0.8066
-0.2335 0.9917 1.0745
-0.2967 0.9380 1.0690
-0.2184 0.8917 0.9754
-0.2015 0.9917 0.9769
-0.2927 0.8917 1.0229
-0.1798 0.8917 0.8784
-0.1852 0.9917 0.9403
-0.0854 0.9917 0.9473
0.0194 0.8917 0.8957
0.0141 0.9917 0.9578
-0.2708 0.7917 0.7701
-0.3704 0.7917 0.7615
-0.2621 0.7917 0.6705
-0.3618 0.7917 0.6619
-0.3429 0.8917 1.0650
-0.3964 0.8033 1.0604
-0.2881 0.7981 0.9694
-0.3626 0.8917 0.9629
-0.2927 0.8917 1.0229
-0.3899 0.8917 0.9858
-0.2794 0.7969 0.8698
-0.3615 0.8917 0.8626
-0.3704 0.7917 0.7615
-0.2708 0.7917 0.7701
-0.3743 0.8917 0.8066
-0.2184 0.8917 0.9754
-0.1798 0.8917 0.8784
-0.2707 0.5917 0.4690
-0.2448 0.6307 0.4713
-0.3499 0.5917 0.5256
-0.3470 0.6917 0.4918
-0.2767 0.5917 0.3681
-0.2362 0.6678 0.3716
-0.2621 0.7917 0.6705
-0.3618 0.7917 0.6619
-0.2535 0.7917 0.5709
-0.3531 0.7917 0.5622
-0.1452 0.5917 0.4799
-0.0473 0.6917 0.5088
-0.1366 0.5917 0.3803
-0.1452 0.7917 0.4799
-0.1539 0.8100 0.5795
-0.0516 0.5917 0.5580
0.0540 0.7917 0.4972
0.0454 0.4917 0.5968
-0.0542 0.4917 0.5882
0.0480 0.5917 0.5665
0.0523 0.6917 0.5175
0.3507 0.3917 0.5481
0.4497 0.3917 0.5642
0.4505 0.4917 0.5552
0.3498 0.4917 0.5589
0.5522 0.1563 0.5405
0.5384 0.1917 0.5393
0.5533 0.1917 0.5278
0.5307 0.1917 0.6390
0.5435 0.2019 0.6401
0.5550 0.2917 0.5075
0.4473 0.1917 0.5924
0.5467 0.1917 0.6031
0.4505 0.2917 0.5554
0.4844 0.4917 0.5346
0.4497 0.3917 0.5642
0.4505 0.4917 0.5552
0.5585 0.4917 0.4674
0.6547 0.2917 0.5151
0.6545 0.3917 0.5176
0.6550 0.4917 0.5119
0.7111 0.2917 0.5543
0.6833 0.3917 0.5519
0.6890 0.4917 0.5523
0.4844 0.4917 0.5346
0.4505 0.4917 0.5552
0.4516 0.5917 0.5420
0.5585 0.4917 0.4674
0.5540 0.5917 0.5189
0.4525 0.6917 0.5318
0.5540 0.6917 0.5188
0.5435 0.7276 0.6401
0.4568 0.7917 0.6326
0.5522 0.7135 0.5405
0.4640 0.7917 0.5328
0.6518 0.5291 0.5491
0.5737 0.5917 0.5423
0.6550 0.4917 0.5119
0.1191 0.8917 0.9044
0.2100 0.7992 1.0126
0.1390 0.8917 1.0065
0.2187 0.7973 0.9130
0.3097 0.8000 1.0213
0.3183 0.8074 0.9217
0.2273 0.7917 0.8134
0.3270 0.8117 0.8220
0.2360 0.7917 0.7138
0.3356 0.8017 0.7224
0.0194 0.8917 0.8957
0.1191 0.8917 0.9044
0.1140 0.9917 0.9621
0.0141 0.9917 0.9578
0.1754 0.8917 1.1100
0.1383 0.9917 1.1068
0.1390 0.8917 1.0065
0.1247 0.9917 1.0052
0.1450 0.4917 0.6055
0.0454 0.4917 0.5968
0.1256 0.4917 0.5034
0.1235 0.5917 0.5033
0.0480 0.5917 0.5665
0.0627 0.5917 0.3976
0.0601 0.4917 0.4277
0.1537 0.6614 0.5059
0.1520 0.6917 0.5247
0.0523 0.6917 0.5175
0.1710 0.6762 0.3066
0.1537 0.7917 0.5059
0.0540 0.7917 0.4972
0.2533 0.5523 0.5145
0.1975 0.5917 0.5097
0.2957 0.4917 0.3175
0.1978 0.5917 0.4093
0.1945 0.5917 0.3087
0.2477 0.5917 0.5788
0.1623 0.6917 0.4062
0.2446 0.7917 0.6141
0.1450 0.8091 0.6055
0.3251 0.4917 0.5207
0.2986 0.4917 0.4181
0.3496 0.5917 0.5612
0.2360 0.7917 0.7138
0.3529 0.7917 0.5232
0.3356 0.8017 0.7224
0.3443 0.8157 0.6228
0.3498 0.4917 0.5589
0.4505 0.4917 0.5552
0.4516 0.5917 0.5420
0.4525 0.6917 0.5318
0.2706 0.5170 0.3153
0.1945 0.5917 0.3087
0.2792 0.5917 0.2156
3 2 0 1
3 0 5 3
3 0 3 1
3 1 3 4
3 6 7 8
3 8 7 9
3 10 11 12
3 12 11 13
3 17 13 14
3 17 14 15
3 17 15 16
3 18 15 14
3 11 19 13
3 13 19 20
3 13 20 14
3 14 20 21
3 18 21 22
3 14 21 18
3 23 26 27
3 23 25 26
3 28 29 24
3 23 24 30
3 30 24 29
3 25 23 30
3 29 31 32
3 29 32 30
3 33 35 34
3 36 35 33
3 36 33 37
3 36 37 38
3 37 42 38
3 38 42 39
3 39 42 40
3 40 42 41
3 41 42 43
3 45 46 44
3 44 46 47
3 46 48 47
3 49 48 50
3 51 52 53
3 53 52 54
3 53 54 55
3 55 54 56
3 57 55 58
3 55 56 58
3 52 44 54
3 54 44 47
3 54 47 56
3 56 47 59
3 60 59 47
3 60 47 48
3 60 48 49
3 60 49 61
3 63 66 65
3 63 65 62
3 62 65 64
3 67 65 66
3 68 69 70
3 70 69 73
3 73 69 75
3 73 75 74
3 68 70 76
3 76 77 68
3 68 77 71
3 72 71 77
3 73 76 70
3 77 73 79
3 76 73 77
3 78 73 74
3 79 73 78
3 83 82 84
3 84 82 85
3 80 86 81
3 84 86 80
3 84 85 86
3 88 87 83
3 84 88 83
3 87 88 89
3 89 88 90
3 89 90 91
3 91 90 92
3 84 80 93
3 84 93 88
3 88 93 95
3 88 95 90
3 90 95 92
3 93 94 95
3 96 99 97
3 99 98 97
3 96 101 99
3 102 98 103
3 103 98 99
3 104 105 100
3 100 105 101
3 105 99 101
3 103 99 105
3 107 106 108
3 108 106 109
3 111 110 112
3 112 110 113
3 114 115 112
3 115 111 112
3 116 114 117
3 116 115 114
3 121 120 118
3 119 121 118
3 118 122 119
3 122 123 119
3 122 117 123
3 116 117 122
3 127 125 126
3 126 125 124
3 126 130 127
3 126 129 130
3 129 128 130
3 132 131 139
3 139 131 133
3 139 133 134
3 139 134 135
3 136 124 132
3 136 132 137
3 137 132 139
3 138 124 136
3 126 124 138
3 138 129 126
3 141 140 142
3 143 141 142
3 144 143 142
3 145 144 146
3 146 144 142
3 149 147 150
3 150 147 148
3 150 148 151
3 152 147 149
3 153 149 150
3 153 150 154
3 154 150 151
3 158 157 155
3 156 158 155
3 160 158 156
3 159 160 156
3 162 161 163
3 166 161 164
3 164 161 162
3 165 166 164
3 167 166 165
3 167 165 169
3 168 167 169
3 171 170 172
3 172 170 173
3 172 173 175
3 174 172 175
3 176 172 174
3 177 172 176
3 177 176 178
3 176 179 178
3 180 171 172
3 180 172 177
3 177 178 181
3 185 187 186
3 193 182 183
3 188 183 184
3 188 184 189
3 184 185 189
3 189 185 190
3 185 186 190
3 191 193 183
3 191 183 188
3 189 190 192
3 194 193 191
3 188 195 194
3 188 194 191
3 195 188 196
3 188 189 196
3 196 189 197
3 189 192 197
3 199 198 200
3 201 199 200
3 201 202 199
3 199 202 203
3 202 204 203
3 205 199 206
3 206 199 207
3 199 203 207
3 207 203 208
3 203 209 208
3 205 198 199
3 206 207 210
3 205 212 211
3 205 211 198
3 212 205 213
3 213 205 206
3 213 206 210
3 210 207 214
3 217 215 218
3 220 219 221
3 220 221 218
3 218 221 217
3 223 219 220
3 222 219 223
3 224 216 215
3 217 224 215
3 226 225 227
3 227 225 228
3 230 229 231
3 232 230 231
3 234 233 232
3 234 232 235
3 235 232 231
3 237 236 238
3 238 236 239
3 241 240 242
3 244 241 242
3 244 242 243
3 245 244 243
3 246 245 247
3 247 245 243
3 249 248 250
3 250 248 251
3 253 252 254
3 254 252 255
3 257 256 258
3 258 256 259
3 258 259 266
3 266 259 260
3 266 260 261
3 266 261 262
3 263 258 264
3 257 258 263
3 265 258 266
3 258 265 264
3 273 267 268
3 268 269 270
3 268 270 271
3 271 270 272
3 273 268 274
3 271 275 274
3 271 274 268
3 275 271 276
3 278 277 279
3 278 279 280
3 280 281 278
3 282 281 280
3 281 283 278
3 286 277 278
3 283 284 285
3 283 285 278
3 278 285 286
3 287 286 285
3 289 288 290
3 290 288 291
3 293 292 294
3 294 292 295
3 297 296 298
3 298 296 299
3 298 299 300
3 302 297 303
3 303 297 298
3 304 298 300
3 303 298 304
3 304 300 301
3 306 307 305
3 305 303 306
3 302 303 305
3 306 304 309
3 306 303 304
3 309 304 301
3 308 307 306
3 308 306 309
3 310 309 301
3 312 311 313
3 313 311 314
3 315 317 316
3 316 317 318
3 321 320 319
3 315 320 321
3 323 315 321
3 323 322 315
3 322 317 315
3 324 326 327
3 327 326 328
3 329 325 324
3 329 324 330
3 330 324 327
3 331 329 332
3 333 332 330
3 332 329 330
3 334 331 335
3 331 332 335
3 336 332 333
3 335 332 336
3 337 339 338
3 338 339 340
3 339 341 340
3 342 341 339
3 344 343 345
3 345 343 346
3 345 346 347
3 347 346 348
3 349 344 350
3 350 344 345
3 350 345 351
3 351 345 347
3 352 354 353
3 353 354 355
3 354 356 355
3 357 356 354
3 358 359 352
3 352 359 354
3 359 357 354
3 361 359 360
3 359 358 360
3 362 361 360
3 363 361 362
3 365 364 366
3 369 364 367
3 367 364 365
3 368 369 367
3 370 368 371
3 370 372 368
3 372 369 368
3 373 376 374
3 375 376 373
3 374 378 377
3 376 378 374
3 380 379 381
3 381 379 382
3 380 381 383
3 384 380 385
3 385 380 383
3 387 386 388
3 388 386 389
3 387 388 390
3 392 391 393
3 392 393 394
3 392 394 395
3 395 394 390
3 395 390 388
3 397 396 398
3 398 396 399
3 398 399 400
3 400 399 401
3 403 402 404
3 405 403 406
3 406 403 404
3 408 407 405
3 409 408 410
3 407 408 409
3 411 408 405
3 406 411 405
3 408 411 410
3 412 411 406
3 413 412 406
3 413 406 414
3 414 406 404
3 416 415 417
3 417 415 418
3 419 416 417
3 420 419 422
3 422 419 417
3 420 423 421
3 425 423 420
3 422 425 420
3 424 425 426
3 423 425 424
3 428 427 429
3 429 427 430
3 432 431 433
3 433 431 434
3 433 434 435
3 435 434 436
3 435 436 437
3 437 436 438
3 442 441 439
3 440 442 439
3 439 438 440
3 437 438 439
3 445 444 443
3 443 444 446
3 448 447 449
3 449 447 450
3 452 451 453
3 453 451 454
3 456 455 457
3 457 455 458
3 459 462 460
3 461 462 459
3 464 463 465
3 466 464 465
3 467 464 466
3 467 466 465
3 469 468 470
3 470 468 471
3 472 474 473
3 478 473 474
3 475 473 478
3 478 476 475
3 477 476 478
3 480 479 481
3 481 479 482
3 484 483 485
3 485 483 486
3 488 487 489
3 490 488 489
3 490 489 491
3 489 495 491
3 492 495 493
3 492 494 495
3 494 491 495
3 497 496 498
3 498 496 499
3 500 502 503
3 500 503 501
3 503 504 501
3 501 504 505
3 501 505 506
3 501 506 507
3 506 508 507
3 507 508 509
3 511 510 512
3 512 510 513
3 510 514 515
3 510 515 513
3 513 515 516
3 518 517 519
3 519 517 520
3 523 521 518
3 523 518 519
3 521 524 522
3 523 524 521
3 524 528 522
3 523 519 525
3 526 528 524
3 527 528 526
3 523 525 524
3 524 525 526
3 527 526 525
3 529 530 531
3 531 530 532
3 531 532 533
3 530 529 534
3 533 535 531
3 531 535 536
3 537 534 529
3 537 538 539
3 529 538 537
3 540 541 542
3 542 541 543
3 545 544 546
3 546 544 547
3 549 548 550
3 549 550 551
3 551 550 552
3 553 548 545
3 546 553 545
3 554 550 553
3 550 548 553
3 556 550 554
3 556 555 550
3 555 552 550
3 553 558 557
3 553 546 558
3 558 546 559
3 561 560 562
3 562 560 563
3 565 564 561
3 561 564 560
3 564 567 566
3 565 567 564
3 566 568 569
3 566 567 568
3 562 565 561
3 570 567 565
3 570 571 567
3 572 565 562
3 570 565 573
3 565 572 573
3 570 573 571
3 573 572 574
3 573 574 575
3 576 577 578
3 578 577 579
3 581 580 582
3 582 580 583
3 585 584 581
3 584 585 586
3 585 587 586
3 582 585 581
3 587 585 589
3 587 589 588
3 590 585 582
3 585 591 589
3 590 591 585
3 591 592 589
3 590 582 593
3 593 582 583
3 595 592 591
3 594 592 595
3 596 591 590
3 590 593 596
3 596 593 597
3 600 599 598
3 599 600 602
3 599 602 601
3 602 603 601
3 601 603 604
3 603 605 604
3 599 611 598
3 611 599 606
3 606 599 601
3 601 604 607
3 608 606 601
3 608 601 609
3 609 601 610
3 601 607 610
3 609 610 612
3 616 618 617
3 619 613 614
3 615 616 620
3 620 616 621
3 616 617 621
3 622 619 614
3 622 614 615
3 623 622 615
3 623 615 620
3 620 621 624
3 625 622 623
3 625 623 620
3 620 624 626
3 628 629 630
3 629 631 630
3 630 631 632
3 631 633 632
3 640 627 634
3 634 627 628
3 628 635 634
3 630 635 628
3 630 632 636
3 635 637 634
3 637 639 638
3 635 639 637
3 641 634 637
3 641 637 642
3 637 638 642
3 645 644 646
3 645 648 647
3 645 646 648
3 647 649 651
3 647 648 649
3 648 650 649
3 658 643 644
3 652 644 645
3 653 652 645
3 651 649 653
3 649 654 653
3 655 658 644
3 655 644 652
3 652 653 656
3 656 653 657
3 653 654 657
3 659 655 652
3 659 652 660
3 652 656 660
3 662 661 663
3 663 661 664
3 665 667 668
3 668 667 669
3 666 665 671
3 671 665 668
3 672 670 666
3 672 666 673
3 673 666 671
3 673 671 674
3 674 671 675
3 676 672 677
3 673 678 677
3 673 677 672
3 679 673 674
3 679 674 680
3 682 683 681
3 685 684 683
3 683 684 681
3 686 687 684
3 688 689 690
3 691 692 693
3 692 694 693
3 696 697 695
3 698 697 696
3 699 701 700
3 702 701 699
3 704 705 703
3 703 705 706
3 708 709 707
3 699 711 702
3 711 710 702
3 699 712 711
3 713 714 715
3 715 716 717
3 714 716 715
3 718 722 721
3 719 720 723
3 720 725 723
3 725 724 723
3 724 725 726
3 726 725 727
3 719 723 728
3 723 729 728
3 729 723 730
3 730 723 724
3 731 733 734
3 733 732 734
3 737 736 738
3 737 735 736
3 736 739 738
3 740 737 741
3 741 737 738
3 742 741 738
3 743 746 744
3 745 746 743
3 744 747 748
3 744 746 747
3 751 743 744
3 752 744 748
3 753 754 749
3 749 754 750
3 754 748 750
3 752 748 754
3 755 757 758
3 757 756 758
3 762 763 759
3 759 763 760
3 762 759 764
3 764 759 761
3 765 767 766
3 772 769 768
3 772 768 770
3 770 768 771
3 773 771 774
3 770 771 773
3 775 773 774
3 776 773 777
3 777 773 775
3 778 780 779
3 779 780 781
3 785 787 783
3 785 783 784
3 782 786 783
3 786 784 783
3 784 788 789
3 785 784 789
3 788 792 789
3 788 791 792
3 791 790 792
3 793 794 784
3 784 794 788
3 796 795 797
3 796 797 798
3 795 800 799
3 796 800 795
3 801 803 802
3 802 803 804
3 803 798 804
3 805 796 798
3 805 798 806
3 807 796 805
3 800 796 807
3 803 808 798
3 808 806 798
3 803 809 808
3 810 805 806
3 811 806 808
3 813 814 812
3 810 814 813
3 814 810 815
3 815 810 806
3 815 806 811
3 817 816 818
3 818 816 819
3 820 821 822
3 826 828 824
3 826 824 823
3 828 825 824
3 827 824 821
3 825 821 824
3 821 825 822
3 829 825 828
3 830 829 828
3 831 829 830
3 825 829 832
3 833 825 834
3 834 825 835
3 835 825 832
3 836 834 837
3 833 834 836
3 837 835 838
3 834 835 837
3 841 839 840
3 842 839 843
3 844 839 841
3 843 844 845
3 839 844 843
3 849 847 844
3 847 846 844
3 846 848 844
3 850 843 851
3 850 852 843
3 852 842 843
3 853 855 854
3 853 854 856
3 857 858 854
3 854 858 856
3 859 856 860
3 856 858 860
3 859 862 861
3 860 862 859
3 864 863 865
3 865 863 866
3 867 869 868
3 869 870 868
3 869 865 870
3 864 865 869
3 871 874 873
3 871 872 874
3 875 874 872
3 876 877 873
3 876 873 874
3 878 874 875
3 878 875 879
3 879 875 880
3 879 880 882
3 882 880 883
3 884 886 887
3 885 884 887
3 887 886 888
3 885 878 879
3 885 879 889
3 887 878 885
3 890 878 887
3 888 890 887
3 881 890 888
3 891 879 882
3 891 882 892
3 894 884 893
3 886 884 894
3 891 897 879
3 897 889 879
3 896 899 891
3 898 899 896
3 891 899 897
3 901 900 902
3 902 900 895
3 902 895 903
3 903 895 889
3 897 903 889
3 905 904 906
