ply
format ascii 1.0
element vertex 907
property float x
property float y
property float z
element face 755
property list uchar int vertex_indices
end_header
-2.0983 1.2917 3.3217
-2.0983 1.2917 3.3217
-2.1979 1.3917 3.3130
-2.1979 1.3917 3.3130
-2.1969 1.2917 3.3015
-2.0967 1.3917 3.3033
-2.0963 1.4917 3.2981
-2.1961 1.4917 3.2916
-2.0958 1.5917 3.2923
-2.1956 1.5917 3.2856
-1.9948 1.2917 3.2856
-1.9925 1.3917 3.2594
-1.9953 1.4917 3.2911
-2.1979 1.3917 3.3130
-2.2934 1.2917 3.2560
-2.1969 1.2917 3.3015
-2.2956 1.3917 3.2817
-0.1690 1.0917 3.4891
-0.1890 1.1917 3.4874
-0.1114 1.0917 3.5596
-0.1122 1.1917 3.5680
-0.1605 1.2917 3.4899
-0.1128 1.2917 3.5756
0.3507 0.3917 0.5481
0.4497 0.3917 0.5642
0.4505 0.4917 0.5552
0.3498 0.4917 0.5589
0.5522 0.1563 0.5405
0.5384 0.1917 0.5393
0.5533 0.1917 0.5278
0.5307 0.1917 0.6390
0.5435 0.2019 0.6401
0.5550 0.2917 0.5075
0.4473 0.1917 0.5924
0.5467 0.1917 0.6031
0.4505 0.2917 0.5554
0.4844 0.4917 0.5346
0.4497 0.3917 0.5642
0.4505 0.4917 0.5552
0.5585 0.4917 0.4674
0.6547 0.2917 0.5151
0.6545 0.3917 0.5176
0.6550 0.4917 0.5119
0.7111 0.2917 0.5543
0.6833 0.3917 0.5519
0.6890 0.4917 0.5523
0.4844 0.4917 0.5346
0.4505 0.4917 0.5552
0.4516 0.5917 0.5420
0.5585 0.4917 0.4674
0.5540 0.5917 0.5189
0.4525 0.6917 0.5318
0.5540 0.6917 0.5188
0.5435 0.7276 0.6401
0.4568 0.7917 0.6326
0.5522 0.7135 0.5405
0.4640 0.7917 0.5328
0.6518 0.5291 0.5491
0.5737 0.5917 0.5423
0.6550 0.4917 0.5119
0.1191 0.8917 0.9044
0.2100 0.7992 1.0126
0.1390 0.8917 1.0065
0.2187 0.7973 0.9130
0.3097 0.8000 1.0213
0.3183 0.8074 0.9217
0.2273 0.7917 0.8134
0.3270 0.8117 0.8220
0.2360 0.7917 0.7138
0.3356 0.8017 0.7224
0.0194 0.8917 0.8957
0.1191 0.8917 0.9044
0.1140 0.9917 0.9621
0.0141 0.9917 0.9578
0.1754 0.8917 1.1100
0.1383 0.9917 1.1068
0.1390 0.8917 1.0065
0.1247 0.9917 1.0052
0.1450 0.4917 0.6055
0.0454 0.4917 0.5968
0.1256 0.4917 0.5034
0.1235 0.5917 0.5033
0.0480 0.5917 0.5665
0.0627 0.5917 0.3976
0.0601 0.4917 0.4277
0.1537 0.6614 0.5059
0.1520 0.6917 0.5247
0.0523 0.6917 0.5175
0.1710 0.6762 0.3066
0.1537 0.7917 0.5059
0.0540 0.7917 0.4972
0.2533 0.5523 0.5145
0.1975 0.5917 0.5097
0.2957 0.4917 0.3175
0.1978 0.5917 0.4093
0.1945 0.5917 0.3087
0.2477 0.5917 0.5788
0.1623 0.6917 0.4062
0.2446 0.7917 0.6141
0.1450 0.8091 0.6055
0.3251 0.4917 0.5207
0.2986 0.4917 0.4181
0.3496 0.5917 0.5612
0.2360 0.7917 0.7138
0.3529 0.7917 0.5232
0.3356 0.8017 0.7224
0.3443 0.8157 0.6228
0.3498 0.4917 0.5589
0.4505 0.4917 0.5552
0.4516 0.5917 0.5420
0.4525 0.6917 0.5318
1.4020 2.8917 3.4702
1.5035 2.8917 3.4752
1.5036 3.0924 3.4719
1.4022 3.0919 3.4670
1.5055 3.1917 3.4338
1.4059 3.1500 3.4251
1.5037 3.1923 3.4703
1.4278 3.1917 3.3266
1.4145 3.1756 3.3255
1.6034 2.9923 3.4784
1.6094 1.2917 2.8405
1.6322 1.2917 2.4410
1.6036 1.4921 2.8400
1.6094 1.4923 2.7396
1.6065 1.5925 2.7391
1.6122 1.5925 2.6392
1.6179 1.5924 2.5395
1.6236 1.5917 2.4402
1.6150 1.6917 2.5398
1.5920 1.6917 2.4375
1.6322 1.2917 2.4410
1.6436 1.2917 2.2413
1.6407 1.3917 2.2410
1.6378 1.4916 2.2408
1.6236 1.5917 2.4402
1.6293 1.5918 2.3403
1.6349 1.5912 2.2410
1.3997 1.2917 3.4960
1.4995 1.2917 3.5008
1.5003 1.6917 3.4944
1.4003 1.6917 3.4895
1.5752 1.2917 3.4407
1.5866 1.2917 3.2400
1.5694 1.4907 3.4404
1.5751 1.4906 3.3406
1.6051 1.6917 3.4424
1.5722 1.5905 3.3404
1.5636 1.6917 3.4401
1.5751 1.6917 3.2390
1.5866 1.2917 3.2400
1.5894 1.3914 3.1403
1.6094 1.2917 2.8405
1.5951 1.3917 3.0401
1.6008 1.3920 2.9399
1.5865 1.4910 3.1405
1.5980 1.4920 2.9397
1.6036 1.4921 2.8400
1.5836 1.5904 3.1408
1.5751 1.6917 3.2390
1.6311 1.6917 3.1435
1.5841 2.4917 3.2398
1.5802 2.5917 3.2395
1.5972 2.4917 3.1406
1.5505 2.5917 3.1365
1.4014 2.4917 3.4767
1.5018 2.4917 3.4815
1.5035 2.8917 3.4752
1.4020 2.8917 3.4702
1.5542 2.4917 3.4380
1.5837 2.4917 3.3402
1.5962 2.5917 3.3413
1.5841 2.4917 3.2398
1.5802 2.5917 3.2395
1.6122 2.6917 3.3613
1.6138 2.6503 3.3428
1.5482 2.6917 3.2367
1.6150 2.6917 3.3290
1.6138 2.7120 3.3428
1.5706 2.7917 3.3390
1.5677 2.8917 3.3388
1.4008 2.0917 3.4831
1.5012 2.1918 3.4864
1.5018 2.4917 3.4815
1.4014 2.4917 3.4767
1.6121 2.0917 3.4934
1.5542 2.1917 3.4380
1.6138 2.0917 3.3428
1.5774 2.1917 3.2392
1.5774 2.0917 3.2392
1.5577 2.0917 3.3393
1.6138 2.2917 3.3428
1.5727 2.2917 3.2388
1.5542 2.4917 3.4380
1.5779 2.3917 3.2393
1.5837 2.4917 3.3402
1.5841 2.4917 3.2398
1.5693 1.8910 3.2385
1.5664 1.9910 3.2383
1.5750 1.8914 3.1390
1.5721 1.9915 3.1386
1.4003 1.6917 3.4895
1.5003 1.6917 3.4944
1.5009 1.9419 3.4904
1.4008 2.0917 3.4831
1.6051 1.6917 3.4424
1.5593 1.8417 3.4385
1.5636 1.6917 3.4401
1.5751 1.6917 3.2390
1.5568 1.7917 3.2375
1.5693 1.8910 3.2385
1.6051 1.9917 3.4424
1.5607 1.9902 3.3398
1.5664 1.9910 3.2383
1.6121 2.0917 3.4934
1.5774 2.0917 3.2392
1.5577 2.0917 3.3393
1.6138 1.9917 3.3428
1.6138 2.0917 3.3428
-2.7006 0.8917 3.3218
-2.6002 0.8917 3.3214
-2.6006 0.9917 3.3268
-2.6990 0.9917 3.3037
-2.6002 0.8917 3.3214
-2.4986 0.8917 3.3073
-2.6006 0.9917 3.3268
-2.5012 1.0917 3.3376
-2.6012 1.0917 3.3336
-2.3972 0.8917 3.2957
-2.3992 1.0917 3.3191
-2.2976 0.8917 3.3044
-2.2976 1.0917 3.3044
-2.2993 1.1917 3.3239
-2.3987 1.1917 3.3136
-2.1979 0.9487 3.3130
-2.1990 0.9917 3.3258
-2.1979 1.0457 3.3130
-2.1979 1.1917 3.3130
-2.2976 1.2165 3.3044
-2.0983 0.9917 3.3217
-2.1979 0.9487 3.3130
-2.1990 0.9917 3.3258
-2.0983 1.0917 3.3217
-2.1979 1.0457 3.3130
-2.1979 1.1917 3.3130
-2.0983 1.2917 3.3217
-2.2976 0.8917 3.3044
-2.1979 0.9487 3.3130
-2.1960 0.8917 3.2906
-2.1979 1.0457 3.3130
-2.2976 1.0917 3.3044
-2.1971 1.0917 3.3034
-2.1979 1.1917 3.3130
-2.1979 1.1917 3.3130
-2.2976 1.2165 3.3044
-2.1969 1.2917 3.3015
-2.2934 1.2917 3.2560
-2.0983 0.9917 3.3217
-2.1979 0.9487 3.3130
-2.1960 0.8917 3.2906
-2.0921 0.8917 3.2499
-2.0983 1.0917 3.3217
-2.1979 1.0457 3.3130
-2.1971 1.0917 3.3034
-2.1979 1.1917 3.3130
-2.0983 1.2917 3.3217
-2.1979 1.1917 3.3130
-2.1969 1.2917 3.3015
-1.9941 0.8917 3.2772
-1.9963 0.9917 3.3028
-1.9987 1.0917 3.3303
-1.9987 1.0917 3.3303
-2.0983 1.1917 3.3217
-1.9971 1.1917 3.3122
-2.0983 1.2917 3.3217
-1.9948 1.2917 3.2856
-0.1145 1.3379 3.5943
-0.1317 1.3917 3.5928
-0.1165 1.3917 3.6181
-0.1605 1.2917 3.4899
-0.1612 1.3917 3.4898
-0.1128 1.2917 3.5756
-1.7971 2.4917 3.3210
-1.3973 2.4917 3.3404
-1.3968 2.8917 3.3340
-1.7966 2.8917 3.3145
-1.7975 2.1924 3.3258
-1.6965 2.1922 3.3307
-1.7971 2.4917 3.3210
-1.5961 2.1924 3.3356
-1.4967 2.1921 3.3404
-1.3977 2.1922 3.3453
-1.3973 2.4917 3.3404
-1.3973 2.4917 3.3404
-0.9975 2.4917 3.3599
-0.9969 2.8917 3.3535
-1.3968 2.8917 3.3340
-1.3977 2.1922 3.3453
-1.2968 2.1921 3.3502
-1.3976 2.2922 3.3436
-1.3973 2.4917 3.3404
-1.1976 2.1918 3.3550
-1.0967 2.1922 3.3599
-0.9979 2.1919 3.3647
-0.9975 2.4917 3.3599
-0.9975 2.4917 3.3599
-0.5977 2.4917 3.3794
-0.5971 2.8917 3.3729
-0.9969 2.8917 3.3535
-0.9981 2.0917 3.3663
-0.5982 2.0917 3.3858
-0.5977 2.4917 3.3794
-0.9975 2.4917 3.3599
-0.7976 1.6917 3.3826
-0.6971 1.6917 3.3875
-0.6970 1.7924 3.3858
-0.7980 1.7920 3.3809
-0.7979 1.8920 3.3793
-0.7976 1.9920 3.3777
-0.7979 2.0917 3.3761
-0.5884 1.6917 3.2725
-0.5885 1.7917 3.2737
-0.5985 1.8923 3.3890
-0.5982 2.0917 3.3858
-0.7981 1.2917 3.3890
-0.7982 1.3921 3.3874
-0.7984 1.4920 3.3857
-0.7979 1.5921 3.3842
-0.6971 1.6917 3.3875
-0.7976 1.6917 3.3826
-0.5994 1.2917 3.3987
-0.5989 1.5921 3.3938
-0.5953 1.6123 3.3518
-0.5884 1.6917 3.2725
-0.5994 1.2917 3.3987
-0.3986 1.5919 3.4036
-0.5989 1.5921 3.3938
-0.5953 1.6123 3.3518
-0.4870 1.6917 3.2608
-0.5884 1.6917 3.2725
-0.3942 1.6917 3.3483
-0.3481 1.6917 3.3732
-0.2984 1.6917 3.4069
-0.1995 1.2917 3.4181
-0.1990 1.6917 3.4117
-0.5982 2.0917 3.3858
-0.1984 2.0917 3.4053
-0.1979 2.4917 3.3988
-0.5977 2.4917 3.3794
-0.5977 2.4917 3.3794
-0.1979 2.4917 3.3988
-0.1973 2.8917 3.3924
-0.5971 2.8917 3.3729
-0.5884 1.6917 3.2725
-0.4870 1.6917 3.2608
-0.4883 1.7917 3.2758
-0.5885 1.7917 3.2737
-0.5985 1.8923 3.3890
-0.5982 2.0917 3.3858
-0.3942 1.6917 3.3483
-0.3937 1.7917 3.3423
-0.3975 1.8446 3.3996
-0.3481 1.6917 3.3732
-0.2983 1.7920 3.4052
-0.2984 1.6917 3.4069
-0.1990 1.6917 3.4117
-0.1987 1.8921 3.4085
-0.1984 2.0917 3.4053
1.5833 0.3917 2.5371
1.6136 0.4917 2.5398
1.6556 0.3917 2.4430
1.6528 0.4917 2.4428
1.6149 0.2917 2.4395
1.6556 0.3917 2.4430
1.6486 0.2917 2.3420
1.6723 0.2917 2.2437
1.6750 0.3917 2.2440
1.7176 0.3338 2.1473
1.6179 0.3231 2.1386
1.6149 0.2917 2.1739
1.7118 0.3917 2.2136
1.6528 0.4917 2.4428
1.6660 0.4917 2.3436
1.6743 0.4917 2.2439
1.7176 0.4917 2.1473
1.5480 0.8917 2.5341
1.5747 0.8917 2.6368
1.5920 0.9155 2.4375
1.4924 0.9073 2.4289
1.4884 0.8917 2.4747
1.5574 0.8917 2.8360
1.6181 0.9920 2.8413
1.6409 0.9917 2.4418
1.6094 1.2917 2.8405
1.6322 1.2917 2.4410
1.5920 0.9155 2.4375
1.4924 0.9073 2.4289
1.5010 0.8917 2.3292
1.6006 0.8917 2.3379
1.6409 0.9917 2.4418
1.6552 0.8917 2.2427
1.6523 0.9916 2.2422
1.6494 1.0913 2.2421
1.6465 1.1918 2.2414
1.6322 1.2917 2.4410
1.6436 1.2917 2.2413
1.5920 0.6917 2.4375
1.4924 0.6486 2.4289
1.5010 0.6917 2.3292
1.6006 0.6917 2.3379
1.5038 0.7917 2.2969
1.6006 0.8917 2.3379
1.5010 0.8917 2.3292
1.6528 0.4917 2.4428
1.6516 0.5917 2.4427
1.6660 0.4917 2.3436
1.6663 0.5917 2.3436
1.6743 0.4917 2.2439
1.6776 0.5917 2.2442
1.7176 0.4917 2.1473
1.6907 0.5917 2.1449
1.6758 0.6917 2.2440
1.7089 0.7917 2.2469
1.6552 0.8917 2.2427
1.6136 0.4917 2.5398
1.5833 0.5484 2.5371
1.6528 0.4917 2.4428
1.6516 0.5917 2.4427
1.5852 0.5917 2.5159
1.5920 0.6917 2.4375
1.4813 0.9917 3.4317
1.3993 0.9920 3.5008
1.5007 1.0923 3.5041
1.4759 0.9917 3.3308
1.5228 0.9917 3.2345
1.5743 1.1939 3.5067
1.4995 1.2917 3.5008
1.3997 1.2917 3.4960
1.5810 1.0921 3.4400
1.5924 1.0914 3.2406
1.5752 1.2909 3.4407
1.5866 1.2917 3.2400
1.5228 0.9917 3.2345
1.4232 0.9917 3.2259
1.4405 0.8917 3.0266
1.5351 0.8917 3.0932
1.5348 0.9917 3.0963
1.4347 0.9917 3.0934
1.4318 1.0086 3.1262
1.5851 0.8917 3.0392
1.6067 0.9922 3.0406
1.5487 0.8917 2.9356
1.6124 0.9919 2.9410
1.5574 0.8917 2.8360
1.6181 0.9920 2.8413
1.5924 1.0914 3.2406
1.5866 1.2917 3.2400
1.6094 1.2917 2.8405
-1.7966 2.8917 3.3145
-1.6953 3.0922 3.3162
-1.7963 3.0918 3.3113
-1.5958 3.0920 3.3211
-1.4954 3.0922 3.3259
-1.3968 2.8917 3.3340
-1.3965 3.0921 3.3308
-1.3923 3.1361 3.2826
-1.4919 3.1353 3.2739
-1.3968 2.8917 3.3340
-0.9969 2.8917 3.3535
-1.2948 3.0925 3.3357
-1.3965 3.0921 3.3308
-1.2927 3.0917 3.2912
-1.3923 3.1361 3.2826
-1.1930 3.1295 3.2999
-0.9938 3.1334 3.3172
-1.0848 3.1661 3.2089
-1.1844 3.1672 3.2002
-0.9967 3.0918 3.3502
-0.9851 3.1409 3.2175
-0.9969 2.8917 3.3535
-0.9967 3.0918 3.3502
-0.9938 3.1334 3.3172
-0.9851 3.1409 3.2175
-0.8769 3.1429 3.1266
-0.9765 3.1509 3.1179
-0.6949 3.1233 3.3431
-0.6863 3.1498 3.2435
-0.7772 3.1459 3.1352
-0.6968 3.0918 3.3648
-0.6776 3.1506 3.1439
-0.5971 2.8917 3.3729
-0.5967 3.1920 3.3681
-0.5953 3.1917 3.3518
-0.5866 3.1523 3.2521
-0.5780 3.1491 3.1525
-0.5971 2.8917 3.3729
-0.4968 3.0918 3.3746
-0.5967 3.1920 3.3681
-0.5953 3.1917 3.3518
-0.5866 3.1523 3.2521
-0.4784 3.1570 3.1612
-0.5780 3.1491 3.1525
-0.3466 3.1103 3.3816
-0.2878 3.1631 3.2781
-0.2705 3.1277 3.0788
-0.3701 3.0917 3.0702
-0.4697 3.1438 3.0615
-0.1795 3.1499 3.1871
-0.1973 2.8917 3.3924
-0.1971 3.0680 3.3895
-0.1969 3.1683 3.3879
-0.1708 3.1319 3.0875
-0.6310 0.2917 0.4377
-0.6200 0.3917 0.4387
-0.5409 0.2917 0.4128
-0.5414 0.4917 0.4189
-0.6123 0.4917 0.4394
-0.4416 0.2917 0.4254
-0.4429 0.3917 0.4406
-0.4441 0.4917 0.4540
-0.4441 0.4917 0.4540
-0.3499 0.5917 0.5256
-0.5414 0.4917 0.4189
-0.5420 0.5917 0.4257
-0.5437 0.6917 0.4453
-0.4459 0.6917 0.4746
-0.4614 0.7917 0.6532
-0.4527 0.7917 0.5536
-0.3480 0.4917 0.5037
-0.3470 0.6917 0.4918
-0.3618 0.7917 0.6619
-0.3531 0.7917 0.5622
-0.3791 0.9917 0.8611
-0.4700 0.8917 0.7529
-0.3743 0.8917 0.8066
-0.4750 0.9917 0.8105
-0.4700 0.7917 0.7529
-0.4614 0.7917 0.6532
-0.4700 0.8917 0.7529
-0.3704 0.7917 0.7615
-0.3618 0.7917 0.6619
-0.3743 0.8917 0.8066
-0.3615 0.8917 0.8626
-0.3791 0.9917 0.8611
-0.3743 0.8917 0.8066
-0.2335 0.9917 1.0745
-0.2967 0.9380 1.0690
-0.2184 0.8917 0.9754
-0.2015 0.9917 0.9769
-0.2927 0.8917 1.0229
-0.1798 0.8917 0.8784
-0.1852 0.9917 0.9403
-0.0854 0.9917 0.9473
0.0194 0.8917 0.8957
0.0141 0.9917 0.9578
-0.2708 0.7917 0.7701
-0.3704 0.7917 0.7615
-0.2621 0.7917 0.6705
-0.3618 0.7917 0.6619
-0.3429 0.8917 1.0650
-0.3964 0.8033 1.0604
-0.2881 0.7981 0.9694
-0.3626 0.8917 0.9629
-0.2927 0.8917 1.0229
-0.3899 0.8917 0.9858
-0.2794 0.7969 0.8698
-0.3615 0.8917 0.8626
-0.3704 0.7917 0.7615
-0.2708 0.7917 0.7701
-0.3743 0.8917 0.8066
-0.2184 0.8917 0.9754
-0.1798 0.8917 0.8784
-0.2707 0.5917 0.4690
-0.2448 0.6307 0.4713
-0.3499 0.5917 0.5256
-0.3470 0.6917 0.4918
-0.2767 0.5917 0.3681
-0.2362 0.6678 0.3716
-0.2621 0.7917 0.6705
-0.3618 0.7917 0.6619
-0.2535 0.7917 0.5709
-0.3531 0.7917 0.5622
-0.1452 0.5917 0.4799
-0.0473 0.6917 0.5088
-0.1366 0.5917 0.3803
-0.1452 0.7917 0.4799
-0.1539 0.8100 0.5795
-0.0516 0.5917 0.5580
0.0540 0.7917 0.4972
0.0454 0.4917 0.5968
-0.0542 0.4917 0.5882
0.0480 0.5917 0.5665
0.0523 0.6917 0.5175
0.5022 0.3932 3.4668
0.5988 0.3924 3.4715
0.5990 0.4917 3.4699
0.5022 0.4917 3.4652
1.3841 0.9156 2.5198
1.2845 0.9235 2.5112
1.3927 0.9111 2.4202
1.2931 0.9157 2.4116
1.4269 0.8917 2.6239
1.3754 0.9105 2.6195
1.4511 0.8917 2.5256
1.4924 0.9073 2.4289
1.4884 0.8917 2.4747
1.1054 0.6917 2.2610
1.2044 0.6917 2.2776
1.1051 0.7917 2.2644
1.2044 0.8917 2.2774
1.1037 0.8917 2.2808
1.3046 0.6917 2.2796
1.3028 0.8917 2.3000
1.4033 0.6917 2.2984
1.4039 0.7917 2.2912
1.4014 0.8917 2.3206
1.5010 0.6917 2.3292
1.5038 0.7917 2.2969
1.5010 0.8917 2.3292
1.0939 0.9260 2.3943
0.9942 0.9486 2.3856
1.1025 0.8980 2.2946
1.0029 0.9036 2.2860
1.0052 0.8917 2.2587
1.1037 0.8917 2.2808
0.9075 0.6917 2.2281
1.0054 0.6917 2.2571
1.0057 0.7917 2.2535
0.9059 0.7917 2.2464
1.0052 0.8917 2.2587
0.9058 0.8917 2.2477
1.1054 0.6917 2.2610
1.1051 0.7917 2.2644
1.1037 0.8917 2.2808
1.1935 0.9247 2.4029
1.0939 0.9260 2.3943
1.2021 0.9041 2.3033
1.1025 0.8980 2.2946
1.1037 0.8917 2.2808
1.2044 0.8917 2.2774
1.2931 0.9157 2.4116
1.3028 0.8917 2.3000
1.3927 0.9111 2.4202
1.4014 0.8917 2.3206
1.4924 0.9073 2.4289
1.5010 0.8917 2.3292
0.5995 0.8917 3.4635
0.7010 0.9923 3.4668
0.5997 0.9922 3.4619
0.8007 0.9922 3.4717
0.9003 0.9920 3.4765
0.9993 0.8917 3.4830
0.9644 1.0917 3.4872
0.8991 1.0384 3.4815
0.9996 1.0918 3.4797
-0.1690 1.0917 3.4891
-0.1890 1.1917 3.4874
-0.2004 1.0917 3.4281
-0.2024 1.1917 3.4514
-0.1605 1.2917 3.4899
-0.1995 1.2917 3.4181
0.2999 0.8917 3.4489
0.3996 0.8917 3.4538
0.4003 0.9920 3.4522
0.2979 0.9917 3.4696
0.5006 0.9921 3.4571
0.5995 0.8917 3.4635
0.5997 0.9922 3.4619
0.2997 0.7918 3.4505
0.4001 0.7920 3.4554
0.3996 0.8917 3.4538
0.2999 0.8917 3.4489
0.5007 0.7923 3.4603
0.5022 0.4917 3.4652
0.5990 0.4917 3.4699
0.5012 0.5926 3.4636
0.5005 0.6923 3.4619
0.5995 0.8917 3.4635
1.0084 0.2917 3.3785
1.1080 0.2917 3.3871
1.1091 0.3917 3.3751
1.0094 0.3917 3.3670
1.1093 0.4917 3.3726
0.9988 0.4917 3.4894
0.5990 0.4917 3.4699
0.8000 0.4917 3.4797
0.5995 0.8917 3.4635
0.9038 0.4917 3.4278
0.9012 0.7926 3.4798
0.9660 0.4917 3.3869
0.9562 0.5917 3.3861
0.9988 0.4917 3.4894
1.0094 0.5917 3.3674
1.0106 0.6917 3.3537
1.0103 0.7917 3.3565
1.0074 0.8261 3.3905
0.9993 0.8917 3.4830
0.5988 0.3924 3.4715
0.7006 0.3925 3.4765
0.8000 0.4917 3.4797
0.5990 0.4917 3.4699
0.8002 0.3923 3.4813
0.8037 0.2917 3.4243
0.9077 0.2917 3.3819
0.9038 0.4917 3.4278
1.0084 0.2917 3.3785
1.0094 0.3917 3.3670
0.9660 0.4917 3.3869
0.9988 0.4917 3.4894
0.9993 0.8917 3.4830
1.3992 0.8917 3.5024
1.3997 1.2917 3.4960
0.9999 1.2917 3.4765
0.9988 0.4917 3.4894
1.1093 0.4917 3.3726
1.1094 0.5917 3.3720
1.0094 0.5917 3.3674
1.1097 0.6917 3.3684
1.0106 0.6917 3.3537
1.1083 0.7917 3.3843
1.0103 0.7917 3.3565
1.1070 0.8141 3.3992
1.0074 0.8261 3.3905
1.1005 0.8917 3.4879
0.9993 0.8917 3.4830
1.4169 0.9917 3.1249
1.4318 1.0086 3.1262
1.4232 0.9917 3.2259
1.4347 0.9917 3.0934
-0.1973 2.8917 3.3924
-0.0971 3.0917 3.3940
-0.1971 3.0439 3.3899
-0.0593 3.1403 3.2477
-0.1969 3.1683 3.3879
-0.1795 3.1499 3.1871
-0.0712 3.0917 3.0961
-0.1708 3.1319 3.0875
0.2028 3.0920 3.4086
0.0284 3.0917 3.1048
0.2104 3.1441 3.3213
0.2190 3.1729 3.2217
0.1280 3.1331 3.1134
0.2025 2.8917 3.4118
0.2277 3.0917 3.1221
0.2025 2.8917 3.4118
0.2028 3.0920 3.4086
0.2104 3.1441 3.3213
0.2190 3.1729 3.2217
0.3273 3.1615 3.1307
0.2277 3.0917 3.1221
0.6023 2.8917 3.4313
0.6175 3.1573 3.2563
0.4269 3.1450 3.1394
0.6026 3.0920 3.4281
0.5092 3.1228 3.3473
0.5265 3.1508 3.1480
0.6089 3.1528 3.3559
0.6262 3.1607 3.1567
1.0021 2.8917 3.4508
1.0024 3.0921 3.4475
1.0074 3.1369 3.3905
1.2153 3.1917 3.3082
1.0160 3.1685 3.2909
1.1243 3.1650 3.1999
1.0247 3.1635 3.1913
1.4022 3.0919 3.4670
1.2043 3.1925 3.4557
1.2239 3.1461 3.2086
1.3062 3.1715 3.4165
1.3149 3.1724 3.3168
1.2153 3.1917 3.3082
1.4020 2.8917 3.4702
1.4059 3.1500 3.4251
1.4145 3.1756 3.3255
0.6023 2.8917 3.4313
0.6026 3.0920 3.4281
0.7127 3.1917 3.3162
0.6089 3.1528 3.3559
0.6708 3.1917 3.2609
0.6175 3.1573 3.2563
0.7258 3.1659 3.1653
0.6262 3.1607 3.1567
0.7225 3.1917 3.2035
0.9077 3.1519 3.3819
0.7770 3.1917 3.2701
0.8254 3.1374 3.1740
1.0024 3.0921 3.4475
1.0247 3.1635 3.1913
0.9250 3.1616 3.1826
1.0021 2.8917 3.4508
1.0074 3.1369 3.3905
1.0160 3.1685 3.2909
1.0010 2.0917 3.4636
1.4008 2.0917 3.4831
1.4014 2.4917 3.4767
1.0016 2.4917 3.4572
1.0016 2.4917 3.4572
1.4014 2.4917 3.4767
1.4020 2.8917 3.4702
1.0021 2.8917 3.4508
0.9999 1.2917 3.4765
1.3997 1.2917 3.4960
1.4003 1.6917 3.4895
1.0005 1.6917 3.4701
-0.1605 1.2917 3.4899
-0.1612 1.3917 3.4898
-0.1995 1.2917 3.4181
-0.1994 1.3922 3.4165
-0.1983 2.1920 3.4036
0.2015 2.1918 3.4231
-0.1979 2.4917 3.3988
0.1019 2.2918 3.4166
0.2020 2.4917 3.4183
-0.1979 2.4917 3.3988
0.2020 2.4917 3.4183
0.2025 2.8917 3.4118
-0.1973 2.8917 3.3924
0.2016 2.1918 3.4231
0.3020 2.1920 3.4280
0.2020 2.4917 3.4183
0.4024 2.1922 3.4329
0.5020 2.1920 3.4377
0.6013 2.1921 3.4426
0.6018 2.4917 3.4377
0.2020 2.4917 3.4183
0.6018 2.4917 3.4377
0.6023 2.8917 3.4313
0.2025 2.8917 3.4118
0.6018 2.4917 3.4377
1.0016 2.4917 3.4572
1.0021 2.8917 3.4508
0.6023 2.8917 3.4313
0.6013 2.1921 3.4426
0.7020 2.1920 3.4475
0.6018 2.4917 3.4377
0.8005 2.1914 3.4523
0.9013 2.1918 3.4572
1.0000 2.0917 3.4636
1.0010 2.0913 3.4636
0.9010 2.0917 3.4588
1.0016 2.4917 3.4572
1.0005 1.6917 3.4701
1.4003 1.6917 3.4895
1.4008 2.0917 3.4831
1.0010 2.0917 3.4636
-1.1757 0.9917 3.1006
-1.1706 0.8917 3.0411
-1.0715 0.8917 3.0565
-1.0737 0.9917 3.0814
-1.0848 1.0287 3.2089
-1.1844 1.0300 3.2002
-0.9734 0.8917 3.0818
-0.9753 0.9917 3.1047
-0.9851 1.0151 3.2175
-0.9765 0.9969 3.1179
-1.0690 0.7917 3.0271
-0.9720 0.7917 3.0662
-0.9734 0.8917 3.0818
-1.0715 0.8917 3.0565
-0.9720 0.7917 3.0662
-0.8727 0.7917 3.0783
-0.8741 0.8917 3.0942
-0.9734 0.8917 3.0818
-0.7772 0.8917 3.1352
-0.7756 0.7917 3.1167
-0.6776 0.7917 3.1439
-0.6803 0.8917 3.1743
-0.6132 0.7917 3.3502
-0.6111 0.8917 3.3504
-0.6001 0.7921 3.4067
-0.5999 0.8917 3.4051
-0.6265 0.7917 3.2487
-0.6253 0.8917 3.2488
-0.6949 0.9917 3.3431
-0.7945 0.9917 3.3345
-0.6863 0.9599 3.2435
-0.7859 1.0038 3.2348
-0.7772 0.8917 3.1352
-0.6803 0.8917 3.1743
-0.7835 0.9917 3.2071
-0.7974 0.9927 3.3939
-0.6976 0.9926 3.3987
-0.7973 1.0927 3.3923
-0.7980 1.1924 3.3906
-0.7981 1.2917 3.3890
-0.6111 0.8917 3.3504
-0.5999 0.8917 3.4051
-0.6253 0.8917 3.2488
-0.5994 1.2917 3.3987
-0.6001 0.7921 3.4067
-0.5007 0.7915 3.4116
-0.5999 0.8917 3.4051
-0.4011 0.7913 3.4164
-0.3014 0.7912 3.4213
-0.2002 0.7913 3.4262
-0.2001 0.8917 3.4246
-0.5999 0.8917 3.4051
-0.5994 1.2917 3.3987
-0.2000 0.9918 3.4230
-0.2983 1.0924 3.4166
-0.1995 1.2917 3.4181
-0.2001 0.8917 3.4246
-0.2004 1.0917 3.4281
-0.2024 1.1917 3.4514
0.2706 0.5170 0.3153
0.1945 0.5917 0.3087
0.2792 0.5917 0.2156
3 0 4 3
3 1 2 5
3 2 7 5
3 7 6 5
3 6 7 8
3 8 7 9
3 1 5 10
3 5 11 10
3 11 5 12
3 12 5 6
3 13 15 16
3 15 14 16
3 20 19 17
3 18 20 17
3 22 20 18
3 21 22 18
3 24 23 25
3 25 23 26
3 27 28 29
3 33 35 31
3 33 31 30
3 35 32 31
3 34 31 28
3 32 28 31
3 28 32 29
3 36 32 35
3 37 36 35
3 38 36 37
3 32 36 39
3 40 32 41
3 41 32 42
3 42 32 39
3 43 41 44
3 40 41 43
3 44 42 45
3 41 42 44
3 48 46 47
3 49 46 50
3 51 46 48
3 50 51 52
3 46 51 50
3 56 54 51
3 54 53 51
3 53 55 51
3 57 50 58
3 57 59 50
3 59 49 50
3 60 62 61
3 60 61 63
3 64 65 61
3 61 65 63
3 66 63 67
3 63 65 67
3 66 69 68
3 67 69 66
3 71 70 72
3 72 70 73
3 74 76 75
3 76 77 75
3 76 72 77
3 71 72 76
3 78 81 80
3 78 79 81
3 82 81 79
3 83 84 80
3 83 80 81
3 85 81 82
3 85 82 86
3 86 82 87
3 86 87 89
3 89 87 90
3 91 93 94
3 92 91 94
3 94 93 95
3 92 85 86
3 92 86 96
3 94 85 92
3 97 85 94
3 95 97 94
3 88 97 95
3 98 86 89
3 98 89 99
3 101 91 100
3 93 91 101
3 98 104 86
3 104 96 86
3 103 106 98
3 105 106 103
3 98 106 104
3 108 107 109
3 109 107 102
3 109 102 110
3 110 102 96
3 104 110 96
3 113 111 114
3 116 115 117
3 116 117 114
3 114 117 113
3 119 115 116
3 118 115 119
3 120 112 111
3 113 120 111
3 121 123 124
3 121 124 122
3 124 125 122
3 122 125 126
3 122 126 127
3 122 127 128
3 127 129 128
3 128 129 130
3 132 131 133
3 133 131 134
3 131 135 136
3 131 136 134
3 134 136 137
3 139 138 140
3 140 138 141
3 144 142 139
3 144 139 140
3 142 145 143
3 144 145 142
3 145 149 143
3 144 140 146
3 147 149 145
3 148 149 147
3 144 146 145
3 145 146 147
3 148 147 146
3 150 151 152
3 152 151 153
3 152 153 154
3 151 150 155
3 154 156 152
3 152 156 157
3 158 155 150
3 158 159 160
3 150 159 158
3 161 162 163
3 163 162 164
3 166 165 167
3 167 165 168
3 170 169 171
3 170 171 172
3 172 171 173
3 174 169 166
3 167 174 166
3 175 171 174
3 171 169 174
3 177 171 175
3 177 176 171
3 176 173 171
3 174 179 178
3 174 167 179
3 179 167 180
3 182 181 183
3 183 181 184
3 186 185 182
3 182 185 181
3 185 188 187
3 186 188 185
3 187 189 190
3 187 188 189
3 183 186 182
3 191 188 186
3 191 192 188
3 193 186 183
3 191 186 194
3 186 193 194
3 191 194 192
3 194 193 195
3 194 195 196
3 197 198 199
3 199 198 200
3 202 201 203
3 203 201 204
3 206 205 202
3 205 206 207
3 206 208 207
3 203 206 202
3 208 206 210
3 208 210 209
3 211 206 203
3 206 212 210
3 211 212 206
3 212 213 210
3 211 203 214
3 214 203 204
3 216 213 212
3 215 213 216
3 217 212 211
3 211 214 217
3 217 214 218
3 220 219 221
3 221 219 222
3 223 225 226
3 226 225 227
3 224 223 229
3 229 223 226
3 230 228 224
3 230 224 231
3 231 224 229
3 231 229 232
3 232 229 233
3 234 230 235
3 231 236 235
3 231 235 230
3 237 231 232
3 237 232 238
3 240 241 239
3 243 242 241
3 241 242 239
3 244 245 242
3 246 247 248
3 249 250 251
3 250 252 251
3 254 255 253
3 256 255 254
3 257 259 258
3 260 259 257
3 262 263 261
3 261 263 264
3 266 267 265
3 257 269 260
3 269 268 260
3 257 270 269
3 271 272 273
3 273 274 275
3 272 274 273
3 278 276 277
3 276 281 279
3 276 279 277
3 277 279 280
3 283 282 284
3 284 282 285
3 287 286 288
3 289 287 288
3 291 290 289
3 291 289 292
3 292 289 288
3 294 293 295
3 295 293 296
3 298 297 299
3 301 298 299
3 301 299 300
3 302 301 300
3 303 302 304
3 304 302 300
3 306 305 307
3 307 305 308
3 310 309 311
3 311 309 312
3 314 313 315
3 315 313 316
3 315 316 323
3 323 316 317
3 323 317 318
3 323 318 319
3 320 315 321
3 314 315 320
3 322 315 323
3 315 322 321
3 330 324 325
3 325 326 327
3 325 327 328
3 328 327 329
3 330 325 331
3 328 332 331
3 328 331 325
3 332 328 333
3 335 334 336
3 335 336 337
3 337 338 335
3 339 338 337
3 338 340 335
3 343 334 335
3 340 341 342
3 340 342 335
3 335 342 343
3 344 343 342
3 346 345 347
3 347 345 348
3 350 349 351
3 351 349 352
3 354 353 355
3 355 353 356
3 355 356 357
3 359 354 360
3 360 354 355
3 361 355 357
3 360 355 361
3 361 357 358
3 363 364 362
3 362 360 363
3 359 360 362
3 363 361 366
3 363 360 361
3 366 361 358
3 365 364 363
3 365 363 366
3 367 366 358
3 368 369 370
3 370 369 371
3 372 373 374
3 374 373 375
3 379 375 376
3 379 376 377
3 379 377 378
3 380 377 376
3 373 381 375
3 375 381 382
3 375 382 376
3 376 382 383
3 380 383 384
3 376 383 380
3 385 388 389
3 385 387 388
3 390 391 386
3 385 386 392
3 392 386 391
3 387 385 392
3 391 393 394
3 391 394 392
3 395 397 396
3 398 397 395
3 398 395 399
3 398 399 400
3 399 404 400
3 400 404 401
3 401 404 402
3 402 404 403
3 403 404 405
3 407 408 406
3 406 408 409
3 408 410 409
3 411 410 412
3 413 414 415
3 415 414 416
3 415 416 417
3 417 416 418
3 419 417 420
3 417 418 420
3 414 406 416
3 416 406 409
3 416 409 418
3 418 409 421
3 422 421 409
3 422 409 410
3 422 410 411
3 422 411 423
3 425 428 427
3 425 427 424
3 424 427 426
3 429 427 428
3 430 431 432
3 432 431 435
3 435 431 437
3 435 437 436
3 430 432 438
3 438 439 430
3 430 439 433
3 434 433 439
3 435 438 432
3 439 435 441
3 438 435 439
3 440 435 436
3 441 435 440
3 445 444 446
3 446 444 447
3 442 448 443
3 446 448 442
3 446 447 448
3 450 449 445
3 446 450 445
3 449 450 451
3 451 450 452
3 451 452 453
3 453 452 454
3 446 442 455
3 446 455 450
3 450 455 457
3 450 457 452
3 452 457 454
3 455 456 457
3 459 458 460
3 463 458 461
3 461 458 459
3 462 463 461
3 464 463 462
3 464 462 466
3 465 464 466
3 468 467 469
3 469 467 470
3 469 470 472
3 471 469 472
3 473 469 471
3 474 469 473
3 474 473 475
3 473 476 475
3 477 468 469
3 477 469 474
3 474 475 478
3 482 484 483
3 490 479 480
3 485 480 481
3 485 481 486
3 481 482 486
3 486 482 487
3 482 483 487
3 488 490 480
3 488 480 485
3 486 487 489
3 491 490 488
3 485 492 491
3 485 491 488
3 492 485 493
3 485 486 493
3 493 486 494
3 486 489 494
3 496 495 497
3 498 496 497
3 498 499 496
3 496 499 500
3 499 501 500
3 502 496 503
3 503 496 504
3 496 500 504
3 504 500 505
3 500 506 505
3 502 495 496
3 503 504 507
3 502 509 508
3 502 508 495
3 509 502 510
3 510 502 503
3 510 503 507
3 507 504 511
3 514 513 515
3 514 512 513
3 513 516 515
3 517 514 518
3 518 514 515
3 519 518 515
3 520 523 521
3 522 523 520
3 521 524 525
3 521 523 524
3 528 520 521
3 529 521 525
3 530 531 526
3 526 531 527
3 531 525 527
3 529 525 531
3 532 534 535
3 534 533 535
3 539 540 536
3 536 540 537
3 539 536 541
3 541 536 538
3 542 544 543
3 549 546 545
3 549 545 547
3 547 545 548
3 550 548 551
3 547 548 550
3 552 550 551
3 553 550 554
3 554 550 552
3 555 557 556
3 556 557 558
3 562 564 560
3 562 560 561
3 559 563 560
3 563 561 560
3 561 565 566
3 562 561 566
3 565 569 566
3 565 568 569
3 568 567 569
3 570 571 561
3 561 571 565
3 573 572 574
3 573 574 575
3 572 577 576
3 573 577 572
3 578 580 579
3 579 580 581
3 580 575 581
3 582 573 575
3 582 575 583
3 584 573 582
3 577 573 584
3 580 585 575
3 585 583 575
3 580 586 585
3 587 582 583
3 588 583 585
3 590 591 589
3 587 591 590
3 591 587 592
3 592 587 583
3 592 583 588
3 594 593 595
3 595 593 596
3 597 599 598
3 598 599 600
3 603 602 601
3 597 602 603
3 605 597 603
3 605 604 597
3 604 599 597
3 606 608 609
3 609 608 610
3 611 607 606
3 611 606 612
3 612 606 609
3 613 611 614
3 615 614 612
3 614 611 612
3 616 613 617
3 613 614 617
3 618 614 615
3 617 614 618
3 619 621 620
3 620 621 622
3 621 623 622
3 624 623 621
3 626 625 627
3 627 625 628
3 627 628 629
3 629 628 630
3 631 626 632
3 632 626 627
3 632 627 633
3 633 627 629
3 634 636 635
3 635 636 637
3 636 638 637
3 639 638 636
3 640 641 634
3 634 641 636
3 641 639 636
3 643 641 642
3 641 640 642
3 644 643 642
3 645 643 644
3 647 646 648
3 651 646 649
3 649 646 647
3 650 651 649
3 652 650 653
3 652 654 650
3 654 651 650
3 655 658 656
3 657 658 655
3 656 660 659
3 658 660 656
3 662 661 663
3 663 661 664
3 662 663 665
3 666 662 667
3 667 662 665
3 669 668 670
3 670 668 671
3 669 670 672
3 674 673 675
3 674 675 676
3 674 676 677
3 677 676 672
3 677 672 670
3 679 678 680
3 680 678 681
3 680 681 682
3 682 681 683
3 685 684 686
3 687 685 688
3 688 685 686
3 690 689 687
3 691 690 692
3 689 690 691
3 693 690 687
3 688 693 687
3 690 693 692
3 694 693 688
3 695 694 688
3 695 688 696
3 696 688 686
3 698 697 699
3 699 697 700
3 701 698 699
3 702 701 704
3 704 701 699
3 702 705 703
3 707 705 702
3 704 707 702
3 706 707 708
3 705 707 706
3 710 709 711
3 711 709 712
3 714 713 715
3 715 713 716
3 715 716 717
3 717 716 718
3 717 718 719
3 719 718 720
3 724 723 721
3 722 724 721
3 721 720 722
3 719 720 721
3 727 726 725
3 725 726 728
3 731 730 729
3 730 731 733
3 730 733 732
3 733 734 732
3 732 734 735
3 734 736 735
3 730 742 729
3 742 730 737
3 737 730 732
3 732 735 738
3 739 737 732
3 739 732 740
3 740 732 741
3 732 738 741
3 740 741 743
3 747 749 748
3 750 744 745
3 746 747 751
3 751 747 752
3 747 748 752
3 753 750 745
3 753 745 746
3 754 753 746
3 754 746 751
3 751 752 755
3 756 753 754
3 756 754 751
3 751 755 757
3 759 760 761
3 760 762 761
3 761 762 763
3 762 764 763
3 771 758 765
3 765 758 759
3 759 766 765
3 761 766 759
3 761 763 767
3 766 768 765
3 768 770 769
3 766 770 768
3 772 765 768
3 772 768 773
3 768 769 773
3 776 775 777
3 776 779 778
3 776 777 779
3 778 780 782
3 778 779 780
3 779 781 780
3 789 774 775
3 783 775 776
3 784 783 776
3 782 780 784
3 780 785 784
3 786 789 775
3 786 775 783
3 783 784 787
3 787 784 788
3 784 785 788
3 790 786 783
3 790 783 791
3 783 787 791
3 793 792 794
3 794 792 795
3 797 796 798
3 798 796 799
3 801 800 802
3 802 800 803
3 804 807 805
3 806 807 804
3 809 808 810
3 811 809 810
3 812 809 811
3 812 811 810
3 814 813 815
3 815 813 816
3 817 819 818
3 823 818 819
3 820 818 823
3 823 821 820
3 822 821 823
3 825 824 826
3 826 824 827
3 829 828 830
3 830 828 831
3 833 832 834
3 835 833 834
3 835 834 836
3 834 840 836
3 837 840 838
3 837 839 840
3 839 836 840
3 842 841 843
3 843 841 844
3 845 848 846
3 848 847 846
3 845 850 848
3 851 847 852
3 852 847 848
3 853 854 849
3 849 854 850
3 854 848 850
3 852 848 854
3 856 855 857
3 857 855 858
3 860 859 861
3 861 859 862
3 863 864 861
3 864 860 861
3 865 863 866
3 865 864 863
3 870 869 867
3 868 870 867
3 867 871 868
3 871 872 868
3 871 866 872
3 865 866 871
3 876 874 875
3 875 874 873
3 875 879 876
3 875 878 879
3 878 877 879
3 881 880 888
3 888 880 882
3 888 882 883
3 888 883 884
3 885 873 881
3 885 881 886
3 886 881 888
3 887 873 885
3 875 873 887
3 887 878 875
3 890 889 891
3 892 890 891
3 893 892 891
3 894 893 895
3 895 893 891
3 898 896 899
3 899 896 897
3 899 897 900
3 901 896 898
3 902 898 899
3 902 899 903
3 903 899 900
3 905 904 906
