ply
format ascii 1.0
element vertex 901
property float x
property float y
property float z
element face 753
property list uchar int vertex_indices
end_header
-2.0983 1.2917 3.3217
-2.0983 1.2917 3.3217
-2.1979 1.3917 3.3130
-2.1979 1.3917 3.3130
-2.1969 1.2917 3.3015
-2.0967 1.3917 3.3033
-2.0963 1.4917 3.2981
-2.1961 1.4917 3.2916
-2.0958 1.5917 3.2923
-2.1956 1.5917 3.2856
-1.9948 1.2917 3.2856
-1.9925 1.3917 3.2594
-1.9953 1.4917 3.2911
-2.1979 1.3917 3.3130
-2.2934 1.2917 3.2560
-2.1969 1.2917 3.3015
-2.2956 1.3917 3.2817
-0.1817 1.0917 3.4880
-0.2054 1.1917 3.4860
-0.1108 1.0917 3.5527
-0.1108 1.1917 3.5520
-0.1605 1.2917 3.4899
-0.1128 1.2917 3.5756
0.3506 0.3917 0.5493
0.4497 0.3917 0.5642
0.4505 0.4917 0.5552
0.3500 0.4917 0.5571
0.5522 0.1305 0.5405
0.5258 0.1917 0.5382
0.5542 0.1917 0.5164
0.5550 0.2917 0.5080
0.4473 0.1917 0.5917
0.4463 0.2917 0.6037
0.4497 0.3917 0.5642
0.4844 0.4917 0.5346
0.4505 0.4917 0.5552
0.5585 0.4917 0.4674
0.6547 0.2917 0.5156
0.6545 0.3917 0.5176
0.6550 0.4917 0.5119
0.7105 0.2917 0.5542
0.6833 0.3917 0.5519
0.6890 0.4917 0.5523
0.4844 0.4917 0.5346
0.4505 0.4917 0.5552
0.4516 0.5917 0.5420
0.5585 0.4917 0.4674
0.5540 0.5917 0.5189
0.4525 0.6917 0.5318
0.5540 0.6917 0.5188
0.5435 0.7276 0.6401
0.4568 0.7917 0.6326
0.5522 0.7135 0.5405
0.4640 0.7917 0.5328
0.6518 0.5291 0.5491
0.5737 0.5917 0.5423
0.6550 0.4917 0.5119
0.1191 0.8917 0.9044
0.2100 0.7993 1.0126
0.1394 0.8917 1.0065
0.2187 0.7976 0.9130
0.2273 0.7917 0.8134
0.3356 0.7917 0.7224
0.2360 0.7917 0.7138
0.3010 0.8022 1.1209
0.2014 0.8266 1.1123
0.3097 0.7995 1.0213
0.3183 0.8070 0.9217
0.3270 0.8035 0.8220
0.0194 0.8917 0.8957
0.1191 0.8917 0.9044
0.1140 0.9917 0.9629
0.0142 0.9917 0.9563
0.1018 1.0272 1.1036
0.0021 1.0275 1.0950
0.1104 1.0057 1.0040
0.0108 1.0057 0.9953
0.1772 0.8917 1.1102
0.1374 0.9917 1.1067
0.1394 0.8917 1.0065
0.1450 0.4917 0.6055
0.0454 0.4917 0.5968
0.1282 0.4917 0.5037
0.1051 0.5917 0.5017
0.0479 0.5917 0.5674
0.0627 0.5917 0.3976
0.0600 0.4917 0.4287
0.1519 0.6917 0.5258
0.0521 0.6917 0.5194
0.1623 0.6522 0.4062
0.1710 0.6698 0.3066
0.0713 0.6405 0.2980
0.1537 0.7917 0.5059
0.0540 0.7917 0.4972
0.2533 0.5546 0.5145
0.2478 0.5917 0.5776
0.2619 0.5322 0.4149
0.2669 0.5917 0.3574
0.2706 0.6244 0.3153
0.2446 0.7917 0.6141
0.1450 0.8113 0.6055
0.3296 0.4917 0.5211
0.3500 0.4917 0.5571
0.4516 0.5917 0.5420
0.2974 0.4917 0.4180
0.3031 0.5917 0.3181
0.3356 0.7917 0.7224
0.2360 0.7917 0.7138
0.3529 0.7917 0.5232
0.3443 0.8154 0.6228
0.4505 0.4917 0.5552
0.4525 0.6917 0.5318
1.4020 2.8917 3.4702
1.5035 2.8917 3.4752
1.5036 3.0924 3.4719
1.4022 3.0919 3.4670
1.5055 3.1917 3.4338
1.4059 3.1500 3.4251
1.5037 3.1923 3.4703
1.4278 3.1917 3.3266
1.4145 3.1756 3.3255
1.6034 2.9923 3.4784
1.6092 1.2917 2.8405
1.6322 1.2917 2.4410
1.6038 1.4921 2.8400
1.6095 1.4923 2.7396
1.6068 1.5924 2.7392
1.6126 1.5925 2.6393
1.6183 1.5923 2.5395
1.6240 1.5917 2.4403
1.6156 1.6917 2.5399
1.5920 1.6917 2.4375
1.6322 1.2917 2.4410
1.6437 1.2917 2.2413
1.6410 1.3917 2.2410
1.6383 1.4916 2.2409
1.6240 1.5917 2.4403
1.6298 1.5918 2.3404
1.6355 1.5912 2.2411
1.3997 1.2917 3.4960
1.4995 1.2917 3.5008
1.5003 1.6917 3.4944
1.4003 1.6917 3.4895
1.5747 1.2917 3.4407
1.5693 1.4908 3.4403
1.5862 1.2917 3.2400
1.5750 1.4907 3.3406
1.6051 1.6917 3.4424
1.5723 1.5906 3.3404
1.5638 1.6917 3.4401
1.5753 1.6917 3.2391
1.5862 1.2917 3.2400
1.5893 1.3914 3.1403
1.6092 1.2917 2.8405
1.5950 1.3917 3.0401
1.6008 1.3920 2.9399
1.5753 1.6917 3.2391
1.5865 1.4910 3.1404
1.5980 1.4920 2.9397
1.6038 1.4921 2.8400
1.5838 1.5904 3.1408
1.6311 1.6917 3.1435
1.5841 2.4917 3.2398
1.5802 2.5917 3.2395
1.5972 2.4917 3.1406
1.5505 2.5917 3.1365
1.4014 2.4917 3.4767
1.5018 2.4917 3.4815
1.5035 2.8917 3.4752
1.4020 2.8917 3.4702
1.5542 2.4917 3.4380
1.5837 2.4917 3.3402
1.5962 2.5917 3.3413
1.5841 2.4917 3.2398
1.5802 2.5917 3.2395
1.6122 2.6917 3.3613
1.6138 2.6503 3.3428
1.5482 2.6917 3.2367
1.6150 2.6917 3.3290
1.6138 2.7120 3.3428
1.5706 2.7917 3.3390
1.5677 2.8917 3.3388
1.4008 2.0917 3.4831
1.5012 2.1918 3.4864
1.5018 2.4917 3.4815
1.4014 2.4917 3.4767
1.6121 2.0917 3.4934
1.5542 2.1917 3.4380
1.6138 2.0917 3.3428
1.5774 2.1917 3.2392
1.5774 2.0917 3.2392
1.5586 2.0917 3.3394
1.6138 2.2917 3.3428
1.5727 2.2917 3.2388
1.5542 2.4917 3.4380
1.5779 2.3917 3.2393
1.5837 2.4917 3.3402
1.5841 2.4917 3.2398
1.5699 1.8910 3.2386
1.5672 1.9910 3.2384
1.5756 1.8914 3.1391
1.5729 1.9916 3.1387
1.4003 1.6917 3.4895
1.5003 1.6917 3.4944
1.5009 1.9419 3.4904
1.4008 2.0917 3.4831
1.6051 1.6917 3.4424
1.5597 1.8417 3.4385
1.5638 1.6917 3.4401
1.5753 1.6917 3.2391
1.5568 1.7917 3.2375
1.5699 1.8910 3.2386
1.6051 1.9917 3.4424
1.5613 1.9903 3.3398
1.5672 1.9910 3.2384
1.6121 2.0917 3.4934
1.5774 2.0917 3.2392
1.5586 2.0917 3.3394
1.6138 1.9917 3.3428
1.6138 2.0917 3.3428
-2.3990 0.9917 3.3169
-2.2987 0.9917 3.3176
-2.2976 1.0917 3.3044
-2.3972 1.0917 3.2957
-2.2993 1.1917 3.3239
-2.3987 1.1917 3.3136
-2.1979 0.9917 3.3130
-2.2976 0.9622 3.3044
-2.1979 1.1917 3.3130
-2.2976 1.2165 3.3044
-2.0983 0.9917 3.3217
-2.1979 0.9917 3.3130
-2.0983 1.0917 3.3217
-2.1979 1.1917 3.3130
-2.0983 1.2917 3.3217
-2.1979 0.9917 3.3130
-2.2976 0.9622 3.3044
-2.2944 0.8917 3.2683
-2.1925 0.8917 3.2499
-2.1979 0.9917 3.3130
-2.2976 1.0917 3.3044
-2.1969 1.0917 3.3006
-2.1979 1.1917 3.3130
-2.1979 1.1917 3.3130
-2.2976 1.2165 3.3044
-2.1969 1.2917 3.3015
-2.2934 1.2917 3.2560
-2.0983 0.9917 3.3217
-2.1979 0.9917 3.3130
-2.1925 0.8917 3.2499
-2.0921 0.8917 3.2499
-2.0983 1.0917 3.3217
-2.1979 0.9917 3.3130
-2.1969 1.0917 3.3006
-2.1979 1.1917 3.3130
-2.0983 1.2917 3.3217
-2.1979 1.1917 3.3130
-2.1969 1.2917 3.3015
-1.9941 0.8917 3.2772
-1.9963 0.9917 3.3028
-2.0983 1.0917 3.3217
-1.9973 1.0917 3.3143
-2.0983 1.1917 3.3217
-1.9971 1.1917 3.3122
-2.0983 1.2917 3.3217
-1.9948 1.2917 3.2856
-0.1145 1.3379 3.5943
-0.1317 1.3917 3.5928
-0.1165 1.3917 3.6181
-0.1605 1.2917 3.4899
-0.1612 1.3917 3.4898
-0.1128 1.2917 3.5756
-1.7971 2.4917 3.3210
-1.3973 2.4917 3.3404
-1.3968 2.8917 3.3340
-1.7966 2.8917 3.3145
-1.7975 2.1924 3.3258
-1.6965 2.1922 3.3307
-1.7971 2.4917 3.3210
-1.5961 2.1924 3.3356
-1.4967 2.1921 3.3404
-1.3977 2.1922 3.3453
-1.3973 2.4917 3.3404
-1.3973 2.4917 3.3404
-0.9975 2.4917 3.3599
-0.9969 2.8917 3.3535
-1.3968 2.8917 3.3340
-1.3977 2.1922 3.3453
-1.2968 2.1921 3.3502
-1.3976 2.2922 3.3436
-1.3973 2.4917 3.3404
-1.1976 2.1918 3.3550
-1.0967 2.1922 3.3599
-0.9979 2.1919 3.3647
-0.9975 2.4917 3.3599
-0.9975 2.4917 3.3599
-0.5977 2.4917 3.3794
-0.5971 2.8917 3.3729
-0.9969 2.8917 3.3535
-0.9981 2.0917 3.3663
-0.5982 2.0917 3.3858
-0.5977 2.4917 3.3794
-0.9975 2.4917 3.3599
-0.7976 1.6917 3.3826
-0.6971 1.6917 3.3875
-0.6970 1.7924 3.3858
-0.7980 1.7920 3.3809
-0.7979 1.8920 3.3793
-0.7976 1.9920 3.3777
-0.7979 2.0917 3.3761
-0.5884 1.6917 3.2725
-0.5885 1.7917 3.2737
-0.5985 1.8923 3.3890
-0.5982 2.0917 3.3858
-0.7985 1.2917 3.3890
-0.7982 1.3921 3.3874
-0.7984 1.4920 3.3857
-0.7979 1.5921 3.3842
-0.6971 1.6917 3.3875
-0.7976 1.6917 3.3826
-0.5994 1.2917 3.3987
-0.5989 1.5921 3.3938
-0.5953 1.6123 3.3518
-0.5884 1.6917 3.2725
-0.5994 1.2917 3.3987
-0.3986 1.5919 3.4036
-0.5989 1.5921 3.3938
-0.5953 1.6123 3.3518
-0.4870 1.6917 3.2608
-0.5884 1.6917 3.2725
-0.3942 1.6917 3.3483
-0.3481 1.6917 3.3732
-0.2984 1.6917 3.4069
-0.1995 1.2917 3.4181
-0.1990 1.6917 3.4117
-0.5982 2.0917 3.3858
-0.1984 2.0917 3.4053
-0.1979 2.4917 3.3988
-0.5977 2.4917 3.3794
-0.5977 2.4917 3.3794
-0.1979 2.4917 3.3988
-0.1973 2.8917 3.3924
-0.5971 2.8917 3.3729
-0.5884 1.6917 3.2725
-0.4870 1.6917 3.2608
-0.4883 1.7917 3.2758
-0.5885 1.7917 3.2737
-0.5985 1.8923 3.3890
-0.5982 2.0917 3.3858
-0.3942 1.6917 3.3483
-0.3937 1.7917 3.3423
-0.3975 1.8446 3.3996
-0.3481 1.6917 3.3732
-0.2983 1.7920 3.4052
-0.2984 1.6917 3.4069
-0.1990 1.6917 3.4117
-0.1987 1.8921 3.4085
-0.1984 2.0917 3.4053
1.5833 0.3917 2.5371
1.6136 0.4917 2.5398
1.6630 0.3917 2.4437
1.6528 0.4917 2.4428
1.6161 0.2917 2.4396
1.6630 0.3917 2.4437
1.6486 0.2917 2.3420
1.6723 0.2917 2.2437
1.6802 0.3917 2.2444
1.7176 0.3338 2.1473
1.6179 0.3221 2.1386
1.6149 0.2917 2.1739
1.7115 0.3917 2.2165
1.6528 0.4917 2.4428
1.6669 0.4917 2.3436
1.6763 0.4917 2.2441
1.7176 0.4917 2.1473
1.5480 0.8917 2.5341
1.5747 0.8917 2.6368
1.5920 0.9155 2.4375
1.4924 0.9073 2.4289
1.4884 0.8917 2.4747
1.5574 0.8917 2.8360
1.6174 0.9919 2.8412
1.6404 0.9916 2.4417
1.6092 1.2917 2.8405
1.6322 1.2917 2.4410
1.5920 0.9155 2.4375
1.4924 0.9073 2.4289
1.5010 0.8917 2.3292
1.6006 0.8917 2.3379
1.6404 0.9916 2.4417
1.6546 0.8917 2.2427
1.6519 0.9916 2.2421
1.6492 1.0914 2.2421
1.6465 1.1918 2.2414
1.6322 1.2917 2.4410
1.6437 1.2917 2.2413
1.5920 0.6917 2.4375
1.4924 0.6536 2.4289
1.5010 0.6917 2.3292
1.6006 0.6917 2.3379
1.5032 0.7917 2.3039
1.6006 0.8917 2.3379
1.5010 0.8917 2.3292
1.6528 0.4917 2.4428
1.6516 0.5917 2.4427
1.6669 0.4917 2.3436
1.6663 0.5917 2.3436
1.6763 0.4917 2.2441
1.6776 0.5917 2.2442
1.7176 0.4917 2.1473
1.6907 0.5917 2.1449
1.6758 0.6917 2.2440
1.7089 0.7917 2.2469
1.6546 0.8917 2.2427
1.6136 0.4917 2.5398
1.5833 0.5484 2.5371
1.6528 0.4917 2.4428
1.6516 0.5917 2.4427
1.5852 0.5917 2.5159
1.5920 0.6917 2.4375
1.4725 0.9917 3.4309
1.3993 0.9920 3.5008
1.5328 1.0917 3.4532
1.4700 0.9917 3.3303
1.5228 0.9917 3.2345
1.5736 1.1937 3.5067
1.4995 1.2917 3.5008
1.3997 1.2917 3.4960
1.5917 1.0914 3.2405
1.5747 1.2909 3.4407
1.5862 1.2917 3.2400
1.5228 0.9917 3.2345
1.4232 0.9917 3.2259
1.4405 0.8917 3.0266
1.5351 0.8917 3.0932
1.5348 0.9917 3.0963
1.4347 0.9917 3.0934
1.4318 1.0086 3.1262
1.5851 0.8917 3.0392
1.6059 0.9921 3.0406
1.5487 0.8917 2.9356
1.6117 0.9919 2.9409
1.5574 0.8917 2.8360
1.6174 0.9919 2.8412
1.5917 1.0914 3.2405
1.5862 1.2917 3.2400
1.6092 1.2917 2.8405
-1.7966 2.8917 3.3145
-1.6953 3.0922 3.3162
-1.7963 3.0918 3.3113
-1.5958 3.0920 3.3211
-1.4954 3.0922 3.3259
-1.3968 2.8917 3.3340
-1.3965 3.0921 3.3308
-1.3923 3.1361 3.2826
-1.4919 3.1353 3.2739
-1.3968 2.8917 3.3340
-0.9969 2.8917 3.3535
-1.2948 3.0925 3.3357
-1.3965 3.0921 3.3308
-1.2927 3.0917 3.2912
-1.3923 3.1361 3.2826
-1.1930 3.1295 3.2999
-0.9938 3.1334 3.3172
-1.0848 3.1661 3.2089
-1.1844 3.1672 3.2002
-0.9967 3.0918 3.3502
-0.9851 3.1409 3.2175
-0.9969 2.8917 3.3535
-0.9967 3.0918 3.3502
-0.9938 3.1334 3.3172
-0.9851 3.1409 3.2175
-0.8769 3.1429 3.1266
-0.9765 3.1509 3.1179
-0.6949 3.1233 3.3431
-0.6863 3.1498 3.2435
-0.7772 3.1459 3.1352
-0.6968 3.0918 3.3648
-0.6776 3.1506 3.1439
-0.5971 2.8917 3.3729
-0.5967 3.1920 3.3681
-0.5953 3.1917 3.3518
-0.5866 3.1523 3.2521
-0.5780 3.1491 3.1525
-0.5971 2.8917 3.3729
-0.4968 3.0918 3.3746
-0.5967 3.1920 3.3681
-0.5953 3.1917 3.3518
-0.5866 3.1523 3.2521
-0.4784 3.1570 3.1612
-0.5780 3.1491 3.1525
-0.3466 3.1103 3.3816
-0.2878 3.1631 3.2781
-0.2705 3.1277 3.0788
-0.3701 3.0917 3.0702
-0.4697 3.1438 3.0615
-0.1795 3.1499 3.1871
-0.1973 2.8917 3.3924
-0.1971 3.0680 3.3895
-0.1969 3.1683 3.3879
-0.1708 3.1319 3.0875
-0.1061 1.0409 1.1859
-0.2058 1.0393 1.1773
-0.0975 1.0288 1.0863
-0.1971 1.0287 1.0777
-0.0065 1.0380 1.1946
0.0021 1.0275 1.0950
-0.1080 0.3917 0.4832
-0.1132 0.4917 0.4827
-0.1483 0.3917 0.5154
-0.1539 0.4917 0.5795
-0.4441 0.4917 0.4540
-0.3477 0.4917 0.5000
-0.3498 0.5917 0.5236
-0.4457 0.5917 0.4727
-0.3467 0.6917 0.4886
-0.4461 0.6917 0.4768
-0.3618 0.7917 0.6619
-0.4614 0.7917 0.6532
-0.3531 0.7917 0.5622
-0.4527 0.7917 0.5536
-0.3791 0.9917 0.8611
-0.4700 0.8917 0.7529
-0.3744 0.8917 0.8078
-0.4752 0.9917 0.8127
-0.4700 0.7917 0.7529
-0.4614 0.7917 0.6532
-0.4700 0.8917 0.7529
-0.3704 0.7917 0.7615
-0.3618 0.7917 0.6619
-0.3744 0.8917 0.8078
-0.3630 0.8917 0.8625
-0.3791 0.9917 0.8611
-0.3744 0.8917 0.8078
-0.2230 0.8917 0.9750
-0.2022 0.9917 0.9769
-0.1798 0.8917 0.8784
-0.1851 0.9917 0.9391
-0.0854 0.9917 0.9469
-0.0975 1.0288 1.0863
-0.1971 1.0287 1.0777
-0.0888 1.0054 0.9867
-0.1885 1.0055 0.9780
0.0194 0.8917 0.8957
0.0142 0.9917 0.9563
0.0021 1.0275 1.0950
0.0108 1.0057 0.9953
-0.2967 0.8105 1.0690
-0.3964 0.8029 1.0604
-0.2881 0.7991 0.9694
-0.3647 0.8917 0.9627
-0.3894 0.8917 0.9807
-0.2794 0.7917 0.8698
-0.3630 0.8917 0.8625
-0.3704 0.7917 0.7615
-0.3744 0.8917 0.8078
-0.2230 0.8917 0.9750
-0.1798 0.8917 0.8784
-0.3200 0.4917 0.4648
-0.2795 0.5917 0.4683
-0.3477 0.4917 0.5000
-0.3498 0.5917 0.5236
-0.2769 0.5917 0.3681
-0.2415 0.5917 0.4331
-0.2448 0.6417 0.4713
-0.2470 0.6917 0.4964
-0.3467 0.6917 0.4886
-0.2362 0.6648 0.3716
-0.2621 0.7917 0.6705
-0.3618 0.7917 0.6619
-0.2535 0.7917 0.5709
-0.3531 0.7917 0.5622
-0.1539 0.4917 0.5795
-0.1452 0.5400 0.4799
-0.2234 0.5917 0.4731
-0.1712 0.4917 0.3773
-0.2362 0.5688 0.3716
-0.1405 0.4917 0.4260
-0.1376 0.5917 0.3923
-0.2310 0.4917 0.3119
-0.1366 0.6155 0.3803
-0.1452 0.7917 0.4799
-0.1539 0.8118 0.5795
0.0454 0.4917 0.5968
-0.1132 0.4917 0.4827
-0.0516 0.5917 0.5583
-0.0369 0.5241 0.3889
-0.1297 0.5917 0.3809
-0.0396 0.4917 0.4200
-0.0306 0.5917 0.3163
0.0521 0.6917 0.5194
0.0540 0.7917 0.4972
0.0479 0.5917 0.5674
0.0627 0.5917 0.3976
0.0600 0.4917 0.4287
0.5022 0.3932 3.4668
0.5988 0.3924 3.4715
0.5990 0.4917 3.4699
0.5022 0.4917 3.4652
1.3841 0.9156 2.5198
1.2845 0.9235 2.5112
1.3927 0.9111 2.4202
1.2931 0.9157 2.4116
1.4269 0.8917 2.6239
1.3754 0.9105 2.6195
1.4511 0.8917 2.5256
1.4924 0.9073 2.4289
1.4884 0.8917 2.4747
1.1052 0.6917 2.2635
1.2040 0.6917 2.2817
1.2039 0.7917 2.2824
1.1049 0.7917 2.2672
1.2021 0.8917 2.3033
1.1037 0.8917 2.2808
1.3034 0.6917 2.2934
1.4032 0.6917 2.2994
1.5010 0.8917 2.3292
1.5010 0.6917 2.3292
1.5032 0.7917 2.3039
1.0939 0.9260 2.3943
0.9942 0.9474 2.3856
1.1025 0.8980 2.2946
1.0029 0.9010 2.2860
1.0047 0.8917 2.2649
1.1037 0.8917 2.2808
0.9075 0.6917 2.2281
1.0054 0.6917 2.2568
1.0054 0.7917 2.2568
0.9060 0.7917 2.2458
1.0047 0.8917 2.2649
0.9053 0.8917 2.2541
1.1052 0.6917 2.2635
1.1049 0.7917 2.2672
1.1037 0.8917 2.2808
1.1935 0.9214 2.4029
1.0939 0.9260 2.3943
1.2021 0.8917 2.3033
1.1025 0.8980 2.2946
1.1037 0.8917 2.2808
1.2931 0.9157 2.4116
1.3927 0.9111 2.4202
1.4924 0.9073 2.4289
1.5010 0.8917 2.3292
0.5995 0.8917 3.4635
0.7010 0.9923 3.4668
0.5997 0.9922 3.4619
0.8004 0.9921 3.4717
0.8998 0.9919 3.4765
0.9993 0.8917 3.4830
0.9996 1.0916 3.4797
0.8991 1.0223 3.4815
-0.1817 1.0917 3.4880
-0.2054 1.1917 3.4860
-0.2028 1.0917 3.4560
-0.1605 1.2917 3.4899
-0.2054 1.1917 3.4860
-0.1995 1.2917 3.4181
0.2999 0.8917 3.4489
0.3996 0.8917 3.4538
0.4003 0.9920 3.4522
0.2979 0.9917 3.4696
0.5006 0.9921 3.4571
0.5995 0.8917 3.4635
0.5997 0.9922 3.4619
0.2997 0.7918 3.4505
0.4001 0.7920 3.4554
0.3996 0.8917 3.4538
0.2999 0.8917 3.4489
0.5007 0.7923 3.4603
0.5022 0.4917 3.4652
0.5990 0.4917 3.4699
0.5012 0.5926 3.4636
0.5005 0.6923 3.4619
0.5995 0.8917 3.4635
1.0074 0.1917 3.3905
1.1070 0.2917 3.3992
1.0074 0.2917 3.3905
1.1093 0.3917 3.3726
1.0106 0.3917 3.3536
1.1096 0.4917 3.3697
0.9988 0.4917 3.4894
0.5990 0.4917 3.4699
0.9011 0.4917 3.4846
0.5995 0.8917 3.4635
0.8006 0.6424 3.4773
1.0102 0.6917 3.3574
0.9993 0.8917 3.4830
0.9699 0.4917 3.3873
0.9449 0.5917 3.3851
0.9988 0.4917 3.4894
1.0101 0.5917 3.3587
1.0104 0.7917 3.3555
1.0074 0.8269 3.3905
0.5988 0.3924 3.4715
0.7004 0.3924 3.4765
0.9011 0.4917 3.4846
0.5990 0.4917 3.4699
0.8002 0.3924 3.4813
0.8009 0.2927 3.4830
0.9077 0.2917 3.3819
0.9011 0.3928 3.4863
1.0074 0.2917 3.3905
1.0106 0.3917 3.3536
0.9699 0.4917 3.3873
0.9988 0.4917 3.4894
0.9993 0.8917 3.4830
1.3992 0.8917 3.5024
1.3997 1.2917 3.4960
0.9999 1.2917 3.4765
0.9988 0.4917 3.4894
1.1096 0.4917 3.3697
1.1101 0.5917 3.3634
1.0101 0.5917 3.3587
1.1095 0.6917 3.3703
1.0102 0.6917 3.3574
1.1082 0.7917 3.3852
1.0104 0.7917 3.3555
1.1026 0.8155 3.4892
1.0074 0.8269 3.3905
1.1005 0.8917 3.4879
0.9993 0.8917 3.4830
1.4169 0.9917 3.1249
1.4318 1.0086 3.1262
1.4232 0.9917 3.2259
1.4347 0.9917 3.0934
-0.1973 2.8917 3.3924
-0.0971 3.0917 3.3940
-0.1971 3.0439 3.3899
-0.0593 3.1403 3.2477
-0.1969 3.1683 3.3879
-0.1795 3.1499 3.1871
-0.0712 3.0917 3.0961
-0.1708 3.1319 3.0875
0.2028 3.0920 3.4086
0.0284 3.0917 3.1048
0.2104 3.1441 3.3213
0.2190 3.1729 3.2217
0.1280 3.1331 3.1134
0.2025 2.8917 3.4118
0.2277 3.0917 3.1221
0.2025 2.8917 3.4118
0.2028 3.0920 3.4086
0.2104 3.1441 3.3213
0.2190 3.1729 3.2217
0.3273 3.1615 3.1307
0.2277 3.0917 3.1221
0.6023 2.8917 3.4313
0.6175 3.1573 3.2563
0.4269 3.1450 3.1394
0.6026 3.0920 3.4281
0.5092 3.1228 3.3473
0.5265 3.1508 3.1480
0.6089 3.1528 3.3559
0.6262 3.1607 3.1567
1.0021 2.8917 3.4508
1.0024 3.0921 3.4475
1.0074 3.1369 3.3905
1.2153 3.1917 3.3082
1.0160 3.1685 3.2909
1.1243 3.1650 3.1999
1.0247 3.1635 3.1913
1.4022 3.0919 3.4670
1.2043 3.1925 3.4557
1.2239 3.1461 3.2086
1.3062 3.1715 3.4165
1.3149 3.1724 3.3168
1.2153 3.1917 3.3082
1.4020 2.8917 3.4702
1.4059 3.1500 3.4251
1.4145 3.1756 3.3255
0.6023 2.8917 3.4313
0.6026 3.0920 3.4281
0.7127 3.1917 3.3162
0.6089 3.1528 3.3559
0.6708 3.1917 3.2609
0.6175 3.1573 3.2563
0.7258 3.1659 3.1653
0.6262 3.1607 3.1567
0.7225 3.1917 3.2035
0.9077 3.1519 3.3819
0.7770 3.1917 3.2701
0.8254 3.1374 3.1740
1.0024 3.0921 3.4475
1.0247 3.1635 3.1913
0.9250 3.1616 3.1826
1.0021 2.8917 3.4508
1.0074 3.1369 3.3905
1.0160 3.1685 3.2909
1.0010 2.0917 3.4636
1.4008 2.0917 3.4831
1.4014 2.4917 3.4767
1.0016 2.4917 3.4572
1.0016 2.4917 3.4572
1.4014 2.4917 3.4767
1.4020 2.8917 3.4702
1.0021 2.8917 3.4508
0.9999 1.2917 3.4765
1.3997 1.2917 3.4960
1.4003 1.6917 3.4895
1.0005 1.6917 3.4701
-0.1605 1.2917 3.4899
-0.1612 1.3917 3.4898
-0.1995 1.2917 3.4181
-0.1994 1.3922 3.4165
-0.1983 2.1920 3.4036
0.2015 2.1918 3.4231
-0.1979 2.4917 3.3988
0.1019 2.2918 3.4166
0.2020 2.4917 3.4183
-0.1979 2.4917 3.3988
0.2020 2.4917 3.4183
0.2025 2.8917 3.4118
-0.1973 2.8917 3.3924
0.2016 2.1918 3.4231
0.3020 2.1920 3.4280
0.2020 2.4917 3.4183
0.4024 2.1922 3.4329
0.5020 2.1920 3.4377
0.6013 2.1921 3.4426
0.6018 2.4917 3.4377
0.2020 2.4917 3.4183
0.6018 2.4917 3.4377
0.6023 2.8917 3.4313
0.2025 2.8917 3.4118
0.6018 2.4917 3.4377
1.0016 2.4917 3.4572
1.0021 2.8917 3.4508
0.6023 2.8917 3.4313
0.6013 2.1921 3.4426
0.7020 2.1920 3.4475
0.6018 2.4917 3.4377
0.8005 2.1914 3.4523
0.9013 2.1918 3.4572
1.0000 2.0917 3.4636
1.0010 2.0913 3.4636
0.9010 2.0917 3.4588
1.0016 2.4917 3.4572
1.0005 1.6917 3.4701
1.4003 1.6917 3.4895
1.4008 2.0917 3.4831
1.0010 2.0917 3.4636
-1.0715 0.8917 3.0565
-0.9734 0.8917 3.0818
-0.9741 0.9917 3.0903
-1.0737 0.9917 3.0810
-0.9765 1.0034 3.1179
-1.0761 1.0029 3.1093
-1.0690 0.7917 3.0271
-0.9720 0.7917 3.0662
-0.9734 0.8917 3.0818
-1.0715 0.8917 3.0565
-0.9720 0.7917 3.0662
-0.8724 0.7917 3.0748
-0.8735 0.8917 3.0881
-0.9734 0.8917 3.0818
-0.7772 0.8917 3.1352
-0.7756 0.7917 3.1167
-0.6776 0.7917 3.1439
-0.6803 0.8917 3.1743
-0.6132 0.7917 3.3502
-0.6111 0.8917 3.3504
-0.6001 0.7921 3.4067
-0.5999 0.8917 3.4051
-0.6265 0.7917 3.2487
-0.6253 0.8917 3.2488
-0.6949 0.9917 3.3431
-0.7945 0.9917 3.3345
-0.6863 0.9599 3.2435
-0.7859 1.0044 3.2348
-0.7772 0.8917 3.1352
-0.6803 0.8917 3.1743
-0.7835 0.9917 3.2071
-0.7974 0.9927 3.3939
-0.6976 0.9926 3.3987
-0.7973 1.0927 3.3923
-0.7980 1.1923 3.3906
-0.7985 1.2917 3.3890
-0.6111 0.8917 3.3504
-0.5999 0.8917 3.4051
-0.6253 0.8917 3.2488
-0.5994 1.2917 3.3987
-0.6001 0.7921 3.4067
-0.5007 0.7915 3.4116
-0.5999 0.8917 3.4051
-0.4011 0.7913 3.4164
-0.3014 0.7912 3.4213
-0.2002 0.7913 3.4262
-0.2001 0.8917 3.4246
-0.5999 0.8917 3.4051
-0.5994 1.2917 3.3987
-0.2000 0.9918 3.4230
-0.2982 1.1923 3.4149
-0.2001 0.8917 3.4246
-0.2028 1.0917 3.4560
-0.2054 1.1917 3.4860
-0.1995 1.2917 3.4181
0.1710 0.6698 0.3066
0.0713 0.6405 0.2980
0.1796 0.6390 0.2070
0.1003 0.6917 0.2001
0.0774 0.6917 0.2279
3 0 4 3
3 1 2 5
3 2 7 5
3 7 6 5
3 6 7 8
3 8 7 9
3 1 5 10
3 5 11 10
3 11 5 12
3 12 5 6
3 13 15 16
3 15 14 16
3 17 18 19
3 19 18 20
3 18 21 22
3 18 22 20
3 24 23 25
3 25 23 26
3 27 28 29
3 30 28 31
3 32 30 31
3 28 30 29
3 33 30 32
3 35 34 33
3 30 34 36
3 33 34 30
3 37 30 38
3 38 30 39
3 39 30 36
3 40 38 41
3 37 38 40
3 41 39 42
3 38 39 41
3 45 43 44
3 46 43 47
3 48 43 45
3 47 48 49
3 43 48 47
3 53 51 48
3 51 50 48
3 50 52 48
3 54 47 55
3 54 56 47
3 56 46 47
3 57 59 58
3 57 58 60
3 61 62 63
3 64 66 65
3 65 66 58
3 66 67 58
3 58 67 60
3 61 60 68
3 60 67 68
3 61 68 62
3 70 69 71
3 71 69 72
3 73 75 74
3 74 75 76
3 77 79 78
3 79 71 78
3 70 71 79
3 71 73 78
3 75 73 71
3 80 83 82
3 80 81 83
3 84 83 81
3 85 86 82
3 85 82 83
3 87 83 84
3 87 84 88
3 83 89 85
3 87 89 83
3 85 89 91
3 89 90 91
3 87 88 92
3 92 88 93
3 94 96 89
3 96 97 89
3 94 87 95
3 89 87 94
3 97 98 89
3 98 90 89
3 99 87 92
3 99 92 100
3 101 94 95
3 101 95 102
3 102 95 103
3 104 94 101
3 96 94 104
3 105 98 97
3 106 99 107
3 99 108 87
3 108 95 87
3 106 109 99
3 110 102 103
3 111 103 95
3 108 111 95
3 114 112 115
3 117 116 118
3 117 118 115
3 115 118 114
3 120 116 117
3 119 116 120
3 121 113 112
3 114 121 112
3 122 124 125
3 122 125 123
3 125 126 123
3 123 126 127
3 123 127 128
3 123 128 129
3 128 130 129
3 129 130 131
3 133 132 134
3 134 132 135
3 132 136 137
3 132 137 135
3 135 137 138
3 140 139 141
3 141 139 142
3 144 143 140
3 143 144 145
3 144 140 141
3 144 146 145
3 146 150 145
3 144 141 147
3 148 150 146
3 149 150 148
3 144 147 146
3 146 147 148
3 149 148 147
3 151 152 153
3 153 152 154
3 153 154 155
3 151 156 152
3 152 156 157
3 155 158 153
3 153 158 159
3 160 157 156
3 160 156 161
3 162 163 164
3 164 163 165
3 167 166 168
3 168 166 169
3 171 170 172
3 171 172 173
3 173 172 174
3 175 170 167
3 168 175 167
3 176 172 175
3 172 170 175
3 178 172 176
3 178 177 172
3 177 174 172
3 175 180 179
3 175 168 180
3 180 168 181
3 183 182 184
3 184 182 185
3 187 186 183
3 183 186 182
3 186 189 188
3 187 189 186
3 188 190 191
3 188 189 190
3 184 187 183
3 192 189 187
3 192 193 189
3 194 187 184
3 192 187 195
3 187 194 195
3 192 195 193
3 195 194 196
3 195 196 197
3 198 199 200
3 200 199 201
3 203 202 204
3 204 202 205
3 207 206 203
3 206 207 208
3 207 209 208
3 204 207 203
3 209 207 211
3 209 211 210
3 212 207 204
3 207 213 211
3 212 213 207
3 213 214 211
3 212 204 215
3 215 204 205
3 217 214 213
3 216 214 217
3 218 213 212
3 212 215 218
3 218 215 219
3 221 220 222
3 222 220 223
3 222 223 224
3 224 223 225
3 227 221 226
3 222 226 221
3 228 222 224
3 228 224 229
3 231 232 230
3 233 234 232
3 235 237 236
3 238 237 235
3 239 240 241
3 240 242 241
3 244 245 243
3 246 245 244
3 247 249 248
3 250 249 247
3 252 253 251
3 251 253 254
3 256 257 255
3 247 259 250
3 259 258 250
3 259 260 261
3 247 260 259
3 261 262 263
3 260 262 261
3 263 264 265
3 262 264 263
3 268 266 267
3 266 271 269
3 266 269 267
3 267 269 270
3 273 272 274
3 274 272 275
3 277 276 278
3 279 277 278
3 281 280 279
3 281 279 282
3 282 279 278
3 284 283 285
3 285 283 286
3 288 287 289
3 291 288 289
3 291 289 290
3 292 291 290
3 293 292 294
3 294 292 290
3 296 295 297
3 297 295 298
3 300 299 301
3 301 299 302
3 304 303 305
3 305 303 306
3 305 306 313
3 313 306 307
3 313 307 308
3 313 308 309
3 310 305 311
3 304 305 310
3 312 305 313
3 305 312 311
3 320 314 315
3 315 316 317
3 315 317 318
3 318 317 319
3 320 315 321
3 318 322 321
3 318 321 315
3 322 318 323
3 325 324 326
3 325 326 327
3 327 328 325
3 329 328 327
3 328 330 325
3 333 324 325
3 330 331 332
3 330 332 325
3 325 332 333
3 334 333 332
3 336 335 337
3 337 335 338
3 340 339 341
3 341 339 342
3 344 343 345
3 345 343 346
3 345 346 347
3 349 344 350
3 350 344 345
3 351 345 347
3 350 345 351
3 351 347 348
3 353 354 352
3 352 350 353
3 349 350 352
3 353 351 356
3 353 350 351
3 356 351 348
3 355 354 353
3 355 353 356
3 357 356 348
3 358 359 360
3 360 359 361
3 362 363 364
3 364 363 365
3 369 365 366
3 369 366 367
3 369 367 368
3 370 367 366
3 363 371 365
3 365 371 372
3 365 372 366
3 366 372 373
3 370 373 374
3 366 373 370
3 375 378 379
3 375 377 378
3 380 381 376
3 376 381 382
3 375 376 382
3 377 375 382
3 381 383 382
3 382 383 384
3 385 387 386
3 388 387 385
3 388 385 389
3 388 389 390
3 389 394 390
3 390 394 391
3 391 394 392
3 392 394 393
3 393 394 395
3 397 398 396
3 396 398 399
3 398 400 399
3 401 400 402
3 403 404 405
3 405 404 406
3 405 406 407
3 407 406 408
3 409 407 410
3 407 408 410
3 404 396 406
3 406 396 399
3 406 399 408
3 408 399 411
3 412 411 399
3 412 399 400
3 412 400 401
3 412 401 413
3 415 418 417
3 415 417 414
3 414 417 416
3 419 417 418
3 420 421 422
3 422 421 425
3 425 421 427
3 425 427 426
3 423 420 422
3 428 423 422
3 424 423 428
3 430 428 425
3 428 422 425
3 429 425 426
3 430 425 429
3 434 433 435
3 435 433 436
3 431 437 432
3 435 437 431
3 435 436 437
3 439 438 434
3 435 439 434
3 438 439 440
3 440 439 441
3 440 441 442
3 442 441 443
3 435 431 444
3 435 444 439
3 439 444 446
3 439 446 441
3 441 446 443
3 444 445 446
3 448 447 449
3 452 447 450
3 450 447 448
3 451 452 450
3 453 452 451
3 453 451 455
3 454 453 455
3 457 456 458
3 458 456 459
3 458 459 461
3 460 458 461
3 462 458 460
3 463 458 462
3 463 462 464
3 462 465 464
3 466 457 458
3 466 458 463
3 463 464 467
3 471 473 472
3 479 468 469
3 474 469 470
3 474 470 475
3 470 471 475
3 475 471 476
3 471 472 476
3 477 479 469
3 477 469 474
3 475 476 478
3 480 479 477
3 474 481 480
3 474 480 477
3 481 474 482
3 474 475 482
3 482 475 483
3 475 478 483
3 485 484 486
3 487 485 486
3 487 488 485
3 485 488 489
3 488 490 489
3 491 485 492
3 492 485 493
3 485 489 493
3 493 489 494
3 489 495 494
3 491 484 485
3 492 493 496
3 491 498 497
3 491 497 484
3 498 491 499
3 499 491 492
3 499 492 496
3 496 493 500
3 501 503 502
3 502 503 504
3 505 506 501
3 501 506 503
3 508 509 507
3 510 509 508
3 512 511 513
3 513 511 514
3 513 514 515
3 515 514 516
3 517 519 518
3 518 519 520
3 519 516 520
3 515 516 519
3 521 523 524
3 523 522 524
3 528 529 525
3 525 529 526
3 528 525 530
3 530 525 527
3 531 533 532
3 536 535 537
3 534 535 536
3 538 536 537
3 539 541 540
3 540 541 542
3 541 537 542
3 538 537 541
3 543 536 544
3 544 536 538
3 545 546 539
3 539 546 541
3 550 551 548
3 550 548 549
3 549 548 547
3 549 552 550
3 550 552 553
3 552 555 553
3 554 555 552
3 549 556 557
3 549 557 552
3 559 558 560
3 561 559 560
3 564 559 561
3 564 561 565
3 565 561 566
3 559 567 562
3 564 567 559
3 568 570 569
3 569 570 571
3 570 566 571
3 565 566 570
3 565 572 574
3 573 574 572
3 575 563 576
3 575 577 563
3 577 578 563
3 575 576 579
3 574 564 565
3 578 564 574
3 578 580 564
3 580 567 564
3 570 581 565
3 570 582 581
3 572 585 583
3 572 565 585
3 573 572 584
3 587 588 586
3 587 578 588
3 578 577 588
3 586 589 587
3 585 565 590
3 587 580 578
3 590 565 591
3 591 565 581
3 585 592 583
3 594 586 588
3 593 586 594
3 589 586 593
3 592 585 590
3 596 595 597
3 597 595 598
3 599 601 600
3 600 601 602
3 605 604 603
3 599 604 605
3 607 599 605
3 607 606 599
3 606 601 599
3 609 608 610
3 610 608 611
3 612 610 613
3 610 611 613
3 614 609 610
3 614 610 612
3 616 614 612
3 615 614 616
3 617 615 618
3 618 615 616
3 619 621 620
3 620 621 622
3 621 623 622
3 624 623 621
3 626 625 627
3 627 625 628
3 627 628 629
3 629 628 630
3 631 626 632
3 632 626 627
3 632 627 633
3 633 627 629
3 636 637 634
3 637 635 634
3 636 638 637
3 639 636 634
3 640 636 639
3 641 636 640
3 642 636 641
3 644 643 645
3 646 643 644
3 647 643 646
3 648 643 647
3 649 647 650
3 648 647 649
3 651 653 652
3 655 656 654
3 658 657 659
3 659 657 660
3 658 659 661
3 662 658 663
3 663 658 661
3 665 664 666
3 666 664 667
3 665 666 668
3 670 669 671
3 670 671 672
3 670 672 673
3 673 672 668
3 673 668 666
3 675 674 676
3 676 677 675
3 678 677 676
3 677 678 679
3 679 678 680
3 682 681 683
3 684 682 683
3 682 684 685
3 685 684 686
3 686 684 683
3 688 687 682
3 689 688 690
3 687 688 689
3 685 688 682
3 688 685 690
3 686 691 685
3 692 691 686
3 694 693 695
3 695 693 696
3 697 694 695
3 699 698 700
3 700 698 697
3 700 697 695
3 702 701 700
3 700 701 699
3 703 702 700
3 695 703 700
3 702 703 704
3 706 705 707
3 707 705 708
3 710 709 711
3 711 709 712
3 711 712 713
3 713 712 714
3 713 714 715
3 715 714 716
3 720 719 717
3 718 720 717
3 717 716 718
3 715 716 717
3 723 722 721
3 721 722 724
3 727 726 725
3 726 727 729
3 726 729 728
3 729 730 728
3 728 730 731
3 730 732 731
3 726 738 725
3 738 726 733
3 733 726 728
3 728 731 734
3 735 733 728
3 735 728 736
3 736 728 737
3 728 734 737
3 736 737 739
3 743 745 744
3 746 740 741
3 742 743 747
3 747 743 748
3 743 744 748
3 749 746 741
3 749 741 742
3 750 749 742
3 750 742 747
3 747 748 751
3 752 749 750
3 752 750 747
3 747 751 753
3 755 756 757
3 756 758 757
3 757 758 759
3 758 760 759
3 767 754 761
3 761 754 755
3 755 762 761
3 757 762 755
3 757 759 763
3 762 764 761
3 764 766 765
3 762 766 764
3 768 761 764
3 768 764 769
3 764 765 769
3 772 771 773
3 772 775 774
3 772 773 775
3 774 776 778
3 774 775 776
3 775 777 776
3 785 770 771
3 779 771 772
3 780 779 772
3 778 776 780
3 776 781 780
3 782 785 771
3 782 771 779
3 779 780 783
3 783 780 784
3 780 781 784
3 786 782 779
3 786 779 787
3 779 783 787
3 789 788 790
3 790 788 791
3 793 792 794
3 794 792 795
3 797 796 798
3 798 796 799
3 800 803 801
3 802 803 800
3 805 804 806
3 807 805 806
3 808 805 807
3 808 807 806
3 810 809 811
3 811 809 812
3 813 815 814
3 819 814 815
3 816 814 819
3 819 817 816
3 818 817 819
3 821 820 822
3 822 820 823
3 825 824 826
3 826 824 827
3 829 828 830
3 831 829 830
3 831 830 832
3 830 836 832
3 833 836 834
3 833 835 836
3 835 832 836
3 838 837 839
3 839 837 840
3 842 841 843
3 843 841 844
3 845 844 846
3 843 844 845
3 848 847 849
3 849 847 850
3 852 851 853
3 853 851 854
3 855 856 853
3 856 852 853
3 857 855 858
3 857 856 855
3 862 861 859
3 860 862 859
3 859 863 860
3 863 864 860
3 863 858 864
3 857 858 863
3 868 866 867
3 867 866 865
3 867 871 868
3 867 870 871
3 870 869 871
3 873 872 880
3 880 872 874
3 880 874 875
3 880 875 876
3 877 865 873
3 877 873 878
3 878 873 880
3 879 865 877
3 867 865 879
3 879 870 867
3 882 881 883
3 884 882 883
3 885 884 883
3 886 885 887
3 887 885 883
3 890 888 891
3 891 888 889
3 892 888 890
3 893 890 891
3 894 893 891
3 894 891 895
3 891 889 895
3 899 900 897
3 899 897 898
3 898 897 896
