ply
format ascii 1.0
element vertex 901
property float x
property float y
property float z
element face 753
property list uchar int vertex_indices
end_header
-0.1145 1.3379 3.5943
-0.1317 1.3917 3.5928
-0.1165 1.3917 3.6181
-0.1605 1.2917 3.4899
-0.1612 1.3917 3.4898
-0.1128 1.2917 3.5756
1.5833 0.3917 2.5371
1.6136 0.4917 2.5398
1.6630 0.3917 2.4437
1.6528 0.4917 2.4428
1.6161 0.2917 2.4396
1.6630 0.3917 2.4437
1.6486 0.2917 2.3420
1.6723 0.2917 2.2437
1.6802 0.3917 2.2444
1.7176 0.3338 2.1473
1.6179 0.3221 2.1386
1.6149 0.2917 2.1739
1.7115 0.3917 2.2165
1.6528 0.4917 2.4428
1.6669 0.4917 2.3436
1.6763 0.4917 2.2441
1.7176 0.4917 2.1473
1.5480 0.8917 2.5341
1.5747 0.8917 2.6368
1.5920 0.9155 2.4375
1.4924 0.9073 2.4289
1.4884 0.8917 2.4747
1.5574 0.8917 2.8360
1.6174 0.9919 2.8412
1.6404 0.9916 2.4417
1.6092 1.2917 2.8405
1.6322 1.2917 2.4410
1.5920 0.9155 2.4375
1.4924 0.9073 2.4289
1.5010 0.8917 2.3292
1.6006 0.8917 2.3379
1.6404 0.9916 2.4417
1.6546 0.8917 2.2427
1.6519 0.9916 2.2421
1.6492 1.0914 2.2421
1.6465 1.1918 2.2414
1.6322 1.2917 2.4410
1.6437 1.2917 2.2413
1.5920 0.6917 2.4375
1.4924 0.6536 2.4289
1.5010 0.6917 2.3292
1.6006 0.6917 2.3379
1.5032 0.7917 2.3039
1.6006 0.8917 2.3379
1.5010 0.8917 2.3292
1.6528 0.4917 2.4428
1.6516 0.5917 2.4427
1.6669 0.4917 2.3436
1.6663 0.5917 2.3436
1.6763 0.4917 2.2441
1.6776 0.5917 2.2442
1.7176 0.4917 2.1473
1.6907 0.5917 2.1449
1.6758 0.6917 2.2440
1.7089 0.7917 2.2469
1.6546 0.8917 2.2427
1.6136 0.4917 2.5398
1.5833 0.5484 2.5371
1.6528 0.4917 2.4428
1.6516 0.5917 2.4427
1.5852 0.5917 2.5159
1.5920 0.6917 2.4375
1.4725 0.9917 3.4309
1.3993 0.9920 3.5008
1.5328 1.0917 3.4532
1.4700 0.9917 3.3303
1.5228 0.9917 3.2345
1.5736 1.1937 3.5067
1.4995 1.2917 3.5008
1.3997 1.2917 3.4960
1.5917 1.0914 3.2405
1.5747 1.2909 3.4407
1.5862 1.2917 3.2400
1.5228 0.9917 3.2345
1.4232 0.9917 3.2259
1.4405 0.8917 3.0266
1.5351 0.8917 3.0932
1.5348 0.9917 3.0963
1.4347 0.9917 3.0934
1.4318 1.0086 3.1262
1.5851 0.8917 3.0392
1.6059 0.9921 3.0406
1.5487 0.8917 2.9356
1.6117 0.9919 2.9409
1.5574 0.8917 2.8360
1.6174 0.9919 2.8412
1.5917 1.0914 3.2405
1.5862 1.2917 3.2400
1.6092 1.2917 2.8405
-1.0715 0.8917 3.0565
-0.9734 0.8917 3.0818
-0.9741 0.9917 3.0903
-1.0737 0.9917 3.0810
-0.9765 1.0034 3.1179
-1.0761 1.0029 3.1093
-1.0690 0.7917 3.0271
-0.9720 0.7917 3.0662
-0.9734 0.8917 3.0818
-1.0715 0.8917 3.0565
-0.9720 0.7917 3.0662
-0.8724 0.7917 3.0748
-0.8735 0.8917 3.0881
-0.9734 0.8917 3.0818
-0.7772 0.8917 3.1352
-0.7756 0.7917 3.1167
-0.6776 0.7917 3.1439
-0.6803 0.8917 3.1743
-0.6132 0.7917 3.3502
-0.6111 0.8917 3.3504
-0.6001 0.7921 3.4067
-0.5999 0.8917 3.4051
-0.6265 0.7917 3.2487
-0.6253 0.8917 3.2488
-0.6949 0.9917 3.3431
-0.7945 0.9917 3.3345
-0.6863 0.9599 3.2435
-0.7859 1.0044 3.2348
-0.7772 0.8917 3.1352
-0.6803 0.8917 3.1743
-0.7835 0.9917 3.2071
-0.7974 0.9927 3.3939
-0.6976 0.9926 3.3987
-0.7973 1.0927 3.3923
-0.7980 1.1923 3.3906
-0.7985 1.2917 3.3890
-0.6111 0.8917 3.3504
-0.5999 0.8917 3.4051
-0.6253 0.8917 3.2488
-0.5994 1.2917 3.3987
-0.6001 0.7921 3.4067
-0.5007 0.7915 3.4116
-0.5999 0.8917 3.4051
-0.4011 0.7913 3.4164
-0.3014 0.7912 3.4213
-0.2002 0.7913 3.4262
-0.2001 0.8917 3.4246
-0.5999 0.8917 3.4051
-0.5994 1.2917 3.3987
-0.2000 0.9918 3.4230
-0.2982 1.1923 3.4149
-0.2001 0.8917 3.4246
-0.2028 1.0917 3.4560
-0.2054 1.1917 3.4860
-0.1995 1.2917 3.4181
-0.1817 1.0917 3.4880
-0.2054 1.1917 3.4860
-0.1108 1.0917 3.5527
-0.1108 1.1917 3.5520
-0.1605 1.2917 3.4899
-0.1128 1.2917 3.5756
-1.7966 2.8917 3.3145
-1.6953 3.0922 3.3162
-1.7963 3.0918 3.3113
-1.5958 3.0920 3.3211
-1.4954 3.0922 3.3259
-1.3968 2.8917 3.3340
-1.3965 3.0921 3.3308
-1.3923 3.1361 3.2826
-1.4919 3.1353 3.2739
-1.3968 2.8917 3.3340
-0.9969 2.8917 3.3535
-1.2948 3.0925 3.3357
-1.3965 3.0921 3.3308
-1.2927 3.0917 3.2912
-1.3923 3.1361 3.2826
-1.1930 3.1295 3.2999
-0.9938 3.1334 3.3172
-1.0848 3.1661 3.2089
-1.1844 3.1672 3.2002
-0.9967 3.0918 3.3502
-0.9851 3.1409 3.2175
-0.9969 2.8917 3.3535
-0.9967 3.0918 3.3502
-0.9938 3.1334 3.3172
-0.9851 3.1409 3.2175
-0.8769 3.1429 3.1266
-0.9765 3.1509 3.1179
-0.6949 3.1233 3.3431
-0.6863 3.1498 3.2435
-0.7772 3.1459 3.1352
-0.6968 3.0918 3.3648
-0.6776 3.1506 3.1439
-0.5971 2.8917 3.3729
-0.5967 3.1920 3.3681
-0.5953 3.1917 3.3518
-0.5866 3.1523 3.2521
-0.5780 3.1491 3.1525
-0.5971 2.8917 3.3729
-0.4968 3.0918 3.3746
-0.5967 3.1920 3.3681
-0.5953 3.1917 3.3518
-0.5866 3.1523 3.2521
-0.4784 3.1570 3.1612
-0.5780 3.1491 3.1525
-0.3466 3.1103 3.3816
-0.2878 3.1631 3.2781
-0.2705 3.1277 3.0788
-0.3701 3.0917 3.0702
-0.4697 3.1438 3.0615
-0.1795 3.1499 3.1871
-0.1973 2.8917 3.3924
-0.1971 3.0680 3.3895
-0.1969 3.1683 3.3879
-0.1708 3.1319 3.0875
1.4020 2.8917 3.4702
1.5035 2.8917 3.4752
1.5036 3.0924 3.4719
1.4022 3.0919 3.4670
1.5055 3.1917 3.4338
1.4059 3.1500 3.4251
1.5037 3.1923 3.4703
1.4278 3.1917 3.3266
1.4145 3.1756 3.3255
1.6034 2.9923 3.4784
-1.7971 2.4917 3.3210
-1.3973 2.4917 3.3404
-1.3968 2.8917 3.3340
-1.7966 2.8917 3.3145
-1.7975 2.1924 3.3258
-1.6965 2.1922 3.3307
-1.7971 2.4917 3.3210
-1.5961 2.1924 3.3356
-1.4967 2.1921 3.3404
-1.3977 2.1922 3.3453
-1.3973 2.4917 3.3404
-1.3973 2.4917 3.3404
-0.9975 2.4917 3.3599
-0.9969 2.8917 3.3535
-1.3968 2.8917 3.3340
-1.3977 2.1922 3.3453
-1.2968 2.1921 3.3502
-1.3976 2.2922 3.3436
-1.3973 2.4917 3.3404
-1.1976 2.1918 3.3550
-1.0967 2.1922 3.3599
-0.9979 2.1919 3.3647
-0.9975 2.4917 3.3599
-0.9975 2.4917 3.3599
-0.5977 2.4917 3.3794
-0.5971 2.8917 3.3729
-0.9969 2.8917 3.3535
-0.9981 2.0917 3.3663
-0.5982 2.0917 3.3858
-0.5977 2.4917 3.3794
-0.9975 2.4917 3.3599
-0.7976 1.6917 3.3826
-0.6971 1.6917 3.3875
-0.6970 1.7924 3.3858
-0.7980 1.7920 3.3809
-0.7979 1.8920 3.3793
-0.7976 1.9920 3.3777
-0.7979 2.0917 3.3761
-0.5884 1.6917 3.2725
-0.5885 1.7917 3.2737
-0.5985 1.8923 3.3890
-0.5982 2.0917 3.3858
-0.7985 1.2917 3.3890
-0.7982 1.3921 3.3874
-0.7984 1.4920 3.3857
-0.7979 1.5921 3.3842
-0.6971 1.6917 3.3875
-0.7976 1.6917 3.3826
-0.5994 1.2917 3.3987
-0.5989 1.5921 3.3938
-0.5953 1.6123 3.3518
-0.5884 1.6917 3.2725
-0.5994 1.2917 3.3987
-0.3986 1.5919 3.4036
-0.5989 1.5921 3.3938
-0.5953 1.6123 3.3518
-0.4870 1.6917 3.2608
-0.5884 1.6917 3.2725
-0.3942 1.6917 3.3483
-0.3481 1.6917 3.3732
-0.2984 1.6917 3.4069
-0.1995 1.2917 3.4181
-0.1990 1.6917 3.4117
-0.5982 2.0917 3.3858
-0.1984 2.0917 3.4053
-0.1979 2.4917 3.3988
-0.5977 2.4917 3.3794
-0.5977 2.4917 3.3794
-0.1979 2.4917 3.3988
-0.1973 2.8917 3.3924
-0.5971 2.8917 3.3729
-0.5884 1.6917 3.2725
-0.4870 1.6917 3.2608
-0.4883 1.7917 3.2758
-0.5885 1.7917 3.2737
-0.5985 1.8923 3.3890
-0.5982 2.0917 3.3858
-0.3942 1.6917 3.3483
-0.3937 1.7917 3.3423
-0.3975 1.8446 3.3996
-0.3481 1.6917 3.3732
-0.2983 1.7920 3.4052
-0.2984 1.6917 3.4069
-0.1990 1.6917 3.4117
-0.1987 1.8921 3.4085
-0.1984 2.0917 3.4053
0.5022 0.3932 3.4668
0.5988 0.3924 3.4715
0.5990 0.4917 3.4699
0.5022 0.4917 3.4652
1.3841 0.9156 2.5198
1.2845 0.9235 2.5112
1.3927 0.9111 2.4202
1.2931 0.9157 2.4116
1.4269 0.8917 2.6239
1.3754 0.9105 2.6195
1.4511 0.8917 2.5256
1.4924 0.9073 2.4289
1.4884 0.8917 2.4747
1.1052 0.6917 2.2635
1.2040 0.6917 2.2817
1.2039 0.7917 2.2824
1.1049 0.7917 2.2672
1.2021 0.8917 2.3033
1.1037 0.8917 2.2808
1.3034 0.6917 2.2934
1.4032 0.6917 2.2994
1.5010 0.8917 2.3292
1.5010 0.6917 2.3292
1.5032 0.7917 2.3039
1.0939 0.9260 2.3943
0.9942 0.9474 2.3856
1.1025 0.8980 2.2946
1.0029 0.9010 2.2860
1.0047 0.8917 2.2649
1.1037 0.8917 2.2808
0.9075 0.6917 2.2281
1.0054 0.6917 2.2568
1.0054 0.7917 2.2568
0.9060 0.7917 2.2458
1.0047 0.8917 2.2649
0.9053 0.8917 2.2541
1.1052 0.6917 2.2635
1.1049 0.7917 2.2672
1.1037 0.8917 2.2808
1.1935 0.9214 2.4029
1.0939 0.9260 2.3943
1.2021 0.8917 2.3033
1.1025 0.8980 2.2946
1.1037 0.8917 2.2808
1.2931 0.9157 2.4116
1.3927 0.9111 2.4202
1.4924 0.9073 2.4289
1.5010 0.8917 2.3292
0.5995 0.8917 3.4635
0.7010 0.9923 3.4668
0.5997 0.9922 3.4619
0.8004 0.9921 3.4717
0.8998 0.9919 3.4765
0.9993 0.8917 3.4830
0.9996 1.0916 3.4797
0.8991 1.0223 3.4815
-0.1817 1.0917 3.4880
-0.2054 1.1917 3.4860
-0.2028 1.0917 3.4560
-0.1605 1.2917 3.4899
-0.2054 1.1917 3.4860
-0.1995 1.2917 3.4181
0.2999 0.8917 3.4489
0.3996 0.8917 3.4538
0.4003 0.9920 3.4522
0.2979 0.9917 3.4696
0.5006 0.9921 3.4571
0.5995 0.8917 3.4635
0.5997 0.9922 3.4619
0.2997 0.7918 3.4505
0.4001 0.7920 3.4554
0.3996 0.8917 3.4538
0.2999 0.8917 3.4489
0.5007 0.7923 3.4603
0.5022 0.4917 3.4652
0.5990 0.4917 3.4699
0.5012 0.5926 3.4636
0.5005 0.6923 3.4619
0.5995 0.8917 3.4635
1.0074 0.1917 3.3905
1.1070 0.2917 3.3992
1.0074 0.2917 3.3905
1.1093 0.3917 3.3726
1.0106 0.3917 3.3536
1.1096 0.4917 3.3697
0.9988 0.4917 3.4894
0.5990 0.4917 3.4699
0.9011 0.4917 3.4846
0.5995 0.8917 3.4635
0.8006 0.6424 3.4773
1.0102 0.6917 3.3574
0.9993 0.8917 3.4830
0.9699 0.4917 3.3873
0.9449 0.5917 3.3851
0.9988 0.4917 3.4894
1.0101 0.5917 3.3587
1.0104 0.7917 3.3555
1.0074 0.8269 3.3905
0.5988 0.3924 3.4715
0.7004 0.3924 3.4765
0.9011 0.4917 3.4846
0.5990 0.4917 3.4699
0.8002 0.3924 3.4813
0.8009 0.2927 3.4830
0.9077 0.2917 3.3819
0.9011 0.3928 3.4863
1.0074 0.2917 3.3905
1.0106 0.3917 3.3536
0.9699 0.4917 3.3873
0.9988 0.4917 3.4894
0.9993 0.8917 3.4830
1.3992 0.8917 3.5024
1.3997 1.2917 3.4960
0.9999 1.2917 3.4765
0.9988 0.4917 3.4894
1.1096 0.4917 3.3697
1.1101 0.5917 3.3634
1.0101 0.5917 3.3587
1.1095 0.6917 3.3703
1.0102 0.6917 3.3574
1.1082 0.7917 3.3852
1.0104 0.7917 3.3555
1.1026 0.8155 3.4892
1.0074 0.8269 3.3905
1.1005 0.8917 3.4879
0.9993 0.8917 3.4830
1.4169 0.9917 3.1249
1.4318 1.0086 3.1262
1.4232 0.9917 3.2259
1.4347 0.9917 3.0934
1.0010 2.0917 3.4636
1.4008 2.0917 3.4831
1.4014 2.4917 3.4767
1.0016 2.4917 3.4572
1.0016 2.4917 3.4572
1.4014 2.4917 3.4767
1.4020 2.8917 3.4702
1.0021 2.8917 3.4508
0.9999 1.2917 3.4765
1.3997 1.2917 3.4960
1.4003 1.6917 3.4895
1.0005 1.6917 3.4701
-0.1605 1.2917 3.4899
-0.1612 1.3917 3.4898
-0.1995 1.2917 3.4181
-0.1994 1.3922 3.4165
-0.1983 2.1920 3.4036
0.2015 2.1918 3.4231
-0.1979 2.4917 3.3988
0.1019 2.2918 3.4166
0.2020 2.4917 3.4183
-0.1979 2.4917 3.3988
0.2020 2.4917 3.4183
0.2025 2.8917 3.4118
-0.1973 2.8917 3.3924
0.2016 2.1918 3.4231
0.3020 2.1920 3.4280
0.2020 2.4917 3.4183
0.4024 2.1922 3.4329
0.5020 2.1920 3.4377
0.6013 2.1921 3.4426
0.6018 2.4917 3.4377
0.2020 2.4917 3.4183
0.6018 2.4917 3.4377
0.6023 2.8917 3.4313
0.2025 2.8917 3.4118
0.6018 2.4917 3.4377
1.0016 2.4917 3.4572
1.0021 2.8917 3.4508
0.6023 2.8917 3.4313
0.6013 2.1921 3.4426
0.7020 2.1920 3.4475
0.6018 2.4917 3.4377
0.8005 2.1914 3.4523
0.9013 2.1918 3.4572
1.0000 2.0917 3.4636
1.0010 2.0913 3.4636
0.9010 2.0917 3.4588
1.0016 2.4917 3.4572
1.0005 1.6917 3.4701
1.4003 1.6917 3.4895
1.4008 2.0917 3.4831
1.0010 2.0917 3.4636
1.6092 1.2917 2.8405
1.6322 1.2917 2.4410
1.6038 1.4921 2.8400
1.6095 1.4923 2.7396
1.6068 1.5924 2.7392
1.6126 1.5925 2.6393
1.6183 1.5923 2.5395
1.6240 1.5917 2.4403
1.6156 1.6917 2.5399
1.5920 1.6917 2.4375
1.6322 1.2917 2.4410
1.6437 1.2917 2.2413
1.6410 1.3917 2.2410
1.6383 1.4916 2.2409
1.6240 1.5917 2.4403
1.6298 1.5918 2.3404
1.6355 1.5912 2.2411
1.3997 1.2917 3.4960
1.4995 1.2917 3.5008
1.5003 1.6917 3.4944
1.4003 1.6917 3.4895
1.5747 1.2917 3.4407
1.5693 1.4908 3.4403
1.5862 1.2917 3.2400
1.5750 1.4907 3.3406
1.6051 1.6917 3.4424
1.5723 1.5906 3.3404
1.5638 1.6917 3.4401
1.5753 1.6917 3.2391
1.5862 1.2917 3.2400
1.5893 1.3914 3.1403
1.6092 1.2917 2.8405
1.5950 1.3917 3.0401
1.6008 1.3920 2.9399
1.5753 1.6917 3.2391
1.5865 1.4910 3.1404
1.5980 1.4920 2.9397
1.6038 1.4921 2.8400
1.5838 1.5904 3.1408
1.6311 1.6917 3.1435
1.5841 2.4917 3.2398
1.5802 2.5917 3.2395
1.5972 2.4917 3.1406
1.5505 2.5917 3.1365
1.4014 2.4917 3.4767
1.5018 2.4917 3.4815
1.5035 2.8917 3.4752
1.4020 2.8917 3.4702
1.5542 2.4917 3.4380
1.5837 2.4917 3.3402
1.5962 2.5917 3.3413
1.5841 2.4917 3.2398
1.5802 2.5917 3.2395
1.6122 2.6917 3.3613
1.6138 2.6503 3.3428
1.5482 2.6917 3.2367
1.6150 2.6917 3.3290
1.6138 2.7120 3.3428
1.5706 2.7917 3.3390
1.5677 2.8917 3.3388
1.4008 2.0917 3.4831
1.5012 2.1918 3.4864
1.5018 2.4917 3.4815
1.4014 2.4917 3.4767
1.6121 2.0917 3.4934
1.5542 2.1917 3.4380
1.6138 2.0917 3.3428
1.5774 2.1917 3.2392
1.5774 2.0917 3.2392
1.5586 2.0917 3.3394
1.6138 2.2917 3.3428
1.5727 2.2917 3.2388
1.5542 2.4917 3.4380
1.5779 2.3917 3.2393
1.5837 2.4917 3.3402
1.5841 2.4917 3.2398
1.5699 1.8910 3.2386
1.5672 1.9910 3.2384
1.5756 1.8914 3.1391
1.5729 1.9916 3.1387
1.4003 1.6917 3.4895
1.5003 1.6917 3.4944
1.5009 1.9419 3.4904
1.4008 2.0917 3.4831
1.6051 1.6917 3.4424
1.5597 1.8417 3.4385
1.5638 1.6917 3.4401
1.5753 1.6917 3.2391
1.5568 1.7917 3.2375
1.5699 1.8910 3.2386
1.6051 1.9917 3.4424
1.5613 1.9903 3.3398
1.5672 1.9910 3.2384
1.6121 2.0917 3.4934
1.5774 2.0917 3.2392
1.5586 2.0917 3.3394
1.6138 1.9917 3.3428
1.6138 2.0917 3.3428
-0.1973 2.8917 3.3924
-0.0971 3.0917 3.3940
-0.1971 3.0439 3.3899
-0.0593 3.1403 3.2477
-0.1969 3.1683 3.3879
-0.1795 3.1499 3.1871
-0.0712 3.0917 3.0961
-0.1708 3.1319 3.0875
0.2028 3.0920 3.4086
0.0284 3.0917 3.1048
0.2104 3.1441 3.3213
0.2190 3.1729 3.2217
0.1280 3.1331 3.1134
0.2025 2.8917 3.4118
0.2277 3.0917 3.1221
0.2025 2.8917 3.4118
0.2028 3.0920 3.4086
0.2104 3.1441 3.3213
0.2190 3.1729 3.2217
0.3273 3.1615 3.1307
0.2277 3.0917 3.1221
0.6023 2.8917 3.4313
0.6175 3.1573 3.2563
0.4269 3.1450 3.1394
0.6026 3.0920 3.4281
0.5092 3.1228 3.3473
0.5265 3.1508 3.1480
0.6089 3.1528 3.3559
0.6262 3.1607 3.1567
1.0021 2.8917 3.4508
1.0024 3.0921 3.4475
1.0074 3.1369 3.3905
1.2153 3.1917 3.3082
1.0160 3.1685 3.2909
1.1243 3.1650 3.1999
1.0247 3.1635 3.1913
1.4022 3.0919 3.4670
1.2043 3.1925 3.4557
1.2239 3.1461 3.2086
1.3062 3.1715 3.4165
1.3149 3.1724 3.3168
1.2153 3.1917 3.3082
1.4020 2.8917 3.4702
1.4059 3.1500 3.4251
1.4145 3.1756 3.3255
0.6023 2.8917 3.4313
0.6026 3.0920 3.4281
0.7127 3.1917 3.3162
0.6089 3.1528 3.3559
0.6708 3.1917 3.2609
0.6175 3.1573 3.2563
0.7258 3.1659 3.1653
0.6262 3.1607 3.1567
0.7225 3.1917 3.2035
0.9077 3.1519 3.3819
0.7770 3.1917 3.2701
0.8254 3.1374 3.1740
1.0024 3.0921 3.4475
1.0247 3.1635 3.1913
0.9250 3.1616 3.1826
1.0021 2.8917 3.4508
1.0074 3.1369 3.3905
1.0160 3.1685 3.2909
-2.3990 0.9917 3.3169
-2.2987 0.9917 3.3176
-2.2976 1.0917 3.3044
-2.3972 1.0917 3.2957
-2.2993 1.1917 3.3239
-2.3987 1.1917 3.3136
-2.1979 0.9917 3.3130
-2.2976 0.9622 3.3044
-2.1979 1.1917 3.3130
-2.2976 1.2165 3.3044
-2.0983 0.9917 3.3217
-2.1979 0.9917 3.3130
-2.0983 1.0917 3.3217
-2.1979 1.1917 3.3130
-2.0983 1.2917 3.3217
-2.1979 0.9917 3.3130
-2.2976 0.9622 3.3044
-2.2944 0.8917 3.2683
-2.1925 0.8917 3.2499
-2.1979 0.9917 3.3130
-2.2976 1.0917 3.3044
-2.1969 1.0917 3.3006
-2.1979 1.1917 3.3130
-2.1979 1.1917 3.3130
-2.2976 1.2165 3.3044
-2.1969 1.2917 3.3015
-2.2934 1.2917 3.2560
-2.0983 0.9917 3.3217
-2.1979 0.9917 3.3130
-2.1925 0.8917 3.2499
-2.0921 0.8917 3.2499
-2.0983 1.0917 3.3217
-2.1979 0.9917 3.3130
-2.1969 1.0917 3.3006
-2.1979 1.1917 3.3130
-2.0983 1.2917 3.3217
-2.1979 1.1917 3.3130
-2.1969 1.2917 3.3015
-1.9941 0.8917 3.2772
-1.9963 0.9917 3.3028
-2.0983 1.0917 3.3217
-1.9973 1.0917 3.3143
-2.0983 1.1917 3.3217
-1.9971 1.1917 3.3122
-2.0983 1.2917 3.3217
-1.9948 1.2917 3.2856
-2.0983 1.2917 3.3217
-2.0983 1.2917 3.3217
-2.1979 1.3917 3.3130
-2.1979 1.3917 3.3130
-2.1969 1.2917 3.3015
-2.0967 1.3917 3.3033
-2.0963 1.4917 3.2981
-2.1961 1.4917 3.2916
-2.0958 1.5917 3.2923
-2.1956 1.5917 3.2856
-1.9948 1.2917 3.2856
-1.9925 1.3917 3.2594
-1.9953 1.4917 3.2911
-2.1979 1.3917 3.3130
-2.2934 1.2917 3.2560
-2.1969 1.2917 3.3015
-2.2956 1.3917 3.2817
-0.1061 1.0409 1.1859
-0.2058 1.0393 1.1773
-0.0975 1.0288 1.0863
-0.1971 1.0287 1.0777
-0.0065 1.0380 1.1946
0.0021 1.0275 1.0950
-0.1080 0.3917 0.4832
-0.1132 0.4917 0.4827
-0.1483 0.3917 0.5154
-0.1539 0.4917 0.5795
-0.4441 0.4917 0.4540
-0.3477 0.4917 0.5000
-0.3498 0.5917 0.5236
-0.4457 0.5917 0.4727
-0.3467 0.6917 0.4886
-0.4461 0.6917 0.4768
-0.3618 0.7917 0.6619
-0.4614 0.7917 0.6532
-0.3531 0.7917 0.5622
-0.4527 0.7917 0.5536
-0.3791 0.9917 0.8611
-0.4700 0.8917 0.7529
-0.3744 0.8917 0.8078
-0.4752 0.9917 0.8127
-0.4700 0.7917 0.7529
-0.4614 0.7917 0.6532
-0.4700 0.8917 0.7529
-0.3704 0.7917 0.7615
-0.3618 0.7917 0.6619
-0.3744 0.8917 0.8078
-0.3630 0.8917 0.8625
-0.3791 0.9917 0.8611
-0.3744 0.8917 0.8078
-0.2230 0.8917 0.9750
-0.2022 0.9917 0.9769
-0.1798 0.8917 0.8784
-0.1851 0.9917 0.9391
-0.0854 0.9917 0.9469
-0.0975 1.0288 1.0863
-0.1971 1.0287 1.0777
-0.0888 1.0054 0.9867
-0.1885 1.0055 0.9780
0.0194 0.8917 0.8957
0.0142 0.9917 0.9563
0.0021 1.0275 1.0950
0.0108 1.0057 0.9953
-0.2967 0.8105 1.0690
-0.3964 0.8029 1.0604
-0.2881 0.7991 0.9694
-0.3647 0.8917 0.9627
-0.3894 0.8917 0.9807
-0.2794 0.7917 0.8698
-0.3630 0.8917 0.8625
-0.3704 0.7917 0.7615
-0.3744 0.8917 0.8078
-0.2230 0.8917 0.9750
-0.1798 0.8917 0.8784
-0.3200 0.4917 0.4648
-0.2795 0.5917 0.4683
-0.3477 0.4917 0.5000
-0.3498 0.5917 0.5236
-0.2769 0.5917 0.3681
-0.2415 0.5917 0.4331
-0.2448 0.6417 0.4713
-0.2470 0.6917 0.4964
-0.3467 0.6917 0.4886
-0.2362 0.6648 0.3716
-0.2621 0.7917 0.6705
-0.3618 0.7917 0.6619
-0.2535 0.7917 0.5709
-0.3531 0.7917 0.5622
-0.1539 0.4917 0.5795
-0.1452 0.5400 0.4799
-0.2234 0.5917 0.4731
-0.1712 0.4917 0.3773
-0.2362 0.5688 0.3716
-0.1405 0.4917 0.4260
-0.1376 0.5917 0.3923
-0.2310 0.4917 0.3119
-0.1366 0.6155 0.3803
-0.1452 0.7917 0.4799
-0.1539 0.8118 0.5795
0.0454 0.4917 0.5968
-0.1132 0.4917 0.4827
-0.0516 0.5917 0.5583
-0.0369 0.5241 0.3889
-0.1297 0.5917 0.3809
-0.0396 0.4917 0.4200
-0.0306 0.5917 0.3163
0.0521 0.6917 0.5194
0.0540 0.7917 0.4972
0.0479 0.5917 0.5674
0.0627 0.5917 0.3976
0.0600 0.4917 0.4287
0.3506 0.3917 0.5493
0.4497 0.3917 0.5642
0.4505 0.4917 0.5552
0.3500 0.4917 0.5571
0.5522 0.1305 0.5405
0.5258 0.1917 0.5382
0.5542 0.1917 0.5164
0.5550 0.2917 0.5080
0.4473 0.1917 0.5917
0.4463 0.2917 0.6037
0.4497 0.3917 0.5642
0.4844 0.4917 0.5346
0.4505 0.4917 0.5552
0.5585 0.4917 0.4674
0.6547 0.2917 0.5156
0.6545 0.3917 0.5176
0.6550 0.4917 0.5119
0.7105 0.2917 0.5542
0.6833 0.3917 0.5519
0.6890 0.4917 0.5523
0.4844 0.4917 0.5346
0.4505 0.4917 0.5552
0.4516 0.5917 0.5420
0.5585 0.4917 0.4674
0.5540 0.5917 0.5189
0.4525 0.6917 0.5318
0.5540 0.6917 0.5188
0.5435 0.7276 0.6401
0.4568 0.7917 0.6326
0.5522 0.7135 0.5405
0.4640 0.7917 0.5328
0.6518 0.5291 0.5491
0.5737 0.5917 0.5423
0.6550 0.4917 0.5119
0.1191 0.8917 0.9044
0.2100 0.7993 1.0126
0.1394 0.8917 1.0065
0.2187 0.7976 0.9130
0.2273 0.7917 0.8134
0.3356 0.7917 0.7224
0.2360 0.7917 0.7138
0.3010 0.8022 1.1209
0.2014 0.8266 1.1123
0.3097 0.7995 1.0213
0.3183 0.8070 0.9217
0.3270 0.8035 0.8220
0.0194 0.8917 0.8957
0.1191 0.8917 0.9044
0.1140 0.9917 0.9629
0.0142 0.9917 0.9563
0.1018 1.0272 1.1036
0.0021 1.0275 1.0950
0.1104 1.0057 1.0040
0.0108 1.0057 0.9953
0.1772 0.8917 1.1102
0.1374 0.9917 1.1067
0.1394 0.8917 1.0065
0.1450 0.4917 0.6055
0.0454 0.4917 0.5968
0.1282 0.4917 0.5037
0.1051 0.5917 0.5017
0.0479 0.5917 0.5674
0.0627 0.5917 0.3976
0.0600 0.4917 0.4287
0.1519 0.6917 0.5258
0.0521 0.6917 0.5194
0.1623 0.6522 0.4062
0.1710 0.6698 0.3066
0.0713 0.6405 0.2980
0.1537 0.7917 0.5059
0.0540 0.7917 0.4972
0.2533 0.5546 0.5145
0.2478 0.5917 0.5776
0.2619 0.5322 0.4149
0.2669 0.5917 0.3574
0.2706 0.6244 0.3153
0.2446 0.7917 0.6141
0.1450 0.8113 0.6055
0.3296 0.4917 0.5211
0.3500 0.4917 0.5571
0.4516 0.5917 0.5420
0.2974 0.4917 0.4180
0.3031 0.5917 0.3181
0.3356 0.7917 0.7224
0.2360 0.7917 0.7138
0.3529 0.7917 0.5232
0.3443 0.8154 0.6228
0.4505 0.4917 0.5552
0.4525 0.6917 0.5318
0.1710 0.6698 0.3066
0.0713 0.6405 0.2980
0.1796 0.6390 0.2070
0.1003 0.6917 0.2001
0.0774 0.6917 0.2279
3 2 0 1
3 0 5 3
3 0 3 1
3 1 3 4
3 6 7 8
3 8 7 9
3 10 11 12
3 12 11 13
3 17 13 14
3 17 14 15
3 17 15 16
3 18 15 14
3 11 19 13
3 13 19 20
3 13 20 14
3 14 20 21
3 18 21 22
3 14 21 18
3 23 26 27
3 23 25 26
3 28 29 24
3 24 29 30
3 23 24 30
3 25 23 30
3 29 31 30
3 30 31 32
3 33 35 34
3 36 35 33
3 36 33 37
3 36 37 38
3 37 42 38
3 38 42 39
3 39 42 40
3 40 42 41
3 41 42 43
3 45 46 44
3 44 46 47
3 46 48 47
3 49 48 50
3 51 52 53
3 53 52 54
3 53 54 55
3 55 54 56
3 57 55 58
3 55 56 58
3 52 44 54
3 54 44 47
3 54 47 56
3 56 47 59
3 60 59 47
3 60 47 48
3 60 48 49
3 60 49 61
3 63 66 65
3 63 65 62
3 62 65 64
3 67 65 66
3 68 69 70
3 70 69 73
3 73 69 75
3 73 75 74
3 71 68 70
3 76 71 70
3 72 71 76
3 78 76 73
3 76 70 73
3 77 73 74
3 78 73 77
3 82 81 83
3 83 81 84
3 79 85 80
3 83 85 79
3 83 84 85
3 87 86 82
3 83 87 82
3 86 87 88
3 88 87 89
3 88 89 90
3 90 89 91
3 83 79 92
3 83 92 87
3 87 92 94
3 87 94 89
3 89 94 91
3 92 93 94
3 96 95 97
3 97 95 98
3 99 98 100
3 97 98 99
3 102 101 103
3 103 101 104
3 106 105 107
3 107 105 108
3 109 110 107
3 110 106 107
3 111 109 112
3 111 110 109
3 116 115 113
3 114 116 113
3 113 117 114
3 117 118 114
3 117 112 118
3 111 112 117
3 122 120 121
3 121 120 119
3 121 125 122
3 121 124 125
3 124 123 125
3 127 126 134
3 134 126 128
3 134 128 129
3 134 129 130
3 131 119 127
3 131 127 132
3 132 127 134
3 133 119 131
3 121 119 133
3 133 124 121
3 136 135 137
3 138 136 137
3 139 138 137
3 140 139 141
3 141 139 137
3 144 142 145
3 145 142 143
3 146 142 144
3 147 144 145
3 148 147 145
3 148 145 149
3 145 143 149
3 150 151 152
3 152 151 153
3 151 154 155
3 151 155 153
3 157 156 158
3 161 156 159
3 159 156 157
3 160 161 159
3 162 161 160
3 162 160 164
3 163 162 164
3 166 165 167
3 167 165 168
3 167 168 170
3 169 167 170
3 171 167 169
3 172 167 171
3 172 171 173
3 171 174 173
3 175 166 167
3 175 167 172
3 172 173 176
3 180 182 181
3 188 177 178
3 183 178 179
3 183 179 184
3 179 180 184
3 184 180 185
3 180 181 185
3 186 188 178
3 186 178 183
3 184 185 187
3 189 188 186
3 183 190 189
3 183 189 186
3 190 183 191
3 183 184 191
3 191 184 192
3 184 187 192
3 194 193 195
3 196 194 195
3 196 197 194
3 194 197 198
3 197 199 198
3 200 194 201
3 201 194 202
3 194 198 202
3 202 198 203
3 198 204 203
3 200 193 194
3 201 202 205
3 200 207 206
3 200 206 193
3 207 200 208
3 208 200 201
3 208 201 205
3 205 202 209
3 212 210 213
3 215 214 216
3 215 216 213
3 213 216 212
3 218 214 215
3 217 214 218
3 219 211 210
3 212 219 210
3 221 220 222
3 222 220 223
3 225 224 226
3 227 225 226
3 229 228 227
3 229 227 230
3 230 227 226
3 232 231 233
3 233 231 234
3 236 235 237
3 239 236 237
3 239 237 238
3 240 239 238
3 241 240 242
3 242 240 238
3 244 243 245
3 245 243 246
3 248 247 249
3 249 247 250
3 252 251 253
3 253 251 254
3 253 254 261
3 261 254 255
3 261 255 256
3 261 256 257
3 258 253 259
3 252 253 258
3 260 253 261
3 253 260 259
3 268 262 263
3 263 264 265
3 263 265 266
3 266 265 267
3 268 263 269
3 266 270 269
3 266 269 263
3 270 266 271
3 273 272 274
3 273 274 275
3 275 276 273
3 277 276 275
3 276 278 273
3 281 272 273
3 278 279 280
3 278 280 273
3 273 280 281
3 282 281 280
3 284 283 285
3 285 283 286
3 288 287 289
3 289 287 290
3 292 291 293
3 293 291 294
3 293 294 295
3 297 292 298
3 298 292 293
3 299 293 295
3 298 293 299
3 299 295 296
3 301 302 300
3 300 298 301
3 297 298 300
3 301 299 304
3 301 298 299
3 304 299 296
3 303 302 301
3 303 301 304
3 305 304 296
3 307 306 308
3 308 306 309
3 310 312 311
3 311 312 313
3 316 315 314
3 310 315 316
3 318 310 316
3 318 317 310
3 317 312 310
3 320 319 321
3 321 319 322
3 323 321 324
3 321 322 324
3 325 320 321
3 325 321 323
3 327 325 323
3 326 325 327
3 328 326 329
3 329 326 327
3 330 332 331
3 331 332 333
3 332 334 333
3 335 334 332
3 337 336 338
3 338 336 339
3 338 339 340
3 340 339 341
3 342 337 343
3 343 337 338
3 343 338 344
3 344 338 340
3 347 348 345
3 348 346 345
3 347 349 348
3 350 347 345
3 351 347 350
3 352 347 351
3 353 347 352
3 355 354 356
3 357 354 355
3 358 354 357
3 359 354 358
3 360 358 361
3 359 358 360
3 362 364 363
3 366 367 365
3 369 368 370
3 370 368 371
3 369 370 372
3 373 369 374
3 374 369 372
3 376 375 377
3 377 375 378
3 376 377 379
3 381 380 382
3 381 382 383
3 381 383 384
3 384 383 379
3 384 379 377
3 386 385 387
3 387 388 386
3 389 388 387
3 388 389 390
3 390 389 391
3 393 392 394
3 395 393 394
3 393 395 396
3 396 395 397
3 397 395 394
3 399 398 393
3 400 399 401
3 398 399 400
3 396 399 393
3 399 396 401
3 397 402 396
3 403 402 397
3 405 404 406
3 406 404 407
3 408 405 406
3 410 409 411
3 411 409 408
3 411 408 406
3 413 412 411
3 411 412 410
3 414 413 411
3 406 414 411
3 413 414 415
3 417 416 418
3 418 416 419
3 421 420 422
3 422 420 423
3 422 423 424
3 424 423 425
3 424 425 426
3 426 425 427
3 431 430 428
3 429 431 428
3 428 427 429
3 426 427 428
3 434 433 432
3 432 433 435
3 437 436 438
3 438 436 439
3 441 440 442
3 442 440 443
3 445 444 446
3 446 444 447
3 448 451 449
3 450 451 448
3 453 452 454
3 455 453 454
3 456 453 455
3 456 455 454
3 458 457 459
3 459 457 460
3 461 463 462
3 467 462 463
3 464 462 467
3 467 465 464
3 466 465 467
3 469 468 470
3 470 468 471
3 473 472 474
3 474 472 475
3 477 476 478
3 479 477 478
3 479 478 480
3 478 484 480
3 481 484 482
3 481 483 484
3 483 480 484
3 486 485 487
3 487 485 488
3 489 491 492
3 489 492 490
3 492 493 490
3 490 493 494
3 490 494 495
3 490 495 496
3 495 497 496
3 496 497 498
3 500 499 501
3 501 499 502
3 499 503 504
3 499 504 502
3 502 504 505
3 507 506 508
3 508 506 509
3 511 510 507
3 510 511 512
3 511 507 508
3 511 513 512
3 513 517 512
3 511 508 514
3 515 517 513
3 516 517 515
3 511 514 513
3 513 514 515
3 516 515 514
3 518 519 520
3 520 519 521
3 520 521 522
3 518 523 519
3 519 523 524
3 522 525 520
3 520 525 526
3 527 524 523
3 527 523 528
3 529 530 531
3 531 530 532
3 534 533 535
3 535 533 536
3 538 537 539
3 538 539 540
3 540 539 541
3 542 537 534
3 535 542 534
3 543 539 542
3 539 537 542
3 545 539 543
3 545 544 539
3 544 541 539
3 542 547 546
3 542 535 547
3 547 535 548
3 550 549 551
3 551 549 552
3 554 553 550
3 550 553 549
3 553 556 555
3 554 556 553
3 555 557 558
3 555 556 557
3 551 554 550
3 559 556 554
3 559 560 556
3 561 554 551
3 559 554 562
3 554 561 562
3 559 562 560
3 562 561 563
3 562 563 564
3 565 566 567
3 567 566 568
3 570 569 571
3 571 569 572
3 574 573 570
3 573 574 575
3 574 576 575
3 571 574 570
3 576 574 578
3 576 578 577
3 579 574 571
3 574 580 578
3 579 580 574
3 580 581 578
3 579 571 582
3 582 571 572
3 584 581 580
3 583 581 584
3 585 580 579
3 579 582 585
3 585 582 586
3 589 588 587
3 588 589 591
3 588 591 590
3 591 592 590
3 590 592 593
3 592 594 593
3 588 600 587
3 600 588 595
3 595 588 590
3 590 593 596
3 597 595 590
3 597 590 598
3 598 590 599
3 590 596 599
3 598 599 601
3 605 607 606
3 608 602 603
3 604 605 609
3 609 605 610
3 605 606 610
3 611 608 603
3 611 603 604
3 612 611 604
3 612 604 609
3 609 610 613
3 614 611 612
3 614 612 609
3 609 613 615
3 617 618 619
3 618 620 619
3 619 620 621
3 620 622 621
3 629 616 623
3 623 616 617
3 617 624 623
3 619 624 617
3 619 621 625
3 624 626 623
3 626 628 627
3 624 628 626
3 630 623 626
3 630 626 631
3 626 627 631
3 634 633 635
3 634 637 636
3 634 635 637
3 636 638 640
3 636 637 638
3 637 639 638
3 647 632 633
3 641 633 634
3 642 641 634
3 640 638 642
3 638 643 642
3 644 647 633
3 644 633 641
3 641 642 645
3 645 642 646
3 642 643 646
3 648 644 641
3 648 641 649
3 641 645 649
3 651 650 652
3 652 650 653
3 652 653 654
3 654 653 655
3 657 651 656
3 652 656 651
3 658 652 654
3 658 654 659
3 661 662 660
3 663 664 662
3 665 667 666
3 668 667 665
3 669 670 671
3 670 672 671
3 674 675 673
3 676 675 674
3 677 679 678
3 680 679 677
3 682 683 681
3 681 683 684
3 686 687 685
3 677 689 680
3 689 688 680
3 689 690 691
3 677 690 689
3 691 692 693
3 690 692 691
3 693 694 695
3 692 694 693
3 696 700 699
3 697 698 701
3 698 703 701
3 703 702 701
3 702 703 704
3 704 703 705
3 697 701 706
3 701 707 706
3 707 701 708
3 708 701 702
3 709 711 712
3 711 710 712
3 713 715 714
3 714 715 716
3 717 718 713
3 713 718 715
3 720 721 719
3 722 721 720
3 724 723 725
3 725 723 726
3 725 726 727
3 727 726 728
3 729 731 730
3 730 731 732
3 731 728 732
3 727 728 731
3 733 735 736
3 735 734 736
3 740 741 737
3 737 741 738
3 740 737 742
3 742 737 739
3 743 745 744
3 748 747 749
3 746 747 748
3 750 748 749
3 751 753 752
3 752 753 754
3 753 749 754
3 750 749 753
3 755 748 756
3 756 748 750
3 757 758 751
3 751 758 753
3 762 763 760
3 762 760 761
3 761 760 759
3 761 764 762
3 762 764 765
3 764 767 765
3 766 767 764
3 761 768 769
3 761 769 764
3 771 770 772
3 773 771 772
3 776 771 773
3 776 773 777
3 777 773 778
3 771 779 774
3 776 779 771
3 780 782 781
3 781 782 783
3 782 778 783
3 777 778 782
3 777 784 786
3 785 786 784
3 787 775 788
3 787 789 775
3 789 790 775
3 787 788 791
3 786 776 777
3 790 776 786
3 790 792 776
3 792 779 776
3 782 793 777
3 782 794 793
3 784 797 795
3 784 777 797
3 785 784 796
3 799 800 798
3 799 790 800
3 790 789 800
3 798 801 799
3 797 777 802
3 799 792 790
3 802 777 803
3 803 777 793
3 797 804 795
3 806 798 800
3 805 798 806
3 801 798 805
3 804 797 802
3 808 807 809
3 809 807 810
3 811 812 813
3 814 812 815
3 816 814 815
3 812 814 813
3 817 814 816
3 819 818 817
3 814 818 820
3 817 818 814
3 821 814 822
3 822 814 823
3 823 814 820
3 824 822 825
3 821 822 824
3 825 823 826
3 822 823 825
3 829 827 828
3 830 827 831
3 832 827 829
3 831 832 833
3 827 832 831
3 837 835 832
3 835 834 832
3 834 836 832
3 838 831 839
3 838 840 831
3 840 830 831
3 841 843 842
3 841 842 844
3 845 846 847
3 848 850 849
3 849 850 842
3 850 851 842
3 842 851 844
3 845 844 852
3 844 851 852
3 845 852 846
3 854 853 855
3 855 853 856
3 857 859 858
3 858 859 860
3 861 863 862
3 863 855 862
3 854 855 863
3 855 857 862
3 859 857 855
3 864 867 866
3 864 865 867
3 868 867 865
3 869 870 866
3 869 866 867
3 871 867 868
3 871 868 872
3 867 873 869
3 871 873 867
3 869 873 875
3 873 874 875
3 871 872 876
3 876 872 877
3 878 880 873
3 880 881 873
3 878 871 879
3 873 871 878
3 881 882 873
3 882 874 873
3 883 871 876
3 883 876 884
3 885 878 879
3 885 879 886
3 886 879 887
3 888 878 885
3 880 878 888
3 889 882 881
3 890 883 891
3 883 892 871
3 892 879 871
3 890 893 883
3 894 886 887
3 895 887 879
3 892 895 879
3 899 900 897
3 899 897 898
3 898 897 896
