ply
format ascii 1.0
element vertex 897
property float x
property float y
property float z
element face 744
property list uchar int vertex_indices
end_header
-0.1145 1.3379 3.5943
-0.1317 1.3917 3.5928
-0.1165 1.3917 3.6181
-0.1605 1.2917 3.4899
-0.1612 1.3917 3.4898
-0.1128 1.2917 3.5756
1.5833 0.3917 2.5371
1.6136 0.4917 2.5398
1.6630 0.3917 2.4437
1.6528 0.4917 2.4428
1.6161 0.2917 2.4396
1.6630 0.3917 2.4437
1.6486 0.2917 2.3420
1.6723 0.2917 2.2437
1.6802 0.3917 2.2444
1.7176 0.3338 2.1473
1.6179 0.3221 2.1386
1.6149 0.2917 2.1739
1.7115 0.3917 2.2165
1.6528 0.4917 2.4428
1.6669 0.4917 2.3436
1.6763 0.4917 2.2441
1.7176 0.4917 2.1473
1.5480 0.8917 2.5341
1.5747 0.8917 2.6368
1.5920 0.9155 2.4375
1.4924 0.9073 2.4289
1.4884 0.8917 2.4747
1.5574 0.8917 2.8360
1.6173 0.9919 2.8412
1.6404 0.9916 2.4417
1.6092 1.2917 2.8405
1.6322 1.2917 2.4410
1.5920 0.9155 2.4375
1.4924 0.9073 2.4289
1.5010 0.8917 2.3292
1.6006 0.8917 2.3379
1.6404 0.9916 2.4417
1.6546 0.8917 2.2427
1.6519 0.9916 2.2421
1.6492 1.0914 2.2421
1.6465 1.1918 2.2414
1.6322 1.2917 2.4410
1.6437 1.2917 2.2413
1.5920 0.6917 2.4375
1.4924 0.6536 2.4289
1.5010 0.6917 2.3292
1.6006 0.6917 2.3379
1.5032 0.7917 2.3039
1.6006 0.8917 2.3379
1.5010 0.8917 2.3292
1.6528 0.4917 2.4428
1.6516 0.5917 2.4427
1.6669 0.4917 2.3436
1.6663 0.5917 2.3436
1.6763 0.4917 2.2441
1.6776 0.5917 2.2442
1.7176 0.4917 2.1473
1.6907 0.5917 2.1449
1.6758 0.6917 2.2440
1.7089 0.7917 2.2469
1.6546 0.8917 2.2427
1.6136 0.4917 2.5398
1.5833 0.5484 2.5371
1.6528 0.4917 2.4428
1.6516 0.5917 2.4427
1.5852 0.5917 2.5159
1.5920 0.6917 2.4375
1.4734 0.9917 3.4310
1.3993 0.9920 3.5008
1.5329 1.0917 3.4526
1.4726 0.9917 3.3305
1.5228 0.9917 3.2345
1.5735 1.1936 3.5067
1.4995 1.2917 3.5008
1.3997 1.2917 3.4960
1.5916 1.0914 3.2405
1.5747 1.2909 3.4407
1.5862 1.2917 3.2400
1.5228 0.9917 3.2345
1.4232 0.9917 3.2259
1.4405 0.8917 3.0266
1.5351 0.8917 3.0932
1.5348 0.9917 3.0963
1.4347 0.9917 3.0934
1.4318 1.0086 3.1262
1.5851 0.8917 3.0392
1.6058 0.9921 3.0406
1.5487 0.8917 2.9356
1.6116 0.9919 2.9409
1.5574 0.8917 2.8360
1.6173 0.9919 2.8412
1.5916 1.0914 3.2405
1.5862 1.2917 3.2400
1.6092 1.2917 2.8405
-1.0715 0.8917 3.0565
-0.9734 0.8917 3.0818
-0.9741 0.9917 3.0903
-1.0737 0.9917 3.0810
-0.9765 1.0034 3.1179
-1.0761 1.0029 3.1093
-1.0690 0.7917 3.0271
-0.9720 0.7917 3.0662
-0.9734 0.8917 3.0818
-1.0715 0.8917 3.0565
-0.9720 0.7917 3.0662
-0.8724 0.7917 3.0748
-0.8735 0.8917 3.0881
-0.9734 0.8917 3.0818
-0.7772 0.8917 3.1352
-0.7756 0.7917 3.1167
-0.6776 0.7917 3.1439
-0.6803 0.8917 3.1743
-0.6132 0.7917 3.3502
-0.6111 0.8917 3.3504
-0.6001 0.7921 3.4067
-0.5999 0.8917 3.4051
-0.6265 0.7917 3.2487
-0.6253 0.8917 3.2488
-0.6949 0.9917 3.3431
-0.7945 0.9917 3.3345
-0.6863 0.9599 3.2435
-0.7859 1.0039 3.2348
-0.7772 0.8917 3.1352
-0.6803 0.8917 3.1743
-0.7835 0.9917 3.2071
-0.7974 0.9927 3.3939
-0.6976 0.9926 3.3987
-0.7979 1.0925 3.3922
-0.7980 1.1923 3.3906
-0.7985 1.2917 3.3890
-0.6111 0.8917 3.3504
-0.5999 0.8917 3.4051
-0.6253 0.8917 3.2488
-0.5994 1.2917 3.3987
-0.6001 0.7921 3.4067
-0.5007 0.7915 3.4116
-0.5999 0.8917 3.4051
-0.4011 0.7913 3.4164
-0.3014 0.7912 3.4213
-0.2002 0.7913 3.4262
-0.2001 0.8917 3.4246
-0.5999 0.8917 3.4051
-0.5994 1.2917 3.3987
-0.2000 0.9918 3.4230
-0.2982 1.1923 3.4149
-0.2001 0.8917 3.4246
-0.2004 1.0917 3.4280
-0.2054 1.1917 3.4860
-0.1995 1.2917 3.4181
-0.1690 1.0917 3.4891
-0.2054 1.1917 3.4860
-0.1112 1.0917 3.5570
-0.1114 1.1917 3.5594
-0.1605 1.2917 3.4899
-0.1128 1.2917 3.5756
-1.7966 2.8917 3.3145
-1.6953 3.0922 3.3162
-1.7963 3.0918 3.3113
-1.5958 3.0920 3.3211
-1.4954 3.0922 3.3259
-1.3968 2.8917 3.3340
-1.3965 3.0921 3.3308
-1.3923 3.1361 3.2826
-1.4919 3.1353 3.2739
-1.3968 2.8917 3.3340
-0.9969 2.8917 3.3535
-1.2948 3.0925 3.3357
-1.3965 3.0921 3.3308
-1.2927 3.0917 3.2912
-1.3923 3.1361 3.2826
-1.1930 3.1295 3.2999
-0.9938 3.1334 3.3172
-1.0848 3.1661 3.2089
-1.1844 3.1672 3.2002
-0.9967 3.0918 3.3502
-0.9851 3.1409 3.2175
-0.9969 2.8917 3.3535
-0.9967 3.0918 3.3502
-0.9938 3.1334 3.3172
-0.9851 3.1409 3.2175
-0.8769 3.1429 3.1266
-0.9765 3.1509 3.1179
-0.6949 3.1233 3.3431
-0.6863 3.1498 3.2435
-0.7772 3.1459 3.1352
-0.6968 3.0918 3.3648
-0.6776 3.1506 3.1439
-0.5971 2.8917 3.3729
-0.5967 3.1920 3.3681
-0.5953 3.1917 3.3518
-0.5866 3.1523 3.2521
-0.5780 3.1491 3.1525
-0.5971 2.8917 3.3729
-0.4968 3.0918 3.3746
-0.5967 3.1920 3.3681
-0.5953 3.1917 3.3518
-0.5866 3.1523 3.2521
-0.4784 3.1570 3.1612
-0.5780 3.1491 3.1525
-0.3466 3.1103 3.3816
-0.2878 3.1631 3.2781
-0.2705 3.1277 3.0788
-0.3701 3.0917 3.0702
-0.4697 3.1438 3.0615
-0.1795 3.1499 3.1871
-0.1973 2.8917 3.3924
-0.1971 3.0680 3.3895
-0.1969 3.1683 3.3879
-0.1708 3.1319 3.0875
1.4020 2.8917 3.4702
1.5035 2.8917 3.4752
1.5036 3.0924 3.4719
1.4022 3.0919 3.4670
1.5055 3.1917 3.4338
1.4059 3.1500 3.4251
1.5037 3.1923 3.4703
1.4278 3.1917 3.3266
1.4145 3.1756 3.3255
1.6034 2.9923 3.4784
-1.7971 2.4917 3.3210
-1.3973 2.4917 3.3404
-1.3968 2.8917 3.3340
-1.7966 2.8917 3.3145
-1.7975 2.1924 3.3258
-1.6965 2.1922 3.3307
-1.7971 2.4917 3.3210
-1.5961 2.1924 3.3356
-1.4967 2.1921 3.3404
-1.3977 2.1922 3.3453
-1.3973 2.4917 3.3404
-1.3973 2.4917 3.3404
-0.9975 2.4917 3.3599
-0.9969 2.8917 3.3535
-1.3968 2.8917 3.3340
-1.3977 2.1922 3.3453
-1.2968 2.1921 3.3502
-1.3976 2.2922 3.3436
-1.3973 2.4917 3.3404
-1.1976 2.1918 3.3550
-1.0967 2.1922 3.3599
-0.9979 2.1919 3.3647
-0.9975 2.4917 3.3599
-0.9975 2.4917 3.3599
-0.5977 2.4917 3.3794
-0.5971 2.8917 3.3729
-0.9969 2.8917 3.3535
-0.9981 2.0917 3.3663
-0.5982 2.0917 3.3858
-0.5977 2.4917 3.3794
-0.9975 2.4917 3.3599
-0.7976 1.6917 3.3826
-0.6971 1.6917 3.3875
-0.6970 1.7924 3.3858
-0.7980 1.7920 3.3809
-0.7979 1.8920 3.3793
-0.7976 1.9920 3.3777
-0.7979 2.0917 3.3761
-0.5884 1.6917 3.2725
-0.5885 1.7917 3.2737
-0.5985 1.8923 3.3890
-0.5982 2.0917 3.3858
-0.7985 1.2917 3.3890
-0.7982 1.3921 3.3874
-0.7984 1.4920 3.3857
-0.7979 1.5921 3.3842
-0.6971 1.6917 3.3875
-0.7976 1.6917 3.3826
-0.5994 1.2917 3.3987
-0.5989 1.5921 3.3938
-0.5953 1.6123 3.3518
-0.5884 1.6917 3.2725
-0.5994 1.2917 3.3987
-0.3986 1.5919 3.4036
-0.5989 1.5921 3.3938
-0.5953 1.6123 3.3518
-0.4870 1.6917 3.2608
-0.5884 1.6917 3.2725
-0.3942 1.6917 3.3483
-0.3481 1.6917 3.3732
-0.2984 1.6917 3.4069
-0.1995 1.2917 3.4181
-0.1990 1.6917 3.4117
-0.5982 2.0917 3.3858
-0.1984 2.0917 3.4053
-0.1979 2.4917 3.3988
-0.5977 2.4917 3.3794
-0.5977 2.4917 3.3794
-0.1979 2.4917 3.3988
-0.1973 2.8917 3.3924
-0.5971 2.8917 3.3729
-0.5884 1.6917 3.2725
-0.4870 1.6917 3.2608
-0.4883 1.7917 3.2758
-0.5885 1.7917 3.2737
-0.5985 1.8923 3.3890
-0.5982 2.0917 3.3858
-0.3942 1.6917 3.3483
-0.3937 1.7917 3.3423
-0.3975 1.8446 3.3996
-0.3481 1.6917 3.3732
-0.2983 1.7920 3.4052
-0.2984 1.6917 3.4069
-0.1990 1.6917 3.4117
-0.1987 1.8921 3.4085
-0.1984 2.0917 3.4053
0.5022 0.3932 3.4668
0.5988 0.3924 3.4715
0.5990 0.4917 3.4699
0.5022 0.4917 3.4652
1.3841 0.9156 2.5198
1.2845 0.9235 2.5112
1.3927 0.9111 2.4202
1.2931 0.9157 2.4116
1.4269 0.8917 2.6239
1.3754 0.9105 2.6195
1.4511 0.8917 2.5256
1.4924 0.9073 2.4289
1.4884 0.8917 2.4747
1.1054 0.6917 2.2610
1.2041 0.6917 2.2803
1.1052 0.7917 2.2634
1.2040 0.8917 2.2822
1.1037 0.8917 2.2808
1.3041 0.6917 2.2850
1.3018 0.8917 2.3119
1.4033 0.6917 2.2984
1.4038 0.7917 2.2925
1.5010 0.6917 2.3292
1.5032 0.7917 2.3039
1.5010 0.8917 2.3292
1.0939 0.9260 2.3943
0.9942 0.9486 2.3856
1.1025 0.8980 2.2946
1.0029 0.9036 2.2860
1.0052 0.8917 2.2587
1.1037 0.8917 2.2808
0.9075 0.6917 2.2281
1.0054 0.6917 2.2571
1.1037 0.8917 2.2808
0.9061 0.7917 2.2444
1.0052 0.8917 2.2587
0.9054 0.8917 2.2523
1.1054 0.6917 2.2610
1.1052 0.7917 2.2634
1.1935 0.9236 2.4029
1.0939 0.9260 2.3943
1.2021 0.9018 2.3033
1.1025 0.8980 2.2946
1.1037 0.8917 2.2808
1.2040 0.8917 2.2822
1.2931 0.9157 2.4116
1.3018 0.8917 2.3119
1.3927 0.9111 2.4202
1.4924 0.9073 2.4289
1.5010 0.8917 2.3292
0.5995 0.8917 3.4635
0.7010 0.9923 3.4668
0.5997 0.9922 3.4619
0.8006 0.9922 3.4717
0.9002 0.9920 3.4765
0.9993 0.8917 3.4830
0.9726 1.0917 3.4879
0.8991 1.0365 3.4815
0.9996 1.0918 3.4797
-0.1690 1.0917 3.4891
-0.2054 1.1917 3.4860
-0.2004 1.0917 3.4280
-0.1605 1.2917 3.4899
-0.2054 1.1917 3.4860
-0.1995 1.2917 3.4181
0.2999 0.8917 3.4489
0.3996 0.8917 3.4538
0.4003 0.9920 3.4522
0.2979 0.9917 3.4696
0.5006 0.9921 3.4571
0.5995 0.8917 3.4635
0.5997 0.9922 3.4619
0.2997 0.7918 3.4505
0.4001 0.7920 3.4554
0.3996 0.8917 3.4538
0.2999 0.8917 3.4489
0.5007 0.7923 3.4603
0.5022 0.4917 3.4652
0.5990 0.4917 3.4699
0.5012 0.5926 3.4636
0.5005 0.6923 3.4619
0.5995 0.8917 3.4635
1.0084 0.2917 3.3785
1.1080 0.2917 3.3871
1.1091 0.3917 3.3751
1.0101 0.3917 3.3589
1.1093 0.4917 3.3726
0.9988 0.4917 3.4894
0.5990 0.4917 3.4699
0.8000 0.4917 3.4797
0.5995 0.8917 3.4635
0.8008 0.6924 3.4765
0.9010 0.4917 3.4846
0.9993 0.8917 3.4830
0.9603 0.4917 3.3864
0.9612 0.5917 3.3865
0.9988 0.4917 3.4894
1.0094 0.5917 3.3674
1.0106 0.6917 3.3537
1.0103 0.7917 3.3565
1.0074 0.8261 3.3905
0.5988 0.3924 3.4715
0.7006 0.3925 3.4765
0.9010 0.4917 3.4846
0.5990 0.4917 3.4699
0.8001 0.3923 3.4813
0.8039 0.2917 3.4223
0.9077 0.2917 3.3819
0.9012 0.3928 3.4863
1.0084 0.2917 3.3785
1.0101 0.3917 3.3589
0.9603 0.4917 3.3864
0.9988 0.4917 3.4894
0.9993 0.8917 3.4830
1.3992 0.8917 3.5024
1.3997 1.2917 3.4960
0.9999 1.2917 3.4765
0.9988 0.4917 3.4894
1.1093 0.4917 3.3726
1.1094 0.5917 3.3720
1.0094 0.5917 3.3674
1.1097 0.6917 3.3684
1.0106 0.6917 3.3537
1.1083 0.7917 3.3843
1.0103 0.7917 3.3565
1.1070 0.8141 3.3992
1.0074 0.8261 3.3905
1.1005 0.8917 3.4879
0.9993 0.8917 3.4830
1.4169 0.9917 3.1249
1.4318 1.0086 3.1262
1.4232 0.9917 3.2259
1.4347 0.9917 3.0934
1.0010 2.0917 3.4636
1.4008 2.0917 3.4831
1.4014 2.4917 3.4767
1.0016 2.4917 3.4572
1.0016 2.4917 3.4572
1.4014 2.4917 3.4767
1.4020 2.8917 3.4702
1.0021 2.8917 3.4508
0.9999 1.2917 3.4765
1.3997 1.2917 3.4960
1.4003 1.6917 3.4895
1.0005 1.6917 3.4701
-0.1605 1.2917 3.4899
-0.1612 1.3917 3.4898
-0.1995 1.2917 3.4181
-0.1994 1.3922 3.4165
-0.1983 2.1920 3.4036
0.2015 2.1918 3.4231
-0.1979 2.4917 3.3988
0.1019 2.2918 3.4166
0.2020 2.4917 3.4183
-0.1979 2.4917 3.3988
0.2020 2.4917 3.4183
0.2025 2.8917 3.4118
-0.1973 2.8917 3.3924
0.2016 2.1918 3.4231
0.3020 2.1920 3.4280
0.2020 2.4917 3.4183
0.4024 2.1922 3.4329
0.5020 2.1920 3.4377
0.6013 2.1921 3.4426
0.6018 2.4917 3.4377
0.2020 2.4917 3.4183
0.6018 2.4917 3.4377
0.6023 2.8917 3.4313
0.2025 2.8917 3.4118
0.6018 2.4917 3.4377
1.0016 2.4917 3.4572
1.0021 2.8917 3.4508
0.6023 2.8917 3.4313
0.6013 2.1921 3.4426
0.7020 2.1920 3.4475
0.6018 2.4917 3.4377
0.8005 2.1914 3.4523
0.9013 2.1918 3.4572
1.0000 2.0917 3.4636
1.0010 2.0913 3.4636
0.9010 2.0917 3.4588
1.0016 2.4917 3.4572
1.0005 1.6917 3.4701
1.4003 1.6917 3.4895
1.4008 2.0917 3.4831
1.0010 2.0917 3.4636
1.6092 1.2917 2.8405
1.6322 1.2917 2.4410
1.6038 1.4921 2.8400
1.6096 1.4923 2.7396
1.6069 1.5924 2.7392
1.6126 1.5925 2.6393
1.6184 1.5923 2.5395
1.6241 1.5917 2.4403
1.6157 1.6917 2.5399
1.5920 1.6917 2.4375
1.6322 1.2917 2.4410
1.6437 1.2917 2.2413
1.6410 1.3917 2.2410
1.6383 1.4917 2.2409
1.6241 1.5917 2.4403
1.6299 1.5918 2.3404
1.6356 1.5913 2.2411
1.3997 1.2917 3.4960
1.4995 1.2917 3.5008
1.5003 1.6917 3.4944
1.4003 1.6917 3.4895
1.5746 1.2917 3.4407
1.5692 1.4908 3.4403
1.5862 1.2917 3.2400
1.5750 1.4907 3.3405
1.5723 1.5906 3.3404
1.6051 1.6917 3.4424
1.5638 1.6917 3.4401
1.5754 1.6917 3.2391
1.5862 1.2917 3.2400
1.5892 1.3914 3.1403
1.6092 1.2917 2.8405
1.5950 1.3917 3.0401
1.6008 1.3920 2.9399
1.5754 1.6917 3.2391
1.5865 1.4910 3.1404
1.5981 1.4920 2.9397
1.6038 1.4921 2.8400
1.5838 1.5905 3.1408
1.6311 1.6917 3.1435
1.5841 2.4917 3.2398
1.5802 2.5917 3.2395
1.5972 2.4917 3.1406
1.5505 2.5917 3.1365
1.4014 2.4917 3.4767
1.5018 2.4917 3.4815
1.5035 2.8917 3.4752
1.4020 2.8917 3.4702
1.5542 2.4917 3.4380
1.5837 2.4917 3.3402
1.5962 2.5917 3.3413
1.5841 2.4917 3.2398
1.5802 2.5917 3.2395
1.6122 2.6917 3.3613
1.6138 2.6503 3.3428
1.5482 2.6917 3.2367
1.6150 2.6917 3.3290
1.6138 2.7120 3.3428
1.5706 2.7917 3.3390
1.5677 2.8917 3.3388
1.4008 2.0917 3.4831
1.5012 2.1918 3.4864
1.5018 2.4917 3.4815
1.4014 2.4917 3.4767
1.6121 2.0917 3.4934
1.5542 2.1917 3.4380
1.6138 2.0917 3.3428
1.5774 2.1917 3.2392
1.5774 2.0917 3.2392
1.5587 2.0917 3.3394
1.6138 2.2917 3.3428
1.5727 2.2917 3.2388
1.5542 2.4917 3.4380
1.5779 2.3917 3.2393
1.5837 2.4917 3.3402
1.5841 2.4917 3.2398
1.5700 1.8910 3.2386
1.5673 1.9911 3.2384
1.5757 1.8914 3.1391
1.5730 1.9916 3.1387
1.4003 1.6917 3.4895
1.5003 1.6917 3.4944
1.5009 1.9419 3.4904
1.4008 2.0917 3.4831
1.6051 1.6917 3.4424
1.5598 1.8417 3.4385
1.5638 1.6917 3.4401
1.5754 1.6917 3.2391
1.5568 1.7917 3.2375
1.5700 1.8910 3.2386
1.6051 1.9917 3.4424
1.5614 1.9903 3.3398
1.5673 1.9911 3.2384
1.6121 2.0917 3.4934
1.5774 2.0917 3.2392
1.5587 2.0917 3.3394
1.6138 1.9917 3.3428
1.6138 2.0917 3.3428
-0.1973 2.8917 3.3924
-0.0971 3.0917 3.3940
-0.1971 3.0439 3.3899
-0.0593 3.1403 3.2477
-0.1969 3.1683 3.3879
-0.1795 3.1499 3.1871
-0.0712 3.0917 3.0961
-0.1708 3.1319 3.0875
0.2028 3.0920 3.4086
0.0284 3.0917 3.1048
0.2104 3.1441 3.3213
0.2190 3.1729 3.2217
0.1280 3.1331 3.1134
0.2025 2.8917 3.4118
0.2277 3.0917 3.1221
0.2025 2.8917 3.4118
0.2028 3.0920 3.4086
0.2104 3.1441 3.3213
0.2190 3.1729 3.2217
0.3273 3.1615 3.1307
0.2277 3.0917 3.1221
0.6023 2.8917 3.4313
0.6175 3.1573 3.2563
0.4269 3.1450 3.1394
0.6026 3.0920 3.4281
0.5092 3.1228 3.3473
0.5265 3.1508 3.1480
0.6089 3.1528 3.3559
0.6262 3.1607 3.1567
1.0021 2.8917 3.4508
1.0024 3.0921 3.4475
1.0074 3.1369 3.3905
1.2153 3.1917 3.3082
1.0160 3.1685 3.2909
1.1243 3.1650 3.1999
1.0247 3.1635 3.1913
1.4022 3.0919 3.4670
1.2043 3.1925 3.4557
1.2239 3.1461 3.2086
1.3062 3.1715 3.4165
1.3149 3.1724 3.3168
1.2153 3.1917 3.3082
1.4020 2.8917 3.4702
1.4059 3.1500 3.4251
1.4145 3.1756 3.3255
0.6023 2.8917 3.4313
0.6026 3.0920 3.4281
0.7127 3.1917 3.3162
0.6089 3.1528 3.3559
0.6708 3.1917 3.2609
0.6175 3.1573 3.2563
0.7258 3.1659 3.1653
0.6262 3.1607 3.1567
0.7225 3.1917 3.2035
0.9077 3.1519 3.3819
0.7770 3.1917 3.2701
0.8254 3.1374 3.1740
1.0024 3.0921 3.4475
1.0247 3.1635 3.1913
0.9250 3.1616 3.1826
1.0021 2.8917 3.4508
1.0074 3.1369 3.3905
1.0160 3.1685 3.2909
-2.3990 0.9917 3.3169
-2.2987 0.9917 3.3176
-2.2976 1.0917 3.3044
-2.3972 1.0917 3.2957
-2.2993 1.1917 3.3239
-2.3987 1.1917 3.3136
-2.1979 0.9917 3.3130
-2.2976 0.9622 3.3044
-2.1979 1.1917 3.3130
-2.2976 1.2165 3.3044
-2.0983 0.9917 3.3217
-2.1979 0.9917 3.3130
-2.0983 1.0917 3.3217
-2.1979 1.1917 3.3130
-2.0983 1.2917 3.3217
-2.1979 0.9917 3.3130
-2.2976 0.9622 3.3044
-2.2944 0.8917 3.2683
-2.1925 0.8917 3.2499
-2.1979 0.9917 3.3130
-2.2976 1.0917 3.3044
-2.1969 1.0917 3.3006
-2.1979 1.1917 3.3130
-2.1979 1.1917 3.3130
-2.2976 1.2165 3.3044
-2.1969 1.2917 3.3015
-2.2934 1.2917 3.2560
-2.0983 0.9917 3.3217
-2.1979 0.9917 3.3130
-2.1925 0.8917 3.2499
-2.0921 0.8917 3.2499
-2.0983 1.0917 3.3217
-2.1979 0.9917 3.3130
-2.1969 1.0917 3.3006
-2.1979 1.1917 3.3130
-2.0983 1.2917 3.3217
-2.1979 1.1917 3.3130
-2.1969 1.2917 3.3015
-1.9941 0.8917 3.2772
-1.9963 0.9917 3.3028
-2.0983 1.0917 3.3217
-1.9973 1.0917 3.3143
-2.0983 1.1917 3.3217
-1.9971 1.1917 3.3122
-2.0983 1.2917 3.3217
-1.9948 1.2917 3.2856
-2.0983 1.2917 3.3217
-2.0983 1.2917 3.3217
-2.1979 1.3917 3.3130
-2.1979 1.3917 3.3130
-2.1969 1.2917 3.3015
-2.0967 1.3917 3.3033
-2.0963 1.4917 3.2981
-2.1961 1.4917 3.2916
-2.0958 1.5917 3.2923
-2.1956 1.5917 3.2856
-1.9948 1.2917 3.2856
-1.9925 1.3917 3.2594
-1.9953 1.4917 3.2911
-2.1979 1.3917 3.3130
-2.2934 1.2917 3.2560
-2.1969 1.2917 3.3015
-2.2956 1.3917 3.2817
-0.1061 1.0447 1.1852
-0.2057 1.0447 1.1763
-0.1971 1.0258 1.0777
-0.0064 1.0445 1.1934
0.0021 1.0257 1.0950
-0.4441 0.4917 0.4540
-0.3477 0.4917 0.5000
-0.3498 0.5917 0.5236
-0.4457 0.5917 0.4727
-0.3467 0.6917 0.4886
-0.4461 0.6917 0.4768
-0.3618 0.7917 0.6619
-0.4614 0.7917 0.6532
-0.3531 0.7917 0.5622
-0.4527 0.7917 0.5536
-0.3791 0.9917 0.8611
-0.4700 0.8917 0.7529
-0.3743 0.8917 0.8066
-0.4752 0.9917 0.8127
-0.4700 0.7917 0.7529
-0.4614 0.7917 0.6532
-0.4700 0.8917 0.7529
-0.3704 0.7917 0.7615
-0.3618 0.7917 0.6619
-0.3743 0.8917 0.8066
-0.3610 0.8917 0.8627
-0.3791 0.9917 0.8611
-0.3743 0.8917 0.8066
-0.2210 0.8917 0.9752
-0.2024 0.9917 0.9768
-0.1798 0.8917 0.8784
-0.1849 0.9989 0.9370
0.0194 0.8917 0.8957
-0.0851 0.9985 0.9435
-0.1971 1.0258 1.0777
-0.0888 1.0067 0.9866
-0.1884 1.0067 0.9779
0.0143 0.9917 0.9544
0.0021 1.0257 1.0950
0.0108 1.0067 0.9953
-0.2967 0.8096 1.0690
-0.3964 0.8032 1.0604
-0.2881 0.7985 0.9694
-0.3664 0.8917 0.9626
-0.3894 0.8917 0.9807
-0.2794 0.7966 0.8698
-0.3610 0.8917 0.8627
-0.3704 0.7917 0.7615
-0.2708 0.7917 0.7701
-0.3743 0.8917 0.8066
-0.2210 0.8917 0.9752
-0.1798 0.8917 0.8784
-0.2922 0.5917 0.4672
-0.2448 0.6521 0.4713
-0.3498 0.5917 0.5236
-0.2471 0.6917 0.4975
-0.3467 0.6917 0.4886
-0.2823 0.5917 0.3676
-0.2362 0.6159 0.3716
-0.2621 0.7917 0.6705
-0.3618 0.7917 0.6619
-0.2535 0.7917 0.5709
-0.3531 0.7917 0.5622
-0.2032 0.5917 0.4749
-0.1510 0.5917 0.5468
-0.0473 0.6917 0.5080
-0.1366 0.6917 0.3803
-0.1378 0.5917 0.3945
-0.1452 0.7917 0.4799
-0.1539 0.8079 0.5795
-0.0516 0.5917 0.5576
-0.1313 0.5917 0.3808
0.0540 0.7917 0.4972
0.0454 0.4917 0.5968
-0.0542 0.4917 0.5882
0.0480 0.5917 0.5666
0.0497 0.5917 0.3965
-0.0369 0.5238 0.3889
-0.0396 0.4917 0.4200
0.0599 0.4917 0.4293
0.0607 0.5917 0.4207
-0.0306 0.5917 0.3153
0.0523 0.6917 0.5177
0.0627 0.6044 0.3976
0.3508 0.3917 0.5479
0.4497 0.3917 0.5643
0.4505 0.4917 0.5552
0.3500 0.4917 0.5571
0.5522 0.1549 0.5405
0.5384 0.1917 0.5393
0.5533 0.1917 0.5279
0.5435 0.1917 0.6401
0.5550 0.2917 0.5081
0.4473 0.1917 0.5919
0.4463 0.2917 0.6032
0.4497 0.3917 0.5643
0.4844 0.4917 0.5346
0.4505 0.4917 0.5552
0.5585 0.4917 0.4674
0.6547 0.2917 0.5156
0.6545 0.3917 0.5176
0.6550 0.4917 0.5119
0.7105 0.2917 0.5542
0.6833 0.3917 0.5519
0.6890 0.4917 0.5523
0.4844 0.4917 0.5346
0.4505 0.4917 0.5552
0.4516 0.5917 0.5420
0.5585 0.4917 0.4674
0.5540 0.5917 0.5189
0.4525 0.6917 0.5318
0.5540 0.6917 0.5188
0.5435 0.7276 0.6401
0.4568 0.7917 0.6326
0.5522 0.7135 0.5405
0.4640 0.7917 0.5328
0.6518 0.5291 0.5491
0.5737 0.5917 0.5423
0.6550 0.4917 0.5119
0.1191 0.8917 0.9044
0.2102 0.7977 1.0127
0.1396 0.8917 1.0065
0.2187 0.7972 0.9130
0.3006 0.8075 1.1209
0.2026 0.7983 1.1124
0.3090 0.8070 1.0212
0.3184 0.8066 0.9217
0.2269 0.7967 0.8133
0.3273 0.8061 0.8221
0.2356 0.7962 0.7137
0.3353 0.8056 0.7224
0.0194 0.8917 0.8957
0.1191 0.8917 0.9044
0.1143 0.9917 0.9590
0.0143 0.9917 0.9544
0.1018 1.0257 1.1036
0.0021 1.0257 1.0950
0.1104 1.0066 1.0041
0.0108 1.0067 0.9953
0.1627 0.8917 1.1089
0.1382 0.9917 1.1068
0.1396 0.8917 1.0065
0.1450 0.4917 0.6055
0.0454 0.4917 0.5968
0.1282 0.4917 0.5037
0.1000 0.5917 0.5012
0.0480 0.5917 0.5666
0.0599 0.4917 0.4293
0.0607 0.5917 0.4207
0.1520 0.6917 0.5253
0.0523 0.6917 0.5177
0.1710 0.6764 0.3066
0.0627 0.6044 0.3976
0.0713 0.6431 0.2980
0.1537 0.7917 0.5059
0.0540 0.7917 0.4972
0.2476 0.5917 0.5803
0.2957 0.4917 0.3175
0.1945 0.5917 0.3087
0.2443 0.7958 0.6141
0.2446 0.7917 0.6141
0.1450 0.8104 0.6055
0.3259 0.4917 0.5208
0.3500 0.4917 0.5571
0.4516 0.5917 0.5420
0.2985 0.4917 0.4181
0.4525 0.6917 0.5318
0.2356 0.7962 0.7137
0.3529 0.7917 0.5232
0.3353 0.8056 0.7224
0.3454 0.8052 0.6230
0.4505 0.4917 0.5552
0.1710 0.6764 0.3066
0.0713 0.6431 0.2980
0.1796 0.6486 0.2070
0.1096 0.6917 0.2009
0.0768 0.6917 0.2348
0.0800 0.7089 0.1983
0.2706 0.5170 0.3153
0.1945 0.5917 0.3087
0.2792 0.5917 0.2156
3 2 0 1
3 0 5 3
3 0 3 1
3 1 3 4
3 6 7 8
3 8 7 9
3 10 11 12
3 12 11 13
3 17 13 14
3 17 14 15
3 17 15 16
3 18 15 14
3 11 19 13
3 13 19 20
3 13 20 14
3 14 20 21
3 18 21 22
3 14 21 18
3 23 26 27
3 23 25 26
3 28 29 24
3 23 24 30
3 30 24 29
3 25 23 30
3 29 31 32
3 29 32 30
3 33 35 34
3 36 35 33
3 36 33 37
3 36 37 38
3 37 42 38
3 38 42 39
3 39 42 40
3 40 42 41
3 41 42 43
3 45 46 44
3 44 46 47
3 46 48 47
3 49 48 50
3 51 52 53
3 53 52 54
3 53 54 55
3 55 54 56
3 57 55 58
3 55 56 58
3 52 44 54
3 54 44 47
3 54 47 56
3 56 47 59
3 60 59 47
3 60 47 48
3 60 48 49
3 60 49 61
3 63 66 65
3 63 65 62
3 62 65 64
3 67 65 66
3 68 69 70
3 70 69 73
3 73 69 75
3 73 75 74
3 71 68 70
3 76 71 70
3 72 71 76
3 78 76 73
3 76 70 73
3 77 73 74
3 78 73 77
3 82 81 83
3 83 81 84
3 79 85 80
3 83 85 79
3 83 84 85
3 87 86 82
3 83 87 82
3 86 87 88
3 88 87 89
3 88 89 90
3 90 89 91
3 83 79 92
3 83 92 87
3 87 92 94
3 87 94 89
3 89 94 91
3 92 93 94
3 96 95 97
3 97 95 98
3 99 98 100
3 97 98 99
3 102 101 103
3 103 101 104
3 106 105 107
3 107 105 108
3 109 110 107
3 110 106 107
3 111 109 112
3 111 110 109
3 116 115 113
3 114 116 113
3 113 117 114
3 117 118 114
3 117 112 118
3 111 112 117
3 122 120 121
3 121 120 119
3 121 125 122
3 121 124 125
3 124 123 125
3 127 126 134
3 134 126 128
3 134 128 129
3 134 129 130
3 131 119 127
3 131 127 132
3 132 127 134
3 133 119 131
3 121 119 133
3 133 124 121
3 136 135 137
3 138 136 137
3 139 138 137
3 140 139 141
3 141 139 137
3 144 142 143
3 144 143 145
3 146 142 144
3 148 147 145
3 147 144 145
3 148 145 149
3 145 143 149
3 150 151 152
3 152 151 153
3 151 154 155
3 151 155 153
3 157 156 158
3 161 156 159
3 159 156 157
3 160 161 159
3 162 161 160
3 162 160 164
3 163 162 164
3 166 165 167
3 167 165 168
3 167 168 170
3 169 167 170
3 171 167 169
3 172 167 171
3 172 171 173
3 171 174 173
3 175 166 167
3 175 167 172
3 172 173 176
3 180 182 181
3 188 177 178
3 183 178 179
3 183 179 184
3 179 180 184
3 184 180 185
3 180 181 185
3 186 188 178
3 186 178 183
3 184 185 187
3 189 188 186
3 183 190 189
3 183 189 186
3 190 183 191
3 183 184 191
3 191 184 192
3 184 187 192
3 194 193 195
3 196 194 195
3 196 197 194
3 194 197 198
3 197 199 198
3 200 194 201
3 201 194 202
3 194 198 202
3 202 198 203
3 198 204 203
3 200 193 194
3 201 202 205
3 200 207 206
3 200 206 193
3 207 200 208
3 208 200 201
3 208 201 205
3 205 202 209
3 212 210 213
3 215 214 216
3 215 216 213
3 213 216 212
3 218 214 215
3 217 214 218
3 219 211 210
3 212 219 210
3 221 220 222
3 222 220 223
3 225 224 226
3 227 225 226
3 229 228 227
3 229 227 230
3 230 227 226
3 232 231 233
3 233 231 234
3 236 235 237
3 239 236 237
3 239 237 238
3 240 239 238
3 241 240 242
3 242 240 238
3 244 243 245
3 245 243 246
3 248 247 249
3 249 247 250
3 252 251 253
3 253 251 254
3 253 254 261
3 261 254 255
3 261 255 256
3 261 256 257
3 258 253 259
3 252 253 258
3 260 253 261
3 253 260 259
3 268 262 263
3 263 264 265
3 263 265 266
3 266 265 267
3 268 263 269
3 266 270 269
3 266 269 263
3 270 266 271
3 273 272 274
3 273 274 275
3 275 276 273
3 277 276 275
3 276 278 273
3 281 272 273
3 278 279 280
3 278 280 273
3 273 280 281
3 282 281 280
3 284 283 285
3 285 283 286
3 288 287 289
3 289 287 290
3 292 291 293
3 293 291 294
3 293 294 295
3 297 292 298
3 298 292 293
3 299 293 295
3 298 293 299
3 299 295 296
3 301 302 300
3 300 298 301
3 297 298 300
3 301 299 304
3 301 298 299
3 304 299 296
3 303 302 301
3 303 301 304
3 305 304 296
3 307 306 308
3 308 306 309
3 310 312 311
3 311 312 313
3 316 315 314
3 310 315 316
3 318 310 316
3 318 317 310
3 317 312 310
3 319 321 322
3 322 321 323
3 324 320 319
3 325 324 322
3 324 319 322
3 326 324 327
3 327 324 325
3 328 326 329
3 326 327 329
3 330 327 325
3 329 327 330
3 331 333 332
3 332 333 334
3 333 335 334
3 336 335 333
3 338 337 339
3 339 337 340
3 339 340 341
3 341 340 342
3 343 338 344
3 344 338 339
3 345 347 346
3 346 347 348
3 347 349 348
3 350 349 347
3 352 347 351
3 347 345 351
3 352 350 347
3 353 352 351
3 354 352 353
3 355 352 354
3 357 356 358
3 361 356 359
3 359 356 357
3 360 361 359
3 362 360 363
3 362 364 360
3 364 361 360
3 365 367 366
3 369 370 368
3 372 371 373
3 373 371 374
3 372 373 375
3 376 372 377
3 377 372 375
3 379 378 380
3 380 378 381
3 379 380 382
3 384 383 385
3 384 385 386
3 384 386 387
3 387 386 382
3 387 382 380
3 389 388 390
3 390 388 391
3 390 391 392
3 392 391 393
3 395 394 396
3 397 395 396
3 399 397 396
3 401 400 398
3 395 401 398
3 402 401 403
3 400 401 402
3 404 401 395
3 397 404 395
3 401 404 403
3 405 404 397
3 399 405 397
3 406 405 399
3 408 407 409
3 409 407 410
3 411 408 409
3 413 412 414
3 414 412 411
3 414 411 409
3 414 415 413
3 417 415 414
3 409 417 414
3 416 417 418
3 415 417 416
3 420 419 421
3 421 419 422
3 424 423 425
3 425 423 426
3 425 426 427
3 427 426 428
3 427 428 429
3 429 428 430
3 434 433 431
3 432 434 431
3 431 430 432
3 429 430 431
3 437 436 435
3 435 436 438
3 440 439 441
3 441 439 442
3 444 443 445
3 445 443 446
3 448 447 449
3 449 447 450
3 451 454 452
3 453 454 451
3 456 455 457
3 458 456 457
3 459 456 458
3 459 458 457
3 461 460 462
3 462 460 463
3 464 466 465
3 470 465 466
3 467 465 470
3 470 468 467
3 469 468 470
3 472 471 473
3 473 471 474
3 476 475 477
3 477 475 478
3 480 479 481
3 482 480 481
3 482 481 483
3 481 487 483
3 484 487 485
3 484 486 487
3 486 483 487
3 489 488 490
3 490 488 491
3 492 494 495
3 492 495 493
3 495 496 493
3 493 496 497
3 493 497 498
3 493 498 499
3 498 500 499
3 499 500 501
3 503 502 504
3 504 502 505
3 502 506 507
3 502 507 505
3 505 507 508
3 510 509 511
3 511 509 512
3 514 513 510
3 513 514 515
3 514 510 511
3 514 516 515
3 516 520 515
3 517 520 516
3 514 511 518
3 519 520 517
3 516 514 517
3 519 517 518
3 518 517 514
3 521 522 523
3 523 522 524
3 523 524 525
3 521 526 522
3 522 526 527
3 525 528 523
3 523 528 529
3 530 527 526
3 530 526 531
3 532 533 534
3 534 533 535
3 537 536 538
3 538 536 539
3 541 540 542
3 541 542 543
3 543 542 544
3 545 540 537
3 538 545 537
3 546 542 545
3 542 540 545
3 548 542 546
3 548 547 542
3 547 544 542
3 545 550 549
3 545 538 550
3 550 538 551
3 553 552 554
3 554 552 555
3 557 556 553
3 553 556 552
3 556 559 558
3 557 559 556
3 558 560 561
3 558 559 560
3 554 557 553
3 562 559 557
3 562 563 559
3 564 557 554
3 562 557 565
3 557 564 565
3 562 565 563
3 565 564 566
3 565 566 567
3 568 569 570
3 570 569 571
3 573 572 574
3 574 572 575
3 577 576 573
3 576 577 578
3 577 579 578
3 574 577 573
3 579 577 581
3 579 581 580
3 582 577 574
3 577 583 581
3 582 583 577
3 583 584 581
3 582 574 585
3 585 574 575
3 587 584 583
3 586 584 587
3 588 583 582
3 582 585 588
3 588 585 589
3 592 591 590
3 591 592 594
3 591 594 593
3 594 595 593
3 593 595 596
3 595 597 596
3 591 603 590
3 603 591 598
3 598 591 593
3 593 596 599
3 600 598 593
3 600 593 601
3 601 593 602
3 593 599 602
3 601 602 604
3 608 610 609
3 611 605 606
3 607 608 612
3 612 608 613
3 608 609 613
3 614 611 606
3 614 606 607
3 615 614 607
3 615 607 612
3 612 613 616
3 617 614 615
3 617 615 612
3 612 616 618
3 620 621 622
3 621 623 622
3 622 623 624
3 623 625 624
3 632 619 626
3 626 619 620
3 620 627 626
3 622 627 620
3 622 624 628
3 627 629 626
3 629 631 630
3 627 631 629
3 633 626 629
3 633 629 634
3 629 630 634
3 637 636 638
3 637 640 639
3 637 638 640
3 639 641 643
3 639 640 641
3 640 642 641
3 650 635 636
3 644 636 637
3 645 644 637
3 643 641 645
3 641 646 645
3 647 650 636
3 647 636 644
3 644 645 648
3 648 645 649
3 645 646 649
3 651 647 644
3 651 644 652
3 644 648 652
3 654 653 655
3 655 653 656
3 655 656 657
3 657 656 658
3 660 654 659
3 655 659 654
3 661 655 657
3 661 657 662
3 664 665 663
3 666 667 665
3 668 670 669
3 671 670 668
3 672 673 674
3 673 675 674
3 677 678 676
3 679 678 677
3 680 682 681
3 683 682 680
3 685 686 684
3 684 686 687
3 689 690 688
3 680 692 683
3 692 691 683
3 692 693 694
3 680 693 692
3 694 695 696
3 693 695 694
3 696 697 698
3 695 697 696
3 699 703 702
3 700 701 704
3 701 706 704
3 706 705 704
3 705 706 707
3 707 706 708
3 700 704 709
3 704 710 709
3 710 704 711
3 711 704 705
3 712 714 715
3 714 713 715
3 716 720 717
3 717 720 718
3 719 720 716
3 722 721 723
3 723 721 724
3 723 724 725
3 725 724 726
3 727 729 728
3 728 729 730
3 729 726 730
3 725 726 729
3 731 733 734
3 733 732 734
3 738 739 735
3 735 739 736
3 738 735 740
3 740 735 737
3 741 743 742
3 746 745 747
3 744 745 746
3 748 746 749
3 749 746 747
3 754 751 750
3 750 751 752
3 751 747 752
3 749 747 751
3 753 748 749
3 754 755 751
3 759 760 757
3 759 757 758
3 758 757 756
3 758 761 762
3 759 758 762
3 761 765 762
3 761 764 765
3 764 763 765
3 766 767 758
3 758 767 761
3 769 768 770
3 769 770 771
3 771 770 772
3 768 774 773
3 769 774 768
3 775 777 776
3 776 777 778
3 777 772 778
3 771 772 777
3 779 769 771
3 779 771 780
3 780 771 781
3 783 769 779
3 783 782 769
3 782 774 769
3 777 784 771
3 784 781 771
3 777 785 784
3 786 780 781
3 787 782 783
3 788 781 784
3 790 791 789
3 786 791 790
3 793 796 792
3 793 794 796
3 794 795 796
3 793 792 797
3 791 786 798
3 798 786 781
3 796 799 792
3 798 781 788
3 801 800 802
3 802 800 803
3 804 805 806
3 809 810 807
3 810 808 807
3 808 805 807
3 805 808 806
3 811 808 810
3 813 812 811
3 808 812 814
3 811 812 808
3 815 808 816
3 816 808 817
3 817 808 814
3 818 816 819
3 815 816 818
3 819 817 820
3 816 817 819
3 823 821 822
3 824 821 825
3 826 821 823
3 825 826 827
3 821 826 825
3 831 829 826
3 829 828 826
3 828 830 826
3 832 825 833
3 832 834 825
3 834 824 825
3 835 837 836
3 835 836 838
3 839 841 840
3 840 841 836
3 841 842 836
3 836 842 838
3 843 838 844
3 838 842 844
3 843 846 845
3 844 846 843
3 848 847 849
3 849 847 850
3 851 853 852
3 852 853 854
3 855 857 856
3 857 849 856
3 848 849 857
3 849 851 856
3 853 851 849
3 858 861 860
3 858 859 861
3 862 861 859
3 860 861 864
3 863 860 864
3 865 861 862
3 865 862 866
3 861 868 864
3 861 865 868
3 865 867 868
3 868 867 869
3 865 866 870
3 870 866 871
3 872 873 874
3 872 865 870
3 874 865 872
3 867 865 874
3 875 870 876
3 876 870 877
3 878 872 879
3 879 872 880
3 881 872 878
3 873 872 881
3 880 872 882
3 882 872 870
3 875 884 870
3 884 882 870
3 883 886 875
3 885 886 883
3 887 879 880
3 891 892 889
3 891 889 890
3 890 889 888
3 891 893 892
3 895 894 896
