ply
format ascii 1.0
element vertex 1431
property float x
property float y
property float z
element face 1138
property list uchar int vertex_indices
end_header
-2.0983 1.2917 3.3217
-2.0983 1.2917 3.3217
-2.1979 1.3917 3.3130
-2.1979 1.3917 3.3130
-2.1969 1.2917 3.3015
-2.0967 1.3917 3.3033
-2.0963 1.4917 3.2981
-2.1961 1.4917 3.2916
-2.0958 1.5917 3.2923
-2.1956 1.5917 3.2856
-1.9948 1.2917 3.2856
-1.9925 1.3917 3.2594
-1.9953 1.4917 3.2911
-2.1979 1.3917 3.3130
-2.2934 1.2917 3.2560
-2.1969 1.2917 3.3015
-2.2956 1.3917 3.2817
-2.0958 2.4917 3.2926
-2.0957 2.5917 3.2918
-2.0956 2.6918 3.2911
-2.0958 2.7917 3.2903
-2.0956 2.8917 3.2896
-1.7961 2.4917 3.3097
-1.7959 2.8917 3.3067
-2.0957 2.3918 3.2933
-1.9961 2.3917 3.2990
-2.0958 2.4917 3.2926
-1.9961 2.1917 3.3005
-1.8960 2.1918 3.3062
-1.9960 2.2917 3.2998
-1.7963 2.1918 3.3119
-1.7961 2.4917 3.3097
-0.1145 1.1917 3.5943
-0.1058 1.1282 3.4946
-0.2054 1.1917 3.4860
-0.1145 1.2917 3.5943
-0.2054 1.2917 3.4860
0.0932 1.0434 1.2024
-0.0064 1.0436 1.1937
0.1018 1.0224 1.1036
0.0021 1.0225 1.0950
0.1407 0.9917 1.2074
0.1555 0.9917 1.1083
0.3505 0.3917 0.5505
0.4497 0.3917 0.5641
0.4505 0.4917 0.5552
0.3498 0.4917 0.5593
0.5435 0.1917 0.6401
0.5522 0.1917 0.5405
0.5550 0.2917 0.5075
0.4472 0.1917 0.5932
0.4465 0.2917 0.6014
0.4497 0.3917 0.5641
0.5563 0.3917 0.4922
0.4857 0.4917 0.5347
0.4505 0.4917 0.5552
0.5551 0.4917 0.5069
0.6547 0.2917 0.5150
0.6546 0.3917 0.5167
0.6859 0.2917 0.5521
0.6842 0.3917 0.5519
0.4857 0.4917 0.5347
0.4708 0.5917 0.5334
0.4505 0.4917 0.5552
0.4516 0.5917 0.5430
0.5551 0.4917 0.5069
0.5540 0.5917 0.5189
0.4525 0.6917 0.5318
0.5540 0.6917 0.5189
0.1191 0.8917 0.9044
0.2101 0.7979 1.0127
0.1383 0.8917 1.0064
0.2190 0.7961 0.9131
0.2272 0.7943 0.8133
0.3351 0.7994 0.7224
0.2359 0.7926 0.7138
0.3007 0.8065 1.1209
0.2184 0.8917 1.1137
0.3093 0.8047 1.0212
0.2029 0.8917 1.0953
0.3185 0.8030 0.9217
0.3271 0.8013 0.8221
0.0194 0.8917 0.8957
0.1191 0.8917 0.9044
0.1127 0.9954 0.9772
0.0129 0.9960 0.9705
0.1018 1.0224 1.1036
0.0021 1.0225 1.0950
0.2014 0.9277 1.1123
0.1555 0.9917 1.1083
0.1383 0.8917 1.0064
0.2029 0.8917 1.0953
0.2184 0.8917 1.1137
0.2619 0.5337 0.4149
0.1965 0.5917 0.4092
0.2957 0.4917 0.3175
0.1933 0.5917 0.3086
0.1623 0.6733 0.4062
0.1710 0.6747 0.3066
0.2447 0.7908 0.6142
0.1523 0.6917 0.5220
0.2448 0.7890 0.5341
0.1537 0.7917 0.5059
0.1450 0.8033 0.6055
0.3268 0.4917 0.5209
0.2533 0.5592 0.5145
0.3498 0.4917 0.5593
0.4516 0.5917 0.5430
0.2480 0.5917 0.5758
0.3003 0.4917 0.4182
0.3351 0.7994 0.7224
0.2359 0.7926 0.7138
0.3526 0.7959 0.5231
0.3450 0.7978 0.6231
0.4505 0.4917 0.5552
0.4525 0.6917 0.5318
0.3529 0.7917 0.5232
0.4530 0.7917 0.5261
1.5917 3.1364 2.4375
1.4924 3.1343 2.4289
1.6264 3.1191 2.0390
1.5270 3.1170 2.0304
1.6364 2.8917 2.4414
1.6533 2.8917 2.0413
1.6375 3.0916 2.4415
1.6544 3.0917 2.0414
1.5229 3.1710 3.2345
1.4232 3.1689 3.2259
1.5568 3.1537 2.8360
1.4578 3.1516 2.8274
1.6025 2.8917 3.2414
1.6194 2.8917 2.8414
1.6019 3.1727 3.2414
1.6079 3.0916 3.1403
1.6206 3.0915 2.8415
1.5568 3.1537 2.8360
1.4578 3.1516 2.8274
1.5917 3.1364 2.4375
1.4924 3.1343 2.4289
1.6194 2.8917 2.8414
1.6364 2.8917 2.4414
1.6206 3.0915 2.8415
1.6375 3.0916 2.4415
1.4003 2.8917 3.4889
1.5006 2.8917 3.4946
1.4005 3.0919 3.4874
1.5049 3.1796 3.4322
1.4059 3.1775 3.4249
1.4232 3.1689 3.2259
1.5941 2.8917 3.4403
1.6025 2.8917 3.2414
1.5953 3.0915 3.4397
1.5994 3.0917 3.3410
1.6019 3.1727 3.2414
1.6341 2.4917 2.4412
1.6364 2.8917 2.4414
1.6510 2.4917 2.0411
1.6533 2.8917 2.0413
1.6318 2.0917 2.4410
1.6341 2.4917 2.4412
1.6487 2.0917 2.0409
1.6510 2.4917 2.0411
1.6172 2.4917 2.8412
1.6194 2.8917 2.8414
1.6341 2.4917 2.4412
1.6364 2.8917 2.4414
1.6149 2.0917 2.8410
1.6172 2.4917 2.8412
1.6318 2.0917 2.4410
1.6341 2.4917 2.4412
1.6126 1.6917 2.8408
1.6149 2.0917 2.8410
1.6295 1.6917 2.4408
1.6318 2.0917 2.4410
1.6104 1.2917 2.8406
1.6126 1.6917 2.8408
1.6273 1.2917 2.4406
1.6295 1.6917 2.4408
1.6273 1.2917 2.4406
1.6363 1.3918 2.2413
1.6399 1.2917 2.1417
1.6405 1.3919 2.1417
1.6369 1.4918 2.2411
1.6374 1.5917 2.2408
1.6295 1.6917 2.4408
1.6422 1.6917 2.1412
1.6416 1.5918 2.1414
1.6295 1.6917 2.4408
1.6422 1.6917 2.1412
1.6428 1.7918 2.1412
1.6434 1.8917 2.1408
1.6439 1.9917 2.1408
1.6318 2.0917 2.4410
1.6445 2.0917 2.1408
1.5980 2.0917 3.2410
1.6003 2.4917 3.2412
1.6149 2.0917 2.8410
1.6172 2.4917 2.8412
1.3993 1.2917 3.5008
1.4992 1.2917 3.5064
1.4997 1.6917 3.5035
1.3996 1.6917 3.4978
1.5850 1.2917 3.4410
1.5934 1.2919 3.2406
1.5873 1.6917 3.4404
1.5957 1.6917 3.2408
1.5934 1.2917 3.2406
1.5957 1.6917 3.2408
1.6104 1.2917 2.8406
1.6126 1.6917 2.8408
1.6003 2.4917 3.2412
1.6025 2.8917 3.2414
1.6172 2.4917 2.8412
1.6194 2.8917 2.8414
1.4001 2.4917 3.4918
1.5003 2.4917 3.4976
1.5006 2.8917 3.4946
1.4003 2.8917 3.4889
1.5918 2.4917 3.4408
1.6003 2.4917 3.2412
1.5941 2.8917 3.4403
1.6025 2.8917 3.2414
1.3998 2.0917 3.4948
1.4999 2.0917 3.5005
1.5003 2.4917 3.4976
1.4001 2.4917 3.4918
1.5895 2.0917 3.4407
1.6003 2.4917 3.2412
1.5980 2.0917 3.2410
1.5918 2.4917 3.4408
1.5957 1.6917 3.2408
1.5980 2.0917 3.2410
1.6126 1.6917 2.8408
1.6149 2.0917 2.8410
1.3996 1.6917 3.4978
1.4997 1.6917 3.5035
1.4999 2.0917 3.5005
1.3998 2.0917 3.4948
1.5873 1.6917 3.4404
1.5957 1.6917 3.2408
1.5895 2.0917 3.4407
1.5980 2.0917 3.2410
-2.7006 0.8917 3.3218
-2.6002 0.8917 3.3214
-2.6006 0.9917 3.3268
-2.6990 0.9917 3.3037
-2.6002 0.8917 3.3214
-2.4986 0.8917 3.3073
-2.6006 0.9917 3.3268
-2.5012 1.0917 3.3376
-2.6012 1.0917 3.3336
-2.3972 0.8917 3.2957
-2.3992 1.0917 3.3191
-2.2976 0.8917 3.3044
-2.2976 1.0917 3.3044
-2.2993 1.1917 3.3239
-2.3987 1.1917 3.3136
-2.1979 0.9487 3.3130
-2.1990 0.9917 3.3258
-2.1979 1.0457 3.3130
-2.1979 1.1917 3.3130
-2.2976 1.2165 3.3044
-2.0983 0.9917 3.3217
-2.1979 0.9487 3.3130
-2.1990 0.9917 3.3258
-2.0983 1.0917 3.3217
-2.1979 1.0457 3.3130
-2.1979 1.1917 3.3130
-2.0983 1.2917 3.3217
-2.2976 0.8917 3.3044
-2.1979 0.9487 3.3130
-2.1960 0.8917 3.2906
-2.1979 1.0457 3.3130
-2.2976 1.0917 3.3044
-2.1971 1.0917 3.3034
-2.1979 1.1917 3.3130
-2.1979 1.1917 3.3130
-2.2976 1.2165 3.3044
-2.1969 1.2917 3.3015
-2.2934 1.2917 3.2560
-2.0983 0.9917 3.3217
-2.1979 0.9487 3.3130
-2.1960 0.8917 3.2906
-2.0921 0.8917 3.2499
-2.0983 1.0917 3.3217
-2.1979 1.0457 3.3130
-2.1971 1.0917 3.3034
-2.1979 1.1917 3.3130
-2.0983 1.2917 3.3217
-2.1979 1.1917 3.3130
-2.1969 1.2917 3.3015
-1.9941 0.8917 3.2772
-1.9963 0.9917 3.3028
-1.9987 1.0917 3.3303
-1.9987 1.0917 3.3303
-2.0983 1.1917 3.3217
-1.9971 1.1917 3.3122
-2.0983 1.2917 3.3217
-1.9948 1.2917 3.2856
-0.1145 1.2917 3.5943
-0.1145 1.3917 3.5943
-0.1796 1.3917 3.4882
-0.2054 1.2917 3.4860
-0.1058 1.4736 3.4946
-0.0106 1.2917 3.5546
-0.0099 1.3917 3.5456
-1.7961 2.4917 3.3097
-1.3966 2.4917 3.3324
-1.3964 2.8917 3.3295
-1.7959 2.8917 3.3067
-1.7963 2.1918 3.3119
-1.6963 2.1918 3.3176
-1.7961 2.4917 3.3097
-1.5963 2.1918 3.3233
-1.4966 2.1918 3.3290
-1.3968 2.1918 3.3347
-1.3966 2.4917 3.3324
-1.3966 2.4917 3.3324
-0.9971 2.4917 3.3552
-0.9968 2.8917 3.3522
-1.3964 2.8917 3.3295
-1.3968 2.1918 3.3347
-1.2969 2.1918 3.3404
-1.3966 2.4917 3.3324
-1.1970 2.1917 3.3461
-1.0970 2.1918 3.3518
-0.9973 2.1918 3.3574
-0.9971 2.4917 3.3552
-0.9971 2.4917 3.3552
-0.5976 2.4917 3.3780
-0.5973 2.8917 3.3750
-0.9968 2.8917 3.3522
-0.9973 2.0917 3.3582
-0.5978 2.0917 3.3810
-0.5976 2.4917 3.3780
-0.9971 2.4917 3.3552
-0.7979 1.6917 3.3725
-0.6969 1.6917 3.3783
-0.6969 1.7920 3.3775
-0.7978 1.7917 3.3718
-0.7977 1.8917 3.3711
-0.7975 1.9918 3.3703
-0.7974 2.0917 3.3696
-0.5896 1.6917 3.2858
-0.5896 1.7917 3.2859
-0.5980 1.8745 3.3826
-0.5978 2.0917 3.3810
-0.7983 1.2917 3.3755
-0.7982 1.3917 3.3747
-0.7980 1.4917 3.3740
-0.7979 1.5917 3.3733
-0.6969 1.6917 3.3783
-0.7979 1.6917 3.3725
-0.5983 1.2917 3.3869
-0.5981 1.5917 3.3847
-0.5953 1.6240 3.3518
-0.5896 1.6917 3.2858
-0.5983 1.2917 3.3869
-0.5981 1.5917 3.3847
-0.5953 1.6240 3.3518
-0.4896 1.6917 3.2908
-0.5896 1.6917 3.2858
-0.3975 1.6917 3.3954
-0.2990 1.2917 3.4040
-0.1987 1.4917 3.4082
-0.1985 1.6917 3.4067
-0.2054 1.2917 3.4860
-0.2023 1.3917 3.4498
-0.5978 2.0917 3.3810
-0.1983 2.0917 3.4037
-0.1980 2.4917 3.4008
-0.5976 2.4917 3.3780
-0.5976 2.4917 3.3780
-0.1980 2.4917 3.4008
-0.1978 2.8917 3.3978
-0.5973 2.8917 3.3750
-0.5896 1.6917 3.2858
-0.4896 1.6917 3.2908
-0.4898 1.7917 3.2928
-0.5896 1.7917 3.2859
-0.5980 1.8745 3.3826
-0.5978 2.0917 3.3810
-0.3975 1.6917 3.3954
-0.3975 1.8428 3.3942
-0.1985 1.6917 3.4067
-0.1983 2.0917 3.4037
1.5833 0.3917 2.5371
1.5833 0.4917 2.5371
1.6497 0.3917 2.4425
1.6535 0.4917 2.4428
1.6098 0.2917 2.4390
1.6497 0.3917 2.4425
1.6402 0.2917 2.3413
1.6538 0.2917 2.2421
1.6711 0.3917 2.2436
1.7176 0.3633 2.1473
1.6179 0.3256 2.1386
1.6139 0.2917 2.1846
1.7147 0.3917 2.1799
1.6535 0.4917 2.4428
1.6563 0.4917 2.3427
1.6660 0.4917 2.2432
1.7176 0.4917 2.1473
1.5533 0.8917 2.6349
1.5660 0.8917 2.7364
1.5488 0.8917 2.5341
1.5832 0.9302 2.5364
1.5921 0.9206 2.4375
1.4924 0.9182 2.4289
1.4881 0.8917 2.4782
1.5574 0.8917 2.8360
1.6087 0.9918 2.8405
1.6256 0.9918 2.4404
1.6104 1.2917 2.8406
1.6273 1.2917 2.4406
1.5921 0.9206 2.4375
1.4924 0.9182 2.4289
1.6007 0.9109 2.3384
1.5159 0.8917 2.1577
1.6025 0.8917 2.3162
1.6256 0.9918 2.4404
1.6334 0.8917 2.2419
1.6340 0.9919 2.2418
1.6346 1.0918 2.2412
1.6351 1.1918 2.2412
1.6273 1.2917 2.4406
1.6393 1.1919 2.1418
1.6399 1.2917 2.1417
1.5920 0.6515 2.4375
1.4924 0.6263 2.4289
1.6006 0.6917 2.3379
1.5010 0.6811 2.3292
1.5029 0.6917 2.3080
1.6773 0.7917 2.2442
1.5051 0.7917 2.2820
1.6025 0.8917 2.3162
1.5159 0.8917 2.1577
1.6535 0.4917 2.4428
1.6441 0.5917 2.4420
1.6563 0.4917 2.3427
1.6660 0.4917 2.2432
1.6670 0.5917 2.2433
1.7176 0.4917 2.1473
1.6848 0.5917 2.1444
1.6598 0.6917 2.2426
1.6334 0.8917 2.2419
1.6912 0.7917 2.1450
1.6705 0.8917 2.1432
1.5833 0.4917 2.5371
1.6535 0.4917 2.4428
1.6441 0.5917 2.4420
1.5869 0.5917 2.4965
1.5920 0.6515 2.4375
1.4552 0.9917 3.4294
1.5268 1.0917 3.4549
1.3991 0.9918 3.5030
1.4570 0.9917 3.3292
1.5141 1.0142 3.3341
1.4719 0.9917 3.2301
1.5228 1.0123 3.2345
1.4992 1.2917 3.5064
1.3993 1.2917 3.5008
1.5923 1.0919 3.2405
1.5850 1.2917 3.4410
1.5934 1.2917 3.2406
1.4719 0.9917 3.2301
1.4232 0.9802 3.2259
1.4318 0.9643 3.1262
1.4357 0.8917 3.0811
1.5363 0.8917 3.0784
1.5228 1.0123 3.2345
1.5962 1.0129 3.1376
1.5710 0.8917 3.0379
1.6002 0.9918 3.0411
1.5743 0.8917 2.9378
1.6044 0.9918 2.9413
1.5574 0.8917 2.8360
1.6087 0.9918 2.8405
1.5923 1.0919 3.2405
1.6104 1.2917 2.8406
1.5934 1.2917 3.2406
-0.5693 3.1259 3.0529
-0.9678 3.1173 3.0183
-0.5347 3.1086 2.6544
-0.9332 3.1000 2.6198
-1.1980 3.0762 2.1953
-1.1890 3.0719 2.0954
-1.1804 3.0676 1.9957
-1.1715 3.0633 1.8967
-1.0631 3.0611 1.8055
-1.1629 3.0590 1.7968
-0.8986 3.0827 2.2213
-0.8641 3.0654 1.8228
-0.5347 3.1086 2.6544
-0.9332 3.1000 2.6198
-0.5001 3.0913 2.2559
-0.8986 3.0827 2.2213
-0.5001 3.0913 2.2559
-0.8986 3.0827 2.2213
-0.4656 3.0740 1.8574
-0.8641 3.0654 1.8228
-0.1016 3.0999 2.2905
-0.5001 3.0913 2.2559
-0.0670 3.0826 1.8920
-0.4656 3.0740 1.8574
-0.1362 3.1172 2.6890
-0.5347 3.1086 2.6544
-0.1016 3.0999 2.2905
-0.5001 3.0913 2.2559
-0.1708 3.1345 3.0875
-0.5693 3.1259 3.0529
-0.1362 3.1172 2.6890
-0.5347 3.1086 2.6544
-1.7959 2.8917 3.3067
-1.6954 3.0919 3.3109
-1.7958 3.0919 3.3052
-1.6912 3.1451 3.2566
-1.7908 3.1401 3.2480
-1.5829 3.1917 3.1656
-1.6825 3.1674 3.1570
-1.3962 3.0919 3.3280
-1.3923 3.1315 3.2826
-1.4824 3.1153 3.1765
-1.3964 2.8917 3.3295
-1.3838 3.1174 3.1846
-1.3751 3.1131 3.0850
-1.4738 3.1110 3.0767
-1.3964 2.8917 3.3295
-1.3962 3.0919 3.3280
-1.1930 3.1274 3.2999
-1.3923 3.1315 3.2826
-1.2833 3.1196 3.1933
-1.3838 3.1174 3.1846
-1.3663 3.1087 2.9837
-1.1967 2.8917 3.3409
-0.9938 3.1207 3.3172
-0.9853 3.1260 3.2190
-0.9968 2.8917 3.3522
-0.9968 2.9917 3.3515
-0.9967 3.0919 3.3508
-0.9678 3.1173 3.0183
-0.9968 2.8917 3.3522
-0.9967 3.0919 3.3508
-0.9938 3.1207 3.3172
-0.9853 3.1260 3.2190
-0.9678 3.1173 3.0183
-0.5972 3.1097 3.3734
-0.6949 3.0917 3.3431
-0.5867 3.1345 3.2527
-0.5973 2.8917 3.3750
-0.5693 3.1259 3.0529
-1.1154 3.0870 2.4027
-1.2152 3.0849 2.3936
-1.2067 3.0805 2.2937
-1.1980 3.0762 2.1953
-1.0160 3.0891 2.4107
-1.0330 3.0978 2.6111
-0.9332 3.1000 2.6198
-1.0247 3.0935 2.5104
-0.8986 3.0827 2.2213
-1.2660 3.1109 2.9924
-1.1582 3.1087 2.9020
-1.2578 3.1066 2.8935
-1.1331 3.0957 2.6024
-1.1391 3.0989 2.6770
-1.1497 3.1043 2.8019
-1.1411 3.1000 2.7022
-0.9332 3.1000 2.6198
-0.9678 3.1173 3.0183
-0.5973 2.8917 3.3750
-0.1976 3.0918 3.3963
-0.5972 3.1097 3.3734
-0.5867 3.1345 3.2527
-0.5693 3.1259 3.0529
-0.1882 3.1432 3.2877
-0.1978 2.8917 3.3978
-0.1708 3.1345 3.0875
-0.2535 0.9917 1.1732
-0.2057 1.0440 1.1764
-0.2380 0.9917 1.0741
-0.1971 1.0229 1.0777
-0.1060 1.0438 1.1851
-0.0064 1.0436 1.1937
0.0021 1.0225 1.0950
-0.6310 0.2917 0.4377
-0.6200 0.3917 0.4387
-0.5409 0.2917 0.4128
-0.5414 0.4917 0.4189
-0.6123 0.4917 0.4394
-0.4416 0.2917 0.4254
-0.4429 0.3917 0.4406
-0.4441 0.4917 0.4540
-0.4441 0.4917 0.4540
-0.3499 0.5917 0.5256
-0.5414 0.4917 0.4189
-0.5420 0.5917 0.4257
-0.5437 0.6917 0.4453
-0.4459 0.6917 0.4746
-0.4614 0.7917 0.6532
-0.4527 0.7917 0.5536
-0.3480 0.4917 0.5037
-0.3470 0.6917 0.4918
-0.3618 0.7917 0.6619
-0.3531 0.7917 0.5622
-0.3877 0.9262 0.9608
-0.4448 0.9917 0.9558
-0.3791 0.9675 0.8611
-0.4069 0.9917 0.8587
-0.4700 0.8917 0.7529
-0.3743 0.8917 0.8066
-0.4752 0.9917 0.8129
-0.4700 0.7917 0.7529
-0.4614 0.7917 0.6532
-0.4700 0.8917 0.7529
-0.3704 0.7917 0.7615
-0.3618 0.7917 0.6619
-0.3743 0.8917 0.8066
-0.3420 0.8917 1.0651
-0.2967 0.9437 1.0690
-0.3584 0.8917 0.9633
-0.3877 0.9262 0.9608
-0.3903 0.8917 0.9900
-0.2928 0.8917 1.0237
-0.3568 0.8917 0.8631
-0.3791 0.9675 0.8611
-0.3743 0.8917 0.8066
-0.2380 0.9917 1.0741
-0.2161 0.8917 0.9756
-0.1798 0.8917 0.8784
-0.1971 1.0229 1.0777
0.0194 0.8917 0.8957
-0.0868 0.9965 0.9631
0.0129 0.9960 0.9705
0.0021 1.0225 1.0950
-0.2708 0.7917 0.7701
-0.3704 0.7917 0.7615
-0.2621 0.7917 0.6705
-0.3618 0.7917 0.6619
-0.3420 0.8917 1.0651
-0.3964 0.8016 1.0604
-0.2881 0.7973 0.9694
-0.3584 0.8917 0.9633
-0.2928 0.8917 1.0237
-0.3903 0.8917 0.9900
-0.2794 0.8008 0.8698
-0.3568 0.8917 0.8631
-0.3743 0.8917 0.8066
-0.2161 0.8917 0.9756
-0.1798 0.8917 0.8784
-0.3166 0.4917 0.4650
-0.2751 0.5917 0.4686
-0.3480 0.4917 0.5037
-0.3499 0.5917 0.5256
-0.2448 0.6396 0.4713
-0.2469 0.6917 0.4944
-0.3470 0.6917 0.4918
-0.2789 0.5917 0.3679
-0.2362 0.6151 0.3716
-0.2621 0.7917 0.6705
-0.3618 0.7917 0.6619
-0.2535 0.7917 0.5709
-0.3531 0.7917 0.5622
-0.1452 0.5917 0.4799
-0.1465 0.6917 0.4943
-0.0515 0.5917 0.5570
-0.0471 0.6917 0.5056
0.0481 0.5917 0.5660
0.0525 0.6917 0.5149
1.0853 0.9183 2.4925
0.9854 0.9160 2.4839
1.0939 0.9087 2.3943
0.9947 0.9064 2.3857
0.5997 0.3918 3.4619
0.5001 0.4917 3.4555
0.5997 0.4917 3.4611
0.5005 0.3919 3.4562
1.1671 0.9400 2.6988
1.0682 0.9375 2.6893
1.1757 0.9302 2.5992
1.1848 0.9208 2.5026
1.0939 0.9087 2.3943
1.2844 0.9231 2.5107
1.3839 0.9254 2.5187
1.4273 0.8917 2.6240
1.3754 0.9097 2.6195
1.4460 0.8917 2.5252
1.4924 0.9182 2.4289
1.4881 0.8917 2.4782
1.1047 0.6917 2.2691
1.2042 0.6917 2.2789
1.1049 0.7917 2.2672
1.2038 0.8993 2.2822
1.1090 0.8917 2.2199
1.3045 0.6917 2.2806
1.4037 0.9032 2.2906
1.4045 0.6917 2.2851
1.4048 0.7917 2.2809
1.5029 0.6917 2.3080
1.5051 0.7917 2.2820
1.5159 0.8917 2.1577
0.8585 0.8917 2.3738
0.8952 0.9040 2.3770
0.8974 0.8917 2.2768
0.9033 0.8943 2.2777
0.9044 0.8930 2.2642
1.0042 0.8950 2.2694
1.0939 0.9087 2.3943
1.1090 0.8917 2.2199
0.8534 0.7917 2.3734
0.8585 0.8917 2.3738
0.8937 0.7917 2.2765
0.8974 0.8917 2.2768
0.9077 0.6917 2.2260
1.0051 0.6917 2.2605
1.0053 0.7917 2.2583
0.9052 0.7917 2.2555
1.0042 0.8950 2.2694
0.9044 0.8930 2.2642
1.1047 0.6917 2.2691
1.1049 0.7917 2.2672
1.1090 0.8917 2.2199
1.0939 0.9087 2.3943
1.1090 0.8917 2.2199
1.2038 0.8993 2.2822
1.3038 0.9012 2.2859
1.4037 0.9032 2.2906
1.4924 0.9182 2.4289
1.5010 0.9085 2.3295
1.5159 0.8917 2.1577
0.6000 0.8917 3.4582
0.6001 0.9918 3.4574
0.6999 0.9917 3.4631
0.8000 1.0918 3.4681
0.7004 1.0918 3.4624
0.8415 1.0917 3.4704
0.8991 1.0916 3.4737
0.9992 0.8917 3.4809
0.9996 1.0915 3.4795
-0.1058 1.1282 3.4946
-0.2054 1.1917 3.4860
-0.1989 1.0915 3.4111
-0.1023 1.0917 3.4542
0.2870 0.8917 3.4284
0.2567 0.9917 3.4257
0.3004 0.8917 3.4411
0.3003 0.9917 3.4403
0.2283 0.8917 3.3229
0.2104 0.9336 3.3213
0.2050 0.9917 3.3830
0.2121 0.8917 3.3013
0.4005 0.9918 3.4461
0.6000 0.8917 3.4582
0.6001 0.9918 3.4574
0.3006 0.7918 3.4419
0.4000 0.7917 3.4475
0.6000 0.8917 3.4582
0.3004 0.8917 3.4411
0.4004 0.5918 3.4490
0.5001 0.5918 3.4547
0.4001 0.6917 3.4483
0.5001 0.4917 3.4555
0.5997 0.4917 3.4611
1.0064 0.1917 3.4016
1.1070 0.1917 3.3992
1.1070 0.2917 3.3992
1.0056 0.2917 3.4106
0.9992 0.3923 3.4847
1.1070 0.4917 3.3992
1.0057 0.4917 3.4101
1.2066 0.3917 3.4078
1.2066 0.4917 3.4078
0.5997 0.4917 3.4611
0.8999 0.4917 3.4783
0.6000 0.8917 3.4582
0.8999 0.5919 3.4775
0.8998 0.6918 3.4768
0.9000 0.8917 3.4753
1.0057 0.4917 3.4101
1.0052 0.5917 3.4152
1.0055 0.6917 3.4126
1.0074 0.7917 3.3905
0.9995 0.8917 3.4809
0.5996 0.2918 3.4626
0.7994 0.2917 3.4740
0.8999 0.4917 3.4783
0.5997 0.4917 3.4611
0.9005 0.2921 3.4798
1.0056 0.2917 3.4106
0.9992 0.3923 3.4847
1.0057 0.4917 3.4101
0.9995 0.8917 3.4809
1.3990 0.8917 3.5037
1.3993 1.2917 3.5008
0.9998 1.2917 3.4780
1.0057 0.4917 3.4101
1.1070 0.4917 3.3992
1.1070 0.5917 3.3992
1.0052 0.5917 3.4152
1.0055 0.6917 3.4126
1.1070 0.7917 3.3992
1.0074 0.7917 3.3905
1.0990 0.8916 3.4866
0.9995 0.8917 3.4809
1.2066 0.4917 3.4078
1.4924 3.1343 2.4289
1.0939 3.1257 2.3943
1.5270 3.1170 2.0304
1.1285 3.1084 1.9958
0.6948 3.1171 2.3596
0.6608 3.1344 2.7582
0.8929 3.1213 2.3768
0.9849 3.1278 2.4836
0.9942 3.0917 2.3856
1.0593 3.1430 2.7928
1.0939 3.1257 2.3943
0.9936 3.1235 2.3856
0.6608 3.1344 2.7582
0.2623 3.1258 2.7236
0.6954 3.1171 2.3597
0.2969 3.1085 2.3251
0.2965 3.1085 2.3250
0.3142 3.0998 2.1255
0.4223 3.0976 2.0346
0.4310 3.0933 1.9352
0.3315 3.0912 1.9266
0.4310 3.0933 1.9352
0.5219 3.0998 2.0431
0.6298 3.0976 1.9525
0.7140 2.8917 2.0602
0.7213 2.9093 2.0608
0.7202 2.8917 2.0736
0.6969 2.8917 1.9583
0.7300 2.9656 1.9612
0.7214 3.1040 2.0595
0.7300 3.0227 1.9612
0.6954 3.1171 2.3597
0.2969 3.1085 2.3251
-0.1016 3.0999 2.2905
0.3315 3.0912 1.9266
-0.0670 3.0826 1.8920
0.7693 2.8917 2.1653
0.8123 2.9761 2.1691
0.8085 2.8917 2.2130
0.7821 2.9917 2.0661
0.7213 2.9093 2.0608
0.7202 2.8917 2.0736
0.8123 3.0102 2.1691
0.8296 2.9568 1.9698
0.7300 2.9656 1.9612
0.8266 2.9917 2.0043
0.6948 3.1171 2.3596
0.9019 3.1169 2.2739
0.7128 3.1084 2.1592
0.7214 3.1040 2.0595
0.8662 2.8917 2.1737
0.8438 2.8917 2.0714
0.8563 2.9917 2.0725
0.8490 2.8917 1.9715
0.8929 3.1213 2.3768
0.9203 3.1084 2.0773
0.9206 3.0917 2.0781
0.9942 3.0917 2.3856
1.0024 3.1191 2.2848
0.9289 3.1041 1.9784
1.0939 3.1257 2.3943
0.9936 3.1235 2.3856
1.1285 3.1084 1.9958
0.2277 3.1431 3.1221
-0.1708 3.1345 3.0875
0.2623 3.1258 2.7236
-0.1362 3.1172 2.6890
0.6262 3.1517 3.1567
0.2277 3.1431 3.1221
0.6608 3.1344 2.7582
0.2623 3.1258 2.7236
1.4232 3.1689 3.2259
1.0247 3.1603 3.1913
1.4578 3.1516 2.8274
1.0593 3.1430 2.7928
1.4578 3.1516 2.8274
1.0593 3.1430 2.7928
1.4924 3.1343 2.4289
1.0939 3.1257 2.3943
0.2623 3.1258 2.7236
-0.1362 3.1172 2.6890
0.2969 3.1085 2.3251
-0.1016 3.0999 2.2905
1.0247 3.1603 3.1913
0.6262 3.1517 3.1567
1.0593 3.1430 2.7928
0.6608 3.1344 2.7582
-0.1978 2.8917 3.3978
0.2019 3.0919 3.4191
-0.1976 3.0918 3.3963
-0.1882 3.1432 3.2877
-0.1708 3.1345 3.0875
0.2103 3.1517 3.3217
0.2018 2.8917 3.4206
0.2277 3.1431 3.1221
0.2018 2.8917 3.4206
0.2019 3.0919 3.4191
0.2103 3.1517 3.3217
0.2277 3.1431 3.1221
0.6014 3.0919 3.4418
0.6088 3.1603 3.3563
0.6013 2.8917 3.4433
0.6262 3.1517 3.1567
1.0008 2.8917 3.4661
1.1515 3.0919 3.4732
1.0009 3.0919 3.4646
1.0074 3.1689 3.3904
1.0247 3.1603 3.1913
1.4005 3.0919 3.4874
1.4059 3.1775 3.4249
1.4003 2.8917 3.4889
1.4232 3.1689 3.2259
0.6013 2.8917 3.4433
0.6014 3.0919 3.4418
0.6088 3.1603 3.3563
0.6262 3.1517 3.1567
1.0009 3.0919 3.4646
1.0074 3.1689 3.3904
1.0008 2.8917 3.4661
1.0247 3.1603 3.1913
0.8123 2.8647 2.1691
0.7693 2.8917 2.1653
0.8085 2.8917 2.2130
0.8438 2.8917 2.0714
0.7213 2.8798 2.0608
0.7202 2.8917 2.0736
0.8296 2.8535 1.9698
0.7300 2.7917 1.9612
0.8662 2.8917 2.1737
0.8490 2.8917 1.9715
-0.1403 1.7919 3.4093
-0.1431 1.8919 3.4084
-0.1985 1.7917 3.4060
-0.1984 1.8918 3.4052
1.0003 2.0917 3.4720
1.3998 2.0917 3.4948
1.4001 2.4917 3.4918
1.0006 2.4917 3.4691
1.0006 2.4917 3.4691
1.4001 2.4917 3.4918
1.4003 2.8917 3.4889
1.0008 2.8917 3.4661
0.9998 1.2917 3.4780
1.3993 1.2917 3.5008
1.3996 1.6917 3.4978
1.0000 1.6917 3.4750
-0.1796 1.3917 3.4882
-0.2054 1.2917 3.4860
-0.1987 1.4917 3.4082
-0.1058 1.4736 3.4946
-0.1025 1.4917 3.4571
-0.1983 2.0917 3.4037
-0.0984 2.0917 3.4094
-0.0984 2.1917 3.4087
-0.1980 2.4917 3.4008
0.0015 2.1917 3.4144
0.1017 2.1918 3.4201
0.2013 2.1918 3.4258
0.2015 2.4917 3.4235
-0.1980 2.4917 3.4008
0.2015 2.4917 3.4235
0.2018 2.8917 3.4206
-0.1978 2.8917 3.3978
0.2013 2.1918 3.4258
0.3012 2.1918 3.4315
0.2015 2.4917 3.4235
0.4007 2.1916 3.4371
0.5008 2.1917 3.4428
0.6008 2.1917 3.4485
0.6010 2.4917 3.4463
0.2015 2.4917 3.4235
0.6010 2.4917 3.4463
0.6013 2.8917 3.4433
0.2018 2.8917 3.4206
0.6010 2.4917 3.4463
1.0006 2.4917 3.4691
1.0008 2.8917 3.4661
0.6013 2.8917 3.4433
0.6008 2.1917 3.4485
0.6010 2.4917 3.4463
1.0004 2.1916 3.4713
1.0006 2.4917 3.4691
1.0000 1.6917 3.4750
1.3996 1.6917 3.4978
1.3998 2.0917 3.4948
1.0003 2.0917 3.4720
-1.0761 0.9917 3.1093
-1.1757 0.9917 3.1006
-1.1727 0.8917 3.0656
-1.0746 0.8917 3.0915
-1.0848 1.0252 3.2089
-1.1844 1.0253 3.2002
-0.9765 0.8917 3.1179
-0.9793 0.9917 3.1505
-0.9938 1.0243 3.3172
-1.0934 1.0220 3.3085
-0.9851 1.0049 3.2175
-0.9765 0.8917 3.1179
-1.0675 0.7917 3.0096
-0.9734 0.7917 3.0821
-1.0746 0.8917 3.0915
-0.8769 0.8917 3.1266
-0.9765 0.8917 3.1179
-0.9734 0.7917 3.0821
-0.8751 0.7917 3.1060
-0.7772 0.8917 3.1352
-0.7761 0.7917 3.1226
-0.6776 0.8917 3.1439
-0.6764 0.7917 3.1294
-0.5866 0.7917 3.2521
-0.5780 0.7044 3.1525
-0.6620 0.7917 3.1452
-0.6108 0.7917 3.3504
-0.5953 0.8917 3.3518
-0.5987 0.7918 3.3906
-0.6086 0.8917 3.2502
-0.9765 0.8917 3.1179
-0.9793 0.9917 3.1505
-0.8942 1.0307 3.3258
-0.9938 1.0243 3.3172
-0.7796 0.9917 3.1627
-0.7945 1.0183 3.3345
-0.8505 1.0917 3.4300
-0.8536 1.1917 3.4297
-0.7985 1.0917 3.3770
-0.8626 1.2917 3.4289
-0.7983 1.2917 3.3755
-0.6776 0.8917 3.1439
-0.6841 0.9917 3.2188
-0.5953 0.9917 3.3518
-0.5985 1.0916 3.3884
-0.5953 0.8917 3.3518
-0.6086 0.8917 3.2502
-0.5983 1.2917 3.3869
-0.5519 0.6917 3.3555
-0.5953 0.7543 3.3518
-0.4994 0.6916 3.3970
-0.5987 0.7918 3.3906
-0.5519 0.6917 3.2551
-0.5866 0.7917 3.2521
-0.4995 0.8917 3.3955
-0.5953 0.8917 3.3518
-0.3995 0.6916 3.4027
-0.2995 0.6916 3.4084
-0.2996 0.7916 3.4076
-0.1991 0.7918 3.4134
-0.1991 0.8917 3.4126
-0.5953 0.8917 3.3518
-0.4995 0.8917 3.3955
-0.5953 0.9917 3.3518
-0.5985 1.0916 3.3884
-0.5983 1.2917 3.3869
-0.1989 1.0915 3.4111
-0.2990 1.2917 3.4040
-0.1991 0.8917 3.4126
-0.2054 1.1917 3.4860
-0.2054 1.2917 3.4860
0.1710 0.6747 0.3066
0.0713 0.6505 0.2980
0.1796 0.6740 0.2070
0.1389 0.6917 0.2035
0.0766 0.6917 0.2376
0.0800 0.7068 0.1983
0.2706 0.5170 0.3153
0.1933 0.5917 0.3086
0.2784 0.5917 0.2247
0.2208 0.6917 0.2106
0.2785 0.6917 0.2238
0.2792 0.7000 0.2156
0.2578 2.8716 1.6190
0.1822 2.8917 1.6125
0.2549 2.8917 1.6516
0.2632 2.8917 1.5567
0.3574 2.8608 1.6277
0.3519 2.8917 1.6914
0.3606 2.8917 1.5910
0.8642 2.8110 1.5713
0.7645 2.7917 1.5627
0.8335 2.8917 1.4683
0.7678 2.8917 1.5257
0.8768 2.8917 1.4254
0.9871 2.7917 1.3812
0.9638 2.8646 1.5800
0.9724 2.8486 1.4803
0.9299 2.8917 1.3763
0.9844 2.8917 1.3424
0.9973 2.8917 1.5829
1.0721 2.8701 1.4890
1.0697 2.8917 1.5162
1.0807 2.8557 1.3894
1.0894 2.7917 1.2897
1.0677 2.8917 1.2879
1.0907 2.8917 1.2745
0.6649 2.7735 1.5540
0.6402 2.7917 1.5519
0.6649 2.8064 1.5540
0.7645 2.7917 1.5627
0.7645 2.7917 1.5627
0.7326 2.8917 1.5599
0.7678 2.8917 1.5257
0.7545 2.7917 1.6787
0.7559 2.7841 1.6623
0.7645 2.7917 1.5627
0.8296 2.8535 1.9698
0.7300 2.7917 1.9612
0.7836 2.8917 1.8654
0.7386 2.7917 1.8615
0.8319 2.8917 1.9431
0.7939 2.8917 1.7660
0.7473 2.8288 1.7619
0.8517 2.8917 1.7146
0.8642 2.8110 1.5713
0.8490 2.8917 1.9715
0.8954 2.8917 1.6744
0.9638 2.8646 1.5800
0.9611 2.8917 1.6107
0.9973 2.8917 1.5829
0.4570 2.8491 1.6363
0.3574 2.8608 1.6277
0.4484 2.8917 1.7360
0.3519 2.8917 1.6914
0.4593 2.8917 1.6100
0.3606 2.8917 1.5910
0.5461 2.8917 1.7666
0.6071 2.7917 1.6494
0.5591 2.8917 1.6164
0.6464 2.7917 1.7679
0.6649 2.7735 1.5540
0.6402 2.7917 1.5519
0.6410 2.8917 1.8301
0.6649 2.8064 1.5540
0.6605 2.8917 1.6045
0.7559 2.7841 1.6623
0.7645 2.7917 1.5627
0.7300 2.7917 1.9612
0.6969 2.8917 1.9583
0.7386 2.7917 1.8615
0.6691 2.8917 1.8555
0.7473 2.8288 1.7619
0.7326 2.8917 1.5599
-1.0063 1.1916 3.4615
-0.9061 1.1918 3.4650
-0.9055 1.2917 3.4647
-1.0063 1.2917 3.4612
-0.8536 1.1917 3.4297
-0.8626 1.2917 3.4289
-1.4067 1.0917 3.4481
-1.3067 1.0917 3.4515
-1.2066 1.0917 3.4550
-1.4066 1.2917 3.4475
-1.1067 1.0917 3.4584
-1.0063 1.0917 3.4619
-1.0063 1.2917 3.4612
-1.5062 1.1918 3.4443
-1.4066 1.1918 3.4478
-1.4066 1.2917 3.4475
-1.5068 1.2917 3.4440
1.2204 2.9917 1.4015
1.1803 2.9619 1.3980
1.1765 2.9917 1.4418
1.1840 2.9917 1.3565
1.2800 3.0735 1.4067
1.2886 3.0783 1.3070
1.1890 3.0917 1.2984
1.3709 3.0917 1.5149
1.2713 3.0700 1.5063
1.2627 3.0917 1.6059
1.3796 3.0917 1.4153
1.3274 3.0917 1.3104
1.4791 3.0889 1.4236
1.3797 3.0867 1.4155
1.4824 3.0917 1.3871
1.3622 3.0954 1.6146
1.5788 3.0910 1.4326
1.5616 3.0997 1.6319
0.6006 3.0609 1.1469
0.7082 3.0917 1.0559
0.7991 3.0652 1.1642
0.8077 3.0609 1.0659
0.7991 3.0652 1.1642
0.8077 3.0609 1.0659
0.8997 3.0674 1.1729
0.9074 3.0917 1.0732
1.2627 3.0917 1.6059
1.1630 3.0549 1.5973
1.1544 3.0917 1.6969
1.1285 3.1084 1.9958
1.2452 3.1019 1.8047
1.1458 3.0997 1.7962
1.2626 3.0932 1.6059
1.5270 3.1170 2.0304
1.5616 3.0997 1.6319
0.8642 2.9751 1.5713
0.7645 2.9295 1.5627
0.8335 2.8917 1.4683
0.8728 2.9331 1.4717
0.7678 2.8917 1.5257
0.8768 2.8917 1.4254
0.8633 3.0846 1.5712
0.7645 3.0825 1.5627
0.7991 3.0652 1.1642
0.8997 3.0674 1.1729
0.8981 2.9917 1.5743
0.9724 2.9917 1.4803
0.9299 2.8917 1.3763
0.9844 2.8917 1.3424
0.9726 3.0825 1.4808
0.9973 2.8917 1.5829
1.0105 2.9917 1.5840
1.0697 2.8917 1.5162
1.0680 2.9917 1.5364
1.0778 2.9917 1.4236
1.0677 2.8917 1.2879
1.0894 2.9224 1.2897
1.0907 2.8917 1.2745
1.0620 3.0889 1.5885
1.0809 3.0803 1.3899
1.0896 3.0760 1.2904
1.0984 3.0717 1.1901
1.0956 2.8917 1.4910
1.1140 2.9917 1.4926
1.1289 2.8917 1.3935
1.1803 2.9619 1.3980
1.1132 2.9917 1.3922
1.1765 2.9917 1.4418
1.1325 2.8917 1.2935
1.1840 2.9917 1.3565
1.0807 3.0917 1.3894
1.1890 3.0917 1.2984
1.1889 3.0781 1.2990
0.7939 2.8917 1.7660
0.8046 2.9917 1.7669
0.8517 2.8917 1.7146
0.7559 2.9630 1.6623
0.7521 2.9917 1.7065
0.8642 2.9751 1.5713
0.7645 2.9295 1.5627
0.8458 3.0931 1.7679
0.8548 3.0889 1.6692
0.7560 3.0867 1.6607
0.8633 3.0846 1.5712
0.7645 3.0825 1.5627
0.8490 2.8917 1.9715
0.8296 2.9568 1.9698
0.8319 2.8917 1.9431
0.8954 2.8917 1.6744
0.8981 2.9917 1.5743
0.9611 2.8917 1.6107
0.9601 2.9917 1.6228
0.9541 3.0910 1.6769
0.9973 2.8917 1.5829
1.0105 2.9917 1.5840
1.0548 3.0610 1.6882
1.0620 3.0889 1.5885
1.1544 3.0917 1.6969
1.0461 3.0917 1.7879
1.1630 3.0549 1.5973
1.1285 3.1084 1.9958
1.0285 3.1062 1.9871
1.1371 3.1040 1.8956
1.0373 3.1019 1.8870
0.3660 3.0739 1.5281
0.4014 3.0566 1.1296
0.4921 3.0631 1.2391
0.3919 3.0610 1.2305
0.7326 2.8917 1.5599
0.7645 2.9295 1.5627
0.7678 2.8917 1.5257
0.7645 3.0825 1.5627
0.7991 3.0652 1.1642
-0.0325 3.0653 1.4935
0.0934 3.0545 1.2040
-0.0066 3.0524 1.1956
0.1934 3.0567 1.2135
0.3919 3.0610 1.2305
0.3660 3.0739 1.5281
0.3487 2.9337 1.7273
0.3451 2.9917 1.7693
0.4570 2.9399 1.6363
0.3574 2.9483 1.6277
0.3519 2.8917 1.6914
0.4484 2.8917 1.7360
0.4568 3.0803 1.6358
0.3534 2.9917 1.6733
0.3606 2.8917 1.5910
0.4593 2.8917 1.6100
0.4397 3.0328 1.8356
0.3402 3.0868 1.8259
0.6298 3.0976 1.9525
0.3314 3.0912 1.9266
0.3575 3.0782 1.6268
0.7645 3.0825 1.5627
0.3660 3.0739 1.5281
0.5480 2.9917 1.7446
0.5461 2.8917 1.7666
0.5591 2.8917 1.6164
0.5565 3.0825 1.6445
0.6410 2.8917 1.8301
0.6450 2.9917 1.7841
0.6563 2.9917 1.6536
0.6605 2.8917 1.6045
0.6390 3.0194 1.8529
0.7559 2.9630 1.6623
0.7521 2.9917 1.7065
0.7326 2.8917 1.5599
0.7645 2.9295 1.5627
0.7560 3.0867 1.6607
-0.0670 3.0826 1.8920
-0.0325 3.0653 1.4935
0.2029 3.0771 1.6628
0.1822 2.8917 1.6125
0.2578 2.9673 1.6190
0.2549 2.8917 1.6516
0.2632 2.8917 1.5567
0.3402 3.0868 1.8259
0.2491 3.0101 1.7187
0.3487 2.9337 1.7273
0.3451 2.9917 1.7693
0.3574 2.9483 1.6277
0.3519 2.8917 1.6914
0.3534 2.9917 1.6733
0.3606 2.8917 1.5910
0.3315 3.0912 1.9266
0.3575 3.0782 1.6268
0.3660 3.0739 1.5281
-2.0956 2.8917 3.2896
-2.0954 2.9918 3.2889
-1.9954 3.0918 3.2938
-2.0959 3.0916 3.2881
-1.8943 3.1921 3.2988
-1.9942 3.1921 3.2932
-1.7959 2.8917 3.3067
-1.7958 3.0919 3.3052
-1.7908 3.1401 3.2480
-1.8682 3.1917 3.2412
1.6679 2.4917 1.6411
1.6721 2.4917 1.5415
1.6727 2.5918 1.5415
1.6733 2.6918 1.5416
1.6738 2.7918 1.5421
1.6702 2.8917 1.6413
1.6744 2.8917 1.5411
1.6493 2.1918 2.0410
1.6535 2.1918 1.9414
1.6577 2.1918 1.8415
1.6620 2.1918 1.7416
1.6662 2.1919 1.6409
1.6510 2.4917 2.0411
1.6679 2.4917 1.6411
1.6662 2.1919 1.6409
1.6679 2.4917 1.6411
1.6704 2.1919 1.5420
1.6710 2.2918 1.5418
1.6716 2.3919 1.5419
1.6721 2.4917 1.5415
1.6510 2.4917 2.0411
1.6533 2.8917 2.0413
1.6679 2.4917 1.6411
1.6702 2.8917 1.6413
-1.5068 1.2917 3.4440
-1.4066 1.2917 3.4475
-1.4066 1.3917 3.4471
-1.5066 1.3917 3.4437
-1.4066 1.2917 3.4475
-1.3063 1.4917 3.4503
-1.4065 1.4917 3.4468
-1.1065 1.4917 3.4571
-1.1062 1.2917 3.4578
-1.1060 1.3918 3.4575
1.6264 3.1191 2.0390
1.5270 3.1170 2.0304
1.5616 3.0997 1.6319
1.6533 2.8917 2.0413
1.6702 2.8917 1.6413
1.6544 3.0917 2.0414
1.6583 3.1152 1.9393
1.6714 3.1020 1.6414
1.5616 3.0997 1.6319
1.6697 3.0975 1.5406
1.6789 3.0932 1.4422
1.5788 3.0910 1.4326
1.6702 2.8917 1.6413
1.6744 2.8917 1.5411
1.6750 2.9917 1.5411
1.6714 3.1020 1.6414
1.7112 2.9917 1.4441
1.7238 3.0917 1.4452
-0.8295 3.0481 1.4243
-0.7212 3.0459 1.3333
-0.8209 3.0438 1.3256
-0.6124 3.0438 1.2436
-0.6366 3.0917 1.2403
-0.7171 3.0917 1.2868
-0.5129 3.0460 1.2519
-0.4310 3.0567 1.4589
-0.4137 3.0481 1.2602
-0.4310 3.0567 1.4589
-0.3140 3.0502 1.2685
-0.4137 3.0481 1.2602
-0.2141 3.0524 1.2777
-0.1146 3.0545 1.2860
-0.0325 3.0653 1.4935
-0.0066 3.0524 1.1956
-0.1058 3.0502 1.1869
-0.8295 3.0481 1.4243
-0.9289 3.0460 1.4156
-0.8209 3.0438 1.3256
-0.9202 3.0417 1.3167
-1.0631 3.0611 1.8055
-1.1629 3.0590 1.7968
-1.0547 3.0568 1.7059
-1.1543 3.0546 1.6973
-1.0460 3.0917 1.6062
-1.1456 2.9917 1.5976
-0.8468 3.0568 1.6239
-1.0374 3.0481 1.5066
-1.0289 3.0438 1.4070
-0.8641 3.0654 1.8228
-0.8295 3.0481 1.4243
-0.4656 3.0740 1.8574
-0.8641 3.0654 1.8228
-0.4310 3.0567 1.4589
-0.8295 3.0481 1.4243
-0.0670 3.0826 1.8920
-0.4656 3.0740 1.8574
-0.0325 3.0653 1.4935
-0.4310 3.0567 1.4589
3 0 4 3
3 1 2 5
3 2 7 5
3 7 6 5
3 6 7 8
3 8 7 9
3 1 5 10
3 5 11 10
3 11 5 12
3 12 5 6
3 13 15 16
3 15 14 16
3 22 17 18
3 22 18 19
3 22 19 20
3 22 20 23
3 23 20 21
3 25 24 26
3 28 27 31
3 31 27 29
3 31 29 25
3 31 25 26
3 30 28 31
3 34 32 33
3 32 36 35
3 34 36 32
3 37 39 38
3 38 39 40
3 42 37 41
3 39 37 42
3 44 43 45
3 45 43 46
3 47 50 51
3 47 51 48
3 48 51 49
3 52 49 51
3 49 52 53
3 55 54 52
3 53 54 56
3 52 54 53
3 57 49 58
3 58 49 53
3 59 58 60
3 57 58 59
3 62 61 63
3 64 62 63
3 65 62 66
3 61 62 65
3 67 62 64
3 66 67 68
3 62 67 66
3 69 71 70
3 69 70 72
3 73 74 75
3 79 77 76
3 79 76 70
3 70 76 78
3 78 80 70
3 70 80 72
3 73 72 81
3 72 80 81
3 73 81 74
3 83 82 84
3 84 82 85
3 86 84 87
3 84 85 87
3 88 91 90
3 88 90 89
3 89 90 84
3 83 84 90
3 84 86 89
3 92 91 88
3 93 95 96
3 94 93 96
3 96 97 94
3 98 97 96
3 99 101 102
3 101 100 102
3 99 102 103
3 104 105 108
3 104 108 106
3 106 108 107
3 109 105 104
3 93 105 109
3 95 93 109
3 110 99 111
3 99 112 101
3 112 108 101
3 110 113 99
3 99 113 112
3 114 106 107
3 115 107 108
3 116 115 112
3 112 115 108
3 115 116 117
3 118 119 120
3 119 121 120
3 122 124 123
3 123 124 125
3 120 124 118
3 125 124 120
3 127 129 126
3 126 129 128
3 130 132 133
3 130 133 134
3 130 134 131
3 133 132 126
3 134 133 126
3 128 134 126
3 135 136 137
3 136 138 137
3 139 141 142
3 139 142 140
3 142 141 135
3 137 142 135
3 144 143 145
3 146 145 147
3 148 146 147
3 151 149 144
3 145 151 144
3 149 151 150
3 150 151 152
3 150 152 153
3 151 145 146
3 151 146 152
3 146 148 153
3 146 153 152
3 154 155 156
3 156 155 157
3 158 159 160
3 160 159 161
3 162 163 164
3 164 163 165
3 166 167 168
3 168 167 169
3 170 171 172
3 172 171 173
3 174 175 176
3 176 175 177
3 178 179 180
3 180 179 181
3 179 178 182
3 178 184 182
3 182 184 183
3 183 184 185
3 183 185 186
3 188 187 189
3 187 192 189
3 189 192 190
3 190 192 191
3 191 192 193
3 194 195 196
3 196 195 197
3 199 198 200
3 200 198 201
3 204 202 199
3 200 204 199
3 202 204 203
3 203 204 205
3 206 207 208
3 208 207 209
3 210 211 212
3 212 211 213
3 215 214 216
3 216 214 217
3 216 218 215
3 218 221 219
3 220 218 216
3 218 220 221
3 223 222 224
3 224 222 225
3 224 226 223
3 228 226 227
3 229 226 224
3 226 229 227
3 230 231 232
3 232 231 233
3 235 234 236
3 236 234 237
3 236 238 235
3 240 238 236
3 239 238 240
3 240 241 239
3 243 242 244
3 244 242 245
3 246 248 249
3 249 248 250
3 247 246 252
3 252 246 249
3 253 251 247
3 253 247 254
3 254 247 252
3 254 252 255
3 255 252 256
3 257 253 258
3 254 259 258
3 254 258 253
3 260 254 255
3 260 255 261
3 263 264 262
3 266 265 264
3 264 265 262
3 267 268 265
3 269 270 271
3 272 273 274
3 273 275 274
3 277 278 276
3 279 278 277
3 280 282 281
3 283 282 280
3 285 286 284
3 284 286 287
3 289 290 288
3 280 292 283
3 292 291 283
3 280 293 292
3 294 295 296
3 296 297 298
3 295 297 296
3 302 301 299
3 301 300 299
3 300 301 303
3 304 300 305
3 299 300 304
3 307 306 308
3 308 306 309
3 311 310 312
3 313 311 316
3 316 311 312
3 314 313 316
3 315 314 316
3 318 317 319
3 319 317 320
3 322 321 323
3 324 322 327
3 327 322 323
3 325 324 327
3 326 325 327
3 329 328 330
3 330 328 331
3 333 332 334
3 334 332 335
3 337 336 338
3 338 336 339
3 338 339 340
3 346 340 341
3 346 341 342
3 343 338 344
3 337 338 343
3 345 338 340
3 338 345 344
3 345 340 346
3 353 347 348
3 353 348 349
3 353 349 350
3 353 350 351
3 351 350 352
3 351 355 354
3 351 354 353
3 355 351 356
3 359 360 358
3 361 360 359
3 358 362 357
3 358 360 362
3 363 357 364
3 364 357 365
3 365 357 362
3 366 363 367
3 363 364 367
3 369 368 370
3 370 368 371
3 373 372 374
3 374 372 375
3 377 376 378
3 378 376 379
3 378 379 380
3 377 378 382
3 383 378 380
3 382 378 383
3 383 380 381
3 382 383 384
3 384 383 385
3 385 383 381
3 386 387 388
3 388 387 389
3 390 391 392
3 392 391 393
3 397 393 394
3 397 394 395
3 397 395 396
3 398 395 394
3 391 399 393
3 393 399 400
3 393 400 394
3 394 400 401
3 398 401 402
3 394 401 398
3 403 406 405
3 404 406 403
3 405 408 409
3 405 406 408
3 406 407 408
3 410 411 404
3 412 404 411
3 406 404 412
3 407 406 412
3 411 413 412
3 412 413 414
3 415 417 416
3 416 417 418
3 419 418 417
3 417 415 420
3 421 417 420
3 419 417 421
3 420 425 421
3 421 425 422
3 422 425 423
3 423 425 424
3 424 425 426
3 426 425 427
3 430 428 431
3 428 429 431
3 431 432 430
3 430 432 433
3 432 434 433
3 433 434 435
3 435 434 436
3 437 438 439
3 440 439 441
3 442 440 443
3 440 441 443
3 428 430 438
3 438 430 439
3 439 430 441
3 441 430 444
3 430 433 444
3 435 445 433
3 433 445 446
3 446 445 447
3 448 451 450
3 448 450 449
3 450 451 452
3 454 453 455
3 453 457 456
3 454 457 453
3 456 459 458
3 457 459 456
3 454 455 460
3 460 455 461
3 462 457 454
3 457 462 459
3 460 463 454
3 464 462 463
3 462 454 463
3 467 466 465
3 467 469 468
3 465 471 467
3 470 471 465
3 467 471 469
3 473 472 469
3 472 473 474
3 474 473 475
3 474 475 476
3 476 475 477
3 478 471 470
3 469 471 473
3 473 471 479
3 473 479 475
3 475 479 477
3 478 480 471
3 480 479 471
3 481 482 483
3 482 484 483
3 485 486 491
3 486 487 491
3 487 488 491
3 491 488 489
3 488 490 489
3 491 489 492
3 493 494 495
3 494 496 495
3 497 498 499
3 498 500 499
3 501 502 503
3 502 504 503
3 505 506 507
3 506 508 507
3 509 510 511
3 510 512 511
3 514 513 515
3 514 515 517
3 516 514 517
3 523 513 514
3 518 514 516
3 518 516 519
3 520 523 514
3 520 514 518
3 521 520 518
3 522 521 518
3 521 522 524
3 524 522 525
3 522 526 525
3 529 528 530
3 529 530 531
3 530 532 531
3 531 532 533
3 534 527 528
3 535 528 529
3 535 529 536
3 529 531 536
3 536 531 533
3 537 534 538
3 538 534 539
3 539 534 528
3 539 528 535
3 536 533 540
3 546 541 542
3 546 542 543
3 549 541 546
3 547 546 543
3 547 543 548
3 543 544 548
3 548 544 545
3 546 547 548
3 548 545 550
3 551 552 559
3 552 553 559
3 553 554 559
3 555 551 559
3 556 558 557
3 558 555 557
3 555 559 557
3 568 560 561
3 560 562 561
3 568 561 567
3 561 565 567
3 565 566 567
3 564 563 566
3 566 563 567
3 570 569 571
3 570 571 572
3 575 569 570
3 570 572 574
3 574 572 573
3 574 573 576
3 577 580 579
3 578 580 577
3 581 583 578
3 578 583 580
3 582 583 581
3 586 585 587
3 586 584 585
3 585 588 587
3 589 586 590
3 590 586 587
3 591 590 587
3 592 595 593
3 594 595 592
3 593 596 597
3 593 595 596
3 600 592 593
3 601 593 597
3 602 603 598
3 598 603 599
3 603 597 599
3 601 597 603
3 604 606 607
3 605 604 607
3 606 610 607
3 606 609 610
3 609 608 610
3 614 615 611
3 611 615 612
3 614 611 616
3 616 611 613
3 617 618 622
3 621 619 620
3 623 620 619
3 624 620 623
3 623 625 624
3 622 618 626
3 622 626 627
3 628 627 629
3 626 629 627
3 630 628 631
3 631 628 629
3 632 630 631
3 633 632 629
3 632 631 629
3 634 636 635
3 635 636 637
3 641 643 639
3 641 639 640
3 638 642 639
3 642 640 639
3 640 644 645
3 641 640 645
3 644 646 645
3 644 634 646
3 634 635 646
3 647 648 640
3 640 648 644
3 650 649 651
3 652 650 651
3 653 650 652
3 653 652 654
3 654 652 655
3 650 657 656
3 653 657 650
3 658 660 659
3 659 660 661
3 660 655 661
3 654 655 660
3 662 653 654
3 662 654 663
3 664 662 665
3 665 662 663
3 666 664 667
3 667 664 665
3 668 670 669
3 669 670 671
3 672 673 674
3 672 675 673
3 676 678 677
3 677 678 680
3 678 679 680
3 681 680 679
3 682 680 681
3 685 684 683
3 682 684 685
3 687 682 685
3 687 686 682
3 686 680 682
3 688 690 691
3 691 690 692
3 693 689 688
3 693 688 694
3 694 688 691
3 695 693 696
3 696 693 694
3 697 695 698
3 698 695 696
3 698 696 699
3 699 696 694
3 700 703 702
3 701 703 700
3 702 703 704
3 701 706 703
3 706 704 703
3 705 704 706
3 707 705 706
3 708 709 710
3 710 709 711
3 713 712 714
3 714 712 715
3 714 715 716
3 716 715 717
3 718 713 719
3 719 713 714
3 719 714 720
3 720 714 716
3 723 722 721
3 724 723 721
3 725 724 721
3 726 727 721
3 727 725 721
3 728 725 727
3 736 729 730
3 731 732 730
3 733 732 731
3 730 734 735
3 730 735 736
3 730 732 734
3 737 736 735
3 738 740 739
3 741 740 738
3 745 744 742
3 743 745 742
3 748 746 747
3 748 743 746
3 743 742 746
3 746 749 747
3 751 744 750
3 750 744 745
3 752 751 750
3 754 753 755
3 755 753 756
3 758 757 755
3 755 757 759
3 755 759 754
3 761 760 755
3 755 760 758
3 763 762 764
3 764 762 765
3 764 765 766
3 764 766 767
3 767 766 768
3 769 764 770
3 770 764 767
3 772 771 773
3 774 772 775
3 775 773 776
3 772 773 775
3 777 772 778
3 778 772 774
3 778 774 779
3 779 774 775
3 779 775 780
3 781 780 776
3 780 775 776
3 783 782 784
3 784 782 785
3 783 788 786
3 788 787 786
3 783 784 788
3 784 789 788
3 791 790 792
3 792 790 793
3 795 794 796
3 796 794 797
3 796 797 798
3 796 798 799
3 799 798 800
3 801 800 802
3 799 800 801
3 796 803 795
3 804 805 806
3 805 807 806
3 810 811 808
3 812 811 810
3 809 808 811
3 809 811 813
3 813 811 814
3 811 815 814
3 816 817 818
3 817 819 818
3 822 821 823
3 821 824 823
3 820 821 822
3 826 827 822
3 825 827 826
3 835 820 822
3 830 829 828
3 828 832 831
3 829 832 828
3 835 822 833
3 822 827 833
3 827 834 833
3 836 837 838
3 837 839 838
3 842 841 840
3 846 843 844
3 841 846 844
3 841 844 845
3 841 845 840
3 843 849 847
3 843 847 844
3 844 847 848
3 850 852 851
3 852 846 851
3 843 846 853
3 853 846 852
3 854 841 842
3 841 856 846
3 841 854 856
3 854 855 856
3 849 857 847
3 849 856 857
3 856 855 857
3 858 850 851
3 851 846 859
3 846 860 859
3 846 856 860
3 851 861 858
3 862 861 851
3 859 862 851
3 859 863 866
3 865 862 864
3 862 859 864
3 859 866 864
3 867 868 869
3 868 870 869
3 871 872 873
3 872 874 873
3 875 876 877
3 876 878 877
3 879 880 881
3 880 882 881
3 883 884 885
3 884 886 885
3 887 888 889
3 888 890 889
3 892 891 893
3 892 893 894
3 897 891 892
3 896 892 894
3 896 894 895
3 896 895 898
3 900 903 899
3 903 900 901
3 904 903 901
3 904 901 902
3 899 903 905
3 904 902 906
3 908 907 909
3 908 909 910
3 914 907 908
3 912 914 908
3 912 908 910
3 913 912 910
3 910 911 913
3 911 915 913
3 922 916 917
3 918 919 923
3 920 922 917
3 920 917 918
3 921 920 918
3 921 918 923
3 926 925 924
3 929 924 925
3 929 928 924
3 928 927 924
3 927 928 930
3 928 931 930
3 924 932 926
3 927 932 924
3 933 927 930
3 935 934 936
3 937 935 936
3 939 938 940
3 940 938 941
3 943 942 944
3 944 942 945
3 947 946 948
3 948 946 949
3 951 952 950
3 950 954 953
3 950 952 954
3 956 955 957
3 957 955 958
3 959 957 962
3 962 957 958
3 960 959 962
3 961 960 962
3 964 963 965
3 965 963 966
3 968 967 969
3 970 968 973
3 973 968 969
3 971 970 973
3 972 971 973
3 975 974 976
3 976 974 977
3 979 978 980
3 980 978 981
3 984 982 985
3 985 982 983
3 987 986 988
3 988 986 989
3 990 992 991
3 993 992 990
3 994 991 995
3 990 991 994
3 996 990 997
3 996 993 990
3 998 1000 999
3 999 1000 994
3 1000 990 994
3 997 990 1000
3 1001 1003 1004
3 1003 1002 1004
3 1005 1007 1006
3 1008 1007 1005
3 1009 1008 1005
3 1010 1008 1009
3 1011 1010 1009
3 1012 1010 1011
3 1013 1014 1015
3 1017 1018 1016
3 1016 1013 1017
3 1013 1019 1017
3 1011 1019 1015
3 1019 1013 1015
3 1015 1012 1011
3 1024 1020 1021
3 1025 1024 1022
3 1022 1024 1023
3 1024 1021 1023
3 1026 1027 1028
3 1028 1029 1030
3 1027 1029 1028
3 1031 1020 1032
3 1032 1020 1024
3 1028 1034 1033
3 1025 1028 1033
3 1033 1032 1025
3 1025 1032 1024
3 1034 1028 1037
3 1037 1028 1030
3 1035 1036 1033
3 1036 1032 1033
3 1031 1032 1036
3 1038 1039 1041
3 1038 1041 1040
3 1040 1041 1044
3 1042 1039 1038
3 1043 1039 1042
3 1044 1041 1045
3 1046 1040 1044
3 1047 1046 1048
3 1048 1046 1044
3 1049 1048 1050
3 1050 1048 1044
3 1052 1051 1053
3 1052 1053 1054
3 1058 1052 1054
3 1054 1055 1057
3 1056 1054 1057
3 1056 1058 1054
3 1059 1057 1060
3 1056 1057 1059
3 1064 1065 1062
3 1064 1062 1063
3 1063 1062 1061
3 1064 1066 1065
3 1067 1069 1068
3 1068 1063 1061
3 1068 1071 1063
3 1068 1069 1071
3 1070 1063 1071
3 1071 1072 1070
3 1075 1074 1073
3 1073 1074 1076
3 1075 1077 1078
3 1073 1077 1075
3 1073 1079 1077
3 1076 1079 1073
3 1082 1081 1083
3 1081 1082 1084
3 1086 1080 1087
3 1080 1081 1087
3 1085 1081 1088
3 1085 1087 1081
3 1084 1088 1081
3 1085 1088 1089
3 1090 1091 1092
3 1090 1086 1091
3 1086 1087 1091
3 1085 1093 1087
3 1087 1093 1091
3 1085 1089 1094
3 1085 1094 1093
3 1094 1089 1095
3 1094 1095 1096
3 1098 1099 1097
3 1100 1097 1099
3 1101 1102 1103
3 1105 1106 1104
3 1111 1110 1109
3 1111 1107 1110
3 1107 1108 1110
3 1113 1109 1110
3 1112 1109 1113
3 1113 1114 1112
3 1113 1104 1114
3 1104 1106 1114
3 1114 1106 1115
3 1107 1111 1116
3 1117 1118 1119
3 1117 1114 1118
3 1114 1115 1118
3 1118 1120 1119
3 1124 1121 1123
3 1122 1121 1124
3 1122 1125 1121
3 1126 1125 1122
3 1123 1121 1127
3 1121 1128 1127
3 1121 1129 1128
3 1125 1129 1121
3 1130 1128 1131
3 1128 1132 1131
3 1130 1133 1127
3 1128 1130 1127
3 1134 1132 1128
3 1134 1128 1129
3 1134 1129 1135
3 1130 1131 1136
3 1137 1136 1131
3 1138 1141 1140
3 1139 1141 1138
3 1141 1142 1140
3 1141 1130 1142
3 1141 1133 1130
3 1130 1136 1142
3 1143 1137 1135
3 1134 1135 1137
3 1145 1144 1146
3 1146 1144 1147
3 1149 1148 1145
3 1146 1149 1145
3 1151 1150 1152
3 1152 1150 1153
3 1156 1152 1153
3 1154 1152 1156
3 1155 1154 1156
3 1158 1157 1159
3 1159 1157 1160
3 1162 1161 1163
3 1162 1164 1161
3 1161 1164 1167
3 1161 1167 1166
3 1161 1166 1165
3 1169 1168 1170
3 1165 1168 1169
3 1171 1168 1165
3 1166 1171 1165
3 1172 1171 1166
3 1178 1174 1173
3 1173 1174 1175
3 1174 1178 1176
3 1173 1177 1178
3 1179 1182 1181
3 1180 1182 1179
3 1183 1184 1185
3 1185 1184 1186
3 1188 1187 1189
3 1190 1192 1191
3 1191 1193 1195
3 1190 1191 1194
3 1191 1195 1194
3 1200 1199 1198
3 1200 1197 1199
3 1197 1196 1199
3 1198 1199 1201
3 1203 1204 1202
3 1206 1207 1196
3 1196 1207 1199
3 1201 1199 1208
3 1199 1207 1208
3 1206 1202 1210
3 1206 1210 1207
3 1204 1210 1202
3 1212 1211 1207
3 1211 1213 1207
3 1213 1214 1207
3 1207 1215 1208
3 1209 1217 1216
3 1209 1208 1217
3 1208 1215 1217
3 1216 1217 1218
3 1207 1210 1219
3 1207 1219 1212
3 1214 1219 1207
3 1210 1207 1219
3 1215 1210 1220
3 1207 1210 1215
3 1204 1205 1221
3 1220 1210 1204
3 1204 1221 1220
3 1221 1205 1222
3 1224 1213 1223
3 1214 1213 1224
3 1226 1228 1227
3 1225 1215 1224
3 1225 1224 1223
3 1215 1229 1217
3 1215 1225 1229
3 1226 1227 1230
3 1229 1218 1217
3 1230 1231 1232
3 1227 1231 1230
3 1232 1231 1220
3 1232 1220 1233
3 1233 1220 1221
3 1236 1237 1235
3 1236 1235 1234
3 1235 1237 1238
3 1236 1239 1237
3 1237 1239 1240
3 1235 1238 1243
3 1235 1243 1241
3 1241 1243 1242
3 1242 1243 1244
3 1243 1245 1244
3 1246 1248 1247
3 1249 1239 1236
3 1249 1252 1239
3 1249 1251 1252
3 1250 1239 1252
3 1250 1252 1253
3 1250 1253 1244
3 1244 1253 1242
3 1255 1251 1254
3 1252 1251 1255
3 1252 1255 1257
3 1252 1257 1253
3 1253 1257 1256
3 1256 1258 1259
3 1258 1256 1260
3 1256 1257 1260
3 1261 1262 1263
3 1262 1264 1263
3 1267 1266 1273
3 1265 1268 1267
3 1267 1272 1265
3 1272 1267 1273
3 1269 1270 1271
3 1276 1275 1274
3 1277 1279 1274
3 1277 1274 1275
3 1279 1277 1278
3 1285 1282 1284
3 1284 1282 1283
3 1286 1280 1287
3 1282 1288 1283
3 1289 1288 1282
3 1293 1290 1292
3 1291 1290 1293
3 1290 1291 1281
3 1286 1287 1294
3 1286 1294 1295
3 1294 1296 1295
3 1285 1298 1297
3 1280 1297 1281
3 1297 1280 1286
3 1297 1282 1285
3 1297 1299 1282
3 1299 1289 1282
3 1281 1297 1290
3 1297 1286 1300
3 1300 1286 1295
3 1297 1298 1302
3 1298 1301 1302
3 1297 1303 1299
3 1304 1299 1303
3 1292 1290 1305
3 1297 1302 1305
3 1297 1305 1290
3 1303 1297 1300
3 1303 1300 1295
3 1303 1307 1306
3 1304 1309 1308
3 1304 1303 1309
3 1303 1306 1309
3 1310 1307 1303
3 1310 1303 1295
3 1311 1312 1313
3 1316 1315 1314
3 1314 1315 1317
3 1311 1313 1318
3 1313 1319 1318
3 1323 1315 1316
3 1323 1322 1315
3 1322 1317 1315
3 1325 1317 1322
3 1326 1311 1318
3 1320 1321 1318
3 1320 1318 1319
3 1324 1320 1319
3 1324 1319 1327
3 1327 1319 1313
3 1312 1328 1313
3 1328 1327 1313
3 1335 1329 1330
3 1335 1330 1331
3 1331 1330 1332
3 1335 1331 1333
3 1333 1331 1334
3 1338 1337 1336
3 1338 1336 1333
3 1333 1336 1335
3 1340 1339 1341
3 1341 1339 1342
3 1342 1339 1343
3 1339 1344 1343
3 1343 1344 1345
3 1346 1351 1347
3 1347 1351 1348
3 1348 1351 1352
3 1348 1352 1349
3 1349 1352 1350
3 1353 1354 1355
3 1355 1354 1356
3 1356 1354 1357
3 1357 1354 1358
3 1359 1360 1361
3 1361 1360 1362
3 1364 1363 1365
3 1365 1363 1366
3 1368 1367 1369
3 1370 1367 1368
3 1371 1367 1372
3 1372 1367 1370
3 1376 1378 1379
3 1376 1379 1380
3 1376 1380 1377
3 1379 1378 1373
3 1374 1379 1373
3 1380 1379 1374
3 1375 1380 1374
3 1382 1381 1383
3 1381 1384 1383
3 1386 1385 1387
3 1385 1388 1387
3 1387 1388 1382
3 1387 1382 1389
3 1389 1382 1390
3 1382 1388 1381
3 1391 1393 1392
3 1398 1391 1392
3 1395 1392 1396
3 1395 1394 1392
3 1392 1394 1397
3 1398 1392 1399
3 1392 1397 1399
3 1400 1402 1401
3 1400 1401 1403
3 1400 1403 1404
3 1405 1404 1406
3 1404 1407 1406
3 1405 1400 1404
3 1408 1409 1410
3 1409 1411 1410
3 1412 1413 1414
3 1413 1415 1414
3 1416 1414 1417
3 1414 1415 1417
3 1412 1414 1421
3 1416 1418 1414
3 1418 1421 1414
3 1416 1419 1418
3 1418 1419 1422
3 1419 1420 1422
3 1423 1424 1425
3 1424 1426 1425
3 1427 1428 1429
3 1428 1430 1429
