ply
format ascii 1.0
element vertex 683
property float x
property float y
property float z
element face 556
property list uchar int vertex_indices
end_header
-2.0983 1.2917 3.3217
-2.0983 1.2917 3.3217
-2.1979 1.3917 3.3130
-2.1979 1.3917 3.3130
-2.1969 1.2917 3.3015
-2.0967 1.3917 3.3033
-2.0963 1.4917 3.2981
-2.1961 1.4917 3.2916
-2.0958 1.5917 3.2923
-2.1956 1.5917 3.2856
-1.9948 1.2917 3.2856
-1.9925 1.3917 3.2594
-1.9953 1.4917 3.2911
-2.1979 1.3917 3.3130
-2.2934 1.2917 3.2560
-2.1969 1.2917 3.3015
-2.2956 1.3917 3.2817
-0.1058 1.0917 3.4946
-0.2054 1.1917 3.4860
-0.1116 1.1917 3.5610
-0.1779 1.2917 3.4884
-0.1122 1.2917 3.5678
0.0194 0.8917 0.8957
0.1191 0.8917 0.9044
0.1137 0.9917 0.9660
0.0140 0.9917 0.9585
0.2014 0.9524 1.1123
0.1507 0.9917 1.1079
0.1389 0.8917 1.0065
0.1018 1.0262 1.1036
0.2053 0.8917 1.0668
0.1104 1.0055 1.0040
0.0525 0.6917 0.5153
0.1524 0.6917 0.5200
0.1537 0.7917 0.5059
0.0540 0.7917 0.4972
0.2446 0.7917 0.6141
0.2520 0.6917 0.5293
0.1450 0.8002 0.6055
1.4020 2.8917 3.4702
1.5035 2.8917 3.4752
1.5036 3.0924 3.4719
1.4022 3.0919 3.4670
1.5055 3.1917 3.4338
1.4059 3.1500 3.4251
1.5037 3.1923 3.4703
1.4278 3.1917 3.3266
1.4145 3.1756 3.3255
1.6034 2.9923 3.4784
1.3997 1.2917 3.4960
1.5002 1.6917 3.4944
1.4003 1.6917 3.4895
1.6007 1.2917 3.5058
1.6086 1.2917 3.2420
1.6118 1.3917 3.2422
1.6240 1.2917 3.4440
1.6010 1.4922 3.5025
1.6224 1.4917 3.2432
1.5828 1.5917 3.4405
1.6224 1.5917 3.2432
1.5890 1.6917 3.4410
1.5785 1.6917 3.2393
1.6086 1.2917 3.2420
1.6118 1.3917 3.2422
1.6311 1.2917 3.1435
1.6311 1.3917 3.1435
1.6224 1.4917 3.2432
1.6224 1.5917 3.2432
1.5785 1.6917 3.2393
1.6311 1.6917 3.1435
1.5841 2.4917 3.2398
1.5802 2.5917 3.2395
1.5972 2.4917 3.1406
1.5505 2.5917 3.1365
1.4014 2.4917 3.4767
1.5018 2.4917 3.4815
1.5035 2.8917 3.4752
1.4020 2.8917 3.4702
1.5542 2.4917 3.4380
1.5837 2.4917 3.3402
1.5962 2.5917 3.3413
1.5841 2.4917 3.2398
1.5802 2.5917 3.2395
1.6122 2.6917 3.3613
1.6138 2.6503 3.3428
1.5482 2.6917 3.2367
1.6150 2.6917 3.3290
1.6138 2.7120 3.3428
1.5706 2.7917 3.3390
1.5677 2.8917 3.3388
1.4008 2.0917 3.4831
1.5012 2.1918 3.4864
1.5018 2.4917 3.4815
1.4014 2.4917 3.4767
1.6121 2.0917 3.4934
1.5542 2.1917 3.4380
1.6138 2.0917 3.3428
1.5714 2.1917 3.3391
1.5774 2.0917 3.2392
1.5774 2.1917 3.2392
1.6138 2.2917 3.3428
1.5727 2.2917 3.2388
1.5542 2.4917 3.4380
1.5779 2.3917 3.2393
1.5837 2.4917 3.3402
1.5841 2.4917 3.2398
1.5947 1.8917 3.2407
1.5918 1.9917 3.2405
1.5874 1.8917 3.1397
1.5792 1.9917 3.1390
1.3990 1.7911 3.4879
1.3972 1.7917 3.5247
1.4003 1.6917 3.4895
1.5002 1.6917 3.4944
1.5008 1.8919 3.4912
1.4004 1.7911 3.4879
1.4008 2.0917 3.4831
1.5890 1.6917 3.4410
1.5837 1.6917 3.3402
1.5785 1.6917 3.2393
1.5568 1.7917 3.2375
1.5947 1.8917 3.2407
1.6121 2.0917 3.4934
1.6138 2.0917 3.3428
1.5918 1.9917 3.2405
1.5774 2.0917 3.2392
-2.3990 0.9917 3.3169
-2.2987 0.9917 3.3176
-2.2976 1.0917 3.3044
-2.3972 1.0917 3.2957
-2.2993 1.1917 3.3239
-2.3987 1.1917 3.3136
-2.1979 0.9917 3.3130
-2.2976 0.9622 3.3044
-2.1979 1.1917 3.3130
-2.2976 1.2165 3.3044
-2.0983 0.9917 3.3217
-2.1979 0.9917 3.3130
-2.0983 1.0917 3.3217
-2.1979 1.1917 3.3130
-2.0983 1.2917 3.3217
-2.1979 0.9917 3.3130
-2.2976 0.9622 3.3044
-2.2944 0.8917 3.2683
-2.1925 0.8917 3.2499
-2.1979 0.9917 3.3130
-2.2976 1.0917 3.3044
-2.1969 1.0917 3.3006
-2.1979 1.1917 3.3130
-2.1979 1.1917 3.3130
-2.2976 1.2165 3.3044
-2.1969 1.2917 3.3015
-2.2934 1.2917 3.2560
-2.0983 0.9917 3.3217
-2.1979 0.9917 3.3130
-2.1925 0.8917 3.2499
-2.0921 0.8917 3.2499
-2.0983 1.0917 3.3217
-2.1979 0.9917 3.3130
-2.1969 1.0917 3.3006
-2.1979 1.1917 3.3130
-2.0983 1.2917 3.3217
-2.1979 1.1917 3.3130
-2.1969 1.2917 3.3015
-1.9941 0.8917 3.2772
-1.9963 0.9917 3.3028
-2.0983 1.0917 3.3217
-1.9973 1.0917 3.3143
-2.0983 1.1917 3.3217
-1.9971 1.1917 3.3122
-2.0983 1.2917 3.3217
-1.9948 1.2917 3.2856
-0.1145 1.3492 3.5943
-0.1317 1.3917 3.5928
-0.1165 1.3917 3.6181
-0.1779 1.2917 3.4884
-0.1692 1.3917 3.4891
-0.1122 1.2917 3.5678
-1.7971 2.4917 3.3210
-1.3973 2.4917 3.3404
-1.3968 2.8917 3.3340
-1.7966 2.8917 3.3145
-1.7975 2.1924 3.3258
-1.6965 2.1922 3.3307
-1.7971 2.4917 3.3210
-1.5961 2.1924 3.3356
-1.4967 2.1921 3.3404
-1.3977 2.1922 3.3453
-1.3973 2.4917 3.3404
-1.3973 2.4917 3.3404
-0.9975 2.4917 3.3599
-0.9969 2.8917 3.3535
-1.3968 2.8917 3.3340
-1.3977 2.1922 3.3453
-1.2968 2.1921 3.3502
-1.3976 2.2922 3.3436
-1.3973 2.4917 3.3404
-1.1976 2.1918 3.3550
-1.0967 2.1922 3.3599
-0.9979 2.1919 3.3647
-0.9975 2.4917 3.3599
-0.9975 2.4917 3.3599
-0.5977 2.4917 3.3794
-0.5971 2.8917 3.3729
-0.9969 2.8917 3.3535
-0.9981 2.0917 3.3663
-0.5982 2.0917 3.3858
-0.5977 2.4917 3.3794
-0.9975 2.4917 3.3599
-0.7980 1.6917 3.3825
-0.6970 1.7924 3.3858
-0.7980 1.7920 3.3809
-0.7979 1.8920 3.3793
-0.7976 1.9920 3.3777
-0.7979 2.0917 3.3761
-0.5988 1.6917 3.3922
-0.5888 1.7917 3.2766
-0.5985 1.8923 3.3890
-0.5982 2.0917 3.3858
-0.7991 1.2917 3.3890
-0.7988 1.3919 3.3873
-0.7990 1.4917 3.3857
-0.7985 1.5919 3.3841
-0.6971 1.6917 3.3875
-0.7980 1.6917 3.3825
-0.5994 1.2917 3.3987
-0.5989 1.5918 3.3938
-0.5953 1.6277 3.3518
-0.5988 1.6917 3.3922
-0.5994 1.2917 3.3987
-0.4985 1.5919 3.3987
-0.5989 1.5918 3.3938
-0.5953 1.6277 3.3518
-0.4886 1.6917 3.2790
-0.5988 1.6917 3.3922
-0.1990 1.6917 3.4117
-0.3960 1.6917 3.3691
-0.3976 1.6917 3.4020
-0.1995 1.2917 3.4181
-0.5982 2.0917 3.3858
-0.1984 2.0917 3.4053
-0.1979 2.4917 3.3988
-0.5977 2.4917 3.3794
-0.5977 2.4917 3.3794
-0.1979 2.4917 3.3988
-0.1973 2.8917 3.3924
-0.5971 2.8917 3.3729
-0.5988 1.6917 3.3922
-0.4886 1.6917 3.2790
-0.4899 1.7917 3.2935
-0.5888 1.7917 3.2766
-0.5985 1.8923 3.3890
-0.5982 2.0917 3.3858
-0.3960 1.6917 3.3691
-0.3976 1.6917 3.4020
-0.1990 1.6917 3.4117
-0.1987 1.8921 3.4085
-0.1984 2.0917 3.4053
1.4243 0.9917 3.4267
1.5389 1.0917 3.4582
1.4018 0.9917 3.4716
1.3994 1.0917 3.4992
1.4417 0.9917 3.3278
1.5141 1.0335 3.3341
1.5228 1.0386 3.2345
1.4232 1.0030 3.2259
1.4188 0.9917 3.2764
1.3997 1.2917 3.4960
1.6224 1.0917 3.2432
1.6240 1.2917 3.4440
1.6122 1.1917 3.2423
1.6138 1.1917 3.3428
1.6007 1.2917 3.5058
1.6086 1.2917 3.2420
1.6138 1.2917 3.3428
1.4405 0.8917 3.0266
1.5351 0.8917 3.0932
1.5336 0.9917 3.1106
1.4347 0.9917 3.0934
1.5228 1.0386 3.2345
1.4232 1.0030 3.2259
1.5314 1.0165 3.1349
1.4318 1.0140 3.1262
1.6224 1.0917 3.2432
1.6311 1.0657 3.1435
1.6131 0.9917 3.0416
1.6252 1.0917 3.0426
1.6356 1.0917 3.0918
1.6224 1.0917 3.2432
1.6122 1.1917 3.2423
1.6311 1.1300 3.1435
1.6057 1.1917 3.1413
1.6194 1.1917 3.0421
1.6086 1.2917 3.2420
1.6311 1.2917 3.1435
1.6462 1.0917 3.1448
-1.7966 2.8917 3.3145
-1.6953 3.0922 3.3162
-1.7963 3.0918 3.3113
-1.5958 3.0920 3.3211
-1.4954 3.0922 3.3259
-1.3968 2.8917 3.3340
-1.3965 3.0921 3.3308
-1.3923 3.1361 3.2826
-1.4919 3.1353 3.2739
-1.3968 2.8917 3.3340
-0.9969 2.8917 3.3535
-1.2948 3.0925 3.3357
-1.3965 3.0921 3.3308
-1.2927 3.0917 3.2912
-1.3923 3.1361 3.2826
-1.1930 3.1295 3.2999
-0.9938 3.1334 3.3172
-1.0848 3.1661 3.2089
-1.1844 3.1672 3.2002
-0.9967 3.0918 3.3502
-0.9851 3.1409 3.2175
-0.9969 2.8917 3.3535
-0.9967 3.0918 3.3502
-0.9938 3.1334 3.3172
-0.9851 3.1409 3.2175
-0.8769 3.1429 3.1266
-0.9765 3.1509 3.1179
-0.6949 3.1233 3.3431
-0.6863 3.1498 3.2435
-0.7772 3.1459 3.1352
-0.6968 3.0918 3.3648
-0.6776 3.1506 3.1439
-0.5971 2.8917 3.3729
-0.5967 3.1920 3.3681
-0.5953 3.1917 3.3518
-0.5866 3.1523 3.2521
-0.5780 3.1491 3.1525
-0.5971 2.8917 3.3729
-0.4968 3.0918 3.3746
-0.5967 3.1920 3.3681
-0.5953 3.1917 3.3518
-0.5866 3.1523 3.2521
-0.4784 3.1570 3.1612
-0.5780 3.1491 3.1525
-0.3466 3.1103 3.3816
-0.2878 3.1631 3.2781
-0.2705 3.1277 3.0788
-0.3701 3.0917 3.0702
-0.4697 3.1438 3.0615
-0.1795 3.1499 3.1871
-0.1973 2.8917 3.3924
-0.1971 3.0680 3.3895
-0.1969 3.1683 3.3879
-0.1708 3.1319 3.0875
-0.4441 0.4917 0.4540
-0.3480 0.4917 0.5028
-0.3503 0.5917 0.5300
-0.4457 0.5917 0.4725
-0.3464 0.6917 0.4852
-0.4457 0.6917 0.4721
-0.3618 0.7917 0.6619
-0.4614 0.7917 0.6532
-0.3531 0.7917 0.5622
-0.4527 0.7917 0.5536
-0.3791 0.9917 0.8611
-0.4700 0.8917 0.7529
-0.3744 0.8917 0.8078
-0.4752 0.9917 0.8127
-0.4700 0.7917 0.7529
-0.4614 0.7917 0.6532
-0.4700 0.8917 0.7529
-0.3704 0.7917 0.7615
-0.3618 0.7917 0.6619
-0.3744 0.8917 0.8078
-0.1061 1.0409 1.1859
-0.2058 1.0393 1.1773
-0.0975 1.0280 1.0863
-0.1971 1.0292 1.0777
-0.0065 1.0380 1.1946
0.0021 1.0261 1.0950
-0.2486 0.8917 1.0732
-0.2344 0.9917 1.0744
-0.2176 0.8917 0.9755
-0.2018 0.9917 0.9769
-0.1798 0.8917 0.8784
-0.1851 0.9917 0.9392
-0.0855 0.9917 0.9488
-0.0975 1.0280 1.0863
-0.1971 1.0292 1.0777
-0.0888 1.0046 0.9867
-0.1885 1.0051 0.9780
0.0194 0.8917 0.8957
0.0140 0.9917 0.9585
-0.2708 0.7917 0.7701
-0.3704 0.7917 0.7615
-0.2621 0.7917 0.6705
-0.3618 0.7917 0.6619
-0.2967 0.8038 1.0690
-0.3964 0.8047 1.0604
-0.2881 0.7973 0.9694
-0.3504 0.8917 0.9640
-0.3913 0.8917 1.0018
-0.2794 0.7917 0.8698
-0.3631 0.8917 0.8625
-0.3704 0.7917 0.7615
-0.3744 0.8917 0.8078
-0.2176 0.8917 0.9755
-0.1798 0.8917 0.8784
-0.2711 0.5917 0.4690
-0.2448 0.6398 0.4713
-0.3503 0.5917 0.5300
-0.2466 0.6917 0.4920
-0.3464 0.6917 0.4852
-0.2621 0.7917 0.6705
-0.3618 0.7917 0.6619
-0.2535 0.7917 0.5709
-0.3531 0.7917 0.5622
-0.2272 0.5917 0.4728
-0.1520 0.5917 0.5576
-0.0472 0.6917 0.5070
-0.1452 0.7917 0.4799
-0.0519 0.5917 0.5607
0.0476 0.5917 0.5717
0.0525 0.6917 0.5153
0.0540 0.7917 0.4972
0.5995 0.8917 3.4635
0.6997 0.9918 3.4668
0.5997 0.9918 3.4619
0.7995 0.9917 3.4716
0.8993 0.9917 3.4765
0.9995 0.9916 3.4814
0.9993 0.8917 3.4830
-0.1058 1.0917 3.4946
-0.2054 1.1917 3.4860
-0.1998 1.0915 3.4214
-0.1779 1.2917 3.4884
-0.2054 1.1917 3.4860
-0.1995 1.2917 3.4181
0.2999 0.8917 3.4489
0.3996 0.8917 3.4538
0.4003 0.9920 3.4522
0.2979 0.9917 3.4696
0.5001 0.9919 3.4570
0.5995 0.8917 3.4635
0.5997 0.9918 3.4619
0.2997 0.7918 3.4505
0.4001 0.7920 3.4554
0.3996 0.8917 3.4538
0.2999 0.8917 3.4489
0.4999 0.7920 3.4603
0.4993 0.6918 3.4619
0.5992 0.6919 3.4667
0.5995 0.8917 3.4635
1.0074 0.1917 3.3905
1.1070 0.2917 3.3992
1.0074 0.2917 3.3905
1.1091 0.3917 3.3752
1.0099 0.3917 3.3608
1.1083 0.4917 3.3838
1.0087 0.4917 3.3757
0.5996 0.5919 3.4684
0.6002 0.5917 3.4555
0.5990 0.4917 3.4699
0.7505 0.6923 3.4741
0.5997 0.6919 3.4667
0.5995 0.8917 3.4635
0.9009 0.4917 3.4846
0.9993 0.8917 3.4830
0.9006 0.7923 3.4798
0.9735 0.4917 3.3876
0.9813 0.5917 3.3882
1.0087 0.4917 3.3757
1.0084 0.5917 3.3787
1.0085 0.6917 3.3773
1.0074 0.7917 3.3905
0.6992 0.3919 3.4764
0.7997 0.3922 3.4813
0.6999 0.4917 3.4749
0.8045 0.2917 3.4153
0.9077 0.2917 3.3819
0.9007 0.3926 3.4862
0.9009 0.4917 3.4846
1.0074 0.2917 3.3905
1.0099 0.3917 3.3608
0.9735 0.4917 3.3876
1.0087 0.4917 3.3757
0.9993 0.8917 3.4830
0.9999 1.2917 3.4765
1.1988 0.9915 3.4911
1.1999 0.8917 3.4927
1.2991 0.9916 3.4959
1.4018 0.9917 3.4716
1.3994 1.0917 3.4992
1.4068 0.9917 3.2244
1.4232 1.0030 3.2259
1.4188 0.9917 3.2764
1.3997 1.2917 3.4960
1.1070 0.5917 3.3992
1.0087 0.4917 3.3757
1.1083 0.4917 3.3838
1.0084 0.5917 3.3787
1.1070 0.6917 3.3992
1.0085 0.6917 3.3773
1.0074 0.7917 3.3905
1.2066 0.4917 3.4078
1.2057 0.5917 3.4182
1.2051 0.6917 3.4253
1.4068 0.9917 3.2244
1.4232 1.0030 3.2259
1.4133 0.9917 3.1246
1.4318 1.0140 3.1262
1.4347 0.9917 3.0934
-0.1973 2.8917 3.3924
-0.0971 3.0917 3.3940
-0.1971 3.0439 3.3899
-0.0593 3.1403 3.2477
-0.1969 3.1683 3.3879
-0.1795 3.1499 3.1871
-0.0712 3.0917 3.0961
-0.1708 3.1319 3.0875
0.2028 3.0920 3.4086
0.0284 3.0917 3.1048
0.2104 3.1441 3.3213
0.2190 3.1729 3.2217
0.1280 3.1331 3.1134
0.2025 2.8917 3.4118
0.2277 3.0917 3.1221
0.2025 2.8917 3.4118
0.2028 3.0920 3.4086
0.2104 3.1441 3.3213
0.2190 3.1729 3.2217
0.3273 3.1615 3.1307
0.2277 3.0917 3.1221
0.6023 2.8917 3.4313
0.6175 3.1573 3.2563
0.4269 3.1450 3.1394
0.6026 3.0920 3.4281
0.5092 3.1228 3.3473
0.5265 3.1508 3.1480
0.6089 3.1528 3.3559
0.6262 3.1607 3.1567
1.0021 2.8917 3.4508
1.0024 3.0921 3.4475
1.0074 3.1369 3.3905
1.2153 3.1917 3.3082
1.0160 3.1685 3.2909
1.1243 3.1650 3.1999
1.0247 3.1635 3.1913
1.4022 3.0919 3.4670
1.2043 3.1925 3.4557
1.2239 3.1461 3.2086
1.3062 3.1715 3.4165
1.3149 3.1724 3.3168
1.2153 3.1917 3.3082
1.4020 2.8917 3.4702
1.4059 3.1500 3.4251
1.4145 3.1756 3.3255
0.6023 2.8917 3.4313
0.6026 3.0920 3.4281
0.7127 3.1917 3.3162
0.6089 3.1528 3.3559
0.6708 3.1917 3.2609
0.6175 3.1573 3.2563
0.7258 3.1659 3.1653
0.6262 3.1607 3.1567
0.7225 3.1917 3.2035
0.9077 3.1519 3.3819
0.7770 3.1917 3.2701
0.8254 3.1374 3.1740
1.0024 3.0921 3.4475
1.0247 3.1635 3.1913
0.9250 3.1616 3.1826
1.0021 2.8917 3.4508
1.0074 3.1369 3.3905
1.0160 3.1685 3.2909
1.0010 2.0917 3.4636
1.4008 2.0917 3.4831
1.4014 2.4917 3.4767
1.0016 2.4917 3.4572
1.0016 2.4917 3.4572
1.4014 2.4917 3.4767
1.4020 2.8917 3.4702
1.0021 2.8917 3.4508
0.9999 1.2917 3.4765
1.3997 1.2917 3.4960
1.4003 1.6917 3.4895
1.0005 1.6917 3.4701
-0.1779 1.2917 3.4884
-0.1692 1.3917 3.4891
-0.1995 1.2917 3.4181
-0.1994 1.3917 3.4165
-0.1983 2.1920 3.4036
0.2015 2.1918 3.4231
-0.1979 2.4917 3.3988
0.1019 2.2918 3.4166
0.2020 2.4917 3.4183
-0.1979 2.4917 3.3988
0.2020 2.4917 3.4183
0.2025 2.8917 3.4118
-0.1973 2.8917 3.3924
0.2016 2.1918 3.4231
0.3020 2.1920 3.4280
0.2020 2.4917 3.4183
0.4024 2.1922 3.4329
0.5020 2.1920 3.4377
0.6013 2.1921 3.4426
0.6018 2.4917 3.4377
0.2020 2.4917 3.4183
0.6018 2.4917 3.4377
0.6023 2.8917 3.4313
0.2025 2.8917 3.4118
0.6018 2.4917 3.4377
1.0016 2.4917 3.4572
1.0021 2.8917 3.4508
0.6023 2.8917 3.4313
0.6013 2.1921 3.4426
0.7020 2.1920 3.4475
0.6018 2.4917 3.4377
0.8005 2.1914 3.4523
0.9013 2.1918 3.4572
1.0000 2.0917 3.4636
1.0010 2.0913 3.4636
0.9010 2.0917 3.4588
1.0016 2.4917 3.4572
1.0005 1.6917 3.4701
1.0010 2.0913 3.4636
1.4004 1.7911 3.4879
1.3972 1.7917 3.5247
1.4003 1.6917 3.4895
1.4008 2.0917 3.4831
-1.0721 0.8917 3.0632
-0.9734 0.8917 3.0818
-0.9752 0.9917 3.1036
-1.0750 0.9917 3.0962
-0.9765 0.9984 3.1179
-1.0761 0.9979 3.1093
-1.0705 0.7917 3.0442
-0.9720 0.7917 3.0662
-0.9734 0.8917 3.0818
-1.0721 0.8917 3.0632
-0.9720 0.7917 3.0662
-0.8729 0.7917 3.0815
-0.8742 0.8917 3.0959
-0.9734 0.8917 3.0818
-0.7772 0.8917 3.1352
-0.7756 0.7917 3.1167
-0.6776 0.7917 3.1439
-0.6803 0.8917 3.1743
-0.6132 0.7917 3.3502
-0.6111 0.8917 3.3504
-0.5982 0.7917 3.3852
-0.5966 0.8917 3.3666
-0.6265 0.7917 3.2487
-0.6253 0.8917 3.2488
-0.6863 0.9917 3.2435
-0.7772 0.8917 3.1352
-0.6803 0.8917 3.1743
-0.7835 0.9917 3.2071
-0.7945 1.0356 3.3345
-0.5996 1.0920 3.4019
-0.7988 1.0921 3.3922
-0.7859 1.0035 3.2348
-0.7988 1.1920 3.3906
-0.7991 1.2917 3.3890
-0.6111 0.8917 3.3504
-0.5953 0.9917 3.3518
-0.5966 0.8917 3.3666
-0.6253 0.8917 3.2488
-0.5994 1.2917 3.3987
-0.5982 0.7917 3.3852
-0.5007 0.7915 3.4116
-0.5002 0.8917 3.4100
-0.5966 0.8917 3.3666
-0.4011 0.7913 3.4164
-0.3014 0.7912 3.4213
-0.2002 0.7913 3.4262
-0.2001 0.8917 3.4246
-0.5966 0.8917 3.3666
-0.5002 0.8917 3.4100
-0.5953 0.9917 3.3518
-0.5996 1.0920 3.4019
-0.5994 1.2917 3.3987
-0.1998 1.0915 3.4214
-0.2993 1.1919 3.4149
-0.2001 0.8917 3.4246
-0.2054 1.1917 3.4860
-0.1995 1.2917 3.4181
3 0 4 3
3 1 2 5
3 2 7 5
3 7 6 5
3 6 7 8
3 8 7 9
3 1 5 10
3 5 11 10
3 11 5 12
3 12 5 6
3 13 15 16
3 15 14 16
3 17 18 19
3 18 20 21
3 18 21 19
3 23 22 24
3 24 22 25
3 26 30 28
3 26 28 27
3 27 28 29
3 28 24 29
3 23 24 28
3 29 24 31
3 33 32 34
3 34 32 35
3 36 37 34
3 37 33 34
3 36 34 38
3 41 39 42
3 44 43 45
3 44 45 42
3 42 45 41
3 47 43 44
3 46 43 47
3 48 40 39
3 41 48 39
3 50 49 51
3 54 53 55
3 52 49 56
3 58 56 50
3 50 56 49
3 60 58 50
3 59 58 61
3 58 60 61
3 52 56 55
3 57 54 55
3 57 55 56
3 58 59 56
3 56 59 57
3 64 63 65
3 62 63 64
3 63 66 65
3 67 68 69
3 70 71 72
3 72 71 73
3 75 74 76
3 76 74 77
3 79 78 80
3 79 80 81
3 81 80 82
3 83 78 75
3 76 83 75
3 84 80 83
3 80 78 83
3 86 80 84
3 86 85 80
3 85 82 80
3 83 88 87
3 83 76 88
3 88 76 89
3 91 90 92
3 92 90 93
3 95 94 91
3 91 94 90
3 94 97 96
3 95 97 94
3 96 97 98
3 97 99 98
3 92 95 91
3 100 97 95
3 100 101 97
3 101 99 97
3 102 95 92
3 100 95 103
3 95 102 103
3 100 103 101
3 103 102 104
3 103 104 105
3 106 107 108
3 108 107 109
3 110 112 111
3 110 114 112
3 114 113 112
3 110 111 115
3 115 114 110
3 114 115 116
3 114 117 113
3 118 117 119
3 117 114 119
3 119 114 121
3 119 121 120
3 122 114 116
3 114 123 121
3 122 123 114
3 123 124 121
3 125 124 123
3 127 126 128
3 128 126 129
3 128 129 130
3 130 129 131
3 133 127 132
3 128 132 127
3 134 128 130
3 134 130 135
3 137 138 136
3 139 140 138
3 141 143 142
3 144 143 141
3 145 146 147
3 146 148 147
3 150 151 149
3 152 151 150
3 153 155 154
3 156 155 153
3 158 159 157
3 157 159 160
3 162 163 161
3 153 165 156
3 165 164 156
3 165 166 167
3 153 166 165
3 167 168 169
3 166 168 167
3 169 170 171
3 168 170 169
3 174 172 173
3 172 177 175
3 172 175 173
3 173 175 176
3 179 178 180
3 180 178 181
3 183 182 184
3 185 183 184
3 187 186 185
3 187 185 188
3 188 185 184
3 190 189 191
3 191 189 192
3 194 193 195
3 197 194 195
3 197 195 196
3 198 197 196
3 199 198 200
3 200 198 196
3 202 201 203
3 203 201 204
3 206 205 207
3 207 205 208
3 210 209 211
3 210 211 218
3 218 211 212
3 218 212 213
3 218 213 214
3 215 210 216
3 209 210 215
3 217 210 218
3 210 217 216
3 225 219 220
3 225 220 221
3 221 222 223
3 223 222 224
3 226 225 221
3 223 227 226
3 223 226 221
3 227 223 228
3 230 229 231
3 230 231 232
3 232 233 230
3 234 233 232
3 235 229 230
3 230 236 237
3 230 237 235
3 230 233 236
3 238 229 235
3 240 239 241
3 241 239 242
3 244 243 245
3 245 243 246
3 248 247 249
3 249 247 250
3 249 250 251
3 253 249 254
3 248 249 253
3 254 249 251
3 256 254 252
3 252 254 251
3 255 254 256
3 256 252 257
3 259 258 260
3 259 260 261
3 258 263 262
3 259 263 258
3 262 265 266
3 262 263 265
3 263 264 265
3 259 268 263
3 263 268 264
3 269 259 261
3 259 269 268
3 271 270 268
3 269 261 272
3 272 261 267
3 274 270 271
3 273 270 274
3 268 269 271
3 271 269 274
3 276 275 277
3 277 275 278
3 279 281 280
3 280 281 282
3 281 278 282
3 277 278 281
3 283 284 279
3 279 284 281
3 277 281 284
3 277 284 286
3 277 286 285
3 286 284 287
3 288 291 290
3 289 291 288
3 290 286 287
3 290 291 286
3 291 292 286
3 294 291 293
3 291 289 293
3 295 284 283
3 297 296 298
3 301 296 299
3 299 296 297
3 300 301 299
3 302 301 300
3 302 300 304
3 303 302 304
3 306 305 307
3 307 305 308
3 307 308 310
3 309 307 310
3 311 307 309
3 312 307 311
3 312 311 313
3 311 314 313
3 315 306 307
3 315 307 312
3 312 313 316
3 320 322 321
3 328 317 318
3 323 318 319
3 323 319 324
3 319 320 324
3 324 320 325
3 320 321 325
3 326 328 318
3 326 318 323
3 324 325 327
3 329 328 326
3 323 330 329
3 323 329 326
3 330 323 331
3 323 324 331
3 331 324 332
3 324 327 332
3 334 333 335
3 336 334 335
3 336 337 334
3 334 337 338
3 337 339 338
3 340 334 341
3 341 334 342
3 334 338 342
3 342 338 343
3 338 344 343
3 340 333 334
3 341 342 345
3 340 347 346
3 340 346 333
3 347 340 348
3 348 340 341
3 348 341 345
3 345 342 349
3 351 350 352
3 352 350 353
3 352 353 354
3 354 353 355
3 356 358 357
3 357 358 359
3 358 355 359
3 354 355 358
3 360 362 363
3 362 361 363
3 367 368 364
3 364 368 365
3 367 364 369
3 369 364 366
3 370 372 371
3 371 372 373
3 374 375 370
3 370 375 372
3 376 377 378
3 378 377 379
3 380 379 381
3 378 379 380
3 382 380 381
3 383 385 384
3 384 385 386
3 385 381 386
3 382 381 385
3 387 380 388
3 388 380 382
3 389 391 390
3 390 391 392
3 396 397 394
3 396 394 395
3 395 394 393
3 395 398 396
3 396 398 399
3 398 401 399
3 400 401 398
3 395 402 403
3 395 403 398
3 405 404 406
3 405 406 407
3 407 406 408
3 409 411 410
3 410 411 412
3 411 408 412
3 407 408 411
3 413 405 407
3 413 407 414
3 414 407 415
3 411 416 407
3 416 415 407
3 417 414 415
3 418 417 419
3 419 417 415
3 419 415 420
3 420 415 416
3 422 421 423
3 424 421 422
3 421 424 427
3 425 427 424
3 426 427 425
3 428 430 429
3 432 433 431
3 435 434 436
3 436 434 437
3 438 435 436
3 439 435 440
3 440 435 438
3 442 441 443
3 443 441 444
3 445 442 443
3 447 446 445
3 447 445 448
3 448 445 443
3 450 449 451
3 451 452 450
3 453 452 451
3 452 453 454
3 454 453 455
3 456 458 457
3 456 459 458
3 456 460 459
3 460 461 459
3 462 458 459
3 459 461 463
3 464 462 459
3 464 459 463
3 466 465 462
3 467 466 468
3 465 466 467
3 469 466 462
3 464 469 462
3 466 469 468
3 470 469 464
3 470 464 463
3 471 473 472
3 475 474 476
3 476 474 472
3 476 472 477
3 477 472 473
3 479 478 476
3 476 478 475
3 480 479 476
3 477 480 476
3 479 480 481
3 484 485 482
3 484 482 483
3 484 483 486
3 483 488 486
3 488 487 486
3 491 490 489
3 483 492 488
3 493 495 496
3 495 494 496
3 493 498 497
3 496 498 493
3 497 498 499
3 500 493 501
3 501 493 502
3 502 493 497
3 503 506 505
3 504 506 503
3 505 506 507
3 510 509 508
3 509 510 512
3 509 512 511
3 512 513 511
3 511 513 514
3 513 515 514
3 509 521 508
3 521 509 516
3 516 509 511
3 511 514 517
3 518 516 511
3 518 511 519
3 519 511 520
3 511 517 520
3 519 520 522
3 526 528 527
3 529 523 524
3 525 526 530
3 530 526 531
3 526 527 531
3 532 529 524
3 532 524 525
3 533 532 525
3 533 525 530
3 530 531 534
3 535 532 533
3 535 533 530
3 530 534 536
3 538 539 540
3 539 541 540
3 540 541 542
3 541 543 542
3 550 537 544
3 544 537 538
3 538 545 544
3 540 545 538
3 540 542 546
3 545 547 544
3 547 549 548
3 545 549 547
3 551 544 547
3 551 547 552
3 547 548 552
3 555 554 556
3 555 558 557
3 555 556 558
3 557 559 561
3 557 558 559
3 558 560 559
3 568 553 554
3 562 554 555
3 563 562 555
3 561 559 563
3 559 564 563
3 565 568 554
3 565 554 562
3 562 563 566
3 566 563 567
3 563 564 567
3 569 565 562
3 569 562 570
3 562 566 570
3 572 571 573
3 573 571 574
3 576 575 577
3 577 575 578
3 580 579 581
3 581 579 582
3 583 586 584
3 585 586 583
3 588 587 589
3 590 588 589
3 591 588 590
3 591 590 589
3 593 592 594
3 594 592 595
3 596 598 597
3 602 597 598
3 599 597 602
3 602 600 599
3 601 600 602
3 604 603 605
3 605 603 606
3 608 607 609
3 609 607 610
3 612 611 613
3 614 612 613
3 614 613 615
3 613 619 615
3 616 619 617
3 616 618 619
3 618 615 619
3 625 620 621
3 622 620 625
3 623 624 622
3 624 620 622
3 627 626 628
3 628 626 629
3 630 629 631
3 628 629 630
3 633 632 634
3 634 632 635
3 637 636 638
3 638 636 639
3 640 641 638
3 641 637 638
3 642 640 643
3 642 641 640
3 647 646 644
3 645 647 644
3 644 648 645
3 648 649 645
3 648 643 649
3 642 643 648
3 650 652 653
3 652 651 653
3 656 655 654
3 650 657 654
3 650 653 657
3 655 656 664
3 664 656 658
3 664 658 659
3 661 662 660
3 650 661 663
3 661 660 663
3 663 652 650
3 661 654 655
3 661 650 654
3 666 665 667
3 667 665 668
3 669 666 667
3 670 669 667
3 671 670 672
3 672 670 667
3 674 673 675
3 674 675 676
3 678 674 676
3 678 676 677
3 679 678 677
3 680 674 678
3 681 678 679
3 681 679 682
3 679 677 682
