ply
format ascii 1.0
element vertex 957
property float x
property float y
property float z
element face 787
property list uchar int vertex_indices
end_header
-0.1145 1.3532 3.5943
-0.1317 1.3917 3.5928
-0.1165 1.3917 3.6181
-0.1605 1.2917 3.4899
-0.1612 1.3917 3.4898
-0.1119 1.2917 3.5645
1.5833 0.3917 2.5371
1.6039 0.4917 2.5389
1.6571 0.3917 2.4432
1.6547 0.4917 2.4430
1.6087 0.2917 2.4390
1.6571 0.3917 2.4432
1.6513 0.2917 2.3423
1.6723 0.2917 2.2437
1.6728 0.3917 2.2438
1.7176 0.3338 2.1473
1.6179 0.3244 2.1386
1.6149 0.2917 2.1739
1.7120 0.3917 2.2118
1.6547 0.4917 2.4430
1.6640 0.4917 2.3434
1.6722 0.4917 2.2437
1.7176 0.4917 2.1473
1.5443 0.8917 2.5337
1.5747 0.8917 2.6368
1.5920 0.9155 2.4375
1.4924 0.9073 2.4289
1.4871 0.8917 2.4891
1.5574 0.8917 2.8360
1.6182 0.9920 2.8413
1.6397 0.9916 2.4416
1.6099 1.2917 2.8406
1.6314 1.2917 2.4409
1.5920 0.9155 2.4375
1.4924 0.9073 2.4289
1.5010 0.8917 2.3292
1.6006 0.8917 2.3379
1.6397 0.9916 2.4416
1.6532 0.8917 2.2427
1.6504 0.9915 2.2421
1.6477 1.0913 2.2421
1.6449 1.1918 2.2413
1.6314 1.2917 2.4409
1.6422 1.2917 2.2413
1.5920 0.6917 2.4375
1.4924 0.6472 2.4289
1.5010 0.6917 2.3292
1.6006 0.6917 2.3379
1.7089 0.7917 2.2469
1.5038 0.7917 2.2968
1.6006 0.8917 2.3379
1.5010 0.8917 2.3292
1.6547 0.4917 2.4430
1.6515 0.5917 2.4427
1.6640 0.4917 2.3434
1.6650 0.5917 2.3435
1.6722 0.4917 2.2437
1.6765 0.5917 2.2441
1.7176 0.4917 2.1473
1.6901 0.5917 2.1449
1.6770 0.6917 2.2441
1.6532 0.8917 2.2427
1.6039 0.4917 2.5389
1.5833 0.5917 2.5371
1.6547 0.4917 2.4430
1.6515 0.5917 2.4427
1.5920 0.6917 2.4375
1.4784 0.9917 3.4314
1.5831 1.0911 3.4412
1.4010 0.9917 3.4811
1.4769 0.9917 3.3309
1.5228 0.9917 3.2345
1.5006 1.2917 3.4854
1.4011 1.2917 3.4801
1.6138 1.0649 3.3428
1.5939 1.0913 3.2407
1.6033 1.2917 3.4634
1.5884 1.2917 3.2402
1.5776 1.2917 3.4413
1.5228 0.9917 3.2345
1.4232 0.9917 3.2259
1.4405 0.8917 3.0266
1.5351 0.8917 3.0932
1.5348 0.9917 3.0963
1.4347 0.9917 3.0934
1.4318 1.0086 3.1262
1.5855 0.8917 3.0392
1.6074 0.9922 3.0406
1.5487 0.8917 2.9356
1.6128 0.9920 2.9409
1.5574 0.8917 2.8360
1.6182 0.9920 2.8413
1.5939 1.0913 3.2407
1.5884 1.2917 3.2402
1.6099 1.2917 2.8406
-1.1707 0.8917 3.0431
-1.0717 0.8917 3.0581
-1.0736 0.9917 3.0808
-1.1738 0.9917 3.0788
-1.0848 1.0286 3.2089
-1.1844 1.0295 3.2002
-1.1757 0.9977 3.1006
-0.9730 0.8917 3.0775
-0.9753 0.9917 3.1047
-0.9851 1.0151 3.2175
-0.9765 0.9969 3.1179
-1.0689 0.7917 3.0258
-0.9713 0.7917 3.0579
-0.9730 0.8917 3.0775
-1.0717 0.8917 3.0581
-0.9713 0.7917 3.0579
-0.8726 0.7917 3.0778
-0.8745 0.8917 3.0991
-0.9730 0.8917 3.0775
-0.7772 0.8917 3.1352
-0.7756 0.7917 3.1167
-0.6776 0.7917 3.1439
-0.6803 0.8917 3.1743
-0.6132 0.7917 3.3502
-0.6111 0.8917 3.3504
-0.5975 0.7920 3.3772
-0.5975 0.8917 3.3769
-0.6265 0.7917 3.2487
-0.6253 0.8917 3.2488
-0.8769 0.9223 3.1266
-0.9596 0.9917 3.1194
-0.9730 0.8917 3.0775
-0.8745 0.8917 3.0991
-0.9753 0.9917 3.1047
-0.9765 0.9969 3.1179
-0.7772 0.8917 3.1352
-0.6253 0.8917 3.2488
-0.7835 0.9917 3.2071
-0.6964 1.0336 3.3713
-0.7772 0.8917 3.1352
-0.6803 0.8917 3.1743
-0.7962 1.0431 3.3660
-0.7967 1.0918 3.3658
-0.7859 1.0034 3.2348
-0.7970 1.1918 3.3655
-0.7971 1.2917 3.3652
-0.6111 0.8917 3.3504
-0.5966 0.9918 3.3766
-0.5975 0.8917 3.3769
-0.5974 1.2917 3.3756
-0.5975 0.7920 3.3772
-0.4992 0.7916 3.3824
-0.5975 0.8917 3.3769
-0.3995 0.7916 3.3876
-0.2998 0.7915 3.3928
-0.1978 0.7916 3.3981
-0.1978 0.8917 3.3978
-0.5975 0.8917 3.3769
-0.5974 1.2917 3.3756
-0.2977 1.1917 3.3916
-0.1978 0.8917 3.3978
-0.1977 1.0916 3.3972
-0.2054 1.1917 3.4860
-0.1977 1.2917 3.3965
-0.1577 1.0917 3.4901
-0.2054 1.1917 3.4860
-0.1104 1.0917 3.5475
-0.1122 1.1917 3.5688
-0.1605 1.2917 3.4899
-0.1119 1.2917 3.5645
-1.7960 2.8917 3.3078
-1.6952 3.0918 3.3125
-1.7959 3.0917 3.3072
-1.5957 3.0918 3.3177
-1.4954 3.0918 3.3229
-1.3963 2.8917 3.3287
-1.3962 3.0921 3.3281
-1.3923 3.1361 3.2826
-1.4919 3.1353 3.2739
-1.3963 2.8917 3.3287
-1.2949 3.0919 3.3334
-1.3962 3.0921 3.3281
-1.2927 3.0917 3.2912
-1.3923 3.1361 3.2826
-1.1930 3.1295 3.2999
-0.9938 3.1334 3.3172
-1.0848 3.1661 3.2089
-1.1844 3.1672 3.2002
-0.9966 2.8917 3.3496
-0.9965 3.0918 3.3490
-0.9851 3.1409 3.2175
-0.9966 2.8917 3.3496
-0.9965 3.0918 3.3490
-0.9938 3.1334 3.3172
-0.9851 3.1409 3.2175
-0.8769 3.1429 3.1266
-0.9765 3.1509 3.1179
-0.6949 3.1233 3.3431
-0.6863 3.1498 3.2435
-0.7772 3.1459 3.1352
-0.6968 3.0917 3.3647
-0.6776 3.1506 3.1439
-0.5969 2.8917 3.3705
-0.5968 3.1920 3.3696
-0.5953 3.1917 3.3518
-0.5866 3.1523 3.2521
-0.5780 3.1491 3.1525
-0.5969 2.8917 3.3705
-0.4968 3.0917 3.3751
-0.5968 3.1920 3.3696
-0.5953 3.1917 3.3518
-0.5866 3.1523 3.2521
-0.4784 3.1570 3.1612
-0.5780 3.1491 3.1525
-0.3467 3.1102 3.3829
-0.2878 3.1631 3.2781
-0.2705 3.1277 3.0788
-0.3701 3.0917 3.0702
-0.4697 3.1438 3.0615
-0.1795 3.1499 3.1871
-0.1972 2.8917 3.3915
-0.1972 3.0921 3.3908
-0.1971 3.1683 3.3906
-0.1708 3.1319 3.0875
1.4015 2.8917 3.4751
1.5031 2.8917 3.4804
1.5031 3.0919 3.4797
1.4016 3.0919 3.4744
1.5055 3.1917 3.4338
1.4059 3.1500 3.4251
1.5031 3.1919 3.4794
1.4278 3.1917 3.3266
1.4145 3.1756 3.3255
1.6029 2.9919 3.4853
-1.7961 2.4917 3.3091
-1.3964 2.4917 3.3300
-1.3963 2.8917 3.3287
-1.7960 2.8917 3.3078
-1.7962 2.1918 3.3101
-1.6958 2.1918 3.3153
-1.7961 2.4917 3.3091
-1.5955 2.1918 3.3206
-1.4961 2.1918 3.3258
-1.3965 2.1918 3.3310
-1.3964 2.4917 3.3300
-1.3964 2.4917 3.3300
-0.9967 2.4917 3.3509
-0.9966 2.8917 3.3496
-1.3963 2.8917 3.3287
-1.3965 2.1918 3.3310
-1.2962 2.1918 3.3362
-1.3964 2.4917 3.3300
-1.1969 2.1917 3.3414
-1.0962 2.1918 3.3467
-0.9968 2.1918 3.3519
-0.9967 2.4917 3.3509
-0.9967 2.4917 3.3509
-0.5970 2.4917 3.3718
-0.5969 2.8917 3.3705
-0.9966 2.8917 3.3496
-0.9968 2.0917 3.3522
-0.5971 2.0917 3.3731
-0.5970 2.4917 3.3718
-0.9967 2.4917 3.3509
-0.7968 1.6917 3.3639
-0.6963 1.6917 3.3692
-0.6963 1.7918 3.3689
-0.7971 1.7917 3.3636
-0.7967 1.8918 3.3633
-0.7968 1.9918 3.3630
-0.7971 2.0917 3.3626
-0.5881 1.6917 3.2686
-0.5888 1.7917 3.2776
-0.5972 1.8918 3.3737
-0.5971 2.0917 3.3731
-0.7971 1.2917 3.3652
-0.7971 1.3917 3.3649
-0.7971 1.4917 3.3645
-0.7969 1.5918 3.3642
-0.6963 1.6917 3.3692
-0.7968 1.6917 3.3639
-0.5974 1.2917 3.3756
-0.5973 1.5918 3.3747
-0.5953 1.6080 3.3518
-0.5881 1.6917 3.2686
-0.5974 1.2917 3.3756
-0.5973 1.5918 3.3747
-0.3975 1.5917 3.3851
-0.5953 1.6080 3.3518
-0.4870 1.6917 3.2608
-0.5881 1.6917 3.2686
-0.2971 1.6917 3.3901
-0.3926 1.6917 3.3296
-0.1977 1.2917 3.3965
-0.1976 1.6917 3.3953
-0.5971 2.0917 3.3731
-0.1974 2.0917 3.3940
-0.1973 2.4917 3.3927
-0.5970 2.4917 3.3718
-0.5970 2.4917 3.3718
-0.1973 2.4917 3.3927
-0.1972 2.8917 3.3915
-0.5969 2.8917 3.3705
-0.5881 1.6917 3.2686
-0.4870 1.6917 3.2608
-0.4885 1.7917 3.2783
-0.5888 1.7917 3.2776
-0.3968 1.8918 3.3842
-0.5972 1.8918 3.3737
-0.5971 2.0917 3.3731
-0.3926 1.6917 3.3296
-0.2971 1.6917 3.3901
-0.1974 2.0917 3.3940
-0.1976 1.6917 3.3953
0.5034 0.3919 3.4361
0.6015 0.3918 3.4412
0.6015 0.4917 3.4409
0.5034 0.4917 3.4358
1.3841 0.9149 2.5198
1.2845 0.9228 2.5112
1.3927 0.9181 2.4202
1.2931 0.9215 2.4116
1.4269 0.8917 2.6239
1.3754 0.9102 2.6195
1.4543 0.8917 2.5259
1.4924 0.9073 2.4289
1.4871 0.8917 2.4891
1.1054 0.6917 2.2610
1.2044 0.6917 2.2772
1.1051 0.7917 2.2652
1.2042 0.8917 2.2791
1.1049 0.8917 2.2675
1.3044 0.6917 2.2819
1.3031 0.8917 2.2970
1.4038 0.6917 2.2933
1.4040 0.7917 2.2904
1.4014 0.8917 2.3206
1.5010 0.6917 2.3292
1.5038 0.7917 2.2968
1.5010 0.8917 2.3292
0.9942 0.9343 2.3856
0.8946 0.9279 2.3770
1.0029 0.9041 2.2860
0.9033 0.9030 2.2773
1.0939 0.9277 2.3943
1.1025 0.9033 2.2946
1.0054 0.8917 2.2568
1.1049 0.8917 2.2675
0.9075 0.6917 2.2281
1.0052 0.6917 2.2589
1.0058 0.7917 2.2525
0.9061 0.7917 2.2440
1.0054 0.8917 2.2568
0.9055 0.8917 2.2517
1.1054 0.6917 2.2610
1.1051 0.7917 2.2652
1.1049 0.8917 2.2675
1.1935 0.9265 2.4029
1.0939 0.9277 2.3943
1.2021 0.9043 2.3033
1.1025 0.9033 2.2946
1.1049 0.8917 2.2675
1.2042 0.8917 2.2791
1.2931 0.9215 2.4116
1.3031 0.8917 2.2970
1.3927 0.9181 2.4202
1.4014 0.8917 2.3206
1.4924 0.9073 2.4289
1.5010 0.8917 2.3292
0.6016 0.8917 3.4396
0.7017 0.9918 3.4445
0.6016 0.9918 3.4393
1.0013 0.8917 3.4605
0.8011 1.0917 3.4494
0.7014 1.0917 3.4442
0.8999 1.0916 3.4546
0.8328 1.0917 3.4757
1.0013 1.0916 3.4599
-0.1577 1.0917 3.4901
-0.2054 1.1917 3.4860
-0.1977 1.0916 3.3972
-0.1605 1.2917 3.4899
-0.2054 1.1917 3.4860
-0.1977 1.2917 3.3965
0.3012 0.8917 3.4239
0.4009 0.8917 3.4291
0.4015 0.9917 3.4288
0.2979 0.9917 3.4696
0.5018 0.9917 3.4341
0.6016 0.8917 3.4396
0.6016 0.9918 3.4393
0.3010 0.7917 3.4242
0.4014 0.7917 3.4295
0.4009 0.8917 3.4291
0.3012 0.8917 3.4239
0.5019 0.7918 3.4347
0.5034 0.4917 3.4358
0.6015 0.4917 3.4409
0.5024 0.5918 3.4354
0.5019 0.6918 3.4350
0.6016 0.8917 3.4396
1.0087 0.2917 3.3750
1.1082 0.2917 3.3856
1.1094 0.3917 3.3715
1.0096 0.3917 3.3647
1.1087 0.4917 3.3797
1.0092 0.4917 3.3698
0.6015 0.4917 3.4409
0.9020 0.4917 3.4566
0.6016 0.8917 3.4396
0.9019 0.7918 3.4556
0.9805 0.4917 3.3882
0.9643 0.5917 3.3868
1.0092 0.4917 3.3698
1.0093 0.5917 3.3680
1.0105 0.6917 3.3548
1.0103 0.7917 3.3565
1.0074 0.8233 3.3905
1.0013 0.8917 3.4605
0.6015 0.3918 3.4412
0.7020 0.3918 3.4465
0.9020 0.4917 3.4566
0.6015 0.4917 3.4409
0.8017 0.3918 3.4517
0.8022 0.2918 3.4520
0.9077 0.2917 3.3819
0.9026 0.3919 3.4569
1.0087 0.2917 3.3750
1.0096 0.3917 3.3647
0.9805 0.4917 3.3882
1.0092 0.4917 3.3698
1.0013 0.8917 3.4605
1.4010 0.8917 3.4814
1.4011 1.2917 3.4801
1.0014 1.2917 3.4592
1.0092 0.4917 3.3698
1.1087 0.4917 3.3797
1.1094 0.5917 3.3714
1.0093 0.5917 3.3680
1.1089 0.6917 3.3774
1.0105 0.6917 3.3548
1.1085 0.7917 3.3820
1.0103 0.7917 3.3565
1.1070 0.8157 3.3992
1.0074 0.8233 3.3905
1.1017 0.8917 3.4658
1.0013 0.8917 3.4605
1.4169 0.9917 3.1249
1.4318 1.0086 3.1262
1.4232 0.9917 3.2259
1.4347 0.9917 3.0934
1.0016 2.0917 3.4567
1.4013 2.0917 3.4776
1.4014 2.4917 3.4763
1.0017 2.4917 3.4554
1.0017 2.4917 3.4554
1.4014 2.4917 3.4763
1.4015 2.8917 3.4751
1.0018 2.8917 3.4542
1.0014 1.2917 3.4592
1.4011 1.2917 3.4801
1.4012 1.6917 3.4789
1.0015 1.6917 3.4580
-0.1605 1.2917 3.4899
-0.1612 1.3917 3.4898
-0.1977 1.2917 3.3965
-0.1976 1.3918 3.3962
-0.1649 2.0917 3.3891
-0.1974 2.1918 3.3937
-0.1974 2.0917 3.3940
-0.1974 2.1918 3.3937
0.2023 2.1917 3.4146
-0.1973 2.4917 3.3927
0.2024 2.4917 3.4136
-0.1973 2.4917 3.3927
0.2024 2.4917 3.4136
0.2025 2.8917 3.4124
-0.1972 2.8917 3.3915
0.2021 2.1917 3.4146
0.3024 2.1918 3.4198
0.2024 2.4917 3.4136
0.4027 2.1918 3.4251
0.5027 2.1918 3.4303
0.6020 2.1918 3.4355
0.6020 2.4917 3.4345
0.2024 2.4917 3.4136
0.6020 2.4917 3.4345
0.6022 2.8917 3.4333
0.2025 2.8917 3.4124
0.6020 2.4917 3.4345
1.0017 2.4917 3.4554
1.0018 2.8917 3.4542
0.6022 2.8917 3.4333
0.6020 2.1918 3.4355
0.7022 2.1918 3.4407
0.6020 2.4917 3.4345
0.8016 2.1917 3.4459
0.9021 2.1918 3.4512
1.0005 2.0917 3.4566
1.0016 2.0916 3.4567
0.9014 2.0917 3.4515
1.0017 2.4917 3.4554
1.0015 1.6917 3.4580
1.4012 1.6917 3.4789
1.4013 2.0917 3.4776
1.0016 2.0917 3.4567
1.6099 1.2917 2.8406
1.6314 1.2917 2.4409
1.6044 1.4921 2.8401
1.6098 1.4923 2.7395
1.6071 1.5924 2.7391
1.6124 1.5925 2.6392
1.6178 1.5923 2.5394
1.6232 1.5922 2.4402
1.6150 1.6917 2.5398
1.5920 1.6917 2.4375
1.6314 1.2917 2.4409
1.6422 1.2917 2.2413
1.6394 1.3917 2.2409
1.6367 1.4916 2.2408
1.6232 1.5922 2.4402
1.6286 1.5918 2.3403
1.6339 1.5912 2.2410
1.4011 1.2917 3.4801
1.5006 1.2917 3.4854
1.5722 1.3937 3.4889
1.5009 1.6917 3.4841
1.4012 1.6917 3.4789
1.5776 1.2917 3.4413
1.5735 1.4412 3.4404
1.6033 1.2917 3.4634
1.5884 1.2917 3.2402
1.5666 1.6917 3.4403
1.5774 1.6917 3.2392
1.5884 1.2917 3.2402
1.5910 1.3914 3.1404
1.6099 1.2917 2.8406
1.5964 1.3917 3.0402
1.6018 1.3920 2.9399
1.5774 1.6917 3.2392
1.5883 1.4910 3.1406
1.5990 1.4920 2.9397
1.6044 1.4921 2.8401
1.5855 1.5905 3.1411
1.6311 1.6917 3.1435
1.5841 2.4917 3.2398
1.5802 2.5917 3.2395
1.5972 2.4917 3.1406
1.5505 2.5917 3.1365
1.4014 2.4917 3.4763
1.5017 2.4917 3.4816
1.5031 2.8917 3.4804
1.4015 2.8917 3.4751
1.5542 2.4917 3.4380
1.5837 2.4917 3.3402
1.5962 2.5917 3.3413
1.5841 2.4917 3.2398
1.5802 2.5917 3.2395
1.6122 2.6917 3.3613
1.6138 2.6503 3.3428
1.5482 2.6917 3.2367
1.6150 2.6917 3.3290
1.6138 2.7120 3.3428
1.5706 2.7917 3.3390
1.5677 2.8917 3.3388
1.4013 2.0917 3.4776
1.5017 2.1918 3.4825
1.5017 2.4917 3.4816
1.4014 2.4917 3.4763
1.6025 2.0917 3.4881
1.6138 2.0917 3.3428
1.5774 2.1917 3.2392
1.5774 2.0917 3.2392
1.5609 2.0917 3.3395
1.5787 2.2917 3.3899
1.5727 2.2917 3.2388
1.5779 2.3917 3.2393
1.5542 2.4917 3.4380
1.5837 2.4917 3.3402
1.5841 2.4917 3.2398
1.6121 2.0917 3.4934
1.5719 1.8911 3.2388
1.5692 1.9911 3.2385
1.5773 1.8915 3.1392
1.5745 1.9916 3.1388
1.4012 1.6917 3.4789
1.5009 1.6917 3.4841
1.6025 2.0917 3.4881
1.4013 2.0917 3.4776
1.5666 1.6917 3.4403
1.5625 1.8418 3.4386
1.5774 1.6917 3.2392
1.5568 1.7917 3.2375
1.5719 1.8911 3.2388
1.6051 1.9917 3.4424
1.5637 1.9904 3.3401
1.5692 1.9911 3.2385
1.5774 2.0917 3.2392
1.5609 2.0917 3.3395
1.6138 1.9917 3.3428
1.6121 2.0917 3.4934
1.6138 2.0917 3.3428
-0.1972 2.8917 3.3915
-0.0972 3.0917 3.3960
-0.1972 3.0439 3.3910
-0.0593 3.1403 3.2477
-0.1971 3.1683 3.3906
-0.1795 3.1499 3.1871
-0.0712 3.0917 3.0961
-0.1708 3.1319 3.0875
0.2025 3.0920 3.4117
0.0284 3.0917 3.1048
0.2104 3.1441 3.3213
0.2190 3.1729 3.2217
0.1280 3.1331 3.1134
0.2025 2.8917 3.4124
0.2277 3.0917 3.1221
0.2025 2.8917 3.4124
0.2025 3.0920 3.4117
0.2104 3.1441 3.3213
0.2190 3.1729 3.2217
0.3273 3.1615 3.1307
0.2277 3.0917 3.1221
0.6022 2.8917 3.4333
0.6175 3.1573 3.2563
0.4269 3.1450 3.1394
0.6022 3.0920 3.4326
0.5092 3.1228 3.3473
0.5265 3.1508 3.1480
0.6089 3.1528 3.3559
0.6262 3.1607 3.1567
1.0018 2.8917 3.4542
1.0019 3.0922 3.4535
1.0074 3.1369 3.3905
1.2153 3.1917 3.3082
1.0160 3.1685 3.2909
1.1243 3.1650 3.1999
1.0247 3.1635 3.1913
1.4016 3.0919 3.4744
1.2037 3.1919 3.4638
1.2239 3.1461 3.2086
1.3062 3.1715 3.4165
1.3149 3.1724 3.3168
1.2153 3.1917 3.3082
1.4015 2.8917 3.4751
1.4059 3.1500 3.4251
1.4145 3.1756 3.3255
0.6022 2.8917 3.4333
0.6022 3.0920 3.4326
0.7127 3.1917 3.3162
0.6089 3.1528 3.3559
0.6708 3.1917 3.2609
0.6175 3.1573 3.2563
0.7258 3.1659 3.1653
0.6262 3.1607 3.1567
0.7225 3.1917 3.2035
0.9077 3.1519 3.3819
0.7770 3.1917 3.2701
0.8254 3.1374 3.1740
1.0247 3.1635 3.1913
0.9250 3.1616 3.1826
1.0018 2.8917 3.4542
1.0019 3.0922 3.4535
1.0074 3.1369 3.3905
1.0160 3.1685 3.2909
-2.7006 0.8917 3.3218
-2.6002 0.8917 3.3214
-2.6006 0.9917 3.3268
-2.6990 0.9917 3.3037
-2.6002 0.8917 3.3214
-2.4986 0.8917 3.3073
-2.6006 0.9917 3.3268
-2.5012 1.0917 3.3376
-2.6012 1.0917 3.3336
-2.3972 0.8917 3.2957
-2.3992 1.0917 3.3191
-2.2976 0.8917 3.3044
-2.2976 1.0917 3.3044
-2.2993 1.1917 3.3239
-2.3987 1.1917 3.3136
-2.1979 0.9487 3.3130
-2.1990 0.9917 3.3258
-2.1979 1.0457 3.3130
-2.1979 1.1917 3.3130
-2.2976 1.2165 3.3044
-2.0983 0.9917 3.3217
-2.1979 0.9487 3.3130
-2.1990 0.9917 3.3258
-2.0983 1.0917 3.3217
-2.1979 1.0457 3.3130
-2.1979 1.1917 3.3130
-2.0983 1.2917 3.3217
-2.2976 0.8917 3.3044
-2.1979 0.9487 3.3130
-2.1960 0.8917 3.2906
-2.1979 1.0457 3.3130
-2.2976 1.0917 3.3044
-2.1971 1.0917 3.3034
-2.1979 1.1917 3.3130
-2.1979 1.1917 3.3130
-2.2976 1.2165 3.3044
-2.1969 1.2917 3.3015
-2.2934 1.2917 3.2560
-2.0983 0.9917 3.3217
-2.1979 0.9487 3.3130
-2.1960 0.8917 3.2906
-2.0921 0.8917 3.2499
-2.0983 1.0917 3.3217
-2.1979 1.0457 3.3130
-2.1971 1.0917 3.3034
-2.1979 1.1917 3.3130
-2.0983 1.2917 3.3217
-2.1979 1.1917 3.3130
-2.1969 1.2917 3.3015
-1.9941 0.8917 3.2772
-1.9963 0.9917 3.3028
-1.9987 1.0917 3.3303
-1.9987 1.0917 3.3303
-2.0983 1.1917 3.3217
-1.9971 1.1917 3.3122
-2.0983 1.2917 3.3217
-1.9948 1.2917 3.2856
-2.0983 1.2917 3.3217
-2.0983 1.2917 3.3217
-2.1979 1.3917 3.3130
-2.1979 1.3917 3.3130
-2.1969 1.2917 3.3015
-2.0967 1.3917 3.3033
-2.0963 1.4917 3.2981
-2.1961 1.4917 3.2916
-2.0958 1.5917 3.2923
-2.1956 1.5917 3.2856
-1.9948 1.2917 3.2856
-1.9925 1.3917 3.2594
-1.9953 1.4917 3.2911
-2.1979 1.3917 3.3130
-2.2934 1.2917 3.2560
-2.1969 1.2917 3.3015
-2.2956 1.3917 3.2817
-0.1061 1.0448 1.1852
-0.2057 1.0448 1.1762
-0.1971 1.0253 1.0777
-0.0064 1.0447 1.1933
0.0021 1.0252 1.0950
-0.6310 0.2917 0.4377
-0.6200 0.3917 0.4387
-0.5409 0.2917 0.4128
-0.5414 0.4917 0.4189
-0.6123 0.4917 0.4394
-0.4416 0.2917 0.4254
-0.4429 0.3917 0.4406
-0.4441 0.4917 0.4540
-0.4441 0.4917 0.4540
-0.3499 0.5917 0.5256
-0.5414 0.4917 0.4189
-0.5420 0.5917 0.4257
-0.5437 0.6917 0.4453
-0.4459 0.6917 0.4746
-0.4614 0.7917 0.6532
-0.4527 0.7917 0.5536
-0.3480 0.4917 0.5037
-0.3470 0.6917 0.4918
-0.3618 0.7917 0.6619
-0.3531 0.7917 0.5622
-0.3791 0.9917 0.8611
-0.4700 0.8917 0.7529
-0.3743 0.8917 0.8066
-0.4751 0.9917 0.8112
-0.4700 0.7917 0.7529
-0.4614 0.7917 0.6532
-0.4700 0.8917 0.7529
-0.3704 0.7917 0.7615
-0.3618 0.7917 0.6619
-0.3743 0.8917 0.8066
-0.3428 0.8917 1.0650
-0.2967 0.9380 1.0690
-0.3597 0.8917 0.9632
-0.3587 0.9917 0.9633
-0.3901 0.8917 0.9888
-0.2927 0.8917 1.0229
-0.3902 0.9917 0.9898
-0.3620 0.8917 0.8626
-0.3791 0.9917 0.8611
-0.3743 0.8917 0.8066
-0.2333 0.9917 1.0745
-0.2182 0.8917 0.9755
-0.1798 0.8917 0.8784
-0.1851 0.9980 0.9399
-0.1971 1.0253 1.0777
0.0194 0.8917 0.8957
-0.0855 0.9979 0.9483
-0.0888 1.0055 0.9866
0.0139 0.9917 0.9595
0.0021 1.0252 1.0950
0.0108 1.0054 0.9952
-0.2708 0.7917 0.7701
-0.3704 0.7917 0.7615
-0.2621 0.7917 0.6705
-0.3618 0.7917 0.6619
-0.3428 0.8917 1.0650
-0.3964 0.8033 1.0604
-0.2881 0.7987 0.9694
-0.3597 0.8917 0.9632
-0.2927 0.8917 1.0229
-0.3901 0.8917 0.9888
-0.2794 0.7973 0.8698
-0.3620 0.8917 0.8626
-0.3743 0.8917 0.8066
-0.2182 0.8917 0.9755
-0.1798 0.8917 0.8784
-0.3166 0.4917 0.4650
-0.2751 0.5917 0.4686
-0.3480 0.4917 0.5037
-0.3499 0.5917 0.5256
-0.2448 0.6396 0.4713
-0.2469 0.6917 0.4947
-0.3470 0.6917 0.4918
-0.2789 0.5917 0.3679
-0.2362 0.6151 0.3716
-0.2621 0.7917 0.6705
-0.3618 0.7917 0.6619
-0.2535 0.7917 0.5709
-0.3531 0.7917 0.5622
-0.1452 0.5917 0.4799
-0.0471 0.6917 0.5059
-0.1452 0.7917 0.4799
-0.1539 0.8071 0.5795
-0.0515 0.5917 0.5570
0.0481 0.5917 0.5660
0.0525 0.6917 0.5153
0.0540 0.7917 0.4972
1.0157 0.4917 0.9822
1.0272 0.5917 0.9832
1.1067 0.4917 1.0905
1.1067 0.6574 1.0905
1.0745 0.4917 0.8869
1.0243 0.5917 0.8826
1.0916 0.6917 1.0892
1.1036 0.6917 1.1263
1.0243 0.6917 0.8826
1.1268 0.5917 0.8581
1.2253 0.6917 0.8805
1.0704 0.6917 1.1877
1.0980 0.7917 1.1901
1.1067 0.7169 1.0905
1.0980 0.4917 1.1901
1.0980 0.5917 1.1901
1.2268 0.5917 0.8631
1.1976 0.7740 1.1988
1.1802 0.7917 1.0969
1.2017 0.7917 1.1521
1.2149 0.7650 0.9995
1.2105 0.7917 1.0501
1.2236 0.7371 0.8999
1.0196 0.5917 1.2837
0.9897 0.6917 1.2811
1.0980 0.5917 1.1901
1.0704 0.6917 1.1877
1.0427 0.6917 1.3861
1.0807 0.7299 1.3894
1.0774 0.6917 1.4274
1.0776 0.7917 1.2887
1.0883 0.7917 1.3015
1.0980 0.7917 1.1901
0.3505 0.3917 0.5505
0.4497 0.3917 0.5641
0.4505 0.4917 0.5552
0.3498 0.4917 0.5593
0.5435 0.1917 0.6401
0.5522 0.1917 0.5405
0.5550 0.2917 0.5075
0.4472 0.1917 0.5932
0.4465 0.2917 0.6014
0.4497 0.3917 0.5641
0.5563 0.3917 0.4922
0.4864 0.4917 0.5348
0.4505 0.4917 0.5552
0.5551 0.4917 0.5069
0.6547 0.2917 0.5150
0.6546 0.3917 0.5167
0.6859 0.2917 0.5521
0.6842 0.3917 0.5519
0.4864 0.4917 0.5348
0.4712 0.5917 0.5334
0.4505 0.4917 0.5552
0.4516 0.5917 0.5430
0.5551 0.4917 0.5069
0.5540 0.5917 0.5189
0.4525 0.6917 0.5318
0.5540 0.6917 0.5189
0.5435 0.7284 0.6401
0.4598 0.7917 0.6328
0.5522 0.7134 0.5405
0.4614 0.7917 0.5326
0.1191 0.8917 0.9044
0.2100 0.7995 1.0126
0.1392 0.8917 1.0065
0.2187 0.7981 0.9130
0.3010 0.8035 1.1209
0.2014 0.8321 1.1123
0.3097 0.8002 1.0213
0.3183 0.8075 0.9217
0.2273 0.7917 0.8134
0.3270 0.8081 0.8220
0.2359 0.7924 0.7138
0.3351 0.8054 0.7224
0.0194 0.8917 0.8957
0.1191 0.8917 0.9044
0.1138 0.9917 0.9646
0.0139 0.9917 0.9595
0.1018 1.0251 1.1036
0.0021 1.0252 1.0950
0.1104 1.0054 1.0040
0.0108 1.0054 0.9952
0.1847 0.8917 1.1108
0.1381 0.9917 1.1068
0.1392 0.8917 1.0065
1.2268 0.5917 0.8631
1.3257 0.5917 0.8801
1.3254 0.6917 0.8832
1.2253 0.6917 0.8805
1.2161 0.7917 1.2004
1.1976 0.7740 1.1988
1.2017 0.7917 1.1521
0.0525 0.6917 0.5153
0.1522 0.6917 0.5224
0.1537 0.7917 0.5059
0.0540 0.7917 0.4972
0.2619 0.5337 0.4149
0.1965 0.5917 0.4092
0.2957 0.4917 0.3175
0.1933 0.5917 0.3086
0.1623 0.6733 0.4062
0.1710 0.6747 0.3066
0.2446 0.7917 0.6141
0.2513 0.6917 0.5368
0.1450 0.8070 0.6055
0.3268 0.4917 0.5209
0.2533 0.5592 0.5145
0.3498 0.4917 0.5593
0.4516 0.5917 0.5430
0.2480 0.5917 0.5758
0.3003 0.4917 0.4182
0.2359 0.7924 0.7138
0.3529 0.7917 0.5232
0.3351 0.8054 0.7224
0.3443 0.8141 0.6228
0.4505 0.4917 0.5552
0.4525 0.6917 0.5318
0.4533 0.7917 0.5229
0.1710 0.6747 0.3066
0.0713 0.6505 0.2980
0.1796 0.6740 0.2070
0.1389 0.6917 0.2035
0.0766 0.6917 0.2376
0.0800 0.7068 0.1983
0.2706 0.5170 0.3153
0.1933 0.5917 0.3086
0.2784 0.5917 0.2247
0.2208 0.6917 0.2106
0.2785 0.6917 0.2238
0.2792 0.7000 0.2156
3 2 0 1
3 0 5 3
3 0 3 1
3 1 3 4
3 6 7 8
3 8 7 9
3 10 11 12
3 12 11 13
3 17 13 14
3 17 14 15
3 17 15 16
3 18 15 14
3 11 19 13
3 13 19 20
3 13 20 14
3 14 20 21
3 18 21 22
3 14 21 18
3 23 26 27
3 23 25 26
3 28 29 24
3 24 29 30
3 23 24 30
3 25 23 30
3 29 31 30
3 30 31 32
3 33 35 34
3 36 35 33
3 36 33 37
3 36 37 38
3 37 42 38
3 38 42 39
3 39 42 40
3 40 42 41
3 41 42 43
3 45 46 44
3 44 46 47
3 46 48 47
3 49 48 46
3 50 49 51
3 48 49 50
3 52 53 54
3 54 53 55
3 54 55 56
3 56 55 57
3 58 56 59
3 56 57 59
3 53 44 55
3 55 44 47
3 55 47 57
3 57 47 60
3 48 60 47
3 48 50 61
3 62 63 64
3 64 63 65
3 63 66 65
3 68 67 69
3 68 70 67
3 68 69 72
3 72 69 73
3 68 74 70
3 71 70 74
3 71 74 75
3 68 72 76
3 75 74 68
3 75 68 77
3 76 78 68
3 78 77 68
3 82 81 83
3 83 81 84
3 79 85 80
3 83 85 79
3 83 84 85
3 87 86 82
3 83 87 82
3 86 87 88
3 88 87 89
3 88 89 90
3 90 89 91
3 83 79 92
3 83 92 87
3 87 92 94
3 87 94 89
3 89 94 91
3 92 93 94
3 96 95 97
3 97 95 98
3 100 98 101
3 97 98 100
3 102 96 103
3 103 96 97
3 104 105 99
3 99 105 100
3 105 97 100
3 103 97 105
3 107 106 108
3 108 106 109
3 111 110 112
3 112 110 113
3 114 115 112
3 115 111 112
3 116 114 117
3 116 115 114
3 121 120 118
3 119 121 118
3 118 122 119
3 122 123 119
3 122 117 123
3 116 117 122
3 124 128 125
3 124 127 128
3 127 126 128
3 125 128 129
3 130 127 124
3 133 131 132
3 131 135 132
3 135 134 132
3 137 144 133
3 136 137 133
3 132 138 133
3 138 136 133
3 144 137 139
3 144 139 140
3 142 143 141
3 133 142 131
3 142 141 131
3 142 133 144
3 146 145 147
3 148 146 147
3 149 148 147
3 150 149 151
3 151 149 147
3 154 152 153
3 155 152 156
3 157 156 154
3 156 152 154
3 157 154 158
3 154 153 158
3 159 160 161
3 161 160 162
3 160 163 164
3 160 164 162
3 166 165 167
3 170 165 168
3 168 165 166
3 169 170 168
3 171 170 169
3 171 169 173
3 172 171 173
3 175 174 176
3 175 176 178
3 177 175 178
3 183 174 175
3 179 175 177
3 180 175 179
3 180 179 181
3 179 182 181
3 184 183 175
3 184 175 180
3 180 181 185
3 189 191 190
3 197 186 187
3 192 187 188
3 192 188 193
3 188 189 193
3 193 189 194
3 189 190 194
3 195 197 187
3 195 187 192
3 193 194 196
3 198 197 195
3 192 199 198
3 192 198 195
3 199 192 200
3 192 193 200
3 200 193 201
3 193 196 201
3 203 202 204
3 205 203 204
3 205 206 203
3 203 206 207
3 206 208 207
3 209 203 210
3 210 203 211
3 203 207 211
3 211 207 212
3 207 213 212
3 209 202 203
3 210 211 214
3 209 216 215
3 209 215 202
3 216 209 217
3 217 209 210
3 217 210 214
3 214 211 218
3 221 219 222
3 224 223 225
3 224 225 222
3 222 225 221
3 227 223 224
3 226 223 227
3 228 220 219
3 221 228 219
3 230 229 231
3 231 229 232
3 234 233 235
3 236 234 239
3 239 234 235
3 237 236 239
3 238 237 239
3 241 240 242
3 242 240 243
3 245 244 246
3 247 245 250
3 250 245 246
3 248 247 250
3 249 248 250
3 252 251 253
3 253 251 254
3 256 255 257
3 257 255 258
3 260 259 261
3 261 259 262
3 261 262 269
3 269 262 263
3 269 263 264
3 269 264 265
3 266 261 267
3 260 261 266
3 268 261 269
3 261 268 267
3 276 270 271
3 276 271 272
3 276 272 273
3 276 273 274
3 274 273 275
3 274 278 277
3 274 277 276
3 278 274 279
3 282 281 283
3 283 284 282
3 285 284 283
3 282 280 281
3 282 287 286
3 284 287 282
3 288 280 282
3 282 286 288
3 289 288 286
3 291 290 292
3 292 290 293
3 295 294 296
3 296 294 297
3 299 298 300
3 300 298 301
3 302 301 303
3 300 301 302
3 302 303 304
3 305 299 300
3 305 300 302
3 306 302 307
3 306 305 302
3 307 302 304
3 308 306 307
3 310 309 311
3 311 309 312
3 313 315 314
3 314 315 316
3 319 318 317
3 313 318 319
3 321 313 319
3 321 320 313
3 320 315 313
3 322 324 325
3 325 324 326
3 327 323 322
3 327 322 328
3 328 322 325
3 329 327 330
3 331 330 328
3 330 327 328
3 332 329 333
3 329 330 333
3 334 330 331
3 333 330 334
3 335 337 336
3 336 337 338
3 339 340 335
3 335 340 337
3 340 341 337
3 342 341 340
3 344 343 345
3 345 343 346
3 345 346 347
3 347 346 348
3 349 344 350
3 350 344 345
3 350 345 351
3 351 345 347
3 352 354 353
3 353 354 355
3 354 356 355
3 357 356 354
3 358 359 352
3 352 359 354
3 359 357 354
3 361 359 360
3 359 358 360
3 362 361 360
3 363 361 362
3 365 364 366
3 367 364 365
3 367 365 368
3 368 365 369
3 370 368 371
3 370 367 368
3 372 367 370
3 373 375 374
3 377 378 376
3 380 379 381
3 381 379 382
3 380 381 383
3 384 380 385
3 385 380 383
3 387 386 388
3 388 386 389
3 387 388 390
3 392 391 393
3 392 393 394
3 392 394 395
3 395 394 390
3 395 390 388
3 397 396 398
3 398 396 399
3 398 399 400
3 400 399 401
3 403 402 404
3 405 403 404
3 407 406 403
3 405 407 403
3 408 407 409
3 406 407 408
3 410 407 405
3 407 410 409
3 411 410 405
3 412 411 405
3 412 405 413
3 413 405 404
3 415 414 416
3 416 414 417
3 418 415 416
3 420 419 421
3 421 419 418
3 421 418 416
3 421 422 420
3 424 422 421
3 416 424 421
3 423 424 425
3 422 424 423
3 427 426 428
3 428 426 429
3 431 430 432
3 432 430 433
3 432 433 434
3 434 433 435
3 434 435 436
3 436 435 437
3 441 440 438
3 439 441 438
3 438 437 439
3 436 437 438
3 444 443 442
3 442 443 445
3 447 446 448
3 448 446 449
3 451 450 452
3 452 450 453
3 455 454 456
3 456 454 457
3 458 461 459
3 460 461 458
3 462 464 463
3 466 465 467
3 468 466 467
3 470 469 471
3 471 469 472
3 473 475 474
3 475 476 474
3 477 476 475
3 478 477 479
3 479 477 475
3 481 480 482
3 482 480 483
3 485 484 486
3 486 484 487
3 489 488 490
3 491 489 496
3 496 489 490
3 492 491 496
3 493 496 494
3 493 495 496
3 495 492 496
3 498 497 499
3 499 497 500
3 501 503 504
3 501 504 502
3 504 505 502
3 502 505 506
3 502 506 507
3 502 507 508
3 507 509 508
3 508 509 510
3 512 511 513
3 513 511 514
3 511 515 516
3 511 516 514
3 514 516 517
3 519 518 520
3 520 518 522
3 520 522 521
3 524 523 525
3 524 525 520
3 520 525 519
3 524 526 523
3 524 528 526
3 524 520 521
3 524 521 527
3 527 528 524
3 529 530 531
3 531 530 532
3 531 532 533
3 529 534 530
3 530 534 535
3 533 536 531
3 531 536 537
3 538 535 534
3 538 534 539
3 540 541 542
3 542 541 543
3 545 544 547
3 545 547 546
3 549 548 550
3 549 550 551
3 551 550 552
3 553 548 545
3 554 550 553
3 550 548 553
3 556 550 554
3 556 555 550
3 555 552 550
3 546 553 545
3 553 558 557
3 553 546 558
3 558 546 559
3 561 560 563
3 561 563 562
3 561 564 560
3 564 566 565
3 561 566 564
3 565 567 568
3 565 566 567
3 566 561 569
3 569 570 566
3 562 569 561
3 569 571 570
3 572 569 562
3 569 572 571
3 571 572 573
3 571 573 574
3 565 575 564
3 576 577 578
3 578 577 579
3 581 580 582
3 582 580 583
3 585 584 581
3 584 585 586
3 582 585 581
3 586 585 588
3 586 588 587
3 589 585 582
3 585 590 588
3 589 590 585
3 590 591 588
3 593 591 590
3 592 591 593
3 594 590 589
3 582 595 589
3 589 595 594
3 594 595 596
3 599 598 597
3 598 599 601
3 598 601 600
3 601 602 600
3 600 602 603
3 602 604 603
3 598 610 597
3 610 598 605
3 605 598 600
3 600 603 606
3 607 605 600
3 607 600 608
3 608 600 609
3 600 606 609
3 608 609 611
3 615 617 616
3 618 612 613
3 614 615 619
3 619 615 620
3 615 616 620
3 621 618 613
3 621 613 614
3 622 621 614
3 622 614 619
3 619 620 623
3 624 621 622
3 624 622 619
3 619 623 625
3 627 628 629
3 628 630 629
3 629 630 631
3 630 632 631
3 639 626 633
3 633 626 627
3 627 634 633
3 629 634 627
3 629 631 635
3 634 636 633
3 636 638 637
3 634 638 636
3 640 633 636
3 640 636 641
3 636 637 641
3 644 643 645
3 644 647 646
3 644 645 647
3 646 648 650
3 646 647 648
3 647 649 648
3 656 642 643
3 651 643 644
3 652 651 644
3 650 648 652
3 648 653 652
3 651 652 654
3 654 652 655
3 652 653 655
3 657 656 643
3 657 643 651
3 658 657 651
3 658 651 659
3 651 654 659
3 661 660 662
3 662 660 663
3 664 666 667
3 667 666 668
3 665 664 670
3 670 664 667
3 671 669 665
3 671 665 672
3 672 665 670
3 672 670 673
3 673 670 674
3 675 671 676
3 672 677 676
3 672 676 671
3 678 672 673
3 678 673 679
3 681 682 680
3 684 683 682
3 682 683 680
3 685 686 683
3 687 688 689
3 690 691 692
3 691 693 692
3 695 696 694
3 697 696 695
3 698 700 699
3 701 700 698
3 703 704 702
3 702 704 705
3 707 708 706
3 698 710 701
3 710 709 701
3 698 711 710
3 712 713 714
3 714 715 716
3 713 715 714
3 717 721 720
3 718 719 722
3 719 724 722
3 724 723 722
3 723 724 725
3 725 724 726
3 718 722 727
3 722 728 727
3 728 722 729
3 729 722 723
3 730 732 733
3 732 731 733
3 734 738 735
3 735 738 736
3 737 738 734
3 741 740 742
3 741 739 740
3 740 743 742
3 744 741 745
3 745 741 742
3 746 745 742
3 747 750 748
3 749 750 747
3 748 751 752
3 748 750 751
3 755 747 748
3 756 748 752
3 757 758 753
3 753 758 754
3 758 752 754
3 756 752 758
3 759 761 762
3 761 760 762
3 766 767 763
3 763 767 764
3 766 763 768
3 768 763 765
3 773 772 775
3 773 771 772
3 774 769 770
3 777 772 776
3 772 771 776
3 776 778 777
3 774 770 779
3 774 779 780
3 781 780 782
3 779 782 780
3 783 782 779
3 784 781 785
3 785 781 782
3 788 786 783
3 783 786 782
3 785 782 786
3 787 784 785
3 788 789 786
3 790 792 791
3 791 792 793
3 797 799 795
3 797 795 796
3 794 798 795
3 798 796 795
3 796 800 801
3 797 796 801
3 800 802 801
3 800 790 802
3 790 791 802
3 803 804 796
3 796 804 800
3 806 805 807
3 808 806 807
3 809 806 808
3 809 808 810
3 810 808 811
3 806 813 812
3 809 813 806
3 814 816 815
3 815 816 817
3 816 811 817
3 810 811 816
3 818 809 810
3 818 810 819
3 816 820 810
3 820 819 810
3 816 821 820
3 822 818 819
3 823 822 824
3 824 822 819
3 824 819 825
3 825 819 820
3 829 826 828
3 827 826 829
3 826 827 830
3 830 827 831
3 833 832 829
3 829 832 827
3 827 832 831
3 831 832 834
3 835 834 836
3 831 834 835
3 837 839 832
3 838 839 837
3 839 834 832
3 840 841 828
3 828 841 829
3 842 835 836
3 845 844 839
3 845 839 843
3 843 839 838
3 844 847 846
3 844 846 839
3 846 848 839
3 839 848 834
3 848 836 834
3 851 849 852
3 849 850 852
3 855 854 853
3 857 853 854
3 857 856 853
3 856 850 853
3 858 852 856
3 852 850 856
3 860 859 861
3 861 859 862
3 863 866 867
3 863 867 864
3 864 867 865
3 868 865 867
3 865 868 869
3 871 870 868
3 869 870 872
3 868 870 869
3 873 865 874
3 874 865 869
3 875 874 876
3 873 874 875
3 878 877 879
3 880 878 879
3 881 878 882
3 877 878 881
3 883 878 880
3 882 883 884
3 878 883 882
3 888 886 883
3 886 885 883
3 885 887 883
3 889 891 890
3 889 890 892
3 893 895 894
3 894 895 890
3 895 896 890
3 890 896 892
3 897 892 898
3 892 896 898
3 897 900 899
3 898 900 897
3 902 901 903
3 903 901 904
3 905 907 906
3 906 907 908
3 909 911 910
3 911 903 910
3 902 903 911
3 903 905 910
3 907 905 903
3 913 912 914
3 914 912 915
3 917 916 918
3 920 919 921
3 921 919 922
3 923 925 926
3 924 923 926
3 926 927 924
3 928 927 926
3 929 930 921
3 930 920 921
3 929 921 931
3 932 933 936
3 932 936 934
3 934 936 935
3 937 933 932
3 923 933 937
3 925 923 937
3 929 939 930
3 939 936 930
3 938 941 929
3 940 941 938
3 929 941 939
3 942 934 935
3 943 935 936
3 939 943 936
3 943 939 944
3 948 949 946
3 948 946 947
3 947 946 945
3 948 950 949
3 951 953 952
3 952 947 945
3 952 955 947
3 952 953 955
3 954 947 955
3 955 956 954
