ply
format ascii 1.0
element vertex 1431
property float x
property float y
property float z
element face 1138
property list uchar int vertex_indices
end_header
-0.1145 1.2917 3.5943
-0.1145 1.3917 3.5943
-0.1796 1.3917 3.4882
-0.2054 1.2917 3.4860
-0.1058 1.4736 3.4946
-0.0106 1.2917 3.5546
-0.0099 1.3917 3.5456
1.5833 0.3917 2.5371
1.5833 0.4917 2.5371
1.6497 0.3917 2.4425
1.6535 0.4917 2.4428
1.6098 0.2917 2.4390
1.6497 0.3917 2.4425
1.6402 0.2917 2.3413
1.6538 0.2917 2.2421
1.6711 0.3917 2.2436
1.7176 0.3633 2.1473
1.6179 0.3256 2.1386
1.6139 0.2917 2.1846
1.7147 0.3917 2.1799
1.6535 0.4917 2.4428
1.6563 0.4917 2.3427
1.6660 0.4917 2.2432
1.7176 0.4917 2.1473
1.5533 0.8917 2.6349
1.5660 0.8917 2.7364
1.5488 0.8917 2.5341
1.5832 0.9302 2.5364
1.5921 0.9206 2.4375
1.4924 0.9182 2.4289
1.4881 0.8917 2.4782
1.5574 0.8917 2.8360
1.6087 0.9918 2.8405
1.6256 0.9918 2.4404
1.6104 1.2917 2.8406
1.6273 1.2917 2.4406
1.5921 0.9206 2.4375
1.4924 0.9182 2.4289
1.6007 0.9109 2.3384
1.5159 0.8917 2.1577
1.6025 0.8917 2.3162
1.6256 0.9918 2.4404
1.6334 0.8917 2.2419
1.6340 0.9919 2.2418
1.6346 1.0918 2.2412
1.6351 1.1918 2.2412
1.6273 1.2917 2.4406
1.6393 1.1919 2.1418
1.6399 1.2917 2.1417
1.5920 0.6515 2.4375
1.4924 0.6263 2.4289
1.6006 0.6917 2.3379
1.5010 0.6811 2.3292
1.5029 0.6917 2.3080
1.6773 0.7917 2.2442
1.5051 0.7917 2.2820
1.6025 0.8917 2.3162
1.5159 0.8917 2.1577
1.6535 0.4917 2.4428
1.6441 0.5917 2.4420
1.6563 0.4917 2.3427
1.6660 0.4917 2.2432
1.6670 0.5917 2.2433
1.7176 0.4917 2.1473
1.6848 0.5917 2.1444
1.6598 0.6917 2.2426
1.6334 0.8917 2.2419
1.6912 0.7917 2.1450
1.6705 0.8917 2.1432
1.5833 0.4917 2.5371
1.6535 0.4917 2.4428
1.6441 0.5917 2.4420
1.5869 0.5917 2.4965
1.5920 0.6515 2.4375
1.4552 0.9917 3.4294
1.5268 1.0917 3.4549
1.3991 0.9918 3.5030
1.4570 0.9917 3.3292
1.5141 1.0142 3.3341
1.4719 0.9917 3.2301
1.5228 1.0123 3.2345
1.4992 1.2917 3.5064
1.3993 1.2917 3.5008
1.5923 1.0919 3.2405
1.5850 1.2917 3.4410
1.5934 1.2917 3.2406
1.4719 0.9917 3.2301
1.4232 0.9802 3.2259
1.4318 0.9643 3.1262
1.4357 0.8917 3.0811
1.5363 0.8917 3.0784
1.5228 1.0123 3.2345
1.5962 1.0129 3.1376
1.5710 0.8917 3.0379
1.6002 0.9918 3.0411
1.5743 0.8917 2.9378
1.6044 0.9918 2.9413
1.5574 0.8917 2.8360
1.6087 0.9918 2.8405
1.5923 1.0919 3.2405
1.6104 1.2917 2.8406
1.5934 1.2917 3.2406
-1.0761 0.9917 3.1093
-1.1757 0.9917 3.1006
-1.1727 0.8917 3.0656
-1.0746 0.8917 3.0915
-1.0848 1.0252 3.2089
-1.1844 1.0253 3.2002
-0.9765 0.8917 3.1179
-0.9793 0.9917 3.1505
-0.9938 1.0243 3.3172
-1.0934 1.0220 3.3085
-0.9851 1.0049 3.2175
-0.9765 0.8917 3.1179
-1.0675 0.7917 3.0096
-0.9734 0.7917 3.0821
-1.0746 0.8917 3.0915
-0.8769 0.8917 3.1266
-0.9765 0.8917 3.1179
-0.9734 0.7917 3.0821
-0.8751 0.7917 3.1060
-0.7772 0.8917 3.1352
-0.7761 0.7917 3.1226
-0.6776 0.8917 3.1439
-0.6764 0.7917 3.1294
-0.5866 0.7917 3.2521
-0.5780 0.7044 3.1525
-0.6620 0.7917 3.1452
-0.6108 0.7917 3.3504
-0.5953 0.8917 3.3518
-0.5987 0.7918 3.3906
-0.6086 0.8917 3.2502
-0.9765 0.8917 3.1179
-0.9793 0.9917 3.1505
-0.8942 1.0307 3.3258
-0.9938 1.0243 3.3172
-0.7796 0.9917 3.1627
-0.7945 1.0183 3.3345
-0.8505 1.0917 3.4300
-0.8536 1.1917 3.4297
-0.7985 1.0917 3.3770
-0.8626 1.2917 3.4289
-0.7983 1.2917 3.3755
-0.6776 0.8917 3.1439
-0.6841 0.9917 3.2188
-0.5953 0.9917 3.3518
-0.5985 1.0916 3.3884
-0.5953 0.8917 3.3518
-0.6086 0.8917 3.2502
-0.5983 1.2917 3.3869
-0.5519 0.6917 3.3555
-0.5953 0.7543 3.3518
-0.4994 0.6916 3.3970
-0.5987 0.7918 3.3906
-0.5519 0.6917 3.2551
-0.5866 0.7917 3.2521
-0.4995 0.8917 3.3955
-0.5953 0.8917 3.3518
-0.3995 0.6916 3.4027
-0.2995 0.6916 3.4084
-0.2996 0.7916 3.4076
-0.1991 0.7918 3.4134
-0.1991 0.8917 3.4126
-0.5953 0.8917 3.3518
-0.4995 0.8917 3.3955
-0.5953 0.9917 3.3518
-0.5985 1.0916 3.3884
-0.5983 1.2917 3.3869
-0.1989 1.0915 3.4111
-0.2990 1.2917 3.4040
-0.1991 0.8917 3.4126
-0.2054 1.1917 3.4860
-0.2054 1.2917 3.4860
-0.1145 1.1917 3.5943
-0.1058 1.1282 3.4946
-0.2054 1.1917 3.4860
-0.1145 1.2917 3.5943
-0.2054 1.2917 3.4860
-0.5693 3.1259 3.0529
-0.9678 3.1173 3.0183
-0.5347 3.1086 2.6544
-0.9332 3.1000 2.6198
-1.1980 3.0762 2.1953
-1.1890 3.0719 2.0954
-1.1804 3.0676 1.9957
-1.1715 3.0633 1.8967
-1.0631 3.0611 1.8055
-1.1629 3.0590 1.7968
-0.8986 3.0827 2.2213
-0.8641 3.0654 1.8228
-0.5347 3.1086 2.6544
-0.9332 3.1000 2.6198
-0.5001 3.0913 2.2559
-0.8986 3.0827 2.2213
-0.5001 3.0913 2.2559
-0.8986 3.0827 2.2213
-0.4656 3.0740 1.8574
-0.8641 3.0654 1.8228
-0.1016 3.0999 2.2905
-0.5001 3.0913 2.2559
-0.0670 3.0826 1.8920
-0.4656 3.0740 1.8574
-0.1362 3.1172 2.6890
-0.5347 3.1086 2.6544
-0.1016 3.0999 2.2905
-0.5001 3.0913 2.2559
-0.1708 3.1345 3.0875
-0.5693 3.1259 3.0529
-0.1362 3.1172 2.6890
-0.5347 3.1086 2.6544
-1.7959 2.8917 3.3067
-1.6954 3.0919 3.3109
-1.7958 3.0919 3.3052
-1.6912 3.1451 3.2566
-1.7908 3.1401 3.2480
-1.5829 3.1917 3.1656
-1.6825 3.1674 3.1570
-1.3962 3.0919 3.3280
-1.3923 3.1315 3.2826
-1.4824 3.1153 3.1765
-1.3964 2.8917 3.3295
-1.3838 3.1174 3.1846
-1.3751 3.1131 3.0850
-1.4738 3.1110 3.0767
-1.3964 2.8917 3.3295
-1.3962 3.0919 3.3280
-1.1930 3.1274 3.2999
-1.3923 3.1315 3.2826
-1.2833 3.1196 3.1933
-1.3838 3.1174 3.1846
-1.3663 3.1087 2.9837
-1.1967 2.8917 3.3409
-0.9938 3.1207 3.3172
-0.9853 3.1260 3.2190
-0.9968 2.8917 3.3522
-0.9968 2.9917 3.3515
-0.9967 3.0919 3.3508
-0.9678 3.1173 3.0183
-0.9968 2.8917 3.3522
-0.9967 3.0919 3.3508
-0.9938 3.1207 3.3172
-0.9853 3.1260 3.2190
-0.9678 3.1173 3.0183
-0.5972 3.1097 3.3734
-0.6949 3.0917 3.3431
-0.5867 3.1345 3.2527
-0.5973 2.8917 3.3750
-0.5693 3.1259 3.0529
-1.1154 3.0870 2.4027
-1.2152 3.0849 2.3936
-1.2067 3.0805 2.2937
-1.1980 3.0762 2.1953
-1.0160 3.0891 2.4107
-1.0330 3.0978 2.6111
-0.9332 3.1000 2.6198
-1.0247 3.0935 2.5104
-0.8986 3.0827 2.2213
-1.2660 3.1109 2.9924
-1.1582 3.1087 2.9020
-1.2578 3.1066 2.8935
-1.1331 3.0957 2.6024
-1.1391 3.0989 2.6770
-1.1497 3.1043 2.8019
-1.1411 3.1000 2.7022
-0.9332 3.1000 2.6198
-0.9678 3.1173 3.0183
-0.5973 2.8917 3.3750
-0.1976 3.0918 3.3963
-0.5972 3.1097 3.3734
-0.5867 3.1345 3.2527
-0.5693 3.1259 3.0529
-0.1882 3.1432 3.2877
-0.1978 2.8917 3.3978
-0.1708 3.1345 3.0875
1.5917 3.1364 2.4375
1.4924 3.1343 2.4289
1.6264 3.1191 2.0390
1.5270 3.1170 2.0304
1.6364 2.8917 2.4414
1.6533 2.8917 2.0413
1.6375 3.0916 2.4415
1.6544 3.0917 2.0414
1.5229 3.1710 3.2345
1.4232 3.1689 3.2259
1.5568 3.1537 2.8360
1.4578 3.1516 2.8274
1.6025 2.8917 3.2414
1.6194 2.8917 2.8414
1.6019 3.1727 3.2414
1.6079 3.0916 3.1403
1.6206 3.0915 2.8415
1.5568 3.1537 2.8360
1.4578 3.1516 2.8274
1.5917 3.1364 2.4375
1.4924 3.1343 2.4289
1.6194 2.8917 2.8414
1.6364 2.8917 2.4414
1.6206 3.0915 2.8415
1.6375 3.0916 2.4415
1.4003 2.8917 3.4889
1.5006 2.8917 3.4946
1.4005 3.0919 3.4874
1.5049 3.1796 3.4322
1.4059 3.1775 3.4249
1.4232 3.1689 3.2259
1.5941 2.8917 3.4403
1.6025 2.8917 3.2414
1.5953 3.0915 3.4397
1.5994 3.0917 3.3410
1.6019 3.1727 3.2414
-1.7961 2.4917 3.3097
-1.3966 2.4917 3.3324
-1.3964 2.8917 3.3295
-1.7959 2.8917 3.3067
-1.7963 2.1918 3.3119
-1.6963 2.1918 3.3176
-1.7961 2.4917 3.3097
-1.5963 2.1918 3.3233
-1.4966 2.1918 3.3290
-1.3968 2.1918 3.3347
-1.3966 2.4917 3.3324
-1.3966 2.4917 3.3324
-0.9971 2.4917 3.3552
-0.9968 2.8917 3.3522
-1.3964 2.8917 3.3295
-1.3968 2.1918 3.3347
-1.2969 2.1918 3.3404
-1.3966 2.4917 3.3324
-1.1970 2.1917 3.3461
-1.0970 2.1918 3.3518
-0.9973 2.1918 3.3574
-0.9971 2.4917 3.3552
-0.9971 2.4917 3.3552
-0.5976 2.4917 3.3780
-0.5973 2.8917 3.3750
-0.9968 2.8917 3.3522
-0.9973 2.0917 3.3582
-0.5978 2.0917 3.3810
-0.5976 2.4917 3.3780
-0.9971 2.4917 3.3552
-0.7979 1.6917 3.3725
-0.6969 1.6917 3.3783
-0.6969 1.7920 3.3775
-0.7978 1.7917 3.3718
-0.7977 1.8917 3.3711
-0.7975 1.9918 3.3703
-0.7974 2.0917 3.3696
-0.5896 1.6917 3.2858
-0.5896 1.7917 3.2859
-0.5980 1.8745 3.3826
-0.5978 2.0917 3.3810
-0.7983 1.2917 3.3755
-0.7982 1.3917 3.3747
-0.7980 1.4917 3.3740
-0.7979 1.5917 3.3733
-0.6969 1.6917 3.3783
-0.7979 1.6917 3.3725
-0.5983 1.2917 3.3869
-0.5981 1.5917 3.3847
-0.5953 1.6240 3.3518
-0.5896 1.6917 3.2858
-0.5983 1.2917 3.3869
-0.5981 1.5917 3.3847
-0.5953 1.6240 3.3518
-0.4896 1.6917 3.2908
-0.5896 1.6917 3.2858
-0.3975 1.6917 3.3954
-0.2990 1.2917 3.4040
-0.1987 1.4917 3.4082
-0.1985 1.6917 3.4067
-0.2054 1.2917 3.4860
-0.2023 1.3917 3.4498
-0.5978 2.0917 3.3810
-0.1983 2.0917 3.4037
-0.1980 2.4917 3.4008
-0.5976 2.4917 3.3780
-0.5976 2.4917 3.3780
-0.1980 2.4917 3.4008
-0.1978 2.8917 3.3978
-0.5973 2.8917 3.3750
-0.5896 1.6917 3.2858
-0.4896 1.6917 3.2908
-0.4898 1.7917 3.2928
-0.5896 1.7917 3.2859
-0.5980 1.8745 3.3826
-0.5978 2.0917 3.3810
-0.3975 1.6917 3.3954
-0.3975 1.8428 3.3942
-0.1985 1.6917 3.4067
-0.1983 2.0917 3.4037
1.0853 0.9183 2.4925
0.9854 0.9160 2.4839
1.0939 0.9087 2.3943
0.9947 0.9064 2.3857
0.5997 0.3918 3.4619
0.5001 0.4917 3.4555
0.5997 0.4917 3.4611
0.5005 0.3919 3.4562
1.1671 0.9400 2.6988
1.0682 0.9375 2.6893
1.1757 0.9302 2.5992
1.1848 0.9208 2.5026
1.0939 0.9087 2.3943
1.2844 0.9231 2.5107
1.3839 0.9254 2.5187
1.4273 0.8917 2.6240
1.3754 0.9097 2.6195
1.4460 0.8917 2.5252
1.4924 0.9182 2.4289
1.4881 0.8917 2.4782
1.1047 0.6917 2.2691
1.2042 0.6917 2.2789
1.1049 0.7917 2.2672
1.2038 0.8993 2.2822
1.1090 0.8917 2.2199
1.3045 0.6917 2.2806
1.4037 0.9032 2.2906
1.4045 0.6917 2.2851
1.4048 0.7917 2.2809
1.5029 0.6917 2.3080
1.5051 0.7917 2.2820
1.5159 0.8917 2.1577
0.8585 0.8917 2.3738
0.8952 0.9040 2.3770
0.8974 0.8917 2.2768
0.9033 0.8943 2.2777
0.9044 0.8930 2.2642
1.0042 0.8950 2.2694
1.0939 0.9087 2.3943
1.1090 0.8917 2.2199
0.8534 0.7917 2.3734
0.8585 0.8917 2.3738
0.8937 0.7917 2.2765
0.8974 0.8917 2.2768
0.9077 0.6917 2.2260
1.0051 0.6917 2.2605
1.0053 0.7917 2.2583
0.9052 0.7917 2.2555
1.0042 0.8950 2.2694
0.9044 0.8930 2.2642
1.1047 0.6917 2.2691
1.1049 0.7917 2.2672
1.1090 0.8917 2.2199
1.0939 0.9087 2.3943
1.1090 0.8917 2.2199
1.2038 0.8993 2.2822
1.3038 0.9012 2.2859
1.4037 0.9032 2.2906
1.4924 0.9182 2.4289
1.5010 0.9085 2.3295
1.5159 0.8917 2.1577
0.6000 0.8917 3.4582
0.6001 0.9918 3.4574
0.6999 0.9917 3.4631
0.8000 1.0918 3.4681
0.7004 1.0918 3.4624
0.8415 1.0917 3.4704
0.8991 1.0916 3.4737
0.9992 0.8917 3.4809
0.9996 1.0915 3.4795
-0.1058 1.1282 3.4946
-0.2054 1.1917 3.4860
-0.1989 1.0915 3.4111
-0.1023 1.0917 3.4542
0.2870 0.8917 3.4284
0.2567 0.9917 3.4257
0.3004 0.8917 3.4411
0.3003 0.9917 3.4403
0.2283 0.8917 3.3229
0.2104 0.9336 3.3213
0.2050 0.9917 3.3830
0.2121 0.8917 3.3013
0.4005 0.9918 3.4461
0.6000 0.8917 3.4582
0.6001 0.9918 3.4574
0.3006 0.7918 3.4419
0.4000 0.7917 3.4475
0.6000 0.8917 3.4582
0.3004 0.8917 3.4411
0.4004 0.5918 3.4490
0.5001 0.5918 3.4547
0.4001 0.6917 3.4483
0.5001 0.4917 3.4555
0.5997 0.4917 3.4611
1.0064 0.1917 3.4016
1.1070 0.1917 3.3992
1.1070 0.2917 3.3992
1.0056 0.2917 3.4106
0.9992 0.3923 3.4847
1.1070 0.4917 3.3992
1.0057 0.4917 3.4101
1.2066 0.3917 3.4078
1.2066 0.4917 3.4078
0.5997 0.4917 3.4611
0.8999 0.4917 3.4783
0.6000 0.8917 3.4582
0.8999 0.5919 3.4775
0.8998 0.6918 3.4768
0.9000 0.8917 3.4753
1.0057 0.4917 3.4101
1.0052 0.5917 3.4152
1.0055 0.6917 3.4126
1.0074 0.7917 3.3905
0.9995 0.8917 3.4809
0.5996 0.2918 3.4626
0.7994 0.2917 3.4740
0.8999 0.4917 3.4783
0.5997 0.4917 3.4611
0.9005 0.2921 3.4798
1.0056 0.2917 3.4106
0.9992 0.3923 3.4847
1.0057 0.4917 3.4101
0.9995 0.8917 3.4809
1.3990 0.8917 3.5037
1.3993 1.2917 3.5008
0.9998 1.2917 3.4780
1.0057 0.4917 3.4101
1.1070 0.4917 3.3992
1.1070 0.5917 3.3992
1.0052 0.5917 3.4152
1.0055 0.6917 3.4126
1.1070 0.7917 3.3992
1.0074 0.7917 3.3905
1.0990 0.8916 3.4866
0.9995 0.8917 3.4809
1.2066 0.4917 3.4078
0.8123 2.8647 2.1691
0.7693 2.8917 2.1653
0.8085 2.8917 2.2130
0.8438 2.8917 2.0714
0.7213 2.8798 2.0608
0.7202 2.8917 2.0736
0.8296 2.8535 1.9698
0.7300 2.7917 1.9612
0.8662 2.8917 2.1737
0.8490 2.8917 1.9715
-0.1403 1.7919 3.4093
-0.1431 1.8919 3.4084
-0.1985 1.7917 3.4060
-0.1984 1.8918 3.4052
1.0003 2.0917 3.4720
1.3998 2.0917 3.4948
1.4001 2.4917 3.4918
1.0006 2.4917 3.4691
1.0006 2.4917 3.4691
1.4001 2.4917 3.4918
1.4003 2.8917 3.4889
1.0008 2.8917 3.4661
0.9998 1.2917 3.4780
1.3993 1.2917 3.5008
1.3996 1.6917 3.4978
1.0000 1.6917 3.4750
-0.1796 1.3917 3.4882
-0.2054 1.2917 3.4860
-0.1987 1.4917 3.4082
-0.1058 1.4736 3.4946
-0.1025 1.4917 3.4571
-0.1983 2.0917 3.4037
-0.0984 2.0917 3.4094
-0.0984 2.1917 3.4087
-0.1980 2.4917 3.4008
0.0015 2.1917 3.4144
0.1017 2.1918 3.4201
0.2013 2.1918 3.4258
0.2015 2.4917 3.4235
-0.1980 2.4917 3.4008
0.2015 2.4917 3.4235
0.2018 2.8917 3.4206
-0.1978 2.8917 3.3978
0.2013 2.1918 3.4258
0.3012 2.1918 3.4315
0.2015 2.4917 3.4235
0.4007 2.1916 3.4371
0.5008 2.1917 3.4428
0.6008 2.1917 3.4485
0.6010 2.4917 3.4463
0.2015 2.4917 3.4235
0.6010 2.4917 3.4463
0.6013 2.8917 3.4433
0.2018 2.8917 3.4206
0.6010 2.4917 3.4463
1.0006 2.4917 3.4691
1.0008 2.8917 3.4661
0.6013 2.8917 3.4433
0.6008 2.1917 3.4485
0.6010 2.4917 3.4463
1.0004 2.1916 3.4713
1.0006 2.4917 3.4691
1.0000 1.6917 3.4750
1.3996 1.6917 3.4978
1.3998 2.0917 3.4948
1.0003 2.0917 3.4720
1.6341 2.4917 2.4412
1.6364 2.8917 2.4414
1.6510 2.4917 2.0411
1.6533 2.8917 2.0413
1.6318 2.0917 2.4410
1.6341 2.4917 2.4412
1.6487 2.0917 2.0409
1.6510 2.4917 2.0411
1.6172 2.4917 2.8412
1.6194 2.8917 2.8414
1.6341 2.4917 2.4412
1.6364 2.8917 2.4414
1.6149 2.0917 2.8410
1.6172 2.4917 2.8412
1.6318 2.0917 2.4410
1.6341 2.4917 2.4412
1.6126 1.6917 2.8408
1.6149 2.0917 2.8410
1.6295 1.6917 2.4408
1.6318 2.0917 2.4410
1.6104 1.2917 2.8406
1.6126 1.6917 2.8408
1.6273 1.2917 2.4406
1.6295 1.6917 2.4408
1.6273 1.2917 2.4406
1.6363 1.3918 2.2413
1.6399 1.2917 2.1417
1.6405 1.3919 2.1417
1.6369 1.4918 2.2411
1.6374 1.5917 2.2408
1.6295 1.6917 2.4408
1.6422 1.6917 2.1412
1.6416 1.5918 2.1414
1.6295 1.6917 2.4408
1.6422 1.6917 2.1412
1.6428 1.7918 2.1412
1.6434 1.8917 2.1408
1.6439 1.9917 2.1408
1.6318 2.0917 2.4410
1.6445 2.0917 2.1408
1.5980 2.0917 3.2410
1.6003 2.4917 3.2412
1.6149 2.0917 2.8410
1.6172 2.4917 2.8412
1.3993 1.2917 3.5008
1.4992 1.2917 3.5064
1.4997 1.6917 3.5035
1.3996 1.6917 3.4978
1.5850 1.2917 3.4410
1.5934 1.2919 3.2406
1.5873 1.6917 3.4404
1.5957 1.6917 3.2408
1.5934 1.2917 3.2406
1.5957 1.6917 3.2408
1.6104 1.2917 2.8406
1.6126 1.6917 2.8408
1.6003 2.4917 3.2412
1.6025 2.8917 3.2414
1.6172 2.4917 2.8412
1.6194 2.8917 2.8414
1.4001 2.4917 3.4918
1.5003 2.4917 3.4976
1.5006 2.8917 3.4946
1.4003 2.8917 3.4889
1.5918 2.4917 3.4408
1.6003 2.4917 3.2412
1.5941 2.8917 3.4403
1.6025 2.8917 3.2414
1.3998 2.0917 3.4948
1.4999 2.0917 3.5005
1.5003 2.4917 3.4976
1.4001 2.4917 3.4918
1.5895 2.0917 3.4407
1.6003 2.4917 3.2412
1.5980 2.0917 3.2410
1.5918 2.4917 3.4408
1.5957 1.6917 3.2408
1.5980 2.0917 3.2410
1.6126 1.6917 2.8408
1.6149 2.0917 2.8410
1.3996 1.6917 3.4978
1.4997 1.6917 3.5035
1.4999 2.0917 3.5005
1.3998 2.0917 3.4948
1.5873 1.6917 3.4404
1.5957 1.6917 3.2408
1.5895 2.0917 3.4407
1.5980 2.0917 3.2410
1.4924 3.1343 2.4289
1.0939 3.1257 2.3943
1.5270 3.1170 2.0304
1.1285 3.1084 1.9958
0.6948 3.1171 2.3596
0.6608 3.1344 2.7582
0.8929 3.1213 2.3768
0.9849 3.1278 2.4836
0.9942 3.0917 2.3856
1.0593 3.1430 2.7928
1.0939 3.1257 2.3943
0.9936 3.1235 2.3856
0.6608 3.1344 2.7582
0.2623 3.1258 2.7236
0.6954 3.1171 2.3597
0.2969 3.1085 2.3251
0.2965 3.1085 2.3250
0.3142 3.0998 2.1255
0.4223 3.0976 2.0346
0.4310 3.0933 1.9352
0.3315 3.0912 1.9266
0.4310 3.0933 1.9352
0.5219 3.0998 2.0431
0.6298 3.0976 1.9525
0.7140 2.8917 2.0602
0.7213 2.9093 2.0608
0.7202 2.8917 2.0736
0.6969 2.8917 1.9583
0.7300 2.9656 1.9612
0.7214 3.1040 2.0595
0.7300 3.0227 1.9612
0.6954 3.1171 2.3597
0.2969 3.1085 2.3251
-0.1016 3.0999 2.2905
0.3315 3.0912 1.9266
-0.0670 3.0826 1.8920
0.7693 2.8917 2.1653
0.8123 2.9761 2.1691
0.8085 2.8917 2.2130
0.7821 2.9917 2.0661
0.7213 2.9093 2.0608
0.7202 2.8917 2.0736
0.8123 3.0102 2.1691
0.8296 2.9568 1.9698
0.7300 2.9656 1.9612
0.8266 2.9917 2.0043
0.6948 3.1171 2.3596
0.9019 3.1169 2.2739
0.7128 3.1084 2.1592
0.7214 3.1040 2.0595
0.8662 2.8917 2.1737
0.8438 2.8917 2.0714
0.8563 2.9917 2.0725
0.8490 2.8917 1.9715
0.8929 3.1213 2.3768
0.9203 3.1084 2.0773
0.9206 3.0917 2.0781
0.9942 3.0917 2.3856
1.0024 3.1191 2.2848
0.9289 3.1041 1.9784
1.0939 3.1257 2.3943
0.9936 3.1235 2.3856
1.1285 3.1084 1.9958
0.2277 3.1431 3.1221
-0.1708 3.1345 3.0875
0.2623 3.1258 2.7236
-0.1362 3.1172 2.6890
0.6262 3.1517 3.1567
0.2277 3.1431 3.1221
0.6608 3.1344 2.7582
0.2623 3.1258 2.7236
1.4232 3.1689 3.2259
1.0247 3.1603 3.1913
1.4578 3.1516 2.8274
1.0593 3.1430 2.7928
1.4578 3.1516 2.8274
1.0593 3.1430 2.7928
1.4924 3.1343 2.4289
1.0939 3.1257 2.3943
0.2623 3.1258 2.7236
-0.1362 3.1172 2.6890
0.2969 3.1085 2.3251
-0.1016 3.0999 2.2905
1.0247 3.1603 3.1913
0.6262 3.1517 3.1567
1.0593 3.1430 2.7928
0.6608 3.1344 2.7582
-0.1978 2.8917 3.3978
0.2019 3.0919 3.4191
-0.1976 3.0918 3.3963
-0.1882 3.1432 3.2877
-0.1708 3.1345 3.0875
0.2103 3.1517 3.3217
0.2018 2.8917 3.4206
0.2277 3.1431 3.1221
0.2018 2.8917 3.4206
0.2019 3.0919 3.4191
0.2103 3.1517 3.3217
0.2277 3.1431 3.1221
0.6014 3.0919 3.4418
0.6088 3.1603 3.3563
0.6013 2.8917 3.4433
0.6262 3.1517 3.1567
1.0008 2.8917 3.4661
1.1515 3.0919 3.4732
1.0009 3.0919 3.4646
1.0074 3.1689 3.3904
1.0247 3.1603 3.1913
1.4005 3.0919 3.4874
1.4059 3.1775 3.4249
1.4003 2.8917 3.4889
1.4232 3.1689 3.2259
0.6013 2.8917 3.4433
0.6014 3.0919 3.4418
0.6088 3.1603 3.3563
0.6262 3.1517 3.1567
1.0009 3.0919 3.4646
1.0074 3.1689 3.3904
1.0008 2.8917 3.4661
1.0247 3.1603 3.1913
-2.7006 0.8917 3.3218
-2.6002 0.8917 3.3214
-2.6006 0.9917 3.3268
-2.6990 0.9917 3.3037
-2.6002 0.8917 3.3214
-2.4986 0.8917 3.3073
-2.6006 0.9917 3.3268
-2.5012 1.0917 3.3376
-2.6012 1.0917 3.3336
-2.3972 0.8917 3.2957
-2.3992 1.0917 3.3191
-2.2976 0.8917 3.3044
-2.2976 1.0917 3.3044
-2.2993 1.1917 3.3239
-2.3987 1.1917 3.3136
-2.1979 0.9487 3.3130
-2.1990 0.9917 3.3258
-2.1979 1.0457 3.3130
-2.1979 1.1917 3.3130
-2.2976 1.2165 3.3044
-2.0983 0.9917 3.3217
-2.1979 0.9487 3.3130
-2.1990 0.9917 3.3258
-2.0983 1.0917 3.3217
-2.1979 1.0457 3.3130
-2.1979 1.1917 3.3130
-2.0983 1.2917 3.3217
-2.2976 0.8917 3.3044
-2.1979 0.9487 3.3130
-2.1960 0.8917 3.2906
-2.1979 1.0457 3.3130
-2.2976 1.0917 3.3044
-2.1971 1.0917 3.3034
-2.1979 1.1917 3.3130
-2.1979 1.1917 3.3130
-2.2976 1.2165 3.3044
-2.1969 1.2917 3.3015
-2.2934 1.2917 3.2560
-2.0983 0.9917 3.3217
-2.1979 0.9487 3.3130
-2.1960 0.8917 3.2906
-2.0921 0.8917 3.2499
-2.0983 1.0917 3.3217
-2.1979 1.0457 3.3130
-2.1971 1.0917 3.3034
-2.1979 1.1917 3.3130
-2.0983 1.2917 3.3217
-2.1979 1.1917 3.3130
-2.1969 1.2917 3.3015
-1.9941 0.8917 3.2772
-1.9963 0.9917 3.3028
-1.9987 1.0917 3.3303
-1.9987 1.0917 3.3303
-2.0983 1.1917 3.3217
-1.9971 1.1917 3.3122
-2.0983 1.2917 3.3217
-1.9948 1.2917 3.2856
-2.0983 1.2917 3.3217
-2.0983 1.2917 3.3217
-2.1979 1.3917 3.3130
-2.1979 1.3917 3.3130
-2.1969 1.2917 3.3015
-2.0967 1.3917 3.3033
-2.0963 1.4917 3.2981
-2.1961 1.4917 3.2916
-2.0958 1.5917 3.2923
-2.1956 1.5917 3.2856
-1.9948 1.2917 3.2856
-1.9925 1.3917 3.2594
-1.9953 1.4917 3.2911
-2.1979 1.3917 3.3130
-2.2934 1.2917 3.2560
-2.1969 1.2917 3.3015
-2.2956 1.3917 3.2817
-2.0958 2.4917 3.2926
-2.0957 2.5917 3.2918
-2.0956 2.6918 3.2911
-2.0958 2.7917 3.2903
-2.0956 2.8917 3.2896
-1.7961 2.4917 3.3097
-1.7959 2.8917 3.3067
-2.0957 2.3918 3.2933
-1.9961 2.3917 3.2990
-2.0958 2.4917 3.2926
-1.9961 2.1917 3.3005
-1.8960 2.1918 3.3062
-1.9960 2.2917 3.2998
-1.7963 2.1918 3.3119
-1.7961 2.4917 3.3097
-0.2535 0.9917 1.1732
-0.2057 1.0440 1.1764
-0.2380 0.9917 1.0741
-0.1971 1.0229 1.0777
-0.1060 1.0438 1.1851
-0.0064 1.0436 1.1937
0.0021 1.0225 1.0950
-0.6310 0.2917 0.4377
-0.6200 0.3917 0.4387
-0.5409 0.2917 0.4128
-0.5414 0.4917 0.4189
-0.6123 0.4917 0.4394
-0.4416 0.2917 0.4254
-0.4429 0.3917 0.4406
-0.4441 0.4917 0.4540
-0.4441 0.4917 0.4540
-0.3499 0.5917 0.5256
-0.5414 0.4917 0.4189
-0.5420 0.5917 0.4257
-0.5437 0.6917 0.4453
-0.4459 0.6917 0.4746
-0.4614 0.7917 0.6532
-0.4527 0.7917 0.5536
-0.3480 0.4917 0.5037
-0.3470 0.6917 0.4918
-0.3618 0.7917 0.6619
-0.3531 0.7917 0.5622
-0.3877 0.9262 0.9608
-0.4448 0.9917 0.9558
-0.3791 0.9675 0.8611
-0.4069 0.9917 0.8587
-0.4700 0.8917 0.7529
-0.3743 0.8917 0.8066
-0.4752 0.9917 0.8129
-0.4700 0.7917 0.7529
-0.4614 0.7917 0.6532
-0.4700 0.8917 0.7529
-0.3704 0.7917 0.7615
-0.3618 0.7917 0.6619
-0.3743 0.8917 0.8066
-0.3420 0.8917 1.0651
-0.2967 0.9437 1.0690
-0.3584 0.8917 0.9633
-0.3877 0.9262 0.9608
-0.3903 0.8917 0.9900
-0.2928 0.8917 1.0237
-0.3568 0.8917 0.8631
-0.3791 0.9675 0.8611
-0.3743 0.8917 0.8066
-0.2380 0.9917 1.0741
-0.2161 0.8917 0.9756
-0.1798 0.8917 0.8784
-0.1971 1.0229 1.0777
0.0194 0.8917 0.8957
-0.0868 0.9965 0.9631
0.0129 0.9960 0.9705
0.0021 1.0225 1.0950
-0.2708 0.7917 0.7701
-0.3704 0.7917 0.7615
-0.2621 0.7917 0.6705
-0.3618 0.7917 0.6619
-0.3420 0.8917 1.0651
-0.3964 0.8016 1.0604
-0.2881 0.7973 0.9694
-0.3584 0.8917 0.9633
-0.2928 0.8917 1.0237
-0.3903 0.8917 0.9900
-0.2794 0.8008 0.8698
-0.3568 0.8917 0.8631
-0.3743 0.8917 0.8066
-0.2161 0.8917 0.9756
-0.1798 0.8917 0.8784
-0.3166 0.4917 0.4650
-0.2751 0.5917 0.4686
-0.3480 0.4917 0.5037
-0.3499 0.5917 0.5256
-0.2448 0.6396 0.4713
-0.2469 0.6917 0.4944
-0.3470 0.6917 0.4918
-0.2789 0.5917 0.3679
-0.2362 0.6151 0.3716
-0.2621 0.7917 0.6705
-0.3618 0.7917 0.6619
-0.2535 0.7917 0.5709
-0.3531 0.7917 0.5622
-0.1452 0.5917 0.4799
-0.1465 0.6917 0.4943
-0.0515 0.5917 0.5570
-0.0471 0.6917 0.5056
0.0481 0.5917 0.5660
0.0525 0.6917 0.5149
0.0932 1.0434 1.2024
-0.0064 1.0436 1.1937
0.1018 1.0224 1.1036
0.0021 1.0225 1.0950
0.1407 0.9917 1.2074
0.1555 0.9917 1.1083
0.3505 0.3917 0.5505
0.4497 0.3917 0.5641
0.4505 0.4917 0.5552
0.3498 0.4917 0.5593
0.5435 0.1917 0.6401
0.5522 0.1917 0.5405
0.5550 0.2917 0.5075
0.4472 0.1917 0.5932
0.4465 0.2917 0.6014
0.4497 0.3917 0.5641
0.5563 0.3917 0.4922
0.4857 0.4917 0.5347
0.4505 0.4917 0.5552
0.5551 0.4917 0.5069
0.6547 0.2917 0.5150
0.6546 0.3917 0.5167
0.6859 0.2917 0.5521
0.6842 0.3917 0.5519
0.4857 0.4917 0.5347
0.4708 0.5917 0.5334
0.4505 0.4917 0.5552
0.4516 0.5917 0.5430
0.5551 0.4917 0.5069
0.5540 0.5917 0.5189
0.4525 0.6917 0.5318
0.5540 0.6917 0.5189
0.1191 0.8917 0.9044
0.2101 0.7979 1.0127
0.1383 0.8917 1.0064
0.2190 0.7961 0.9131
0.2272 0.7943 0.8133
0.3351 0.7994 0.7224
0.2359 0.7926 0.7138
0.3007 0.8065 1.1209
0.2184 0.8917 1.1137
0.3093 0.8047 1.0212
0.2029 0.8917 1.0953
0.3185 0.8030 0.9217
0.3271 0.8013 0.8221
0.0194 0.8917 0.8957
0.1191 0.8917 0.9044
0.1127 0.9954 0.9772
0.0129 0.9960 0.9705
0.1018 1.0224 1.1036
0.0021 1.0225 1.0950
0.2014 0.9277 1.1123
0.1555 0.9917 1.1083
0.1383 0.8917 1.0064
0.2029 0.8917 1.0953
0.2184 0.8917 1.1137
0.2619 0.5337 0.4149
0.1965 0.5917 0.4092
0.2957 0.4917 0.3175
0.1933 0.5917 0.3086
0.1623 0.6733 0.4062
0.1710 0.6747 0.3066
0.2447 0.7908 0.6142
0.1523 0.6917 0.5220
0.2448 0.7890 0.5341
0.1537 0.7917 0.5059
0.1450 0.8033 0.6055
0.3268 0.4917 0.5209
0.2533 0.5592 0.5145
0.3498 0.4917 0.5593
0.4516 0.5917 0.5430
0.2480 0.5917 0.5758
0.3003 0.4917 0.4182
0.3351 0.7994 0.7224
0.2359 0.7926 0.7138
0.3526 0.7959 0.5231
0.3450 0.7978 0.6231
0.4505 0.4917 0.5552
0.4525 0.6917 0.5318
0.3529 0.7917 0.5232
0.4530 0.7917 0.5261
-0.8295 3.0481 1.4243
-0.7212 3.0459 1.3333
-0.8209 3.0438 1.3256
-0.6124 3.0438 1.2436
-0.6366 3.0917 1.2403
-0.7171 3.0917 1.2868
-0.5129 3.0460 1.2519
-0.4310 3.0567 1.4589
-0.4137 3.0481 1.2602
-0.4310 3.0567 1.4589
-0.3140 3.0502 1.2685
-0.4137 3.0481 1.2602
-0.2141 3.0524 1.2777
-0.1146 3.0545 1.2860
-0.0325 3.0653 1.4935
-0.0066 3.0524 1.1956
-0.1058 3.0502 1.1869
-0.8295 3.0481 1.4243
-0.9289 3.0460 1.4156
-0.8209 3.0438 1.3256
-0.9202 3.0417 1.3167
-1.0631 3.0611 1.8055
-1.1629 3.0590 1.7968
-1.0547 3.0568 1.7059
-1.1543 3.0546 1.6973
-1.0460 3.0917 1.6062
-1.1456 2.9917 1.5976
-0.8468 3.0568 1.6239
-1.0374 3.0481 1.5066
-1.0289 3.0438 1.4070
-0.8641 3.0654 1.8228
-0.8295 3.0481 1.4243
-0.4656 3.0740 1.8574
-0.8641 3.0654 1.8228
-0.4310 3.0567 1.4589
-0.8295 3.0481 1.4243
-0.0670 3.0826 1.8920
-0.4656 3.0740 1.8574
-0.0325 3.0653 1.4935
-0.4310 3.0567 1.4589
0.1710 0.6747 0.3066
0.0713 0.6505 0.2980
0.1796 0.6740 0.2070
0.1389 0.6917 0.2035
0.0766 0.6917 0.2376
0.0800 0.7068 0.1983
0.2706 0.5170 0.3153
0.1933 0.5917 0.3086
0.2784 0.5917 0.2247
0.2208 0.6917 0.2106
0.2785 0.6917 0.2238
0.2792 0.7000 0.2156
1.2204 2.9917 1.4015
1.1803 2.9619 1.3980
1.1765 2.9917 1.4418
1.1840 2.9917 1.3565
1.2800 3.0735 1.4067
1.2886 3.0783 1.3070
1.1890 3.0917 1.2984
1.3709 3.0917 1.5149
1.2713 3.0700 1.5063
1.2627 3.0917 1.6059
1.3796 3.0917 1.4153
1.3274 3.0917 1.3104
1.4791 3.0889 1.4236
1.3797 3.0867 1.4155
1.4824 3.0917 1.3871
1.3622 3.0954 1.6146
1.5788 3.0910 1.4326
1.5616 3.0997 1.6319
0.6006 3.0609 1.1469
0.7082 3.0917 1.0559
0.7991 3.0652 1.1642
0.8077 3.0609 1.0659
0.7991 3.0652 1.1642
0.8077 3.0609 1.0659
0.8997 3.0674 1.1729
0.9074 3.0917 1.0732
1.2627 3.0917 1.6059
1.1630 3.0549 1.5973
1.1544 3.0917 1.6969
1.1285 3.1084 1.9958
1.2452 3.1019 1.8047
1.1458 3.0997 1.7962
1.2626 3.0932 1.6059
1.5270 3.1170 2.0304
1.5616 3.0997 1.6319
0.8642 2.9751 1.5713
0.7645 2.9295 1.5627
0.8335 2.8917 1.4683
0.8728 2.9331 1.4717
0.7678 2.8917 1.5257
0.8768 2.8917 1.4254
0.8633 3.0846 1.5712
0.7645 3.0825 1.5627
0.7991 3.0652 1.1642
0.8997 3.0674 1.1729
0.8981 2.9917 1.5743
0.9724 2.9917 1.4803
0.9299 2.8917 1.3763
0.9844 2.8917 1.3424
0.9726 3.0825 1.4808
0.9973 2.8917 1.5829
1.0105 2.9917 1.5840
1.0697 2.8917 1.5162
1.0680 2.9917 1.5364
1.0778 2.9917 1.4236
1.0677 2.8917 1.2879
1.0894 2.9224 1.2897
1.0907 2.8917 1.2745
1.0620 3.0889 1.5885
1.0809 3.0803 1.3899
1.0896 3.0760 1.2904
1.0984 3.0717 1.1901
1.0956 2.8917 1.4910
1.1140 2.9917 1.4926
1.1289 2.8917 1.3935
1.1803 2.9619 1.3980
1.1132 2.9917 1.3922
1.1765 2.9917 1.4418
1.1325 2.8917 1.2935
1.1840 2.9917 1.3565
1.0807 3.0917 1.3894
1.1890 3.0917 1.2984
1.1889 3.0781 1.2990
0.7939 2.8917 1.7660
0.8046 2.9917 1.7669
0.8517 2.8917 1.7146
0.7559 2.9630 1.6623
0.7521 2.9917 1.7065
0.8642 2.9751 1.5713
0.7645 2.9295 1.5627
0.8458 3.0931 1.7679
0.8548 3.0889 1.6692
0.7560 3.0867 1.6607
0.8633 3.0846 1.5712
0.7645 3.0825 1.5627
0.8490 2.8917 1.9715
0.8296 2.9568 1.9698
0.8319 2.8917 1.9431
0.8954 2.8917 1.6744
0.8981 2.9917 1.5743
0.9611 2.8917 1.6107
0.9601 2.9917 1.6228
0.9541 3.0910 1.6769
0.9973 2.8917 1.5829
1.0105 2.9917 1.5840
1.0548 3.0610 1.6882
1.0620 3.0889 1.5885
1.1544 3.0917 1.6969
1.0461 3.0917 1.7879
1.1630 3.0549 1.5973
1.1285 3.1084 1.9958
1.0285 3.1062 1.9871
1.1371 3.1040 1.8956
1.0373 3.1019 1.8870
0.3660 3.0739 1.5281
0.4014 3.0566 1.1296
0.4921 3.0631 1.2391
0.3919 3.0610 1.2305
0.7326 2.8917 1.5599
0.7645 2.9295 1.5627
0.7678 2.8917 1.5257
0.7645 3.0825 1.5627
0.7991 3.0652 1.1642
-0.0325 3.0653 1.4935
0.0934 3.0545 1.2040
-0.0066 3.0524 1.1956
0.1934 3.0567 1.2135
0.3919 3.0610 1.2305
0.3660 3.0739 1.5281
0.3487 2.9337 1.7273
0.3451 2.9917 1.7693
0.4570 2.9399 1.6363
0.3574 2.9483 1.6277
0.3519 2.8917 1.6914
0.4484 2.8917 1.7360
0.4568 3.0803 1.6358
0.3534 2.9917 1.6733
0.3606 2.8917 1.5910
0.4593 2.8917 1.6100
0.4397 3.0328 1.8356
0.3402 3.0868 1.8259
0.6298 3.0976 1.9525
0.3314 3.0912 1.9266
0.3575 3.0782 1.6268
0.7645 3.0825 1.5627
0.3660 3.0739 1.5281
0.5480 2.9917 1.7446
0.5461 2.8917 1.7666
0.5591 2.8917 1.6164
0.5565 3.0825 1.6445
0.6410 2.8917 1.8301
0.6450 2.9917 1.7841
0.6563 2.9917 1.6536
0.6605 2.8917 1.6045
0.6390 3.0194 1.8529
0.7559 2.9630 1.6623
0.7521 2.9917 1.7065
0.7326 2.8917 1.5599
0.7645 2.9295 1.5627
0.7560 3.0867 1.6607
-0.0670 3.0826 1.8920
-0.0325 3.0653 1.4935
0.2029 3.0771 1.6628
0.1822 2.8917 1.6125
0.2578 2.9673 1.6190
0.2549 2.8917 1.6516
0.2632 2.8917 1.5567
0.3402 3.0868 1.8259
0.2491 3.0101 1.7187
0.3487 2.9337 1.7273
0.3451 2.9917 1.7693
0.3574 2.9483 1.6277
0.3519 2.8917 1.6914
0.3534 2.9917 1.6733
0.3606 2.8917 1.5910
0.3315 3.0912 1.9266
0.3575 3.0782 1.6268
0.3660 3.0739 1.5281
1.6264 3.1191 2.0390
1.5270 3.1170 2.0304
1.5616 3.0997 1.6319
1.6533 2.8917 2.0413
1.6702 2.8917 1.6413
1.6544 3.0917 2.0414
1.6583 3.1152 1.9393
1.6714 3.1020 1.6414
1.5616 3.0997 1.6319
1.6697 3.0975 1.5406
1.6789 3.0932 1.4422
1.5788 3.0910 1.4326
1.6702 2.8917 1.6413
1.6744 2.8917 1.5411
1.6750 2.9917 1.5411
1.6714 3.1020 1.6414
1.7112 2.9917 1.4441
1.7238 3.0917 1.4452
0.2578 2.8716 1.6190
0.1822 2.8917 1.6125
0.2549 2.8917 1.6516
0.2632 2.8917 1.5567
0.3574 2.8608 1.6277
0.3519 2.8917 1.6914
0.3606 2.8917 1.5910
0.8642 2.8110 1.5713
0.7645 2.7917 1.5627
0.8335 2.8917 1.4683
0.7678 2.8917 1.5257
0.8768 2.8917 1.4254
0.9871 2.7917 1.3812
0.9638 2.8646 1.5800
0.9724 2.8486 1.4803
0.9299 2.8917 1.3763
0.9844 2.8917 1.3424
0.9973 2.8917 1.5829
1.0721 2.8701 1.4890
1.0697 2.8917 1.5162
1.0807 2.8557 1.3894
1.0894 2.7917 1.2897
1.0677 2.8917 1.2879
1.0907 2.8917 1.2745
0.6649 2.7735 1.5540
0.6402 2.7917 1.5519
0.6649 2.8064 1.5540
0.7645 2.7917 1.5627
0.7645 2.7917 1.5627
0.7326 2.8917 1.5599
0.7678 2.8917 1.5257
0.7545 2.7917 1.6787
0.7559 2.7841 1.6623
0.7645 2.7917 1.5627
0.8296 2.8535 1.9698
0.7300 2.7917 1.9612
0.7836 2.8917 1.8654
0.7386 2.7917 1.8615
0.8319 2.8917 1.9431
0.7939 2.8917 1.7660
0.7473 2.8288 1.7619
0.8517 2.8917 1.7146
0.8642 2.8110 1.5713
0.8490 2.8917 1.9715
0.8954 2.8917 1.6744
0.9638 2.8646 1.5800
0.9611 2.8917 1.6107
0.9973 2.8917 1.5829
0.4570 2.8491 1.6363
0.3574 2.8608 1.6277
0.4484 2.8917 1.7360
0.3519 2.8917 1.6914
0.4593 2.8917 1.6100
0.3606 2.8917 1.5910
0.5461 2.8917 1.7666
0.6071 2.7917 1.6494
0.5591 2.8917 1.6164
0.6464 2.7917 1.7679
0.6649 2.7735 1.5540
0.6402 2.7917 1.5519
0.6410 2.8917 1.8301
0.6649 2.8064 1.5540
0.6605 2.8917 1.6045
0.7559 2.7841 1.6623
0.7645 2.7917 1.5627
0.7300 2.7917 1.9612
0.6969 2.8917 1.9583
0.7386 2.7917 1.8615
0.6691 2.8917 1.8555
0.7473 2.8288 1.7619
0.7326 2.8917 1.5599
1.6679 2.4917 1.6411
1.6721 2.4917 1.5415
1.6727 2.5918 1.5415
1.6733 2.6918 1.5416
1.6738 2.7918 1.5421
1.6702 2.8917 1.6413
1.6744 2.8917 1.5411
1.6493 2.1918 2.0410
1.6535 2.1918 1.9414
1.6577 2.1918 1.8415
1.6620 2.1918 1.7416
1.6662 2.1919 1.6409
1.6510 2.4917 2.0411
1.6679 2.4917 1.6411
1.6662 2.1919 1.6409
1.6679 2.4917 1.6411
1.6704 2.1919 1.5420
1.6710 2.2918 1.5418
1.6716 2.3919 1.5419
1.6721 2.4917 1.5415
1.6510 2.4917 2.0411
1.6533 2.8917 2.0413
1.6679 2.4917 1.6411
1.6702 2.8917 1.6413
-2.0956 2.8917 3.2896
-2.0954 2.9918 3.2889
-1.9954 3.0918 3.2938
-2.0959 3.0916 3.2881
-1.8943 3.1921 3.2988
-1.9942 3.1921 3.2932
-1.7959 2.8917 3.3067
-1.7958 3.0919 3.3052
-1.7908 3.1401 3.2480
-1.8682 3.1917 3.2412
-1.0063 1.1916 3.4615
-0.9061 1.1918 3.4650
-0.9055 1.2917 3.4647
-1.0063 1.2917 3.4612
-0.8536 1.1917 3.4297
-0.8626 1.2917 3.4289
-1.4067 1.0917 3.4481
-1.3067 1.0917 3.4515
-1.2066 1.0917 3.4550
-1.4066 1.2917 3.4475
-1.1067 1.0917 3.4584
-1.0063 1.0917 3.4619
-1.0063 1.2917 3.4612
-1.5062 1.1918 3.4443
-1.4066 1.1918 3.4478
-1.4066 1.2917 3.4475
-1.5068 1.2917 3.4440
-1.5068 1.2917 3.4440
-1.4066 1.2917 3.4475
-1.4066 1.3917 3.4471
-1.5066 1.3917 3.4437
-1.4066 1.2917 3.4475
-1.3063 1.4917 3.4503
-1.4065 1.4917 3.4468
-1.1065 1.4917 3.4571
-1.1062 1.2917 3.4578
-1.1060 1.3918 3.4575
3 3 2 0
3 2 1 0
3 1 2 4
3 5 1 6
3 0 1 5
3 7 8 9
3 9 8 10
3 11 12 13
3 13 12 14
3 18 14 15
3 18 15 16
3 18 16 17
3 19 16 15
3 12 20 14
3 14 20 21
3 14 21 15
3 15 21 22
3 19 22 23
3 15 22 19
3 24 27 26
3 25 27 24
3 26 29 30
3 26 27 29
3 27 28 29
3 31 32 25
3 33 25 32
3 27 25 33
3 28 27 33
3 32 34 33
3 33 34 35
3 36 38 37
3 37 38 39
3 40 39 38
3 38 36 41
3 42 38 41
3 40 38 42
3 41 46 42
3 42 46 43
3 43 46 44
3 44 46 45
3 45 46 47
3 47 46 48
3 51 49 52
3 49 50 52
3 52 53 51
3 51 53 54
3 53 55 54
3 54 55 56
3 56 55 57
3 58 59 60
3 61 60 62
3 63 61 64
3 61 62 64
3 49 51 59
3 59 51 60
3 60 51 62
3 62 51 65
3 51 54 65
3 56 66 54
3 54 66 67
3 67 66 68
3 69 72 71
3 69 71 70
3 71 72 73
3 75 74 76
3 74 78 77
3 75 78 74
3 77 80 79
3 78 80 77
3 75 76 81
3 81 76 82
3 83 78 75
3 78 83 80
3 81 84 75
3 85 83 84
3 83 75 84
3 88 87 86
3 88 90 89
3 86 92 88
3 91 92 86
3 88 92 90
3 94 93 90
3 93 94 95
3 95 94 96
3 95 96 97
3 97 96 98
3 99 92 91
3 90 92 94
3 94 92 100
3 94 100 96
3 96 100 98
3 99 101 92
3 101 100 92
3 102 104 103
3 105 104 102
3 106 103 107
3 102 103 106
3 108 102 109
3 108 105 102
3 110 112 111
3 111 112 106
3 112 102 106
3 109 102 112
3 113 115 116
3 115 114 116
3 117 119 118
3 120 119 117
3 121 120 117
3 122 120 121
3 123 122 121
3 124 122 123
3 125 126 127
3 129 130 128
3 128 125 129
3 125 131 129
3 123 131 127
3 131 125 127
3 127 124 123
3 136 132 133
3 137 136 134
3 134 136 135
3 136 133 135
3 138 139 140
3 140 141 142
3 139 141 140
3 143 132 144
3 144 132 136
3 140 146 145
3 137 140 145
3 145 144 137
3 137 144 136
3 146 140 149
3 149 140 142
3 147 148 145
3 148 144 145
3 143 144 148
3 150 151 153
3 150 153 152
3 152 153 156
3 154 151 150
3 155 151 154
3 156 153 157
3 158 152 156
3 159 158 160
3 160 158 156
3 161 160 162
3 162 160 156
3 164 163 165
3 164 165 166
3 170 164 166
3 166 167 169
3 168 166 169
3 168 170 166
3 171 169 172
3 168 169 171
3 175 173 174
3 173 177 176
3 175 177 173
3 178 179 180
3 179 181 180
3 182 183 188
3 183 184 188
3 184 185 188
3 188 185 186
3 185 187 186
3 188 186 189
3 190 191 192
3 191 193 192
3 194 195 196
3 195 197 196
3 198 199 200
3 199 201 200
3 202 203 204
3 203 205 204
3 206 207 208
3 207 209 208
3 211 210 212
3 211 212 214
3 213 211 214
3 220 210 211
3 215 211 213
3 215 213 216
3 217 220 211
3 217 211 215
3 218 217 215
3 219 218 215
3 218 219 221
3 221 219 222
3 219 223 222
3 226 225 227
3 226 227 228
3 227 229 228
3 228 229 230
3 231 224 225
3 232 225 226
3 232 226 233
3 226 228 233
3 233 228 230
3 234 231 235
3 235 231 236
3 236 231 225
3 236 225 232
3 233 230 237
3 243 238 239
3 243 239 240
3 246 238 243
3 244 243 240
3 244 240 245
3 240 241 245
3 245 241 242
3 243 244 245
3 245 242 247
3 248 249 256
3 249 250 256
3 250 251 256
3 252 248 256
3 253 255 254
3 255 252 254
3 252 256 254
3 265 257 258
3 257 259 258
3 265 258 264
3 258 262 264
3 262 263 264
3 261 260 263
3 263 260 264
3 267 266 268
3 267 268 269
3 272 266 267
3 267 269 271
3 271 269 270
3 271 270 273
3 274 275 276
3 275 277 276
3 278 280 279
3 279 280 281
3 276 280 274
3 281 280 276
3 283 285 282
3 282 285 284
3 286 288 289
3 286 289 290
3 286 290 287
3 289 288 282
3 290 289 282
3 284 290 282
3 291 292 293
3 292 294 293
3 295 297 298
3 295 298 296
3 298 297 291
3 293 298 291
3 300 299 301
3 302 301 303
3 304 302 303
3 307 305 300
3 301 307 300
3 305 307 306
3 306 307 308
3 306 308 309
3 307 301 302
3 307 302 308
3 302 304 309
3 302 309 308
3 311 310 312
3 312 310 313
3 315 314 316
3 317 315 320
3 320 315 316
3 318 317 320
3 319 318 320
3 322 321 323
3 323 321 324
3 326 325 327
3 328 326 331
3 331 326 327
3 329 328 331
3 330 329 331
3 333 332 334
3 334 332 335
3 337 336 338
3 338 336 339
3 341 340 342
3 342 340 343
3 342 343 344
3 350 344 345
3 350 345 346
3 347 342 348
3 341 342 347
3 349 342 344
3 342 349 348
3 349 344 350
3 357 351 352
3 357 352 353
3 357 353 354
3 357 354 355
3 355 354 356
3 355 359 358
3 355 358 357
3 359 355 360
3 363 364 362
3 365 364 363
3 362 366 361
3 362 364 366
3 367 361 368
3 368 361 369
3 369 361 366
3 370 367 371
3 367 368 371
3 373 372 374
3 374 372 375
3 377 376 378
3 378 376 379
3 381 380 382
3 382 380 383
3 382 383 384
3 381 382 386
3 387 382 384
3 386 382 387
3 387 384 385
3 386 387 388
3 388 387 389
3 389 387 385
3 390 392 391
3 391 392 393
3 394 395 396
3 394 397 395
3 398 400 399
3 399 400 402
3 400 401 402
3 403 402 401
3 404 402 403
3 407 406 405
3 404 406 407
3 409 404 407
3 409 408 404
3 408 402 404
3 410 412 413
3 413 412 414
3 415 411 410
3 415 410 416
3 416 410 413
3 417 415 418
3 418 415 416
3 419 417 420
3 420 417 418
3 420 418 421
3 421 418 416
3 422 425 424
3 423 425 422
3 424 425 426
3 423 428 425
3 428 426 425
3 427 426 428
3 429 427 428
3 430 431 432
3 432 431 433
3 435 434 436
3 436 434 437
3 436 437 438
3 438 437 439
3 440 435 441
3 441 435 436
3 441 436 442
3 442 436 438
3 445 444 443
3 446 445 443
3 447 446 443
3 448 449 443
3 449 447 443
3 450 447 449
3 458 451 452
3 453 454 452
3 455 454 453
3 452 456 457
3 452 457 458
3 452 454 456
3 459 458 457
3 460 462 461
3 463 462 460
3 467 466 464
3 465 467 464
3 470 468 469
3 470 465 468
3 465 464 468
3 468 471 469
3 473 466 472
3 472 466 467
3 474 473 472
3 476 475 477
3 477 475 478
3 480 479 477
3 477 479 481
3 477 481 476
3 483 482 477
3 477 482 480
3 485 484 486
3 486 484 487
3 486 487 488
3 486 488 489
3 489 488 490
3 491 486 492
3 492 486 489
3 494 493 495
3 496 494 497
3 497 495 498
3 494 495 497
3 499 494 500
3 500 494 496
3 500 496 501
3 501 496 497
3 501 497 502
3 503 502 498
3 502 497 498
3 505 504 506
3 506 504 507
3 505 510 508
3 510 509 508
3 505 506 510
3 506 511 510
3 513 512 514
3 514 512 515
3 517 516 518
3 518 516 519
3 518 519 520
3 518 520 521
3 521 520 522
3 523 522 524
3 521 522 523
3 518 525 517
3 528 527 526
3 531 526 527
3 531 530 526
3 530 529 526
3 529 530 532
3 530 533 532
3 526 534 528
3 529 534 526
3 535 529 532
3 537 536 538
3 539 537 538
3 541 540 542
3 542 540 543
3 545 544 546
3 546 544 547
3 549 548 550
3 550 548 551
3 553 554 552
3 552 556 555
3 552 554 556
3 558 557 559
3 559 557 560
3 561 559 564
3 564 559 560
3 562 561 564
3 563 562 564
3 566 565 567
3 567 565 568
3 570 569 571
3 572 570 575
3 575 570 571
3 573 572 575
3 574 573 575
3 577 576 578
3 578 576 579
3 581 580 582
3 582 580 583
3 586 584 587
3 587 584 585
3 589 588 590
3 590 588 591
3 592 593 594
3 594 593 595
3 596 597 598
3 598 597 599
3 600 601 602
3 602 601 603
3 604 605 606
3 606 605 607
3 608 609 610
3 610 609 611
3 612 613 614
3 614 613 615
3 616 617 618
3 618 617 619
3 617 616 620
3 616 622 620
3 620 622 621
3 621 622 623
3 621 623 624
3 626 625 627
3 625 630 627
3 627 630 628
3 628 630 629
3 629 630 631
3 632 633 634
3 634 633 635
3 637 636 638
3 638 636 639
3 642 640 637
3 638 642 637
3 640 642 641
3 641 642 643
3 644 645 646
3 646 645 647
3 648 649 650
3 650 649 651
3 653 652 654
3 654 652 655
3 654 656 653
3 656 659 657
3 658 656 654
3 656 658 659
3 661 660 662
3 662 660 663
3 662 664 661
3 666 664 665
3 667 664 662
3 664 667 665
3 668 669 670
3 670 669 671
3 673 672 674
3 674 672 675
3 674 676 673
3 678 676 674
3 677 676 678
3 678 679 677
3 680 681 682
3 681 683 682
3 686 687 684
3 688 687 686
3 685 684 687
3 685 687 689
3 689 687 690
3 687 691 690
3 692 693 694
3 693 695 694
3 698 697 699
3 697 700 699
3 696 697 698
3 702 703 698
3 701 703 702
3 711 696 698
3 706 705 704
3 704 708 707
3 705 708 704
3 711 698 709
3 698 703 709
3 703 710 709
3 712 713 714
3 713 715 714
3 718 717 716
3 722 719 720
3 717 722 720
3 717 720 721
3 717 721 716
3 719 725 723
3 719 723 720
3 720 723 724
3 726 728 727
3 728 722 727
3 719 722 729
3 729 722 728
3 730 717 718
3 717 732 722
3 717 730 732
3 730 731 732
3 725 733 723
3 725 732 733
3 732 731 733
3 734 726 727
3 727 722 735
3 722 736 735
3 722 732 736
3 727 737 734
3 738 737 727
3 735 738 727
3 735 739 742
3 741 738 740
3 738 735 740
3 735 742 740
3 743 744 745
3 744 746 745
3 747 748 749
3 748 750 749
3 751 752 753
3 752 754 753
3 755 756 757
3 756 758 757
3 759 760 761
3 760 762 761
3 763 764 765
3 764 766 765
3 768 767 769
3 768 769 770
3 773 767 768
3 772 768 770
3 772 770 771
3 772 771 774
3 776 779 775
3 779 776 777
3 780 779 777
3 780 777 778
3 775 779 781
3 780 778 782
3 784 783 785
3 784 785 786
3 790 783 784
3 788 790 784
3 788 784 786
3 789 788 786
3 786 787 789
3 787 791 789
3 798 792 793
3 794 795 799
3 796 798 793
3 796 793 794
3 797 796 794
3 797 794 799
3 801 800 802
3 802 800 803
3 804 806 807
3 807 806 808
3 805 804 810
3 810 804 807
3 811 809 805
3 811 805 812
3 812 805 810
3 812 810 813
3 813 810 814
3 815 811 816
3 812 817 816
3 812 816 811
3 818 812 813
3 818 813 819
3 821 822 820
3 824 823 822
3 822 823 820
3 825 826 823
3 827 828 829
3 830 831 832
3 831 833 832
3 835 836 834
3 837 836 835
3 838 840 839
3 841 840 838
3 843 844 842
3 842 844 845
3 847 848 846
3 838 850 841
3 850 849 841
3 838 851 850
3 852 853 854
3 854 855 856
3 853 855 854
3 857 861 860
3 858 859 862
3 859 864 862
3 864 863 862
3 863 864 865
3 865 864 866
3 858 862 867
3 862 868 867
3 868 862 869
3 869 862 863
3 870 872 873
3 872 871 873
3 879 874 875
3 879 875 876
3 879 876 877
3 879 877 880
3 880 877 878
3 882 881 883
3 885 884 888
3 888 884 886
3 888 886 882
3 888 882 883
3 887 885 888
3 889 892 891
3 890 892 889
3 893 895 890
3 890 895 892
3 894 895 893
3 898 897 899
3 898 896 897
3 897 900 899
3 901 898 902
3 902 898 899
3 903 902 899
3 904 907 905
3 906 907 904
3 905 908 909
3 905 907 908
3 912 904 905
3 913 905 909
3 914 915 910
3 910 915 911
3 915 909 911
3 913 909 915
3 916 918 919
3 917 916 919
3 918 922 919
3 918 921 922
3 921 920 922
3 926 927 923
3 923 927 924
3 926 923 928
3 928 923 925
3 929 930 934
3 933 931 932
3 935 932 931
3 936 932 935
3 935 937 936
3 934 930 938
3 934 938 939
3 940 939 941
3 938 941 939
3 942 940 943
3 943 940 941
3 944 942 943
3 945 944 941
3 944 943 941
3 946 948 947
3 947 948 949
3 953 955 951
3 953 951 952
3 950 954 951
3 954 952 951
3 952 956 957
3 953 952 957
3 956 958 957
3 956 946 958
3 946 947 958
3 959 960 952
3 952 960 956
3 962 961 963
3 964 962 963
3 965 962 964
3 965 964 966
3 966 964 967
3 962 969 968
3 965 969 962
3 970 972 971
3 971 972 973
3 972 967 973
3 966 967 972
3 974 965 966
3 974 966 975
3 976 974 977
3 977 974 975
3 978 976 979
3 979 976 977
3 980 982 981
3 981 982 983
3 985 980 984
3 982 980 985
3 987 986 988
3 988 986 989
3 990 993 994
3 990 994 991
3 991 994 992
3 995 992 994
3 992 995 996
3 998 997 995
3 996 997 999
3 995 997 996
3 1000 992 1001
3 1001 992 996
3 1002 1001 1003
3 1000 1001 1002
3 1005 1004 1006
3 1007 1005 1006
3 1008 1005 1009
3 1004 1005 1008
3 1010 1005 1007
3 1009 1010 1011
3 1005 1010 1009
3 1012 1014 1013
3 1012 1013 1015
3 1016 1017 1018
3 1022 1020 1019
3 1022 1019 1013
3 1013 1019 1021
3 1021 1023 1013
3 1013 1023 1015
3 1016 1015 1024
3 1015 1023 1024
3 1016 1024 1017
3 1026 1025 1027
3 1027 1025 1028
3 1029 1027 1030
3 1027 1028 1030
3 1031 1034 1033
3 1031 1033 1032
3 1032 1033 1027
3 1026 1027 1033
3 1027 1029 1032
3 1035 1034 1031
3 1036 1038 1039
3 1037 1036 1039
3 1039 1040 1037
3 1041 1040 1039
3 1042 1044 1045
3 1044 1043 1045
3 1042 1045 1046
3 1047 1048 1051
3 1047 1051 1049
3 1049 1051 1050
3 1052 1048 1047
3 1036 1048 1052
3 1038 1036 1052
3 1053 1042 1054
3 1042 1055 1044
3 1055 1051 1044
3 1053 1056 1042
3 1042 1056 1055
3 1057 1049 1050
3 1058 1050 1051
3 1059 1058 1055
3 1055 1058 1051
3 1058 1059 1060
3 1061 1063 1062
3 1068 1061 1062
3 1065 1062 1066
3 1065 1064 1062
3 1062 1064 1067
3 1068 1062 1069
3 1062 1067 1069
3 1070 1072 1071
3 1070 1071 1073
3 1070 1073 1074
3 1075 1074 1076
3 1074 1077 1076
3 1075 1070 1074
3 1078 1079 1080
3 1079 1081 1080
3 1082 1083 1084
3 1083 1085 1084
3 1086 1084 1087
3 1084 1085 1087
3 1082 1084 1091
3 1086 1088 1084
3 1088 1091 1084
3 1086 1089 1088
3 1088 1089 1092
3 1089 1090 1092
3 1093 1094 1095
3 1094 1096 1095
3 1097 1098 1099
3 1098 1100 1099
3 1104 1105 1102
3 1104 1102 1103
3 1103 1102 1101
3 1104 1106 1105
3 1107 1109 1108
3 1108 1103 1101
3 1108 1111 1103
3 1108 1109 1111
3 1110 1103 1111
3 1111 1112 1110
3 1114 1113 1115
3 1114 1116 1113
3 1113 1116 1119
3 1113 1119 1118
3 1113 1118 1117
3 1121 1120 1122
3 1117 1120 1121
3 1123 1120 1117
3 1118 1123 1117
3 1124 1123 1118
3 1130 1126 1125
3 1125 1126 1127
3 1126 1130 1128
3 1125 1129 1130
3 1131 1134 1133
3 1132 1134 1131
3 1135 1136 1137
3 1137 1136 1138
3 1140 1139 1141
3 1142 1144 1143
3 1143 1145 1147
3 1142 1143 1146
3 1143 1147 1146
3 1152 1151 1150
3 1152 1149 1151
3 1149 1148 1151
3 1150 1151 1153
3 1155 1156 1154
3 1158 1159 1148
3 1148 1159 1151
3 1153 1151 1160
3 1151 1159 1160
3 1158 1154 1162
3 1158 1162 1159
3 1156 1162 1154
3 1164 1163 1159
3 1163 1165 1159
3 1165 1166 1159
3 1159 1167 1160
3 1161 1169 1168
3 1161 1160 1169
3 1160 1167 1169
3 1168 1169 1170
3 1159 1162 1171
3 1159 1171 1164
3 1166 1171 1159
3 1162 1159 1171
3 1167 1162 1172
3 1159 1162 1167
3 1156 1157 1173
3 1172 1162 1156
3 1156 1173 1172
3 1173 1157 1174
3 1176 1165 1175
3 1166 1165 1176
3 1178 1180 1179
3 1177 1167 1176
3 1177 1176 1175
3 1167 1181 1169
3 1167 1177 1181
3 1178 1179 1182
3 1181 1170 1169
3 1182 1183 1184
3 1179 1183 1182
3 1184 1183 1172
3 1184 1172 1185
3 1185 1172 1173
3 1188 1189 1187
3 1188 1187 1186
3 1187 1189 1190
3 1188 1191 1189
3 1189 1191 1192
3 1187 1190 1195
3 1187 1195 1193
3 1193 1195 1194
3 1194 1195 1196
3 1195 1197 1196
3 1198 1200 1199
3 1201 1191 1188
3 1201 1204 1191
3 1201 1203 1204
3 1202 1191 1204
3 1202 1204 1205
3 1202 1205 1196
3 1196 1205 1194
3 1207 1203 1206
3 1204 1203 1207
3 1204 1207 1209
3 1204 1209 1205
3 1205 1209 1208
3 1208 1210 1211
3 1210 1208 1212
3 1208 1209 1212
3 1213 1214 1215
3 1214 1216 1215
3 1219 1218 1225
3 1217 1220 1219
3 1219 1224 1217
3 1224 1219 1225
3 1221 1222 1223
3 1228 1227 1226
3 1229 1231 1226
3 1229 1226 1227
3 1231 1229 1230
3 1237 1234 1236
3 1236 1234 1235
3 1238 1232 1239
3 1234 1240 1235
3 1241 1240 1234
3 1245 1242 1244
3 1243 1242 1245
3 1242 1243 1233
3 1238 1239 1246
3 1238 1246 1247
3 1246 1248 1247
3 1237 1250 1249
3 1232 1249 1233
3 1249 1232 1238
3 1249 1234 1237
3 1249 1251 1234
3 1251 1241 1234
3 1233 1249 1242
3 1249 1238 1252
3 1252 1238 1247
3 1249 1250 1254
3 1250 1253 1254
3 1249 1255 1251
3 1256 1251 1255
3 1244 1242 1257
3 1249 1254 1257
3 1249 1257 1242
3 1255 1249 1252
3 1255 1252 1247
3 1255 1259 1258
3 1256 1261 1260
3 1256 1255 1261
3 1255 1258 1261
3 1262 1259 1255
3 1262 1255 1247
3 1263 1264 1265
3 1268 1267 1266
3 1266 1267 1269
3 1263 1265 1270
3 1265 1271 1270
3 1275 1267 1268
3 1275 1274 1267
3 1274 1269 1267
3 1277 1269 1274
3 1278 1263 1270
3 1272 1273 1270
3 1272 1270 1271
3 1276 1272 1271
3 1276 1271 1279
3 1279 1271 1265
3 1264 1280 1265
3 1280 1279 1265
3 1284 1286 1287
3 1284 1287 1288
3 1284 1288 1285
3 1287 1286 1281
3 1282 1287 1281
3 1288 1287 1282
3 1283 1288 1282
3 1290 1289 1291
3 1289 1292 1291
3 1294 1293 1295
3 1293 1296 1295
3 1295 1296 1290
3 1295 1290 1297
3 1297 1290 1298
3 1290 1296 1289
3 1301 1300 1299
3 1299 1300 1302
3 1301 1303 1304
3 1299 1303 1301
3 1299 1305 1303
3 1302 1305 1299
3 1308 1307 1309
3 1307 1308 1310
3 1312 1306 1313
3 1306 1307 1313
3 1311 1307 1314
3 1311 1313 1307
3 1310 1314 1307
3 1311 1314 1315
3 1316 1317 1318
3 1316 1312 1317
3 1312 1313 1317
3 1311 1319 1313
3 1313 1319 1317
3 1311 1315 1320
3 1311 1320 1319
3 1320 1315 1321
3 1320 1321 1322
3 1324 1325 1323
3 1326 1323 1325
3 1327 1328 1329
3 1331 1332 1330
3 1337 1336 1335
3 1337 1333 1336
3 1333 1334 1336
3 1339 1335 1336
3 1338 1335 1339
3 1339 1340 1338
3 1339 1330 1340
3 1330 1332 1340
3 1340 1332 1341
3 1333 1337 1342
3 1343 1344 1345
3 1343 1340 1344
3 1340 1341 1344
3 1344 1346 1345
3 1350 1347 1349
3 1348 1347 1350
3 1348 1351 1347
3 1352 1351 1348
3 1349 1347 1353
3 1347 1354 1353
3 1347 1355 1354
3 1351 1355 1347
3 1356 1354 1357
3 1354 1358 1357
3 1356 1359 1353
3 1354 1356 1353
3 1360 1358 1354
3 1360 1354 1355
3 1360 1355 1361
3 1356 1357 1362
3 1363 1362 1357
3 1364 1367 1366
3 1365 1367 1364
3 1367 1368 1366
3 1367 1356 1368
3 1367 1359 1356
3 1356 1362 1368
3 1369 1363 1361
3 1360 1361 1363
3 1371 1370 1372
3 1372 1370 1373
3 1373 1370 1374
3 1370 1375 1374
3 1374 1375 1376
3 1377 1382 1378
3 1378 1382 1379
3 1379 1382 1383
3 1379 1383 1380
3 1380 1383 1381
3 1384 1385 1386
3 1386 1385 1387
3 1387 1385 1388
3 1388 1385 1389
3 1390 1391 1392
3 1392 1391 1393
3 1400 1394 1395
3 1400 1395 1396
3 1396 1395 1397
3 1400 1396 1398
3 1398 1396 1399
3 1403 1402 1401
3 1403 1401 1398
3 1398 1401 1400
3 1405 1404 1406
3 1406 1404 1407
3 1409 1408 1405
3 1406 1409 1405
3 1411 1410 1412
3 1412 1410 1413
3 1416 1412 1413
3 1414 1412 1416
3 1415 1414 1416
3 1418 1417 1419
3 1419 1417 1420
3 1422 1421 1423
3 1423 1421 1424
3 1426 1425 1427
3 1428 1425 1426
3 1429 1425 1430
3 1430 1425 1428
