ply
format ascii 1.0
element vertex 874
property float x
property float y
property float z
element face 723
property list uchar int vertex_indices
end_header
-0.1145 1.3379 3.5943
-0.1317 1.3917 3.5928
-0.1165 1.3917 3.6181
-0.1605 1.2917 3.4899
-0.1612 1.3917 3.4898
-0.1128 1.2917 3.5756
1.5833 0.3917 2.5371
1.6136 0.4917 2.5398
1.6630 0.3917 2.4437
1.6528 0.4917 2.4428
1.6161 0.2917 2.4396
1.6630 0.3917 2.4437
1.6486 0.2917 2.3420
1.6723 0.2917 2.2437
1.6802 0.3917 2.2444
1.7176 0.3338 2.1473
1.6179 0.3221 2.1386
1.6149 0.2917 2.1739
1.7115 0.3917 2.2165
1.6528 0.4917 2.4428
1.6669 0.4917 2.3436
1.6763 0.4917 2.2441
1.7176 0.4917 2.1473
1.5480 0.8917 2.5341
1.5747 0.8917 2.6368
1.5920 0.9155 2.4375
1.4924 0.9073 2.4289
1.4884 0.8917 2.4747
1.5574 0.8917 2.8360
1.6174 0.9919 2.8412
1.6404 0.9916 2.4417
1.6092 1.2917 2.8405
1.6323 1.2917 2.4410
1.5920 0.9155 2.4375
1.4924 0.9073 2.4289
1.5010 0.8917 2.3292
1.6006 0.8917 2.3379
1.6404 0.9916 2.4417
1.6546 0.8917 2.2427
1.6519 0.9916 2.2421
1.6492 1.0914 2.2421
1.6465 1.1918 2.2414
1.6323 1.2917 2.4410
1.6438 1.2917 2.2413
1.5920 0.6917 2.4375
1.4924 0.6536 2.4289
1.5010 0.6917 2.3292
1.6006 0.6917 2.3379
1.5032 0.7917 2.3039
1.6006 0.8917 2.3379
1.5010 0.8917 2.3292
1.6528 0.4917 2.4428
1.6516 0.5917 2.4427
1.6669 0.4917 2.3436
1.6663 0.5917 2.3436
1.6763 0.4917 2.2441
1.6776 0.5917 2.2442
1.7176 0.4917 2.1473
1.6907 0.5917 2.1449
1.6758 0.6917 2.2440
1.7089 0.7917 2.2469
1.6546 0.8917 2.2427
1.6136 0.4917 2.5398
1.5833 0.5484 2.5371
1.6528 0.4917 2.4428
1.6516 0.5917 2.4427
1.5852 0.5917 2.5159
1.5920 0.6917 2.4375
1.4622 0.9917 3.4300
1.5319 1.0822 3.4437
1.3993 0.9919 3.5008
1.4685 0.9917 3.3302
1.5228 0.9917 3.2345
1.5735 1.1937 3.5067
1.4995 1.2917 3.5008
1.3997 1.2917 3.4960
1.5917 1.0914 3.2405
1.5747 1.2909 3.4407
1.5862 1.2917 3.2400
1.5228 0.9917 3.2345
1.4232 0.9917 3.2259
1.4405 0.8917 3.0266
1.5351 0.8917 3.0932
1.5348 0.9917 3.0963
1.4347 0.9917 3.0934
1.4318 1.0086 3.1262
1.5851 0.8917 3.0392
1.6059 0.9921 3.0406
1.5487 0.8917 2.9356
1.6117 0.9919 2.9409
1.5574 0.8917 2.8360
1.6174 0.9919 2.8412
1.5917 1.0914 3.2405
1.5862 1.2917 3.2400
1.6092 1.2917 2.8405
-1.0715 0.8917 3.0565
-0.9734 0.8917 3.0818
-0.9741 0.9917 3.0903
-1.0737 0.9917 3.0810
-0.9765 1.0034 3.1179
-1.0761 1.0029 3.1093
-1.0691 0.7917 3.0288
-0.9720 0.7917 3.0662
-0.9734 0.8917 3.0818
-1.0715 0.8917 3.0565
-0.9720 0.7917 3.0662
-0.8730 0.7917 3.0821
-0.8739 0.8917 3.0927
-0.9734 0.8917 3.0818
-0.7772 0.8917 3.1352
-0.7756 0.7917 3.1167
-0.6776 0.7917 3.1439
-0.6803 0.8917 3.1743
-0.6132 0.7917 3.3502
-0.6111 0.8917 3.3504
-0.6001 0.7921 3.4067
-0.5999 0.8917 3.4051
-0.6265 0.7917 3.2487
-0.6253 0.8917 3.2488
-0.6949 0.9917 3.3431
-0.7945 0.9917 3.3345
-0.6863 0.9599 3.2435
-0.7859 1.0033 3.2348
-0.7772 0.8917 3.1352
-0.6803 0.8917 3.1743
-0.7835 0.9917 3.2071
-0.7974 0.9927 3.3939
-0.6976 0.9926 3.3987
-0.7982 1.0923 3.3922
-0.7982 1.1922 3.3906
-0.7985 1.2917 3.3890
-0.6111 0.8917 3.3504
-0.5999 0.8917 3.4051
-0.6253 0.8917 3.2488
-0.5994 1.2917 3.3987
-0.6001 0.7921 3.4067
-0.5007 0.7915 3.4116
-0.5999 0.8917 3.4051
-0.4011 0.7913 3.4164
-0.3014 0.7912 3.4213
-0.2002 0.7913 3.4262
-0.2001 0.8917 3.4246
-0.5999 0.8917 3.4051
-0.5994 1.2917 3.3987
-0.2000 0.9918 3.4230
-0.2982 1.1923 3.4149
-0.2001 0.8917 3.4246
-0.2024 1.0917 3.4506
-0.2054 1.1917 3.4860
-0.1995 1.2917 3.4181
-0.1684 1.0917 3.4892
-0.2054 1.1917 3.4860
-0.1103 1.0917 3.5458
-0.1101 1.1917 3.5442
-0.1605 1.2917 3.4899
-0.1128 1.2917 3.5756
-1.7966 2.8917 3.3145
-1.6953 3.0922 3.3162
-1.7963 3.0918 3.3113
-1.5958 3.0920 3.3211
-1.4954 3.0922 3.3259
-1.3968 2.8917 3.3340
-1.3965 3.0921 3.3308
-1.3923 3.1361 3.2826
-1.4919 3.1353 3.2739
-1.3968 2.8917 3.3340
-0.9969 2.8917 3.3535
-1.2948 3.0925 3.3357
-1.3965 3.0921 3.3308
-1.2927 3.0917 3.2912
-1.3923 3.1361 3.2826
-1.1930 3.1295 3.2999
-0.9938 3.1334 3.3172
-1.0848 3.1661 3.2089
-1.1844 3.1672 3.2002
-0.9967 3.0918 3.3502
-0.9851 3.1409 3.2175
-0.9969 2.8917 3.3535
-0.9967 3.0918 3.3502
-0.9938 3.1334 3.3172
-0.9851 3.1409 3.2175
-0.8769 3.1429 3.1266
-0.9765 3.1509 3.1179
-0.6949 3.1233 3.3431
-0.6863 3.1498 3.2435
-0.7772 3.1459 3.1352
-0.6968 3.0918 3.3648
-0.6776 3.1506 3.1439
-0.5971 2.8917 3.3729
-0.5967 3.1920 3.3681
-0.5953 3.1917 3.3518
-0.5866 3.1523 3.2521
-0.5780 3.1491 3.1525
-0.5971 2.8917 3.3729
-0.4968 3.0918 3.3746
-0.5967 3.1920 3.3681
-0.5953 3.1917 3.3518
-0.5866 3.1523 3.2521
-0.4784 3.1570 3.1612
-0.5780 3.1491 3.1525
-0.3466 3.1103 3.3816
-0.2878 3.1631 3.2781
-0.2705 3.1277 3.0788
-0.3701 3.0917 3.0702
-0.4697 3.1438 3.0615
-0.1795 3.1499 3.1871
-0.1973 2.8917 3.3924
-0.1971 3.0680 3.3895
-0.1969 3.1683 3.3879
-0.1708 3.1319 3.0875
1.4020 2.8917 3.4702
1.5035 2.8917 3.4752
1.5036 3.0924 3.4719
1.4022 3.0919 3.4670
1.5055 3.1917 3.4338
1.4059 3.1500 3.4251
1.5037 3.1923 3.4703
1.4278 3.1917 3.3266
1.4145 3.1756 3.3255
1.6034 2.9923 3.4784
-1.7971 2.4917 3.3210
-1.3973 2.4917 3.3404
-1.3968 2.8917 3.3340
-1.7966 2.8917 3.3145
-1.7975 2.1924 3.3258
-1.6965 2.1922 3.3307
-1.7971 2.4917 3.3210
-1.5961 2.1924 3.3356
-1.4967 2.1921 3.3404
-1.3977 2.1922 3.3453
-1.3973 2.4917 3.3404
-1.3973 2.4917 3.3404
-0.9975 2.4917 3.3599
-0.9969 2.8917 3.3535
-1.3968 2.8917 3.3340
-1.3977 2.1922 3.3453
-1.2968 2.1921 3.3502
-1.3976 2.2922 3.3436
-1.3973 2.4917 3.3404
-1.1976 2.1918 3.3550
-1.0967 2.1922 3.3599
-0.9979 2.1919 3.3647
-0.9975 2.4917 3.3599
-0.9975 2.4917 3.3599
-0.5977 2.4917 3.3794
-0.5971 2.8917 3.3729
-0.9969 2.8917 3.3535
-0.9981 2.0917 3.3663
-0.5982 2.0917 3.3858
-0.5977 2.4917 3.3794
-0.9975 2.4917 3.3599
-0.7976 1.6917 3.3826
-0.6971 1.6917 3.3875
-0.6970 1.7924 3.3858
-0.7980 1.7920 3.3809
-0.7979 1.8920 3.3793
-0.7976 1.9920 3.3777
-0.7979 2.0917 3.3761
-0.5884 1.6917 3.2725
-0.5885 1.7917 3.2737
-0.5985 1.8923 3.3890
-0.5982 2.0917 3.3858
-0.7985 1.2917 3.3890
-0.7982 1.3921 3.3874
-0.7984 1.4920 3.3857
-0.7979 1.5921 3.3842
-0.6971 1.6917 3.3875
-0.7976 1.6917 3.3826
-0.5994 1.2917 3.3987
-0.5989 1.5921 3.3938
-0.5953 1.6123 3.3518
-0.5884 1.6917 3.2725
-0.5994 1.2917 3.3987
-0.3986 1.5919 3.4036
-0.5989 1.5921 3.3938
-0.5953 1.6123 3.3518
-0.4870 1.6917 3.2608
-0.5884 1.6917 3.2725
-0.3942 1.6917 3.3483
-0.3481 1.6917 3.3732
-0.2984 1.6917 3.4069
-0.1995 1.2917 3.4181
-0.1990 1.6917 3.4117
-0.5982 2.0917 3.3858
-0.1984 2.0917 3.4053
-0.1979 2.4917 3.3988
-0.5977 2.4917 3.3794
-0.5977 2.4917 3.3794
-0.1979 2.4917 3.3988
-0.1973 2.8917 3.3924
-0.5971 2.8917 3.3729
-0.5884 1.6917 3.2725
-0.4870 1.6917 3.2608
-0.4883 1.7917 3.2758
-0.5885 1.7917 3.2737
-0.5985 1.8923 3.3890
-0.5982 2.0917 3.3858
-0.3942 1.6917 3.3483
-0.3937 1.7917 3.3423
-0.3975 1.8446 3.3996
-0.3481 1.6917 3.3732
-0.2983 1.7920 3.4052
-0.2984 1.6917 3.4069
-0.1990 1.6917 3.4117
-0.1987 1.8921 3.4085
-0.1984 2.0917 3.4053
0.5022 0.3932 3.4668
0.5988 0.3924 3.4715
0.5990 0.4917 3.4699
0.5022 0.4917 3.4652
1.3841 0.9156 2.5198
1.2845 0.9235 2.5112
1.3927 0.9111 2.4202
1.2931 0.9157 2.4116
1.4269 0.8917 2.6239
1.3754 0.9105 2.6195
1.4511 0.8917 2.5256
1.4924 0.9073 2.4289
1.4884 0.8917 2.4747
1.1048 0.6917 2.2679
1.2038 0.6917 2.2842
1.2036 0.7917 2.2861
1.1047 0.7917 2.2699
1.2021 0.8917 2.3033
1.1037 0.8917 2.2808
1.3034 0.6917 2.2934
1.4032 0.6917 2.2994
1.4029 0.7917 2.3034
1.5010 0.6917 2.3292
1.5032 0.7917 2.3039
1.5010 0.8917 2.3292
1.0939 0.9260 2.3943
0.9942 0.9470 2.3856
1.1025 0.8980 2.2946
1.0029 0.8976 2.2860
1.0040 0.8917 2.2726
1.1037 0.8917 2.2808
0.9075 0.6917 2.2281
1.0055 0.6917 2.2560
1.0051 0.7917 2.2602
0.9054 0.7917 2.2532
1.0040 0.8917 2.2726
0.9046 0.8917 2.2619
1.1048 0.6917 2.2679
1.1047 0.7917 2.2699
1.1037 0.8917 2.2808
1.1935 0.9214 2.4029
1.0939 0.9260 2.3943
1.2021 0.8917 2.3033
1.1025 0.8980 2.2946
1.1037 0.8917 2.2808
1.2931 0.9157 2.4116
1.3927 0.9111 2.4202
1.4924 0.9073 2.4289
1.5010 0.8917 2.3292
0.5995 0.8917 3.4635
0.7005 0.9921 3.4668
0.5997 0.9921 3.4619
0.8001 0.9920 3.4716
0.8993 0.9917 3.4765
0.9995 0.9916 3.4814
0.9993 0.8917 3.4830
-0.1684 1.0917 3.4892
-0.2054 1.1917 3.4860
-0.2024 1.0917 3.4506
-0.1605 1.2917 3.4899
-0.2054 1.1917 3.4860
-0.1995 1.2917 3.4181
0.2999 0.8917 3.4489
0.3996 0.8917 3.4538
0.4003 0.9920 3.4522
0.2979 0.9917 3.4696
0.5006 0.9921 3.4571
0.5995 0.8917 3.4635
0.5997 0.9921 3.4619
0.2997 0.7918 3.4505
0.4001 0.7920 3.4554
0.3996 0.8917 3.4538
0.2999 0.8917 3.4489
0.5007 0.7923 3.4603
0.5022 0.4917 3.4652
0.5990 0.4917 3.4699
0.5012 0.5926 3.4636
0.5005 0.6923 3.4619
0.5995 0.8917 3.4635
1.0074 0.1917 3.3905
1.1070 0.2917 3.3992
1.0074 0.2917 3.3905
1.1097 0.3917 3.3680
0.9986 0.3940 3.4910
1.1034 0.4917 3.4945
0.9988 0.4917 3.4894
0.5990 0.4917 3.4699
0.8006 0.4917 3.4798
0.5995 0.8917 3.4635
0.9011 0.5926 3.4830
0.9009 0.7924 3.4798
0.9989 0.5936 3.4878
0.9988 0.4917 3.4894
1.0103 0.6917 3.3572
1.0099 0.7917 3.3619
1.0074 0.8220 3.3905
0.9993 0.8917 3.4830
0.5988 0.3924 3.4715
0.7004 0.3924 3.4765
0.9988 0.4917 3.4894
0.5990 0.4917 3.4699
0.8004 0.3924 3.4814
0.8009 0.2927 3.4830
0.9077 0.2917 3.3819
0.9009 0.3927 3.4862
1.0074 0.2917 3.3905
0.9986 0.3940 3.4910
0.9991 0.9916 3.4813
0.9993 0.8917 3.4830
1.1004 0.8917 3.4879
0.9999 1.2917 3.4765
1.1988 0.9915 3.4911
1.2011 0.8917 3.4710
1.2992 0.9917 3.4959
1.3993 0.9919 3.5008
1.3997 1.2917 3.4960
0.9988 0.4917 3.4894
1.1034 0.4917 3.4945
1.1099 0.5917 3.3653
0.9989 0.5936 3.4878
1.1093 0.6917 3.3725
1.0103 0.6917 3.3572
1.1070 0.7917 3.3992
1.0099 0.7917 3.3619
1.0074 0.8220 3.3905
1.1004 0.8917 3.4879
0.9993 0.8917 3.4830
1.4169 0.9917 3.1249
1.4318 1.0086 3.1262
1.4232 0.9917 3.2259
1.4347 0.9917 3.0934
1.0010 2.0917 3.4636
1.4008 2.0917 3.4831
1.4014 2.4917 3.4767
1.0016 2.4917 3.4572
1.0016 2.4917 3.4572
1.4014 2.4917 3.4767
1.4020 2.8917 3.4702
1.0021 2.8917 3.4508
0.9999 1.2917 3.4765
1.3997 1.2917 3.4960
1.4003 1.6917 3.4895
1.0005 1.6917 3.4701
-0.1605 1.2917 3.4899
-0.1612 1.3917 3.4898
-0.1995 1.2917 3.4181
-0.1994 1.3922 3.4165
-0.1983 2.1920 3.4036
0.2015 2.1918 3.4231
-0.1979 2.4917 3.3988
0.1019 2.2918 3.4166
0.2020 2.4917 3.4183
-0.1979 2.4917 3.3988
0.2020 2.4917 3.4183
0.2025 2.8917 3.4118
-0.1973 2.8917 3.3924
0.2016 2.1918 3.4231
0.3020 2.1920 3.4280
0.2020 2.4917 3.4183
0.4024 2.1922 3.4329
0.5020 2.1920 3.4377
0.6013 2.1921 3.4426
0.6018 2.4917 3.4377
0.2020 2.4917 3.4183
0.6018 2.4917 3.4377
0.6023 2.8917 3.4313
0.2025 2.8917 3.4118
0.6018 2.4917 3.4377
1.0016 2.4917 3.4572
1.0021 2.8917 3.4508
0.6023 2.8917 3.4313
0.6013 2.1921 3.4426
0.7020 2.1920 3.4475
0.6018 2.4917 3.4377
0.8005 2.1914 3.4523
0.9013 2.1918 3.4572
1.0000 2.0917 3.4636
1.0010 2.0913 3.4636
0.9010 2.0917 3.4588
1.0016 2.4917 3.4572
1.0005 1.6917 3.4701
1.4003 1.6917 3.4895
1.4008 2.0917 3.4831
1.0010 2.0917 3.4636
1.6092 1.2917 2.8405
1.6323 1.2917 2.4410
1.6038 1.4921 2.8400
1.6096 1.4923 2.7396
1.6068 1.5924 2.7392
1.6126 1.5925 2.6393
1.6183 1.5923 2.5395
1.6241 1.5917 2.4403
1.6156 1.6917 2.5399
1.5920 1.6917 2.4375
1.6323 1.2917 2.4410
1.6438 1.2917 2.2413
1.6410 1.3917 2.2410
1.6383 1.4917 2.2409
1.6241 1.5917 2.4403
1.6298 1.5918 2.3404
1.6356 1.5913 2.2411
1.3997 1.2917 3.4960
1.4995 1.2917 3.5008
1.5003 1.6917 3.4944
1.4003 1.6917 3.4895
1.5746 1.2917 3.4407
1.5862 1.2917 3.2400
1.5692 1.4908 3.4403
1.5750 1.4907 3.3405
1.6051 1.6917 3.4424
1.5722 1.5906 3.3404
1.5637 1.6917 3.4401
1.5753 1.6917 3.2391
1.5862 1.2917 3.2400
1.5892 1.3914 3.1403
1.6092 1.2917 2.8405
1.5950 1.3917 3.0401
1.6008 1.3920 2.9399
1.5753 1.6917 3.2391
1.5865 1.4910 3.1404
1.5980 1.4920 2.9397
1.6038 1.4921 2.8400
1.5837 1.5904 3.1408
1.6311 1.6917 3.1435
1.5841 2.4917 3.2398
1.5802 2.5917 3.2395
1.5972 2.4917 3.1406
1.5505 2.5917 3.1365
1.4014 2.4917 3.4767
1.5018 2.4917 3.4815
1.5035 2.8917 3.4752
1.4020 2.8917 3.4702
1.5542 2.4917 3.4380
1.5837 2.4917 3.3402
1.5962 2.5917 3.3413
1.5841 2.4917 3.2398
1.5802 2.5917 3.2395
1.6122 2.6917 3.3613
1.6138 2.6503 3.3428
1.5482 2.6917 3.2367
1.6150 2.6917 3.3290
1.6138 2.7120 3.3428
1.5706 2.7917 3.3390
1.5677 2.8917 3.3388
1.4008 2.0917 3.4831
1.5012 2.1918 3.4864
1.5018 2.4917 3.4815
1.4014 2.4917 3.4767
1.6121 2.0917 3.4934
1.5542 2.1917 3.4380
1.6138 2.0917 3.3428
1.5774 2.1917 3.2392
1.5774 2.0917 3.2392
1.5586 2.0917 3.3394
1.6138 2.2917 3.3428
1.5727 2.2917 3.2388
1.5542 2.4917 3.4380
1.5779 2.3917 3.2393
1.5837 2.4917 3.3402
1.5841 2.4917 3.2398
1.5699 1.8910 3.2386
1.5671 1.9910 3.2384
1.5756 1.8914 3.1391
1.5729 1.9916 3.1387
1.4003 1.6917 3.4895
1.5003 1.6917 3.4944
1.5009 1.9419 3.4904
1.4008 2.0917 3.4831
1.6051 1.6917 3.4424
1.5597 1.8417 3.4385
1.5637 1.6917 3.4401
1.5753 1.6917 3.2391
1.5568 1.7917 3.2375
1.5699 1.8910 3.2386
1.6051 1.9917 3.4424
1.5613 1.9903 3.3398
1.5671 1.9910 3.2384
1.6121 2.0917 3.4934
1.5774 2.0917 3.2392
1.5586 2.0917 3.3394
1.6138 1.9917 3.3428
1.6138 2.0917 3.3428
-0.1973 2.8917 3.3924
-0.0971 3.0917 3.3940
-0.1971 3.0439 3.3899
-0.0593 3.1403 3.2477
-0.1969 3.1683 3.3879
-0.1795 3.1499 3.1871
-0.0712 3.0917 3.0961
-0.1708 3.1319 3.0875
0.2028 3.0920 3.4086
0.0284 3.0917 3.1048
0.2104 3.1441 3.3213
0.2190 3.1729 3.2217
0.1280 3.1331 3.1134
0.2025 2.8917 3.4118
0.2277 3.0917 3.1221
0.2025 2.8917 3.4118
0.2028 3.0920 3.4086
0.2104 3.1441 3.3213
0.2190 3.1729 3.2217
0.3273 3.1615 3.1307
0.2277 3.0917 3.1221
0.6023 2.8917 3.4313
0.6175 3.1573 3.2563
0.4269 3.1450 3.1394
0.6026 3.0920 3.4281
0.5092 3.1228 3.3473
0.5265 3.1508 3.1480
0.6089 3.1528 3.3559
0.6262 3.1607 3.1567
1.0021 2.8917 3.4508
1.0024 3.0921 3.4475
1.0074 3.1369 3.3905
1.2153 3.1917 3.3082
1.0160 3.1685 3.2909
1.1243 3.1650 3.1999
1.0247 3.1635 3.1913
1.4022 3.0919 3.4670
1.2043 3.1925 3.4557
1.2239 3.1461 3.2086
1.3062 3.1715 3.4165
1.3149 3.1724 3.3168
1.2153 3.1917 3.3082
1.4020 2.8917 3.4702
1.4059 3.1500 3.4251
1.4145 3.1756 3.3255
0.6023 2.8917 3.4313
0.6026 3.0920 3.4281
0.7127 3.1917 3.3162
0.6089 3.1528 3.3559
0.6708 3.1917 3.2609
0.6175 3.1573 3.2563
0.7258 3.1659 3.1653
0.6262 3.1607 3.1567
0.7225 3.1917 3.2035
0.9077 3.1519 3.3819
0.7770 3.1917 3.2701
0.8254 3.1374 3.1740
1.0024 3.0921 3.4475
1.0247 3.1635 3.1913
0.9250 3.1616 3.1826
1.0021 2.8917 3.4508
1.0074 3.1369 3.3905
1.0160 3.1685 3.2909
-2.3990 0.9917 3.3169
-2.2987 0.9917 3.3176
-2.2976 1.0917 3.3044
-2.3972 1.0917 3.2957
-2.2993 1.1917 3.3239
-2.3987 1.1917 3.3136
-2.1979 0.9917 3.3130
-2.2976 0.9622 3.3044
-2.1979 1.1917 3.3130
-2.2976 1.2165 3.3044
-2.0983 0.9917 3.3217
-2.1979 0.9917 3.3130
-2.0983 1.0917 3.3217
-2.1979 1.1917 3.3130
-2.0983 1.2917 3.3217
-2.1979 0.9917 3.3130
-2.2976 0.9622 3.3044
-2.2944 0.8917 3.2683
-2.1925 0.8917 3.2499
-2.1979 0.9917 3.3130
-2.2976 1.0917 3.3044
-2.1969 1.0917 3.3006
-2.1979 1.1917 3.3130
-2.1979 1.1917 3.3130
-2.2976 1.2165 3.3044
-2.1969 1.2917 3.3015
-2.2934 1.2917 3.2560
-2.0983 0.9917 3.3217
-2.1979 0.9917 3.3130
-2.1925 0.8917 3.2499
-2.0921 0.8917 3.2499
-2.0983 1.0917 3.3217
-2.1979 0.9917 3.3130
-2.1969 1.0917 3.3006
-2.1979 1.1917 3.3130
-2.0983 1.2917 3.3217
-2.1979 1.1917 3.3130
-2.1969 1.2917 3.3015
-1.9941 0.8917 3.2772
-1.9963 0.9917 3.3028
-2.0983 1.0917 3.3217
-1.9973 1.0917 3.3143
-2.0983 1.1917 3.3217
-1.9971 1.1917 3.3122
-2.0983 1.2917 3.3217
-1.9948 1.2917 3.2856
-2.0983 1.2917 3.3217
-2.0983 1.2917 3.3217
-2.1979 1.3917 3.3130
-2.1979 1.3917 3.3130
-2.1969 1.2917 3.3015
-2.0967 1.3917 3.3033
-2.0963 1.4917 3.2981
-2.1961 1.4917 3.2916
-2.0958 1.5917 3.2923
-2.1956 1.5917 3.2856
-1.9948 1.2917 3.2856
-1.9925 1.3917 3.2594
-1.9953 1.4917 3.2911
-2.1979 1.3917 3.3130
-2.2934 1.2917 3.2560
-2.1969 1.2917 3.3015
-2.2956 1.3917 3.2817
-0.1061 1.0409 1.1859
-0.2058 1.0393 1.1773
-0.0975 1.0287 1.0863
-0.1971 1.0288 1.0777
-0.0065 1.0380 1.1946
0.0021 1.0271 1.0950
-0.4441 0.4917 0.4540
-0.3480 0.4917 0.5028
-0.3503 0.5917 0.5300
-0.4457 0.5917 0.4725
-0.3464 0.6917 0.4852
-0.4457 0.6917 0.4721
-0.3618 0.7917 0.6619
-0.4614 0.7917 0.6532
-0.3531 0.7917 0.5622
-0.4527 0.7917 0.5536
-0.3791 0.9917 0.8611
-0.4700 0.8917 0.7529
-0.3744 0.8917 0.8078
-0.4752 0.9917 0.8127
-0.4700 0.7917 0.7529
-0.4614 0.7917 0.6532
-0.4700 0.8917 0.7529
-0.3704 0.7917 0.7615
-0.3618 0.7917 0.6619
-0.3744 0.8917 0.8078
-0.3630 0.8917 0.8625
-0.3791 0.9917 0.8611
-0.3744 0.8917 0.8078
-0.2526 0.8917 1.0729
-0.2340 0.9917 1.0745
-0.2279 0.8917 0.9746
-0.2012 0.9917 0.9769
-0.1798 0.8917 0.8784
-0.1853 0.9917 0.9412
-0.0856 0.9917 0.9492
-0.0975 1.0287 1.0863
-0.1971 1.0288 1.0777
-0.0888 1.0050 0.9867
-0.1885 1.0045 0.9780
0.0194 0.8917 0.8957
0.0139 0.9917 0.9590
0.0021 1.0271 1.0950
0.0108 1.0047 0.9953
-0.2708 0.7917 0.7701
-0.3704 0.7917 0.7615
-0.2621 0.7917 0.6705
-0.3618 0.7917 0.6619
-0.2967 0.8062 1.0690
-0.3964 0.8022 1.0604
-0.2881 0.8006 0.9694
-0.3716 0.8917 0.9622
-0.3887 0.8917 0.9720
-0.2794 0.7917 0.8698
-0.3630 0.8917 0.8625
-0.3704 0.7917 0.7615
-0.3744 0.8917 0.8078
-0.2279 0.8917 0.9746
-0.1798 0.8917 0.8784
-0.3210 0.4917 0.4647
-0.2724 0.5917 0.4689
-0.3480 0.4917 0.5028
-0.3503 0.5917 0.5300
-0.2448 0.6352 0.4713
-0.2470 0.6917 0.4959
-0.3464 0.6917 0.4852
-0.2585 0.5917 0.3697
-0.2362 0.6332 0.3716
-0.2621 0.7917 0.6705
-0.3618 0.7917 0.6619
-0.2535 0.7917 0.5709
-0.3531 0.7917 0.5622
-0.2272 0.5917 0.4728
-0.1519 0.5917 0.5568
-0.0470 0.6917 0.5046
-0.1452 0.7917 0.4799
-0.1539 0.8157 0.5795
-0.0515 0.5917 0.5567
0.0454 0.4917 0.5968
-0.0542 0.4917 0.5882
0.0482 0.5917 0.5649
0.0523 0.6917 0.5168
0.0540 0.7917 0.4972
0.3506 0.3917 0.5501
0.4497 0.3917 0.5642
0.4505 0.4917 0.5552
0.3500 0.4917 0.5571
0.5522 0.1395 0.5405
0.5323 0.1917 0.5387
0.5537 0.1917 0.5224
0.5550 0.2917 0.5081
0.4473 0.1917 0.5917
0.4463 0.2917 0.6037
0.4497 0.3917 0.5642
0.4844 0.4917 0.5346
0.4505 0.4917 0.5552
0.5585 0.4917 0.4674
0.6547 0.2917 0.5156
0.6545 0.3917 0.5176
0.6550 0.4917 0.5119
0.7105 0.2917 0.5542
0.6833 0.3917 0.5519
0.6890 0.4917 0.5523
0.4844 0.4917 0.5346
0.4505 0.4917 0.5552
0.4516 0.5917 0.5420
0.5585 0.4917 0.4674
0.5540 0.5917 0.5189
0.4525 0.6917 0.5318
0.5540 0.6917 0.5188
0.5435 0.7276 0.6401
0.4568 0.7917 0.6326
0.5522 0.7135 0.5405
0.4640 0.7917 0.5328
0.6518 0.5291 0.5491
0.5737 0.5917 0.5423
0.6550 0.4917 0.5119
0.1191 0.8917 0.9044
0.2100 0.8003 1.0126
0.1392 0.8917 1.0065
0.2187 0.7986 0.9130
0.2273 0.7917 0.8134
0.3010 0.8026 1.1209
0.2014 0.8319 1.1123
0.3097 0.8000 1.0213
0.3183 0.8079 0.9217
0.3270 0.8043 0.8220
0.3356 0.8017 0.7224
0.2360 0.8033 0.7138
0.0194 0.8917 0.8957
0.1191 0.8917 0.9044
0.1139 0.9917 0.9637
0.0139 0.9917 0.9590
0.1018 1.0264 1.1036
0.0021 1.0271 1.0950
0.1104 1.0059 1.0040
0.0108 1.0047 0.9953
0.1772 0.8917 1.1102
0.1373 0.9917 1.1067
0.1392 0.8917 1.0065
0.1450 0.4917 0.6055
0.0454 0.4917 0.5968
0.1537 0.5917 0.5059
0.0482 0.5917 0.5649
0.2518 0.6917 0.5311
0.0523 0.6917 0.5168
0.1537 0.7917 0.5059
0.0540 0.7917 0.4972
0.2472 0.5917 0.5842
0.2446 0.7917 0.6141
0.1450 0.8110 0.6055
0.3494 0.5917 0.5636
0.3529 0.7917 0.5232
0.3356 0.8017 0.7224
0.2360 0.8033 0.7138
0.3443 0.8133 0.6228
0.3500 0.4917 0.5571
0.4505 0.4917 0.5552
0.4516 0.5917 0.5420
0.4525 0.6917 0.5318
3 2 0 1
3 0 5 3
3 0 3 1
3 1 3 4
3 6 7 8
3 8 7 9
3 10 11 12
3 12 11 13
3 17 13 14
3 17 14 15
3 17 15 16
3 18 15 14
3 11 19 13
3 13 19 20
3 13 20 14
3 14 20 21
3 18 21 22
3 14 21 18
3 23 26 27
3 23 25 26
3 28 29 24
3 23 24 30
3 30 24 29
3 25 23 30
3 29 31 32
3 29 32 30
3 33 35 34
3 36 35 33
3 36 33 37
3 36 37 38
3 37 42 38
3 38 42 39
3 39 42 40
3 40 42 41
3 41 42 43
3 45 46 44
3 44 46 47
3 46 48 47
3 49 48 50
3 51 52 53
3 53 52 54
3 53 54 55
3 55 54 56
3 57 55 58
3 55 56 58
3 52 44 54
3 54 44 47
3 54 47 56
3 56 47 59
3 60 59 47
3 60 47 48
3 60 48 49
3 60 49 61
3 63 66 65
3 63 65 62
3 62 65 64
3 67 65 66
3 69 68 70
3 69 71 68
3 69 70 73
3 73 70 75
3 73 75 74
3 76 71 69
3 72 71 76
3 78 76 73
3 76 69 73
3 77 73 74
3 78 73 77
3 82 81 83
3 83 81 84
3 79 85 80
3 83 85 79
3 83 84 85
3 87 86 82
3 83 87 82
3 86 87 88
3 88 87 89
3 88 89 90
3 90 89 91
3 83 79 92
3 83 92 87
3 87 92 94
3 87 94 89
3 89 94 91
3 92 93 94
3 96 95 97
3 97 95 98
3 99 98 100
3 97 98 99
3 102 101 103
3 103 101 104
3 106 105 107
3 107 105 108
3 109 110 107
3 110 106 107
3 111 109 112
3 111 110 109
3 116 115 113
3 114 116 113
3 113 117 114
3 117 118 114
3 117 112 118
3 111 112 117
3 122 120 121
3 121 120 119
3 121 125 122
3 121 124 125
3 124 123 125
3 127 126 134
3 134 126 128
3 134 128 129
3 134 129 130
3 131 119 127
3 131 127 132
3 132 127 134
3 133 119 131
3 121 119 133
3 133 124 121
3 136 135 137
3 138 136 137
3 139 138 137
3 140 139 141
3 141 139 137
3 144 142 145
3 145 142 143
3 146 142 144
3 147 144 145
3 148 147 145
3 148 145 149
3 145 143 149
3 150 151 152
3 152 151 153
3 151 154 155
3 151 155 153
3 157 156 158
3 161 156 159
3 159 156 157
3 160 161 159
3 162 161 160
3 162 160 164
3 163 162 164
3 166 165 167
3 167 165 168
3 167 168 170
3 169 167 170
3 171 167 169
3 172 167 171
3 172 171 173
3 171 174 173
3 175 166 167
3 175 167 172
3 172 173 176
3 180 182 181
3 188 177 178
3 183 178 179
3 183 179 184
3 179 180 184
3 184 180 185
3 180 181 185
3 186 188 178
3 186 178 183
3 184 185 187
3 189 188 186
3 183 190 189
3 183 189 186
3 190 183 191
3 183 184 191
3 191 184 192
3 184 187 192
3 194 193 195
3 196 194 195
3 196 197 194
3 194 197 198
3 197 199 198
3 200 194 201
3 201 194 202
3 194 198 202
3 202 198 203
3 198 204 203
3 200 193 194
3 201 202 205
3 200 207 206
3 200 206 193
3 207 200 208
3 208 200 201
3 208 201 205
3 205 202 209
3 212 210 213
3 215 214 216
3 215 216 213
3 213 216 212
3 218 214 215
3 217 214 218
3 219 211 210
3 212 219 210
3 221 220 222
3 222 220 223
3 225 224 226
3 227 225 226
3 229 228 227
3 229 227 230
3 230 227 226
3 232 231 233
3 233 231 234
3 236 235 237
3 239 236 237
3 239 237 238
3 240 239 238
3 241 240 242
3 242 240 238
3 244 243 245
3 245 243 246
3 248 247 249
3 249 247 250
3 252 251 253
3 253 251 254
3 253 254 261
3 261 254 255
3 261 255 256
3 261 256 257
3 258 253 259
3 252 253 258
3 260 253 261
3 253 260 259
3 268 262 263
3 263 264 265
3 263 265 266
3 266 265 267
3 268 263 269
3 266 270 269
3 266 269 263
3 270 266 271
3 273 272 274
3 273 274 275
3 275 276 273
3 277 276 275
3 276 278 273
3 281 272 273
3 278 279 280
3 278 280 273
3 273 280 281
3 282 281 280
3 284 283 285
3 285 283 286
3 288 287 289
3 289 287 290
3 292 291 293
3 293 291 294
3 293 294 295
3 297 292 298
3 298 292 293
3 299 293 295
3 298 293 299
3 299 295 296
3 301 302 300
3 300 298 301
3 297 298 300
3 301 299 304
3 301 298 299
3 304 299 296
3 303 302 301
3 303 301 304
3 305 304 296
3 307 306 308
3 308 306 309
3 310 312 311
3 311 312 313
3 316 315 314
3 310 315 316
3 318 310 316
3 318 317 310
3 317 312 310
3 320 319 321
3 321 319 322
3 323 321 324
3 321 322 324
3 320 321 323
3 326 325 327
3 327 325 320
3 327 320 323
3 328 326 329
3 326 327 329
3 330 327 323
3 329 327 330
3 331 333 332
3 332 333 334
3 333 335 334
3 336 335 333
3 338 337 339
3 339 337 340
3 339 340 341
3 341 340 342
3 343 338 344
3 344 338 339
3 344 339 345
3 345 339 341
3 348 349 346
3 349 347 346
3 348 350 349
3 351 348 346
3 352 348 351
3 353 348 352
3 354 348 353
3 356 355 357
3 358 355 356
3 359 355 358
3 360 355 359
3 361 355 360
3 362 364 363
3 366 367 365
3 369 368 370
3 370 368 371
3 369 370 372
3 373 369 374
3 374 369 372
3 376 375 377
3 377 375 378
3 376 377 379
3 381 380 382
3 381 382 383
3 381 383 384
3 384 383 379
3 384 379 377
3 386 385 387
3 387 388 386
3 389 388 387
3 388 389 390
3 390 389 391
3 393 392 394
3 395 393 396
3 396 393 394
3 395 397 393
3 393 397 398
3 399 397 395
3 400 399 395
3 396 400 395
3 401 400 396
3 401 396 402
3 402 396 394
3 404 403 405
3 405 403 406
3 407 404 405
3 409 408 410
3 410 408 407
3 410 407 405
3 410 411 409
3 405 411 410
3 411 405 412
3 413 415 414
3 413 416 415
3 417 418 415
3 417 415 416
3 417 416 419
3 420 419 421
3 421 419 416
3 423 422 424
3 424 422 425
3 424 425 426
3 426 425 427
3 428 426 429
3 426 427 429
3 428 430 432
3 428 432 431
3 428 429 430
3 435 434 433
3 433 434 436
3 438 437 439
3 439 437 440
3 442 441 443
3 443 441 444
3 446 445 447
3 447 445 448
3 449 452 450
3 451 452 449
3 454 453 455
3 456 454 455
3 457 454 456
3 457 456 455
3 459 458 460
3 460 458 461
3 462 464 463
3 468 463 464
3 465 463 468
3 468 466 465
3 467 466 468
3 470 469 471
3 471 469 472
3 474 473 475
3 475 473 476
3 478 477 479
3 480 478 479
3 480 479 481
3 479 485 481
3 482 485 483
3 482 484 485
3 484 481 485
3 487 486 488
3 488 486 489
3 490 492 493
3 490 493 491
3 493 494 491
3 491 494 495
3 491 495 496
3 491 496 497
3 496 498 497
3 497 498 499
3 501 500 502
3 502 500 503
3 500 504 505
3 500 505 503
3 503 505 506
3 508 507 509
3 509 507 510
3 513 511 508
3 513 508 509
3 511 514 512
3 513 514 511
3 514 518 512
3 513 509 515
3 516 518 514
3 517 518 516
3 513 515 514
3 514 515 516
3 517 516 515
3 519 520 521
3 521 520 522
3 521 522 523
3 519 524 520
3 520 524 525
3 523 526 521
3 521 526 527
3 528 525 524
3 528 524 529
3 530 531 532
3 532 531 533
3 535 534 536
3 536 534 537
3 539 538 540
3 539 540 541
3 541 540 542
3 543 538 535
3 536 543 535
3 544 540 543
3 540 538 543
3 546 540 544
3 546 545 540
3 545 542 540
3 543 548 547
3 543 536 548
3 548 536 549
3 551 550 552
3 552 550 553
3 555 554 551
3 551 554 550
3 554 557 556
3 555 557 554
3 556 558 559
3 556 557 558
3 552 555 551
3 560 557 555
3 560 561 557
3 562 555 552
3 560 555 563
3 555 562 563
3 560 563 561
3 563 562 564
3 563 564 565
3 566 567 568
3 568 567 569
3 571 570 572
3 572 570 573
3 575 574 571
3 574 575 576
3 575 577 576
3 572 575 571
3 577 575 579
3 577 579 578
3 580 575 572
3 575 581 579
3 580 581 575
3 581 582 579
3 580 572 583
3 583 572 573
3 585 582 581
3 584 582 585
3 586 581 580
3 580 583 586
3 586 583 587
3 590 589 588
3 589 590 592
3 589 592 591
3 592 593 591
3 591 593 594
3 593 595 594
3 589 601 588
3 601 589 596
3 596 589 591
3 591 594 597
3 598 596 591
3 598 591 599
3 599 591 600
3 591 597 600
3 599 600 602
3 606 608 607
3 609 603 604
3 605 606 610
3 610 606 611
3 606 607 611
3 612 609 604
3 612 604 605
3 613 612 605
3 613 605 610
3 610 611 614
3 615 612 613
3 615 613 610
3 610 614 616
3 618 619 620
3 619 621 620
3 620 621 622
3 621 623 622
3 630 617 624
3 624 617 618
3 618 625 624
3 620 625 618
3 620 622 626
3 625 627 624
3 627 629 628
3 625 629 627
3 631 624 627
3 631 627 632
3 627 628 632
3 635 634 636
3 635 638 637
3 635 636 638
3 637 639 641
3 637 638 639
3 638 640 639
3 648 633 634
3 642 634 635
3 643 642 635
3 641 639 643
3 639 644 643
3 645 648 634
3 645 634 642
3 642 643 646
3 646 643 647
3 643 644 647
3 649 645 642
3 649 642 650
3 642 646 650
3 652 651 653
3 653 651 654
3 653 654 655
3 655 654 656
3 658 652 657
3 653 657 652
3 659 653 655
3 659 655 660
3 662 663 661
3 664 665 663
3 666 668 667
3 669 668 666
3 670 671 672
3 671 673 672
3 675 676 674
3 677 676 675
3 678 680 679
3 681 680 678
3 683 684 682
3 682 684 685
3 687 688 686
3 678 690 681
3 690 689 681
3 690 691 692
3 678 691 690
3 692 693 694
3 691 693 692
3 694 695 696
3 693 695 694
3 697 701 700
3 698 699 702
3 699 704 702
3 704 703 702
3 703 704 705
3 705 704 706
3 698 702 707
3 702 708 707
3 708 702 709
3 709 702 703
3 710 712 713
3 712 711 713
3 714 716 715
3 715 716 717
3 718 719 714
3 714 719 716
3 721 720 722
3 722 720 723
3 722 723 724
3 724 723 725
3 726 728 727
3 727 728 729
3 728 725 729
3 724 725 728
3 730 732 733
3 732 731 733
3 737 738 734
3 734 738 735
3 737 734 739
3 739 734 736
3 740 742 741
3 743 744 745
3 745 744 746
3 747 746 748
3 745 746 747
3 749 747 748
3 750 752 751
3 751 752 753
3 752 748 753
3 749 748 752
3 754 747 755
3 755 747 749
3 756 757 750
3 750 757 752
3 758 760 759
3 759 760 761
3 765 766 763
3 765 763 764
3 764 763 762
3 764 767 765
3 765 767 768
3 767 770 768
3 769 770 767
3 764 771 772
3 764 772 767
3 774 773 775
3 776 774 775
3 777 774 776
3 777 776 778
3 778 776 779
3 774 781 780
3 777 781 774
3 782 784 783
3 783 784 785
3 784 779 785
3 778 779 784
3 786 777 778
3 786 778 787
3 787 778 788
3 784 789 778
3 789 788 778
3 784 790 789
3 791 787 788
3 793 794 792
3 791 794 793
3 794 791 795
3 795 791 788
3 795 788 796
3 796 788 789
3 798 797 799
3 799 797 800
3 801 802 803
3 804 802 805
3 806 804 805
3 802 804 803
3 807 804 806
3 809 808 807
3 804 808 810
3 807 808 804
3 811 804 812
3 812 804 813
3 813 804 810
3 814 812 815
3 811 812 814
3 815 813 816
3 812 813 815
3 819 817 818
3 820 817 821
3 822 817 819
3 821 822 823
3 817 822 821
3 827 825 822
3 825 824 822
3 824 826 822
3 828 821 829
3 828 830 821
3 830 820 821
3 831 833 832
3 831 832 834
3 836 838 837
3 837 838 832
3 838 839 832
3 832 839 834
3 835 834 840
3 834 839 840
3 835 840 842
3 840 841 842
3 844 843 845
3 845 843 846
3 847 849 848
3 848 849 850
3 851 853 852
3 853 845 852
3 844 845 853
3 845 847 852
3 849 847 845
3 856 855 857
3 856 854 855
3 856 857 858
3 858 857 859
3 858 859 860
3 860 859 861
3 862 856 858
3 863 858 860
3 863 860 864
3 863 866 858
3 866 862 858
3 863 868 869
3 868 867 869
3 871 870 872
3 872 870 865
3 872 865 873
3 873 865 862
3 866 873 862
