ply
format ascii 1.0
element vertex 1452
property float x
property float y
property float z
element face 1160
property list uchar int vertex_indices
end_header
-2.0983 1.2917 3.3217
-2.0983 1.2917 3.3217
-2.1979 1.3917 3.3130
-2.1979 1.3917 3.3130
-2.1969 1.2917 3.3015
-2.0967 1.3917 3.3033
-2.0963 1.4917 3.2981
-2.1961 1.4917 3.2916
-2.0958 1.5917 3.2923
-2.1956 1.5917 3.2856
-1.9948 1.2917 3.2856
-1.9925 1.3917 3.2594
-1.9953 1.4917 3.2911
-2.1979 1.3917 3.3130
-2.2934 1.2917 3.2560
-2.1969 1.2917 3.3015
-2.2956 1.3917 3.2817
-2.0959 2.4917 3.2926
-2.0960 2.5917 3.2918
-2.0959 2.6917 3.2911
-2.0955 2.7918 3.2904
-2.0955 2.8917 3.2896
-1.7961 2.4917 3.3097
-1.7959 2.8917 3.3067
-2.0957 2.3918 3.2933
-1.9962 2.3917 3.2990
-2.0959 2.4917 3.2926
-1.9960 2.2917 3.2998
-1.8964 2.2917 3.3054
-1.8960 2.1918 3.3062
-1.7963 2.1918 3.3119
-1.7961 2.4917 3.3097
-0.1058 1.1272 3.4946
-0.1788 1.1917 3.4883
-0.1126 1.1917 3.5727
-0.1145 1.2917 3.5943
-0.1917 1.2917 3.4872
0.0932 1.0434 1.2024
-0.0064 1.0435 1.1936
0.1018 1.0227 1.1036
0.0021 1.0229 1.0950
0.1406 0.9917 1.2074
0.1526 0.9917 1.1080
0.3505 0.3917 0.5505
0.4497 0.3917 0.5641
0.4505 0.4917 0.5552
0.3498 0.4917 0.5593
0.5435 0.1917 0.6401
0.5522 0.1917 0.5405
0.5550 0.2917 0.5075
0.4472 0.1917 0.5932
0.4465 0.2917 0.6014
0.4497 0.3917 0.5641
0.5563 0.3917 0.4922
0.4857 0.4917 0.5347
0.4505 0.4917 0.5552
0.5551 0.4917 0.5069
0.6547 0.2917 0.5150
0.6546 0.3917 0.5167
0.6859 0.2917 0.5521
0.6842 0.3917 0.5519
0.4857 0.4917 0.5347
0.4708 0.5917 0.5334
0.4505 0.4917 0.5552
0.4516 0.5917 0.5430
0.5551 0.4917 0.5069
0.5540 0.5917 0.5189
0.4525 0.6917 0.5318
0.5540 0.6917 0.5189
0.1191 0.8917 0.9044
0.2101 0.7982 1.0127
0.1385 0.8917 1.0064
0.2190 0.7964 0.9131
0.2271 0.7944 0.8133
0.3350 0.7999 0.7224
0.2359 0.7926 0.7138
0.3007 0.8074 1.1209
0.2118 0.8917 1.1132
0.3093 0.8055 1.0212
0.2023 0.8917 1.1019
0.3186 0.8037 0.9218
0.3271 0.8018 0.8221
0.0194 0.8917 0.8957
0.1191 0.8917 0.9044
0.1129 0.9958 0.9751
0.0131 0.9964 0.9682
0.1018 1.0227 1.1036
0.0021 1.0229 1.0950
0.2014 0.9195 1.1123
0.1526 0.9917 1.1080
0.1385 0.8917 1.0064
0.2023 0.8917 1.1019
0.2118 0.8917 1.1132
0.2619 0.5337 0.4149
0.1965 0.5917 0.4092
0.2957 0.4917 0.3175
0.1933 0.5917 0.3086
0.1623 0.6733 0.4062
0.1710 0.6747 0.3066
0.2447 0.7907 0.6142
0.2446 0.7917 0.6141
0.1523 0.6917 0.5220
0.2444 0.7887 0.5339
0.1537 0.7917 0.5059
0.1450 0.8033 0.6055
0.3268 0.4917 0.5209
0.2533 0.5592 0.5145
0.3498 0.4917 0.5593
0.4516 0.5917 0.5430
0.2480 0.5917 0.5758
0.3003 0.4917 0.4182
0.3350 0.7999 0.7224
0.2359 0.7926 0.7138
0.3526 0.7961 0.5231
0.3450 0.7981 0.6231
0.4505 0.4917 0.5552
0.4525 0.6917 0.5318
0.3529 0.7917 0.5232
0.4530 0.7917 0.5261
1.5917 3.1364 2.4375
1.4924 3.1343 2.4289
1.6264 3.1191 2.0390
1.5270 3.1170 2.0304
1.6364 2.8917 2.4414
1.6533 2.8917 2.0413
1.6375 3.0917 2.4415
1.6544 3.0917 2.0414
1.5232 3.1710 3.2354
1.4231 3.1689 3.2268
1.5570 3.1537 2.8360
1.4578 3.1516 2.8274
1.6025 2.8917 3.2414
1.6194 2.8917 2.8414
1.6037 3.0917 3.2415
1.6066 3.1681 3.1371
1.6122 3.0916 3.0407
1.6206 3.0916 2.8415
1.5570 3.1537 2.8360
1.4578 3.1516 2.8274
1.5917 3.1364 2.4375
1.4924 3.1343 2.4289
1.6194 2.8917 2.8414
1.6364 2.8917 2.4414
1.6206 3.0916 2.8415
1.6375 3.0917 2.4415
1.4003 2.8917 3.4889
1.5006 2.8917 3.4946
1.4997 3.1820 3.4891
1.4005 3.0919 3.4874
1.5232 3.1710 3.2345
1.4061 3.1775 3.4257
1.4232 3.1689 3.2259
1.5941 2.8917 3.4403
1.6025 2.8917 3.2414
1.5953 3.0915 3.4398
1.6037 3.0917 3.2415
1.6341 2.4917 2.4412
1.6364 2.8917 2.4414
1.6510 2.4917 2.0411
1.6533 2.8917 2.0413
1.6318 2.0917 2.4410
1.6341 2.4917 2.4412
1.6487 2.0917 2.0409
1.6510 2.4917 2.0411
1.6172 2.4917 2.8412
1.6194 2.8917 2.8414
1.6341 2.4917 2.4412
1.6364 2.8917 2.4414
1.6149 2.0917 2.8410
1.6172 2.4917 2.8412
1.6318 2.0917 2.4410
1.6341 2.4917 2.4412
1.6126 1.6917 2.8408
1.6149 2.0917 2.8410
1.6295 1.6917 2.4408
1.6318 2.0917 2.4410
1.6104 1.2917 2.8406
1.6126 1.6917 2.8408
1.6273 1.2917 2.4406
1.6295 1.6917 2.4408
1.6273 1.2917 2.4406
1.6363 1.3918 2.2412
1.6399 1.2917 2.1416
1.6405 1.3919 2.1416
1.6369 1.4918 2.2411
1.6374 1.5918 2.2411
1.6295 1.6917 2.4408
1.6422 1.6917 2.1414
1.6416 1.5918 2.1415
1.6295 1.6917 2.4408
1.6422 1.6917 2.1414
1.6428 1.7918 2.1411
1.6434 1.8917 2.1409
1.6439 1.9917 2.1408
1.6318 2.0917 2.4410
1.6445 2.0917 2.1409
1.5980 2.0917 3.2410
1.6003 2.4917 3.2412
1.6149 2.0917 2.8410
1.6172 2.4917 2.8412
1.3993 1.2917 3.5008
1.4993 1.2917 3.5065
1.4998 1.6917 3.5035
1.3996 1.6917 3.4978
1.5849 1.2919 3.4416
1.5934 1.2919 3.2406
1.5873 1.6917 3.4405
1.5957 1.6917 3.2408
1.5934 1.2917 3.2406
1.5957 1.6917 3.2408
1.6104 1.2917 2.8406
1.6126 1.6917 2.8408
1.6003 2.4917 3.2412
1.6025 2.8917 3.2414
1.6172 2.4917 2.8412
1.6194 2.8917 2.8414
1.4001 2.4917 3.4918
1.5003 2.4917 3.4976
1.5006 2.8917 3.4946
1.4003 2.8917 3.4889
1.5918 2.4917 3.4408
1.6003 2.4917 3.2412
1.5941 2.8917 3.4403
1.6025 2.8917 3.2414
1.3998 2.0917 3.4948
1.4999 2.0917 3.5005
1.5003 2.4917 3.4976
1.4001 2.4917 3.4918
1.5895 2.0917 3.4407
1.5980 2.0917 3.2410
1.5918 2.4917 3.4408
1.6003 2.4917 3.2412
1.5957 1.6917 3.2408
1.5980 2.0917 3.2410
1.6126 1.6917 2.8408
1.6149 2.0917 2.8410
1.3996 1.6917 3.4978
1.4998 1.6917 3.5035
1.4999 2.0917 3.5005
1.3998 2.0917 3.4948
1.5873 1.6917 3.4405
1.5957 1.6917 3.2408
1.5895 2.0917 3.4407
1.5980 2.0917 3.2410
-2.7006 0.8917 3.3218
-2.6002 0.8917 3.3214
-2.6006 0.9917 3.3268
-2.6990 0.9917 3.3037
-2.6002 0.8917 3.3214
-2.4986 0.8917 3.3073
-2.6006 0.9917 3.3268
-2.5012 1.0917 3.3376
-2.6012 1.0917 3.3336
-2.3972 0.8917 3.2957
-2.3992 1.0917 3.3191
-2.2976 0.8917 3.3044
-2.2976 1.0917 3.3044
-2.2993 1.1917 3.3239
-2.3987 1.1917 3.3136
-2.1979 0.9487 3.3130
-2.1990 0.9917 3.3258
-2.1979 1.0457 3.3130
-2.1979 1.1917 3.3130
-2.2976 1.2165 3.3044
-2.0983 0.9917 3.3217
-2.1979 0.9487 3.3130
-2.1990 0.9917 3.3258
-2.0983 1.0917 3.3217
-2.1979 1.0457 3.3130
-2.1979 1.1917 3.3130
-2.0983 1.2917 3.3217
-2.2976 0.8917 3.3044
-2.1979 0.9487 3.3130
-2.1960 0.8917 3.2906
-2.1979 1.0457 3.3130
-2.2976 1.0917 3.3044
-2.1971 1.0917 3.3034
-2.1979 1.1917 3.3130
-2.1979 1.1917 3.3130
-2.2976 1.2165 3.3044
-2.1969 1.2917 3.3015
-2.2934 1.2917 3.2560
-2.0983 0.9917 3.3217
-2.1979 0.9487 3.3130
-2.1960 0.8917 3.2906
-2.0921 0.8917 3.2499
-2.0983 1.0917 3.3217
-2.1979 1.0457 3.3130
-2.1971 1.0917 3.3034
-2.1979 1.1917 3.3130
-2.0983 1.2917 3.3217
-2.1979 1.1917 3.3130
-2.1969 1.2917 3.3015
-1.9941 0.8917 3.2772
-1.9963 0.9917 3.3028
-1.9987 1.0917 3.3303
-1.9987 1.0917 3.3303
-2.0983 1.1917 3.3217
-1.9971 1.1917 3.3122
-2.0983 1.2917 3.3217
-1.9948 1.2917 3.2856
-0.1145 1.2917 3.5943
-0.1917 1.2917 3.4872
-0.1778 1.3917 3.4884
-0.1131 1.3917 3.5783
-0.1058 1.4739 3.4946
-0.0106 1.2917 3.5546
-0.0099 1.3917 3.5456
-1.7961 2.4917 3.3097
-1.3966 2.4917 3.3324
-1.3964 2.8917 3.3295
-1.7959 2.8917 3.3067
-1.7963 2.1918 3.3119
-1.6964 2.1918 3.3176
-1.7961 2.4917 3.3097
-1.5963 2.1918 3.3233
-1.4966 2.1918 3.3290
-1.3968 2.1918 3.3347
-1.3966 2.4917 3.3324
-1.3966 2.4917 3.3324
-0.9971 2.4917 3.3552
-0.9968 2.8917 3.3522
-1.3964 2.8917 3.3295
-1.3968 2.1918 3.3347
-1.2969 2.1918 3.3404
-1.3966 2.4917 3.3324
-1.1969 2.1918 3.3461
-1.0969 2.1918 3.3518
-0.9973 2.1918 3.3574
-0.9971 2.4917 3.3552
-0.9971 2.4917 3.3552
-0.5976 2.4917 3.3780
-0.5973 2.8917 3.3750
-0.9968 2.8917 3.3522
-0.9973 2.0917 3.3582
-0.5978 2.0917 3.3810
-0.5976 2.4917 3.3780
-0.9971 2.4917 3.3552
-0.7977 1.6917 3.3725
-0.6969 1.6917 3.3783
-0.6969 1.7920 3.3775
-0.7976 1.7918 3.3718
-0.7975 1.8918 3.3711
-0.7974 1.9918 3.3703
-0.7974 2.0917 3.3696
-0.5889 1.6917 3.2780
-0.5892 1.7917 3.2820
-0.5953 1.8917 3.3518
-0.5979 1.8920 3.3824
-0.5978 2.0917 3.3810
-0.7981 1.2917 3.3755
-0.7980 1.3918 3.3748
-0.7979 1.4917 3.3740
-0.7978 1.5918 3.3733
-0.6969 1.6917 3.3783
-0.7977 1.6917 3.3725
-0.5983 1.2917 3.3869
-0.5981 1.5918 3.3847
-0.5953 1.6186 3.3518
-0.5889 1.6917 3.2780
-0.5983 1.2917 3.3869
-0.5981 1.5918 3.3847
-0.5953 1.6186 3.3518
-0.4891 1.6917 3.2850
-0.5889 1.6917 3.2780
-0.3975 1.6917 3.3954
-0.2988 1.2917 3.4040
-0.1987 1.4917 3.4082
-0.2036 1.2917 3.4653
-0.2017 1.3917 3.4434
-0.1985 1.6917 3.4067
-0.5978 2.0917 3.3810
-0.1983 2.0917 3.4037
-0.1980 2.4917 3.4008
-0.5976 2.4917 3.3780
-0.5976 2.4917 3.3780
-0.1980 2.4917 3.4008
-0.1978 2.8917 3.3978
-0.5973 2.8917 3.3750
-0.5889 1.6917 3.2780
-0.4891 1.6917 3.2850
-0.4894 1.7917 3.2878
-0.5892 1.7917 3.2820
-0.5953 1.8917 3.3518
-0.5979 1.8920 3.3824
-0.5978 2.0917 3.3810
-0.3975 1.6917 3.3954
-0.3975 1.8536 3.3941
-0.1985 1.6917 3.4067
-0.1983 2.0917 3.4037
1.5833 0.3917 2.5371
1.5833 0.4917 2.5371
1.6571 0.3917 2.4432
1.6547 0.4917 2.4430
1.6132 0.2917 2.4394
1.6571 0.3917 2.4432
1.6410 0.2917 2.3414
1.6560 0.2917 2.2423
1.6758 0.3917 2.2440
1.7176 0.3633 2.1473
1.6179 0.3240 2.1386
1.6140 0.2917 2.1836
1.7144 0.3917 2.1837
1.6547 0.4917 2.4430
1.6654 0.4917 2.3435
1.6711 0.4917 2.2436
1.7176 0.4917 2.1473
1.5546 0.8917 2.6350
1.5440 0.8917 2.5337
1.5660 0.8917 2.7364
1.5920 0.9136 2.4375
1.4924 0.9083 2.4289
1.4879 0.8917 2.4799
1.5574 0.8917 2.8360
1.6087 0.9918 2.8405
1.6256 0.9919 2.4404
1.6104 1.2917 2.8406
1.6273 1.2917 2.4406
1.5920 0.9136 2.4375
1.4924 0.9083 2.4289
1.6006 0.8917 2.3379
1.5010 0.8999 2.3292
1.5026 0.8917 2.3107
1.6256 0.9919 2.4404
1.6334 0.8917 2.2420
1.6340 0.9919 2.2417
1.6346 1.0919 2.2413
1.6351 1.1919 2.2414
1.6273 1.2917 2.4406
1.6399 1.2917 2.1416
1.6393 1.1919 2.1418
1.5920 0.6673 2.4375
1.4924 0.6403 2.4289
1.6006 0.6917 2.3379
1.5020 0.6917 2.3180
1.6059 0.7917 2.2769
1.5045 0.7917 2.2896
1.6006 0.8917 2.3379
1.5026 0.8917 2.3107
1.6547 0.4917 2.4430
1.6537 0.5917 2.4429
1.6654 0.4917 2.3435
1.6711 0.4917 2.2436
1.6713 0.5917 2.2436
1.7176 0.4917 2.1473
1.6871 0.5917 2.1446
1.6673 0.6917 2.2433
1.7089 0.7917 2.2469
1.6334 0.8917 2.2420
1.6919 0.7917 2.1451
1.6708 0.8917 2.1432
1.5833 0.4917 2.5371
1.6547 0.4917 2.4430
1.6537 0.5917 2.4429
1.5858 0.5917 2.5086
1.5920 0.6673 2.4375
1.4630 0.9917 3.4301
1.5535 1.0917 3.4379
1.3991 0.9918 3.5030
1.5808 1.0916 3.5114
1.4645 0.9917 3.3298
1.4733 0.9917 3.2302
1.5228 1.0107 3.2345
1.4993 1.1918 3.5072
1.4993 1.2917 3.5065
1.3993 1.2917 3.5008
1.5923 1.0918 3.2405
1.5849 1.2917 3.4416
1.5934 1.2917 3.2406
1.4733 0.9917 3.2302
1.4232 0.9802 3.2259
1.5314 0.9917 3.1349
1.4318 0.9519 3.1262
1.4362 0.8917 3.0763
1.5401 0.8917 3.0353
1.5228 1.0107 3.2345
1.6002 0.9918 3.0411
1.5624 0.8917 2.9368
1.6044 0.9919 2.9413
1.5574 0.8917 2.8360
1.6087 0.9918 2.8405
1.5923 1.0918 3.2405
1.6104 1.2917 2.8406
1.5934 1.2917 3.2406
-0.5693 3.1259 3.0529
-0.9678 3.1173 3.0183
-0.5347 3.1086 2.6544
-0.9332 3.1000 2.6198
-1.1980 3.0762 2.1953
-1.1890 3.0719 2.0954
-1.1804 3.0676 1.9957
-1.1715 3.0633 1.8967
-1.0631 3.0611 1.8055
-1.1629 3.0590 1.7968
-0.8986 3.0827 2.2213
-0.8641 3.0654 1.8228
-0.5347 3.1086 2.6544
-0.9332 3.1000 2.6198
-0.5001 3.0913 2.2559
-0.8986 3.0827 2.2213
-0.5001 3.0913 2.2559
-0.8986 3.0827 2.2213
-0.4656 3.0740 1.8574
-0.8641 3.0654 1.8228
-0.1016 3.0999 2.2905
-0.5001 3.0913 2.2559
-0.0670 3.0826 1.8920
-0.4656 3.0740 1.8574
-0.1362 3.1172 2.6890
-0.5347 3.1086 2.6544
-0.1016 3.0999 2.2905
-0.5001 3.0913 2.2559
-0.1708 3.1345 3.0875
-0.5693 3.1259 3.0529
-0.1362 3.1172 2.6890
-0.5347 3.1086 2.6544
-1.7959 2.8917 3.3067
-1.6951 3.0919 3.3109
-1.7958 3.0919 3.3052
-1.6912 3.1265 3.2566
-1.7908 3.1377 3.2480
-1.3962 3.0919 3.3280
-1.5829 3.1917 3.1656
-1.6825 3.1595 3.1570
-1.3923 3.1281 3.2826
-1.4833 3.1917 3.1743
-1.3964 2.8917 3.3295
-1.3838 3.1174 3.1846
-1.3752 3.1131 3.0853
-1.4734 3.1110 3.0777
-1.4819 3.1154 3.1777
-1.3964 2.8917 3.3295
-1.3962 3.0919 3.3280
-1.3923 3.1281 3.2826
-0.9853 3.1260 3.2191
-1.3838 3.1174 3.1846
-1.3663 3.1087 2.9837
-0.9967 3.0919 3.3508
-0.9938 3.1228 3.3172
-0.9968 2.8917 3.3522
-0.9678 3.1173 3.0183
-0.9968 2.8917 3.3522
-0.9967 3.0919 3.3508
-0.9938 3.1228 3.3172
-0.9853 3.1260 3.2191
-0.9678 3.1173 3.0183
-0.5972 3.0919 3.3735
-0.5953 3.0917 3.3518
-0.5867 3.1346 3.2528
-0.5973 2.8917 3.3750
-0.5972 2.9917 3.3743
-0.5693 3.1259 3.0529
-1.1154 3.0870 2.4027
-1.2152 3.0849 2.3936
-1.2067 3.0805 2.2937
-1.1980 3.0762 2.1953
-1.0159 3.0892 2.4111
-1.0330 3.0978 2.6111
-1.0247 3.0935 2.5104
-0.8986 3.0827 2.2213
-0.9332 3.1000 2.6198
-1.2659 3.1109 2.9924
-1.1581 3.1087 2.9022
-1.2577 3.1066 2.8936
-0.9332 3.1000 2.6198
-1.1331 3.0957 2.6024
-1.1391 3.0989 2.6770
-1.1497 3.1043 2.8019
-1.1411 3.1000 2.7022
-0.9678 3.1173 3.0183
-0.5973 2.8917 3.3750
-0.5972 3.0919 3.3735
-0.5953 3.0917 3.3518
-0.1882 3.1431 3.2873
-0.5867 3.1346 3.2528
-0.5693 3.1259 3.0529
-0.1976 3.0918 3.3963
-0.1978 2.8917 3.3978
-0.1708 3.1345 3.0875
-0.2531 0.9917 1.1732
-0.2057 1.0439 1.1763
-0.2323 0.9917 1.0746
-0.1971 1.0232 1.0777
-0.1060 1.0437 1.1850
-0.0064 1.0435 1.1936
0.0021 1.0229 1.0950
-0.6310 0.2917 0.4377
-0.6200 0.3917 0.4387
-0.5409 0.2917 0.4128
-0.5414 0.4917 0.4189
-0.6123 0.4917 0.4394
-0.4416 0.2917 0.4254
-0.4429 0.3917 0.4406
-0.4441 0.4917 0.4540
-0.4441 0.4917 0.4540
-0.3499 0.5917 0.5256
-0.5414 0.4917 0.4189
-0.5420 0.5917 0.4257
-0.5437 0.6917 0.4453
-0.4459 0.6917 0.4746
-0.4614 0.7917 0.6532
-0.4527 0.7917 0.5536
-0.3480 0.4917 0.5037
-0.3470 0.6917 0.4918
-0.3618 0.7917 0.6619
-0.3531 0.7917 0.5622
-0.3877 0.9308 0.9608
-0.4384 0.9917 0.9564
-0.3791 0.9917 0.8611
-0.4700 0.8917 0.7529
-0.3743 0.8917 0.8066
-0.4752 0.9917 0.8129
-0.4700 0.7917 0.7529
-0.4614 0.7917 0.6532
-0.4700 0.8917 0.7529
-0.3704 0.7917 0.7615
-0.3618 0.7917 0.6619
-0.3743 0.8917 0.8066
-0.3416 0.8917 1.0651
-0.2967 0.9368 1.0690
-0.3601 0.8917 0.9631
-0.3877 0.9308 0.9608
-0.3901 0.8917 0.9884
-0.2928 0.8917 1.0241
-0.2323 0.9917 1.0746
-0.2166 0.8917 0.9756
-0.1994 0.9917 0.9771
-0.1971 1.0232 1.0777
-0.1885 1.0024 0.9781
-0.1798 0.8917 0.8784
-0.1857 0.9957 0.9460
0.0194 0.8917 0.8957
0.0131 0.9964 0.9682
0.0021 1.0229 1.0950
-0.3416 0.8917 1.0651
-0.3964 0.8024 1.0604
-0.2881 0.7978 0.9694
-0.3601 0.8917 0.9631
-0.2928 0.8917 1.0241
-0.3901 0.8917 0.9884
-0.2794 0.8002 0.8698
-0.3554 0.8917 0.8632
-0.3704 0.7917 0.7615
-0.2708 0.7917 0.7701
-0.3743 0.8917 0.8066
-0.2166 0.8917 0.9756
-0.1798 0.8917 0.8784
-0.3166 0.4917 0.4650
-0.2751 0.5917 0.4686
-0.3480 0.4917 0.5037
-0.3499 0.5917 0.5256
-0.2448 0.6396 0.4713
-0.2469 0.6917 0.4944
-0.3470 0.6917 0.4918
-0.2789 0.5917 0.3679
-0.2362 0.6151 0.3716
-0.2621 0.7917 0.6705
-0.3618 0.7917 0.6619
-0.2535 0.7917 0.5709
-0.3531 0.7917 0.5622
-0.1452 0.5917 0.4799
-0.0471 0.6917 0.5056
-0.1452 0.7917 0.4799
-0.0515 0.5917 0.5570
-0.0456 0.7917 0.4886
0.0481 0.5917 0.5660
0.0525 0.6917 0.5149
1.0852 0.9042 2.4939
0.9856 0.9021 2.4852
1.0939 0.9228 2.3943
0.9942 0.9269 2.3856
0.5997 0.3918 3.4619
0.5001 0.4917 3.4555
0.5997 0.4917 3.4611
0.5005 0.3919 3.4562
1.1675 0.9146 2.7018
1.0679 0.9035 2.6931
1.1762 0.9002 2.6022
1.0766 0.9010 2.5935
1.1848 0.9213 2.5025
1.0852 0.9042 2.4939
1.1935 0.9242 2.4029
1.0939 0.9228 2.3943
1.2845 0.9185 2.5112
1.2931 0.9239 2.4116
1.3841 0.9148 2.5198
1.3927 0.9224 2.4202
1.4249 0.8917 2.6237
1.3754 0.9098 2.6195
1.4523 0.8917 2.5258
1.4924 0.9083 2.4289
1.4879 0.8917 2.4799
1.1047 0.6917 2.2697
1.2039 0.6917 2.2828
1.1044 0.7917 2.2730
1.1025 0.8917 2.2946
1.2032 0.8917 2.2905
1.3041 0.6917 2.2849
1.3029 0.8917 2.2990
1.4037 0.6917 2.2934
1.4042 0.7917 2.2882
1.5026 0.8917 2.3107
1.5020 0.6917 2.3180
1.5045 0.7917 2.2896
0.8585 0.8917 2.3738
0.8946 0.9279 2.3770
0.8967 0.8917 2.2768
0.9033 0.8984 2.2773
0.9046 0.8917 2.2622
0.9942 0.9269 2.3856
1.0029 0.8917 2.2860
1.0939 0.9228 2.3943
1.1025 0.8917 2.2946
0.8534 0.7917 2.3734
0.8585 0.8917 2.3738
0.8937 0.7917 2.2765
0.8967 0.8917 2.2768
0.9077 0.6917 2.2260
1.0049 0.6917 2.2629
1.0050 0.7917 2.2610
0.9052 0.7917 2.2553
1.0029 0.8917 2.2860
0.9046 0.8917 2.2622
1.1047 0.6917 2.2697
1.1044 0.7917 2.2730
1.1025 0.8917 2.2946
1.1935 0.9242 2.4029
1.0939 0.9228 2.3943
1.1025 0.8917 2.2946
1.2021 0.8970 2.3033
1.2032 0.8917 2.2905
1.2931 0.9239 2.4116
1.3029 0.8917 2.2990
1.3927 0.9224 2.4202
1.4028 0.8917 2.3047
1.4924 0.9083 2.4289
1.5010 0.8999 2.3292
1.5026 0.8917 2.3107
0.6000 0.8917 3.4582
0.6001 0.9918 3.4574
0.6999 0.9917 3.4631
0.8000 1.0918 3.4681
0.7004 1.0918 3.4624
0.8466 1.0917 3.4707
0.8992 1.0916 3.4737
0.9992 0.8917 3.4809
0.9996 1.0915 3.4795
-0.1058 1.1272 3.4946
-0.1788 1.1917 3.4883
-0.1989 1.0916 3.4111
-0.1000 1.0915 3.4168
-0.1989 1.1914 3.4104
-0.1917 1.2917 3.4872
-0.2036 1.2917 3.4653
0.2883 0.8917 3.4285
0.2476 0.9917 3.4249
0.3004 0.8917 3.4411
0.3003 0.9917 3.4403
0.2380 0.8917 3.3237
0.2104 0.9586 3.3213
0.2057 0.9917 3.3751
0.2162 0.8917 3.2538
0.4005 0.9918 3.4461
0.6000 0.8917 3.4582
0.6001 0.9918 3.4574
0.3006 0.7918 3.4419
0.4000 0.7917 3.4475
0.6000 0.8917 3.4582
0.3004 0.8917 3.4411
0.4004 0.5918 3.4490
0.5001 0.5918 3.4547
0.4004 0.6918 3.4483
0.5001 0.4917 3.4555
0.5997 0.4917 3.4611
1.0074 0.1917 3.3905
1.0064 0.2917 3.4018
1.1070 0.4917 3.3992
0.9992 0.3923 3.4847
1.0058 0.4917 3.4087
1.2066 0.3917 3.4078
1.2066 0.4917 3.4078
0.5997 0.4917 3.4611
0.8999 0.4917 3.4783
0.6000 0.8917 3.4582
0.9001 0.5919 3.4775
0.9001 0.6919 3.4768
0.8999 0.8917 3.4753
1.0058 0.4917 3.4087
1.0059 0.5917 3.4073
1.0074 0.6917 3.3905
1.0074 0.7917 3.3905
0.9995 0.8917 3.4809
0.5996 0.2918 3.4626
0.6996 0.2918 3.4683
0.8999 0.4917 3.4783
0.5997 0.4917 3.4611
0.7994 0.3917 3.4733
0.9011 0.2922 3.4798
0.8000 0.2919 3.4740
1.0064 0.2917 3.4018
0.9992 0.3923 3.4847
1.0058 0.4917 3.4087
0.9995 0.8917 3.4809
1.3990 0.8917 3.5037
1.3993 1.2917 3.5008
0.9998 1.2917 3.4780
1.0058 0.4917 3.4087
1.1070 0.4917 3.3992
1.1070 0.5917 3.3992
1.0059 0.5917 3.4073
1.0074 0.6917 3.3905
1.1070 0.7917 3.3992
1.0074 0.7917 3.3905
0.9992 0.8917 3.4809
1.0996 0.8917 3.4867
1.2066 0.4917 3.4078
1.4924 3.1343 2.4289
1.0939 3.1257 2.3943
1.5270 3.1170 2.0304
1.1285 3.1084 1.9958
0.6608 3.1344 2.7582
0.7944 3.1192 2.3683
0.6954 3.1171 2.3597
0.8929 3.1213 2.3768
0.9849 3.1278 2.4836
0.9942 3.0917 2.3856
1.0593 3.1430 2.7928
1.0939 3.1257 2.3943
0.9936 3.1235 2.3856
0.6608 3.1344 2.7582
0.2623 3.1258 2.7236
0.6954 3.1171 2.3597
0.2969 3.1085 2.3251
0.2965 3.1085 2.3250
0.3142 3.0998 2.1255
0.4223 3.0976 2.0346
0.4310 3.0933 1.9352
0.3315 3.0912 1.9266
0.6215 3.1019 2.0517
0.6298 3.0976 1.9525
0.5306 3.0955 1.9439
0.7015 2.8917 2.0591
0.7213 2.9333 2.0608
0.7178 2.8917 2.1008
0.6952 2.8917 1.9582
0.7300 2.9656 1.9612
0.7214 3.1040 2.0595
0.7300 3.0227 1.9612
0.6954 3.1171 2.3597
0.2969 3.1085 2.3251
-0.1016 3.0999 2.2905
0.3315 3.0912 1.9266
-0.0670 3.0826 1.8920
0.7601 2.8917 2.1645
0.8123 2.9761 2.1691
0.8079 2.8917 2.2192
0.7808 2.9917 2.0660
0.7213 2.9333 2.0608
0.7178 2.8917 2.1008
0.8296 2.9631 1.9698
0.7300 2.9656 1.9612
0.8266 2.9917 2.0043
0.8036 3.0568 2.2687
0.7036 3.1127 2.2591
0.6954 3.1171 2.3597
0.7214 3.1040 2.0595
0.8681 2.8917 2.1739
0.8497 2.8917 2.0719
0.8567 2.9917 2.0725
0.8545 2.8917 1.9720
0.8929 3.1213 2.3768
0.9942 3.0917 2.3856
0.9119 3.0580 2.1777
0.9206 3.0917 2.0781
0.9203 3.1084 2.0773
1.0024 3.1191 2.2848
0.9289 3.1041 1.9784
1.0939 3.1257 2.3943
0.9936 3.1235 2.3856
1.1285 3.1084 1.9958
0.2277 3.1431 3.1221
-0.1708 3.1345 3.0875
0.2623 3.1258 2.7236
-0.1362 3.1172 2.6890
0.6262 3.1517 3.1567
0.2277 3.1431 3.1221
0.6608 3.1344 2.7582
0.2623 3.1258 2.7236
1.4232 3.1689 3.2259
1.0247 3.1603 3.1913
1.4578 3.1516 2.8274
1.0593 3.1430 2.7928
1.4578 3.1516 2.8274
1.0593 3.1430 2.7928
1.4924 3.1343 2.4289
1.0939 3.1257 2.3943
0.2623 3.1258 2.7236
-0.1362 3.1172 2.6890
0.2969 3.1085 2.3251
-0.1016 3.0999 2.2905
1.0247 3.1603 3.1913
0.6262 3.1517 3.1567
1.0593 3.1430 2.7928
0.6608 3.1344 2.7582
-0.1978 2.8917 3.3978
-0.1976 3.0918 3.3963
-0.1882 3.1431 3.2873
-0.1708 3.1345 3.0875
0.2019 3.0919 3.4191
0.2103 3.1517 3.3216
0.2018 2.8917 3.4206
0.2277 3.1431 3.1221
0.2018 2.8917 3.4206
0.2019 3.0919 3.4191
0.2103 3.1517 3.3216
0.2277 3.1431 3.1221
0.6014 3.0918 3.4418
0.6088 3.1603 3.3563
0.6013 2.8917 3.4433
0.6262 3.1517 3.1567
1.0008 2.8917 3.4661
1.1015 3.0919 3.4704
1.0009 3.0919 3.4646
1.0074 3.1689 3.3905
1.0253 3.1603 3.1913
1.4005 3.0919 3.4874
1.4058 3.1775 3.4257
1.4003 2.8917 3.4889
1.4237 3.1689 3.2259
0.6013 2.8917 3.4433
0.6014 3.0918 3.4418
0.6088 3.1603 3.3563
0.6262 3.1517 3.1567
1.0009 3.0919 3.4646
1.0074 3.1689 3.3905
1.0008 2.8917 3.4661
1.0253 3.1603 3.1913
0.8123 2.8647 2.1691
0.7601 2.8917 2.1645
0.8079 2.8917 2.2192
0.8681 2.8917 2.1739
0.7213 2.8369 2.0608
0.7178 2.8917 2.1008
0.8296 2.8343 1.9698
0.7300 2.7917 1.9612
0.8497 2.8917 2.0719
0.8545 2.8917 1.9720
-0.1537 1.7919 3.4085
-0.1979 1.8919 3.4052
-0.1985 1.7918 3.4059
1.0003 2.0917 3.4720
1.3998 2.0917 3.4948
1.4001 2.4917 3.4918
1.0006 2.4917 3.4691
1.0006 2.4917 3.4691
1.4001 2.4917 3.4918
1.4003 2.8917 3.4889
1.0008 2.8917 3.4661
0.9998 1.2917 3.4780
1.3993 1.2917 3.5008
1.3996 1.6917 3.4978
1.0000 1.6917 3.4750
-0.1917 1.2917 3.4872
-0.1778 1.3917 3.4884
-0.2036 1.2917 3.4653
-0.2017 1.3917 3.4434
-0.1058 1.4739 3.4946
-0.1025 1.4917 3.4571
-0.1987 1.4917 3.4082
-0.1983 2.0917 3.4037
-0.0984 2.0917 3.4090
-0.0979 2.1918 3.4087
-0.1980 2.4917 3.4008
0.2013 2.1918 3.4258
0.2015 2.4917 3.4235
-0.1980 2.4917 3.4008
0.2015 2.4917 3.4235
0.2018 2.8917 3.4206
-0.1978 2.8917 3.3978
0.2013 2.1918 3.4258
0.4010 2.1917 3.4371
0.2015 2.4917 3.4235
0.5004 2.1916 3.4428
0.6008 2.1917 3.4485
0.6010 2.4917 3.4463
0.2015 2.4917 3.4235
0.6010 2.4917 3.4463
0.6013 2.8917 3.4433
0.2018 2.8917 3.4206
0.6010 2.4917 3.4463
1.0006 2.4917 3.4691
1.0008 2.8917 3.4661
0.6013 2.8917 3.4433
0.6008 2.1917 3.4485
0.7001 2.1916 3.4542
0.6010 2.4917 3.4463
0.8002 2.1916 3.4599
1.0004 2.1916 3.4713
1.0006 2.4917 3.4691
1.0000 1.6917 3.4750
1.3996 1.6917 3.4978
1.3998 2.0917 3.4948
1.0003 2.0917 3.4720
-1.1757 0.9917 3.1006
-1.1724 0.8917 3.0622
-1.0734 0.8917 3.0785
-1.0748 0.9917 3.0942
-1.0848 1.0261 3.2089
-1.1844 1.0250 3.2002
-1.0761 0.9983 3.1093
-0.9765 0.9917 3.1179
-0.9749 0.8917 3.0996
-0.9938 1.0227 3.3172
-1.0934 1.0225 3.3085
-0.9851 1.0087 3.2175
-1.0675 0.7917 3.0096
-0.9729 0.7917 3.0764
-0.9749 0.8917 3.0996
-1.0734 0.8917 3.0785
-0.8769 0.8917 3.1266
-0.9729 0.7917 3.0764
-0.8748 0.7917 3.1029
-0.9749 0.8917 3.0996
-0.7772 0.8917 3.1352
-0.7757 0.7917 3.1172
-0.6776 0.8917 3.1439
-0.6759 0.7917 3.1245
-0.5780 0.7225 3.1525
-0.6351 0.7917 3.1476
-0.5832 0.7917 3.2126
-0.5953 0.7917 3.3518
-0.5953 0.8917 3.3518
-0.5866 0.8917 3.2521
-0.8769 0.8917 3.1266
-0.9765 0.9917 3.1179
-0.9749 0.8917 3.0996
-0.8942 1.0315 3.3258
-0.9938 1.0227 3.3172
-0.8855 1.0093 3.2262
-0.9851 1.0087 3.2175
-0.7794 0.9917 3.1606
-0.7945 1.0204 3.3345
-0.8542 1.0917 3.4297
-0.8632 1.1917 3.4289
-0.7983 1.0917 3.3770
-0.8640 1.2917 3.4288
-0.7981 1.2917 3.3755
-0.5953 0.9917 3.3518
-0.6776 0.8917 3.1439
-0.5953 0.8917 3.3518
-0.5866 0.8917 3.2521
-0.5985 1.0917 3.3884
-0.5983 1.2917 3.3869
-0.5491 0.6917 3.3558
-0.5953 0.7917 3.3518
-0.4992 0.6917 3.3970
-0.5513 0.6917 3.2552
-0.5763 0.7917 3.2530
-0.4995 0.8917 3.3955
-0.5953 0.8917 3.3518
-0.5866 0.8917 3.2521
-0.5832 0.7917 3.2126
-0.3994 0.6916 3.4027
-0.2994 0.6917 3.4084
-0.2995 0.7916 3.4077
-0.1968 0.7917 3.3864
-0.1991 0.8917 3.4126
-0.5953 0.8917 3.3518
-0.4995 0.8917 3.3955
-0.5953 0.9917 3.3518
-0.5985 1.0917 3.3884
-0.5983 1.2917 3.3869
-0.1991 0.8917 3.4126
-0.1989 1.1914 3.4104
-0.2988 1.2917 3.4040
-0.2036 1.2917 3.4653
0.1710 0.6747 0.3066
0.0713 0.6505 0.2980
0.1796 0.6740 0.2070
0.1389 0.6917 0.2035
0.0766 0.6917 0.2376
0.0800 0.7068 0.1983
0.2706 0.5170 0.3153
0.1933 0.5917 0.3086
0.2784 0.5917 0.2247
0.2208 0.6917 0.2106
0.2785 0.6917 0.2238
0.2792 0.7000 0.2156
0.2578 2.8716 1.6190
0.1822 2.8917 1.6125
0.2549 2.8917 1.6523
0.2632 2.8917 1.5567
0.3574 2.8608 1.6277
0.3487 2.8917 1.7273
0.3606 2.8917 1.5910
0.8642 2.8110 1.5713
0.7645 2.7917 1.5627
0.8335 2.8917 1.4683
0.7678 2.8917 1.5257
0.8768 2.8917 1.4254
0.9871 2.7917 1.3812
0.9638 2.8646 1.5800
0.9724 2.8486 1.4803
0.9299 2.8917 1.3763
0.9844 2.8917 1.3424
0.9973 2.8917 1.5829
1.0721 2.8701 1.4890
1.0697 2.8917 1.5162
1.0807 2.8557 1.3894
1.0894 2.7917 1.2897
1.0677 2.8917 1.2879
1.0907 2.8917 1.2745
0.6649 2.7735 1.5540
0.6402 2.7917 1.5519
0.6649 2.8064 1.5540
0.7645 2.7917 1.5627
0.7645 2.7917 1.5627
0.7326 2.8917 1.5599
0.7678 2.8917 1.5257
0.7545 2.7917 1.6787
0.7559 2.7840 1.6623
0.7645 2.7917 1.5627
0.8296 2.8343 1.9698
0.7300 2.7917 1.9612
0.7842 2.8917 1.8655
0.7386 2.7917 1.8615
0.8325 2.8917 1.9364
0.7942 2.8917 1.7660
0.7473 2.8288 1.7619
0.8517 2.8917 1.7149
0.8642 2.8110 1.5713
0.8545 2.8917 1.9720
0.8954 2.8917 1.6744
0.9638 2.8646 1.5800
0.9611 2.8917 1.6107
0.9973 2.8917 1.5829
0.4484 2.8701 1.7360
0.3837 2.8917 1.7304
0.4464 2.8917 1.7585
0.4570 2.7917 1.6363
0.3574 2.8608 1.6277
0.3487 2.8917 1.7273
0.4593 2.8917 1.6100
0.3606 2.8917 1.5910
0.5458 2.8917 1.7700
0.6058 2.7917 1.6493
0.5591 2.8917 1.6164
0.6461 2.7917 1.7712
0.6649 2.7735 1.5540
0.6402 2.7917 1.5519
0.6390 2.8917 1.8529
0.6649 2.8064 1.5540
0.6604 2.8917 1.6057
0.7559 2.7840 1.6623
0.7645 2.7917 1.5627
0.7300 2.7917 1.9612
0.6952 2.8917 1.9582
0.7386 2.7917 1.8615
0.7473 2.8288 1.7619
0.7326 2.8917 1.5599
-1.0062 1.1916 3.4601
-0.9055 1.1918 3.4627
-0.9055 1.2917 3.4617
-1.0061 1.2917 3.4591
-0.8632 1.1917 3.4289
-0.8640 1.2917 3.4288
-1.4069 1.0917 3.4508
-1.3075 1.0916 3.4534
-1.4067 1.2917 3.4489
-1.2067 1.0917 3.4560
-1.1067 1.0917 3.4585
-1.0063 1.0917 3.4611
-1.0061 1.2917 3.4591
-1.5064 1.1918 3.4473
-1.4068 1.1918 3.4498
-1.4067 1.2917 3.4489
-1.5068 1.2917 3.4463
1.2204 2.9917 1.4015
1.1803 2.9619 1.3980
1.1765 2.9917 1.4418
1.1840 2.9917 1.3565
1.2800 3.0735 1.4067
1.2886 3.0783 1.3070
1.1890 3.0917 1.2984
1.3709 3.0917 1.5149
1.2713 3.0700 1.5063
1.2627 3.0917 1.6059
1.3796 3.0917 1.4153
1.3274 3.0917 1.3104
1.4791 3.0889 1.4236
1.3797 3.0867 1.4155
1.4824 3.0917 1.3871
1.3622 3.0954 1.6146
1.5788 3.0910 1.4326
1.5616 3.0997 1.6319
0.6006 3.0609 1.1469
0.7082 3.0917 1.0559
0.7991 3.0652 1.1642
0.8077 3.0609 1.0659
0.7991 3.0652 1.1642
0.8077 3.0609 1.0659
0.8997 3.0674 1.1729
0.9074 3.0917 1.0732
1.2627 3.0917 1.6059
1.1630 3.0549 1.5973
1.1544 3.0917 1.6969
1.1285 3.1084 1.9958
1.2452 3.1019 1.8047
1.1458 3.0997 1.7962
1.2626 3.0932 1.6059
1.5270 3.1170 2.0304
1.5616 3.0997 1.6319
0.8642 2.9751 1.5713
0.7645 2.9295 1.5627
0.8335 2.8917 1.4683
0.8728 2.9331 1.4717
0.7678 2.8917 1.5257
0.8768 2.8917 1.4254
0.8633 3.0846 1.5712
0.7645 3.0825 1.5627
0.7991 3.0652 1.1642
0.8997 3.0674 1.1729
0.8981 2.9917 1.5743
0.9724 2.9917 1.4803
0.9299 2.8917 1.3763
0.9844 2.8917 1.3424
0.9726 3.0825 1.4808
0.9973 2.8917 1.5829
1.0105 2.9917 1.5840
1.0697 2.8917 1.5162
1.0680 2.9917 1.5364
1.0778 2.9917 1.4236
1.0677 2.8917 1.2879
1.0894 2.9224 1.2897
1.0907 2.8917 1.2745
1.0620 3.0889 1.5885
1.0809 3.0803 1.3899
1.0896 3.0760 1.2904
1.0984 3.0717 1.1901
1.0956 2.8917 1.4910
1.1140 2.9917 1.4926
1.1289 2.8917 1.3935
1.1803 2.9619 1.3980
1.1132 2.9917 1.3922
1.1765 2.9917 1.4418
1.1325 2.8917 1.2935
1.1840 2.9917 1.3565
1.0807 3.0917 1.3894
1.1890 3.0917 1.2984
1.1889 3.0781 1.2990
0.7942 2.8917 1.7660
0.8046 2.9917 1.7669
0.8517 2.8917 1.7149
0.7559 2.9630 1.6623
0.7521 2.9917 1.7065
0.8642 2.9751 1.5713
0.7645 2.9295 1.5627
0.8458 3.0931 1.7679
0.8548 3.0889 1.6692
0.7560 3.0867 1.6607
0.8633 3.0846 1.5712
0.7645 3.0825 1.5627
0.8545 2.8917 1.9720
0.8296 2.9631 1.9698
0.8325 2.8917 1.9364
0.8954 2.8917 1.6744
0.8981 2.9917 1.5743
0.9611 2.8917 1.6107
0.9601 2.9917 1.6228
0.9541 3.0910 1.6769
0.9973 2.8917 1.5829
1.0105 2.9917 1.5840
1.0548 3.0610 1.6882
1.0620 3.0889 1.5885
1.1544 3.0917 1.6969
1.0461 3.0917 1.7879
1.1630 3.0549 1.5973
1.1285 3.1084 1.9958
1.0285 3.1062 1.9871
1.1371 3.1040 1.8956
1.0373 3.1019 1.8870
0.3660 3.0739 1.5281
0.4014 3.0566 1.1296
0.4921 3.0631 1.2391
0.3919 3.0610 1.2305
0.7326 2.8917 1.5599
0.7645 2.9295 1.5627
0.7678 2.8917 1.5257
0.7645 3.0825 1.5627
0.7991 3.0652 1.1642
-0.0325 3.0653 1.4935
0.0934 3.0545 1.2040
-0.0066 3.0524 1.1956
0.1934 3.0567 1.2135
0.3919 3.0610 1.2305
0.3660 3.0739 1.5281
0.3837 2.8917 1.7304
0.3487 2.9284 1.7273
0.4464 2.8917 1.7585
0.3451 2.9917 1.7689
0.4570 2.9399 1.6363
0.3574 2.9483 1.6277
0.3487 2.8917 1.7273
0.4999 2.9917 1.7209
0.3534 2.9917 1.6733
0.3606 2.8917 1.5910
0.4593 2.8917 1.6100
0.4397 3.0319 1.8356
0.3402 3.0868 1.8259
0.3314 3.0912 1.9266
0.4568 3.0803 1.6358
0.3575 3.0782 1.6268
0.7645 3.0825 1.5627
0.3660 3.0739 1.5281
0.5458 2.8917 1.7700
0.5591 2.8917 1.6164
0.5394 3.0336 1.8442
0.5306 3.0955 1.9437
0.5565 3.0825 1.6445
0.6390 2.8917 1.8529
0.6450 2.9917 1.7841
0.6563 2.9917 1.6536
0.6604 2.8917 1.6057
0.6298 3.0976 1.9525
0.6390 3.0194 1.8529
0.7559 2.9630 1.6623
0.7521 2.9917 1.7065
0.7326 2.8917 1.5599
0.7645 2.9295 1.5627
0.7560 3.0867 1.6607
-0.0670 3.0826 1.8920
0.2668 3.0718 1.5203
-0.0325 3.0653 1.4935
0.2029 3.0771 1.6628
0.1822 2.8917 1.6125
0.2578 2.9673 1.6190
0.2549 2.8917 1.6523
0.2632 2.8917 1.5567
0.3402 3.0868 1.8259
0.2491 3.0101 1.7187
0.3487 2.9284 1.7273
0.3451 2.9917 1.7689
0.3574 2.9483 1.6277
0.3487 2.8917 1.7273
0.3534 2.9917 1.6733
0.3606 2.8917 1.5910
0.3315 3.0912 1.9266
0.3575 3.0782 1.6268
0.3660 3.0739 1.5281
-2.0955 2.8917 3.2896
-2.0954 2.9918 3.2889
-1.9957 3.0917 3.2938
-2.0970 3.0917 3.3063
-1.8942 3.1921 3.2989
-1.9917 3.1917 3.2501
-1.7959 2.8917 3.3067
-1.7958 3.0919 3.3052
-1.7908 3.1377 3.2480
-1.8682 3.1917 3.2412
1.6679 2.4917 1.6411
1.6721 2.4917 1.5415
1.6727 2.5918 1.5415
1.6733 2.6918 1.5416
1.6738 2.7918 1.5421
1.6702 2.8917 1.6413
1.6744 2.8917 1.5411
1.6493 2.1918 2.0410
1.6535 2.1918 1.9414
1.6577 2.1918 1.8415
1.6620 2.1918 1.7416
1.6662 2.1919 1.6409
1.6510 2.4917 2.0411
1.6679 2.4917 1.6411
1.6662 2.1919 1.6409
1.6679 2.4917 1.6411
1.6704 2.1919 1.5420
1.6710 2.2918 1.5418
1.6716 2.3919 1.5419
1.6721 2.4917 1.5415
1.6510 2.4917 2.0411
1.6533 2.8917 2.0413
1.6679 2.4917 1.6411
1.6702 2.8917 1.6413
-1.5068 1.2917 3.4463
-1.4067 1.2917 3.4489
-1.4066 1.3917 3.4479
-1.5066 1.3918 3.4453
-1.4067 1.2917 3.4489
-1.3061 1.4918 3.4494
-1.4065 1.4917 3.4469
-1.2061 1.4918 3.4520
-1.1067 1.2917 3.4565
-1.1058 1.3918 3.4556
-1.1062 1.4917 3.4546
1.6264 3.1191 2.0390
1.5270 3.1170 2.0304
1.5616 3.0997 1.6319
1.6533 2.8917 2.0413
1.6702 2.8917 1.6413
1.6544 3.0917 2.0414
1.6583 3.1152 1.9393
1.6714 3.1020 1.6414
1.5616 3.0997 1.6319
1.6697 3.0975 1.5406
1.6789 3.0932 1.4422
1.5788 3.0910 1.4326
1.6702 2.8917 1.6413
1.6744 2.8917 1.5411
1.6750 2.9917 1.5411
1.6714 3.1020 1.6414
1.7112 2.9917 1.4441
1.7238 3.0917 1.4452
-0.8295 3.0481 1.4243
-0.7212 3.0459 1.3333
-0.8209 3.0438 1.3256
-0.6124 3.0438 1.2436
-0.6366 3.0917 1.2403
-0.7171 3.0917 1.2868
-0.5129 3.0460 1.2519
-0.4310 3.0567 1.4589
-0.4137 3.0481 1.2602
-0.4310 3.0567 1.4589
-0.3140 3.0502 1.2685
-0.4137 3.0481 1.2602
-0.2141 3.0524 1.2777
-0.1146 3.0545 1.2860
-0.0325 3.0653 1.4935
-0.0066 3.0524 1.1956
-0.1058 3.0502 1.1869
-0.8295 3.0481 1.4243
-0.9289 3.0460 1.4156
-0.8209 3.0438 1.3256
-0.9202 3.0417 1.3167
-1.0631 3.0611 1.8055
-1.1629 3.0590 1.7968
-1.0547 3.0568 1.7059
-1.1543 3.0546 1.6973
-1.0460 3.0917 1.6062
-1.1456 2.9917 1.5976
-0.8468 3.0568 1.6239
-1.0374 3.0481 1.5066
-1.0289 3.0438 1.4070
-0.8641 3.0654 1.8228
-0.8295 3.0481 1.4243
-0.4656 3.0740 1.8574
-0.8641 3.0654 1.8228
-0.4310 3.0567 1.4589
-0.8295 3.0481 1.4243
-0.0670 3.0826 1.8920
-0.4656 3.0740 1.8574
-0.0325 3.0653 1.4935
-0.4310 3.0567 1.4589
3 0 4 3
3 1 2 5
3 2 7 5
3 7 6 5
3 6 7 8
3 8 7 9
3 1 5 10
3 5 11 10
3 11 5 12
3 12 5 6
3 13 15 16
3 15 14 16
3 22 17 18
3 22 18 19
3 22 19 20
3 22 20 23
3 23 20 21
3 25 24 26
3 28 27 31
3 31 27 25
3 31 25 26
3 30 29 28
3 30 28 31
3 34 32 33
3 35 34 33
3 35 33 36
3 37 39 38
3 38 39 40
3 42 37 41
3 39 37 42
3 44 43 45
3 45 43 46
3 47 50 51
3 47 51 48
3 48 51 49
3 52 49 51
3 49 52 53
3 55 54 52
3 53 54 56
3 52 54 53
3 57 49 58
3 58 49 53
3 59 58 60
3 57 58 59
3 62 61 63
3 64 62 63
3 65 62 66
3 61 62 65
3 67 62 64
3 66 67 68
3 62 67 66
3 69 71 70
3 69 70 72
3 73 74 75
3 79 77 76
3 79 76 70
3 70 76 78
3 78 80 70
3 70 80 72
3 73 72 81
3 72 80 81
3 73 81 74
3 83 82 84
3 84 82 85
3 86 85 87
3 84 85 86
3 88 91 90
3 88 90 89
3 89 90 84
3 83 84 90
3 84 86 89
3 92 91 88
3 93 95 96
3 94 93 96
3 96 97 94
3 98 97 96
3 99 103 100
3 99 102 103
3 102 101 103
3 100 103 104
3 105 106 109
3 105 109 107
3 107 109 108
3 110 106 105
3 93 106 110
3 95 93 110
3 111 99 112
3 99 113 102
3 113 109 102
3 111 114 99
3 99 114 113
3 115 107 108
3 116 108 109
3 117 116 113
3 113 116 109
3 116 117 118
3 119 120 121
3 120 122 121
3 123 125 124
3 124 125 126
3 121 125 119
3 126 125 121
3 128 130 127
3 127 130 129
3 131 133 134
3 131 134 135
3 131 135 132
3 132 135 136
3 127 134 133
3 135 134 127
3 136 135 127
3 129 136 127
3 137 138 139
3 138 140 139
3 141 143 142
3 142 143 144
3 139 143 137
3 144 143 139
3 147 145 148
3 150 149 147
3 150 147 148
3 149 150 151
3 145 152 146
3 154 152 145
3 147 154 145
3 152 154 153
3 153 154 155
3 154 147 149
3 154 149 155
3 156 157 158
3 158 157 159
3 160 161 162
3 162 161 163
3 164 165 166
3 166 165 167
3 168 169 170
3 170 169 171
3 172 173 174
3 174 173 175
3 176 177 178
3 178 177 179
3 180 181 182
3 182 181 183
3 181 180 184
3 180 186 184
3 184 186 185
3 185 186 187
3 185 187 188
3 190 189 191
3 189 194 191
3 191 194 192
3 192 194 193
3 193 194 195
3 196 197 198
3 198 197 199
3 201 200 202
3 202 200 203
3 206 204 201
3 202 206 201
3 204 206 205
3 206 207 205
3 208 209 210
3 210 209 211
3 212 213 214
3 214 213 215
3 217 216 218
3 218 216 219
3 218 220 217
3 220 223 221
3 222 220 218
3 220 222 223
3 225 224 227
3 225 227 226
3 228 231 229
3 226 228 225
3 230 228 226
3 228 230 231
3 232 233 234
3 234 233 235
3 237 236 238
3 238 236 239
3 238 240 237
3 241 240 243
3 242 240 238
3 243 240 242
3 245 244 246
3 246 244 247
3 248 250 251
3 251 250 252
3 249 248 254
3 254 248 251
3 255 253 249
3 255 249 256
3 256 249 254
3 256 254 257
3 257 254 258
3 259 255 260
3 256 261 260
3 256 260 255
3 262 256 257
3 262 257 263
3 265 266 264
3 268 267 266
3 266 267 264
3 269 270 267
3 271 272 273
3 274 275 276
3 275 277 276
3 279 280 278
3 281 280 279
3 282 284 283
3 285 284 282
3 287 288 286
3 286 288 289
3 291 292 290
3 282 294 285
3 294 293 285
3 282 295 294
3 296 297 298
3 298 299 300
3 297 299 298
3 304 301 303
3 303 301 302
3 304 303 305
3 301 304 306
3 304 307 306
3 309 308 310
3 310 308 311
3 313 312 314
3 315 313 318
3 318 313 314
3 316 315 318
3 317 316 318
3 320 319 321
3 321 319 322
3 324 323 325
3 326 324 329
3 329 324 325
3 327 326 329
3 328 327 329
3 331 330 332
3 332 330 333
3 335 334 336
3 336 334 337
3 339 338 340
3 340 338 341
3 340 341 349
3 349 341 342
3 349 342 343
3 349 343 344
3 345 340 346
3 339 340 345
3 347 340 348
3 348 340 349
3 340 347 346
3 356 350 351
3 356 351 352
3 356 352 353
3 356 353 354
3 354 353 355
3 354 358 357
3 354 357 356
3 358 354 359
3 362 363 361
3 364 363 362
3 370 360 361
3 361 365 370
3 361 363 365
3 366 360 367
3 367 360 370
3 368 366 369
3 369 366 367
3 372 371 373
3 373 371 374
3 376 375 377
3 377 375 378
3 380 379 381
3 381 379 382
3 381 382 383
3 380 381 386
3 383 384 387
3 387 381 383
3 386 381 387
3 387 384 385
3 386 387 388
3 388 387 389
3 389 387 385
3 390 391 392
3 392 391 393
3 394 395 396
3 396 395 397
3 401 397 398
3 401 398 399
3 401 399 400
3 402 399 398
3 395 403 397
3 397 403 404
3 397 404 398
3 398 404 405
3 402 405 406
3 398 405 402
3 409 408 407
3 408 411 412
3 408 410 411
3 413 414 409
3 408 409 415
3 415 409 414
3 410 408 415
3 414 416 415
3 415 416 417
3 420 421 418
3 421 419 418
3 420 422 421
3 420 418 423
3 420 423 424
3 423 428 424
3 424 428 425
3 425 428 426
3 426 428 427
3 427 428 429
3 427 429 430
3 433 431 434
3 431 432 434
3 433 434 435
3 434 436 435
3 437 435 438
3 435 436 438
3 439 440 441
3 442 441 443
3 444 442 445
3 442 443 445
3 431 433 440
3 440 433 441
3 441 433 443
3 443 433 446
3 447 446 433
3 447 433 435
3 447 435 437
3 447 437 448
3 447 448 449
3 448 450 449
3 451 454 453
3 451 453 452
3 453 454 455
3 457 456 458
3 457 458 459
3 457 460 456
3 460 462 461
3 459 458 463
3 463 458 465
3 463 465 464
3 466 460 457
3 462 460 466
3 459 466 457
3 459 463 467
3 467 463 464
3 459 467 466
3 466 467 468
3 469 471 470
3 470 471 472
3 471 473 472
3 474 473 471
3 469 475 471
3 474 471 476
3 474 476 477
3 477 476 478
3 477 478 479
3 479 478 480
3 471 475 481
3 471 481 476
3 476 481 482
3 476 482 478
3 478 482 480
3 481 483 482
3 484 485 486
3 485 487 486
3 488 489 494
3 489 490 494
3 490 491 494
3 494 491 492
3 491 493 492
3 494 492 495
3 496 497 498
3 497 499 498
3 500 501 502
3 501 503 502
3 504 505 506
3 505 507 506
3 508 509 510
3 509 511 510
3 512 513 514
3 513 515 514
3 517 516 518
3 517 518 520
3 519 517 520
3 526 516 521
3 521 516 517
3 521 517 519
3 522 521 519
3 522 519 523
3 524 521 522
3 522 525 524
3 525 527 524
3 530 527 525
3 530 529 527
3 529 528 527
3 539 531 532
3 533 535 534
3 534 535 536
3 537 539 532
3 537 532 533
3 538 537 533
3 538 533 534
3 534 536 540
3 546 541 542
3 546 542 543
3 547 546 543
3 547 543 544
3 547 544 548
3 548 544 545
3 549 541 550
3 550 541 546
3 548 545 551
3 552 553 559
3 553 554 559
3 554 555 559
3 556 552 559
3 558 560 557
3 558 556 560
3 560 556 559
3 569 561 562
3 561 563 562
3 565 564 566
3 569 562 564
3 562 567 564
3 567 568 564
3 566 564 568
3 572 574 573
3 573 574 575
3 577 570 571
3 571 572 573
3 576 577 571
3 576 571 573
3 573 575 578
3 579 582 581
3 580 582 579
3 583 585 580
3 580 585 582
3 584 585 583
3 588 587 589
3 588 586 587
3 587 590 589
3 591 588 592
3 592 588 589
3 593 592 589
3 594 597 595
3 596 597 594
3 595 598 599
3 595 597 598
3 602 594 595
3 603 595 599
3 604 605 600
3 600 605 601
3 605 599 601
3 603 599 605
3 607 606 608
3 608 610 611
3 610 609 611
3 615 616 612
3 612 616 613
3 615 612 617
3 617 612 614
3 618 619 623
3 622 620 621
3 623 619 624
3 623 624 625
3 625 624 626
3 624 628 626
3 627 628 624
3 627 630 628
3 631 629 632
3 632 629 630
3 633 632 627
3 632 630 627
3 637 639 635
3 637 635 636
3 634 638 635
3 638 636 635
3 636 640 641
3 637 636 641
3 640 644 641
3 640 643 644
3 643 642 644
3 645 646 636
3 636 646 640
3 648 647 649
3 650 648 649
3 651 648 650
3 651 650 652
3 652 650 653
3 648 655 654
3 651 655 648
3 656 658 657
3 657 658 659
3 658 653 659
3 652 653 658
3 660 651 652
3 660 652 661
3 658 662 652
3 662 661 652
3 663 660 661
3 664 661 662
3 665 663 666
3 666 663 661
3 667 669 668
3 668 669 670
3 671 672 673
3 671 674 672
3 675 677 676
3 676 677 678
3 677 679 678
3 678 679 680
3 679 681 680
3 680 681 682
3 683 684 679
3 679 684 681
3 685 686 683
3 683 686 684
3 689 688 687
3 685 688 689
3 691 685 689
3 691 690 685
3 690 686 685
3 695 696 694
3 696 692 694
3 697 693 692
3 697 692 698
3 698 692 696
3 699 697 700
3 700 697 701
3 701 697 698
3 702 699 703
3 703 699 700
3 703 700 701
3 704 707 706
3 705 707 704
3 706 707 708
3 710 707 709
3 707 705 709
3 710 708 707
3 711 710 709
3 712 710 711
3 713 714 715
3 715 714 716
3 718 717 719
3 719 717 720
3 721 719 722
3 719 720 722
3 723 718 724
3 724 718 719
3 725 719 721
3 724 719 725
3 728 727 729
3 727 726 729
3 728 729 730
3 731 732 726
3 726 732 729
3 732 730 729
3 733 732 731
3 735 736 733
3 733 736 732
3 736 734 732
3 737 734 736
3 745 738 739
3 740 741 739
3 742 741 740
3 739 743 744
3 739 744 745
3 739 741 743
3 746 745 744
3 747 751 748
3 747 750 751
3 750 749 751
3 748 753 752
3 751 753 748
3 757 756 754
3 755 757 754
3 760 758 759
3 760 755 758
3 755 754 758
3 758 761 759
3 763 756 762
3 762 756 757
3 764 763 762
3 766 765 767
3 767 765 768
3 770 769 767
3 767 769 771
3 767 771 766
3 773 772 767
3 767 772 770
3 774 775 776
3 776 775 777
3 776 777 778
3 779 774 776
3 779 776 780
3 782 781 783
3 784 782 785
3 785 782 786
3 782 783 786
3 787 782 788
3 788 782 784
3 788 784 789
3 789 784 785
3 789 785 790
3 790 785 786
3 791 790 786
3 794 792 795
3 796 793 792
3 796 792 794
3 797 798 796
3 794 797 796
3 800 799 797
3 797 794 800
3 794 801 800
3 803 802 804
3 804 802 805
3 807 806 808
3 808 806 809
3 808 809 810
3 808 810 811
3 811 810 812
3 813 814 812
3 814 811 812
3 808 815 807
3 816 817 818
3 817 819 818
3 821 820 822
3 821 824 820
3 823 824 821
3 825 824 823
3 820 824 826
3 826 824 827
3 824 828 827
3 829 830 831
3 830 832 831
3 835 834 836
3 834 837 836
3 833 834 838
3 834 835 838
3 838 840 839
3 848 833 838
3 843 842 841
3 841 845 844
3 842 845 841
3 848 838 846
3 838 839 846
3 839 847 846
3 849 850 851
3 850 852 851
3 855 854 853
3 854 856 857
3 854 857 858
3 854 858 853
3 856 861 859
3 856 859 857
3 857 859 860
3 864 863 862
3 862 865 854
3 863 865 862
3 854 865 856
3 866 854 855
3 854 866 868
3 866 867 868
3 861 869 859
3 861 868 869
3 868 867 869
3 864 862 870
3 862 871 870
3 871 862 872
3 862 854 872
3 854 873 872
3 854 868 873
3 873 874 872
3 872 875 871
3 872 874 875
3 875 874 879
3 874 876 879
3 878 875 877
3 875 879 877
3 880 881 882
3 881 883 882
3 884 885 886
3 885 887 886
3 888 889 890
3 889 891 890
3 892 893 894
3 893 895 894
3 896 897 898
3 897 899 898
3 900 901 902
3 901 903 902
3 905 910 904
3 905 908 910
3 908 905 906
3 909 908 906
3 909 906 907
3 909 907 911
3 913 916 912
3 916 913 914
3 917 916 914
3 917 914 915
3 912 916 918
3 917 915 919
3 921 920 922
3 921 922 923
3 927 920 925
3 925 920 921
3 925 921 923
3 923 926 925
3 923 924 926
3 926 924 928
3 931 932 936
3 935 929 933
3 933 929 930
3 933 930 931
3 934 933 931
3 934 931 936
3 939 938 937
3 942 937 938
3 942 941 937
3 941 940 937
3 940 941 943
3 941 944 943
3 937 940 939
3 943 945 940
3 946 945 943
3 948 947 949
3 951 950 952
3 952 950 953
3 955 954 956
3 956 954 957
3 959 958 960
3 960 958 961
3 962 965 963
3 964 965 962
3 963 967 966
3 963 965 967
3 965 968 967
3 970 969 971
3 971 969 972
3 973 971 974
3 974 971 972
3 976 975 977
3 977 975 978
3 980 979 981
3 984 980 981
3 982 980 984
3 983 982 984
3 986 985 987
3 987 985 988
3 990 989 991
3 991 989 992
3 994 993 995
3 996 994 998
3 998 994 995
3 997 996 998
3 1000 999 1001
3 1001 999 1002
3 1003 1006 1004
3 1006 1005 1004
3 1003 1008 1009
3 1008 1007 1009
3 1003 1009 1006
3 1010 1011 1006
3 1011 1005 1006
3 1012 1014 1013
3 1013 1014 1007
3 1010 1009 1014
3 1009 1007 1014
3 1010 1006 1009
3 1016 1015 1017
3 1017 1015 1018
3 1019 1021 1022
3 1021 1020 1022
3 1023 1021 1019
3 1024 1021 1023
3 1025 1024 1023
3 1026 1024 1025
3 1029 1027 1028
3 1030 1032 1031
3 1029 1028 1025
3 1029 1025 1032
3 1028 1026 1025
3 1033 1035 1034
3 1036 1038 1037
3 1037 1038 1039
3 1038 1034 1039
3 1040 1033 1034
3 1041 1040 1036
3 1036 1040 1038
3 1040 1034 1038
3 1042 1043 1044
3 1044 1045 1046
3 1043 1045 1044
3 1047 1048 1040
3 1048 1033 1040
3 1047 1040 1041
3 1052 1044 1046
3 1047 1049 1050
3 1050 1048 1047
3 1047 1041 1044
3 1047 1044 1051
3 1051 1044 1052
3 1053 1054 1055
3 1054 1053 1057
3 1053 1056 1057
3 1055 1054 1058
3 1058 1054 1059
3 1057 1060 1054
3 1057 1061 1060
3 1062 1055 1058
3 1063 1062 1064
3 1064 1062 1058
3 1065 1064 1066
3 1066 1064 1058
3 1068 1067 1069
3 1068 1069 1070
3 1072 1068 1073
3 1073 1068 1070
3 1073 1070 1071
3 1073 1071 1074
3 1075 1073 1074
3 1079 1080 1077
3 1079 1077 1078
3 1078 1077 1076
3 1079 1081 1080
3 1082 1084 1083
3 1083 1078 1076
3 1083 1086 1078
3 1083 1084 1086
3 1085 1078 1086
3 1086 1087 1085
3 1090 1089 1088
3 1088 1089 1091
3 1090 1092 1093
3 1088 1092 1090
3 1088 1094 1092
3 1091 1094 1088
3 1097 1096 1098
3 1096 1097 1099
3 1101 1095 1102
3 1095 1096 1102
3 1100 1096 1103
3 1100 1102 1096
3 1099 1103 1096
3 1100 1103 1104
3 1105 1106 1107
3 1105 1101 1106
3 1101 1102 1106
3 1100 1108 1102
3 1102 1108 1106
3 1100 1104 1109
3 1100 1109 1108
3 1109 1104 1110
3 1109 1110 1111
3 1113 1114 1112
3 1115 1112 1114
3 1116 1117 1118
3 1120 1121 1119
3 1126 1125 1124
3 1126 1122 1125
3 1122 1123 1125
3 1128 1124 1125
3 1127 1124 1128
3 1128 1129 1127
3 1128 1119 1129
3 1119 1121 1129
3 1129 1121 1130
3 1122 1126 1131
3 1132 1133 1134
3 1132 1129 1133
3 1129 1130 1133
3 1133 1135 1134
3 1138 1137 1136
3 1141 1136 1137
3 1141 1140 1136
3 1140 1139 1136
3 1140 1142 1139
3 1143 1142 1140
3 1136 1144 1138
3 1144 1136 1145
3 1136 1139 1145
3 1139 1146 1145
3 1142 1146 1139
3 1147 1145 1148
3 1145 1149 1148
3 1147 1150 1144
3 1145 1147 1144
3 1151 1149 1145
3 1151 1145 1146
3 1151 1146 1152
3 1147 1148 1153
3 1154 1153 1148
3 1155 1150 1157
3 1156 1150 1155
3 1150 1158 1157
3 1150 1147 1158
3 1147 1153 1158
3 1159 1154 1152
3 1151 1152 1154
3 1161 1160 1162
3 1162 1160 1163
3 1165 1164 1161
3 1162 1165 1161
3 1167 1166 1168
3 1169 1167 1168
3 1170 1169 1168
3 1171 1170 1172
3 1172 1170 1168
3 1174 1173 1175
3 1175 1173 1176
3 1178 1177 1179
3 1178 1180 1177
3 1177 1180 1183
3 1177 1183 1182
3 1177 1182 1181
3 1185 1184 1186
3 1181 1184 1185
3 1187 1184 1181
3 1182 1187 1181
3 1188 1187 1182
3 1194 1190 1189
3 1189 1190 1191
3 1190 1194 1192
3 1189 1193 1194
3 1195 1198 1197
3 1196 1198 1195
3 1199 1200 1201
3 1201 1200 1202
3 1204 1203 1205
3 1206 1208 1207
3 1207 1209 1211
3 1206 1207 1210
3 1207 1211 1210
3 1216 1215 1214
3 1216 1213 1215
3 1213 1212 1215
3 1214 1215 1217
3 1219 1220 1218
3 1222 1223 1212
3 1212 1223 1215
3 1217 1215 1224
3 1215 1223 1224
3 1222 1218 1226
3 1222 1226 1223
3 1220 1226 1218
3 1228 1227 1223
3 1227 1229 1223
3 1229 1230 1223
3 1223 1231 1224
3 1225 1233 1232
3 1225 1224 1233
3 1224 1231 1233
3 1232 1233 1234
3 1223 1226 1235
3 1223 1235 1228
3 1230 1235 1223
3 1226 1223 1235
3 1231 1226 1236
3 1223 1226 1231
3 1220 1221 1237
3 1236 1226 1220
3 1220 1237 1236
3 1237 1221 1238
3 1240 1229 1239
3 1230 1229 1240
3 1242 1244 1243
3 1241 1231 1240
3 1241 1240 1239
3 1231 1245 1233
3 1231 1241 1245
3 1242 1243 1246
3 1245 1234 1233
3 1246 1247 1248
3 1243 1247 1246
3 1248 1247 1236
3 1248 1236 1249
3 1249 1236 1237
3 1252 1253 1251
3 1252 1251 1250
3 1251 1253 1254
3 1252 1255 1253
3 1253 1255 1256
3 1251 1254 1259
3 1251 1259 1257
3 1257 1259 1258
3 1258 1259 1260
3 1259 1261 1260
3 1262 1264 1263
3 1265 1255 1252
3 1265 1268 1255
3 1265 1267 1268
3 1266 1255 1268
3 1266 1268 1269
3 1266 1269 1260
3 1260 1269 1258
3 1271 1267 1270
3 1268 1267 1271
3 1268 1271 1273
3 1268 1273 1269
3 1269 1273 1272
3 1272 1274 1275
3 1274 1272 1276
3 1272 1273 1276
3 1277 1278 1279
3 1278 1280 1279
3 1283 1282 1289
3 1281 1284 1283
3 1283 1288 1281
3 1288 1283 1289
3 1285 1286 1287
3 1292 1291 1290
3 1293 1295 1290
3 1293 1290 1291
3 1295 1293 1294
3 1296 1299 1297
3 1296 1298 1299
3 1304 1303 1296
3 1304 1296 1297
3 1303 1300 1296
3 1302 1296 1301
3 1300 1301 1296
3 1300 1305 1301
3 1306 1305 1300
3 1308 1307 1309
3 1307 1308 1299
3 1303 1304 1311
3 1310 1303 1311
3 1310 1311 1312
3 1311 1313 1312
3 1303 1299 1314
3 1299 1298 1314
3 1300 1303 1315
3 1315 1306 1300
3 1309 1316 1317
3 1307 1316 1309
3 1299 1303 1307
3 1307 1303 1316
3 1303 1310 1318
3 1318 1310 1312
3 1303 1314 1320
3 1314 1319 1320
3 1303 1321 1315
3 1322 1315 1321
3 1317 1316 1323
3 1316 1324 1323
3 1303 1320 1324
3 1303 1324 1316
3 1321 1303 1318
3 1321 1318 1312
3 1321 1326 1325
3 1322 1328 1327
3 1322 1321 1328
3 1321 1325 1328
3 1329 1326 1321
3 1329 1321 1312
3 1331 1330 1332
3 1333 1330 1331
3 1336 1335 1334
3 1334 1335 1337
3 1330 1333 1338
3 1333 1339 1338
3 1343 1335 1336
3 1343 1342 1335
3 1342 1337 1335
3 1345 1337 1342
3 1346 1330 1338
3 1340 1341 1338
3 1340 1338 1339
3 1344 1340 1339
3 1344 1339 1347
3 1347 1339 1333
3 1331 1348 1333
3 1348 1347 1333
3 1349 1350 1351
3 1350 1352 1351
3 1349 1351 1353
3 1353 1351 1354
3 1355 1349 1356
3 1358 1357 1356
3 1358 1356 1353
3 1353 1356 1349
3 1360 1359 1361
3 1361 1359 1362
3 1362 1359 1363
3 1359 1364 1363
3 1363 1364 1365
3 1366 1371 1367
3 1367 1371 1368
3 1368 1371 1372
3 1368 1372 1369
3 1369 1372 1370
3 1373 1374 1375
3 1375 1374 1376
3 1376 1374 1377
3 1377 1374 1378
3 1379 1380 1381
3 1381 1380 1382
3 1384 1383 1385
3 1385 1383 1386
3 1388 1387 1389
3 1390 1387 1388
3 1391 1387 1392
3 1392 1387 1393
3 1393 1387 1390
3 1397 1399 1400
3 1397 1400 1401
3 1397 1401 1398
3 1400 1399 1394
3 1395 1400 1394
3 1401 1400 1395
3 1396 1401 1395
3 1403 1402 1404
3 1402 1405 1404
3 1407 1406 1408
3 1406 1409 1408
3 1408 1409 1403
3 1408 1403 1410
3 1410 1403 1411
3 1403 1409 1402
3 1412 1414 1413
3 1419 1412 1413
3 1416 1413 1417
3 1416 1415 1413
3 1413 1415 1418
3 1419 1413 1420
3 1413 1418 1420
3 1421 1423 1422
3 1421 1422 1424
3 1421 1424 1425
3 1426 1425 1427
3 1425 1428 1427
3 1426 1421 1425
3 1429 1430 1431
3 1430 1432 1431
3 1433 1434 1435
3 1434 1436 1435
3 1437 1435 1438
3 1435 1436 1438
3 1433 1435 1442
3 1437 1439 1435
3 1439 1442 1435
3 1437 1440 1439
3 1439 1440 1443
3 1440 1441 1443
3 1444 1445 1446
3 1445 1447 1446
3 1448 1449 1450
3 1449 1451 1450
