ply
format ascii 1.0
element vertex 874
property float x
property float y
property float z
element face 723
property list uchar int vertex_indices
end_header
-2.0983 1.2917 3.3217
-2.0983 1.2917 3.3217
-2.1979 1.3917 3.3130
-2.1979 1.3917 3.3130
-2.1969 1.2917 3.3015
-2.0967 1.3917 3.3033
-2.0963 1.4917 3.2981
-2.1961 1.4917 3.2916
-2.0958 1.5917 3.2923
-2.1956 1.5917 3.2856
-1.9948 1.2917 3.2856
-1.9925 1.3917 3.2594
-1.9953 1.4917 3.2911
-2.1979 1.3917 3.3130
-2.2934 1.2917 3.2560
-2.1969 1.2917 3.3015
-2.2956 1.3917 3.2817
-0.1684 1.0917 3.4892
-0.2054 1.1917 3.4860
-0.1103 1.0917 3.5458
-0.1101 1.1917 3.5442
-0.1605 1.2917 3.4899
-0.1128 1.2917 3.5756
0.3506 0.3917 0.5501
0.4497 0.3917 0.5642
0.4505 0.4917 0.5552
0.3500 0.4917 0.5571
0.5522 0.1395 0.5405
0.5323 0.1917 0.5387
0.5537 0.1917 0.5224
0.5550 0.2917 0.5081
0.4473 0.1917 0.5917
0.4463 0.2917 0.6037
0.4497 0.3917 0.5642
0.4844 0.4917 0.5346
0.4505 0.4917 0.5552
0.5585 0.4917 0.4674
0.6547 0.2917 0.5156
0.6545 0.3917 0.5176
0.6550 0.4917 0.5119
0.7105 0.2917 0.5542
0.6833 0.3917 0.5519
0.6890 0.4917 0.5523
0.4844 0.4917 0.5346
0.4505 0.4917 0.5552
0.4516 0.5917 0.5420
0.5585 0.4917 0.4674
0.5540 0.5917 0.5189
0.4525 0.6917 0.5318
0.5540 0.6917 0.5188
0.5435 0.7276 0.6401
0.4568 0.7917 0.6326
0.5522 0.7135 0.5405
0.4640 0.7917 0.5328
0.6518 0.5291 0.5491
0.5737 0.5917 0.5423
0.6550 0.4917 0.5119
0.1191 0.8917 0.9044
0.2100 0.8003 1.0126
0.1392 0.8917 1.0065
0.2187 0.7986 0.9130
0.2273 0.7917 0.8134
0.3010 0.8026 1.1209
0.2014 0.8319 1.1123
0.3097 0.8000 1.0213
0.3183 0.8079 0.9217
0.3270 0.8043 0.8220
0.3356 0.8017 0.7224
0.2360 0.8033 0.7138
0.0194 0.8917 0.8957
0.1191 0.8917 0.9044
0.1139 0.9917 0.9637
0.0139 0.9917 0.9590
0.1018 1.0264 1.1036
0.0021 1.0271 1.0950
0.1104 1.0059 1.0040
0.0108 1.0047 0.9953
0.1772 0.8917 1.1102
0.1373 0.9917 1.1067
0.1392 0.8917 1.0065
0.1450 0.4917 0.6055
0.0454 0.4917 0.5968
0.1537 0.5917 0.5059
0.0482 0.5917 0.5649
0.2518 0.6917 0.5311
0.0523 0.6917 0.5168
0.1537 0.7917 0.5059
0.0540 0.7917 0.4972
0.2472 0.5917 0.5842
0.2446 0.7917 0.6141
0.1450 0.8110 0.6055
0.3494 0.5917 0.5636
0.3529 0.7917 0.5232
0.3356 0.8017 0.7224
0.2360 0.8033 0.7138
0.3443 0.8133 0.6228
0.3500 0.4917 0.5571
0.4505 0.4917 0.5552
0.4516 0.5917 0.5420
0.4525 0.6917 0.5318
1.4020 2.8917 3.4702
1.5035 2.8917 3.4752
1.5036 3.0924 3.4719
1.4022 3.0919 3.4670
1.5055 3.1917 3.4338
1.4059 3.1500 3.4251
1.5037 3.1923 3.4703
1.4278 3.1917 3.3266
1.4145 3.1756 3.3255
1.6034 2.9923 3.4784
1.6092 1.2917 2.8405
1.6323 1.2917 2.4410
1.6038 1.4921 2.8400
1.6096 1.4923 2.7396
1.6068 1.5924 2.7392
1.6126 1.5925 2.6393
1.6183 1.5923 2.5395
1.6241 1.5917 2.4403
1.6156 1.6917 2.5399
1.5920 1.6917 2.4375
1.6323 1.2917 2.4410
1.6438 1.2917 2.2413
1.6410 1.3917 2.2410
1.6383 1.4917 2.2409
1.6241 1.5917 2.4403
1.6298 1.5918 2.3404
1.6356 1.5913 2.2411
1.3997 1.2917 3.4960
1.4995 1.2917 3.5008
1.5003 1.6917 3.4944
1.4003 1.6917 3.4895
1.5746 1.2917 3.4407
1.5862 1.2917 3.2400
1.5692 1.4908 3.4403
1.5750 1.4907 3.3405
1.6051 1.6917 3.4424
1.5722 1.5906 3.3404
1.5637 1.6917 3.4401
1.5753 1.6917 3.2391
1.5862 1.2917 3.2400
1.5892 1.3914 3.1403
1.6092 1.2917 2.8405
1.5950 1.3917 3.0401
1.6008 1.3920 2.9399
1.5753 1.6917 3.2391
1.5865 1.4910 3.1404
1.5980 1.4920 2.9397
1.6038 1.4921 2.8400
1.5837 1.5904 3.1408
1.6311 1.6917 3.1435
1.5841 2.4917 3.2398
1.5802 2.5917 3.2395
1.5972 2.4917 3.1406
1.5505 2.5917 3.1365
1.4014 2.4917 3.4767
1.5018 2.4917 3.4815
1.5035 2.8917 3.4752
1.4020 2.8917 3.4702
1.5542 2.4917 3.4380
1.5837 2.4917 3.3402
1.5962 2.5917 3.3413
1.5841 2.4917 3.2398
1.5802 2.5917 3.2395
1.6122 2.6917 3.3613
1.6138 2.6503 3.3428
1.5482 2.6917 3.2367
1.6150 2.6917 3.3290
1.6138 2.7120 3.3428
1.5706 2.7917 3.3390
1.5677 2.8917 3.3388
1.4008 2.0917 3.4831
1.5012 2.1918 3.4864
1.5018 2.4917 3.4815
1.4014 2.4917 3.4767
1.6121 2.0917 3.4934
1.5542 2.1917 3.4380
1.6138 2.0917 3.3428
1.5774 2.1917 3.2392
1.5774 2.0917 3.2392
1.5586 2.0917 3.3394
1.6138 2.2917 3.3428
1.5727 2.2917 3.2388
1.5542 2.4917 3.4380
1.5779 2.3917 3.2393
1.5837 2.4917 3.3402
1.5841 2.4917 3.2398
1.5699 1.8910 3.2386
1.5671 1.9910 3.2384
1.5756 1.8914 3.1391
1.5729 1.9916 3.1387
1.4003 1.6917 3.4895
1.5003 1.6917 3.4944
1.5009 1.9419 3.4904
1.4008 2.0917 3.4831
1.6051 1.6917 3.4424
1.5597 1.8417 3.4385
1.5637 1.6917 3.4401
1.5753 1.6917 3.2391
1.5568 1.7917 3.2375
1.5699 1.8910 3.2386
1.6051 1.9917 3.4424
1.5613 1.9903 3.3398
1.5671 1.9910 3.2384
1.6121 2.0917 3.4934
1.5774 2.0917 3.2392
1.5586 2.0917 3.3394
1.6138 1.9917 3.3428
1.6138 2.0917 3.3428
-2.3990 0.9917 3.3169
-2.2987 0.9917 3.3176
-2.2976 1.0917 3.3044
-2.3972 1.0917 3.2957
-2.2993 1.1917 3.3239
-2.3987 1.1917 3.3136
-2.1979 0.9917 3.3130
-2.2976 0.9622 3.3044
-2.1979 1.1917 3.3130
-2.2976 1.2165 3.3044
-2.0983 0.9917 3.3217
-2.1979 0.9917 3.3130
-2.0983 1.0917 3.3217
-2.1979 1.1917 3.3130
-2.0983 1.2917 3.3217
-2.1979 0.9917 3.3130
-2.2976 0.9622 3.3044
-2.2944 0.8917 3.2683
-2.1925 0.8917 3.2499
-2.1979 0.9917 3.3130
-2.2976 1.0917 3.3044
-2.1969 1.0917 3.3006
-2.1979 1.1917 3.3130
-2.1979 1.1917 3.3130
-2.2976 1.2165 3.3044
-2.1969 1.2917 3.3015
-2.2934 1.2917 3.2560
-2.0983 0.9917 3.3217
-2.1979 0.9917 3.3130
-2.1925 0.8917 3.2499
-2.0921 0.8917 3.2499
-2.0983 1.0917 3.3217
-2.1979 0.9917 3.3130
-2.1969 1.0917 3.3006
-2.1979 1.1917 3.3130
-2.0983 1.2917 3.3217
-2.1979 1.1917 3.3130
-2.1969 1.2917 3.3015
-1.9941 0.8917 3.2772
-1.9963 0.9917 3.3028
-2.0983 1.0917 3.3217
-1.9973 1.0917 3.3143
-2.0983 1.1917 3.3217
-1.9971 1.1917 3.3122
-2.0983 1.2917 3.3217
-1.9948 1.2917 3.2856
-0.1145 1.3379 3.5943
-0.1317 1.3917 3.5928
-0.1165 1.3917 3.6181
-0.1605 1.2917 3.4899
-0.1612 1.3917 3.4898
-0.1128 1.2917 3.5756
-1.7971 2.4917 3.3210
-1.3973 2.4917 3.3404
-1.3968 2.8917 3.3340
-1.7966 2.8917 3.3145
-1.7975 2.1924 3.3258
-1.6965 2.1922 3.3307
-1.7971 2.4917 3.3210
-1.5961 2.1924 3.3356
-1.4967 2.1921 3.3404
-1.3977 2.1922 3.3453
-1.3973 2.4917 3.3404
-1.3973 2.4917 3.3404
-0.9975 2.4917 3.3599
-0.9969 2.8917 3.3535
-1.3968 2.8917 3.3340
-1.3977 2.1922 3.3453
-1.2968 2.1921 3.3502
-1.3976 2.2922 3.3436
-1.3973 2.4917 3.3404
-1.1976 2.1918 3.3550
-1.0967 2.1922 3.3599
-0.9979 2.1919 3.3647
-0.9975 2.4917 3.3599
-0.9975 2.4917 3.3599
-0.5977 2.4917 3.3794
-0.5971 2.8917 3.3729
-0.9969 2.8917 3.3535
-0.9981 2.0917 3.3663
-0.5982 2.0917 3.3858
-0.5977 2.4917 3.3794
-0.9975 2.4917 3.3599
-0.7976 1.6917 3.3826
-0.6971 1.6917 3.3875
-0.6970 1.7924 3.3858
-0.7980 1.7920 3.3809
-0.7979 1.8920 3.3793
-0.7976 1.9920 3.3777
-0.7979 2.0917 3.3761
-0.5884 1.6917 3.2725
-0.5885 1.7917 3.2737
-0.5985 1.8923 3.3890
-0.5982 2.0917 3.3858
-0.7985 1.2917 3.3890
-0.7982 1.3921 3.3874
-0.7984 1.4920 3.3857
-0.7979 1.5921 3.3842
-0.6971 1.6917 3.3875
-0.7976 1.6917 3.3826
-0.5994 1.2917 3.3987
-0.5989 1.5921 3.3938
-0.5953 1.6123 3.3518
-0.5884 1.6917 3.2725
-0.5994 1.2917 3.3987
-0.3986 1.5919 3.4036
-0.5989 1.5921 3.3938
-0.5953 1.6123 3.3518
-0.4870 1.6917 3.2608
-0.5884 1.6917 3.2725
-0.3942 1.6917 3.3483
-0.3481 1.6917 3.3732
-0.2984 1.6917 3.4069
-0.1995 1.2917 3.4181
-0.1990 1.6917 3.4117
-0.5982 2.0917 3.3858
-0.1984 2.0917 3.4053
-0.1979 2.4917 3.3988
-0.5977 2.4917 3.3794
-0.5977 2.4917 3.3794
-0.1979 2.4917 3.3988
-0.1973 2.8917 3.3924
-0.5971 2.8917 3.3729
-0.5884 1.6917 3.2725
-0.4870 1.6917 3.2608
-0.4883 1.7917 3.2758
-0.5885 1.7917 3.2737
-0.5985 1.8923 3.3890
-0.5982 2.0917 3.3858
-0.3942 1.6917 3.3483
-0.3937 1.7917 3.3423
-0.3975 1.8446 3.3996
-0.3481 1.6917 3.3732
-0.2983 1.7920 3.4052
-0.2984 1.6917 3.4069
-0.1990 1.6917 3.4117
-0.1987 1.8921 3.4085
-0.1984 2.0917 3.4053
1.5833 0.3917 2.5371
1.6136 0.4917 2.5398
1.6630 0.3917 2.4437
1.6528 0.4917 2.4428
1.6161 0.2917 2.4396
1.6630 0.3917 2.4437
1.6486 0.2917 2.3420
1.6723 0.2917 2.2437
1.6802 0.3917 2.2444
1.7176 0.3338 2.1473
1.6179 0.3221 2.1386
1.6149 0.2917 2.1739
1.7115 0.3917 2.2165
1.6528 0.4917 2.4428
1.6669 0.4917 2.3436
1.6763 0.4917 2.2441
1.7176 0.4917 2.1473
1.5480 0.8917 2.5341
1.5747 0.8917 2.6368
1.5920 0.9155 2.4375
1.4924 0.9073 2.4289
1.4884 0.8917 2.4747
1.5574 0.8917 2.8360
1.6174 0.9919 2.8412
1.6404 0.9916 2.4417
1.6092 1.2917 2.8405
1.6323 1.2917 2.4410
1.5920 0.9155 2.4375
1.4924 0.9073 2.4289
1.5010 0.8917 2.3292
1.6006 0.8917 2.3379
1.6404 0.9916 2.4417
1.6546 0.8917 2.2427
1.6519 0.9916 2.2421
1.6492 1.0914 2.2421
1.6465 1.1918 2.2414
1.6323 1.2917 2.4410
1.6438 1.2917 2.2413
1.5920 0.6917 2.4375
1.4924 0.6536 2.4289
1.5010 0.6917 2.3292
1.6006 0.6917 2.3379
1.5032 0.7917 2.3039
1.6006 0.8917 2.3379
1.5010 0.8917 2.3292
1.6528 0.4917 2.4428
1.6516 0.5917 2.4427
1.6669 0.4917 2.3436
1.6663 0.5917 2.3436
1.6763 0.4917 2.2441
1.6776 0.5917 2.2442
1.7176 0.4917 2.1473
1.6907 0.5917 2.1449
1.6758 0.6917 2.2440
1.7089 0.7917 2.2469
1.6546 0.8917 2.2427
1.6136 0.4917 2.5398
1.5833 0.5484 2.5371
1.6528 0.4917 2.4428
1.6516 0.5917 2.4427
1.5852 0.5917 2.5159
1.5920 0.6917 2.4375
1.4622 0.9917 3.4300
1.5319 1.0822 3.4437
1.3993 0.9919 3.5008
1.4685 0.9917 3.3302
1.5228 0.9917 3.2345
1.5735 1.1937 3.5067
1.4995 1.2917 3.5008
1.3997 1.2917 3.4960
1.5917 1.0914 3.2405
1.5747 1.2909 3.4407
1.5862 1.2917 3.2400
1.5228 0.9917 3.2345
1.4232 0.9917 3.2259
1.4405 0.8917 3.0266
1.5351 0.8917 3.0932
1.5348 0.9917 3.0963
1.4347 0.9917 3.0934
1.4318 1.0086 3.1262
1.5851 0.8917 3.0392
1.6059 0.9921 3.0406
1.5487 0.8917 2.9356
1.6117 0.9919 2.9409
1.5574 0.8917 2.8360
1.6174 0.9919 2.8412
1.5917 1.0914 3.2405
1.5862 1.2917 3.2400
1.6092 1.2917 2.8405
-1.7966 2.8917 3.3145
-1.6953 3.0922 3.3162
-1.7963 3.0918 3.3113
-1.5958 3.0920 3.3211
-1.4954 3.0922 3.3259
-1.3968 2.8917 3.3340
-1.3965 3.0921 3.3308
-1.3923 3.1361 3.2826
-1.4919 3.1353 3.2739
-1.3968 2.8917 3.3340
-0.9969 2.8917 3.3535
-1.2948 3.0925 3.3357
-1.3965 3.0921 3.3308
-1.2927 3.0917 3.2912
-1.3923 3.1361 3.2826
-1.1930 3.1295 3.2999
-0.9938 3.1334 3.3172
-1.0848 3.1661 3.2089
-1.1844 3.1672 3.2002
-0.9967 3.0918 3.3502
-0.9851 3.1409 3.2175
-0.9969 2.8917 3.3535
-0.9967 3.0918 3.3502
-0.9938 3.1334 3.3172
-0.9851 3.1409 3.2175
-0.8769 3.1429 3.1266
-0.9765 3.1509 3.1179
-0.6949 3.1233 3.3431
-0.6863 3.1498 3.2435
-0.7772 3.1459 3.1352
-0.6968 3.0918 3.3648
-0.6776 3.1506 3.1439
-0.5971 2.8917 3.3729
-0.5967 3.1920 3.3681
-0.5953 3.1917 3.3518
-0.5866 3.1523 3.2521
-0.5780 3.1491 3.1525
-0.5971 2.8917 3.3729
-0.4968 3.0918 3.3746
-0.5967 3.1920 3.3681
-0.5953 3.1917 3.3518
-0.5866 3.1523 3.2521
-0.4784 3.1570 3.1612
-0.5780 3.1491 3.1525
-0.3466 3.1103 3.3816
-0.2878 3.1631 3.2781
-0.2705 3.1277 3.0788
-0.3701 3.0917 3.0702
-0.4697 3.1438 3.0615
-0.1795 3.1499 3.1871
-0.1973 2.8917 3.3924
-0.1971 3.0680 3.3895
-0.1969 3.1683 3.3879
-0.1708 3.1319 3.0875
-0.1061 1.0409 1.1859
-0.2058 1.0393 1.1773
-0.0975 1.0287 1.0863
-0.1971 1.0288 1.0777
-0.0065 1.0380 1.1946
0.0021 1.0271 1.0950
-0.4441 0.4917 0.4540
-0.3480 0.4917 0.5028
-0.3503 0.5917 0.5300
-0.4457 0.5917 0.4725
-0.3464 0.6917 0.4852
-0.4457 0.6917 0.4721
-0.3618 0.7917 0.6619
-0.4614 0.7917 0.6532
-0.3531 0.7917 0.5622
-0.4527 0.7917 0.5536
-0.3791 0.9917 0.8611
-0.4700 0.8917 0.7529
-0.3744 0.8917 0.8078
-0.4752 0.9917 0.8127
-0.4700 0.7917 0.7529
-0.4614 0.7917 0.6532
-0.4700 0.8917 0.7529
-0.3704 0.7917 0.7615
-0.3618 0.7917 0.6619
-0.3744 0.8917 0.8078
-0.3630 0.8917 0.8625
-0.3791 0.9917 0.8611
-0.3744 0.8917 0.8078
-0.2526 0.8917 1.0729
-0.2340 0.9917 1.0745
-0.2279 0.8917 0.9746
-0.2012 0.9917 0.9769
-0.1798 0.8917 0.8784
-0.1853 0.9917 0.9412
-0.0856 0.9917 0.9492
-0.0975 1.0287 1.0863
-0.1971 1.0288 1.0777
-0.0888 1.0050 0.9867
-0.1885 1.0045 0.9780
0.0194 0.8917 0.8957
0.0139 0.9917 0.9590
0.0021 1.0271 1.0950
0.0108 1.0047 0.9953
-0.2708 0.7917 0.7701
-0.3704 0.7917 0.7615
-0.2621 0.7917 0.6705
-0.3618 0.7917 0.6619
-0.2967 0.8062 1.0690
-0.3964 0.8022 1.0604
-0.2881 0.8006 0.9694
-0.3716 0.8917 0.9622
-0.3887 0.8917 0.9720
-0.2794 0.7917 0.8698
-0.3630 0.8917 0.8625
-0.3704 0.7917 0.7615
-0.3744 0.8917 0.8078
-0.2279 0.8917 0.9746
-0.1798 0.8917 0.8784
-0.3210 0.4917 0.4647
-0.2724 0.5917 0.4689
-0.3480 0.4917 0.5028
-0.3503 0.5917 0.5300
-0.2448 0.6352 0.4713
-0.2470 0.6917 0.4959
-0.3464 0.6917 0.4852
-0.2585 0.5917 0.3697
-0.2362 0.6332 0.3716
-0.2621 0.7917 0.6705
-0.3618 0.7917 0.6619
-0.2535 0.7917 0.5709
-0.3531 0.7917 0.5622
-0.2272 0.5917 0.4728
-0.1519 0.5917 0.5568
-0.0470 0.6917 0.5046
-0.1452 0.7917 0.4799
-0.1539 0.8157 0.5795
-0.0515 0.5917 0.5567
0.0454 0.4917 0.5968
-0.0542 0.4917 0.5882
0.0482 0.5917 0.5649
0.0523 0.6917 0.5168
0.0540 0.7917 0.4972
0.5022 0.3932 3.4668
0.5988 0.3924 3.4715
0.5990 0.4917 3.4699
0.5022 0.4917 3.4652
1.3841 0.9156 2.5198
1.2845 0.9235 2.5112
1.3927 0.9111 2.4202
1.2931 0.9157 2.4116
1.4269 0.8917 2.6239
1.3754 0.9105 2.6195
1.4511 0.8917 2.5256
1.4924 0.9073 2.4289
1.4884 0.8917 2.4747
1.1048 0.6917 2.2679
1.2038 0.6917 2.2842
1.2036 0.7917 2.2861
1.1047 0.7917 2.2699
1.2021 0.8917 2.3033
1.1037 0.8917 2.2808
1.3034 0.6917 2.2934
1.4032 0.6917 2.2994
1.4029 0.7917 2.3034
1.5010 0.6917 2.3292
1.5032 0.7917 2.3039
1.5010 0.8917 2.3292
1.0939 0.9260 2.3943
0.9942 0.9470 2.3856
1.1025 0.8980 2.2946
1.0029 0.8976 2.2860
1.0040 0.8917 2.2726
1.1037 0.8917 2.2808
0.9075 0.6917 2.2281
1.0055 0.6917 2.2560
1.0051 0.7917 2.2602
0.9054 0.7917 2.2532
1.0040 0.8917 2.2726
0.9046 0.8917 2.2619
1.1048 0.6917 2.2679
1.1047 0.7917 2.2699
1.1037 0.8917 2.2808
1.1935 0.9214 2.4029
1.0939 0.9260 2.3943
1.2021 0.8917 2.3033
1.1025 0.8980 2.2946
1.1037 0.8917 2.2808
1.2931 0.9157 2.4116
1.3927 0.9111 2.4202
1.4924 0.9073 2.4289
1.5010 0.8917 2.3292
0.5995 0.8917 3.4635
0.7005 0.9921 3.4668
0.5997 0.9921 3.4619
0.8001 0.9920 3.4716
0.8993 0.9917 3.4765
0.9995 0.9916 3.4814
0.9993 0.8917 3.4830
-0.1684 1.0917 3.4892
-0.2054 1.1917 3.4860
-0.2024 1.0917 3.4506
-0.1605 1.2917 3.4899
-0.2054 1.1917 3.4860
-0.1995 1.2917 3.4181
0.2999 0.8917 3.4489
0.3996 0.8917 3.4538
0.4003 0.9920 3.4522
0.2979 0.9917 3.4696
0.5006 0.9921 3.4571
0.5995 0.8917 3.4635
0.5997 0.9921 3.4619
0.2997 0.7918 3.4505
0.4001 0.7920 3.4554
0.3996 0.8917 3.4538
0.2999 0.8917 3.4489
0.5007 0.7923 3.4603
0.5022 0.4917 3.4652
0.5990 0.4917 3.4699
0.5012 0.5926 3.4636
0.5005 0.6923 3.4619
0.5995 0.8917 3.4635
1.0074 0.1917 3.3905
1.1070 0.2917 3.3992
1.0074 0.2917 3.3905
1.1097 0.3917 3.3680
0.9986 0.3940 3.4910
1.1034 0.4917 3.4945
0.9988 0.4917 3.4894
0.5990 0.4917 3.4699
0.8006 0.4917 3.4798
0.5995 0.8917 3.4635
0.9011 0.5926 3.4830
0.9009 0.7924 3.4798
0.9989 0.5936 3.4878
0.9988 0.4917 3.4894
1.0103 0.6917 3.3572
1.0099 0.7917 3.3619
1.0074 0.8220 3.3905
0.9993 0.8917 3.4830
0.5988 0.3924 3.4715
0.7004 0.3924 3.4765
0.9988 0.4917 3.4894
0.5990 0.4917 3.4699
0.8004 0.3924 3.4814
0.8009 0.2927 3.4830
0.9077 0.2917 3.3819
0.9009 0.3927 3.4862
1.0074 0.2917 3.3905
0.9986 0.3940 3.4910
0.9991 0.9916 3.4813
0.9993 0.8917 3.4830
1.1004 0.8917 3.4879
0.9999 1.2917 3.4765
1.1988 0.9915 3.4911
1.2011 0.8917 3.4710
1.2992 0.9917 3.4959
1.3993 0.9919 3.5008
1.3997 1.2917 3.4960
0.9988 0.4917 3.4894
1.1034 0.4917 3.4945
1.1099 0.5917 3.3653
0.9989 0.5936 3.4878
1.1093 0.6917 3.3725
1.0103 0.6917 3.3572
1.1070 0.7917 3.3992
1.0099 0.7917 3.3619
1.0074 0.8220 3.3905
1.1004 0.8917 3.4879
0.9993 0.8917 3.4830
1.4169 0.9917 3.1249
1.4318 1.0086 3.1262
1.4232 0.9917 3.2259
1.4347 0.9917 3.0934
-0.1973 2.8917 3.3924
-0.0971 3.0917 3.3940
-0.1971 3.0439 3.3899
-0.0593 3.1403 3.2477
-0.1969 3.1683 3.3879
-0.1795 3.1499 3.1871
-0.0712 3.0917 3.0961
-0.1708 3.1319 3.0875
0.2028 3.0920 3.4086
0.0284 3.0917 3.1048
0.2104 3.1441 3.3213
0.2190 3.1729 3.2217
0.1280 3.1331 3.1134
0.2025 2.8917 3.4118
0.2277 3.0917 3.1221
0.2025 2.8917 3.4118
0.2028 3.0920 3.4086
0.2104 3.1441 3.3213
0.2190 3.1729 3.2217
0.3273 3.1615 3.1307
0.2277 3.0917 3.1221
0.6023 2.8917 3.4313
0.6175 3.1573 3.2563
0.4269 3.1450 3.1394
0.6026 3.0920 3.4281
0.5092 3.1228 3.3473
0.5265 3.1508 3.1480
0.6089 3.1528 3.3559
0.6262 3.1607 3.1567
1.0021 2.8917 3.4508
1.0024 3.0921 3.4475
1.0074 3.1369 3.3905
1.2153 3.1917 3.3082
1.0160 3.1685 3.2909
1.1243 3.1650 3.1999
1.0247 3.1635 3.1913
1.4022 3.0919 3.4670
1.2043 3.1925 3.4557
1.2239 3.1461 3.2086
1.3062 3.1715 3.4165
1.3149 3.1724 3.3168
1.2153 3.1917 3.3082
1.4020 2.8917 3.4702
1.4059 3.1500 3.4251
1.4145 3.1756 3.3255
0.6023 2.8917 3.4313
0.6026 3.0920 3.4281
0.7127 3.1917 3.3162
0.6089 3.1528 3.3559
0.6708 3.1917 3.2609
0.6175 3.1573 3.2563
0.7258 3.1659 3.1653
0.6262 3.1607 3.1567
0.7225 3.1917 3.2035
0.9077 3.1519 3.3819
0.7770 3.1917 3.2701
0.8254 3.1374 3.1740
1.0024 3.0921 3.4475
1.0247 3.1635 3.1913
0.9250 3.1616 3.1826
1.0021 2.8917 3.4508
1.0074 3.1369 3.3905
1.0160 3.1685 3.2909
1.0010 2.0917 3.4636
1.4008 2.0917 3.4831
1.4014 2.4917 3.4767
1.0016 2.4917 3.4572
1.0016 2.4917 3.4572
1.4014 2.4917 3.4767
1.4020 2.8917 3.4702
1.0021 2.8917 3.4508
0.9999 1.2917 3.4765
1.3997 1.2917 3.4960
1.4003 1.6917 3.4895
1.0005 1.6917 3.4701
-0.1605 1.2917 3.4899
-0.1612 1.3917 3.4898
-0.1995 1.2917 3.4181
-0.1994 1.3922 3.4165
-0.1983 2.1920 3.4036
0.2015 2.1918 3.4231
-0.1979 2.4917 3.3988
0.1019 2.2918 3.4166
0.2020 2.4917 3.4183
-0.1979 2.4917 3.3988
0.2020 2.4917 3.4183
0.2025 2.8917 3.4118
-0.1973 2.8917 3.3924
0.2016 2.1918 3.4231
0.3020 2.1920 3.4280
0.2020 2.4917 3.4183
0.4024 2.1922 3.4329
0.5020 2.1920 3.4377
0.6013 2.1921 3.4426
0.6018 2.4917 3.4377
0.2020 2.4917 3.4183
0.6018 2.4917 3.4377
0.6023 2.8917 3.4313
0.2025 2.8917 3.4118
0.6018 2.4917 3.4377
1.0016 2.4917 3.4572
1.0021 2.8917 3.4508
0.6023 2.8917 3.4313
0.6013 2.1921 3.4426
0.7020 2.1920 3.4475
0.6018 2.4917 3.4377
0.8005 2.1914 3.4523
0.9013 2.1918 3.4572
1.0000 2.0917 3.4636
1.0010 2.0913 3.4636
0.9010 2.0917 3.4588
1.0016 2.4917 3.4572
1.0005 1.6917 3.4701
1.4003 1.6917 3.4895
1.4008 2.0917 3.4831
1.0010 2.0917 3.4636
-1.0715 0.8917 3.0565
-0.9734 0.8917 3.0818
-0.9741 0.9917 3.0903
-1.0737 0.9917 3.0810
-0.9765 1.0034 3.1179
-1.0761 1.0029 3.1093
-1.0691 0.7917 3.0288
-0.9720 0.7917 3.0662
-0.9734 0.8917 3.0818
-1.0715 0.8917 3.0565
-0.9720 0.7917 3.0662
-0.8730 0.7917 3.0821
-0.8739 0.8917 3.0927
-0.9734 0.8917 3.0818
-0.7772 0.8917 3.1352
-0.7756 0.7917 3.1167
-0.6776 0.7917 3.1439
-0.6803 0.8917 3.1743
-0.6132 0.7917 3.3502
-0.6111 0.8917 3.3504
-0.6001 0.7921 3.4067
-0.5999 0.8917 3.4051
-0.6265 0.7917 3.2487
-0.6253 0.8917 3.2488
-0.6949 0.9917 3.3431
-0.7945 0.9917 3.3345
-0.6863 0.9599 3.2435
-0.7859 1.0033 3.2348
-0.7772 0.8917 3.1352
-0.6803 0.8917 3.1743
-0.7835 0.9917 3.2071
-0.7974 0.9927 3.3939
-0.6976 0.9926 3.3987
-0.7982 1.0923 3.3922
-0.7982 1.1922 3.3906
-0.7985 1.2917 3.3890
-0.6111 0.8917 3.3504
-0.5999 0.8917 3.4051
-0.6253 0.8917 3.2488
-0.5994 1.2917 3.3987
-0.6001 0.7921 3.4067
-0.5007 0.7915 3.4116
-0.5999 0.8917 3.4051
-0.4011 0.7913 3.4164
-0.3014 0.7912 3.4213
-0.2002 0.7913 3.4262
-0.2001 0.8917 3.4246
-0.5999 0.8917 3.4051
-0.5994 1.2917 3.3987
-0.2000 0.9918 3.4230
-0.2982 1.1923 3.4149
-0.2001 0.8917 3.4246
-0.2024 1.0917 3.4506
-0.2054 1.1917 3.4860
-0.1995 1.2917 3.4181
3 0 4 3
3 1 2 5
3 2 7 5
3 7 6 5
3 6 7 8
3 8 7 9
3 1 5 10
3 5 11 10
3 11 5 12
3 12 5 6
3 13 15 16
3 15 14 16
3 17 18 19
3 19 18 20
3 18 21 22
3 18 22 20
3 24 23 25
3 25 23 26
3 27 28 29
3 30 28 31
3 32 30 31
3 28 30 29
3 33 30 32
3 35 34 33
3 30 34 36
3 33 34 30
3 37 30 38
3 38 30 39
3 39 30 36
3 40 38 41
3 37 38 40
3 41 39 42
3 38 39 41
3 45 43 44
3 46 43 47
3 48 43 45
3 47 48 49
3 43 48 47
3 53 51 48
3 51 50 48
3 50 52 48
3 54 47 55
3 54 56 47
3 56 46 47
3 57 59 58
3 57 58 60
3 62 64 63
3 63 64 58
3 64 65 58
3 58 65 60
3 61 60 66
3 60 65 66
3 61 66 68
3 66 67 68
3 70 69 71
3 71 69 72
3 73 75 74
3 74 75 76
3 77 79 78
3 79 71 78
3 70 71 79
3 71 73 78
3 75 73 71
3 82 81 83
3 82 80 81
3 82 83 84
3 84 83 85
3 84 85 86
3 86 85 87
3 88 82 84
3 89 84 86
3 89 86 90
3 89 92 84
3 92 88 84
3 89 94 95
3 94 93 95
3 97 96 98
3 98 96 91
3 98 91 99
3 99 91 88
3 92 99 88
3 102 100 103
3 105 104 106
3 105 106 103
3 103 106 102
3 108 104 105
3 107 104 108
3 109 101 100
3 102 109 100
3 110 112 113
3 110 113 111
3 113 114 111
3 111 114 115
3 111 115 116
3 111 116 117
3 116 118 117
3 117 118 119
3 121 120 122
3 122 120 123
3 120 124 125
3 120 125 123
3 123 125 126
3 128 127 129
3 129 127 130
3 133 131 128
3 133 128 129
3 131 134 132
3 133 134 131
3 134 138 132
3 133 129 135
3 136 138 134
3 137 138 136
3 133 135 134
3 134 135 136
3 137 136 135
3 139 140 141
3 141 140 142
3 141 142 143
3 139 144 140
3 140 144 145
3 143 146 141
3 141 146 147
3 148 145 144
3 148 144 149
3 150 151 152
3 152 151 153
3 155 154 156
3 156 154 157
3 159 158 160
3 159 160 161
3 161 160 162
3 163 158 155
3 156 163 155
3 164 160 163
3 160 158 163
3 166 160 164
3 166 165 160
3 165 162 160
3 163 168 167
3 163 156 168
3 168 156 169
3 171 170 172
3 172 170 173
3 175 174 171
3 171 174 170
3 174 177 176
3 175 177 174
3 176 178 179
3 176 177 178
3 172 175 171
3 180 177 175
3 180 181 177
3 182 175 172
3 180 175 183
3 175 182 183
3 180 183 181
3 183 182 184
3 183 184 185
3 186 187 188
3 188 187 189
3 191 190 192
3 192 190 193
3 195 194 191
3 194 195 196
3 195 197 196
3 192 195 191
3 197 195 199
3 197 199 198
3 200 195 192
3 195 201 199
3 200 201 195
3 201 202 199
3 200 192 203
3 203 192 193
3 205 202 201
3 204 202 205
3 206 201 200
3 200 203 206
3 206 203 207
3 209 208 210
3 210 208 211
3 210 211 212
3 212 211 213
3 215 209 214
3 210 214 209
3 216 210 212
3 216 212 217
3 219 220 218
3 221 222 220
3 223 225 224
3 226 225 223
3 227 228 229
3 228 230 229
3 232 233 231
3 234 233 232
3 235 237 236
3 238 237 235
3 240 241 239
3 239 241 242
3 244 245 243
3 235 247 238
3 247 246 238
3 247 248 249
3 235 248 247
3 249 250 251
3 248 250 249
3 251 252 253
3 250 252 251
3 256 254 255
3 254 259 257
3 254 257 255
3 255 257 258
3 261 260 262
3 262 260 263
3 265 264 266
3 267 265 266
3 269 268 267
3 269 267 270
3 270 267 266
3 272 271 273
3 273 271 274
3 276 275 277
3 279 276 277
3 279 277 278
3 280 279 278
3 281 280 282
3 282 280 278
3 284 283 285
3 285 283 286
3 288 287 289
3 289 287 290
3 292 291 293
3 293 291 294
3 293 294 301
3 301 294 295
3 301 295 296
3 301 296 297
3 298 293 299
3 292 293 298
3 300 293 301
3 293 300 299
3 308 302 303
3 303 304 305
3 303 305 306
3 306 305 307
3 308 303 309
3 306 310 309
3 306 309 303
3 310 306 311
3 313 312 314
3 313 314 315
3 315 316 313
3 317 316 315
3 316 318 313
3 321 312 313
3 318 319 320
3 318 320 313
3 313 320 321
3 322 321 320
3 324 323 325
3 325 323 326
3 328 327 329
3 329 327 330
3 332 331 333
3 333 331 334
3 333 334 335
3 337 332 338
3 338 332 333
3 339 333 335
3 338 333 339
3 339 335 336
3 341 342 340
3 340 338 341
3 337 338 340
3 341 339 344
3 341 338 339
3 344 339 336
3 343 342 341
3 343 341 344
3 345 344 336
3 346 347 348
3 348 347 349
3 350 351 352
3 352 351 353
3 357 353 354
3 357 354 355
3 357 355 356
3 358 355 354
3 351 359 353
3 353 359 360
3 353 360 354
3 354 360 361
3 358 361 362
3 354 361 358
3 363 366 367
3 363 365 366
3 368 369 364
3 363 364 370
3 370 364 369
3 365 363 370
3 369 371 372
3 369 372 370
3 373 375 374
3 376 375 373
3 376 373 377
3 376 377 378
3 377 382 378
3 378 382 379
3 379 382 380
3 380 382 381
3 381 382 383
3 385 386 384
3 384 386 387
3 386 388 387
3 389 388 390
3 391 392 393
3 393 392 394
3 393 394 395
3 395 394 396
3 397 395 398
3 395 396 398
3 392 384 394
3 394 384 387
3 394 387 396
3 396 387 399
3 400 399 387
3 400 387 388
3 400 388 389
3 400 389 401
3 403 406 405
3 403 405 402
3 402 405 404
3 407 405 406
3 409 408 410
3 409 411 408
3 409 410 413
3 413 410 415
3 413 415 414
3 416 411 409
3 412 411 416
3 418 416 413
3 416 409 413
3 417 413 414
3 418 413 417
3 422 421 423
3 423 421 424
3 419 425 420
3 423 425 419
3 423 424 425
3 427 426 422
3 423 427 422
3 426 427 428
3 428 427 429
3 428 429 430
3 430 429 431
3 423 419 432
3 423 432 427
3 427 432 434
3 427 434 429
3 429 434 431
3 432 433 434
3 436 435 437
3 440 435 438
3 438 435 436
3 439 440 438
3 441 440 439
3 441 439 443
3 442 441 443
3 445 444 446
3 446 444 447
3 446 447 449
3 448 446 449
3 450 446 448
3 451 446 450
3 451 450 452
3 450 453 452
3 454 445 446
3 454 446 451
3 451 452 455
3 459 461 460
3 467 456 457
3 462 457 458
3 462 458 463
3 458 459 463
3 463 459 464
3 459 460 464
3 465 467 457
3 465 457 462
3 463 464 466
3 468 467 465
3 462 469 468
3 462 468 465
3 469 462 470
3 462 463 470
3 470 463 471
3 463 466 471
3 473 472 474
3 475 473 474
3 475 476 473
3 473 476 477
3 476 478 477
3 479 473 480
3 480 473 481
3 473 477 481
3 481 477 482
3 477 483 482
3 479 472 473
3 480 481 484
3 479 486 485
3 479 485 472
3 486 479 487
3 487 479 480
3 487 480 484
3 484 481 488
3 489 491 490
3 490 491 492
3 493 494 489
3 489 494 491
3 496 495 497
3 497 495 498
3 497 498 499
3 499 498 500
3 501 503 502
3 502 503 504
3 503 500 504
3 499 500 503
3 505 507 508
3 507 506 508
3 512 513 509
3 509 513 510
3 512 509 514
3 514 509 511
3 515 517 516
3 518 519 520
3 520 519 521
3 522 521 523
3 520 521 522
3 524 522 523
3 525 527 526
3 526 527 528
3 527 523 528
3 524 523 527
3 529 522 530
3 530 522 524
3 531 532 525
3 525 532 527
3 533 535 534
3 534 535 536
3 540 541 538
3 540 538 539
3 539 538 537
3 539 542 540
3 540 542 543
3 542 545 543
3 544 545 542
3 539 546 547
3 539 547 542
3 549 548 550
3 551 549 550
3 552 549 551
3 552 551 553
3 553 551 554
3 549 556 555
3 552 556 549
3 557 559 558
3 558 559 560
3 559 554 560
3 553 554 559
3 561 552 553
3 561 553 562
3 562 553 563
3 559 564 553
3 564 563 553
3 559 565 564
3 566 562 563
3 568 569 567
3 566 569 568
3 569 566 570
3 570 566 563
3 570 563 571
3 571 563 564
3 573 572 574
3 574 572 575
3 576 578 577
3 577 578 579
3 582 581 580
3 576 581 582
3 584 576 582
3 584 583 576
3 583 578 576
3 586 585 587
3 587 585 588
3 589 587 590
3 587 588 590
3 586 587 589
3 592 591 593
3 593 591 586
3 593 586 589
3 594 592 595
3 592 593 595
3 596 593 589
3 595 593 596
3 597 599 598
3 598 599 600
3 599 601 600
3 602 601 599
3 604 603 605
3 605 603 606
3 605 606 607
3 607 606 608
3 609 604 610
3 610 604 605
3 610 605 611
3 611 605 607
3 614 615 612
3 615 613 612
3 614 616 615
3 617 614 612
3 618 614 617
3 619 614 618
3 620 614 619
3 622 621 623
3 624 621 622
3 625 621 624
3 626 621 625
3 627 621 626
3 628 630 629
3 632 633 631
3 635 634 636
3 636 634 637
3 635 636 638
3 639 635 640
3 640 635 638
3 642 641 643
3 643 641 644
3 642 643 645
3 647 646 648
3 647 648 649
3 647 649 650
3 650 649 645
3 650 645 643
3 652 651 653
3 653 654 652
3 655 654 653
3 654 655 656
3 656 655 657
3 659 658 660
3 661 659 662
3 662 659 660
3 661 663 659
3 659 663 664
3 665 663 661
3 666 665 661
3 662 666 661
3 667 666 662
3 667 662 668
3 668 662 660
3 670 669 671
3 671 669 672
3 673 670 671
3 675 674 676
3 676 674 673
3 676 673 671
3 676 677 675
3 671 677 676
3 677 671 678
3 679 681 680
3 679 682 681
3 683 684 681
3 683 681 682
3 683 682 685
3 686 685 687
3 687 685 682
3 689 688 690
3 690 688 691
3 690 691 692
3 692 691 693
3 694 692 695
3 692 693 695
3 694 696 698
3 694 698 697
3 694 695 696
3 701 700 699
3 699 700 702
3 705 704 703
3 704 705 707
3 704 707 706
3 707 708 706
3 706 708 709
3 708 710 709
3 704 716 703
3 716 704 711
3 711 704 706
3 706 709 712
3 713 711 706
3 713 706 714
3 714 706 715
3 706 712 715
3 714 715 717
3 721 723 722
3 724 718 719
3 720 721 725
3 725 721 726
3 721 722 726
3 727 724 719
3 727 719 720
3 728 727 720
3 728 720 725
3 725 726 729
3 730 727 728
3 730 728 725
3 725 729 731
3 733 734 735
3 734 736 735
3 735 736 737
3 736 738 737
3 745 732 739
3 739 732 733
3 733 740 739
3 735 740 733
3 735 737 741
3 740 742 739
3 742 744 743
3 740 744 742
3 746 739 742
3 746 742 747
3 742 743 747
3 750 749 751
3 750 753 752
3 750 751 753
3 752 754 756
3 752 753 754
3 753 755 754
3 763 748 749
3 757 749 750
3 758 757 750
3 756 754 758
3 754 759 758
3 760 763 749
3 760 749 757
3 757 758 761
3 761 758 762
3 758 759 762
3 764 760 757
3 764 757 765
3 757 761 765
3 767 766 768
3 768 766 769
3 771 770 772
3 772 770 773
3 775 774 776
3 776 774 777
3 778 781 779
3 780 781 778
3 783 782 784
3 785 783 784
3 786 783 785
3 786 785 784
3 788 787 789
3 789 787 790
3 791 793 792
3 797 792 793
3 794 792 797
3 797 795 794
3 796 795 797
3 799 798 800
3 800 798 801
3 803 802 804
3 804 802 805
3 807 806 808
3 809 807 808
3 809 808 810
3 808 814 810
3 811 814 812
3 811 813 814
3 813 810 814
3 816 815 817
3 817 815 818
3 820 819 821
3 821 819 822
3 823 822 824
3 821 822 823
3 826 825 827
3 827 825 828
3 830 829 831
3 831 829 832
3 833 834 831
3 834 830 831
3 835 833 836
3 835 834 833
3 840 839 837
3 838 840 837
3 837 841 838
3 841 842 838
3 841 836 842
3 835 836 841
3 846 844 845
3 845 844 843
3 845 849 846
3 845 848 849
3 848 847 849
3 851 850 858
3 858 850 852
3 858 852 853
3 858 853 854
3 855 843 851
3 855 851 856
3 856 851 858
3 857 843 855
3 845 843 857
3 857 848 845
3 860 859 861
3 862 860 861
3 863 862 861
3 864 863 865
3 865 863 861
3 868 866 869
3 869 866 867
3 870 866 868
3 871 868 869
3 872 871 869
3 872 869 873
3 869 867 873
