ply
format ascii 1.0
element vertex 897
property float x
property float y
property float z
element face 744
property list uchar int vertex_indices
end_header
-2.0983 1.2917 3.3217
-2.0983 1.2917 3.3217
-2.1979 1.3917 3.3130
-2.1979 1.3917 3.3130
-2.1969 1.2917 3.3015
-2.0967 1.3917 3.3033
-2.0963 1.4917 3.2981
-2.1961 1.4917 3.2916
-2.0958 1.5917 3.2923
-2.1956 1.5917 3.2856
-1.9948 1.2917 3.2856
-1.9925 1.3917 3.2594
-1.9953 1.4917 3.2911
-2.1979 1.3917 3.3130
-2.2934 1.2917 3.2560
-2.1969 1.2917 3.3015
-2.2956 1.3917 3.2817
-0.1690 1.0917 3.4891
-0.2054 1.1917 3.4860
-0.1112 1.0917 3.5570
-0.1114 1.1917 3.5594
-0.1605 1.2917 3.4899
-0.1128 1.2917 3.5756
0.3508 0.3917 0.5479
0.4497 0.3917 0.5643
0.4505 0.4917 0.5552
0.3500 0.4917 0.5571
0.5522 0.1549 0.5405
0.5384 0.1917 0.5393
0.5533 0.1917 0.5279
0.5435 0.1917 0.6401
0.5550 0.2917 0.5081
0.4473 0.1917 0.5919
0.4463 0.2917 0.6032
0.4497 0.3917 0.5643
0.4844 0.4917 0.5346
0.4505 0.4917 0.5552
0.5585 0.4917 0.4674
0.6547 0.2917 0.5156
0.6545 0.3917 0.5176
0.6550 0.4917 0.5119
0.7105 0.2917 0.5542
0.6833 0.3917 0.5519
0.6890 0.4917 0.5523
0.4844 0.4917 0.5346
0.4505 0.4917 0.5552
0.4516 0.5917 0.5420
0.5585 0.4917 0.4674
0.5540 0.5917 0.5189
0.4525 0.6917 0.5318
0.5540 0.6917 0.5188
0.5435 0.7276 0.6401
0.4568 0.7917 0.6326
0.5522 0.7135 0.5405
0.4640 0.7917 0.5328
0.6518 0.5291 0.5491
0.5737 0.5917 0.5423
0.6550 0.4917 0.5119
0.1191 0.8917 0.9044
0.2102 0.7977 1.0127
0.1396 0.8917 1.0065
0.2187 0.7972 0.9130
0.3006 0.8075 1.1209
0.2026 0.7983 1.1124
0.3090 0.8070 1.0212
0.3184 0.8066 0.9217
0.2269 0.7967 0.8133
0.3273 0.8061 0.8221
0.2356 0.7962 0.7137
0.3353 0.8056 0.7224
0.0194 0.8917 0.8957
0.1191 0.8917 0.9044
0.1143 0.9917 0.9590
0.0143 0.9917 0.9544
0.1018 1.0257 1.1036
0.0021 1.0257 1.0950
0.1104 1.0066 1.0041
0.0108 1.0067 0.9953
0.1627 0.8917 1.1089
0.1382 0.9917 1.1068
0.1396 0.8917 1.0065
0.1450 0.4917 0.6055
0.0454 0.4917 0.5968
0.1282 0.4917 0.5037
0.1000 0.5917 0.5012
0.0480 0.5917 0.5666
0.0599 0.4917 0.4293
0.0607 0.5917 0.4207
0.1520 0.6917 0.5253
0.0523 0.6917 0.5177
0.1710 0.6764 0.3066
0.0627 0.6044 0.3976
0.0713 0.6431 0.2980
0.1537 0.7917 0.5059
0.0540 0.7917 0.4972
0.2476 0.5917 0.5803
0.2957 0.4917 0.3175
0.1945 0.5917 0.3087
0.2443 0.7958 0.6141
0.2446 0.7917 0.6141
0.1450 0.8104 0.6055
0.3259 0.4917 0.5208
0.3500 0.4917 0.5571
0.4516 0.5917 0.5420
0.2985 0.4917 0.4181
0.4525 0.6917 0.5318
0.2356 0.7962 0.7137
0.3529 0.7917 0.5232
0.3353 0.8056 0.7224
0.3454 0.8052 0.6230
0.4505 0.4917 0.5552
1.4020 2.8917 3.4702
1.5035 2.8917 3.4752
1.5036 3.0924 3.4719
1.4022 3.0919 3.4670
1.5055 3.1917 3.4338
1.4059 3.1500 3.4251
1.5037 3.1923 3.4703
1.4278 3.1917 3.3266
1.4145 3.1756 3.3255
1.6034 2.9923 3.4784
1.6092 1.2917 2.8405
1.6322 1.2917 2.4410
1.6038 1.4921 2.8400
1.6096 1.4923 2.7396
1.6069 1.5924 2.7392
1.6126 1.5925 2.6393
1.6184 1.5923 2.5395
1.6241 1.5917 2.4403
1.6157 1.6917 2.5399
1.5920 1.6917 2.4375
1.6322 1.2917 2.4410
1.6437 1.2917 2.2413
1.6410 1.3917 2.2410
1.6383 1.4917 2.2409
1.6241 1.5917 2.4403
1.6299 1.5918 2.3404
1.6356 1.5913 2.2411
1.3997 1.2917 3.4960
1.4995 1.2917 3.5008
1.5003 1.6917 3.4944
1.4003 1.6917 3.4895
1.5746 1.2917 3.4406
1.5692 1.4908 3.4403
1.5862 1.2917 3.2400
1.5750 1.4907 3.3405
1.5723 1.5906 3.3404
1.6051 1.6917 3.4424
1.5638 1.6917 3.4401
1.5754 1.6917 3.2391
1.5862 1.2917 3.2400
1.5892 1.3914 3.1403
1.6092 1.2917 2.8405
1.5950 1.3917 3.0401
1.6008 1.3920 2.9399
1.5754 1.6917 3.2391
1.5865 1.4910 3.1404
1.5981 1.4920 2.9397
1.6038 1.4921 2.8400
1.5838 1.5905 3.1408
1.6311 1.6917 3.1435
1.5841 2.4917 3.2398
1.5802 2.5917 3.2395
1.5972 2.4917 3.1406
1.5505 2.5917 3.1365
1.4014 2.4917 3.4767
1.5018 2.4917 3.4815
1.5035 2.8917 3.4752
1.4020 2.8917 3.4702
1.5542 2.4917 3.4380
1.5837 2.4917 3.3402
1.5962 2.5917 3.3413
1.5841 2.4917 3.2398
1.5802 2.5917 3.2395
1.6122 2.6917 3.3613
1.6138 2.6503 3.3428
1.5482 2.6917 3.2367
1.6150 2.6917 3.3290
1.6138 2.7120 3.3428
1.5706 2.7917 3.3390
1.5677 2.8917 3.3388
1.4008 2.0917 3.4831
1.5012 2.1918 3.4864
1.5018 2.4917 3.4815
1.4014 2.4917 3.4767
1.6121 2.0917 3.4934
1.5542 2.1917 3.4380
1.6138 2.0917 3.3428
1.5774 2.1917 3.2392
1.5774 2.0917 3.2392
1.5587 2.0917 3.3394
1.6138 2.2917 3.3428
1.5727 2.2917 3.2388
1.5542 2.4917 3.4380
1.5779 2.3917 3.2393
1.5837 2.4917 3.3402
1.5841 2.4917 3.2398
1.5700 1.8910 3.2386
1.5673 1.9911 3.2384
1.5757 1.8914 3.1391
1.5730 1.9916 3.1387
1.4003 1.6917 3.4895
1.5003 1.6917 3.4944
1.5009 1.9419 3.4904
1.4008 2.0917 3.4831
1.6051 1.6917 3.4424
1.5598 1.8417 3.4385
1.5638 1.6917 3.4401
1.5754 1.6917 3.2391
1.5568 1.7917 3.2375
1.5700 1.8910 3.2386
1.6051 1.9917 3.4424
1.5614 1.9903 3.3398
1.5673 1.9911 3.2384
1.6121 2.0917 3.4934
1.5774 2.0917 3.2392
1.5587 2.0917 3.3394
1.6138 1.9917 3.3428
1.6138 2.0917 3.3428
-2.3990 0.9917 3.3169
-2.2987 0.9917 3.3176
-2.2976 1.0917 3.3044
-2.3972 1.0917 3.2957
-2.2993 1.1917 3.3239
-2.3987 1.1917 3.3136
-2.1979 0.9917 3.3130
-2.2976 0.9622 3.3044
-2.1979 1.1917 3.3130
-2.2976 1.2165 3.3044
-2.0983 0.9917 3.3217
-2.1979 0.9917 3.3130
-2.0983 1.0917 3.3217
-2.1979 1.1917 3.3130
-2.0983 1.2917 3.3217
-2.1979 0.9917 3.3130
-2.2976 0.9622 3.3044
-2.2944 0.8917 3.2683
-2.1925 0.8917 3.2499
-2.1979 0.9917 3.3130
-2.2976 1.0917 3.3044
-2.1969 1.0917 3.3006
-2.1979 1.1917 3.3130
-2.1979 1.1917 3.3130
-2.2976 1.2165 3.3044
-2.1969 1.2917 3.3015
-2.2934 1.2917 3.2560
-2.0983 0.9917 3.3217
-2.1979 0.9917 3.3130
-2.1925 0.8917 3.2499
-2.0921 0.8917 3.2499
-2.0983 1.0917 3.3217
-2.1979 0.9917 3.3130
-2.1969 1.0917 3.3006
-2.1979 1.1917 3.3130
-2.0983 1.2917 3.3217
-2.1979 1.1917 3.3130
-2.1969 1.2917 3.3015
-1.9941 0.8917 3.2772
-1.9963 0.9917 3.3028
-2.0983 1.0917 3.3217
-1.9973 1.0917 3.3143
-2.0983 1.1917 3.3217
-1.9971 1.1917 3.3122
-2.0983 1.2917 3.3217
-1.9948 1.2917 3.2856
-0.1145 1.3379 3.5943
-0.1317 1.3917 3.5928
-0.1165 1.3917 3.6181
-0.1605 1.2917 3.4899
-0.1612 1.3917 3.4898
-0.1128 1.2917 3.5756
-1.7971 2.4917 3.3210
-1.3973 2.4917 3.3404
-1.3968 2.8917 3.3340
-1.7966 2.8917 3.3145
-1.7975 2.1924 3.3258
-1.6965 2.1922 3.3307
-1.7971 2.4917 3.3210
-1.5961 2.1924 3.3356
-1.4967 2.1921 3.3404
-1.3977 2.1922 3.3453
-1.3973 2.4917 3.3404
-1.3973 2.4917 3.3404
-0.9975 2.4917 3.3599
-0.9969 2.8917 3.3535
-1.3968 2.8917 3.3340
-1.3977 2.1922 3.3453
-1.2968 2.1921 3.3502
-1.3976 2.2922 3.3436
-1.3973 2.4917 3.3404
-1.1976 2.1918 3.3550
-1.0967 2.1922 3.3599
-0.9979 2.1919 3.3647
-0.9975 2.4917 3.3599
-0.9975 2.4917 3.3599
-0.5977 2.4917 3.3794
-0.5971 2.8917 3.3729
-0.9969 2.8917 3.3535
-0.9981 2.0917 3.3663
-0.5982 2.0917 3.3858
-0.5977 2.4917 3.3794
-0.9975 2.4917 3.3599
-0.7976 1.6917 3.3826
-0.6971 1.6917 3.3875
-0.6970 1.7924 3.3858
-0.7980 1.7920 3.3809
-0.7979 1.8920 3.3793
-0.7976 1.9920 3.3777
-0.7979 2.0917 3.3761
-0.5884 1.6917 3.2725
-0.5885 1.7917 3.2737
-0.5985 1.8923 3.3890
-0.5982 2.0917 3.3858
-0.7985 1.2917 3.3890
-0.7982 1.3921 3.3874
-0.7984 1.4920 3.3857
-0.7979 1.5921 3.3842
-0.6971 1.6917 3.3875
-0.7976 1.6917 3.3826
-0.5994 1.2917 3.3987
-0.5989 1.5921 3.3938
-0.5953 1.6123 3.3518
-0.5884 1.6917 3.2725
-0.5994 1.2917 3.3987
-0.3986 1.5919 3.4036
-0.5989 1.5921 3.3938
-0.5953 1.6123 3.3518
-0.4870 1.6917 3.2608
-0.5884 1.6917 3.2725
-0.3942 1.6917 3.3483
-0.3481 1.6917 3.3732
-0.2984 1.6917 3.4069
-0.1995 1.2917 3.4181
-0.1990 1.6917 3.4117
-0.5982 2.0917 3.3858
-0.1984 2.0917 3.4053
-0.1979 2.4917 3.3988
-0.5977 2.4917 3.3794
-0.5977 2.4917 3.3794
-0.1979 2.4917 3.3988
-0.1973 2.8917 3.3924
-0.5971 2.8917 3.3729
-0.5884 1.6917 3.2725
-0.4870 1.6917 3.2608
-0.4883 1.7917 3.2758
-0.5885 1.7917 3.2737
-0.5985 1.8923 3.3890
-0.5982 2.0917 3.3858
-0.3942 1.6917 3.3483
-0.3937 1.7917 3.3423
-0.3975 1.8446 3.3996
-0.3481 1.6917 3.3732
-0.2983 1.7920 3.4052
-0.2984 1.6917 3.4069
-0.1990 1.6917 3.4117
-0.1987 1.8921 3.4085
-0.1984 2.0917 3.4053
1.5833 0.3917 2.5371
1.6136 0.4917 2.5398
1.6630 0.3917 2.4437
1.6528 0.4917 2.4428
1.6161 0.2917 2.4396
1.6630 0.3917 2.4437
1.6486 0.2917 2.3420
1.6723 0.2917 2.2437
1.6802 0.3917 2.2444
1.7176 0.3338 2.1473
1.6179 0.3221 2.1386
1.6149 0.2917 2.1739
1.7115 0.3917 2.2165
1.6528 0.4917 2.4428
1.6669 0.4917 2.3436
1.6763 0.4917 2.2441
1.7176 0.4917 2.1473
1.5480 0.8917 2.5341
1.5747 0.8917 2.6368
1.5920 0.9155 2.4375
1.4924 0.9073 2.4289
1.4884 0.8917 2.4747
1.5574 0.8917 2.8360
1.6173 0.9919 2.8412
1.6404 0.9916 2.4417
1.6092 1.2917 2.8405
1.6322 1.2917 2.4410
1.5920 0.9155 2.4375
1.4924 0.9073 2.4289
1.5010 0.8917 2.3292
1.6006 0.8917 2.3379
1.6404 0.9916 2.4417
1.6546 0.8917 2.2427
1.6519 0.9916 2.2421
1.6492 1.0914 2.2421
1.6465 1.1918 2.2414
1.6322 1.2917 2.4410
1.6437 1.2917 2.2413
1.5920 0.6917 2.4375
1.4924 0.6536 2.4289
1.5010 0.6917 2.3292
1.6006 0.6917 2.3379
1.5032 0.7917 2.3039
1.6006 0.8917 2.3379
1.5010 0.8917 2.3292
1.6528 0.4917 2.4428
1.6516 0.5917 2.4427
1.6669 0.4917 2.3436
1.6663 0.5917 2.3436
1.6763 0.4917 2.2441
1.6776 0.5917 2.2442
1.7176 0.4917 2.1473
1.6907 0.5917 2.1449
1.6758 0.6917 2.2440
1.7089 0.7917 2.2469
1.6546 0.8917 2.2427
1.6136 0.4917 2.5398
1.5833 0.5484 2.5371
1.6528 0.4917 2.4428
1.6516 0.5917 2.4427
1.5852 0.5917 2.5159
1.5920 0.6917 2.4375
1.4734 0.9917 3.4310
1.3993 0.9920 3.5008
1.5329 1.0917 3.4526
1.4726 0.9917 3.3305
1.5228 0.9917 3.2345
1.5735 1.1936 3.5067
1.4995 1.2917 3.5008
1.3997 1.2917 3.4960
1.5916 1.0914 3.2405
1.5747 1.2909 3.4407
1.5862 1.2917 3.2400
1.5228 0.9917 3.2345
1.4232 0.9917 3.2259
1.4405 0.8917 3.0266
1.5351 0.8917 3.0932
1.5348 0.9917 3.0963
1.4347 0.9917 3.0934
1.4318 1.0086 3.1262
1.5851 0.8917 3.0392
1.6058 0.9921 3.0406
1.5487 0.8917 2.9356
1.6116 0.9919 2.9409
1.5574 0.8917 2.8360
1.6173 0.9919 2.8412
1.5916 1.0914 3.2405
1.5862 1.2917 3.2400
1.6092 1.2917 2.8405
-1.7966 2.8917 3.3145
-1.6953 3.0922 3.3162
-1.7963 3.0918 3.3113
-1.5958 3.0920 3.3211
-1.4954 3.0922 3.3259
-1.3968 2.8917 3.3340
-1.3965 3.0921 3.3308
-1.3923 3.1361 3.2826
-1.4919 3.1353 3.2739
-1.3968 2.8917 3.3340
-0.9969 2.8917 3.3535
-1.2948 3.0925 3.3357
-1.3965 3.0921 3.3308
-1.2927 3.0917 3.2912
-1.3923 3.1361 3.2826
-1.1930 3.1295 3.2999
-0.9938 3.1334 3.3172
-1.0848 3.1661 3.2089
-1.1844 3.1672 3.2002
-0.9967 3.0918 3.3502
-0.9851 3.1409 3.2175
-0.9969 2.8917 3.3535
-0.9967 3.0918 3.3502
-0.9938 3.1334 3.3172
-0.9851 3.1409 3.2175
-0.8769 3.1429 3.1266
-0.9765 3.1509 3.1179
-0.6949 3.1233 3.3431
-0.6863 3.1498 3.2435
-0.7772 3.1459 3.1352
-0.6968 3.0918 3.3648
-0.6776 3.1506 3.1439
-0.5971 2.8917 3.3729
-0.5967 3.1920 3.3681
-0.5953 3.1917 3.3518
-0.5866 3.1523 3.2521
-0.5780 3.1491 3.1525
-0.5971 2.8917 3.3729
-0.4968 3.0918 3.3746
-0.5967 3.1920 3.3681
-0.5953 3.1917 3.3518
-0.5866 3.1523 3.2521
-0.4784 3.1570 3.1612
-0.5780 3.1491 3.1525
-0.3466 3.1103 3.3816
-0.2878 3.1631 3.2781
-0.2705 3.1277 3.0788
-0.3701 3.0917 3.0702
-0.4697 3.1438 3.0615
-0.1795 3.1499 3.1871
-0.1973 2.8917 3.3924
-0.1971 3.0680 3.3895
-0.1969 3.1683 3.3879
-0.1708 3.1319 3.0875
-0.1061 1.0447 1.1852
-0.2057 1.0447 1.1763
-0.1971 1.0258 1.0777
-0.0064 1.0445 1.1934
0.0021 1.0257 1.0950
-0.4441 0.4917 0.4540
-0.3477 0.4917 0.5000
-0.3498 0.5917 0.5236
-0.4457 0.5917 0.4727
-0.3467 0.6917 0.4886
-0.4461 0.6917 0.4768
-0.3618 0.7917 0.6619
-0.4614 0.7917 0.6532
-0.3531 0.7917 0.5622
-0.4527 0.7917 0.5536
-0.3791 0.9917 0.8611
-0.4700 0.8917 0.7529
-0.3743 0.8917 0.8066
-0.4752 0.9917 0.8127
-0.4700 0.7917 0.7529
-0.4614 0.7917 0.6532
-0.4700 0.8917 0.7529
-0.3704 0.7917 0.7615
-0.3618 0.7917 0.6619
-0.3743 0.8917 0.8066
-0.3610 0.8917 0.8627
-0.3791 0.9917 0.8611
-0.3743 0.8917 0.8066
-0.2210 0.8917 0.9752
-0.2024 0.9917 0.9768
-0.1798 0.8917 0.8784
-0.1849 0.9989 0.9370
0.0194 0.8917 0.8957
-0.0851 0.9985 0.9435
-0.1971 1.0258 1.0777
-0.0888 1.0067 0.9866
-0.1884 1.0067 0.9779
0.0143 0.9917 0.9544
0.0021 1.0257 1.0950
0.0108 1.0067 0.9953
-0.2967 0.8096 1.0690
-0.3964 0.8032 1.0604
-0.2881 0.7985 0.9694
-0.3664 0.8917 0.9626
-0.3894 0.8917 0.9807
-0.2794 0.7966 0.8698
-0.3610 0.8917 0.8627
-0.3704 0.7917 0.7615
-0.2708 0.7917 0.7701
-0.3743 0.8917 0.8066
-0.2210 0.8917 0.9752
-0.1798 0.8917 0.8784
-0.2922 0.5917 0.4672
-0.2448 0.6521 0.4713
-0.3498 0.5917 0.5236
-0.2471 0.6917 0.4975
-0.3467 0.6917 0.4886
-0.2823 0.5917 0.3676
-0.2362 0.6159 0.3716
-0.2621 0.7917 0.6705
-0.3618 0.7917 0.6619
-0.2535 0.7917 0.5709
-0.3531 0.7917 0.5622
-0.2032 0.5917 0.4749
-0.1510 0.5917 0.5468
-0.0473 0.6917 0.5080
-0.1366 0.6917 0.3803
-0.1378 0.5917 0.3945
-0.1452 0.7917 0.4799
-0.1539 0.8079 0.5795
-0.0516 0.5917 0.5576
-0.1313 0.5917 0.3808
0.0540 0.7917 0.4972
0.0454 0.4917 0.5968
-0.0542 0.4917 0.5882
0.0480 0.5917 0.5666
0.0497 0.5917 0.3965
-0.0369 0.5238 0.3889
-0.0396 0.4917 0.4200
0.0599 0.4917 0.4293
0.0607 0.5917 0.4207
-0.0306 0.5917 0.3153
0.0523 0.6917 0.5177
0.0627 0.6044 0.3976
0.5022 0.3932 3.4668
0.5988 0.3924 3.4715
0.5990 0.4917 3.4699
0.5022 0.4917 3.4652
1.3841 0.9156 2.5198
1.2845 0.9235 2.5112
1.3927 0.9111 2.4202
1.2931 0.9157 2.4116
1.4269 0.8917 2.6239
1.3754 0.9105 2.6195
1.4511 0.8917 2.5256
1.4924 0.9073 2.4289
1.4884 0.8917 2.4747
1.1054 0.6917 2.2610
1.2041 0.6917 2.2803
1.1052 0.7917 2.2634
1.2040 0.8917 2.2822
1.1037 0.8917 2.2808
1.3041 0.6917 2.2850
1.3018 0.8917 2.3119
1.4033 0.6917 2.2984
1.4038 0.7917 2.2925
1.5010 0.6917 2.3292
1.5032 0.7917 2.3039
1.5010 0.8917 2.3292
1.0939 0.9260 2.3943
0.9942 0.9486 2.3856
1.1025 0.8980 2.2946
1.0029 0.9036 2.2860
1.0052 0.8917 2.2587
1.1037 0.8917 2.2808
0.9075 0.6917 2.2281
1.0054 0.6917 2.2571
1.1037 0.8917 2.2808
0.9061 0.7917 2.2444
1.0052 0.8917 2.2587
0.9054 0.8917 2.2523
1.1054 0.6917 2.2610
1.1052 0.7917 2.2634
1.1935 0.9236 2.4029
1.0939 0.9260 2.3943
1.2021 0.9018 2.3033
1.1025 0.8980 2.2946
1.1037 0.8917 2.2808
1.2040 0.8917 2.2822
1.2931 0.9157 2.4116
1.3018 0.8917 2.3119
1.3927 0.9111 2.4202
1.4924 0.9073 2.4289
1.5010 0.8917 2.3292
0.5995 0.8917 3.4635
0.7010 0.9923 3.4668
0.5997 0.9922 3.4619
0.8006 0.9922 3.4717
0.9002 0.9920 3.4765
0.9993 0.8917 3.4830
0.9726 1.0917 3.4879
0.8991 1.0365 3.4815
0.9996 1.0918 3.4797
-0.1690 1.0917 3.4891
-0.2054 1.1917 3.4860
-0.2004 1.0917 3.4280
-0.1605 1.2917 3.4899
-0.2054 1.1917 3.4860
-0.1995 1.2917 3.4181
0.2999 0.8917 3.4489
0.3996 0.8917 3.4538
0.4003 0.9920 3.4522
0.2979 0.9917 3.4696
0.5006 0.9921 3.4571
0.5995 0.8917 3.4635
0.5997 0.9922 3.4619
0.2997 0.7918 3.4505
0.4001 0.7920 3.4554
0.3996 0.8917 3.4538
0.2999 0.8917 3.4489
0.5007 0.7923 3.4603
0.5022 0.4917 3.4652
0.5990 0.4917 3.4699
0.5012 0.5926 3.4636
0.5005 0.6923 3.4619
0.5995 0.8917 3.4635
1.0084 0.2917 3.3785
1.1080 0.2917 3.3871
1.1091 0.3917 3.3751
1.0101 0.3917 3.3589
1.1093 0.4917 3.3726
0.9988 0.4917 3.4894
0.5990 0.4917 3.4699
0.8000 0.4917 3.4797
0.5995 0.8917 3.4635
0.8008 0.6924 3.4765
0.9010 0.4917 3.4846
0.9993 0.8917 3.4830
0.9603 0.4917 3.3864
0.9612 0.5917 3.3865
0.9988 0.4917 3.4894
1.0094 0.5917 3.3674
1.0106 0.6917 3.3537
1.0103 0.7917 3.3565
1.0074 0.8261 3.3905
0.5988 0.3924 3.4715
0.7006 0.3925 3.4765
0.9010 0.4917 3.4846
0.5990 0.4917 3.4699
0.8001 0.3923 3.4813
0.8039 0.2917 3.4223
0.9077 0.2917 3.3819
0.9012 0.3928 3.4863
1.0084 0.2917 3.3785
1.0101 0.3917 3.3589
0.9603 0.4917 3.3864
0.9988 0.4917 3.4894
0.9993 0.8917 3.4830
1.3992 0.8917 3.5024
1.3997 1.2917 3.4960
0.9999 1.2917 3.4765
0.9988 0.4917 3.4894
1.1093 0.4917 3.3726
1.1094 0.5917 3.3720
1.0094 0.5917 3.3674
1.1097 0.6917 3.3684
1.0106 0.6917 3.3537
1.1083 0.7917 3.3843
1.0103 0.7917 3.3565
1.1070 0.8141 3.3992
1.0074 0.8261 3.3905
1.1005 0.8917 3.4879
0.9993 0.8917 3.4830
1.4169 0.9917 3.1249
1.4318 1.0086 3.1262
1.4232 0.9917 3.2259
1.4347 0.9917 3.0934
-0.1973 2.8917 3.3924
-0.0971 3.0917 3.3940
-0.1971 3.0439 3.3899
-0.0593 3.1403 3.2477
-0.1969 3.1683 3.3879
-0.1795 3.1499 3.1871
-0.0712 3.0917 3.0961
-0.1708 3.1319 3.0875
0.2028 3.0920 3.4086
0.0284 3.0917 3.1048
0.2104 3.1441 3.3213
0.2190 3.1729 3.2217
0.1280 3.1331 3.1134
0.2025 2.8917 3.4118
0.2277 3.0917 3.1221
0.2025 2.8917 3.4118
0.2028 3.0920 3.4086
0.2104 3.1441 3.3213
0.2190 3.1729 3.2217
0.3273 3.1615 3.1307
0.2277 3.0917 3.1221
0.6023 2.8917 3.4313
0.6175 3.1573 3.2563
0.4269 3.1450 3.1394
0.6026 3.0920 3.4281
0.5092 3.1228 3.3473
0.5265 3.1508 3.1480
0.6089 3.1528 3.3559
0.6262 3.1607 3.1567
1.0021 2.8917 3.4508
1.0024 3.0921 3.4475
1.0074 3.1369 3.3905
1.2153 3.1917 3.3082
1.0160 3.1685 3.2909
1.1243 3.1650 3.1999
1.0247 3.1635 3.1913
1.4022 3.0919 3.4670
1.2043 3.1925 3.4557
1.2239 3.1461 3.2086
1.3062 3.1715 3.4165
1.3149 3.1724 3.3168
1.2153 3.1917 3.3082
1.4020 2.8917 3.4702
1.4059 3.1500 3.4251
1.4145 3.1756 3.3255
0.6023 2.8917 3.4313
0.6026 3.0920 3.4281
0.7127 3.1917 3.3162
0.6089 3.1528 3.3559
0.6708 3.1917 3.2609
0.6175 3.1573 3.2563
0.7258 3.1659 3.1653
0.6262 3.1607 3.1567
0.7225 3.1917 3.2035
0.9077 3.1519 3.3819
0.7770 3.1917 3.2701
0.8254 3.1374 3.1740
1.0024 3.0921 3.4475
1.0247 3.1635 3.1913
0.9250 3.1616 3.1826
1.0021 2.8917 3.4508
1.0074 3.1369 3.3905
1.0160 3.1685 3.2909
1.0010 2.0917 3.4636
1.4008 2.0917 3.4831
1.4014 2.4917 3.4767
1.0016 2.4917 3.4572
1.0016 2.4917 3.4572
1.4014 2.4917 3.4767
1.4020 2.8917 3.4702
1.0021 2.8917 3.4508
0.9999 1.2917 3.4765
1.3997 1.2917 3.4960
1.4003 1.6917 3.4895
1.0005 1.6917 3.4701
-0.1605 1.2917 3.4899
-0.1612 1.3917 3.4898
-0.1995 1.2917 3.4181
-0.1994 1.3922 3.4165
-0.1983 2.1920 3.4036
0.2015 2.1918 3.4231
-0.1979 2.4917 3.3988
0.1019 2.2918 3.4166
0.2020 2.4917 3.4183
-0.1979 2.4917 3.3988
0.2020 2.4917 3.4183
0.2025 2.8917 3.4118
-0.1973 2.8917 3.3924
0.2016 2.1918 3.4231
0.3020 2.1920 3.4280
0.2020 2.4917 3.4183
0.4024 2.1922 3.4329
0.5020 2.1920 3.4377
0.6013 2.1921 3.4426
0.6018 2.4917 3.4377
0.2020 2.4917 3.4183
0.6018 2.4917 3.4377
0.6023 2.8917 3.4313
0.2025 2.8917 3.4118
0.6018 2.4917 3.4377
1.0016 2.4917 3.4572
1.0021 2.8917 3.4508
0.6023 2.8917 3.4313
0.6013 2.1921 3.4426
0.7020 2.1920 3.4475
0.6018 2.4917 3.4377
0.8005 2.1914 3.4523
0.9013 2.1918 3.4572
1.0000 2.0917 3.4636
1.0010 2.0913 3.4636
0.9010 2.0917 3.4588
1.0016 2.4917 3.4572
1.0005 1.6917 3.4701
1.4003 1.6917 3.4895
1.4008 2.0917 3.4831
1.0010 2.0917 3.4636
-1.0715 0.8917 3.0565
-0.9734 0.8917 3.0818
-0.9741 0.9917 3.0903
-1.0737 0.9917 3.0810
-0.9765 1.0034 3.1179
-1.0761 1.0029 3.1093
-1.0690 0.7917 3.0271
-0.9720 0.7917 3.0662
-0.9734 0.8917 3.0818
-1.0715 0.8917 3.0565
-0.9720 0.7917 3.0662
-0.8724 0.7917 3.0748
-0.8735 0.8917 3.0881
-0.9734 0.8917 3.0818
-0.7772 0.8917 3.1352
-0.7756 0.7917 3.1167
-0.6776 0.7917 3.1439
-0.6803 0.8917 3.1743
-0.6132 0.7917 3.3502
-0.6111 0.8917 3.3504
-0.6001 0.7921 3.4067
-0.5999 0.8917 3.4051
-0.6265 0.7917 3.2487
-0.6253 0.8917 3.2488
-0.6949 0.9917 3.3431
-0.7945 0.9917 3.3345
-0.6863 0.9599 3.2435
-0.7859 1.0039 3.2348
-0.7772 0.8917 3.1352
-0.6803 0.8917 3.1743
-0.7835 0.9917 3.2071
-0.7974 0.9927 3.3939
-0.6976 0.9926 3.3987
-0.7979 1.0925 3.3922
-0.7980 1.1923 3.3906
-0.7985 1.2917 3.3890
-0.6111 0.8917 3.3504
-0.5999 0.8917 3.4051
-0.6253 0.8917 3.2488
-0.5994 1.2917 3.3987
-0.6001 0.7921 3.4067
-0.5007 0.7915 3.4116
-0.5999 0.8917 3.4051
-0.4011 0.7913 3.4164
-0.3014 0.7912 3.4213
-0.2002 0.7913 3.4262
-0.2001 0.8917 3.4246
-0.5999 0.8917 3.4051
-0.5994 1.2917 3.3987
-0.2000 0.9918 3.4230
-0.2982 1.1923 3.4149
-0.2001 0.8917 3.4246
-0.2004 1.0917 3.4280
-0.2054 1.1917 3.4860
-0.1995 1.2917 3.4181
0.1710 0.6764 0.3066
0.0713 0.6431 0.2980
0.1796 0.6486 0.2070
0.1096 0.6917 0.2009
0.0768 0.6917 0.2348
0.0800 0.7089 0.1983
0.2706 0.5170 0.3153
0.1945 0.5917 0.3087
0.2792 0.5917 0.2156
3 0 4 3
3 1 2 5
3 2 7 5
3 7 6 5
3 6 7 8
3 8 7 9
3 1 5 10
3 5 11 10
3 11 5 12
3 12 5 6
3 13 15 16
3 15 14 16
3 17 18 19
3 19 18 20
3 18 21 22
3 18 22 20
3 24 23 25
3 25 23 26
3 27 28 29
3 32 33 30
3 33 31 30
3 31 28 30
3 28 31 29
3 34 31 33
3 36 35 34
3 31 35 37
3 34 35 31
3 38 31 39
3 39 31 40
3 40 31 37
3 41 39 42
3 38 39 41
3 42 40 43
3 39 40 42
3 46 44 45
3 47 44 48
3 49 44 46
3 48 49 50
3 44 49 48
3 54 52 49
3 52 51 49
3 51 53 49
3 55 48 56
3 55 57 48
3 57 47 48
3 58 60 59
3 58 59 61
3 62 64 63
3 63 64 59
3 64 65 59
3 59 65 61
3 66 61 67
3 61 65 67
3 66 69 68
3 67 69 66
3 71 70 72
3 72 70 73
3 74 76 75
3 75 76 77
3 78 80 79
3 80 72 79
3 71 72 80
3 72 74 79
3 76 74 72
3 81 84 83
3 81 82 84
3 85 84 82
3 83 84 87
3 86 83 87
3 88 84 85
3 88 85 89
3 84 91 87
3 84 88 91
3 88 90 91
3 91 90 92
3 88 89 93
3 93 89 94
3 95 96 97
3 95 88 93
3 97 88 95
3 90 88 97
3 98 93 99
3 99 93 100
3 101 95 102
3 102 95 103
3 104 95 101
3 96 95 104
3 103 95 105
3 105 95 93
3 98 107 93
3 107 105 93
3 106 109 98
3 108 109 106
3 110 102 103
3 113 111 114
3 116 115 117
3 116 117 114
3 114 117 113
3 119 115 116
3 118 115 119
3 120 112 111
3 113 120 111
3 121 123 124
3 121 124 122
3 124 125 122
3 122 125 126
3 122 126 127
3 122 127 128
3 127 129 128
3 128 129 130
3 132 131 133
3 133 131 134
3 131 135 136
3 131 136 134
3 134 136 137
3 139 138 140
3 140 138 141
3 143 142 139
3 142 143 144
3 143 139 140
3 143 145 144
3 145 149 144
3 146 149 145
3 143 140 147
3 148 149 146
3 145 143 146
3 148 146 147
3 147 146 143
3 150 151 152
3 152 151 153
3 152 153 154
3 150 155 151
3 151 155 156
3 154 157 152
3 152 157 158
3 159 156 155
3 159 155 160
3 161 162 163
3 163 162 164
3 166 165 167
3 167 165 168
3 170 169 171
3 170 171 172
3 172 171 173
3 174 169 166
3 167 174 166
3 175 171 174
3 171 169 174
3 177 171 175
3 177 176 171
3 176 173 171
3 174 179 178
3 174 167 179
3 179 167 180
3 182 181 183
3 183 181 184
3 186 185 182
3 182 185 181
3 185 188 187
3 186 188 185
3 187 189 190
3 187 188 189
3 183 186 182
3 191 188 186
3 191 192 188
3 193 186 183
3 191 186 194
3 186 193 194
3 191 194 192
3 194 193 195
3 194 195 196
3 197 198 199
3 199 198 200
3 202 201 203
3 203 201 204
3 206 205 202
3 205 206 207
3 206 208 207
3 203 206 202
3 208 206 210
3 208 210 209
3 211 206 203
3 206 212 210
3 211 212 206
3 212 213 210
3 211 203 214
3 214 203 204
3 216 213 212
3 215 213 216
3 217 212 211
3 211 214 217
3 217 214 218
3 220 219 221
3 221 219 222
3 221 222 223
3 223 222 224
3 226 220 225
3 221 225 220
3 227 221 223
3 227 223 228
3 230 231 229
3 232 233 231
3 234 236 235
3 237 236 234
3 238 239 240
3 239 241 240
3 243 244 242
3 245 244 243
3 246 248 247
3 249 248 246
3 251 252 250
3 250 252 253
3 255 256 254
3 246 258 249
3 258 257 249
3 258 259 260
3 246 259 258
3 260 261 262
3 259 261 260
3 262 263 264
3 261 263 262
3 267 265 266
3 265 270 268
3 265 268 266
3 266 268 269
3 272 271 273
3 273 271 274
3 276 275 277
3 278 276 277
3 280 279 278
3 280 278 281
3 281 278 277
3 283 282 284
3 284 282 285
3 287 286 288
3 290 287 288
3 290 288 289
3 291 290 289
3 292 291 293
3 293 291 289
3 295 294 296
3 296 294 297
3 299 298 300
3 300 298 301
3 303 302 304
3 304 302 305
3 304 305 312
3 312 305 306
3 312 306 307
3 312 307 308
3 309 304 310
3 303 304 309
3 311 304 312
3 304 311 310
3 319 313 314
3 314 315 316
3 314 316 317
3 317 316 318
3 319 314 320
3 317 321 320
3 317 320 314
3 321 317 322
3 324 323 325
3 324 325 326
3 326 327 324
3 328 327 326
3 327 329 324
3 332 323 324
3 329 330 331
3 329 331 324
3 324 331 332
3 333 332 331
3 335 334 336
3 336 334 337
3 339 338 340
3 340 338 341
3 343 342 344
3 344 342 345
3 344 345 346
3 348 343 349
3 349 343 344
3 350 344 346
3 349 344 350
3 350 346 347
3 352 353 351
3 351 349 352
3 348 349 351
3 352 350 355
3 352 349 350
3 355 350 347
3 354 353 352
3 354 352 355
3 356 355 347
3 357 358 359
3 359 358 360
3 361 362 363
3 363 362 364
3 368 364 365
3 368 365 366
3 368 366 367
3 369 366 365
3 362 370 364
3 364 370 371
3 364 371 365
3 365 371 372
3 369 372 373
3 365 372 369
3 374 377 378
3 374 376 377
3 379 380 375
3 374 375 381
3 381 375 380
3 376 374 381
3 380 382 383
3 380 383 381
3 384 386 385
3 387 386 384
3 387 384 388
3 387 388 389
3 388 393 389
3 389 393 390
3 390 393 391
3 391 393 392
3 392 393 394
3 396 397 395
3 395 397 398
3 397 399 398
3 400 399 401
3 402 403 404
3 404 403 405
3 404 405 406
3 406 405 407
3 408 406 409
3 406 407 409
3 403 395 405
3 405 395 398
3 405 398 407
3 407 398 410
3 411 410 398
3 411 398 399
3 411 399 400
3 411 400 412
3 414 417 416
3 414 416 413
3 413 416 415
3 418 416 417
3 419 420 421
3 421 420 424
3 424 420 426
3 424 426 425
3 422 419 421
3 427 422 421
3 423 422 427
3 429 427 424
3 427 421 424
3 428 424 425
3 429 424 428
3 433 432 434
3 434 432 435
3 430 436 431
3 434 436 430
3 434 435 436
3 438 437 433
3 434 438 433
3 437 438 439
3 439 438 440
3 439 440 441
3 441 440 442
3 434 430 443
3 434 443 438
3 438 443 445
3 438 445 440
3 440 445 442
3 443 444 445
3 447 446 448
3 451 446 449
3 449 446 447
3 450 451 449
3 452 451 450
3 452 450 454
3 453 452 454
3 456 455 457
3 457 455 458
3 457 458 460
3 459 457 460
3 461 457 459
3 462 457 461
3 462 461 463
3 461 464 463
3 465 456 457
3 465 457 462
3 462 463 466
3 470 472 471
3 478 467 468
3 473 468 469
3 473 469 474
3 469 470 474
3 474 470 475
3 470 471 475
3 476 478 468
3 476 468 473
3 474 475 477
3 479 478 476
3 473 480 479
3 473 479 476
3 480 473 481
3 473 474 481
3 481 474 482
3 474 477 482
3 484 483 485
3 486 484 485
3 486 487 484
3 484 487 488
3 487 489 488
3 490 484 491
3 491 484 492
3 484 488 492
3 492 488 493
3 488 494 493
3 490 483 484
3 491 492 495
3 490 497 496
3 490 496 483
3 497 490 498
3 498 490 491
3 498 491 495
3 495 492 499
3 500 504 501
3 501 504 502
3 503 504 500
3 506 505 507
3 507 505 508
3 507 508 509
3 509 508 510
3 511 513 512
3 512 513 514
3 513 510 514
3 509 510 513
3 515 517 518
3 517 516 518
3 522 523 519
3 519 523 520
3 522 519 524
3 524 519 521
3 525 527 526
3 530 529 531
3 528 529 530
3 532 530 533
3 533 530 531
3 538 535 534
3 534 535 536
3 535 531 536
3 533 531 535
3 537 532 533
3 538 539 535
3 543 544 541
3 543 541 542
3 542 541 540
3 542 545 546
3 543 542 546
3 545 549 546
3 545 548 549
3 548 547 549
3 550 551 542
3 542 551 545
3 553 552 554
3 553 554 555
3 555 554 556
3 552 558 557
3 553 558 552
3 559 561 560
3 560 561 562
3 561 556 562
3 555 556 561
3 563 553 555
3 563 555 564
3 564 555 565
3 567 553 563
3 567 566 553
3 566 558 553
3 561 568 555
3 568 565 555
3 561 569 568
3 570 564 565
3 571 566 567
3 572 565 568
3 574 575 573
3 570 575 574
3 577 580 576
3 577 578 580
3 578 579 580
3 577 576 581
3 575 570 582
3 582 570 565
3 580 583 576
3 582 565 572
3 585 584 586
3 586 584 587
3 588 590 589
3 589 590 591
3 594 593 592
3 588 593 594
3 596 588 594
3 596 595 588
3 595 590 588
3 597 599 600
3 600 599 601
3 602 598 597
3 603 602 600
3 602 597 600
3 604 602 605
3 605 602 603
3 606 604 607
3 604 605 607
3 608 605 603
3 607 605 608
3 609 611 610
3 610 611 612
3 611 613 612
3 614 613 611
3 616 615 617
3 617 615 618
3 617 618 619
3 619 618 620
3 621 616 622
3 622 616 617
3 623 625 624
3 624 625 626
3 625 627 626
3 628 627 625
3 630 625 629
3 625 623 629
3 630 628 625
3 631 630 629
3 632 630 631
3 633 630 632
3 635 634 636
3 639 634 637
3 637 634 635
3 638 639 637
3 640 638 641
3 640 642 638
3 642 639 638
3 643 645 644
3 647 648 646
3 650 649 651
3 651 649 652
3 650 651 653
3 654 650 655
3 655 650 653
3 657 656 658
3 658 656 659
3 657 658 660
3 662 661 663
3 662 663 664
3 662 664 665
3 665 664 660
3 665 660 658
3 667 666 668
3 668 666 669
3 668 669 670
3 670 669 671
3 673 672 674
3 675 673 674
3 677 675 674
3 679 678 676
3 673 679 676
3 680 679 681
3 678 679 680
3 682 679 673
3 675 682 673
3 679 682 681
3 683 682 675
3 677 683 675
3 684 683 677
3 686 685 687
3 687 685 688
3 689 686 687
3 691 690 692
3 692 690 689
3 692 689 687
3 692 693 691
3 695 693 692
3 687 695 692
3 694 695 696
3 693 695 694
3 698 697 699
3 699 697 700
3 702 701 703
3 703 701 704
3 703 704 705
3 705 704 706
3 705 706 707
3 707 706 708
3 712 711 709
3 710 712 709
3 709 708 710
3 707 708 709
3 715 714 713
3 713 714 716
3 719 718 717
3 718 719 721
3 718 721 720
3 721 722 720
3 720 722 723
3 722 724 723
3 718 730 717
3 730 718 725
3 725 718 720
3 720 723 726
3 727 725 720
3 727 720 728
3 728 720 729
3 720 726 729
3 728 729 731
3 735 737 736
3 738 732 733
3 734 735 739
3 739 735 740
3 735 736 740
3 741 738 733
3 741 733 734
3 742 741 734
3 742 734 739
3 739 740 743
3 744 741 742
3 744 742 739
3 739 743 745
3 747 748 749
3 748 750 749
3 749 750 751
3 750 752 751
3 759 746 753
3 753 746 747
3 747 754 753
3 749 754 747
3 749 751 755
3 754 756 753
3 756 758 757
3 754 758 756
3 760 753 756
3 760 756 761
3 756 757 761
3 764 763 765
3 764 767 766
3 764 765 767
3 766 768 770
3 766 767 768
3 767 769 768
3 777 762 763
3 771 763 764
3 772 771 764
3 770 768 772
3 768 773 772
3 774 777 763
3 774 763 771
3 771 772 775
3 775 772 776
3 772 773 776
3 778 774 771
3 778 771 779
3 771 775 779
3 781 780 782
3 782 780 783
3 785 784 786
3 786 784 787
3 789 788 790
3 790 788 791
3 792 795 793
3 794 795 792
3 797 796 798
3 799 797 798
3 800 797 799
3 800 799 798
3 802 801 803
3 803 801 804
3 805 807 806
3 811 806 807
3 808 806 811
3 811 809 808
3 810 809 811
3 813 812 814
3 814 812 815
3 817 816 818
3 818 816 819
3 821 820 822
3 823 821 822
3 823 822 824
3 822 828 824
3 825 828 826
3 825 827 828
3 827 824 828
3 830 829 831
3 831 829 832
3 834 833 835
3 835 833 836
3 837 836 838
3 835 836 837
3 840 839 841
3 841 839 842
3 844 843 845
3 845 843 846
3 847 848 845
3 848 844 845
3 849 847 850
3 849 848 847
3 854 853 851
3 852 854 851
3 851 855 852
3 855 856 852
3 855 850 856
3 849 850 855
3 860 858 859
3 859 858 857
3 859 863 860
3 859 862 863
3 862 861 863
3 865 864 872
3 872 864 866
3 872 866 867
3 872 867 868
3 869 857 865
3 869 865 870
3 870 865 872
3 871 857 869
3 859 857 871
3 871 862 859
3 874 873 875
3 876 874 875
3 877 876 875
3 878 877 879
3 879 877 875
3 882 880 881
3 882 881 883
3 884 880 882
3 886 885 883
3 885 882 883
3 886 883 887
3 883 881 887
3 891 892 889
3 891 889 890
3 890 889 888
3 891 893 892
3 895 894 896
