ply
format ascii 1.0
element vertex 864
property float x
property float y
property float z
element face 702
property list uchar int vertex_indices
end_header
-2.0983 1.2917 3.3217
-2.0983 1.2917 3.3217
-2.1979 1.3917 3.3130
-2.1979 1.3917 3.3130
-2.1969 1.2917 3.3015
-2.0967 1.3917 3.3033
-2.0963 1.4917 3.2981
-2.1961 1.4917 3.2916
-2.0958 1.5917 3.2923
-2.1956 1.5917 3.2856
-1.9948 1.2917 3.2856
-1.9925 1.3917 3.2594
-1.9953 1.4917 3.2911
-2.1979 1.3917 3.3130
-2.2934 1.2917 3.2560
-2.1969 1.2917 3.3015
-2.2956 1.3917 3.2817
-0.1607 1.0917 3.4899
-0.2054 1.1917 3.4860
-0.1100 1.0917 3.5434
-0.1105 1.1917 3.5487
-0.1605 1.2917 3.4899
-0.1122 1.2917 3.5678
0.3506 0.3917 0.5493
0.4496 0.3917 0.5660
0.4506 0.4917 0.5544
0.3500 0.4917 0.5566
0.5522 0.1259 0.5405
0.5215 0.1917 0.5378
0.5545 0.1917 0.5133
0.5550 0.2917 0.5074
0.4474 0.1917 0.5910
0.4464 0.2917 0.6029
0.4496 0.3917 0.5660
0.4832 0.4917 0.5345
0.4506 0.4917 0.5544
0.5584 0.4917 0.4690
0.6547 0.2917 0.5155
0.6546 0.3917 0.5168
0.6550 0.4917 0.5116
0.6841 0.3917 0.5519
0.6893 0.4917 0.5524
0.4832 0.4917 0.5345
0.4506 0.4917 0.5544
0.4517 0.5917 0.5418
0.5584 0.4917 0.4690
0.5540 0.5917 0.5188
0.4525 0.6917 0.5318
0.5541 0.6917 0.5186
0.6518 0.5294 0.5491
0.5738 0.5917 0.5423
0.6550 0.4917 0.5116
0.3010 0.8015 1.1209
0.2186 0.8917 1.1138
0.3097 0.7999 1.0213
0.2100 0.8008 1.0126
0.2029 0.8917 1.0951
0.3183 0.8068 0.9217
0.2187 0.7987 0.9130
0.3270 0.8046 0.8220
0.2273 0.8021 0.8134
0.3356 0.8021 0.7224
0.2360 0.8039 0.7138
0.0194 0.8917 0.8957
0.1191 0.8917 0.9044
0.1139 0.9917 0.9641
0.0139 0.9917 0.9590
0.1018 1.0268 1.1036
0.0021 1.0268 1.0950
0.1104 1.0059 1.0040
0.0108 1.0046 0.9953
0.2014 0.9101 1.1123
0.1384 0.9917 1.1068
0.1391 0.8917 1.0065
0.2029 0.8917 1.0951
0.2186 0.8917 1.1138
0.1450 0.4917 0.6055
0.0454 0.4917 0.5968
0.1340 0.4917 0.5042
0.1408 0.5917 0.5048
0.0483 0.5917 0.5630
0.1537 0.6357 0.5059
0.1521 0.6917 0.5237
0.0526 0.6917 0.5141
0.1537 0.7917 0.5059
0.0540 0.7917 0.4972
0.1867 0.4917 0.5087
0.2533 0.5576 0.5145
0.1740 0.5917 0.5076
0.2484 0.4917 0.5712
0.2619 0.5324 0.4149
0.1942 0.5917 0.4090
0.1558 0.4917 0.4812
0.2578 0.4917 0.4622
0.1552 0.5917 0.4882
0.2879 0.4917 0.3168
0.1940 0.5917 0.3086
0.2475 0.5917 0.5810
0.1623 0.6449 0.4062
0.1710 0.6662 0.3066
0.2446 0.7917 0.6141
0.1450 0.8100 0.6055
0.3295 0.4917 0.5211
0.2963 0.4917 0.4179
0.3495 0.5917 0.5626
0.3529 0.7917 0.5232
0.3356 0.8021 0.7224
0.2360 0.8039 0.7138
0.3443 0.8141 0.6228
0.3500 0.4917 0.5566
0.4506 0.4917 0.5544
0.4517 0.5917 0.5418
0.4525 0.6917 0.5318
0.4574 0.7917 0.4753
1.4020 2.8917 3.4702
1.5035 2.8917 3.4752
1.5036 3.0924 3.4719
1.4022 3.0919 3.4670
1.5055 3.1917 3.4338
1.4059 3.1500 3.4251
1.5037 3.1923 3.4703
1.4278 3.1917 3.3266
1.4145 3.1756 3.3255
1.6034 2.9923 3.4784
1.6101 1.2917 2.8406
1.6339 1.2917 2.4411
1.6063 1.4918 2.8403
1.6123 1.4921 2.7398
1.6105 1.5923 2.7394
1.6164 1.5923 2.6396
1.6224 1.5922 2.5398
1.6283 1.5918 2.4407
1.6205 1.6917 2.5402
1.5920 1.6917 2.4375
1.6339 1.2917 2.4411
1.6458 1.2917 2.2415
1.6440 1.3918 2.2412
1.6421 1.4917 2.2411
1.6283 1.5918 2.4407
1.6343 1.5919 2.3406
1.6402 1.5915 2.2413
1.3997 1.2917 3.4960
1.4995 1.2917 3.5008
1.5003 1.6917 3.4944
1.4003 1.6917 3.4895
1.5743 1.2912 3.4406
1.5863 1.2917 3.2400
1.5706 1.4911 3.4403
1.5668 1.6917 3.4396
1.5788 1.6917 3.2394
1.5863 1.2917 3.2400
1.5903 1.3915 3.1404
1.5963 1.3918 3.0401
1.6023 1.3920 2.9399
1.6101 1.2917 2.8406
1.5825 1.4915 3.2397
1.5884 1.4909 3.1410
1.6004 1.4916 2.9403
1.6063 1.4918 2.8403
1.5807 1.5915 3.2395
1.5788 1.6917 3.2394
1.6311 1.6917 3.1435
1.5841 2.4917 3.2398
1.5802 2.5917 3.2395
1.5972 2.4917 3.1406
1.5505 2.5917 3.1365
1.4014 2.4917 3.4767
1.5018 2.4917 3.4815
1.5035 2.8917 3.4752
1.4020 2.8917 3.4702
1.5542 2.4917 3.4380
1.5837 2.4917 3.3402
1.5962 2.5917 3.3413
1.5841 2.4917 3.2398
1.5802 2.5917 3.2395
1.6122 2.6917 3.3613
1.6138 2.6503 3.3428
1.5482 2.6917 3.2367
1.6150 2.6917 3.3290
1.6138 2.7120 3.3428
1.5706 2.7917 3.3390
1.5677 2.8917 3.3388
1.4008 2.0917 3.4831
1.5012 2.1918 3.4864
1.5018 2.4917 3.4815
1.4014 2.4917 3.4767
1.6121 2.0917 3.4934
1.5542 2.1917 3.4380
1.6138 2.0917 3.3428
1.5774 2.1917 3.2392
1.5774 2.0917 3.2392
1.5652 2.0917 3.3398
1.6138 2.2917 3.3428
1.5727 2.2917 3.2388
1.5542 2.4917 3.4380
1.5779 2.3917 3.2393
1.5837 2.4917 3.3402
1.5841 2.4917 3.2398
1.5750 1.8914 3.2390
1.5732 1.9914 3.2389
1.5810 1.8916 3.1394
1.5791 1.9917 3.1390
1.4003 1.6917 3.4895
1.5003 1.6917 3.4944
1.5006 1.8918 3.4912
1.4008 2.0917 3.4831
1.5668 1.6917 3.4396
1.5788 1.6917 3.2394
1.5568 1.7917 3.2375
1.5631 1.8918 3.4387
1.5750 1.8914 3.2390
1.6026 1.9926 3.4945
1.5671 1.9909 3.3400
1.5732 1.9914 3.2389
1.5774 2.0917 3.2392
1.5652 2.0917 3.3398
1.6138 1.9917 3.3428
1.6121 2.0917 3.4934
1.6138 2.0917 3.3428
-2.3990 0.9917 3.3169
-2.2987 0.9917 3.3176
-2.2976 1.0917 3.3044
-2.3972 1.0917 3.2957
-2.2993 1.1917 3.3239
-2.3987 1.1917 3.3136
-2.1979 0.9917 3.3130
-2.2976 0.9622 3.3044
-2.1979 1.1917 3.3130
-2.2976 1.2165 3.3044
-2.0983 0.9917 3.3217
-2.1979 0.9917 3.3130
-2.0983 1.0917 3.3217
-2.1979 1.1917 3.3130
-2.0983 1.2917 3.3217
-2.1979 0.9917 3.3130
-2.2976 0.9622 3.3044
-2.2944 0.8917 3.2683
-2.1925 0.8917 3.2499
-2.1979 0.9917 3.3130
-2.2976 1.0917 3.3044
-2.1969 1.0917 3.3006
-2.1979 1.1917 3.3130
-2.1979 1.1917 3.3130
-2.2976 1.2165 3.3044
-2.1969 1.2917 3.3015
-2.2934 1.2917 3.2560
-2.0983 0.9917 3.3217
-2.1979 0.9917 3.3130
-2.1925 0.8917 3.2499
-2.0921 0.8917 3.2499
-2.0983 1.0917 3.3217
-2.1979 0.9917 3.3130
-2.1969 1.0917 3.3006
-2.1979 1.1917 3.3130
-2.0983 1.2917 3.3217
-2.1979 1.1917 3.3130
-2.1969 1.2917 3.3015
-1.9941 0.8917 3.2772
-1.9963 0.9917 3.3028
-2.0983 1.0917 3.3217
-1.9973 1.0917 3.3143
-2.0983 1.1917 3.3217
-1.9971 1.1917 3.3122
-2.0983 1.2917 3.3217
-1.9948 1.2917 3.2856
-0.1145 1.3492 3.5943
-0.1317 1.3917 3.5928
-0.1165 1.3917 3.6181
-0.1605 1.2917 3.4899
-0.1692 1.3917 3.4891
-0.1122 1.2917 3.5678
-1.7971 2.4917 3.3210
-1.3973 2.4917 3.3404
-1.3968 2.8917 3.3340
-1.7966 2.8917 3.3145
-1.7975 2.1924 3.3258
-1.6965 2.1922 3.3307
-1.7971 2.4917 3.3210
-1.5961 2.1924 3.3356
-1.4967 2.1921 3.3404
-1.3977 2.1922 3.3453
-1.3973 2.4917 3.3404
-1.3973 2.4917 3.3404
-0.9975 2.4917 3.3599
-0.9969 2.8917 3.3535
-1.3968 2.8917 3.3340
-1.3977 2.1922 3.3453
-1.2968 2.1921 3.3502
-1.3976 2.2922 3.3436
-1.3973 2.4917 3.3404
-1.1976 2.1918 3.3550
-1.0967 2.1922 3.3599
-0.9979 2.1919 3.3647
-0.9975 2.4917 3.3599
-0.9975 2.4917 3.3599
-0.5977 2.4917 3.3794
-0.5971 2.8917 3.3729
-0.9969 2.8917 3.3535
-0.9981 2.0917 3.3663
-0.5982 2.0917 3.3858
-0.5977 2.4917 3.3794
-0.9975 2.4917 3.3599
-0.7980 1.6917 3.3825
-0.6970 1.7924 3.3858
-0.7980 1.7920 3.3809
-0.7979 1.8920 3.3793
-0.7976 1.9920 3.3777
-0.7979 2.0917 3.3761
-0.5988 1.6917 3.3922
-0.5888 1.7917 3.2766
-0.5985 1.8923 3.3890
-0.5982 2.0917 3.3858
-0.7991 1.2917 3.3890
-0.7988 1.3919 3.3873
-0.7990 1.4917 3.3857
-0.7985 1.5919 3.3841
-0.6971 1.6917 3.3875
-0.7980 1.6917 3.3825
-0.5994 1.2917 3.3987
-0.5989 1.5918 3.3938
-0.5953 1.6277 3.3518
-0.5988 1.6917 3.3922
-0.5994 1.2917 3.3987
-0.4985 1.5919 3.3987
-0.5989 1.5918 3.3938
-0.5953 1.6277 3.3518
-0.4886 1.6917 3.2790
-0.5988 1.6917 3.3922
-0.1990 1.6917 3.4117
-0.3960 1.6917 3.3691
-0.3976 1.6917 3.4020
-0.1995 1.2917 3.4181
-0.5982 2.0917 3.3858
-0.1984 2.0917 3.4053
-0.1979 2.4917 3.3988
-0.5977 2.4917 3.3794
-0.5977 2.4917 3.3794
-0.1979 2.4917 3.3988
-0.1973 2.8917 3.3924
-0.5971 2.8917 3.3729
-0.5988 1.6917 3.3922
-0.4886 1.6917 3.2790
-0.4899 1.7917 3.2935
-0.5888 1.7917 3.2766
-0.5985 1.8923 3.3890
-0.5982 2.0917 3.3858
-0.3960 1.6917 3.3691
-0.3976 1.6917 3.4020
-0.1990 1.6917 3.4117
-0.1987 1.8921 3.4085
-0.1984 2.0917 3.4053
1.5833 0.3917 2.5371
1.6239 0.4917 2.5406
1.6630 0.3917 2.4437
1.6528 0.4917 2.4428
1.6262 0.2917 2.4405
1.6630 0.3917 2.4437
1.6518 0.2917 2.3423
1.6782 0.2917 2.2442
1.6806 0.3917 2.2444
1.7176 0.3338 2.1473
1.6179 0.3217 2.1386
1.6152 0.2917 2.1699
1.7115 0.3917 2.2170
1.6528 0.4917 2.4428
1.6666 0.4917 2.3436
1.6772 0.4917 2.2442
1.7176 0.4917 2.1473
1.5328 0.8917 2.7335
1.5660 0.9167 2.7364
1.5747 0.8917 2.6368
1.5487 0.8917 2.5341
1.5920 0.9144 2.4375
1.4924 0.9054 2.4289
1.4891 0.8917 2.4663
1.6157 0.9919 2.8411
1.5574 0.9155 2.8360
1.6395 0.9918 2.4416
1.6101 1.2917 2.8406
1.6339 1.2917 2.4411
1.5920 0.9144 2.4375
1.4924 0.9054 2.4289
1.5010 0.8917 2.3292
1.5966 0.8917 2.3845
1.6395 0.9918 2.4416
1.6474 0.8917 2.3415
1.6533 0.8917 2.2425
1.6514 0.9915 2.2422
1.6496 1.0915 2.2421
1.6477 1.1916 2.2418
1.6339 1.2917 2.4411
1.6458 1.2917 2.2415
1.5920 0.6672 2.4375
1.4924 0.6503 2.4289
1.6006 0.6917 2.3379
1.5010 0.6917 2.3292
1.5028 0.7917 2.3081
1.6474 0.8917 2.3415
1.5010 0.8917 2.3292
1.5966 0.8917 2.3845
1.6528 0.4917 2.4428
1.6516 0.5917 2.4427
1.6666 0.4917 2.3436
1.6772 0.4917 2.2442
1.6789 0.5917 2.2443
1.7176 0.4917 2.1473
1.6912 0.5917 2.1450
1.6702 0.6917 2.2435
1.7089 0.7917 2.2469
1.6533 0.8917 2.2425
1.6239 0.4917 2.5406
1.5833 0.5494 2.5371
1.6528 0.4917 2.4428
1.6516 0.5917 2.4427
1.5857 0.5917 2.5103
1.5920 0.6672 2.4375
1.4658 0.9917 3.4303
1.5840 1.0912 3.3410
1.3993 0.9919 3.5008
1.5760 1.0931 3.4754
1.4670 0.9917 3.3300
1.4232 0.9917 3.2259
1.5912 1.0314 3.2404
1.4995 1.2917 3.5008
1.3997 1.2917 3.4960
1.5863 1.2917 3.2400
1.5743 1.2917 3.4406
1.4232 0.9917 3.2259
1.4405 0.8917 3.0266
1.5351 0.8917 3.0932
1.5351 0.9917 3.0927
1.4347 0.9917 3.0934
1.5912 1.0314 3.2404
1.4318 1.0086 3.1262
1.5869 0.8917 3.0393
1.6038 0.9921 3.0403
1.5487 0.8917 2.9356
1.6157 0.9919 2.8411
1.5574 0.9155 2.8360
1.5863 1.2917 3.2400
1.6101 1.2917 2.8406
-1.7966 2.8917 3.3145
-1.6953 3.0922 3.3162
-1.7963 3.0918 3.3113
-1.5958 3.0920 3.3211
-1.4954 3.0922 3.3259
-1.3968 2.8917 3.3340
-1.3965 3.0921 3.3308
-1.3923 3.1361 3.2826
-1.4919 3.1353 3.2739
-1.3968 2.8917 3.3340
-0.9969 2.8917 3.3535
-1.2948 3.0925 3.3357
-1.3965 3.0921 3.3308
-1.2927 3.0917 3.2912
-1.3923 3.1361 3.2826
-1.1930 3.1295 3.2999
-0.9938 3.1334 3.3172
-1.0848 3.1661 3.2089
-1.1844 3.1672 3.2002
-0.9967 3.0918 3.3502
-0.9851 3.1409 3.2175
-0.9969 2.8917 3.3535
-0.9967 3.0918 3.3502
-0.9938 3.1334 3.3172
-0.9851 3.1409 3.2175
-0.8769 3.1429 3.1266
-0.9765 3.1509 3.1179
-0.6949 3.1233 3.3431
-0.6863 3.1498 3.2435
-0.7772 3.1459 3.1352
-0.6968 3.0918 3.3648
-0.6776 3.1506 3.1439
-0.5971 2.8917 3.3729
-0.5967 3.1920 3.3681
-0.5953 3.1917 3.3518
-0.5866 3.1523 3.2521
-0.5780 3.1491 3.1525
-0.5971 2.8917 3.3729
-0.4968 3.0918 3.3746
-0.5967 3.1920 3.3681
-0.5953 3.1917 3.3518
-0.5866 3.1523 3.2521
-0.4784 3.1570 3.1612
-0.5780 3.1491 3.1525
-0.3466 3.1103 3.3816
-0.2878 3.1631 3.2781
-0.2705 3.1277 3.0788
-0.3701 3.0917 3.0702
-0.4697 3.1438 3.0615
-0.1795 3.1499 3.1871
-0.1973 2.8917 3.3924
-0.1971 3.0680 3.3895
-0.1969 3.1683 3.3879
-0.1708 3.1319 3.0875
-0.0065 1.0380 1.1946
-0.1061 1.0409 1.1859
0.0021 1.0268 1.0950
-0.0975 1.0294 1.0863
-0.4441 0.4917 0.4540
-0.3480 0.4917 0.5028
-0.3503 0.5917 0.5300
-0.4457 0.5917 0.4725
-0.3464 0.6917 0.4852
-0.4457 0.6917 0.4721
-0.3618 0.7917 0.6619
-0.4614 0.7917 0.6532
-0.3531 0.7917 0.5622
-0.4527 0.7917 0.5536
-0.3791 0.9917 0.8611
-0.4700 0.8917 0.7529
-0.3744 0.8917 0.8078
-0.4752 0.9917 0.8127
-0.4700 0.7917 0.7529
-0.4614 0.7917 0.6532
-0.4700 0.8917 0.7529
-0.3704 0.7917 0.7615
-0.3618 0.7917 0.6619
-0.3744 0.8917 0.8078
-0.0802 0.8917 0.8871
0.0194 0.8917 0.8957
0.0139 0.9917 0.9590
-0.0856 0.9917 0.9491
0.0021 1.0268 1.0950
-0.0975 1.0294 1.0863
0.0108 1.0046 0.9953
-0.0888 1.0049 0.9867
-0.2708 0.7917 0.7701
-0.3704 0.7917 0.7615
-0.2621 0.7917 0.6705
-0.3618 0.7917 0.6619
-0.2967 0.8041 1.0690
-0.3964 0.8027 1.0604
-0.2881 0.7974 0.9694
-0.3504 0.8917 0.9640
-0.3913 0.8917 1.0018
-0.2794 0.7917 0.8698
-0.3631 0.8917 0.8625
-0.3704 0.7917 0.7615
-0.3744 0.8917 0.8078
-0.2711 0.5917 0.4690
-0.2448 0.6398 0.4713
-0.3503 0.5917 0.5300
-0.2466 0.6917 0.4920
-0.3464 0.6917 0.4852
-0.2621 0.7917 0.6705
-0.3618 0.7917 0.6619
-0.2535 0.7917 0.5709
-0.3531 0.7917 0.5622
-0.2269 0.5917 0.4728
-0.1518 0.5917 0.5552
0.0526 0.6917 0.5141
-0.1452 0.7917 0.4799
-0.1539 0.8156 0.5795
-0.1539 0.4917 0.5795
-0.0515 0.5917 0.5564
0.0540 0.7917 0.4972
0.0454 0.4917 0.5968
0.0483 0.5917 0.5630
0.5022 0.3932 3.4668
0.5988 0.3923 3.4715
0.5990 0.4917 3.4699
0.5017 0.4917 3.4652
1.3841 0.9166 2.5198
1.2845 0.9248 2.5112
1.3927 0.9092 2.4202
1.2931 0.9145 2.4116
1.4269 0.8917 2.6239
1.3754 0.9107 2.6195
1.4511 0.8917 2.5256
1.4924 0.9054 2.4289
1.4891 0.8917 2.4663
1.1045 0.6917 2.2712
1.2035 0.6917 2.2874
1.1041 0.7917 2.2765
1.1025 0.8917 2.2946
1.3032 0.6917 2.2956
1.3018 0.8917 2.3119
1.4033 0.6917 2.2986
1.5028 0.7917 2.3081
1.3997 0.8917 2.3396
1.5010 0.6917 2.3292
1.5010 0.8917 2.3292
1.0939 0.9257 2.3943
0.9942 0.9470 2.3856
1.1025 0.8917 2.2946
1.0029 0.8970 2.2860
1.0039 0.8917 2.2738
0.9075 0.6917 2.2281
1.0052 0.6917 2.2587
0.9052 0.7917 2.2553
1.0039 0.8917 2.2738
0.9045 0.8917 2.2627
1.1045 0.6917 2.2712
1.1041 0.7917 2.2765
1.1025 0.8917 2.2946
1.1935 0.9203 2.4029
1.0939 0.9257 2.3943
1.1025 0.8917 2.2946
1.2931 0.9145 2.4116
1.3018 0.8917 2.3119
1.3927 0.9092 2.4202
1.3997 0.8917 2.3396
1.4924 0.9054 2.4289
1.5010 0.8917 2.3292
0.5995 0.8917 3.4635
0.7005 0.9921 3.4668
0.5997 0.9921 3.4619
0.8001 0.9919 3.4716
0.8993 0.9917 3.4765
0.9995 0.9916 3.4814
0.9993 0.8917 3.4830
-0.1607 1.0917 3.4899
-0.2054 1.1917 3.4860
-0.2024 1.0917 3.4511
-0.1605 1.2917 3.4899
-0.2054 1.1917 3.4860
-0.1995 1.2917 3.4181
0.2999 0.8917 3.4489
0.3996 0.8917 3.4538
0.4003 0.9920 3.4522
0.2979 0.9917 3.4696
0.5006 0.9921 3.4571
0.5995 0.8917 3.4635
0.5997 0.9921 3.4619
0.2997 0.7918 3.4505
0.4001 0.7920 3.4554
0.3996 0.8917 3.4538
0.2999 0.8917 3.4489
0.5006 0.7922 3.4603
0.5017 0.4917 3.4652
0.5990 0.4917 3.4699
0.5008 0.5925 3.4635
0.4999 0.6920 3.4619
0.5995 0.8917 3.4635
1.1070 0.2917 3.3992
1.0082 0.2917 3.3807
1.1099 0.3917 3.3656
1.0111 0.3917 3.3472
1.1086 0.4917 3.3805
1.0088 0.4917 3.3743
0.5990 0.4917 3.4699
0.7999 0.4917 3.4797
0.5995 0.8917 3.4635
0.9009 0.7924 3.4798
0.9040 0.4917 3.4251
1.0092 0.6917 3.3699
0.9739 0.4917 3.3876
0.9691 0.5917 3.3872
1.0088 0.4917 3.3743
1.0091 0.5917 3.3706
1.0097 0.7917 3.3634
1.0074 0.8199 3.3905
0.9993 0.8917 3.4830
0.5988 0.3923 3.4715
0.7000 0.3922 3.4765
0.7999 0.4917 3.4797
0.5990 0.4917 3.4699
0.8000 0.3923 3.4813
0.8052 0.2917 3.4063
0.9077 0.2917 3.3819
0.9042 0.3917 3.4230
0.9739 0.4917 3.3876
1.0082 0.2917 3.3807
1.0111 0.3917 3.3472
1.0088 0.4917 3.3743
0.9991 0.9916 3.4813
0.9993 0.8917 3.4830
1.1017 0.8917 3.4603
0.9999 1.2917 3.4765
1.2011 0.8917 3.4710
1.1993 0.9917 3.4911
1.2991 0.9916 3.4959
1.3993 0.9919 3.5008
1.3997 1.2917 3.4960
1.0088 0.4917 3.3743
1.1086 0.4917 3.3805
1.1089 0.5917 3.3772
1.0091 0.5917 3.3706
1.1087 0.6917 3.3791
1.0092 0.6917 3.3699
1.1070 0.7917 3.3992
1.0097 0.7917 3.3634
1.0074 0.8199 3.3905
1.1017 0.8917 3.4603
0.9993 0.8917 3.4830
1.4169 0.9917 3.1249
1.4318 1.0086 3.1262
1.4232 0.9917 3.2259
1.4347 0.9917 3.0934
-0.1973 2.8917 3.3924
-0.0971 3.0917 3.3940
-0.1971 3.0439 3.3899
-0.0593 3.1403 3.2477
-0.1969 3.1683 3.3879
-0.1795 3.1499 3.1871
-0.0712 3.0917 3.0961
-0.1708 3.1319 3.0875
0.2028 3.0920 3.4086
0.0284 3.0917 3.1048
0.2104 3.1441 3.3213
0.2190 3.1729 3.2217
0.1280 3.1331 3.1134
0.2025 2.8917 3.4118
0.2277 3.0917 3.1221
0.2025 2.8917 3.4118
0.2028 3.0920 3.4086
0.2104 3.1441 3.3213
0.2190 3.1729 3.2217
0.3273 3.1615 3.1307
0.2277 3.0917 3.1221
0.6023 2.8917 3.4313
0.6175 3.1573 3.2563
0.4269 3.1450 3.1394
0.6026 3.0920 3.4281
0.5092 3.1228 3.3473
0.5265 3.1508 3.1480
0.6089 3.1528 3.3559
0.6262 3.1607 3.1567
1.0021 2.8917 3.4508
1.0024 3.0921 3.4475
1.0074 3.1369 3.3905
1.2153 3.1917 3.3082
1.0160 3.1685 3.2909
1.1243 3.1650 3.1999
1.0247 3.1635 3.1913
1.4022 3.0919 3.4670
1.2043 3.1925 3.4557
1.2239 3.1461 3.2086
1.3062 3.1715 3.4165
1.3149 3.1724 3.3168
1.2153 3.1917 3.3082
1.4020 2.8917 3.4702
1.4059 3.1500 3.4251
1.4145 3.1756 3.3255
0.6023 2.8917 3.4313
0.6026 3.0920 3.4281
0.7127 3.1917 3.3162
0.6089 3.1528 3.3559
0.6708 3.1917 3.2609
0.6175 3.1573 3.2563
0.7258 3.1659 3.1653
0.6262 3.1607 3.1567
0.7225 3.1917 3.2035
0.9077 3.1519 3.3819
0.7770 3.1917 3.2701
0.8254 3.1374 3.1740
1.0024 3.0921 3.4475
1.0247 3.1635 3.1913
0.9250 3.1616 3.1826
1.0021 2.8917 3.4508
1.0074 3.1369 3.3905
1.0160 3.1685 3.2909
1.0010 2.0917 3.4636
1.4008 2.0917 3.4831
1.4014 2.4917 3.4767
1.0016 2.4917 3.4572
1.0016 2.4917 3.4572
1.4014 2.4917 3.4767
1.4020 2.8917 3.4702
1.0021 2.8917 3.4508
0.9999 1.2917 3.4765
1.3997 1.2917 3.4960
1.4003 1.6917 3.4895
1.0005 1.6917 3.4701
-0.1605 1.2917 3.4899
-0.1692 1.3917 3.4891
-0.1995 1.2917 3.4181
-0.1994 1.3919 3.4165
-0.1983 2.1920 3.4036
0.2015 2.1918 3.4231
-0.1979 2.4917 3.3988
0.1019 2.2918 3.4166
0.2020 2.4917 3.4183
-0.1979 2.4917 3.3988
0.2020 2.4917 3.4183
0.2025 2.8917 3.4118
-0.1973 2.8917 3.3924
0.2016 2.1918 3.4231
0.3020 2.1920 3.4280
0.2020 2.4917 3.4183
0.4024 2.1922 3.4329
0.5020 2.1920 3.4377
0.6013 2.1921 3.4426
0.6018 2.4917 3.4377
0.2020 2.4917 3.4183
0.6018 2.4917 3.4377
0.6023 2.8917 3.4313
0.2025 2.8917 3.4118
0.6018 2.4917 3.4377
1.0016 2.4917 3.4572
1.0021 2.8917 3.4508
0.6023 2.8917 3.4313
0.6013 2.1921 3.4426
0.7020 2.1920 3.4475
0.6018 2.4917 3.4377
0.8005 2.1914 3.4523
0.9013 2.1918 3.4572
1.0000 2.0917 3.4636
1.0010 2.0913 3.4636
0.9010 2.0917 3.4588
1.0016 2.4917 3.4572
1.0005 1.6917 3.4701
1.4003 1.6917 3.4895
1.4008 2.0917 3.4831
1.0010 2.0917 3.4636
-1.0721 0.8917 3.0632
-0.9734 0.8917 3.0818
-0.9752 0.9917 3.1036
-1.0750 0.9917 3.0962
-0.9765 0.9984 3.1179
-1.0761 0.9979 3.1093
-1.0705 0.7917 3.0442
-0.9720 0.7917 3.0662
-0.9734 0.8917 3.0818
-1.0721 0.8917 3.0632
-0.9720 0.7917 3.0662
-0.8729 0.7917 3.0815
-0.8742 0.8917 3.0959
-0.9734 0.8917 3.0818
-0.7772 0.8917 3.1352
-0.7756 0.7917 3.1167
-0.6776 0.7917 3.1439
-0.6803 0.8917 3.1743
-0.6132 0.7917 3.3502
-0.6111 0.8917 3.3504
-0.5982 0.7917 3.3852
-0.5966 0.8917 3.3666
-0.6265 0.7917 3.2487
-0.6253 0.8917 3.2488
-0.6863 0.9917 3.2435
-0.7772 0.8917 3.1352
-0.6803 0.8917 3.1743
-0.7835 0.9917 3.2071
-0.7945 1.0356 3.3345
-0.5996 1.0920 3.4019
-0.7988 1.0921 3.3922
-0.7859 1.0035 3.2348
-0.7988 1.1920 3.3906
-0.7991 1.2917 3.3890
-0.6111 0.8917 3.3504
-0.5953 0.9917 3.3518
-0.5966 0.8917 3.3666
-0.6253 0.8917 3.2488
-0.5994 1.2917 3.3987
-0.5982 0.7917 3.3852
-0.5007 0.7915 3.4116
-0.5002 0.8917 3.4100
-0.5966 0.8917 3.3666
-0.4011 0.7913 3.4164
-0.3014 0.7912 3.4213
-0.2002 0.7913 3.4262
-0.2001 0.8917 3.4246
-0.5966 0.8917 3.3666
-0.5002 0.8917 3.4100
-0.5953 0.9917 3.3518
-0.5996 1.0920 3.4019
-0.5994 1.2917 3.3987
-0.2982 1.1923 3.4149
-0.2000 0.9918 3.4230
-0.2001 0.8917 3.4246
-0.2024 1.0917 3.4511
-0.2054 1.1917 3.4860
-0.1995 1.2917 3.4181
3 0 4 3
3 1 2 5
3 2 7 5
3 7 6 5
3 6 7 8
3 8 7 9
3 1 5 10
3 5 11 10
3 11 5 12
3 12 5 6
3 13 15 16
3 15 14 16
3 17 18 19
3 19 18 20
3 18 21 22
3 18 22 20
3 24 23 25
3 25 23 26
3 27 28 29
3 30 28 31
3 32 30 31
3 28 30 29
3 33 30 32
3 35 34 33
3 30 34 36
3 33 34 30
3 37 30 38
3 38 30 39
3 39 30 36
3 40 39 41
3 38 39 40
3 44 42 43
3 45 42 46
3 47 42 44
3 46 47 48
3 42 47 46
3 49 46 50
3 49 51 46
3 51 45 46
3 56 53 52
3 56 52 55
3 55 52 54
3 54 57 55
3 55 57 58
3 57 59 58
3 58 59 60
3 59 61 60
3 60 61 62
3 64 63 65
3 65 63 66
3 67 69 68
3 68 69 70
3 71 74 73
3 71 73 72
3 72 73 65
3 64 65 73
3 65 67 72
3 69 67 65
3 75 74 71
3 76 79 78
3 76 77 79
3 80 79 77
3 81 79 80
3 81 80 82
3 82 80 83
3 82 83 84
3 84 83 85
3 86 89 87
3 91 93 90
3 91 94 93
3 94 92 93
3 90 95 96
3 91 90 96
3 88 81 82
3 88 82 97
3 91 81 88
3 98 81 91
3 96 98 91
3 99 98 96
3 100 82 84
3 100 84 101
3 102 87 89
3 103 87 102
3 90 87 103
3 95 90 103
3 100 105 82
3 105 97 82
3 100 107 108
3 107 106 108
3 100 108 105
3 110 109 111
3 111 109 104
3 111 104 112
3 112 104 97
3 105 112 97
3 112 105 113
3 116 114 117
3 119 118 120
3 119 120 117
3 117 120 116
3 122 118 119
3 121 118 122
3 123 115 114
3 116 123 114
3 124 126 127
3 124 127 125
3 127 128 125
3 125 128 129
3 125 129 130
3 125 130 131
3 130 132 131
3 131 132 133
3 135 134 136
3 136 134 137
3 134 138 139
3 134 139 137
3 137 139 140
3 142 141 144
3 142 144 143
3 147 145 142
3 147 146 145
3 147 142 148
3 148 142 143
3 148 149 146
3 147 148 146
3 150 151 152
3 150 152 153
3 150 153 154
3 150 156 151
3 155 156 150
3 153 157 154
3 154 157 158
3 159 160 161
3 162 163 164
3 164 163 165
3 167 166 168
3 168 166 169
3 171 170 172
3 171 172 173
3 173 172 174
3 175 170 167
3 168 175 167
3 176 172 175
3 172 170 175
3 178 172 176
3 178 177 172
3 177 174 172
3 175 180 179
3 175 168 180
3 180 168 181
3 183 182 184
3 184 182 185
3 187 186 183
3 183 186 182
3 186 189 188
3 187 189 186
3 188 190 191
3 188 189 190
3 184 187 183
3 192 189 187
3 192 193 189
3 194 187 184
3 192 187 195
3 187 194 195
3 192 195 193
3 195 194 196
3 195 196 197
3 198 199 200
3 200 199 201
3 203 202 204
3 204 202 205
3 204 206 203
3 209 206 204
3 206 209 207
3 207 209 210
3 207 210 208
3 211 209 204
3 211 204 205
3 209 212 210
3 211 212 209
3 212 213 210
3 215 213 212
3 214 213 215
3 216 212 211
3 205 217 211
3 211 217 216
3 216 217 218
3 220 219 221
3 221 219 222
3 221 222 223
3 223 222 224
3 226 220 225
3 221 225 220
3 227 221 223
3 227 223 228
3 230 231 229
3 232 233 231
3 234 236 235
3 237 236 234
3 238 239 240
3 239 241 240
3 243 244 242
3 245 244 243
3 246 248 247
3 249 248 246
3 251 252 250
3 250 252 253
3 255 256 254
3 246 258 249
3 258 257 249
3 258 259 260
3 246 259 258
3 260 261 262
3 259 261 260
3 262 263 264
3 261 263 262
3 267 265 266
3 265 270 268
3 265 268 266
3 266 268 269
3 272 271 273
3 273 271 274
3 276 275 277
3 278 276 277
3 280 279 278
3 280 278 281
3 281 278 277
3 283 282 284
3 284 282 285
3 287 286 288
3 290 287 288
3 290 288 289
3 291 290 289
3 292 291 293
3 293 291 289
3 295 294 296
3 296 294 297
3 299 298 300
3 300 298 301
3 303 302 304
3 303 304 311
3 311 304 305
3 311 305 306
3 311 306 307
3 308 303 309
3 302 303 308
3 310 303 311
3 303 310 309
3 318 312 313
3 318 313 314
3 314 315 316
3 316 315 317
3 319 318 314
3 316 320 319
3 316 319 314
3 320 316 321
3 323 322 324
3 323 324 325
3 325 326 323
3 327 326 325
3 328 322 323
3 323 329 330
3 323 330 328
3 323 326 329
3 331 322 328
3 333 332 334
3 334 332 335
3 337 336 338
3 338 336 339
3 341 340 342
3 342 340 343
3 342 343 344
3 346 342 347
3 341 342 346
3 347 342 344
3 349 347 345
3 345 347 344
3 348 347 349
3 349 345 350
3 351 352 353
3 353 352 354
3 355 356 357
3 357 356 358
3 362 358 359
3 362 359 360
3 362 360 361
3 363 360 359
3 356 364 358
3 358 364 365
3 358 365 359
3 359 365 366
3 363 366 367
3 359 366 363
3 368 369 370
3 371 373 374
3 371 372 373
3 369 376 375
3 370 369 375
3 371 370 377
3 377 370 375
3 372 371 377
3 375 378 379
3 375 379 377
3 380 382 381
3 383 382 380
3 383 380 384
3 383 384 385
3 385 384 386
3 386 384 387
3 384 390 387
3 387 390 388
3 388 390 389
3 389 390 391
3 393 394 392
3 395 394 393
3 395 396 394
3 398 399 397
3 397 396 398
3 400 401 402
3 403 402 404
3 405 403 406
3 403 404 406
3 392 394 401
3 401 394 402
3 402 394 404
3 404 394 407
3 408 407 394
3 408 394 396
3 408 396 397
3 408 397 409
3 411 414 413
3 411 413 410
3 410 413 412
3 413 414 415
3 417 416 418
3 417 418 419
3 417 420 416
3 420 422 421
3 419 418 423
3 423 418 424
3 417 425 422
3 417 422 420
3 426 419 423
3 419 426 417
3 417 426 425
3 429 428 430
3 430 428 431
3 427 432 433
3 432 430 433
3 430 431 433
3 435 434 429
3 430 435 429
3 434 435 436
3 438 436 437
3 437 436 435
3 435 430 432
3 435 440 437
3 432 439 435
3 435 439 440
3 442 441 443
3 446 441 444
3 444 441 442
3 445 446 444
3 447 446 445
3 447 445 449
3 448 447 449
3 451 450 452
3 452 450 453
3 452 453 455
3 454 452 455
3 456 452 454
3 457 452 456
3 457 456 458
3 456 459 458
3 460 451 452
3 460 452 457
3 457 458 461
3 465 467 466
3 473 462 463
3 468 463 464
3 468 464 469
3 464 465 469
3 469 465 470
3 465 466 470
3 471 473 463
3 471 463 468
3 469 470 472
3 474 473 471
3 468 475 474
3 468 474 471
3 475 468 476
3 468 469 476
3 476 469 477
3 469 472 477
3 479 478 480
3 481 479 480
3 481 482 479
3 479 482 483
3 482 484 483
3 485 479 486
3 486 479 487
3 479 483 487
3 487 483 488
3 483 489 488
3 485 478 479
3 486 487 490
3 485 492 491
3 485 491 478
3 492 485 493
3 493 485 486
3 493 486 490
3 490 487 494
3 495 497 496
3 496 497 498
3 500 499 501
3 501 499 502
3 501 502 503
3 503 502 504
3 505 507 506
3 506 507 508
3 507 504 508
3 503 504 507
3 509 511 512
3 511 510 512
3 516 517 513
3 513 517 514
3 516 513 518
3 518 513 515
3 520 519 521
3 521 519 522
3 523 525 524
3 524 525 526
3 527 529 528
3 528 529 530
3 534 535 532
3 534 532 533
3 533 532 531
3 533 536 534
3 534 536 537
3 536 539 537
3 538 539 536
3 541 540 542
3 541 542 543
3 543 542 544
3 545 547 546
3 546 547 548
3 547 544 548
3 543 544 547
3 549 541 543
3 549 543 550
3 550 543 551
3 547 552 543
3 552 551 543
3 547 553 552
3 550 555 554
3 555 550 551
3 556 551 552
3 554 558 557
3 555 558 554
3 558 555 551
3 560 559 561
3 561 559 562
3 563 565 564
3 564 565 566
3 569 568 567
3 563 568 569
3 571 563 569
3 571 570 563
3 570 565 563
3 572 574 575
3 576 573 572
3 577 572 575
3 576 572 577
3 578 576 579
3 577 580 579
3 579 576 577
3 581 578 579
3 579 580 582
3 585 586 583
3 586 584 583
3 585 587 586
3 588 590 591
3 591 590 592
3 593 589 594
3 594 589 588
3 595 594 591
3 594 588 591
3 596 598 597
3 599 598 596
3 600 598 599
3 601 600 599
3 602 600 601
3 603 602 601
3 604 602 603
3 606 605 607
3 608 605 606
3 609 605 608
3 610 605 609
3 611 605 610
3 612 614 613
3 616 617 615
3 619 618 620
3 620 618 621
3 619 620 622
3 623 619 624
3 624 619 622
3 626 625 627
3 627 625 628
3 626 627 629
3 631 630 632
3 633 631 632
3 633 629 631
3 629 634 631
3 634 629 627
3 635 636 637
3 636 638 637
3 637 638 639
3 639 638 640
3 642 641 643
3 644 642 643
3 645 642 646
3 646 642 644
3 648 647 645
3 649 648 650
3 647 648 649
3 646 648 645
3 648 646 650
3 644 651 646
3 652 651 644
3 652 644 653
3 653 644 643
3 655 654 656
3 656 654 657
3 658 655 656
3 660 659 661
3 661 659 658
3 661 658 662
3 662 658 656
3 661 663 660
3 662 663 661
3 664 662 665
3 663 662 664
3 666 669 667
3 670 668 671
3 671 668 667
3 671 667 669
3 669 672 671
3 673 672 674
3 674 672 669
3 676 675 677
3 677 675 678
3 677 678 679
3 679 678 680
3 681 679 682
3 679 680 682
3 681 683 685
3 681 685 684
3 681 682 683
3 688 687 686
3 686 687 689
3 692 691 690
3 691 692 694
3 691 694 693
3 694 695 693
3 693 695 696
3 695 697 696
3 691 703 690
3 703 691 698
3 698 691 693
3 693 696 699
3 700 698 693
3 700 693 701
3 701 693 702
3 693 699 702
3 701 702 704
3 708 710 709
3 711 705 706
3 707 708 712
3 712 708 713
3 708 709 713
3 714 711 706
3 714 706 707
3 715 714 707
3 715 707 712
3 712 713 716
3 717 714 715
3 717 715 712
3 712 716 718
3 720 721 722
3 721 723 722
3 722 723 724
3 723 725 724
3 732 719 726
3 726 719 720
3 720 727 726
3 722 727 720
3 722 724 728
3 727 729 726
3 729 731 730
3 727 731 729
3 733 726 729
3 733 729 734
3 729 730 734
3 737 736 738
3 737 740 739
3 737 738 740
3 739 741 743
3 739 740 741
3 740 742 741
3 750 735 736
3 744 736 737
3 745 744 737
3 743 741 745
3 741 746 745
3 747 750 736
3 747 736 744
3 744 745 748
3 748 745 749
3 745 746 749
3 751 747 744
3 751 744 752
3 744 748 752
3 754 753 755
3 755 753 756
3 758 757 759
3 759 757 760
3 762 761 763
3 763 761 764
3 765 768 766
3 767 768 765
3 770 769 771
3 772 770 771
3 773 770 772
3 773 772 771
3 775 774 776
3 776 774 777
3 778 780 779
3 784 779 780
3 781 779 784
3 784 782 781
3 783 782 784
3 786 785 787
3 787 785 788
3 790 789 791
3 791 789 792
3 794 793 795
3 796 794 795
3 796 795 797
3 795 801 797
3 798 801 799
3 798 800 801
3 800 797 801
3 803 802 804
3 804 802 805
3 807 806 808
3 808 806 809
3 810 809 811
3 808 809 810
3 813 812 814
3 814 812 815
3 817 816 818
3 818 816 819
3 820 821 818
3 821 817 818
3 822 820 823
3 822 821 820
3 827 826 824
3 825 827 824
3 824 828 825
3 828 829 825
3 828 823 829
3 822 823 828
3 830 832 833
3 832 831 833
3 836 835 834
3 830 837 834
3 830 833 837
3 835 836 844
3 844 836 838
3 844 838 839
3 841 842 840
3 830 841 843
3 841 840 843
3 843 832 830
3 841 834 835
3 841 830 834
3 846 845 847
3 847 845 848
3 849 846 847
3 850 849 847
3 851 850 852
3 852 850 847
3 854 853 855
3 854 855 856
3 858 854 856
3 858 856 857
3 859 854 858
3 860 854 859
3 861 859 858
3 862 861 858
3 862 858 863
3 858 857 863
