ply
format ascii 1.0
element vertex 896
property float x
property float y
property float z
element face 744
property list uchar int vertex_indices
end_header
-0.1145 1.3492 3.5943
-0.1317 1.3917 3.5928
-0.1165 1.3917 3.6181
-0.1779 1.2917 3.4884
-0.1692 1.3917 3.4891
-0.1122 1.2917 3.5678
1.5833 0.3917 2.5371
1.6149 0.4917 2.5399
1.6630 0.3917 2.4437
1.6528 0.4917 2.4428
1.6348 0.2917 2.4412
1.6630 0.3917 2.4437
1.6459 0.2917 2.3418
1.6767 0.2917 2.2441
1.6848 0.3917 2.2448
1.7176 0.3338 2.1473
1.6179 0.3191 2.1386
1.6153 0.2917 2.1690
1.7112 0.3917 2.2208
1.6528 0.4917 2.4428
1.6662 0.4917 2.3436
1.6781 0.4917 2.2442
1.7176 0.4917 2.1473
1.5514 0.8917 2.7351
1.5660 0.9135 2.7364
1.5747 0.8917 2.6368
1.5422 0.8917 2.5336
1.4924 0.8917 2.4289
1.5920 0.9130 2.4375
1.6011 0.9917 2.8398
1.5574 0.9168 2.8360
1.6415 0.9917 2.4418
1.6003 1.0917 2.8397
1.6167 1.2917 2.6404
1.6346 1.0917 2.4412
1.5928 1.1917 2.8391
1.6402 1.1917 2.4417
1.5961 1.2917 2.8394
1.5983 1.2917 2.7392
1.6131 1.2917 2.5397
1.6189 1.2917 2.4398
1.4924 0.8917 2.4289
1.5920 0.9130 2.4375
1.5958 0.8917 2.3938
1.6415 0.9917 2.4418
1.6313 0.8917 2.3405
1.6489 0.9917 2.3421
1.6725 0.8917 2.2437
1.6581 0.9917 2.2425
1.6346 1.0917 2.4412
1.6629 1.0917 2.2429
1.6402 1.1917 2.4417
1.6528 1.1917 2.2420
1.6189 1.2917 2.4398
1.6519 1.2917 2.2420
1.5920 0.6917 2.4375
1.4924 0.6511 2.4289
1.6006 0.6917 2.3379
1.5010 0.6835 2.3292
1.5023 0.6917 2.3138
1.5029 0.7917 2.3074
1.4924 0.8917 2.4289
1.6006 0.8641 2.3379
1.5010 0.8546 2.3292
1.5958 0.8917 2.3938
1.6528 0.4917 2.4428
1.6449 0.5917 2.4421
1.6662 0.4917 2.3436
1.6670 0.5917 2.3436
1.6781 0.4917 2.2442
1.6772 0.5917 2.2442
1.7176 0.4917 2.1473
1.6906 0.5917 2.1449
1.6682 0.6917 2.2434
1.7089 0.7917 2.2469
1.6313 0.8917 2.3405
1.6725 0.8917 2.2437
1.6149 0.4917 2.5399
1.5833 0.5917 2.5371
1.6528 0.4917 2.4428
1.6449 0.5917 2.4421
1.5920 0.6917 2.4375
1.4537 0.9917 3.4293
1.5324 1.0917 3.4556
1.4009 0.9917 3.4827
1.3994 1.0917 3.4992
1.4599 0.9917 3.3294
1.4232 0.9917 3.2259
1.5228 1.0326 3.2345
1.4996 1.2917 3.5008
1.3997 1.2917 3.4960
1.5980 1.0917 3.2410
1.6181 1.2917 3.4435
1.6048 1.1917 3.2416
1.6138 1.1917 3.3428
1.5953 1.2917 3.3412
1.6092 1.2917 3.3950
1.6086 1.2917 3.2420
1.4232 0.9917 3.2259
1.4405 0.8917 3.0266
1.5351 0.8917 3.0932
1.5336 0.9917 3.1106
1.4347 0.9917 3.0934
1.5228 1.0326 3.2345
1.4318 1.0086 3.1262
1.5908 0.8917 3.0397
1.5831 0.8917 2.9386
1.6011 0.9917 2.8398
1.5574 0.9168 2.8360
1.5549 0.8917 2.8647
1.5980 1.0917 3.2410
1.6048 1.1917 3.2416
1.6003 1.0917 2.8397
1.6086 1.2917 3.2420
1.6027 1.2917 3.0909
1.5928 1.1917 2.8391
1.5874 1.2917 2.9390
1.5961 1.2917 2.8394
-1.0721 0.8917 3.0632
-0.9734 0.8917 3.0818
-0.9752 0.9917 3.1036
-1.0750 0.9917 3.0962
-0.9765 0.9984 3.1179
-1.0761 0.9979 3.1093
-1.0705 0.7917 3.0442
-0.9720 0.7917 3.0662
-0.9734 0.8917 3.0818
-1.0721 0.8917 3.0632
-0.9720 0.7917 3.0662
-0.8729 0.7917 3.0815
-0.8742 0.8917 3.0959
-0.9734 0.8917 3.0818
-0.7772 0.8917 3.1352
-0.7756 0.7917 3.1167
-0.6776 0.7917 3.1439
-0.6803 0.8917 3.1743
-0.6132 0.7917 3.3502
-0.6111 0.8917 3.3504
-0.5982 0.7917 3.3852
-0.5966 0.8917 3.3666
-0.6265 0.7917 3.2487
-0.6253 0.8917 3.2488
-0.6863 0.9917 3.2435
-0.7772 0.8917 3.1352
-0.6803 0.8917 3.1743
-0.7835 0.9917 3.2071
-0.7945 1.0356 3.3345
-0.5996 1.0920 3.4019
-0.7988 1.0921 3.3922
-0.7859 1.0035 3.2348
-0.7988 1.1920 3.3906
-0.7991 1.2917 3.3890
-0.6111 0.8917 3.3504
-0.5953 0.9917 3.3518
-0.5966 0.8917 3.3666
-0.6253 0.8917 3.2488
-0.5994 1.2917 3.3987
-0.5982 0.7917 3.3852
-0.5007 0.7915 3.4116
-0.5002 0.8917 3.4100
-0.5966 0.8917 3.3666
-0.4011 0.7913 3.4164
-0.3014 0.7912 3.4213
-0.2002 0.7913 3.4262
-0.2001 0.8917 3.4246
-0.5966 0.8917 3.3666
-0.5002 0.8917 3.4100
-0.5953 0.9917 3.3518
-0.5996 1.0920 3.4019
-0.5994 1.2917 3.3987
-0.2000 0.9918 3.4230
-0.2989 1.1921 3.4149
-0.2001 0.8917 3.4246
-0.2022 1.0917 3.4482
-0.2054 1.1917 3.4860
-0.1995 1.2917 3.4181
-0.1536 1.0917 3.4905
-0.2054 1.1917 3.4860
-0.1094 1.0917 3.5356
-0.1099 1.1917 3.5415
-0.1779 1.2917 3.4884
-0.1122 1.2917 3.5678
-1.7966 2.8917 3.3145
-1.6953 3.0922 3.3162
-1.7963 3.0918 3.3113
-1.5958 3.0920 3.3211
-1.4954 3.0922 3.3259
-1.3968 2.8917 3.3340
-1.3965 3.0921 3.3308
-1.3923 3.1361 3.2826
-1.4919 3.1353 3.2739
-1.3968 2.8917 3.3340
-0.9969 2.8917 3.3535
-1.2948 3.0925 3.3357
-1.3965 3.0921 3.3308
-1.2927 3.0917 3.2912
-1.3923 3.1361 3.2826
-1.1930 3.1295 3.2999
-0.9938 3.1334 3.3172
-1.0848 3.1661 3.2089
-1.1844 3.1672 3.2002
-0.9967 3.0918 3.3502
-0.9851 3.1409 3.2175
-0.9969 2.8917 3.3535
-0.9967 3.0918 3.3502
-0.9938 3.1334 3.3172
-0.9851 3.1409 3.2175
-0.8769 3.1429 3.1266
-0.9765 3.1509 3.1179
-0.6949 3.1233 3.3431
-0.6863 3.1498 3.2435
-0.7772 3.1459 3.1352
-0.6968 3.0918 3.3648
-0.6776 3.1506 3.1439
-0.5971 2.8917 3.3729
-0.5967 3.1920 3.3681
-0.5953 3.1917 3.3518
-0.5866 3.1523 3.2521
-0.5780 3.1491 3.1525
-0.5971 2.8917 3.3729
-0.4968 3.0918 3.3746
-0.5967 3.1920 3.3681
-0.5953 3.1917 3.3518
-0.5866 3.1523 3.2521
-0.4784 3.1570 3.1612
-0.5780 3.1491 3.1525
-0.3466 3.1103 3.3816
-0.2878 3.1631 3.2781
-0.2705 3.1277 3.0788
-0.3701 3.0917 3.0702
-0.4697 3.1438 3.0615
-0.1795 3.1499 3.1871
-0.1973 2.8917 3.3924
-0.1971 3.0680 3.3895
-0.1969 3.1683 3.3879
-0.1708 3.1319 3.0875
1.4020 2.8917 3.4702
1.5035 2.8917 3.4752
1.5036 3.0924 3.4719
1.4022 3.0919 3.4670
1.5055 3.1917 3.4338
1.4059 3.1500 3.4251
1.5037 3.1923 3.4703
1.4278 3.1917 3.3266
1.4145 3.1756 3.3255
1.6034 2.9923 3.4784
-1.7971 2.4917 3.3210
-1.3973 2.4917 3.3404
-1.3968 2.8917 3.3340
-1.7966 2.8917 3.3145
-1.7975 2.1924 3.3258
-1.6965 2.1922 3.3307
-1.7971 2.4917 3.3210
-1.5961 2.1924 3.3356
-1.4967 2.1921 3.3404
-1.3977 2.1922 3.3453
-1.3973 2.4917 3.3404
-1.3973 2.4917 3.3404
-0.9975 2.4917 3.3599
-0.9969 2.8917 3.3535
-1.3968 2.8917 3.3340
-1.3977 2.1922 3.3453
-1.2968 2.1921 3.3502
-1.3976 2.2922 3.3436
-1.3973 2.4917 3.3404
-1.1976 2.1918 3.3550
-1.0967 2.1922 3.3599
-0.9979 2.1919 3.3647
-0.9975 2.4917 3.3599
-0.9975 2.4917 3.3599
-0.5977 2.4917 3.3794
-0.5971 2.8917 3.3729
-0.9969 2.8917 3.3535
-0.9981 2.0917 3.3663
-0.5982 2.0917 3.3858
-0.5977 2.4917 3.3794
-0.9975 2.4917 3.3599
-0.7980 1.6917 3.3825
-0.6970 1.7924 3.3858
-0.7980 1.7920 3.3809
-0.7979 1.8920 3.3793
-0.7976 1.9920 3.3777
-0.7979 2.0917 3.3761
-0.5988 1.6917 3.3922
-0.5888 1.7917 3.2766
-0.5985 1.8923 3.3890
-0.5982 2.0917 3.3858
-0.7991 1.2917 3.3890
-0.7988 1.3919 3.3873
-0.7990 1.4917 3.3857
-0.7985 1.5919 3.3841
-0.6971 1.6917 3.3875
-0.7980 1.6917 3.3825
-0.5994 1.2917 3.3987
-0.5989 1.5918 3.3938
-0.5953 1.6277 3.3518
-0.5988 1.6917 3.3922
-0.5994 1.2917 3.3987
-0.4985 1.5919 3.3987
-0.5989 1.5918 3.3938
-0.5953 1.6277 3.3518
-0.4886 1.6917 3.2790
-0.5988 1.6917 3.3922
-0.1990 1.6917 3.4117
-0.3960 1.6917 3.3691
-0.3976 1.6917 3.4020
-0.1995 1.2917 3.4181
-0.5982 2.0917 3.3858
-0.1984 2.0917 3.4053
-0.1979 2.4917 3.3988
-0.5977 2.4917 3.3794
-0.5977 2.4917 3.3794
-0.1979 2.4917 3.3988
-0.1973 2.8917 3.3924
-0.5971 2.8917 3.3729
-0.5988 1.6917 3.3922
-0.4886 1.6917 3.2790
-0.4899 1.7917 3.2935
-0.5888 1.7917 3.2766
-0.5985 1.8923 3.3890
-0.5982 2.0917 3.3858
-0.3960 1.6917 3.3691
-0.3976 1.6917 3.4020
-0.1990 1.6917 3.4117
-0.1987 1.8921 3.4085
-0.1984 2.0917 3.4053
0.5022 0.3932 3.4668
0.5988 0.3923 3.4715
0.5990 0.4917 3.4699
0.5012 0.4917 3.4652
1.4306 0.8917 2.6242
1.3754 0.9216 2.6195
1.4592 0.8917 2.5264
1.3841 0.9229 2.5198
1.4924 0.8917 2.4289
1.3927 0.9149 2.4202
1.1049 0.6917 2.2667
1.2037 0.6917 2.2847
1.2037 0.7917 2.2856
1.1045 0.7917 2.2719
1.1025 0.8917 2.2946
1.3041 0.6917 2.2849
1.4038 0.6917 2.2927
1.4030 0.7917 2.3019
1.4014 0.8917 2.3206
1.5023 0.6917 2.3138
1.5029 0.7917 2.3074
1.4924 0.8917 2.4289
1.5010 0.8546 2.3292
1.0939 0.9266 2.3943
0.9942 0.9462 2.3856
1.1025 0.8917 2.2946
1.0029 0.8969 2.2860
1.0039 0.8917 2.2743
0.9075 0.6917 2.2281
1.0054 0.6917 2.2573
0.9051 0.7917 2.2557
1.0039 0.8917 2.2743
0.9045 0.8917 2.2625
1.1049 0.6917 2.2667
1.1045 0.7917 2.2719
1.1025 0.8917 2.2946
1.1935 0.9231 2.4029
1.0939 0.9266 2.3943
1.1025 0.8917 2.2946
1.2931 0.9186 2.4116
1.3927 0.9149 2.4202
1.4014 0.8917 2.3206
1.4924 0.8917 2.4289
0.5995 0.8917 3.4635
0.7005 0.9921 3.4668
0.5997 0.9921 3.4619
0.8000 0.9919 3.4716
0.8993 0.9917 3.4765
0.9993 0.8917 3.4830
0.9995 0.9916 3.4814
-0.1536 1.0917 3.4905
-0.2054 1.1917 3.4860
-0.2022 1.0917 3.4482
-0.1779 1.2917 3.4884
-0.2054 1.1917 3.4860
-0.1995 1.2917 3.4181
0.2999 0.8917 3.4489
0.3996 0.8917 3.4538
0.4003 0.9920 3.4522
0.2979 0.9917 3.4696
0.5001 0.9919 3.4570
0.5995 0.8917 3.4635
0.5997 0.9921 3.4619
0.2997 0.7918 3.4505
0.4001 0.7920 3.4554
0.3996 0.8917 3.4538
0.2999 0.8917 3.4489
0.4999 0.7920 3.4603
0.5012 0.4917 3.4652
0.5990 0.4917 3.4699
0.5005 0.5923 3.4635
0.5490 0.6920 3.4643
0.5006 0.6470 3.4469
0.5993 0.6922 3.4667
0.4993 0.6918 3.4619
0.5995 0.8917 3.4635
1.1070 0.2917 3.3992
1.0082 0.2917 3.3807
1.1092 0.3917 3.3737
1.0108 0.3917 3.3508
1.1080 0.4917 3.3877
1.0088 0.4917 3.3743
0.5990 0.4917 3.4699
0.7998 0.4917 3.4797
0.5995 0.8917 3.4635
0.9038 0.4917 3.4268
0.9010 0.5926 3.4830
0.9011 0.7925 3.4798
0.9725 0.4917 3.3875
1.0088 0.4917 3.3743
1.0088 0.5917 3.3736
1.0088 0.6917 3.3740
1.0100 0.7917 3.3599
1.0074 0.8134 3.3905
0.9993 0.8917 3.4830
0.5988 0.3923 3.4715
0.6998 0.3922 3.4765
0.7998 0.4917 3.4797
0.5990 0.4917 3.4699
0.7997 0.3921 3.4813
0.8045 0.2917 3.4149
0.9077 0.2917 3.3819
0.9039 0.3917 3.4261
0.9038 0.4917 3.4268
1.0082 0.2917 3.3807
1.0108 0.3917 3.3508
0.9725 0.4917 3.3875
1.0088 0.4917 3.3743
0.9993 0.8917 3.4830
0.9999 1.2917 3.4765
1.3997 1.2917 3.4960
1.1988 0.9915 3.4911
1.2001 0.8917 3.4927
1.2990 0.9916 3.4959
1.4009 0.9917 3.4827
1.3994 1.0917 3.4992
1.0088 0.4917 3.3743
1.1080 0.4917 3.3877
1.1091 0.5917 3.3745
1.0088 0.5917 3.3736
1.1082 0.6917 3.3849
1.0088 0.6917 3.3740
1.1070 0.7436 3.3992
1.1063 0.7917 3.4067
1.0100 0.7917 3.3599
1.0074 0.8134 3.3905
1.1004 0.8917 3.4879
0.9993 0.8917 3.4830
1.4169 0.9917 3.1249
1.4318 1.0086 3.1262
1.4232 0.9917 3.2259
1.4347 0.9917 3.0934
1.0010 2.0917 3.4636
1.4008 2.0917 3.4831
1.4014 2.4917 3.4767
1.0016 2.4917 3.4572
1.0016 2.4917 3.4572
1.4014 2.4917 3.4767
1.4020 2.8917 3.4702
1.0021 2.8917 3.4508
0.9999 1.2917 3.4765
1.3997 1.2917 3.4960
1.4003 1.6917 3.4895
1.0005 1.6917 3.4701
-0.1779 1.2917 3.4884
-0.1692 1.3917 3.4891
-0.1995 1.2917 3.4181
-0.1994 1.3917 3.4165
-0.1983 2.1920 3.4036
0.2015 2.1918 3.4231
-0.1979 2.4917 3.3988
0.1019 2.2918 3.4166
0.2020 2.4917 3.4183
-0.1979 2.4917 3.3988
0.2020 2.4917 3.4183
0.2025 2.8917 3.4118
-0.1973 2.8917 3.3924
0.2016 2.1918 3.4231
0.3020 2.1920 3.4280
0.2020 2.4917 3.4183
0.4024 2.1922 3.4329
0.5020 2.1920 3.4377
0.6013 2.1921 3.4426
0.6018 2.4917 3.4377
0.2020 2.4917 3.4183
0.6018 2.4917 3.4377
0.6023 2.8917 3.4313
0.2025 2.8917 3.4118
0.6018 2.4917 3.4377
1.0016 2.4917 3.4572
1.0021 2.8917 3.4508
0.6023 2.8917 3.4313
0.6013 2.1921 3.4426
0.7020 2.1920 3.4475
0.6018 2.4917 3.4377
0.8005 2.1914 3.4523
0.9013 2.1918 3.4572
1.0000 2.0917 3.4636
1.0010 2.0913 3.4636
0.9010 2.0917 3.4588
1.0016 2.4917 3.4572
1.0005 1.6917 3.4701
1.4003 1.6917 3.4895
1.4008 2.0917 3.4831
1.0010 2.0917 3.4636
1.5961 1.2917 2.8394
1.5955 1.3917 2.8393
1.5983 1.2917 2.7392
1.6167 1.2917 2.6404
1.6131 1.2917 2.5397
1.6189 1.2917 2.4398
1.6097 1.3917 2.4390
1.5923 1.4917 2.8390
1.5877 1.4917 2.7383
1.6124 1.4917 2.4393
1.5920 1.5917 2.7386
1.5958 1.5917 2.6386
1.5954 1.5917 2.5382
1.6185 1.5917 2.4398
1.6168 1.6917 2.5400
1.5920 1.6917 2.4375
1.6189 1.2917 2.4398
1.6097 1.3917 2.4390
1.6321 1.2917 2.3406
1.6280 1.3917 2.3403
1.6519 1.2917 2.2420
1.6431 1.3917 2.2412
1.6124 1.4917 2.4393
1.6419 1.4917 2.2411
1.6185 1.5917 2.4398
1.6311 1.5917 2.3405
1.6548 1.5917 2.2422
1.3997 1.2917 3.4960
1.4996 1.2917 3.5008
1.5003 1.6917 3.4944
1.4003 1.6917 3.4895
1.6030 1.2917 3.4673
1.5953 1.2917 3.3412
1.5963 1.3917 3.3413
1.6086 1.2917 3.2420
1.6063 1.3917 3.2418
1.6224 1.4917 3.2432
1.6051 1.5917 3.4424
1.5857 1.6917 3.4407
1.5908 1.6917 3.3408
1.6224 1.5917 3.2432
1.5785 1.6917 3.2393
1.6181 1.2917 3.4435
1.6086 1.2917 3.2420
1.6063 1.3917 3.2418
1.6062 1.2917 3.1414
1.6053 1.3917 3.1413
1.5993 1.2917 3.0404
1.5957 1.3917 3.0401
1.5874 1.2917 2.9390
1.5990 1.3917 2.9400
1.5961 1.2917 2.8394
1.5955 1.3917 2.8393
1.6224 1.4917 3.2432
1.6311 1.4917 3.1435
1.6060 1.4917 2.9406
1.5923 1.4917 2.8390
1.6224 1.5917 3.2432
1.5785 1.6917 3.2393
1.6311 1.6917 3.1435
1.5841 2.4917 3.2398
1.5802 2.5917 3.2395
1.5972 2.4917 3.1406
1.5505 2.5917 3.1365
1.4014 2.4917 3.4767
1.5018 2.4917 3.4815
1.5035 2.8917 3.4752
1.4020 2.8917 3.4702
1.5542 2.4917 3.4380
1.5837 2.4917 3.3402
1.5962 2.5917 3.3413
1.5841 2.4917 3.2398
1.5802 2.5917 3.2395
1.6122 2.6917 3.3613
1.6138 2.6503 3.3428
1.5482 2.6917 3.2367
1.6150 2.6917 3.3290
1.6138 2.7120 3.3428
1.5706 2.7917 3.3390
1.5677 2.8917 3.3388
1.4008 2.0917 3.4831
1.5012 2.1918 3.4864
1.5018 2.4917 3.4815
1.4014 2.4917 3.4767
1.6121 2.0917 3.4934
1.5542 2.1917 3.4380
1.6138 2.0917 3.3428
1.5714 2.1917 3.3391
1.5774 2.0917 3.2392
1.5774 2.1917 3.2392
1.6138 2.2917 3.3428
1.5727 2.2917 3.2388
1.5542 2.4917 3.4380
1.5779 2.3917 3.2393
1.5837 2.4917 3.3402
1.5841 2.4917 3.2398
1.5947 1.8917 3.2407
1.5918 1.9917 3.2405
1.5874 1.8917 3.1397
1.5792 1.9917 3.1390
1.4003 1.6917 3.4895
1.5003 1.6917 3.4944
1.5003 1.8917 3.4912
1.4008 2.0917 3.4831
1.5857 1.6917 3.4407
1.5908 1.6917 3.3408
1.5785 1.6917 3.2393
1.5568 1.7917 3.2375
1.5947 1.8917 3.2407
1.6121 2.0917 3.4934
1.6138 2.0917 3.3428
1.5918 1.9917 3.2405
1.5774 2.0917 3.2392
-0.1973 2.8917 3.3924
-0.0971 3.0917 3.3940
-0.1971 3.0439 3.3899
-0.0593 3.1403 3.2477
-0.1969 3.1683 3.3879
-0.1795 3.1499 3.1871
-0.0712 3.0917 3.0961
-0.1708 3.1319 3.0875
0.2028 3.0920 3.4086
0.0284 3.0917 3.1048
0.2104 3.1441 3.3213
0.2190 3.1729 3.2217
0.1280 3.1331 3.1134
0.2025 2.8917 3.4118
0.2277 3.0917 3.1221
0.2025 2.8917 3.4118
0.2028 3.0920 3.4086
0.2104 3.1441 3.3213
0.2190 3.1729 3.2217
0.3273 3.1615 3.1307
0.2277 3.0917 3.1221
0.6023 2.8917 3.4313
0.6175 3.1573 3.2563
0.4269 3.1450 3.1394
0.6026 3.0920 3.4281
0.5092 3.1228 3.3473
0.5265 3.1508 3.1480
0.6089 3.1528 3.3559
0.6262 3.1607 3.1567
1.0021 2.8917 3.4508
1.0024 3.0921 3.4475
1.0074 3.1369 3.3905
1.2153 3.1917 3.3082
1.0160 3.1685 3.2909
1.1243 3.1650 3.1999
1.0247 3.1635 3.1913
1.4022 3.0919 3.4670
1.2043 3.1925 3.4557
1.2239 3.1461 3.2086
1.3062 3.1715 3.4165
1.3149 3.1724 3.3168
1.2153 3.1917 3.3082
1.4020 2.8917 3.4702
1.4059 3.1500 3.4251
1.4145 3.1756 3.3255
0.6023 2.8917 3.4313
0.6026 3.0920 3.4281
0.7127 3.1917 3.3162
0.6089 3.1528 3.3559
0.6708 3.1917 3.2609
0.6175 3.1573 3.2563
0.7258 3.1659 3.1653
0.6262 3.1607 3.1567
0.7225 3.1917 3.2035
0.9077 3.1519 3.3819
0.7770 3.1917 3.2701
0.8254 3.1374 3.1740
1.0024 3.0921 3.4475
1.0247 3.1635 3.1913
0.9250 3.1616 3.1826
1.0021 2.8917 3.4508
1.0074 3.1369 3.3905
1.0160 3.1685 3.2909
-2.3990 0.9917 3.3169
-2.2987 0.9917 3.3176
-2.2976 1.0917 3.3044
-2.3972 1.0917 3.2957
-2.2993 1.1917 3.3239
-2.3987 1.1917 3.3136
-2.1979 0.9917 3.3130
-2.2976 0.9622 3.3044
-2.1979 1.1917 3.3130
-2.2976 1.2165 3.3044
-2.0983 0.9917 3.3217
-2.1979 0.9917 3.3130
-2.0983 1.0917 3.3217
-2.1979 1.1917 3.3130
-2.0983 1.2917 3.3217
-2.1979 0.9917 3.3130
-2.2976 0.9622 3.3044
-2.2944 0.8917 3.2683
-2.1925 0.8917 3.2499
-2.1979 0.9917 3.3130
-2.2976 1.0917 3.3044
-2.1969 1.0917 3.3006
-2.1979 1.1917 3.3130
-2.1979 1.1917 3.3130
-2.2976 1.2165 3.3044
-2.1969 1.2917 3.3015
-2.2934 1.2917 3.2560
-2.0983 0.9917 3.3217
-2.1979 0.9917 3.3130
-2.1925 0.8917 3.2499
-2.0921 0.8917 3.2499
-2.0983 1.0917 3.3217
-2.1979 0.9917 3.3130
-2.1969 1.0917 3.3006
-2.1979 1.1917 3.3130
-2.0983 1.2917 3.3217
-2.1979 1.1917 3.3130
-2.1969 1.2917 3.3015
-1.9941 0.8917 3.2772
-1.9963 0.9917 3.3028
-2.0983 1.0917 3.3217
-1.9973 1.0917 3.3143
-2.0983 1.1917 3.3217
-1.9971 1.1917 3.3122
-2.0983 1.2917 3.3217
-1.9948 1.2917 3.2856
-2.0983 1.2917 3.3217
-2.0983 1.2917 3.3217
-2.1979 1.3917 3.3130
-2.1979 1.3917 3.3130
-2.1969 1.2917 3.3015
-2.0967 1.3917 3.3033
-2.0963 1.4917 3.2981
-2.1961 1.4917 3.2916
-2.0958 1.5917 3.2923
-2.1956 1.5917 3.2856
-1.9948 1.2917 3.2856
-1.9925 1.3917 3.2594
-1.9953 1.4917 3.2911
-2.1979 1.3917 3.3130
-2.2934 1.2917 3.2560
-2.1969 1.2917 3.3015
-2.2956 1.3917 3.2817
-0.4441 0.4917 0.4540
-0.3480 0.4917 0.5028
-0.3503 0.5917 0.5300
-0.4457 0.5917 0.4725
-0.3464 0.6917 0.4852
-0.4457 0.6917 0.4721
-0.3618 0.7917 0.6619
-0.4614 0.7917 0.6532
-0.3531 0.7917 0.5622
-0.4527 0.7917 0.5536
-0.3791 0.9917 0.8611
-0.4700 0.8917 0.7529
-0.3744 0.8917 0.8078
-0.4752 0.9917 0.8127
-0.4700 0.7917 0.7529
-0.4614 0.7917 0.6532
-0.4700 0.8917 0.7529
-0.3704 0.7917 0.7615
-0.3618 0.7917 0.6619
-0.3744 0.8917 0.8078
-0.2176 0.8917 0.9755
-0.2014 0.9917 0.9769
-0.1798 0.8917 0.8784
-0.1852 0.9917 0.9401
0.0194 0.8917 0.8957
-0.0856 0.9917 0.9490
0.0139 0.9917 0.9590
-0.2708 0.7917 0.7701
-0.3704 0.7917 0.7615
-0.2621 0.7917 0.6705
-0.3618 0.7917 0.6619
-0.2967 0.8041 1.0690
-0.3964 0.8027 1.0604
-0.2881 0.7974 0.9694
-0.3504 0.8917 0.9640
-0.3913 0.8917 1.0018
-0.2794 0.7917 0.8698
-0.3631 0.8917 0.8625
-0.3704 0.7917 0.7615
-0.3744 0.8917 0.8078
-0.2176 0.8917 0.9755
-0.1798 0.8917 0.8784
-0.2711 0.5917 0.4690
-0.2448 0.6398 0.4713
-0.3503 0.5917 0.5300
-0.2466 0.6917 0.4920
-0.3464 0.6917 0.4852
-0.2621 0.7917 0.6705
-0.3618 0.7917 0.6619
-0.2535 0.7917 0.5709
-0.3531 0.7917 0.5622
-0.2269 0.5917 0.4728
-0.1519 0.5917 0.5569
-0.0469 0.6917 0.5039
-0.1452 0.7917 0.4799
-0.1539 0.8156 0.5795
-0.0516 0.5917 0.5575
0.0454 0.4917 0.5968
-0.0542 0.4917 0.5882
0.0482 0.5917 0.5640
0.0527 0.6917 0.5130
0.0540 0.7917 0.4972
0.3507 0.3917 0.5489
0.4496 0.3917 0.5660
0.4505 0.4917 0.5549
0.3500 0.4917 0.5567
0.4987 0.1917 0.6362
0.4439 0.2436 0.6314
0.5148 0.1917 0.5372
0.4707 0.2917 0.5334
0.4508 0.2917 0.5519
0.5552 0.1917 0.5052
0.5548 0.2917 0.5102
0.4496 0.3917 0.5660
0.5595 0.3917 0.4558
0.4830 0.4917 0.5345
0.4505 0.4917 0.5549
0.5552 0.4917 0.5058
0.6546 0.2917 0.5170
0.6547 0.3917 0.5154
0.4830 0.4917 0.5345
0.4684 0.5917 0.5332
0.4505 0.4917 0.5549
0.4517 0.5917 0.5419
0.4525 0.6917 0.5318
0.5435 0.7276 0.6401
0.4439 0.7917 0.6314
0.5522 0.7137 0.5405
0.5541 0.6917 0.5185
0.2273 0.7917 0.8134
0.3356 0.7917 0.7224
0.3010 0.7997 1.1209
0.2472 0.8917 1.1162
0.3097 0.7986 1.0213
0.2100 0.7983 1.0126
0.2054 0.8917 1.0665
0.3183 0.8050 0.9217
0.2187 0.7969 0.9130
0.3270 0.8019 0.8220
0.2360 0.8049 0.7138
0.0194 0.8917 0.8957
0.1191 0.8917 0.9044
0.1139 0.9917 0.9634
0.0139 0.9917 0.9590
0.1018 1.0266 1.1036
0.0021 1.0264 1.0950
0.1104 1.0063 1.0040
0.0108 1.0043 0.9953
0.2014 0.9454 1.1123
0.1437 0.9917 1.1073
0.1392 0.8917 1.0065
0.2054 0.8917 1.0665
0.2472 0.8917 1.1162
0.1220 0.5917 0.5031
0.1537 0.6654 0.5059
0.0482 0.5917 0.5640
0.1523 0.6917 0.5212
0.0527 0.6917 0.5130
0.1537 0.7917 0.5059
0.0540 0.7917 0.4972
0.1997 0.5917 0.5099
0.2220 0.4917 0.4114
0.2619 0.5350 0.4149
0.2025 0.5917 0.4097
0.1623 0.5545 0.4062
0.2573 0.4917 0.4680
0.1565 0.5917 0.4732
0.2930 0.4917 0.3172
0.1934 0.5917 0.3086
0.1675 0.4917 0.3460
0.2476 0.5917 0.5794
0.1623 0.6764 0.4062
0.1710 0.6917 0.3066
0.2446 0.7917 0.6141
0.1450 0.8095 0.6055
0.3028 0.4917 0.4184
0.3493 0.5917 0.5643
0.3356 0.7917 0.7224
0.3529 0.7917 0.5232
0.2360 0.8049 0.7138
0.3443 0.8150 0.6228
0.3500 0.4917 0.5567
0.4505 0.4917 0.5549
0.4517 0.5917 0.5419
0.4525 0.6917 0.5318
0.4439 0.7917 0.6314
3 2 0 1
3 0 5 3
3 0 3 1
3 1 3 4
3 6 7 8
3 8 7 9
3 10 11 12
3 12 11 13
3 17 13 14
3 17 14 15
3 17 15 16
3 18 15 14
3 11 19 13
3 13 19 20
3 13 20 14
3 14 20 21
3 18 21 22
3 14 21 18
3 23 24 25
3 26 28 27
3 24 30 29
3 25 24 29
3 26 25 31
3 31 25 29
3 28 26 31
3 29 32 33
3 29 33 31
3 31 33 34
3 32 35 33
3 34 33 36
3 35 37 38
3 35 38 33
3 36 33 39
3 36 39 40
3 41 42 43
3 43 42 44
3 43 44 45
3 45 44 46
3 45 46 47
3 47 46 48
3 44 49 46
3 46 49 50
3 46 50 48
3 49 51 50
3 50 51 52
3 51 53 52
3 52 53 54
3 58 55 56
3 57 55 58
3 58 59 57
3 57 59 60
3 61 64 62
3 61 62 63
3 62 60 63
3 65 66 67
3 67 66 68
3 67 68 69
3 69 68 70
3 71 69 72
3 69 70 72
3 66 55 68
3 68 55 57
3 68 57 70
3 70 57 73
3 74 73 57
3 74 57 60
3 62 64 75
3 74 60 75
3 74 75 76
3 62 75 60
3 77 78 79
3 79 78 80
3 78 81 80
3 83 82 84
3 83 84 85
3 83 86 82
3 86 88 87
3 83 85 89
3 89 85 90
3 83 91 86
3 91 88 86
3 92 83 89
3 83 92 91
3 93 91 94
3 96 95 94
3 94 95 93
3 95 97 93
3 91 92 94
3 96 94 92
3 100 99 101
3 101 99 102
3 98 103 104
3 103 101 104
3 101 102 104
3 101 105 100
3 108 109 106
3 108 106 107
3 107 106 105
3 101 103 110
3 111 101 110
3 101 111 105
3 105 111 112
3 105 112 107
3 111 113 112
3 112 113 114
3 112 114 115
3 115 114 116
3 115 116 117
3 119 118 120
3 120 118 121
3 122 121 123
3 120 121 122
3 125 124 126
3 126 124 127
3 129 128 130
3 130 128 131
3 132 133 130
3 133 129 130
3 134 132 135
3 134 133 132
3 139 138 136
3 137 139 136
3 136 140 137
3 140 141 137
3 140 135 141
3 134 135 140
3 142 144 145
3 144 143 145
3 148 147 146
3 142 149 146
3 142 145 149
3 147 148 156
3 156 148 150
3 156 150 151
3 153 154 152
3 142 153 155
3 153 152 155
3 155 144 142
3 153 146 147
3 153 142 146
3 158 157 159
3 159 157 160
3 161 158 159
3 162 161 159
3 163 162 164
3 164 162 159
3 166 165 167
3 166 167 168
3 170 166 168
3 170 168 171
3 171 168 169
3 172 166 170
3 174 173 171
3 173 170 171
3 174 171 175
3 171 169 175
3 176 177 178
3 178 177 179
3 177 180 181
3 177 181 179
3 183 182 184
3 187 182 185
3 185 182 183
3 186 187 185
3 188 187 186
3 188 186 190
3 189 188 190
3 192 191 193
3 193 191 194
3 193 194 196
3 195 193 196
3 197 193 195
3 198 193 197
3 198 197 199
3 197 200 199
3 201 192 193
3 201 193 198
3 198 199 202
3 206 208 207
3 214 203 204
3 209 204 205
3 209 205 210
3 205 206 210
3 210 206 211
3 206 207 211
3 212 214 204
3 212 204 209
3 210 211 213
3 215 214 212
3 209 216 215
3 209 215 212
3 216 209 217
3 209 210 217
3 217 210 218
3 210 213 218
3 220 219 221
3 222 220 221
3 222 223 220
3 220 223 224
3 223 225 224
3 226 220 227
3 227 220 228
3 220 224 228
3 228 224 229
3 224 230 229
3 226 219 220
3 227 228 231
3 226 233 232
3 226 232 219
3 233 226 234
3 234 226 227
3 234 227 231
3 231 228 235
3 238 236 239
3 241 240 242
3 241 242 239
3 239 242 238
3 244 240 241
3 243 240 244
3 245 237 236
3 238 245 236
3 247 246 248
3 248 246 249
3 251 250 252
3 253 251 252
3 255 254 253
3 255 253 256
3 256 253 252
3 258 257 259
3 259 257 260
3 262 261 263
3 265 262 263
3 265 263 264
3 266 265 264
3 267 266 268
3 268 266 264
3 270 269 271
3 271 269 272
3 274 273 275
3 275 273 276
3 278 277 279
3 278 279 286
3 286 279 280
3 286 280 281
3 286 281 282
3 283 278 284
3 277 278 283
3 285 278 286
3 278 285 284
3 293 287 288
3 293 288 289
3 289 290 291
3 291 290 292
3 294 293 289
3 291 295 294
3 291 294 289
3 295 291 296
3 298 297 299
3 298 299 300
3 300 301 298
3 302 301 300
3 303 297 298
3 298 304 305
3 298 305 303
3 298 301 304
3 306 297 303
3 308 307 309
3 309 307 310
3 312 311 313
3 313 311 314
3 316 315 317
3 317 315 318
3 317 318 319
3 321 317 322
3 316 317 321
3 322 317 319
3 324 322 320
3 320 322 319
3 323 322 324
3 324 320 325
3 327 326 328
3 328 326 329
3 332 331 330
3 333 331 332
3 334 333 332
3 335 333 334
3 337 336 338
3 338 336 339
3 338 339 340
3 341 337 338
3 341 338 340
3 342 341 343
3 344 341 340
3 343 341 344
3 345 342 346
3 346 342 343
3 344 347 348
3 348 343 344
3 346 343 348
3 351 352 349
3 352 350 349
3 351 353 352
3 354 356 357
3 357 356 358
3 359 355 360
3 360 355 354
3 361 360 357
3 360 354 357
3 362 364 363
3 365 364 362
3 366 364 365
3 367 364 366
3 368 367 366
3 370 369 371
3 372 369 370
3 373 374 372
3 374 369 372
3 375 374 373
3 376 378 377
3 380 381 379
3 383 382 384
3 384 382 385
3 386 383 384
3 387 386 388
3 383 386 387
3 390 389 391
3 391 389 392
3 393 390 391
3 395 394 396
3 397 396 398
3 397 399 396
3 399 395 396
3 393 397 400
3 399 393 401
3 397 393 399
3 393 391 401
3 402 403 404
3 403 405 404
3 404 405 406
3 406 405 407
3 409 408 410
3 411 409 412
3 412 409 413
3 413 409 410
3 412 414 411
3 415 414 416
3 417 414 412
3 413 417 412
3 414 417 416
3 418 417 413
3 419 418 413
3 419 413 420
3 420 413 410
3 422 421 423
3 423 421 424
3 425 422 423
3 427 426 428
3 428 426 425
3 428 425 429
3 429 425 423
3 428 430 427
3 432 430 428
3 429 432 428
3 431 432 433
3 430 432 431
3 437 438 435
3 438 434 435
3 437 435 436
3 437 436 439
3 436 441 439
3 441 440 439
3 443 442 444
3 444 442 445
3 444 445 446
3 446 445 447
3 448 450 449
3 448 446 450
3 446 447 450
3 449 451 453
3 449 453 452
3 449 450 451
3 456 455 454
3 454 455 457
3 459 458 460
3 460 458 461
3 463 462 464
3 464 462 465
3 467 466 468
3 468 466 469
3 470 473 471
3 472 473 470
3 475 474 476
3 477 475 476
3 478 475 477
3 478 477 476
3 480 479 481
3 481 479 482
3 483 485 484
3 489 484 485
3 486 484 489
3 489 487 486
3 488 487 489
3 491 490 492
3 492 490 493
3 495 494 496
3 496 494 497
3 499 498 500
3 501 499 500
3 501 500 502
3 500 506 502
3 503 506 504
3 503 505 506
3 505 502 506
3 508 507 509
3 509 507 510
3 511 512 513
3 514 513 515
3 512 518 513
3 513 518 519
3 513 519 515
3 515 519 516
3 516 519 517
3 519 521 522
3 519 522 517
3 517 522 523
3 517 523 520
3 520 523 524
3 523 525 524
3 524 525 526
3 527 528 529
3 529 528 530
3 529 530 531
3 531 530 532
3 528 533 530
3 530 533 534
3 530 534 532
3 533 535 534
3 534 535 536
3 534 536 537
3 539 538 541
3 539 541 540
3 544 543 542
3 543 544 545
3 545 544 546
3 542 547 544
3 544 547 546
3 542 539 548
3 548 539 540
3 549 548 540
3 549 550 548
3 548 552 551
3 550 552 548
3 543 553 542
3 542 548 547
3 547 548 551
3 554 555 556
3 556 555 557
3 556 557 558
3 558 557 559
3 558 559 560
3 560 559 561
3 560 561 562
3 562 561 563
3 555 565 557
3 564 565 555
3 561 566 563
3 563 566 567
3 568 569 570
3 571 572 573
3 573 572 574
3 576 575 577
3 577 575 578
3 580 579 581
3 580 581 582
3 582 581 583
3 584 579 576
3 577 584 576
3 585 581 584
3 581 579 584
3 587 581 585
3 587 586 581
3 586 583 581
3 584 589 588
3 584 577 589
3 589 577 590
3 592 591 593
3 593 591 594
3 596 595 592
3 592 595 591
3 595 598 597
3 596 598 595
3 597 598 599
3 598 600 599
3 593 596 592
3 601 598 596
3 601 602 598
3 602 600 598
3 603 596 593
3 601 596 604
3 596 603 604
3 601 604 602
3 604 603 605
3 604 605 606
3 607 608 609
3 609 608 610
3 612 611 613
3 613 611 614
3 613 615 612
3 616 615 617
3 615 613 617
3 617 613 619
3 617 619 618
3 620 613 614
3 613 621 619
3 620 621 613
3 621 622 619
3 623 622 621
3 626 625 624
3 625 626 628
3 625 628 627
3 628 629 627
3 627 629 630
3 629 631 630
3 625 637 624
3 637 625 632
3 632 625 627
3 627 630 633
3 634 632 627
3 634 627 635
3 635 627 636
3 627 633 636
3 635 636 638
3 642 644 643
3 645 639 640
3 641 642 646
3 646 642 647
3 642 643 647
3 648 645 640
3 648 640 641
3 649 648 641
3 649 641 646
3 646 647 650
3 651 648 649
3 651 649 646
3 646 650 652
3 654 655 656
3 655 657 656
3 656 657 658
3 657 659 658
3 666 653 660
3 660 653 654
3 654 661 660
3 656 661 654
3 656 658 662
3 661 663 660
3 663 665 664
3 661 665 663
3 667 660 663
3 667 663 668
3 663 664 668
3 671 670 672
3 671 674 673
3 671 672 674
3 673 675 677
3 673 674 675
3 674 676 675
3 684 669 670
3 678 670 671
3 679 678 671
3 677 675 679
3 675 680 679
3 681 684 670
3 681 670 678
3 678 679 682
3 682 679 683
3 679 680 683
3 685 681 678
3 685 678 686
3 678 682 686
3 688 687 689
3 689 687 690
3 689 690 691
3 691 690 692
3 694 688 693
3 689 693 688
3 695 689 691
3 695 691 696
3 698 699 697
3 700 701 699
3 702 704 703
3 705 704 702
3 706 707 708
3 707 709 708
3 711 712 710
3 713 712 711
3 714 716 715
3 717 716 714
3 719 720 718
3 718 720 721
3 723 724 722
3 714 726 717
3 726 725 717
3 726 727 728
3 714 727 726
3 728 729 730
3 727 729 728
3 730 731 732
3 729 731 730
3 733 737 736
3 734 735 738
3 735 740 738
3 740 739 738
3 739 740 741
3 741 740 742
3 734 738 743
3 738 744 743
3 744 738 745
3 745 738 739
3 746 748 749
3 748 747 749
3 751 750 752
3 752 750 753
3 752 753 754
3 754 753 755
3 756 758 757
3 757 758 759
3 758 755 759
3 754 755 758
3 760 762 763
3 762 761 763
3 767 768 764
3 764 768 765
3 767 764 769
3 769 764 766
3 772 771 773
3 770 771 772
3 774 772 775
3 775 772 773
3 776 774 775
3 777 779 778
3 778 779 780
3 784 785 782
3 784 782 783
3 783 782 781
3 783 786 784
3 784 786 787
3 786 789 787
3 788 789 786
3 783 790 791
3 783 791 786
3 793 792 794
3 793 794 795
3 795 794 796
3 797 799 798
3 798 799 800
3 799 796 800
3 795 796 799
3 801 793 795
3 801 795 802
3 802 795 803
3 799 804 795
3 804 803 795
3 799 805 804
3 806 802 803
3 808 809 807
3 806 809 808
3 809 806 810
3 810 806 803
3 810 803 811
3 811 803 804
3 813 812 814
3 814 812 815
3 817 820 819
3 817 819 816
3 816 819 818
3 821 819 822
3 818 819 821
3 823 819 820
3 822 823 824
3 819 823 822
3 826 825 823
3 824 825 827
3 823 825 824
3 828 822 829
3 829 822 824
3 831 830 832
3 833 831 832
3 834 831 833
3 834 836 837
3 836 835 837
3 834 837 838
3 845 842 841
3 845 841 844
3 844 841 843
3 843 846 844
3 844 846 847
3 839 847 848
3 847 846 848
3 839 848 840
3 839 840 849
3 851 850 852
3 852 850 853
3 854 856 855
3 855 856 857
3 858 861 860
3 858 860 859
3 859 860 852
3 851 852 860
3 852 854 859
3 856 854 852
3 862 861 858
3 864 863 865
3 864 865 866
3 866 865 867
3 866 867 868
3 868 867 869
3 871 875 872
3 874 873 876
3 872 877 879
3 872 879 871
3 877 878 879
3 874 879 873
3 878 873 879
3 870 864 866
3 870 866 880
3 873 864 870
3 881 864 873
3 878 881 873
3 882 881 878
3 883 866 868
3 883 868 884
3 885 872 875
3 877 872 885
3 886 880 866
3 883 888 866
3 888 886 866
3 887 890 883
3 887 883 889
3 883 890 888
3 892 891 893
3 893 891 886
3 893 886 894
3 895 894 888
3 894 886 888
