ply
format ascii 1.0
element vertex 896
property float x
property float y
property float z
element face 744
property list uchar int vertex_indices
end_header
-2.0983 1.2917 3.3217
-2.0983 1.2917 3.3217
-2.1979 1.3917 3.3130
-2.1979 1.3917 3.3130
-2.1969 1.2917 3.3015
-2.0967 1.3917 3.3033
-2.0963 1.4917 3.2981
-2.1961 1.4917 3.2916
-2.0958 1.5917 3.2923
-2.1956 1.5917 3.2856
-1.9948 1.2917 3.2856
-1.9925 1.3917 3.2594
-1.9953 1.4917 3.2911
-2.1979 1.3917 3.3130
-2.2934 1.2917 3.2560
-2.1969 1.2917 3.3015
-2.2956 1.3917 3.2817
-0.1536 1.0917 3.4905
-0.2054 1.1917 3.4860
-0.1094 1.0917 3.5356
-0.1099 1.1917 3.5415
-0.1779 1.2917 3.4884
-0.1122 1.2917 3.5678
0.3507 0.3917 0.5489
0.4496 0.3917 0.5660
0.4505 0.4917 0.5549
0.3500 0.4917 0.5567
0.4987 0.1917 0.6362
0.4439 0.2436 0.6314
0.5148 0.1917 0.5372
0.4707 0.2917 0.5334
0.4508 0.2917 0.5519
0.5552 0.1917 0.5052
0.5548 0.2917 0.5102
0.4496 0.3917 0.5660
0.5595 0.3917 0.4558
0.4830 0.4917 0.5345
0.4505 0.4917 0.5549
0.5552 0.4917 0.5058
0.6546 0.2917 0.5170
0.6547 0.3917 0.5154
0.4830 0.4917 0.5345
0.4684 0.5917 0.5332
0.4505 0.4917 0.5549
0.4517 0.5917 0.5419
0.4525 0.6917 0.5318
0.5435 0.7276 0.6401
0.4439 0.7917 0.6314
0.5522 0.7137 0.5405
0.5541 0.6917 0.5185
0.2273 0.7917 0.8134
0.3356 0.7917 0.7224
0.3010 0.7997 1.1209
0.2472 0.8917 1.1162
0.3097 0.7986 1.0213
0.2100 0.7983 1.0126
0.2054 0.8917 1.0665
0.3183 0.8050 0.9217
0.2187 0.7969 0.9130
0.3270 0.8019 0.8220
0.2360 0.8049 0.7138
0.0194 0.8917 0.8957
0.1191 0.8917 0.9044
0.1139 0.9917 0.9634
0.0139 0.9917 0.9590
0.1018 1.0266 1.1036
0.0021 1.0264 1.0950
0.1104 1.0063 1.0040
0.0108 1.0043 0.9953
0.2014 0.9454 1.1123
0.1437 0.9917 1.1073
0.1392 0.8917 1.0065
0.2054 0.8917 1.0665
0.2472 0.8917 1.1162
0.1220 0.5917 0.5031
0.1537 0.6654 0.5059
0.0482 0.5917 0.5640
0.1523 0.6917 0.5212
0.0527 0.6917 0.5130
0.1537 0.7917 0.5059
0.0540 0.7917 0.4972
0.1997 0.5917 0.5099
0.2220 0.4917 0.4114
0.2619 0.5350 0.4149
0.2025 0.5917 0.4097
0.1623 0.5545 0.4062
0.2573 0.4917 0.4680
0.1565 0.5917 0.4732
0.2930 0.4917 0.3172
0.1934 0.5917 0.3086
0.1675 0.4917 0.3460
0.2476 0.5917 0.5794
0.1623 0.6764 0.4062
0.1710 0.6917 0.3066
0.2446 0.7917 0.6141
0.1450 0.8095 0.6055
0.3028 0.4917 0.4184
0.3493 0.5917 0.5643
0.3356 0.7917 0.7224
0.3529 0.7917 0.5232
0.2360 0.8049 0.7138
0.3443 0.8150 0.6228
0.3500 0.4917 0.5567
0.4505 0.4917 0.5549
0.4517 0.5917 0.5419
0.4525 0.6917 0.5318
0.4439 0.7917 0.6314
1.4020 2.8917 3.4702
1.5035 2.8917 3.4752
1.5036 3.0924 3.4719
1.4022 3.0919 3.4670
1.5055 3.1917 3.4338
1.4059 3.1500 3.4251
1.5037 3.1923 3.4703
1.4278 3.1917 3.3266
1.4145 3.1756 3.3255
1.6034 2.9923 3.4784
1.5961 1.2917 2.8394
1.5955 1.3917 2.8393
1.5983 1.2917 2.7392
1.6167 1.2917 2.6404
1.6131 1.2917 2.5397
1.6189 1.2917 2.4398
1.6097 1.3917 2.4390
1.5923 1.4917 2.8390
1.5877 1.4917 2.7383
1.6124 1.4917 2.4393
1.5920 1.5917 2.7386
1.5958 1.5917 2.6386
1.5954 1.5917 2.5382
1.6185 1.5917 2.4398
1.6168 1.6917 2.5400
1.5920 1.6917 2.4375
1.6189 1.2917 2.4398
1.6097 1.3917 2.4390
1.6321 1.2917 2.3406
1.6280 1.3917 2.3403
1.6519 1.2917 2.2420
1.6431 1.3917 2.2412
1.6124 1.4917 2.4393
1.6419 1.4917 2.2411
1.6185 1.5917 2.4398
1.6311 1.5917 2.3405
1.6548 1.5917 2.2422
1.3997 1.2917 3.4960
1.4996 1.2917 3.5008
1.5003 1.6917 3.4944
1.4003 1.6917 3.4895
1.6030 1.2917 3.4673
1.5953 1.2917 3.3412
1.5963 1.3917 3.3413
1.6086 1.2917 3.2420
1.6063 1.3917 3.2418
1.6224 1.4917 3.2432
1.6051 1.5917 3.4424
1.5857 1.6917 3.4407
1.5908 1.6917 3.3408
1.6224 1.5917 3.2432
1.5785 1.6917 3.2393
1.6181 1.2917 3.4435
1.6086 1.2917 3.2420
1.6063 1.3917 3.2418
1.6062 1.2917 3.1414
1.6053 1.3917 3.1413
1.5993 1.2917 3.0404
1.5957 1.3917 3.0401
1.5874 1.2917 2.9390
1.5990 1.3917 2.9400
1.5961 1.2917 2.8394
1.5955 1.3917 2.8393
1.6224 1.4917 3.2432
1.6311 1.4917 3.1435
1.6060 1.4917 2.9406
1.5923 1.4917 2.8390
1.6224 1.5917 3.2432
1.5785 1.6917 3.2393
1.6311 1.6917 3.1435
1.5841 2.4917 3.2398
1.5802 2.5917 3.2395
1.5972 2.4917 3.1406
1.5505 2.5917 3.1365
1.4014 2.4917 3.4767
1.5018 2.4917 3.4815
1.5035 2.8917 3.4752
1.4020 2.8917 3.4702
1.5542 2.4917 3.4380
1.5837 2.4917 3.3402
1.5962 2.5917 3.3413
1.5841 2.4917 3.2398
1.5802 2.5917 3.2395
1.6122 2.6917 3.3613
1.6138 2.6503 3.3428
1.5482 2.6917 3.2367
1.6150 2.6917 3.3290
1.6138 2.7120 3.3428
1.5706 2.7917 3.3390
1.5677 2.8917 3.3388
1.4008 2.0917 3.4831
1.5012 2.1918 3.4864
1.5018 2.4917 3.4815
1.4014 2.4917 3.4767
1.6121 2.0917 3.4934
1.5542 2.1917 3.4380
1.6138 2.0917 3.3428
1.5714 2.1917 3.3391
1.5774 2.0917 3.2392
1.5774 2.1917 3.2392
1.6138 2.2917 3.3428
1.5727 2.2917 3.2388
1.5542 2.4917 3.4380
1.5779 2.3917 3.2393
1.5837 2.4917 3.3402
1.5841 2.4917 3.2398
1.5947 1.8917 3.2407
1.5918 1.9917 3.2405
1.5874 1.8917 3.1397
1.5792 1.9917 3.1390
1.4003 1.6917 3.4895
1.5003 1.6917 3.4944
1.5003 1.8917 3.4912
1.4008 2.0917 3.4831
1.5857 1.6917 3.4407
1.5908 1.6917 3.3408
1.5785 1.6917 3.2393
1.5568 1.7917 3.2375
1.5947 1.8917 3.2407
1.6121 2.0917 3.4934
1.6138 2.0917 3.3428
1.5918 1.9917 3.2405
1.5774 2.0917 3.2392
-2.3990 0.9917 3.3169
-2.2987 0.9917 3.3176
-2.2976 1.0917 3.3044
-2.3972 1.0917 3.2957
-2.2993 1.1917 3.3239
-2.3987 1.1917 3.3136
-2.1979 0.9917 3.3130
-2.2976 0.9622 3.3044
-2.1979 1.1917 3.3130
-2.2976 1.2165 3.3044
-2.0983 0.9917 3.3217
-2.1979 0.9917 3.3130
-2.0983 1.0917 3.3217
-2.1979 1.1917 3.3130
-2.0983 1.2917 3.3217
-2.1979 0.9917 3.3130
-2.2976 0.9622 3.3044
-2.2944 0.8917 3.2683
-2.1925 0.8917 3.2499
-2.1979 0.9917 3.3130
-2.2976 1.0917 3.3044
-2.1969 1.0917 3.3006
-2.1979 1.1917 3.3130
-2.1979 1.1917 3.3130
-2.2976 1.2165 3.3044
-2.1969 1.2917 3.3015
-2.2934 1.2917 3.2560
-2.0983 0.9917 3.3217
-2.1979 0.9917 3.3130
-2.1925 0.8917 3.2499
-2.0921 0.8917 3.2499
-2.0983 1.0917 3.3217
-2.1979 0.9917 3.3130
-2.1969 1.0917 3.3006
-2.1979 1.1917 3.3130
-2.0983 1.2917 3.3217
-2.1979 1.1917 3.3130
-2.1969 1.2917 3.3015
-1.9941 0.8917 3.2772
-1.9963 0.9917 3.3028
-2.0983 1.0917 3.3217
-1.9973 1.0917 3.3143
-2.0983 1.1917 3.3217
-1.9971 1.1917 3.3122
-2.0983 1.2917 3.3217
-1.9948 1.2917 3.2856
-0.1145 1.3492 3.5943
-0.1317 1.3917 3.5928
-0.1165 1.3917 3.6181
-0.1779 1.2917 3.4884
-0.1692 1.3917 3.4891
-0.1122 1.2917 3.5678
-1.7971 2.4917 3.3210
-1.3973 2.4917 3.3404
-1.3968 2.8917 3.3340
-1.7966 2.8917 3.3145
-1.7975 2.1924 3.3258
-1.6965 2.1922 3.3307
-1.7971 2.4917 3.3210
-1.5961 2.1924 3.3356
-1.4967 2.1921 3.3404
-1.3977 2.1922 3.3453
-1.3973 2.4917 3.3404
-1.3973 2.4917 3.3404
-0.9975 2.4917 3.3599
-0.9969 2.8917 3.3535
-1.3968 2.8917 3.3340
-1.3977 2.1922 3.3453
-1.2968 2.1921 3.3502
-1.3976 2.2922 3.3436
-1.3973 2.4917 3.3404
-1.1976 2.1918 3.3550
-1.0967 2.1922 3.3599
-0.9979 2.1919 3.3647
-0.9975 2.4917 3.3599
-0.9975 2.4917 3.3599
-0.5977 2.4917 3.3794
-0.5971 2.8917 3.3729
-0.9969 2.8917 3.3535
-0.9981 2.0917 3.3663
-0.5982 2.0917 3.3858
-0.5977 2.4917 3.3794
-0.9975 2.4917 3.3599
-0.7980 1.6917 3.3825
-0.6970 1.7924 3.3858
-0.7980 1.7920 3.3809
-0.7979 1.8920 3.3793
-0.7976 1.9920 3.3777
-0.7979 2.0917 3.3761
-0.5988 1.6917 3.3922
-0.5888 1.7917 3.2766
-0.5985 1.8923 3.3890
-0.5982 2.0917 3.3858
-0.7991 1.2917 3.3890
-0.7988 1.3919 3.3873
-0.7990 1.4917 3.3857
-0.7985 1.5919 3.3841
-0.6971 1.6917 3.3875
-0.7980 1.6917 3.3825
-0.5994 1.2917 3.3987
-0.5989 1.5918 3.3938
-0.5953 1.6277 3.3518
-0.5988 1.6917 3.3922
-0.5994 1.2917 3.3987
-0.4985 1.5919 3.3987
-0.5989 1.5918 3.3938
-0.5953 1.6277 3.3518
-0.4886 1.6917 3.2790
-0.5988 1.6917 3.3922
-0.1990 1.6917 3.4117
-0.3960 1.6917 3.3691
-0.3976 1.6917 3.4020
-0.1995 1.2917 3.4181
-0.5982 2.0917 3.3858
-0.1984 2.0917 3.4053
-0.1979 2.4917 3.3988
-0.5977 2.4917 3.3794
-0.5977 2.4917 3.3794
-0.1979 2.4917 3.3988
-0.1973 2.8917 3.3924
-0.5971 2.8917 3.3729
-0.5988 1.6917 3.3922
-0.4886 1.6917 3.2790
-0.4899 1.7917 3.2935
-0.5888 1.7917 3.2766
-0.5985 1.8923 3.3890
-0.5982 2.0917 3.3858
-0.3960 1.6917 3.3691
-0.3976 1.6917 3.4020
-0.1990 1.6917 3.4117
-0.1987 1.8921 3.4085
-0.1984 2.0917 3.4053
1.5833 0.3917 2.5371
1.6149 0.4917 2.5399
1.6630 0.3917 2.4437
1.6528 0.4917 2.4428
1.6348 0.2917 2.4412
1.6630 0.3917 2.4437
1.6459 0.2917 2.3418
1.6767 0.2917 2.2441
1.6848 0.3917 2.2448
1.7176 0.3338 2.1473
1.6179 0.3191 2.1386
1.6153 0.2917 2.1690
1.7112 0.3917 2.2208
1.6528 0.4917 2.4428
1.6662 0.4917 2.3436
1.6781 0.4917 2.2442
1.7176 0.4917 2.1473
1.5514 0.8917 2.7351
1.5660 0.9135 2.7364
1.5747 0.8917 2.6368
1.5422 0.8917 2.5336
1.4924 0.8917 2.4289
1.5920 0.9130 2.4375
1.6011 0.9917 2.8398
1.5574 0.9168 2.8360
1.6415 0.9917 2.4418
1.6003 1.0917 2.8397
1.6167 1.2917 2.6404
1.6346 1.0917 2.4412
1.5928 1.1917 2.8391
1.6402 1.1917 2.4417
1.5961 1.2917 2.8394
1.5983 1.2917 2.7392
1.6131 1.2917 2.5397
1.6189 1.2917 2.4398
1.4924 0.8917 2.4289
1.5920 0.9130 2.4375
1.5958 0.8917 2.3938
1.6415 0.9917 2.4418
1.6313 0.8917 2.3405
1.6489 0.9917 2.3421
1.6725 0.8917 2.2437
1.6581 0.9917 2.2425
1.6346 1.0917 2.4412
1.6629 1.0917 2.2429
1.6402 1.1917 2.4417
1.6528 1.1917 2.2420
1.6189 1.2917 2.4398
1.6519 1.2917 2.2420
1.5920 0.6917 2.4375
1.4924 0.6511 2.4289
1.6006 0.6917 2.3379
1.5010 0.6835 2.3292
1.5023 0.6917 2.3138
1.5029 0.7917 2.3074
1.4924 0.8917 2.4289
1.6006 0.8641 2.3379
1.5010 0.8546 2.3292
1.5958 0.8917 2.3938
1.6528 0.4917 2.4428
1.6449 0.5917 2.4421
1.6662 0.4917 2.3436
1.6670 0.5917 2.3436
1.6781 0.4917 2.2442
1.6772 0.5917 2.2442
1.7176 0.4917 2.1473
1.6906 0.5917 2.1449
1.6682 0.6917 2.2434
1.7089 0.7917 2.2469
1.6313 0.8917 2.3405
1.6725 0.8917 2.2437
1.6149 0.4917 2.5399
1.5833 0.5917 2.5371
1.6528 0.4917 2.4428
1.6449 0.5917 2.4421
1.5920 0.6917 2.4375
1.4537 0.9917 3.4293
1.5324 1.0917 3.4556
1.4009 0.9917 3.4827
1.3994 1.0917 3.4992
1.4599 0.9917 3.3294
1.4232 0.9917 3.2259
1.5228 1.0326 3.2345
1.4996 1.2917 3.5008
1.3997 1.2917 3.4960
1.5980 1.0917 3.2410
1.6181 1.2917 3.4435
1.6048 1.1917 3.2416
1.6138 1.1917 3.3428
1.5953 1.2917 3.3412
1.6092 1.2917 3.3950
1.6086 1.2917 3.2420
1.4232 0.9917 3.2259
1.4405 0.8917 3.0266
1.5351 0.8917 3.0932
1.5336 0.9917 3.1106
1.4347 0.9917 3.0934
1.5228 1.0326 3.2345
1.4318 1.0086 3.1262
1.5908 0.8917 3.0397
1.5831 0.8917 2.9386
1.6011 0.9917 2.8398
1.5574 0.9168 2.8360
1.5549 0.8917 2.8647
1.5980 1.0917 3.2410
1.6048 1.1917 3.2416
1.6003 1.0917 2.8397
1.6086 1.2917 3.2420
1.6027 1.2917 3.0909
1.5928 1.1917 2.8391
1.5874 1.2917 2.9390
1.5961 1.2917 2.8394
-1.7966 2.8917 3.3145
-1.6953 3.0922 3.3162
-1.7963 3.0918 3.3113
-1.5958 3.0920 3.3211
-1.4954 3.0922 3.3259
-1.3968 2.8917 3.3340
-1.3965 3.0921 3.3308
-1.3923 3.1361 3.2826
-1.4919 3.1353 3.2739
-1.3968 2.8917 3.3340
-0.9969 2.8917 3.3535
-1.2948 3.0925 3.3357
-1.3965 3.0921 3.3308
-1.2927 3.0917 3.2912
-1.3923 3.1361 3.2826
-1.1930 3.1295 3.2999
-0.9938 3.1334 3.3172
-1.0848 3.1661 3.2089
-1.1844 3.1672 3.2002
-0.9967 3.0918 3.3502
-0.9851 3.1409 3.2175
-0.9969 2.8917 3.3535
-0.9967 3.0918 3.3502
-0.9938 3.1334 3.3172
-0.9851 3.1409 3.2175
-0.8769 3.1429 3.1266
-0.9765 3.1509 3.1179
-0.6949 3.1233 3.3431
-0.6863 3.1498 3.2435
-0.7772 3.1459 3.1352
-0.6968 3.0918 3.3648
-0.6776 3.1506 3.1439
-0.5971 2.8917 3.3729
-0.5967 3.1920 3.3681
-0.5953 3.1917 3.3518
-0.5866 3.1523 3.2521
-0.5780 3.1491 3.1525
-0.5971 2.8917 3.3729
-0.4968 3.0918 3.3746
-0.5967 3.1920 3.3681
-0.5953 3.1917 3.3518
-0.5866 3.1523 3.2521
-0.4784 3.1570 3.1612
-0.5780 3.1491 3.1525
-0.3466 3.1103 3.3816
-0.2878 3.1631 3.2781
-0.2705 3.1277 3.0788
-0.3701 3.0917 3.0702
-0.4697 3.1438 3.0615
-0.1795 3.1499 3.1871
-0.1973 2.8917 3.3924
-0.1971 3.0680 3.3895
-0.1969 3.1683 3.3879
-0.1708 3.1319 3.0875
-0.4441 0.4917 0.4540
-0.3480 0.4917 0.5028
-0.3503 0.5917 0.5300
-0.4457 0.5917 0.4725
-0.3464 0.6917 0.4852
-0.4457 0.6917 0.4721
-0.3618 0.7917 0.6619
-0.4614 0.7917 0.6532
-0.3531 0.7917 0.5622
-0.4527 0.7917 0.5536
-0.3791 0.9917 0.8611
-0.4700 0.8917 0.7529
-0.3744 0.8917 0.8078
-0.4752 0.9917 0.8127
-0.4700 0.7917 0.7529
-0.4614 0.7917 0.6532
-0.4700 0.8917 0.7529
-0.3704 0.7917 0.7615
-0.3618 0.7917 0.6619
-0.3744 0.8917 0.8078
-0.2176 0.8917 0.9755
-0.2014 0.9917 0.9769
-0.1798 0.8917 0.8784
-0.1852 0.9917 0.9401
0.0194 0.8917 0.8957
-0.0856 0.9917 0.9490
0.0139 0.9917 0.9590
-0.2708 0.7917 0.7701
-0.3704 0.7917 0.7615
-0.2621 0.7917 0.6705
-0.3618 0.7917 0.6619
-0.2967 0.8041 1.0690
-0.3964 0.8027 1.0604
-0.2881 0.7974 0.9694
-0.3504 0.8917 0.9640
-0.3913 0.8917 1.0018
-0.2794 0.7917 0.8698
-0.3631 0.8917 0.8625
-0.3704 0.7917 0.7615
-0.3744 0.8917 0.8078
-0.2176 0.8917 0.9755
-0.1798 0.8917 0.8784
-0.2711 0.5917 0.4690
-0.2448 0.6398 0.4713
-0.3503 0.5917 0.5300
-0.2466 0.6917 0.4920
-0.3464 0.6917 0.4852
-0.2621 0.7917 0.6705
-0.3618 0.7917 0.6619
-0.2535 0.7917 0.5709
-0.3531 0.7917 0.5622
-0.2269 0.5917 0.4728
-0.1519 0.5917 0.5569
-0.0469 0.6917 0.5039
-0.1452 0.7917 0.4799
-0.1539 0.8156 0.5795
-0.0516 0.5917 0.5575
0.0454 0.4917 0.5968
-0.0542 0.4917 0.5882
0.0482 0.5917 0.5640
0.0527 0.6917 0.5130
0.0540 0.7917 0.4972
0.5022 0.3932 3.4668
0.5988 0.3923 3.4715
0.5990 0.4917 3.4699
0.5012 0.4917 3.4652
1.4306 0.8917 2.6242
1.3754 0.9216 2.6195
1.4592 0.8917 2.5264
1.3841 0.9229 2.5198
1.4924 0.8917 2.4289
1.3927 0.9149 2.4202
1.1049 0.6917 2.2667
1.2037 0.6917 2.2847
1.2037 0.7917 2.2856
1.1045 0.7917 2.2719
1.1025 0.8917 2.2946
1.3041 0.6917 2.2849
1.4038 0.6917 2.2927
1.4030 0.7917 2.3019
1.4014 0.8917 2.3206
1.5023 0.6917 2.3138
1.5029 0.7917 2.3074
1.4924 0.8917 2.4289
1.5010 0.8546 2.3292
1.0939 0.9266 2.3943
0.9942 0.9462 2.3856
1.1025 0.8917 2.2946
1.0029 0.8969 2.2860
1.0039 0.8917 2.2743
0.9075 0.6917 2.2281
1.0054 0.6917 2.2573
0.9051 0.7917 2.2557
1.0039 0.8917 2.2743
0.9045 0.8917 2.2625
1.1049 0.6917 2.2667
1.1045 0.7917 2.2719
1.1025 0.8917 2.2946
1.1935 0.9231 2.4029
1.0939 0.9266 2.3943
1.1025 0.8917 2.2946
1.2931 0.9186 2.4116
1.3927 0.9149 2.4202
1.4014 0.8917 2.3206
1.4924 0.8917 2.4289
0.5995 0.8917 3.4635
0.7005 0.9921 3.4668
0.5997 0.9921 3.4619
0.8000 0.9919 3.4716
0.8993 0.9917 3.4765
0.9993 0.8917 3.4830
0.9995 0.9916 3.4814
-0.1536 1.0917 3.4905
-0.2054 1.1917 3.4860
-0.2022 1.0917 3.4482
-0.1779 1.2917 3.4884
-0.2054 1.1917 3.4860
-0.1995 1.2917 3.4181
0.2999 0.8917 3.4489
0.3996 0.8917 3.4538
0.4003 0.9920 3.4522
0.2979 0.9917 3.4696
0.5001 0.9919 3.4570
0.5995 0.8917 3.4635
0.5997 0.9921 3.4619
0.2997 0.7918 3.4505
0.4001 0.7920 3.4554
0.3996 0.8917 3.4538
0.2999 0.8917 3.4489
0.4999 0.7920 3.4603
0.5012 0.4917 3.4652
0.5990 0.4917 3.4699
0.5005 0.5923 3.4635
0.5490 0.6920 3.4643
0.5006 0.6470 3.4469
0.5993 0.6922 3.4667
0.4993 0.6918 3.4619
0.5995 0.8917 3.4635
1.1070 0.2917 3.3992
1.0082 0.2917 3.3807
1.1092 0.3917 3.3737
1.0108 0.3917 3.3508
1.1080 0.4917 3.3877
1.0088 0.4917 3.3743
0.5990 0.4917 3.4699
0.7998 0.4917 3.4797
0.5995 0.8917 3.4635
0.9038 0.4917 3.4268
0.9010 0.5926 3.4830
0.9011 0.7925 3.4798
0.9725 0.4917 3.3875
1.0088 0.4917 3.3743
1.0088 0.5917 3.3736
1.0088 0.6917 3.3740
1.0100 0.7917 3.3599
1.0074 0.8134 3.3905
0.9993 0.8917 3.4830
0.5988 0.3923 3.4715
0.6998 0.3922 3.4765
0.7998 0.4917 3.4797
0.5990 0.4917 3.4699
0.7997 0.3921 3.4813
0.8045 0.2917 3.4149
0.9077 0.2917 3.3819
0.9039 0.3917 3.4261
0.9038 0.4917 3.4268
1.0082 0.2917 3.3807
1.0108 0.3917 3.3508
0.9725 0.4917 3.3875
1.0088 0.4917 3.3743
0.9993 0.8917 3.4830
0.9999 1.2917 3.4765
1.3997 1.2917 3.4960
1.1988 0.9915 3.4911
1.2001 0.8917 3.4927
1.2990 0.9916 3.4959
1.4009 0.9917 3.4827
1.3994 1.0917 3.4992
1.0088 0.4917 3.3743
1.1080 0.4917 3.3877
1.1091 0.5917 3.3745
1.0088 0.5917 3.3736
1.1082 0.6917 3.3849
1.0088 0.6917 3.3740
1.1070 0.7436 3.3992
1.1063 0.7917 3.4067
1.0100 0.7917 3.3599
1.0074 0.8134 3.3905
1.1004 0.8917 3.4879
0.9993 0.8917 3.4830
1.4169 0.9917 3.1249
1.4318 1.0086 3.1262
1.4232 0.9917 3.2259
1.4347 0.9917 3.0934
-0.1973 2.8917 3.3924
-0.0971 3.0917 3.3940
-0.1971 3.0439 3.3899
-0.0593 3.1403 3.2477
-0.1969 3.1683 3.3879
-0.1795 3.1499 3.1871
-0.0712 3.0917 3.0961
-0.1708 3.1319 3.0875
0.2028 3.0920 3.4086
0.0284 3.0917 3.1048
0.2104 3.1441 3.3213
0.2190 3.1729 3.2217
0.1280 3.1331 3.1134
0.2025 2.8917 3.4118
0.2277 3.0917 3.1221
0.2025 2.8917 3.4118
0.2028 3.0920 3.4086
0.2104 3.1441 3.3213
0.2190 3.1729 3.2217
0.3273 3.1615 3.1307
0.2277 3.0917 3.1221
0.6023 2.8917 3.4313
0.6175 3.1573 3.2563
0.4269 3.1450 3.1394
0.6026 3.0920 3.4281
0.5092 3.1228 3.3473
0.5265 3.1508 3.1480
0.6089 3.1528 3.3559
0.6262 3.1607 3.1567
1.0021 2.8917 3.4508
1.0024 3.0921 3.4475
1.0074 3.1369 3.3905
1.2153 3.1917 3.3082
1.0160 3.1685 3.2909
1.1243 3.1650 3.1999
1.0247 3.1635 3.1913
1.4022 3.0919 3.4670
1.2043 3.1925 3.4557
1.2239 3.1461 3.2086
1.3062 3.1715 3.4165
1.3149 3.1724 3.3168
1.2153 3.1917 3.3082
1.4020 2.8917 3.4702
1.4059 3.1500 3.4251
1.4145 3.1756 3.3255
0.6023 2.8917 3.4313
0.6026 3.0920 3.4281
0.7127 3.1917 3.3162
0.6089 3.1528 3.3559
0.6708 3.1917 3.2609
0.6175 3.1573 3.2563
0.7258 3.1659 3.1653
0.6262 3.1607 3.1567
0.7225 3.1917 3.2035
0.9077 3.1519 3.3819
0.7770 3.1917 3.2701
0.8254 3.1374 3.1740
1.0024 3.0921 3.4475
1.0247 3.1635 3.1913
0.9250 3.1616 3.1826
1.0021 2.8917 3.4508
1.0074 3.1369 3.3905
1.0160 3.1685 3.2909
1.0010 2.0917 3.4636
1.4008 2.0917 3.4831
1.4014 2.4917 3.4767
1.0016 2.4917 3.4572
1.0016 2.4917 3.4572
1.4014 2.4917 3.4767
1.4020 2.8917 3.4702
1.0021 2.8917 3.4508
0.9999 1.2917 3.4765
1.3997 1.2917 3.4960
1.4003 1.6917 3.4895
1.0005 1.6917 3.4701
-0.1779 1.2917 3.4884
-0.1692 1.3917 3.4891
-0.1995 1.2917 3.4181
-0.1994 1.3917 3.4165
-0.1983 2.1920 3.4036
0.2015 2.1918 3.4231
-0.1979 2.4917 3.3988
0.1019 2.2918 3.4166
0.2020 2.4917 3.4183
-0.1979 2.4917 3.3988
0.2020 2.4917 3.4183
0.2025 2.8917 3.4118
-0.1973 2.8917 3.3924
0.2016 2.1918 3.4231
0.3020 2.1920 3.4280
0.2020 2.4917 3.4183
0.4024 2.1922 3.4329
0.5020 2.1920 3.4377
0.6013 2.1921 3.4426
0.6018 2.4917 3.4377
0.2020 2.4917 3.4183
0.6018 2.4917 3.4377
0.6023 2.8917 3.4313
0.2025 2.8917 3.4118
0.6018 2.4917 3.4377
1.0016 2.4917 3.4572
1.0021 2.8917 3.4508
0.6023 2.8917 3.4313
0.6013 2.1921 3.4426
0.7020 2.1920 3.4475
0.6018 2.4917 3.4377
0.8005 2.1914 3.4523
0.9013 2.1918 3.4572
1.0000 2.0917 3.4636
1.0010 2.0913 3.4636
0.9010 2.0917 3.4588
1.0016 2.4917 3.4572
1.0005 1.6917 3.4701
1.4003 1.6917 3.4895
1.4008 2.0917 3.4831
1.0010 2.0917 3.4636
-1.0721 0.8917 3.0632
-0.9734 0.8917 3.0818
-0.9752 0.9917 3.1036
-1.0750 0.9917 3.0962
-0.9765 0.9984 3.1179
-1.0761 0.9979 3.1093
-1.0705 0.7917 3.0442
-0.9720 0.7917 3.0662
-0.9734 0.8917 3.0818
-1.0721 0.8917 3.0632
-0.9720 0.7917 3.0662
-0.8729 0.7917 3.0815
-0.8742 0.8917 3.0959
-0.9734 0.8917 3.0818
-0.7772 0.8917 3.1352
-0.7756 0.7917 3.1167
-0.6776 0.7917 3.1439
-0.6803 0.8917 3.1743
-0.6132 0.7917 3.3502
-0.6111 0.8917 3.3504
-0.5982 0.7917 3.3852
-0.5966 0.8917 3.3666
-0.6265 0.7917 3.2487
-0.6253 0.8917 3.2488
-0.6863 0.9917 3.2435
-0.7772 0.8917 3.1352
-0.6803 0.8917 3.1743
-0.7835 0.9917 3.2071
-0.7945 1.0356 3.3345
-0.5996 1.0920 3.4019
-0.7988 1.0921 3.3922
-0.7859 1.0035 3.2348
-0.7988 1.1920 3.3906
-0.7991 1.2917 3.3890
-0.6111 0.8917 3.3504
-0.5953 0.9917 3.3518
-0.5966 0.8917 3.3666
-0.6253 0.8917 3.2488
-0.5994 1.2917 3.3987
-0.5982 0.7917 3.3852
-0.5007 0.7915 3.4116
-0.5002 0.8917 3.4100
-0.5966 0.8917 3.3666
-0.4011 0.7913 3.4164
-0.3014 0.7912 3.4213
-0.2002 0.7913 3.4262
-0.2001 0.8917 3.4246
-0.5966 0.8917 3.3666
-0.5002 0.8917 3.4100
-0.5953 0.9917 3.3518
-0.5996 1.0920 3.4019
-0.5994 1.2917 3.3987
-0.2000 0.9918 3.4230
-0.2989 1.1921 3.4149
-0.2001 0.8917 3.4246
-0.2022 1.0917 3.4482
-0.2054 1.1917 3.4860
-0.1995 1.2917 3.4181
3 0 4 3
3 1 2 5
3 2 7 5
3 7 6 5
3 6 7 8
3 8 7 9
3 1 5 10
3 5 11 10
3 11 5 12
3 12 5 6
3 13 15 16
3 15 14 16
3 17 18 19
3 19 18 20
3 18 21 22
3 18 22 20
3 24 23 25
3 25 23 26
3 28 31 30
3 28 30 27
3 27 30 29
3 32 30 33
3 29 30 32
3 34 30 31
3 33 34 35
3 30 34 33
3 37 36 34
3 35 36 38
3 34 36 35
3 39 33 40
3 40 33 35
3 42 41 43
3 44 42 43
3 45 42 44
3 45 47 48
3 47 46 48
3 45 48 49
3 56 53 52
3 56 52 55
3 55 52 54
3 54 57 55
3 55 57 58
3 50 58 59
3 58 57 59
3 50 59 51
3 50 51 60
3 62 61 63
3 63 61 64
3 65 67 66
3 66 67 68
3 69 72 71
3 69 71 70
3 70 71 63
3 62 63 71
3 63 65 70
3 67 65 63
3 73 72 69
3 75 74 76
3 75 76 77
3 77 76 78
3 77 78 79
3 79 78 80
3 82 86 83
3 85 84 87
3 83 88 90
3 83 90 82
3 88 89 90
3 85 90 84
3 89 84 90
3 81 75 77
3 81 77 91
3 84 75 81
3 92 75 84
3 89 92 84
3 93 92 89
3 94 77 79
3 94 79 95
3 96 83 86
3 88 83 96
3 97 91 77
3 94 99 77
3 99 97 77
3 98 101 94
3 98 94 100
3 94 101 99
3 103 102 104
3 104 102 97
3 104 97 105
3 106 105 99
3 105 97 99
3 109 107 110
3 112 111 113
3 112 113 110
3 110 113 109
3 115 111 112
3 114 111 115
3 116 108 107
3 109 116 107
3 117 118 119
3 120 119 121
3 118 124 119
3 119 124 125
3 119 125 121
3 121 125 122
3 122 125 123
3 125 127 128
3 125 128 123
3 123 128 129
3 123 129 126
3 126 129 130
3 129 131 130
3 130 131 132
3 133 134 135
3 135 134 136
3 135 136 137
3 137 136 138
3 134 139 136
3 136 139 140
3 136 140 138
3 139 141 140
3 140 141 142
3 140 142 143
3 145 144 147
3 145 147 146
3 150 149 148
3 149 150 151
3 151 150 152
3 148 153 150
3 150 153 152
3 148 145 154
3 154 145 146
3 155 154 146
3 155 156 154
3 154 158 157
3 156 158 154
3 149 159 148
3 148 154 153
3 153 154 157
3 160 161 162
3 162 161 163
3 162 163 164
3 164 163 165
3 164 165 166
3 166 165 167
3 166 167 168
3 168 167 169
3 161 171 163
3 170 171 161
3 167 172 169
3 169 172 173
3 174 175 176
3 177 178 179
3 179 178 180
3 182 181 183
3 183 181 184
3 186 185 187
3 186 187 188
3 188 187 189
3 190 185 182
3 183 190 182
3 191 187 190
3 187 185 190
3 193 187 191
3 193 192 187
3 192 189 187
3 190 195 194
3 190 183 195
3 195 183 196
3 198 197 199
3 199 197 200
3 202 201 198
3 198 201 197
3 201 204 203
3 202 204 201
3 203 204 205
3 204 206 205
3 199 202 198
3 207 204 202
3 207 208 204
3 208 206 204
3 209 202 199
3 207 202 210
3 202 209 210
3 207 210 208
3 210 209 211
3 210 211 212
3 213 214 215
3 215 214 216
3 218 217 219
3 219 217 220
3 219 221 218
3 222 221 223
3 221 219 223
3 223 219 225
3 223 225 224
3 226 219 220
3 219 227 225
3 226 227 219
3 227 228 225
3 229 228 227
3 231 230 232
3 232 230 233
3 232 233 234
3 234 233 235
3 237 231 236
3 232 236 231
3 238 232 234
3 238 234 239
3 241 242 240
3 243 244 242
3 245 247 246
3 248 247 245
3 249 250 251
3 250 252 251
3 254 255 253
3 256 255 254
3 257 259 258
3 260 259 257
3 262 263 261
3 261 263 264
3 266 267 265
3 257 269 260
3 269 268 260
3 269 270 271
3 257 270 269
3 271 272 273
3 270 272 271
3 273 274 275
3 272 274 273
3 278 276 277
3 276 281 279
3 276 279 277
3 277 279 280
3 283 282 284
3 284 282 285
3 287 286 288
3 289 287 288
3 291 290 289
3 291 289 292
3 292 289 288
3 294 293 295
3 295 293 296
3 298 297 299
3 301 298 299
3 301 299 300
3 302 301 300
3 303 302 304
3 304 302 300
3 306 305 307
3 307 305 308
3 310 309 311
3 311 309 312
3 314 313 315
3 314 315 322
3 322 315 316
3 322 316 317
3 322 317 318
3 319 314 320
3 313 314 319
3 321 314 322
3 314 321 320
3 329 323 324
3 329 324 325
3 325 326 327
3 327 326 328
3 330 329 325
3 327 331 330
3 327 330 325
3 331 327 332
3 334 333 335
3 334 335 336
3 336 337 334
3 338 337 336
3 339 333 334
3 334 340 341
3 334 341 339
3 334 337 340
3 342 333 339
3 344 343 345
3 345 343 346
3 348 347 349
3 349 347 350
3 352 351 353
3 353 351 354
3 353 354 355
3 357 353 358
3 352 353 357
3 358 353 355
3 360 358 356
3 356 358 355
3 359 358 360
3 360 356 361
3 362 363 364
3 364 363 365
3 366 367 368
3 368 367 369
3 373 369 370
3 373 370 371
3 373 371 372
3 374 371 370
3 367 375 369
3 369 375 376
3 369 376 370
3 370 376 377
3 374 377 378
3 370 377 374
3 379 380 381
3 382 384 383
3 380 386 385
3 381 380 385
3 382 381 387
3 387 381 385
3 384 382 387
3 385 388 389
3 385 389 387
3 387 389 390
3 388 391 389
3 390 389 392
3 391 393 394
3 391 394 389
3 392 389 395
3 392 395 396
3 397 398 399
3 399 398 400
3 399 400 401
3 401 400 402
3 401 402 403
3 403 402 404
3 400 405 402
3 402 405 406
3 402 406 404
3 405 407 406
3 406 407 408
3 407 409 408
3 408 409 410
3 414 411 412
3 413 411 414
3 414 415 413
3 413 415 416
3 417 420 418
3 417 418 419
3 418 416 419
3 421 422 423
3 423 422 424
3 423 424 425
3 425 424 426
3 427 425 428
3 425 426 428
3 422 411 424
3 424 411 413
3 424 413 426
3 426 413 429
3 430 429 413
3 430 413 416
3 418 420 431
3 430 416 431
3 430 431 432
3 418 431 416
3 433 434 435
3 435 434 436
3 434 437 436
3 439 438 440
3 439 440 441
3 439 442 438
3 442 444 443
3 439 441 445
3 445 441 446
3 439 447 442
3 447 444 442
3 448 439 445
3 439 448 447
3 449 447 450
3 452 451 450
3 450 451 449
3 451 453 449
3 447 448 450
3 452 450 448
3 456 455 457
3 457 455 458
3 454 459 460
3 459 457 460
3 457 458 460
3 457 461 456
3 464 465 462
3 464 462 463
3 463 462 461
3 457 459 466
3 467 457 466
3 457 467 461
3 461 467 468
3 461 468 463
3 467 469 468
3 468 469 470
3 468 470 471
3 471 470 472
3 471 472 473
3 475 474 476
3 479 474 477
3 477 474 475
3 478 479 477
3 480 479 478
3 480 478 482
3 481 480 482
3 484 483 485
3 485 483 486
3 485 486 488
3 487 485 488
3 489 485 487
3 490 485 489
3 490 489 491
3 489 492 491
3 493 484 485
3 493 485 490
3 490 491 494
3 498 500 499
3 506 495 496
3 501 496 497
3 501 497 502
3 497 498 502
3 502 498 503
3 498 499 503
3 504 506 496
3 504 496 501
3 502 503 505
3 507 506 504
3 501 508 507
3 501 507 504
3 508 501 509
3 501 502 509
3 509 502 510
3 502 505 510
3 512 511 513
3 514 512 513
3 514 515 512
3 512 515 516
3 515 517 516
3 518 512 519
3 519 512 520
3 512 516 520
3 520 516 521
3 516 522 521
3 518 511 512
3 519 520 523
3 518 525 524
3 518 524 511
3 525 518 526
3 526 518 519
3 526 519 523
3 523 520 527
3 529 528 530
3 530 528 531
3 530 531 532
3 532 531 533
3 534 536 535
3 535 536 537
3 536 533 537
3 532 533 536
3 538 540 541
3 540 539 541
3 545 546 542
3 542 546 543
3 545 542 547
3 547 542 544
3 550 549 551
3 548 549 550
3 552 550 553
3 553 550 551
3 554 552 553
3 555 557 556
3 556 557 558
3 562 563 560
3 562 560 561
3 561 560 559
3 561 564 562
3 562 564 565
3 564 567 565
3 566 567 564
3 561 568 569
3 561 569 564
3 571 570 572
3 571 572 573
3 573 572 574
3 575 577 576
3 576 577 578
3 577 574 578
3 573 574 577
3 579 571 573
3 579 573 580
3 580 573 581
3 577 582 573
3 582 581 573
3 577 583 582
3 584 580 581
3 586 587 585
3 584 587 586
3 587 584 588
3 588 584 581
3 588 581 589
3 589 581 582
3 591 590 592
3 592 590 593
3 596 595 594
3 597 595 596
3 598 597 596
3 599 597 598
3 601 600 602
3 602 600 603
3 602 603 604
3 605 601 602
3 605 602 604
3 606 605 607
3 608 605 604
3 607 605 608
3 609 606 610
3 610 606 607
3 608 611 612
3 612 607 608
3 610 607 612
3 615 616 613
3 616 614 613
3 615 617 616
3 618 620 621
3 621 620 622
3 623 619 624
3 624 619 618
3 625 624 621
3 624 618 621
3 626 628 627
3 629 628 626
3 630 628 629
3 631 628 630
3 632 631 630
3 634 633 635
3 636 633 634
3 637 638 636
3 638 633 636
3 639 638 637
3 640 642 641
3 644 645 643
3 647 646 648
3 648 646 649
3 650 647 648
3 651 650 652
3 647 650 651
3 654 653 655
3 655 653 656
3 657 654 655
3 659 658 660
3 661 660 662
3 661 663 660
3 663 659 660
3 657 661 664
3 663 657 665
3 661 657 663
3 657 655 665
3 666 667 668
3 667 669 668
3 668 669 670
3 670 669 671
3 673 672 674
3 675 673 676
3 676 673 677
3 677 673 674
3 676 678 675
3 679 678 680
3 681 678 676
3 677 681 676
3 678 681 680
3 682 681 677
3 683 682 677
3 683 677 684
3 684 677 674
3 686 685 687
3 687 685 688
3 689 686 687
3 691 690 692
3 692 690 689
3 692 689 693
3 693 689 687
3 692 694 691
3 696 694 692
3 693 696 692
3 695 696 697
3 694 696 695
3 701 702 699
3 702 698 699
3 701 699 700
3 701 700 703
3 700 705 703
3 705 704 703
3 707 706 708
3 708 706 709
3 708 709 710
3 710 709 711
3 712 714 713
3 712 710 714
3 710 711 714
3 713 715 717
3 713 717 716
3 713 714 715
3 720 719 718
3 718 719 721
3 724 723 722
3 723 724 726
3 723 726 725
3 726 727 725
3 725 727 728
3 727 729 728
3 723 735 722
3 735 723 730
3 730 723 725
3 725 728 731
3 732 730 725
3 732 725 733
3 733 725 734
3 725 731 734
3 733 734 736
3 740 742 741
3 743 737 738
3 739 740 744
3 744 740 745
3 740 741 745
3 746 743 738
3 746 738 739
3 747 746 739
3 747 739 744
3 744 745 748
3 749 746 747
3 749 747 744
3 744 748 750
3 752 753 754
3 753 755 754
3 754 755 756
3 755 757 756
3 764 751 758
3 758 751 752
3 752 759 758
3 754 759 752
3 754 756 760
3 759 761 758
3 761 763 762
3 759 763 761
3 765 758 761
3 765 761 766
3 761 762 766
3 769 768 770
3 769 772 771
3 769 770 772
3 771 773 775
3 771 772 773
3 772 774 773
3 782 767 768
3 776 768 769
3 777 776 769
3 775 773 777
3 773 778 777
3 779 782 768
3 779 768 776
3 776 777 780
3 780 777 781
3 777 778 781
3 783 779 776
3 783 776 784
3 776 780 784
3 786 785 787
3 787 785 788
3 790 789 791
3 791 789 792
3 794 793 795
3 795 793 796
3 797 800 798
3 799 800 797
3 802 801 803
3 804 802 803
3 805 802 804
3 805 804 803
3 807 806 808
3 808 806 809
3 810 812 811
3 816 811 812
3 813 811 816
3 816 814 813
3 815 814 816
3 818 817 819
3 819 817 820
3 822 821 823
3 823 821 824
3 826 825 827
3 828 826 827
3 828 827 829
3 827 833 829
3 830 833 831
3 830 832 833
3 832 829 833
3 835 834 836
3 836 834 837
3 839 838 840
3 840 838 841
3 842 841 843
3 840 841 842
3 845 844 846
3 846 844 847
3 849 848 850
3 850 848 851
3 852 853 850
3 853 849 850
3 854 852 855
3 854 853 852
3 859 858 856
3 857 859 856
3 856 860 857
3 860 861 857
3 860 855 861
3 854 855 860
3 862 864 865
3 864 863 865
3 868 867 866
3 862 869 866
3 862 865 869
3 867 868 876
3 876 868 870
3 876 870 871
3 873 874 872
3 862 873 875
3 873 872 875
3 875 864 862
3 873 866 867
3 873 862 866
3 878 877 879
3 879 877 880
3 881 878 879
3 882 881 879
3 883 882 884
3 884 882 879
3 886 885 887
3 886 887 888
3 890 886 888
3 890 888 891
3 891 888 889
3 892 886 890
3 894 893 891
3 893 890 891
3 894 891 895
3 891 889 895
