ply
format ascii 1.0
element vertex 957
property float x
property float y
property float z
element face 787
property list uchar int vertex_indices
end_header
-2.0983 1.2917 3.3217
-2.0983 1.2917 3.3217
-2.1979 1.3917 3.3130
-2.1979 1.3917 3.3130
-2.1969 1.2917 3.3015
-2.0967 1.3917 3.3033
-2.0963 1.4917 3.2981
-2.1961 1.4917 3.2916
-2.0958 1.5917 3.2923
-2.1956 1.5917 3.2856
-1.9948 1.2917 3.2856
-1.9925 1.3917 3.2594
-1.9953 1.4917 3.2911
-2.1979 1.3917 3.3130
-2.2934 1.2917 3.2560
-2.1969 1.2917 3.3015
-2.2956 1.3917 3.2817
-0.1577 1.0917 3.4901
-0.2054 1.1917 3.4860
-0.1104 1.0917 3.5475
-0.1122 1.1917 3.5688
-0.1605 1.2917 3.4899
-0.1119 1.2917 3.5645
1.0157 0.4917 0.9822
1.0272 0.5917 0.9832
1.1067 0.4917 1.0905
1.1067 0.6574 1.0905
1.0745 0.4917 0.8869
1.0243 0.5917 0.8826
1.0916 0.6917 1.0892
1.1036 0.6917 1.1263
1.0243 0.6917 0.8826
1.1268 0.5917 0.8581
1.2253 0.6917 0.8805
1.0704 0.6917 1.1877
1.0980 0.7917 1.1901
1.1067 0.7169 1.0905
1.0980 0.4917 1.1901
1.0980 0.5917 1.1901
1.2268 0.5917 0.8631
1.1976 0.7740 1.1988
1.1802 0.7917 1.0969
1.2017 0.7917 1.1521
1.2149 0.7650 0.9995
1.2105 0.7917 1.0501
1.2236 0.7371 0.8999
1.0196 0.5917 1.2837
0.9897 0.6917 1.2811
1.0980 0.5917 1.1901
1.0704 0.6917 1.1877
1.0427 0.6917 1.3861
1.0807 0.7299 1.3894
1.0774 0.6917 1.4274
1.0776 0.7917 1.2887
1.0883 0.7917 1.3015
1.0980 0.7917 1.1901
0.3505 0.3917 0.5505
0.4497 0.3917 0.5641
0.4505 0.4917 0.5552
0.3498 0.4917 0.5593
0.5435 0.1917 0.6401
0.5522 0.1917 0.5405
0.5550 0.2917 0.5075
0.4472 0.1917 0.5932
0.4465 0.2917 0.6014
0.4497 0.3917 0.5641
0.5563 0.3917 0.4922
0.4864 0.4917 0.5348
0.4505 0.4917 0.5552
0.5551 0.4917 0.5069
0.6547 0.2917 0.5150
0.6546 0.3917 0.5167
0.6859 0.2917 0.5521
0.6842 0.3917 0.5519
0.4864 0.4917 0.5348
0.4712 0.5917 0.5334
0.4505 0.4917 0.5552
0.4516 0.5917 0.5430
0.5551 0.4917 0.5069
0.5540 0.5917 0.5189
0.4525 0.6917 0.5318
0.5540 0.6917 0.5189
0.5435 0.7284 0.6401
0.4598 0.7917 0.6328
0.5522 0.7134 0.5405
0.4614 0.7917 0.5326
0.1191 0.8917 0.9044
0.2100 0.7995 1.0126
0.1392 0.8917 1.0065
0.2187 0.7981 0.9130
0.3010 0.8035 1.1209
0.2014 0.8321 1.1123
0.3097 0.8002 1.0213
0.3183 0.8075 0.9217
0.2273 0.7917 0.8134
0.3270 0.8081 0.8220
0.2359 0.7924 0.7138
0.3351 0.8054 0.7224
0.0194 0.8917 0.8957
0.1191 0.8917 0.9044
0.1138 0.9917 0.9646
0.0139 0.9917 0.9595
0.1018 1.0251 1.1036
0.0021 1.0252 1.0950
0.1104 1.0054 1.0040
0.0108 1.0054 0.9952
0.1847 0.8917 1.1108
0.1381 0.9917 1.1068
0.1392 0.8917 1.0065
1.2268 0.5917 0.8631
1.3257 0.5917 0.8801
1.3254 0.6917 0.8832
1.2253 0.6917 0.8805
1.2161 0.7917 1.2004
1.1976 0.7740 1.1988
1.2017 0.7917 1.1521
0.0525 0.6917 0.5153
0.1522 0.6917 0.5224
0.1537 0.7917 0.5059
0.0540 0.7917 0.4972
0.2619 0.5337 0.4149
0.1965 0.5917 0.4092
0.2957 0.4917 0.3175
0.1933 0.5917 0.3086
0.1623 0.6733 0.4062
0.1710 0.6747 0.3066
0.2446 0.7917 0.6141
0.2513 0.6917 0.5368
0.1450 0.8070 0.6055
0.3268 0.4917 0.5209
0.2533 0.5592 0.5145
0.3498 0.4917 0.5593
0.4516 0.5917 0.5430
0.2480 0.5917 0.5758
0.3003 0.4917 0.4182
0.2359 0.7924 0.7138
0.3529 0.7917 0.5232
0.3351 0.8054 0.7224
0.3443 0.8141 0.6228
0.4505 0.4917 0.5552
0.4525 0.6917 0.5318
0.4533 0.7917 0.5229
1.4015 2.8917 3.4751
1.5031 2.8917 3.4804
1.5031 3.0919 3.4797
1.4016 3.0919 3.4744
1.5055 3.1917 3.4338
1.4059 3.1500 3.4251
1.5031 3.1919 3.4794
1.4278 3.1917 3.3266
1.4145 3.1756 3.3255
1.6029 2.9919 3.4853
1.6099 1.2917 2.8406
1.6314 1.2917 2.4409
1.6044 1.4921 2.8401
1.6098 1.4923 2.7395
1.6071 1.5924 2.7391
1.6124 1.5925 2.6392
1.6178 1.5923 2.5394
1.6232 1.5922 2.4402
1.6150 1.6917 2.5398
1.5920 1.6917 2.4375
1.6314 1.2917 2.4409
1.6422 1.2917 2.2413
1.6394 1.3917 2.2409
1.6367 1.4916 2.2408
1.6232 1.5922 2.4402
1.6286 1.5918 2.3403
1.6339 1.5912 2.2410
1.4011 1.2917 3.4801
1.5006 1.2917 3.4854
1.5722 1.3937 3.4889
1.5009 1.6917 3.4841
1.4012 1.6917 3.4789
1.5776 1.2917 3.4413
1.5735 1.4412 3.4404
1.6033 1.2917 3.4634
1.5884 1.2917 3.2402
1.5666 1.6917 3.4403
1.5774 1.6917 3.2392
1.5884 1.2917 3.2402
1.5910 1.3914 3.1404
1.6099 1.2917 2.8406
1.5964 1.3917 3.0402
1.6018 1.3920 2.9399
1.5774 1.6917 3.2392
1.5883 1.4910 3.1406
1.5990 1.4920 2.9397
1.6044 1.4921 2.8401
1.5855 1.5905 3.1411
1.6311 1.6917 3.1435
1.5841 2.4917 3.2398
1.5802 2.5917 3.2395
1.5972 2.4917 3.1406
1.5505 2.5917 3.1365
1.4014 2.4917 3.4763
1.5017 2.4917 3.4816
1.5031 2.8917 3.4804
1.4015 2.8917 3.4751
1.5542 2.4917 3.4380
1.5837 2.4917 3.3402
1.5962 2.5917 3.3413
1.5841 2.4917 3.2398
1.5802 2.5917 3.2395
1.6122 2.6917 3.3613
1.6138 2.6503 3.3428
1.5482 2.6917 3.2367
1.6150 2.6917 3.3290
1.6138 2.7120 3.3428
1.5706 2.7917 3.3390
1.5677 2.8917 3.3388
1.4013 2.0917 3.4776
1.5017 2.1918 3.4825
1.5017 2.4917 3.4816
1.4014 2.4917 3.4763
1.6025 2.0917 3.4881
1.6138 2.0917 3.3428
1.5774 2.1917 3.2392
1.5774 2.0917 3.2392
1.5609 2.0917 3.3395
1.5787 2.2917 3.3899
1.5727 2.2917 3.2388
1.5779 2.3917 3.2393
1.5542 2.4917 3.4380
1.5837 2.4917 3.3402
1.5841 2.4917 3.2398
1.6121 2.0917 3.4934
1.5719 1.8911 3.2388
1.5692 1.9911 3.2385
1.5773 1.8915 3.1392
1.5745 1.9916 3.1388
1.4012 1.6917 3.4789
1.5009 1.6917 3.4841
1.6025 2.0917 3.4881
1.4013 2.0917 3.4776
1.5666 1.6917 3.4403
1.5625 1.8418 3.4386
1.5774 1.6917 3.2392
1.5568 1.7917 3.2375
1.5719 1.8911 3.2388
1.6051 1.9917 3.4424
1.5637 1.9904 3.3401
1.5692 1.9911 3.2385
1.5774 2.0917 3.2392
1.5609 2.0917 3.3395
1.6138 1.9917 3.3428
1.6121 2.0917 3.4934
1.6138 2.0917 3.3428
-2.7006 0.8917 3.3218
-2.6002 0.8917 3.3214
-2.6006 0.9917 3.3268
-2.6990 0.9917 3.3037
-2.6002 0.8917 3.3214
-2.4986 0.8917 3.3073
-2.6006 0.9917 3.3268
-2.5012 1.0917 3.3376
-2.6012 1.0917 3.3336
-2.3972 0.8917 3.2957
-2.3992 1.0917 3.3191
-2.2976 0.8917 3.3044
-2.2976 1.0917 3.3044
-2.2993 1.1917 3.3239
-2.3987 1.1917 3.3136
-2.1979 0.9487 3.3130
-2.1990 0.9917 3.3258
-2.1979 1.0457 3.3130
-2.1979 1.1917 3.3130
-2.2976 1.2165 3.3044
-2.0983 0.9917 3.3217
-2.1979 0.9487 3.3130
-2.1990 0.9917 3.3258
-2.0983 1.0917 3.3217
-2.1979 1.0457 3.3130
-2.1979 1.1917 3.3130
-2.0983 1.2917 3.3217
-2.2976 0.8917 3.3044
-2.1979 0.9487 3.3130
-2.1960 0.8917 3.2906
-2.1979 1.0457 3.3130
-2.2976 1.0917 3.3044
-2.1971 1.0917 3.3034
-2.1979 1.1917 3.3130
-2.1979 1.1917 3.3130
-2.2976 1.2165 3.3044
-2.1969 1.2917 3.3015
-2.2934 1.2917 3.2560
-2.0983 0.9917 3.3217
-2.1979 0.9487 3.3130
-2.1960 0.8917 3.2906
-2.0921 0.8917 3.2499
-2.0983 1.0917 3.3217
-2.1979 1.0457 3.3130
-2.1971 1.0917 3.3034
-2.1979 1.1917 3.3130
-2.0983 1.2917 3.3217
-2.1979 1.1917 3.3130
-2.1969 1.2917 3.3015
-1.9941 0.8917 3.2772
-1.9963 0.9917 3.3028
-1.9987 1.0917 3.3303
-1.9987 1.0917 3.3303
-2.0983 1.1917 3.3217
-1.9971 1.1917 3.3122
-2.0983 1.2917 3.3217
-1.9948 1.2917 3.2856
-0.1145 1.3532 3.5943
-0.1317 1.3917 3.5928
-0.1165 1.3917 3.6181
-0.1605 1.2917 3.4899
-0.1612 1.3917 3.4898
-0.1119 1.2917 3.5645
-1.7961 2.4917 3.3091
-1.3964 2.4917 3.3300
-1.3963 2.8917 3.3287
-1.7960 2.8917 3.3078
-1.7962 2.1918 3.3101
-1.6958 2.1918 3.3153
-1.7961 2.4917 3.3091
-1.5955 2.1918 3.3206
-1.4961 2.1918 3.3258
-1.3965 2.1918 3.3310
-1.3964 2.4917 3.3300
-1.3964 2.4917 3.3300
-0.9967 2.4917 3.3509
-0.9966 2.8917 3.3496
-1.3963 2.8917 3.3287
-1.3965 2.1918 3.3310
-1.2962 2.1918 3.3362
-1.3964 2.4917 3.3300
-1.1969 2.1917 3.3414
-1.0962 2.1918 3.3467
-0.9968 2.1918 3.3519
-0.9967 2.4917 3.3509
-0.9967 2.4917 3.3509
-0.5970 2.4917 3.3718
-0.5969 2.8917 3.3705
-0.9966 2.8917 3.3496
-0.9968 2.0917 3.3522
-0.5971 2.0917 3.3731
-0.5970 2.4917 3.3718
-0.9967 2.4917 3.3509
-0.7968 1.6917 3.3639
-0.6963 1.6917 3.3692
-0.6963 1.7918 3.3689
-0.7971 1.7917 3.3636
-0.7967 1.8918 3.3633
-0.7968 1.9918 3.3630
-0.7971 2.0917 3.3626
-0.5881 1.6917 3.2686
-0.5888 1.7917 3.2776
-0.5972 1.8918 3.3737
-0.5971 2.0917 3.3731
-0.7971 1.2917 3.3652
-0.7971 1.3917 3.3649
-0.7971 1.4917 3.3645
-0.7969 1.5918 3.3642
-0.6963 1.6917 3.3692
-0.7968 1.6917 3.3639
-0.5974 1.2917 3.3756
-0.5973 1.5918 3.3747
-0.5953 1.6080 3.3518
-0.5881 1.6917 3.2686
-0.5974 1.2917 3.3756
-0.5973 1.5918 3.3747
-0.3975 1.5917 3.3851
-0.5953 1.6080 3.3518
-0.4870 1.6917 3.2608
-0.5881 1.6917 3.2686
-0.2971 1.6917 3.3901
-0.3926 1.6917 3.3296
-0.1977 1.2917 3.3965
-0.1976 1.6917 3.3953
-0.5971 2.0917 3.3731
-0.1974 2.0917 3.3940
-0.1973 2.4917 3.3927
-0.5970 2.4917 3.3718
-0.5970 2.4917 3.3718
-0.1973 2.4917 3.3927
-0.1972 2.8917 3.3915
-0.5969 2.8917 3.3705
-0.5881 1.6917 3.2686
-0.4870 1.6917 3.2608
-0.4885 1.7917 3.2783
-0.5888 1.7917 3.2776
-0.3968 1.8918 3.3842
-0.5972 1.8918 3.3737
-0.5971 2.0917 3.3731
-0.3926 1.6917 3.3296
-0.2971 1.6917 3.3901
-0.1974 2.0917 3.3940
-0.1976 1.6917 3.3953
1.5833 0.3917 2.5371
1.6039 0.4917 2.5389
1.6571 0.3917 2.4432
1.6547 0.4917 2.4430
1.6087 0.2917 2.4390
1.6571 0.3917 2.4432
1.6513 0.2917 2.3423
1.6723 0.2917 2.2437
1.6728 0.3917 2.2438
1.7176 0.3338 2.1473
1.6179 0.3244 2.1386
1.6149 0.2917 2.1739
1.7120 0.3917 2.2118
1.6547 0.4917 2.4430
1.6640 0.4917 2.3434
1.6722 0.4917 2.2437
1.7176 0.4917 2.1473
1.5443 0.8917 2.5337
1.5747 0.8917 2.6368
1.5920 0.9155 2.4375
1.4924 0.9073 2.4289
1.4871 0.8917 2.4891
1.5574 0.8917 2.8360
1.6182 0.9920 2.8413
1.6397 0.9916 2.4416
1.6099 1.2917 2.8406
1.6314 1.2917 2.4409
1.5920 0.9155 2.4375
1.4924 0.9073 2.4289
1.5010 0.8917 2.3292
1.6006 0.8917 2.3379
1.6397 0.9916 2.4416
1.6532 0.8917 2.2427
1.6504 0.9915 2.2421
1.6477 1.0913 2.2421
1.6449 1.1918 2.2413
1.6314 1.2917 2.4409
1.6422 1.2917 2.2413
1.5920 0.6917 2.4375
1.4924 0.6472 2.4289
1.5010 0.6917 2.3292
1.6006 0.6917 2.3379
1.7089 0.7917 2.2469
1.5038 0.7917 2.2968
1.6006 0.8917 2.3379
1.5010 0.8917 2.3292
1.6547 0.4917 2.4430
1.6515 0.5917 2.4427
1.6640 0.4917 2.3434
1.6650 0.5917 2.3435
1.6722 0.4917 2.2437
1.6765 0.5917 2.2441
1.7176 0.4917 2.1473
1.6901 0.5917 2.1449
1.6770 0.6917 2.2441
1.6532 0.8917 2.2427
1.6039 0.4917 2.5389
1.5833 0.5917 2.5371
1.6547 0.4917 2.4430
1.6515 0.5917 2.4427
1.5920 0.6917 2.4375
1.4784 0.9917 3.4314
1.5831 1.0911 3.4412
1.4010 0.9917 3.4811
1.4769 0.9917 3.3309
1.5228 0.9917 3.2345
1.5006 1.2917 3.4854
1.4011 1.2917 3.4801
1.6138 1.0649 3.3428
1.5939 1.0913 3.2407
1.6033 1.2917 3.4634
1.5884 1.2917 3.2402
1.5776 1.2917 3.4413
1.5228 0.9917 3.2345
1.4232 0.9917 3.2259
1.4405 0.8917 3.0266
1.5351 0.8917 3.0932
1.5348 0.9917 3.0963
1.4347 0.9917 3.0934
1.4318 1.0086 3.1262
1.5855 0.8917 3.0392
1.6074 0.9922 3.0406
1.5487 0.8917 2.9356
1.6128 0.9920 2.9409
1.5574 0.8917 2.8360
1.6182 0.9920 2.8413
1.5939 1.0913 3.2407
1.5884 1.2917 3.2402
1.6099 1.2917 2.8406
-1.7960 2.8917 3.3078
-1.6952 3.0918 3.3125
-1.7959 3.0917 3.3072
-1.5957 3.0918 3.3177
-1.4954 3.0918 3.3229
-1.3963 2.8917 3.3287
-1.3962 3.0921 3.3281
-1.3923 3.1361 3.2826
-1.4919 3.1353 3.2739
-1.3963 2.8917 3.3287
-1.2949 3.0919 3.3334
-1.3962 3.0921 3.3281
-1.2927 3.0917 3.2912
-1.3923 3.1361 3.2826
-1.1930 3.1295 3.2999
-0.9938 3.1334 3.3172
-1.0848 3.1661 3.2089
-1.1844 3.1672 3.2002
-0.9966 2.8917 3.3496
-0.9965 3.0918 3.3490
-0.9851 3.1409 3.2175
-0.9966 2.8917 3.3496
-0.9965 3.0918 3.3490
-0.9938 3.1334 3.3172
-0.9851 3.1409 3.2175
-0.8769 3.1429 3.1266
-0.9765 3.1509 3.1179
-0.6949 3.1233 3.3431
-0.6863 3.1498 3.2435
-0.7772 3.1459 3.1352
-0.6968 3.0917 3.3647
-0.6776 3.1506 3.1439
-0.5969 2.8917 3.3705
-0.5968 3.1920 3.3696
-0.5953 3.1917 3.3518
-0.5866 3.1523 3.2521
-0.5780 3.1491 3.1525
-0.5969 2.8917 3.3705
-0.4968 3.0917 3.3751
-0.5968 3.1920 3.3696
-0.5953 3.1917 3.3518
-0.5866 3.1523 3.2521
-0.4784 3.1570 3.1612
-0.5780 3.1491 3.1525
-0.3467 3.1102 3.3829
-0.2878 3.1631 3.2781
-0.2705 3.1277 3.0788
-0.3701 3.0917 3.0702
-0.4697 3.1438 3.0615
-0.1795 3.1499 3.1871
-0.1972 2.8917 3.3915
-0.1972 3.0921 3.3908
-0.1971 3.1683 3.3906
-0.1708 3.1319 3.0875
-0.1061 1.0448 1.1852
-0.2057 1.0448 1.1762
-0.1971 1.0253 1.0777
-0.0064 1.0447 1.1933
0.0021 1.0252 1.0950
-0.6310 0.2917 0.4377
-0.6200 0.3917 0.4387
-0.5409 0.2917 0.4128
-0.5414 0.4917 0.4189
-0.6123 0.4917 0.4394
-0.4416 0.2917 0.4254
-0.4429 0.3917 0.4406
-0.4441 0.4917 0.4540
-0.4441 0.4917 0.4540
-0.3499 0.5917 0.5256
-0.5414 0.4917 0.4189
-0.5420 0.5917 0.4257
-0.5437 0.6917 0.4453
-0.4459 0.6917 0.4746
-0.4614 0.7917 0.6532
-0.4527 0.7917 0.5536
-0.3480 0.4917 0.5037
-0.3470 0.6917 0.4918
-0.3618 0.7917 0.6619
-0.3531 0.7917 0.5622
-0.3791 0.9917 0.8611
-0.4700 0.8917 0.7529
-0.3743 0.8917 0.8066
-0.4751 0.9917 0.8112
-0.4700 0.7917 0.7529
-0.4614 0.7917 0.6532
-0.4700 0.8917 0.7529
-0.3704 0.7917 0.7615
-0.3618 0.7917 0.6619
-0.3743 0.8917 0.8066
-0.3428 0.8917 1.0650
-0.2967 0.9380 1.0690
-0.3597 0.8917 0.9632
-0.3587 0.9917 0.9633
-0.3901 0.8917 0.9888
-0.2927 0.8917 1.0229
-0.3902 0.9917 0.9898
-0.3620 0.8917 0.8626
-0.3791 0.9917 0.8611
-0.3743 0.8917 0.8066
-0.2333 0.9917 1.0745
-0.2182 0.8917 0.9755
-0.1798 0.8917 0.8784
-0.1851 0.9980 0.9399
-0.1971 1.0253 1.0777
0.0194 0.8917 0.8957
-0.0855 0.9979 0.9483
-0.0888 1.0055 0.9866
0.0139 0.9917 0.9595
0.0021 1.0252 1.0950
0.0108 1.0054 0.9952
-0.2708 0.7917 0.7701
-0.3704 0.7917 0.7615
-0.2621 0.7917 0.6705
-0.3618 0.7917 0.6619
-0.3428 0.8917 1.0650
-0.3964 0.8033 1.0604
-0.2881 0.7987 0.9694
-0.3597 0.8917 0.9632
-0.2927 0.8917 1.0229
-0.3901 0.8917 0.9888
-0.2794 0.7973 0.8698
-0.3620 0.8917 0.8626
-0.3743 0.8917 0.8066
-0.2182 0.8917 0.9755
-0.1798 0.8917 0.8784
-0.3166 0.4917 0.4650
-0.2751 0.5917 0.4686
-0.3480 0.4917 0.5037
-0.3499 0.5917 0.5256
-0.2448 0.6396 0.4713
-0.2469 0.6917 0.4947
-0.3470 0.6917 0.4918
-0.2789 0.5917 0.3679
-0.2362 0.6151 0.3716
-0.2621 0.7917 0.6705
-0.3618 0.7917 0.6619
-0.2535 0.7917 0.5709
-0.3531 0.7917 0.5622
-0.1452 0.5917 0.4799
-0.0471 0.6917 0.5059
-0.1452 0.7917 0.4799
-0.1539 0.8071 0.5795
-0.0515 0.5917 0.5570
0.0481 0.5917 0.5660
0.0525 0.6917 0.5153
0.0540 0.7917 0.4972
0.5034 0.3919 3.4361
0.6015 0.3918 3.4412
0.6015 0.4917 3.4409
0.5034 0.4917 3.4358
1.3841 0.9149 2.5198
1.2845 0.9228 2.5112
1.3927 0.9181 2.4202
1.2931 0.9215 2.4116
1.4269 0.8917 2.6239
1.3754 0.9102 2.6195
1.4543 0.8917 2.5259
1.4924 0.9073 2.4289
1.4871 0.8917 2.4891
1.1054 0.6917 2.2610
1.2044 0.6917 2.2772
1.1051 0.7917 2.2652
1.2042 0.8917 2.2791
1.1049 0.8917 2.2675
1.3044 0.6917 2.2819
1.3031 0.8917 2.2970
1.4038 0.6917 2.2933
1.4040 0.7917 2.2904
1.4014 0.8917 2.3206
1.5010 0.6917 2.3292
1.5038 0.7917 2.2968
1.5010 0.8917 2.3292
0.9942 0.9343 2.3856
0.8946 0.9279 2.3770
1.0029 0.9041 2.2860
0.9033 0.9030 2.2773
1.0939 0.9277 2.3943
1.1025 0.9033 2.2946
1.0054 0.8917 2.2568
1.1049 0.8917 2.2675
0.9075 0.6917 2.2281
1.0052 0.6917 2.2589
1.0058 0.7917 2.2525
0.9061 0.7917 2.2440
1.0054 0.8917 2.2568
0.9055 0.8917 2.2517
1.1054 0.6917 2.2610
1.1051 0.7917 2.2652
1.1049 0.8917 2.2675
1.1935 0.9265 2.4029
1.0939 0.9277 2.3943
1.2021 0.9043 2.3033
1.1025 0.9033 2.2946
1.1049 0.8917 2.2675
1.2042 0.8917 2.2791
1.2931 0.9215 2.4116
1.3031 0.8917 2.2970
1.3927 0.9181 2.4202
1.4014 0.8917 2.3206
1.4924 0.9073 2.4289
1.5010 0.8917 2.3292
0.6016 0.8917 3.4396
0.7017 0.9918 3.4445
0.6016 0.9918 3.4393
1.0013 0.8917 3.4605
0.8011 1.0917 3.4494
0.7014 1.0917 3.4442
0.8999 1.0916 3.4546
0.8328 1.0917 3.4757
1.0013 1.0916 3.4599
-0.1577 1.0917 3.4901
-0.2054 1.1917 3.4860
-0.1977 1.0916 3.3972
-0.1605 1.2917 3.4899
-0.2054 1.1917 3.4860
-0.1977 1.2917 3.3965
0.3012 0.8917 3.4239
0.4009 0.8917 3.4291
0.4015 0.9917 3.4288
0.2979 0.9917 3.4696
0.5018 0.9917 3.4341
0.6016 0.8917 3.4396
0.6016 0.9918 3.4393
0.3010 0.7917 3.4242
0.4014 0.7917 3.4295
0.4009 0.8917 3.4291
0.3012 0.8917 3.4239
0.5019 0.7918 3.4347
0.5034 0.4917 3.4358
0.6015 0.4917 3.4409
0.5024 0.5918 3.4354
0.5019 0.6918 3.4350
0.6016 0.8917 3.4396
1.0087 0.2917 3.3750
1.1082 0.2917 3.3856
1.1094 0.3917 3.3715
1.0096 0.3917 3.3647
1.1087 0.4917 3.3797
1.0092 0.4917 3.3698
0.6015 0.4917 3.4409
0.9020 0.4917 3.4566
0.6016 0.8917 3.4396
0.9019 0.7918 3.4556
0.9805 0.4917 3.3882
0.9643 0.5917 3.3868
1.0092 0.4917 3.3698
1.0093 0.5917 3.3680
1.0105 0.6917 3.3548
1.0103 0.7917 3.3565
1.0074 0.8233 3.3905
1.0013 0.8917 3.4605
0.6015 0.3918 3.4412
0.7020 0.3918 3.4465
0.9020 0.4917 3.4566
0.6015 0.4917 3.4409
0.8017 0.3918 3.4517
0.8022 0.2918 3.4520
0.9077 0.2917 3.3819
0.9026 0.3919 3.4569
1.0087 0.2917 3.3750
1.0096 0.3917 3.3647
0.9805 0.4917 3.3882
1.0092 0.4917 3.3698
1.0013 0.8917 3.4605
1.4010 0.8917 3.4814
1.4011 1.2917 3.4801
1.0014 1.2917 3.4592
1.0092 0.4917 3.3698
1.1087 0.4917 3.3797
1.1094 0.5917 3.3714
1.0093 0.5917 3.3680
1.1089 0.6917 3.3774
1.0105 0.6917 3.3548
1.1085 0.7917 3.3820
1.0103 0.7917 3.3565
1.1070 0.8157 3.3992
1.0074 0.8233 3.3905
1.1017 0.8917 3.4658
1.0013 0.8917 3.4605
1.4169 0.9917 3.1249
1.4318 1.0086 3.1262
1.4232 0.9917 3.2259
1.4347 0.9917 3.0934
-0.1972 2.8917 3.3915
-0.0972 3.0917 3.3960
-0.1972 3.0439 3.3910
-0.0593 3.1403 3.2477
-0.1971 3.1683 3.3906
-0.1795 3.1499 3.1871
-0.0712 3.0917 3.0961
-0.1708 3.1319 3.0875
0.2025 3.0920 3.4117
0.0284 3.0917 3.1048
0.2104 3.1441 3.3213
0.2190 3.1729 3.2217
0.1280 3.1331 3.1134
0.2025 2.8917 3.4124
0.2277 3.0917 3.1221
0.2025 2.8917 3.4124
0.2025 3.0920 3.4117
0.2104 3.1441 3.3213
0.2190 3.1729 3.2217
0.3273 3.1615 3.1307
0.2277 3.0917 3.1221
0.6022 2.8917 3.4333
0.6175 3.1573 3.2563
0.4269 3.1450 3.1394
0.6022 3.0920 3.4326
0.5092 3.1228 3.3473
0.5265 3.1508 3.1480
0.6089 3.1528 3.3559
0.6262 3.1607 3.1567
1.0018 2.8917 3.4542
1.0019 3.0922 3.4535
1.0074 3.1369 3.3905
1.2153 3.1917 3.3082
1.0160 3.1685 3.2909
1.1243 3.1650 3.1999
1.0247 3.1635 3.1913
1.4016 3.0919 3.4744
1.2037 3.1919 3.4638
1.2239 3.1461 3.2086
1.3062 3.1715 3.4165
1.3149 3.1724 3.3168
1.2153 3.1917 3.3082
1.4015 2.8917 3.4751
1.4059 3.1500 3.4251
1.4145 3.1756 3.3255
0.6022 2.8917 3.4333
0.6022 3.0920 3.4326
0.7127 3.1917 3.3162
0.6089 3.1528 3.3559
0.6708 3.1917 3.2609
0.6175 3.1573 3.2563
0.7258 3.1659 3.1653
0.6262 3.1607 3.1567
0.7225 3.1917 3.2035
0.9077 3.1519 3.3819
0.7770 3.1917 3.2701
0.8254 3.1374 3.1740
1.0247 3.1635 3.1913
0.9250 3.1616 3.1826
1.0018 2.8917 3.4542
1.0019 3.0922 3.4535
1.0074 3.1369 3.3905
1.0160 3.1685 3.2909
1.0016 2.0917 3.4567
1.4013 2.0917 3.4776
1.4014 2.4917 3.4763
1.0017 2.4917 3.4554
1.0017 2.4917 3.4554
1.4014 2.4917 3.4763
1.4015 2.8917 3.4751
1.0018 2.8917 3.4542
1.0014 1.2917 3.4592
1.4011 1.2917 3.4801
1.4012 1.6917 3.4789
1.0015 1.6917 3.4580
-0.1605 1.2917 3.4899
-0.1612 1.3917 3.4898
-0.1977 1.2917 3.3965
-0.1976 1.3918 3.3962
-0.1649 2.0917 3.3891
-0.1974 2.1918 3.3937
-0.1974 2.0917 3.3940
-0.1974 2.1918 3.3937
0.2023 2.1917 3.4146
-0.1973 2.4917 3.3927
0.2024 2.4917 3.4136
-0.1973 2.4917 3.3927
0.2024 2.4917 3.4136
0.2025 2.8917 3.4124
-0.1972 2.8917 3.3915
0.2021 2.1917 3.4146
0.3024 2.1918 3.4198
0.2024 2.4917 3.4136
0.4027 2.1918 3.4251
0.5027 2.1918 3.4303
0.6020 2.1918 3.4355
0.6020 2.4917 3.4345
0.2024 2.4917 3.4136
0.6020 2.4917 3.4345
0.6022 2.8917 3.4333
0.2025 2.8917 3.4124
0.6020 2.4917 3.4345
1.0017 2.4917 3.4554
1.0018 2.8917 3.4542
0.6022 2.8917 3.4333
0.6020 2.1918 3.4355
0.7022 2.1918 3.4407
0.6020 2.4917 3.4345
0.8016 2.1917 3.4459
0.9021 2.1918 3.4512
1.0005 2.0917 3.4566
1.0016 2.0916 3.4567
0.9014 2.0917 3.4515
1.0017 2.4917 3.4554
1.0015 1.6917 3.4580
1.4012 1.6917 3.4789
1.4013 2.0917 3.4776
1.0016 2.0917 3.4567
-1.1707 0.8917 3.0431
-1.0717 0.8917 3.0581
-1.0736 0.9917 3.0808
-1.1738 0.9917 3.0788
-1.0848 1.0286 3.2089
-1.1844 1.0295 3.2002
-1.1757 0.9977 3.1006
-0.9730 0.8917 3.0775
-0.9753 0.9917 3.1047
-0.9851 1.0151 3.2175
-0.9765 0.9969 3.1179
-1.0689 0.7917 3.0258
-0.9713 0.7917 3.0579
-0.9730 0.8917 3.0775
-1.0717 0.8917 3.0581
-0.9713 0.7917 3.0579
-0.8726 0.7917 3.0778
-0.8745 0.8917 3.0991
-0.9730 0.8917 3.0775
-0.7772 0.8917 3.1352
-0.7756 0.7917 3.1167
-0.6776 0.7917 3.1439
-0.6803 0.8917 3.1743
-0.6132 0.7917 3.3502
-0.6111 0.8917 3.3504
-0.5975 0.7920 3.3772
-0.5975 0.8917 3.3769
-0.6265 0.7917 3.2487
-0.6253 0.8917 3.2488
-0.8769 0.9223 3.1266
-0.9596 0.9917 3.1194
-0.9730 0.8917 3.0775
-0.8745 0.8917 3.0991
-0.9753 0.9917 3.1047
-0.9765 0.9969 3.1179
-0.7772 0.8917 3.1352
-0.6253 0.8917 3.2488
-0.7835 0.9917 3.2071
-0.6964 1.0336 3.3713
-0.7772 0.8917 3.1352
-0.6803 0.8917 3.1743
-0.7962 1.0431 3.3660
-0.7967 1.0918 3.3658
-0.7859 1.0034 3.2348
-0.7970 1.1918 3.3655
-0.7971 1.2917 3.3652
-0.6111 0.8917 3.3504
-0.5966 0.9918 3.3766
-0.5975 0.8917 3.3769
-0.5974 1.2917 3.3756
-0.5975 0.7920 3.3772
-0.4992 0.7916 3.3824
-0.5975 0.8917 3.3769
-0.3995 0.7916 3.3876
-0.2998 0.7915 3.3928
-0.1978 0.7916 3.3981
-0.1978 0.8917 3.3978
-0.5975 0.8917 3.3769
-0.5974 1.2917 3.3756
-0.2977 1.1917 3.3916
-0.1978 0.8917 3.3978
-0.1977 1.0916 3.3972
-0.2054 1.1917 3.4860
-0.1977 1.2917 3.3965
0.1710 0.6747 0.3066
0.0713 0.6505 0.2980
0.1796 0.6740 0.2070
0.1389 0.6917 0.2035
0.0766 0.6917 0.2376
0.0800 0.7068 0.1983
0.2706 0.5170 0.3153
0.1933 0.5917 0.3086
0.2784 0.5917 0.2247
0.2208 0.6917 0.2106
0.2785 0.6917 0.2238
0.2792 0.7000 0.2156
3 0 4 3
3 1 2 5
3 2 7 5
3 7 6 5
3 6 7 8
3 8 7 9
3 1 5 10
3 5 11 10
3 11 5 12
3 12 5 6
3 13 15 16
3 15 14 16
3 17 18 19
3 19 18 20
3 18 21 22
3 18 22 20
3 26 23 25
3 24 23 26
3 23 24 27
3 27 24 28
3 30 29 26
3 26 29 24
3 24 29 28
3 28 29 31
3 32 31 33
3 28 31 32
3 34 36 29
3 35 36 34
3 36 31 29
3 37 38 25
3 25 38 26
3 39 32 33
3 42 41 36
3 42 36 40
3 40 36 35
3 41 44 43
3 41 43 36
3 43 45 36
3 36 45 31
3 45 33 31
3 48 46 49
3 46 47 49
3 52 51 50
3 54 50 51
3 54 53 50
3 53 47 50
3 55 49 53
3 49 47 53
3 57 56 58
3 58 56 59
3 60 63 64
3 60 64 61
3 61 64 62
3 65 62 64
3 62 65 66
3 68 67 65
3 66 67 69
3 65 67 66
3 70 62 71
3 71 62 66
3 72 71 73
3 70 71 72
3 75 74 76
3 77 75 76
3 78 75 79
3 74 75 78
3 80 75 77
3 79 80 81
3 75 80 79
3 85 83 80
3 83 82 80
3 82 84 80
3 86 88 87
3 86 87 89
3 90 92 91
3 91 92 87
3 92 93 87
3 87 93 89
3 94 89 95
3 89 93 95
3 94 97 96
3 95 97 94
3 99 98 100
3 100 98 101
3 102 104 103
3 103 104 105
3 106 108 107
3 108 100 107
3 99 100 108
3 100 102 107
3 104 102 100
3 110 109 111
3 111 109 112
3 114 113 115
3 117 116 118
3 118 116 119
3 120 122 123
3 121 120 123
3 123 124 121
3 125 124 123
3 126 127 118
3 127 117 118
3 126 118 128
3 129 130 133
3 129 133 131
3 131 133 132
3 134 130 129
3 120 130 134
3 122 120 134
3 126 136 127
3 136 133 127
3 135 138 126
3 137 138 135
3 126 138 136
3 139 131 132
3 140 132 133
3 136 140 133
3 140 136 141
3 144 142 145
3 147 146 148
3 147 148 145
3 145 148 144
3 150 146 147
3 149 146 150
3 151 143 142
3 144 151 142
3 152 154 155
3 152 155 153
3 155 156 153
3 153 156 157
3 153 157 158
3 153 158 159
3 158 160 159
3 159 160 161
3 163 162 164
3 164 162 165
3 162 166 167
3 162 167 165
3 165 167 168
3 170 169 171
3 171 169 173
3 171 173 172
3 175 174 176
3 175 176 171
3 171 176 170
3 175 177 174
3 175 179 177
3 175 171 172
3 175 172 178
3 178 179 175
3 180 181 182
3 182 181 183
3 182 183 184
3 180 185 181
3 181 185 186
3 184 187 182
3 182 187 188
3 189 186 185
3 189 185 190
3 191 192 193
3 193 192 194
3 196 195 198
3 196 198 197
3 200 199 201
3 200 201 202
3 202 201 203
3 204 199 196
3 205 201 204
3 201 199 204
3 207 201 205
3 207 206 201
3 206 203 201
3 197 204 196
3 204 209 208
3 204 197 209
3 209 197 210
3 212 211 214
3 212 214 213
3 212 215 211
3 215 217 216
3 212 217 215
3 216 218 219
3 216 217 218
3 217 212 220
3 220 221 217
3 213 220 212
3 220 222 221
3 223 220 213
3 220 223 222
3 222 223 224
3 222 224 225
3 216 226 215
3 227 228 229
3 229 228 230
3 232 231 233
3 233 231 234
3 236 235 232
3 235 236 237
3 233 236 232
3 237 236 239
3 237 239 238
3 240 236 233
3 236 241 239
3 240 241 236
3 241 242 239
3 244 242 241
3 243 242 244
3 245 241 240
3 233 246 240
3 240 246 245
3 245 246 247
3 249 248 250
3 250 248 251
3 252 254 255
3 255 254 256
3 253 252 258
3 258 252 255
3 259 257 253
3 259 253 260
3 260 253 258
3 260 258 261
3 261 258 262
3 263 259 264
3 260 265 264
3 260 264 259
3 266 260 261
3 266 261 267
3 269 270 268
3 272 271 270
3 270 271 268
3 273 274 271
3 275 276 277
3 278 279 280
3 279 281 280
3 283 284 282
3 285 284 283
3 286 288 287
3 289 288 286
3 291 292 290
3 290 292 293
3 295 296 294
3 286 298 289
3 298 297 289
3 286 299 298
3 300 301 302
3 302 303 304
3 301 303 302
3 307 305 306
3 305 310 308
3 305 308 306
3 306 308 309
3 312 311 313
3 313 311 314
3 316 315 317
3 318 316 321
3 321 316 317
3 319 318 321
3 320 319 321
3 323 322 324
3 324 322 325
3 327 326 328
3 329 327 332
3 332 327 328
3 330 329 332
3 331 330 332
3 334 333 335
3 335 333 336
3 338 337 339
3 339 337 340
3 342 341 343
3 343 341 344
3 343 344 351
3 351 344 345
3 351 345 346
3 351 346 347
3 348 343 349
3 342 343 348
3 350 343 351
3 343 350 349
3 358 352 353
3 358 353 354
3 358 354 355
3 358 355 356
3 356 355 357
3 356 360 359
3 356 359 358
3 360 356 361
3 364 363 365
3 365 366 364
3 367 366 365
3 364 362 363
3 364 369 368
3 366 369 364
3 370 362 364
3 364 368 370
3 371 370 368
3 373 372 374
3 374 372 375
3 377 376 378
3 378 376 379
3 381 380 382
3 382 380 383
3 384 383 385
3 382 383 384
3 384 385 386
3 387 381 382
3 387 382 384
3 388 384 389
3 388 387 384
3 389 384 386
3 390 388 389
3 391 392 393
3 393 392 394
3 395 396 397
3 397 396 398
3 402 398 399
3 402 399 400
3 402 400 401
3 403 400 399
3 396 404 398
3 398 404 405
3 398 405 399
3 399 405 406
3 403 406 407
3 399 406 403
3 408 411 412
3 408 410 411
3 413 414 409
3 409 414 415
3 408 409 415
3 410 408 415
3 414 416 415
3 415 416 417
3 418 420 419
3 421 420 418
3 421 418 422
3 421 422 423
3 422 427 423
3 423 427 424
3 424 427 425
3 425 427 426
3 426 427 428
3 430 431 429
3 429 431 432
3 431 433 432
3 434 433 431
3 435 434 436
3 433 434 435
3 437 438 439
3 439 438 440
3 439 440 441
3 441 440 442
3 443 441 444
3 441 442 444
3 438 429 440
3 440 429 432
3 440 432 442
3 442 432 445
3 433 445 432
3 433 435 446
3 447 448 449
3 449 448 450
3 448 451 450
3 453 452 454
3 453 455 452
3 453 454 457
3 457 454 458
3 453 459 455
3 456 455 459
3 456 459 460
3 453 457 461
3 460 459 453
3 460 453 462
3 461 463 453
3 463 462 453
3 467 466 468
3 468 466 469
3 464 470 465
3 468 470 464
3 468 469 470
3 472 471 467
3 468 472 467
3 471 472 473
3 473 472 474
3 473 474 475
3 475 474 476
3 468 464 477
3 468 477 472
3 472 477 479
3 472 479 474
3 474 479 476
3 477 478 479
3 481 480 482
3 485 480 483
3 483 480 481
3 484 485 483
3 486 485 484
3 486 484 488
3 487 486 488
3 490 489 491
3 490 491 493
3 492 490 493
3 498 489 490
3 494 490 492
3 495 490 494
3 495 494 496
3 494 497 496
3 499 498 490
3 499 490 495
3 495 496 500
3 504 506 505
3 512 501 502
3 507 502 503
3 507 503 508
3 503 504 508
3 508 504 509
3 504 505 509
3 510 512 502
3 510 502 507
3 508 509 511
3 513 512 510
3 507 514 513
3 507 513 510
3 514 507 515
3 507 508 515
3 515 508 516
3 508 511 516
3 518 517 519
3 520 518 519
3 520 521 518
3 518 521 522
3 521 523 522
3 524 518 525
3 525 518 526
3 518 522 526
3 526 522 527
3 522 528 527
3 524 517 518
3 525 526 529
3 524 531 530
3 524 530 517
3 531 524 532
3 532 524 525
3 532 525 529
3 529 526 533
3 534 538 535
3 535 538 536
3 537 538 534
3 541 540 542
3 541 539 540
3 540 543 542
3 544 541 545
3 545 541 542
3 546 545 542
3 547 550 548
3 549 550 547
3 548 551 552
3 548 550 551
3 555 547 548
3 556 548 552
3 557 558 553
3 553 558 554
3 558 552 554
3 556 552 558
3 559 561 562
3 561 560 562
3 566 567 563
3 563 567 564
3 566 563 568
3 568 563 565
3 573 572 575
3 573 571 572
3 574 569 570
3 577 572 576
3 572 571 576
3 576 578 577
3 574 570 579
3 574 579 580
3 581 580 582
3 579 582 580
3 583 582 579
3 584 581 585
3 585 581 582
3 588 586 583
3 583 586 582
3 585 582 586
3 587 584 585
3 588 589 586
3 590 592 591
3 591 592 593
3 597 599 595
3 597 595 596
3 594 598 595
3 598 596 595
3 596 600 601
3 597 596 601
3 600 602 601
3 600 590 602
3 590 591 602
3 603 604 596
3 596 604 600
3 606 605 607
3 608 606 607
3 609 606 608
3 609 608 610
3 610 608 611
3 606 613 612
3 609 613 606
3 614 616 615
3 615 616 617
3 616 611 617
3 610 611 616
3 618 609 610
3 618 610 619
3 616 620 610
3 620 619 610
3 616 621 620
3 622 618 619
3 623 622 624
3 624 622 619
3 624 619 625
3 625 619 620
3 627 626 628
3 628 626 629
3 630 632 631
3 631 632 633
3 636 635 634
3 630 635 636
3 638 630 636
3 638 637 630
3 637 632 630
3 639 641 642
3 642 641 643
3 644 640 639
3 644 639 645
3 645 639 642
3 646 644 647
3 648 647 645
3 647 644 645
3 649 646 650
3 646 647 650
3 651 647 648
3 650 647 651
3 652 654 653
3 653 654 655
3 656 657 652
3 652 657 654
3 657 658 654
3 659 658 657
3 661 660 662
3 662 660 663
3 662 663 664
3 664 663 665
3 666 661 667
3 667 661 662
3 667 662 668
3 668 662 664
3 669 671 670
3 670 671 672
3 671 673 672
3 674 673 671
3 675 676 669
3 669 676 671
3 676 674 671
3 678 676 677
3 676 675 677
3 679 678 677
3 680 678 679
3 682 681 683
3 684 681 682
3 684 682 685
3 685 682 686
3 687 685 688
3 687 684 685
3 689 684 687
3 690 692 691
3 694 695 693
3 697 696 698
3 698 696 699
3 697 698 700
3 701 697 702
3 702 697 700
3 704 703 705
3 705 703 706
3 704 705 707
3 709 708 710
3 709 710 711
3 709 711 712
3 712 711 707
3 712 707 705
3 714 713 715
3 715 713 716
3 715 716 717
3 717 716 718
3 720 719 721
3 722 720 721
3 724 723 720
3 722 724 720
3 725 724 726
3 723 724 725
3 727 724 722
3 724 727 726
3 728 727 722
3 729 728 722
3 729 722 730
3 730 722 721
3 732 731 733
3 733 731 734
3 735 732 733
3 737 736 738
3 738 736 735
3 738 735 733
3 738 739 737
3 741 739 738
3 733 741 738
3 740 741 742
3 739 741 740
3 744 743 745
3 745 743 746
3 748 747 749
3 749 747 750
3 749 750 751
3 751 750 752
3 751 752 753
3 753 752 754
3 758 757 755
3 756 758 755
3 755 754 756
3 753 754 755
3 761 760 759
3 759 760 762
3 765 764 763
3 764 765 767
3 764 767 766
3 767 768 766
3 766 768 769
3 768 770 769
3 764 776 763
3 776 764 771
3 771 764 766
3 766 769 772
3 773 771 766
3 773 766 774
3 774 766 775
3 766 772 775
3 774 775 777
3 781 783 782
3 784 778 779
3 780 781 785
3 785 781 786
3 781 782 786
3 787 784 779
3 787 779 780
3 788 787 780
3 788 780 785
3 785 786 789
3 790 787 788
3 790 788 785
3 785 789 791
3 793 794 795
3 794 796 795
3 795 796 797
3 796 798 797
3 805 792 799
3 799 792 793
3 793 800 799
3 795 800 793
3 795 797 801
3 800 802 799
3 802 804 803
3 800 804 802
3 806 799 802
3 806 802 807
3 802 803 807
3 810 809 811
3 810 813 812
3 810 811 813
3 812 814 816
3 812 813 814
3 813 815 814
3 822 808 809
3 817 809 810
3 818 817 810
3 816 814 818
3 814 819 818
3 817 818 820
3 820 818 821
3 818 819 821
3 823 822 809
3 823 809 817
3 824 823 817
3 824 817 825
3 817 820 825
3 827 826 828
3 828 826 829
3 831 830 832
3 832 830 833
3 835 834 836
3 836 834 837
3 838 841 839
3 840 841 838
3 842 844 843
3 846 845 847
3 848 846 847
3 850 849 851
3 851 849 852
3 853 855 854
3 855 856 854
3 857 856 855
3 858 857 859
3 859 857 855
3 861 860 862
3 862 860 863
3 865 864 866
3 866 864 867
3 869 868 870
3 871 869 876
3 876 869 870
3 872 871 876
3 873 876 874
3 873 875 876
3 875 872 876
3 878 877 879
3 879 877 880
3 882 881 883
3 883 881 884
3 886 884 887
3 883 884 886
3 888 882 889
3 889 882 883
3 890 891 885
3 885 891 886
3 891 883 886
3 889 883 891
3 893 892 894
3 894 892 895
3 897 896 898
3 898 896 899
3 900 901 898
3 901 897 898
3 902 900 903
3 902 901 900
3 907 906 904
3 905 907 904
3 904 908 905
3 908 909 905
3 908 903 909
3 902 903 908
3 910 914 911
3 910 913 914
3 913 912 914
3 911 914 915
3 916 913 910
3 919 917 918
3 917 921 918
3 921 920 918
3 923 930 919
3 922 923 919
3 918 924 919
3 924 922 919
3 930 923 925
3 930 925 926
3 928 929 927
3 919 928 917
3 928 927 917
3 928 919 930
3 932 931 933
3 934 932 933
3 935 934 933
3 936 935 937
3 937 935 933
3 940 938 939
3 941 938 942
3 943 942 940
3 942 938 940
3 943 940 944
3 940 939 944
3 948 949 946
3 948 946 947
3 947 946 945
3 948 950 949
3 951 953 952
3 952 947 945
3 952 955 947
3 952 953 955
3 954 947 955
3 955 956 954
