ply
format ascii 1.0
element vertex 864
property float x
property float y
property float z
element face 702
property list uchar int vertex_indices
end_header
-0.1145 1.3492 3.5943
-0.1317 1.3917 3.5928
-0.1165 1.3917 3.6181
-0.1605 1.2917 3.4899
-0.1692 1.3917 3.4891
-0.1122 1.2917 3.5678
1.5833 0.3917 2.5371
1.6239 0.4917 2.5406
1.6630 0.3917 2.4437
1.6528 0.4917 2.4428
1.6262 0.2917 2.4405
1.6630 0.3917 2.4437
1.6518 0.2917 2.3423
1.6782 0.2917 2.2442
1.6806 0.3917 2.2444
1.7176 0.3338 2.1473
1.6179 0.3217 2.1386
1.6152 0.2917 2.1699
1.7115 0.3917 2.2170
1.6528 0.4917 2.4428
1.6666 0.4917 2.3436
1.6772 0.4917 2.2442
1.7176 0.4917 2.1473
1.5328 0.8917 2.7335
1.5660 0.9167 2.7364
1.5747 0.8917 2.6368
1.5487 0.8917 2.5341
1.5920 0.9144 2.4375
1.4924 0.9054 2.4289
1.4891 0.8917 2.4663
1.6157 0.9919 2.8411
1.5574 0.9155 2.8360
1.6395 0.9918 2.4416
1.6101 1.2917 2.8406
1.6339 1.2917 2.4411
1.5920 0.9144 2.4375
1.4924 0.9054 2.4289
1.5010 0.8917 2.3292
1.5966 0.8917 2.3845
1.6395 0.9918 2.4416
1.6474 0.8917 2.3415
1.6533 0.8917 2.2425
1.6514 0.9915 2.2422
1.6496 1.0915 2.2421
1.6477 1.1916 2.2418
1.6339 1.2917 2.4411
1.6458 1.2917 2.2415
1.5920 0.6672 2.4375
1.4924 0.6503 2.4289
1.6006 0.6917 2.3379
1.5010 0.6917 2.3292
1.5028 0.7917 2.3081
1.6474 0.8917 2.3415
1.5010 0.8917 2.3292
1.5966 0.8917 2.3845
1.6528 0.4917 2.4428
1.6516 0.5917 2.4427
1.6666 0.4917 2.3436
1.6772 0.4917 2.2442
1.6789 0.5917 2.2443
1.7176 0.4917 2.1473
1.6912 0.5917 2.1450
1.6702 0.6917 2.2435
1.7089 0.7917 2.2469
1.6533 0.8917 2.2425
1.6239 0.4917 2.5406
1.5833 0.5494 2.5371
1.6528 0.4917 2.4428
1.6516 0.5917 2.4427
1.5857 0.5917 2.5103
1.5920 0.6672 2.4375
1.4658 0.9917 3.4303
1.5840 1.0912 3.3410
1.3993 0.9919 3.5008
1.5760 1.0931 3.4754
1.4670 0.9917 3.3300
1.4232 0.9917 3.2259
1.5912 1.0314 3.2404
1.4995 1.2917 3.5008
1.3997 1.2917 3.4960
1.5863 1.2917 3.2400
1.5743 1.2917 3.4406
1.4232 0.9917 3.2259
1.4405 0.8917 3.0266
1.5351 0.8917 3.0932
1.5351 0.9917 3.0927
1.4347 0.9917 3.0934
1.5912 1.0314 3.2404
1.4318 1.0086 3.1262
1.5869 0.8917 3.0393
1.6038 0.9921 3.0403
1.5487 0.8917 2.9356
1.6157 0.9919 2.8411
1.5574 0.9155 2.8360
1.5863 1.2917 3.2400
1.6101 1.2917 2.8406
-1.0721 0.8917 3.0632
-0.9734 0.8917 3.0818
-0.9752 0.9917 3.1036
-1.0750 0.9917 3.0962
-0.9765 0.9984 3.1179
-1.0761 0.9979 3.1093
-1.0705 0.7917 3.0442
-0.9720 0.7917 3.0662
-0.9734 0.8917 3.0818
-1.0721 0.8917 3.0632
-0.9720 0.7917 3.0662
-0.8729 0.7917 3.0815
-0.8742 0.8917 3.0959
-0.9734 0.8917 3.0818
-0.7772 0.8917 3.1352
-0.7756 0.7917 3.1167
-0.6776 0.7917 3.1439
-0.6803 0.8917 3.1743
-0.6132 0.7917 3.3502
-0.6111 0.8917 3.3504
-0.5982 0.7917 3.3852
-0.5966 0.8917 3.3666
-0.6265 0.7917 3.2487
-0.6253 0.8917 3.2488
-0.6863 0.9917 3.2435
-0.7772 0.8917 3.1352
-0.6803 0.8917 3.1743
-0.7835 0.9917 3.2071
-0.7945 1.0356 3.3345
-0.5996 1.0920 3.4019
-0.7988 1.0921 3.3922
-0.7859 1.0035 3.2348
-0.7988 1.1920 3.3906
-0.7991 1.2917 3.3890
-0.6111 0.8917 3.3504
-0.5953 0.9917 3.3518
-0.5966 0.8917 3.3666
-0.6253 0.8917 3.2488
-0.5994 1.2917 3.3987
-0.5982 0.7917 3.3852
-0.5007 0.7915 3.4116
-0.5002 0.8917 3.4100
-0.5966 0.8917 3.3666
-0.4011 0.7913 3.4164
-0.3014 0.7912 3.4213
-0.2002 0.7913 3.4262
-0.2001 0.8917 3.4246
-0.5966 0.8917 3.3666
-0.5002 0.8917 3.4100
-0.5953 0.9917 3.3518
-0.5996 1.0920 3.4019
-0.5994 1.2917 3.3987
-0.2982 1.1923 3.4149
-0.2000 0.9918 3.4230
-0.2001 0.8917 3.4246
-0.2024 1.0917 3.4511
-0.2054 1.1917 3.4860
-0.1995 1.2917 3.4181
-0.1607 1.0917 3.4899
-0.2054 1.1917 3.4860
-0.1100 1.0917 3.5434
-0.1105 1.1917 3.5487
-0.1605 1.2917 3.4899
-0.1122 1.2917 3.5678
-1.7966 2.8917 3.3145
-1.6953 3.0922 3.3162
-1.7963 3.0918 3.3113
-1.5958 3.0920 3.3211
-1.4954 3.0922 3.3259
-1.3968 2.8917 3.3340
-1.3965 3.0921 3.3308
-1.3923 3.1361 3.2826
-1.4919 3.1353 3.2739
-1.3968 2.8917 3.3340
-0.9969 2.8917 3.3535
-1.2948 3.0925 3.3357
-1.3965 3.0921 3.3308
-1.2927 3.0917 3.2912
-1.3923 3.1361 3.2826
-1.1930 3.1295 3.2999
-0.9938 3.1334 3.3172
-1.0848 3.1661 3.2089
-1.1844 3.1672 3.2002
-0.9967 3.0918 3.3502
-0.9851 3.1409 3.2175
-0.9969 2.8917 3.3535
-0.9967 3.0918 3.3502
-0.9938 3.1334 3.3172
-0.9851 3.1409 3.2175
-0.8769 3.1429 3.1266
-0.9765 3.1509 3.1179
-0.6949 3.1233 3.3431
-0.6863 3.1498 3.2435
-0.7772 3.1459 3.1352
-0.6968 3.0918 3.3648
-0.6776 3.1506 3.1439
-0.5971 2.8917 3.3729
-0.5967 3.1920 3.3681
-0.5953 3.1917 3.3518
-0.5866 3.1523 3.2521
-0.5780 3.1491 3.1525
-0.5971 2.8917 3.3729
-0.4968 3.0918 3.3746
-0.5967 3.1920 3.3681
-0.5953 3.1917 3.3518
-0.5866 3.1523 3.2521
-0.4784 3.1570 3.1612
-0.5780 3.1491 3.1525
-0.3466 3.1103 3.3816
-0.2878 3.1631 3.2781
-0.2705 3.1277 3.0788
-0.3701 3.0917 3.0702
-0.4697 3.1438 3.0615
-0.1795 3.1499 3.1871
-0.1973 2.8917 3.3924
-0.1971 3.0680 3.3895
-0.1969 3.1683 3.3879
-0.1708 3.1319 3.0875
1.4020 2.8917 3.4702
1.5035 2.8917 3.4752
1.5036 3.0924 3.4719
1.4022 3.0919 3.4670
1.5055 3.1917 3.4338
1.4059 3.1500 3.4251
1.5037 3.1923 3.4703
1.4278 3.1917 3.3266
1.4145 3.1756 3.3255
1.6034 2.9923 3.4784
-1.7971 2.4917 3.3210
-1.3973 2.4917 3.3404
-1.3968 2.8917 3.3340
-1.7966 2.8917 3.3145
-1.7975 2.1924 3.3258
-1.6965 2.1922 3.3307
-1.7971 2.4917 3.3210
-1.5961 2.1924 3.3356
-1.4967 2.1921 3.3404
-1.3977 2.1922 3.3453
-1.3973 2.4917 3.3404
-1.3973 2.4917 3.3404
-0.9975 2.4917 3.3599
-0.9969 2.8917 3.3535
-1.3968 2.8917 3.3340
-1.3977 2.1922 3.3453
-1.2968 2.1921 3.3502
-1.3976 2.2922 3.3436
-1.3973 2.4917 3.3404
-1.1976 2.1918 3.3550
-1.0967 2.1922 3.3599
-0.9979 2.1919 3.3647
-0.9975 2.4917 3.3599
-0.9975 2.4917 3.3599
-0.5977 2.4917 3.3794
-0.5971 2.8917 3.3729
-0.9969 2.8917 3.3535
-0.9981 2.0917 3.3663
-0.5982 2.0917 3.3858
-0.5977 2.4917 3.3794
-0.9975 2.4917 3.3599
-0.7980 1.6917 3.3825
-0.6970 1.7924 3.3858
-0.7980 1.7920 3.3809
-0.7979 1.8920 3.3793
-0.7976 1.9920 3.3777
-0.7979 2.0917 3.3761
-0.5988 1.6917 3.3922
-0.5888 1.7917 3.2766
-0.5985 1.8923 3.3890
-0.5982 2.0917 3.3858
-0.7991 1.2917 3.3890
-0.7988 1.3919 3.3873
-0.7990 1.4917 3.3857
-0.7985 1.5919 3.3841
-0.6971 1.6917 3.3875
-0.7980 1.6917 3.3825
-0.5994 1.2917 3.3987
-0.5989 1.5918 3.3938
-0.5953 1.6277 3.3518
-0.5988 1.6917 3.3922
-0.5994 1.2917 3.3987
-0.4985 1.5919 3.3987
-0.5989 1.5918 3.3938
-0.5953 1.6277 3.3518
-0.4886 1.6917 3.2790
-0.5988 1.6917 3.3922
-0.1990 1.6917 3.4117
-0.3960 1.6917 3.3691
-0.3976 1.6917 3.4020
-0.1995 1.2917 3.4181
-0.5982 2.0917 3.3858
-0.1984 2.0917 3.4053
-0.1979 2.4917 3.3988
-0.5977 2.4917 3.3794
-0.5977 2.4917 3.3794
-0.1979 2.4917 3.3988
-0.1973 2.8917 3.3924
-0.5971 2.8917 3.3729
-0.5988 1.6917 3.3922
-0.4886 1.6917 3.2790
-0.4899 1.7917 3.2935
-0.5888 1.7917 3.2766
-0.5985 1.8923 3.3890
-0.5982 2.0917 3.3858
-0.3960 1.6917 3.3691
-0.3976 1.6917 3.4020
-0.1990 1.6917 3.4117
-0.1987 1.8921 3.4085
-0.1984 2.0917 3.4053
0.5022 0.3932 3.4668
0.5988 0.3923 3.4715
0.5990 0.4917 3.4699
0.5017 0.4917 3.4652
1.3841 0.9166 2.5198
1.2845 0.9248 2.5112
1.3927 0.9092 2.4202
1.2931 0.9145 2.4116
1.4269 0.8917 2.6239
1.3754 0.9107 2.6195
1.4511 0.8917 2.5256
1.4924 0.9054 2.4289
1.4891 0.8917 2.4663
1.1045 0.6917 2.2712
1.2035 0.6917 2.2874
1.1041 0.7917 2.2765
1.1025 0.8917 2.2946
1.3032 0.6917 2.2956
1.3018 0.8917 2.3119
1.4033 0.6917 2.2986
1.5028 0.7917 2.3081
1.3997 0.8917 2.3396
1.5010 0.6917 2.3292
1.5010 0.8917 2.3292
1.0939 0.9257 2.3943
0.9942 0.9470 2.3856
1.1025 0.8917 2.2946
1.0029 0.8970 2.2860
1.0039 0.8917 2.2738
0.9075 0.6917 2.2281
1.0052 0.6917 2.2587
0.9052 0.7917 2.2553
1.0039 0.8917 2.2738
0.9045 0.8917 2.2627
1.1045 0.6917 2.2712
1.1041 0.7917 2.2765
1.1025 0.8917 2.2946
1.1935 0.9203 2.4029
1.0939 0.9257 2.3943
1.1025 0.8917 2.2946
1.2931 0.9145 2.4116
1.3018 0.8917 2.3119
1.3927 0.9092 2.4202
1.3997 0.8917 2.3396
1.4924 0.9054 2.4289
1.5010 0.8917 2.3292
0.5995 0.8917 3.4635
0.7005 0.9921 3.4668
0.5997 0.9921 3.4619
0.8001 0.9919 3.4716
0.8993 0.9917 3.4765
0.9995 0.9916 3.4814
0.9993 0.8917 3.4830
-0.1607 1.0917 3.4899
-0.2054 1.1917 3.4860
-0.2024 1.0917 3.4511
-0.1605 1.2917 3.4899
-0.2054 1.1917 3.4860
-0.1995 1.2917 3.4181
0.2999 0.8917 3.4489
0.3996 0.8917 3.4538
0.4003 0.9920 3.4522
0.2979 0.9917 3.4696
0.5006 0.9921 3.4571
0.5995 0.8917 3.4635
0.5997 0.9921 3.4619
0.2997 0.7918 3.4505
0.4001 0.7920 3.4554
0.3996 0.8917 3.4538
0.2999 0.8917 3.4489
0.5006 0.7922 3.4603
0.5017 0.4917 3.4652
0.5990 0.4917 3.4699
0.5008 0.5925 3.4635
0.4999 0.6920 3.4619
0.5995 0.8917 3.4635
1.1070 0.2917 3.3992
1.0082 0.2917 3.3807
1.1099 0.3917 3.3656
1.0111 0.3917 3.3472
1.1086 0.4917 3.3805
1.0088 0.4917 3.3743
0.5990 0.4917 3.4699
0.7999 0.4917 3.4797
0.5995 0.8917 3.4635
0.9009 0.7924 3.4798
0.9040 0.4917 3.4251
1.0092 0.6917 3.3699
0.9739 0.4917 3.3876
0.9691 0.5917 3.3872
1.0088 0.4917 3.3743
1.0091 0.5917 3.3706
1.0097 0.7917 3.3634
1.0074 0.8199 3.3905
0.9993 0.8917 3.4830
0.5988 0.3923 3.4715
0.7000 0.3922 3.4765
0.7999 0.4917 3.4797
0.5990 0.4917 3.4699
0.8000 0.3923 3.4813
0.8052 0.2917 3.4063
0.9077 0.2917 3.3819
0.9042 0.3917 3.4230
0.9739 0.4917 3.3876
1.0082 0.2917 3.3807
1.0111 0.3917 3.3472
1.0088 0.4917 3.3743
0.9991 0.9916 3.4813
0.9993 0.8917 3.4830
1.1017 0.8917 3.4603
0.9999 1.2917 3.4765
1.2011 0.8917 3.4710
1.1993 0.9917 3.4911
1.2991 0.9916 3.4959
1.3993 0.9919 3.5008
1.3997 1.2917 3.4960
1.0088 0.4917 3.3743
1.1086 0.4917 3.3805
1.1089 0.5917 3.3772
1.0091 0.5917 3.3706
1.1087 0.6917 3.3791
1.0092 0.6917 3.3699
1.1070 0.7917 3.3992
1.0097 0.7917 3.3634
1.0074 0.8199 3.3905
1.1017 0.8917 3.4603
0.9993 0.8917 3.4830
1.4169 0.9917 3.1249
1.4318 1.0086 3.1262
1.4232 0.9917 3.2259
1.4347 0.9917 3.0934
1.0010 2.0917 3.4636
1.4008 2.0917 3.4831
1.4014 2.4917 3.4767
1.0016 2.4917 3.4572
1.0016 2.4917 3.4572
1.4014 2.4917 3.4767
1.4020 2.8917 3.4702
1.0021 2.8917 3.4508
0.9999 1.2917 3.4765
1.3997 1.2917 3.4960
1.4003 1.6917 3.4895
1.0005 1.6917 3.4701
-0.1605 1.2917 3.4899
-0.1692 1.3917 3.4891
-0.1995 1.2917 3.4181
-0.1994 1.3919 3.4165
-0.1983 2.1920 3.4036
0.2015 2.1918 3.4231
-0.1979 2.4917 3.3988
0.1019 2.2918 3.4166
0.2020 2.4917 3.4183
-0.1979 2.4917 3.3988
0.2020 2.4917 3.4183
0.2025 2.8917 3.4118
-0.1973 2.8917 3.3924
0.2016 2.1918 3.4231
0.3020 2.1920 3.4280
0.2020 2.4917 3.4183
0.4024 2.1922 3.4329
0.5020 2.1920 3.4377
0.6013 2.1921 3.4426
0.6018 2.4917 3.4377
0.2020 2.4917 3.4183
0.6018 2.4917 3.4377
0.6023 2.8917 3.4313
0.2025 2.8917 3.4118
0.6018 2.4917 3.4377
1.0016 2.4917 3.4572
1.0021 2.8917 3.4508
0.6023 2.8917 3.4313
0.6013 2.1921 3.4426
0.7020 2.1920 3.4475
0.6018 2.4917 3.4377
0.8005 2.1914 3.4523
0.9013 2.1918 3.4572
1.0000 2.0917 3.4636
1.0010 2.0913 3.4636
0.9010 2.0917 3.4588
1.0016 2.4917 3.4572
1.0005 1.6917 3.4701
1.4003 1.6917 3.4895
1.4008 2.0917 3.4831
1.0010 2.0917 3.4636
1.6101 1.2917 2.8406
1.6339 1.2917 2.4411
1.6063 1.4918 2.8403
1.6123 1.4921 2.7398
1.6105 1.5923 2.7394
1.6164 1.5923 2.6396
1.6224 1.5922 2.5398
1.6283 1.5918 2.4407
1.6205 1.6917 2.5402
1.5920 1.6917 2.4375
1.6339 1.2917 2.4411
1.6458 1.2917 2.2415
1.6440 1.3918 2.2412
1.6421 1.4917 2.2411
1.6283 1.5918 2.4407
1.6343 1.5919 2.3406
1.6402 1.5915 2.2413
1.3997 1.2917 3.4960
1.4995 1.2917 3.5008
1.5003 1.6917 3.4944
1.4003 1.6917 3.4895
1.5743 1.2912 3.4406
1.5863 1.2917 3.2400
1.5706 1.4911 3.4403
1.5668 1.6917 3.4396
1.5788 1.6917 3.2394
1.5863 1.2917 3.2400
1.5903 1.3915 3.1404
1.5963 1.3918 3.0401
1.6023 1.3920 2.9399
1.6101 1.2917 2.8406
1.5825 1.4915 3.2397
1.5884 1.4909 3.1410
1.6004 1.4916 2.9403
1.6063 1.4918 2.8403
1.5807 1.5915 3.2395
1.5788 1.6917 3.2394
1.6311 1.6917 3.1435
1.5841 2.4917 3.2398
1.5802 2.5917 3.2395
1.5972 2.4917 3.1406
1.5505 2.5917 3.1365
1.4014 2.4917 3.4767
1.5018 2.4917 3.4815
1.5035 2.8917 3.4752
1.4020 2.8917 3.4702
1.5542 2.4917 3.4380
1.5837 2.4917 3.3402
1.5962 2.5917 3.3413
1.5841 2.4917 3.2398
1.5802 2.5917 3.2395
1.6122 2.6917 3.3613
1.6138 2.6503 3.3428
1.5482 2.6917 3.2367
1.6150 2.6917 3.3290
1.6138 2.7120 3.3428
1.5706 2.7917 3.3390
1.5677 2.8917 3.3388
1.4008 2.0917 3.4831
1.5012 2.1918 3.4864
1.5018 2.4917 3.4815
1.4014 2.4917 3.4767
1.6121 2.0917 3.4934
1.5542 2.1917 3.4380
1.6138 2.0917 3.3428
1.5774 2.1917 3.2392
1.5774 2.0917 3.2392
1.5652 2.0917 3.3398
1.6138 2.2917 3.3428
1.5727 2.2917 3.2388
1.5542 2.4917 3.4380
1.5779 2.3917 3.2393
1.5837 2.4917 3.3402
1.5841 2.4917 3.2398
1.5750 1.8914 3.2390
1.5732 1.9914 3.2389
1.5810 1.8916 3.1394
1.5791 1.9917 3.1390
1.4003 1.6917 3.4895
1.5003 1.6917 3.4944
1.5006 1.8918 3.4912
1.4008 2.0917 3.4831
1.5668 1.6917 3.4396
1.5788 1.6917 3.2394
1.5568 1.7917 3.2375
1.5631 1.8918 3.4387
1.5750 1.8914 3.2390
1.6026 1.9926 3.4945
1.5671 1.9909 3.3400
1.5732 1.9914 3.2389
1.5774 2.0917 3.2392
1.5652 2.0917 3.3398
1.6138 1.9917 3.3428
1.6121 2.0917 3.4934
1.6138 2.0917 3.3428
-0.1973 2.8917 3.3924
-0.0971 3.0917 3.3940
-0.1971 3.0439 3.3899
-0.0593 3.1403 3.2477
-0.1969 3.1683 3.3879
-0.1795 3.1499 3.1871
-0.0712 3.0917 3.0961
-0.1708 3.1319 3.0875
0.2028 3.0920 3.4086
0.0284 3.0917 3.1048
0.2104 3.1441 3.3213
0.2190 3.1729 3.2217
0.1280 3.1331 3.1134
0.2025 2.8917 3.4118
0.2277 3.0917 3.1221
0.2025 2.8917 3.4118
0.2028 3.0920 3.4086
0.2104 3.1441 3.3213
0.2190 3.1729 3.2217
0.3273 3.1615 3.1307
0.2277 3.0917 3.1221
0.6023 2.8917 3.4313
0.6175 3.1573 3.2563
0.4269 3.1450 3.1394
0.6026 3.0920 3.4281
0.5092 3.1228 3.3473
0.5265 3.1508 3.1480
0.6089 3.1528 3.3559
0.6262 3.1607 3.1567
1.0021 2.8917 3.4508
1.0024 3.0921 3.4475
1.0074 3.1369 3.3905
1.2153 3.1917 3.3082
1.0160 3.1685 3.2909
1.1243 3.1650 3.1999
1.0247 3.1635 3.1913
1.4022 3.0919 3.4670
1.2043 3.1925 3.4557
1.2239 3.1461 3.2086
1.3062 3.1715 3.4165
1.3149 3.1724 3.3168
1.2153 3.1917 3.3082
1.4020 2.8917 3.4702
1.4059 3.1500 3.4251
1.4145 3.1756 3.3255
0.6023 2.8917 3.4313
0.6026 3.0920 3.4281
0.7127 3.1917 3.3162
0.6089 3.1528 3.3559
0.6708 3.1917 3.2609
0.6175 3.1573 3.2563
0.7258 3.1659 3.1653
0.6262 3.1607 3.1567
0.7225 3.1917 3.2035
0.9077 3.1519 3.3819
0.7770 3.1917 3.2701
0.8254 3.1374 3.1740
1.0024 3.0921 3.4475
1.0247 3.1635 3.1913
0.9250 3.1616 3.1826
1.0021 2.8917 3.4508
1.0074 3.1369 3.3905
1.0160 3.1685 3.2909
-2.3990 0.9917 3.3169
-2.2987 0.9917 3.3176
-2.2976 1.0917 3.3044
-2.3972 1.0917 3.2957
-2.2993 1.1917 3.3239
-2.3987 1.1917 3.3136
-2.1979 0.9917 3.3130
-2.2976 0.9622 3.3044
-2.1979 1.1917 3.3130
-2.2976 1.2165 3.3044
-2.0983 0.9917 3.3217
-2.1979 0.9917 3.3130
-2.0983 1.0917 3.3217
-2.1979 1.1917 3.3130
-2.0983 1.2917 3.3217
-2.1979 0.9917 3.3130
-2.2976 0.9622 3.3044
-2.2944 0.8917 3.2683
-2.1925 0.8917 3.2499
-2.1979 0.9917 3.3130
-2.2976 1.0917 3.3044
-2.1969 1.0917 3.3006
-2.1979 1.1917 3.3130
-2.1979 1.1917 3.3130
-2.2976 1.2165 3.3044
-2.1969 1.2917 3.3015
-2.2934 1.2917 3.2560
-2.0983 0.9917 3.3217
-2.1979 0.9917 3.3130
-2.1925 0.8917 3.2499
-2.0921 0.8917 3.2499
-2.0983 1.0917 3.3217
-2.1979 0.9917 3.3130
-2.1969 1.0917 3.3006
-2.1979 1.1917 3.3130
-2.0983 1.2917 3.3217
-2.1979 1.1917 3.3130
-2.1969 1.2917 3.3015
-1.9941 0.8917 3.2772
-1.9963 0.9917 3.3028
-2.0983 1.0917 3.3217
-1.9973 1.0917 3.3143
-2.0983 1.1917 3.3217
-1.9971 1.1917 3.3122
-2.0983 1.2917 3.3217
-1.9948 1.2917 3.2856
-2.0983 1.2917 3.3217
-2.0983 1.2917 3.3217
-2.1979 1.3917 3.3130
-2.1979 1.3917 3.3130
-2.1969 1.2917 3.3015
-2.0967 1.3917 3.3033
-2.0963 1.4917 3.2981
-2.1961 1.4917 3.2916
-2.0958 1.5917 3.2923
-2.1956 1.5917 3.2856
-1.9948 1.2917 3.2856
-1.9925 1.3917 3.2594
-1.9953 1.4917 3.2911
-2.1979 1.3917 3.3130
-2.2934 1.2917 3.2560
-2.1969 1.2917 3.3015
-2.2956 1.3917 3.2817
-0.0065 1.0380 1.1946
-0.1061 1.0409 1.1859
0.0021 1.0268 1.0950
-0.0975 1.0294 1.0863
-0.4441 0.4917 0.4540
-0.3480 0.4917 0.5028
-0.3503 0.5917 0.5300
-0.4457 0.5917 0.4725
-0.3464 0.6917 0.4852
-0.4457 0.6917 0.4721
-0.3618 0.7917 0.6619
-0.4614 0.7917 0.6532
-0.3531 0.7917 0.5622
-0.4527 0.7917 0.5536
-0.3791 0.9917 0.8611
-0.4700 0.8917 0.7529
-0.3744 0.8917 0.8078
-0.4752 0.9917 0.8127
-0.4700 0.7917 0.7529
-0.4614 0.7917 0.6532
-0.4700 0.8917 0.7529
-0.3704 0.7917 0.7615
-0.3618 0.7917 0.6619
-0.3744 0.8917 0.8078
-0.0802 0.8917 0.8871
0.0194 0.8917 0.8957
0.0139 0.9917 0.9590
-0.0856 0.9917 0.9491
0.0021 1.0268 1.0950
-0.0975 1.0294 1.0863
0.0108 1.0046 0.9953
-0.0888 1.0049 0.9867
-0.2708 0.7917 0.7701
-0.3704 0.7917 0.7615
-0.2621 0.7917 0.6705
-0.3618 0.7917 0.6619
-0.2967 0.8041 1.0690
-0.3964 0.8027 1.0604
-0.2881 0.7974 0.9694
-0.3504 0.8917 0.9640
-0.3913 0.8917 1.0018
-0.2794 0.7917 0.8698
-0.3631 0.8917 0.8625
-0.3704 0.7917 0.7615
-0.3744 0.8917 0.8078
-0.2711 0.5917 0.4690
-0.2448 0.6398 0.4713
-0.3503 0.5917 0.5300
-0.2466 0.6917 0.4920
-0.3464 0.6917 0.4852
-0.2621 0.7917 0.6705
-0.3618 0.7917 0.6619
-0.2535 0.7917 0.5709
-0.3531 0.7917 0.5622
-0.2269 0.5917 0.4728
-0.1518 0.5917 0.5552
0.0526 0.6917 0.5141
-0.1452 0.7917 0.4799
-0.1539 0.8156 0.5795
-0.1539 0.4917 0.5795
-0.0515 0.5917 0.5564
0.0540 0.7917 0.4972
0.0454 0.4917 0.5968
0.0483 0.5917 0.5630
0.3506 0.3917 0.5493
0.4496 0.3917 0.5660
0.4506 0.4917 0.5544
0.3500 0.4917 0.5566
0.5522 0.1259 0.5405
0.5215 0.1917 0.5378
0.5545 0.1917 0.5133
0.5550 0.2917 0.5074
0.4474 0.1917 0.5910
0.4464 0.2917 0.6029
0.4496 0.3917 0.5660
0.4832 0.4917 0.5345
0.4506 0.4917 0.5544
0.5584 0.4917 0.4690
0.6547 0.2917 0.5155
0.6546 0.3917 0.5168
0.6550 0.4917 0.5116
0.6841 0.3917 0.5519
0.6893 0.4917 0.5524
0.4832 0.4917 0.5345
0.4506 0.4917 0.5544
0.4517 0.5917 0.5418
0.5584 0.4917 0.4690
0.5540 0.5917 0.5188
0.4525 0.6917 0.5318
0.5541 0.6917 0.5186
0.6518 0.5294 0.5491
0.5738 0.5917 0.5423
0.6550 0.4917 0.5116
0.3010 0.8015 1.1209
0.2186 0.8917 1.1138
0.3097 0.7999 1.0213
0.2100 0.8008 1.0126
0.2029 0.8917 1.0951
0.3183 0.8068 0.9217
0.2187 0.7987 0.9130
0.3270 0.8046 0.8220
0.2273 0.8021 0.8134
0.3356 0.8021 0.7224
0.2360 0.8039 0.7138
0.0194 0.8917 0.8957
0.1191 0.8917 0.9044
0.1139 0.9917 0.9641
0.0139 0.9917 0.9590
0.1018 1.0268 1.1036
0.0021 1.0268 1.0950
0.1104 1.0059 1.0040
0.0108 1.0046 0.9953
0.2014 0.9101 1.1123
0.1384 0.9917 1.1068
0.1391 0.8917 1.0065
0.2029 0.8917 1.0951
0.2186 0.8917 1.1138
0.1450 0.4917 0.6055
0.0454 0.4917 0.5968
0.1340 0.4917 0.5042
0.1408 0.5917 0.5048
0.0483 0.5917 0.5630
0.1537 0.6357 0.5059
0.1521 0.6917 0.5237
0.0526 0.6917 0.5141
0.1537 0.7917 0.5059
0.0540 0.7917 0.4972
0.1867 0.4917 0.5087
0.2533 0.5576 0.5145
0.1740 0.5917 0.5076
0.2484 0.4917 0.5712
0.2619 0.5324 0.4149
0.1942 0.5917 0.4090
0.1558 0.4917 0.4812
0.2578 0.4917 0.4622
0.1552 0.5917 0.4882
0.2879 0.4917 0.3168
0.1940 0.5917 0.3086
0.2475 0.5917 0.5810
0.1623 0.6449 0.4062
0.1710 0.6662 0.3066
0.2446 0.7917 0.6141
0.1450 0.8100 0.6055
0.3295 0.4917 0.5211
0.2963 0.4917 0.4179
0.3495 0.5917 0.5626
0.3529 0.7917 0.5232
0.3356 0.8021 0.7224
0.2360 0.8039 0.7138
0.3443 0.8141 0.6228
0.3500 0.4917 0.5566
0.4506 0.4917 0.5544
0.4517 0.5917 0.5418
0.4525 0.6917 0.5318
0.4574 0.7917 0.4753
3 2 0 1
3 0 5 3
3 0 3 1
3 1 3 4
3 6 7 8
3 8 7 9
3 10 11 12
3 12 11 13
3 17 13 14
3 17 14 15
3 17 15 16
3 18 15 14
3 11 19 13
3 13 19 20
3 13 20 14
3 14 20 21
3 18 21 22
3 14 21 18
3 23 24 25
3 26 28 29
3 26 27 28
3 24 31 30
3 25 24 30
3 26 25 32
3 32 25 30
3 27 26 32
3 30 33 34
3 30 34 32
3 35 37 36
3 38 37 35
3 38 35 39
3 38 39 40
3 40 39 41
3 41 39 42
3 39 45 42
3 42 45 43
3 43 45 44
3 44 45 46
3 48 49 47
3 50 49 48
3 50 51 49
3 53 54 52
3 52 51 53
3 55 56 57
3 58 57 59
3 60 58 61
3 58 59 61
3 47 49 56
3 56 49 57
3 57 49 59
3 59 49 62
3 63 62 49
3 63 49 51
3 63 51 52
3 63 52 64
3 66 69 68
3 66 68 65
3 65 68 67
3 68 69 70
3 72 71 73
3 72 73 74
3 72 75 71
3 75 77 76
3 74 73 78
3 78 73 79
3 72 80 77
3 72 77 75
3 81 74 78
3 74 81 72
3 72 81 80
3 84 83 85
3 85 83 86
3 82 87 88
3 87 85 88
3 85 86 88
3 90 89 84
3 85 90 84
3 89 90 91
3 93 91 92
3 92 91 90
3 90 85 87
3 90 95 92
3 87 94 90
3 90 94 95
3 97 96 98
3 98 96 99
3 100 99 101
3 98 99 100
3 103 102 104
3 104 102 105
3 107 106 108
3 108 106 109
3 110 111 108
3 111 107 108
3 112 110 113
3 112 111 110
3 117 116 114
3 115 117 114
3 114 118 115
3 118 119 115
3 118 113 119
3 112 113 118
3 120 122 123
3 122 121 123
3 126 125 124
3 120 127 124
3 120 123 127
3 125 126 134
3 134 126 128
3 134 128 129
3 131 132 130
3 120 131 133
3 131 130 133
3 133 122 120
3 131 124 125
3 131 120 124
3 136 135 137
3 137 135 138
3 139 136 137
3 140 139 137
3 141 140 142
3 142 140 137
3 144 143 145
3 144 145 146
3 148 144 146
3 148 146 147
3 149 144 148
3 150 144 149
3 151 149 148
3 152 151 148
3 152 148 153
3 148 147 153
3 154 155 156
3 156 155 157
3 155 158 159
3 155 159 157
3 161 160 162
3 165 160 163
3 163 160 161
3 164 165 163
3 166 165 164
3 166 164 168
3 167 166 168
3 170 169 171
3 171 169 172
3 171 172 174
3 173 171 174
3 175 171 173
3 176 171 175
3 176 175 177
3 175 178 177
3 179 170 171
3 179 171 176
3 176 177 180
3 184 186 185
3 192 181 182
3 187 182 183
3 187 183 188
3 183 184 188
3 188 184 189
3 184 185 189
3 190 192 182
3 190 182 187
3 188 189 191
3 193 192 190
3 187 194 193
3 187 193 190
3 194 187 195
3 187 188 195
3 195 188 196
3 188 191 196
3 198 197 199
3 200 198 199
3 200 201 198
3 198 201 202
3 201 203 202
3 204 198 205
3 205 198 206
3 198 202 206
3 206 202 207
3 202 208 207
3 204 197 198
3 205 206 209
3 204 211 210
3 204 210 197
3 211 204 212
3 212 204 205
3 212 205 209
3 209 206 213
3 216 214 217
3 219 218 220
3 219 220 217
3 217 220 216
3 222 218 219
3 221 218 222
3 223 215 214
3 216 223 214
3 225 224 226
3 226 224 227
3 229 228 230
3 231 229 230
3 233 232 231
3 233 231 234
3 234 231 230
3 236 235 237
3 237 235 238
3 240 239 241
3 243 240 241
3 243 241 242
3 244 243 242
3 245 244 246
3 246 244 242
3 248 247 249
3 249 247 250
3 252 251 253
3 253 251 254
3 256 255 257
3 256 257 264
3 264 257 258
3 264 258 259
3 264 259 260
3 261 256 262
3 255 256 261
3 263 256 264
3 256 263 262
3 271 265 266
3 271 266 267
3 267 268 269
3 269 268 270
3 272 271 267
3 269 273 272
3 269 272 267
3 273 269 274
3 276 275 277
3 276 277 278
3 278 279 276
3 280 279 278
3 281 275 276
3 276 282 283
3 276 283 281
3 276 279 282
3 284 275 281
3 286 285 287
3 287 285 288
3 290 289 291
3 291 289 292
3 294 293 295
3 295 293 296
3 295 296 297
3 299 295 300
3 294 295 299
3 300 295 297
3 302 300 298
3 298 300 297
3 301 300 302
3 302 298 303
3 305 304 306
3 306 304 307
3 308 310 309
3 309 310 311
3 314 313 312
3 308 313 314
3 316 308 314
3 316 315 308
3 315 310 308
3 317 319 320
3 321 318 317
3 322 317 320
3 321 317 322
3 323 321 324
3 322 325 324
3 324 321 322
3 326 323 324
3 324 325 327
3 330 331 328
3 331 329 328
3 330 332 331
3 333 335 336
3 336 335 337
3 338 334 339
3 339 334 333
3 340 339 336
3 339 333 336
3 341 343 342
3 344 343 341
3 345 343 344
3 346 345 344
3 347 345 346
3 348 347 346
3 349 347 348
3 351 350 352
3 353 350 351
3 354 350 353
3 355 350 354
3 356 350 355
3 357 359 358
3 361 362 360
3 364 363 365
3 365 363 366
3 364 365 367
3 368 364 369
3 369 364 367
3 371 370 372
3 372 370 373
3 371 372 374
3 376 375 377
3 378 376 377
3 378 374 376
3 374 379 376
3 379 374 372
3 380 381 382
3 381 383 382
3 382 383 384
3 384 383 385
3 387 386 388
3 389 387 388
3 390 387 391
3 391 387 389
3 393 392 390
3 394 393 395
3 392 393 394
3 391 393 390
3 393 391 395
3 389 396 391
3 397 396 389
3 397 389 398
3 398 389 388
3 400 399 401
3 401 399 402
3 403 400 401
3 405 404 406
3 406 404 403
3 406 403 407
3 407 403 401
3 406 408 405
3 407 408 406
3 409 407 410
3 408 407 409
3 411 414 412
3 415 413 416
3 416 413 412
3 416 412 414
3 414 417 416
3 418 417 419
3 419 417 414
3 421 420 422
3 422 420 423
3 422 423 424
3 424 423 425
3 426 424 427
3 424 425 427
3 426 428 430
3 426 430 429
3 426 427 428
3 433 432 431
3 431 432 434
3 436 435 437
3 437 435 438
3 440 439 441
3 441 439 442
3 444 443 445
3 445 443 446
3 447 450 448
3 449 450 447
3 452 451 453
3 454 452 453
3 455 452 454
3 455 454 453
3 457 456 458
3 458 456 459
3 460 462 461
3 466 461 462
3 463 461 466
3 466 464 463
3 465 464 466
3 468 467 469
3 469 467 470
3 472 471 473
3 473 471 474
3 476 475 477
3 478 476 477
3 478 477 479
3 477 483 479
3 480 483 481
3 480 482 483
3 482 479 483
3 485 484 486
3 486 484 487
3 488 490 491
3 488 491 489
3 491 492 489
3 489 492 493
3 489 493 494
3 489 494 495
3 494 496 495
3 495 496 497
3 499 498 500
3 500 498 501
3 498 502 503
3 498 503 501
3 501 503 504
3 506 505 508
3 506 508 507
3 511 509 506
3 511 510 509
3 511 506 512
3 512 506 507
3 512 513 510
3 511 512 510
3 514 515 516
3 514 516 517
3 514 517 518
3 514 520 515
3 519 520 514
3 517 521 518
3 518 521 522
3 523 524 525
3 526 527 528
3 528 527 529
3 531 530 532
3 532 530 533
3 535 534 536
3 535 536 537
3 537 536 538
3 539 534 531
3 532 539 531
3 540 536 539
3 536 534 539
3 542 536 540
3 542 541 536
3 541 538 536
3 539 544 543
3 539 532 544
3 544 532 545
3 547 546 548
3 548 546 549
3 551 550 547
3 547 550 546
3 550 553 552
3 551 553 550
3 552 554 555
3 552 553 554
3 548 551 547
3 556 553 551
3 556 557 553
3 558 551 548
3 556 551 559
3 551 558 559
3 556 559 557
3 559 558 560
3 559 560 561
3 562 563 564
3 564 563 565
3 567 566 568
3 568 566 569
3 568 570 567
3 573 570 568
3 570 573 571
3 571 573 574
3 571 574 572
3 575 573 568
3 575 568 569
3 573 576 574
3 575 576 573
3 576 577 574
3 579 577 576
3 578 577 579
3 580 576 575
3 569 581 575
3 575 581 580
3 580 581 582
3 585 584 583
3 584 585 587
3 584 587 586
3 587 588 586
3 586 588 589
3 588 590 589
3 584 596 583
3 596 584 591
3 591 584 586
3 586 589 592
3 593 591 586
3 593 586 594
3 594 586 595
3 586 592 595
3 594 595 597
3 601 603 602
3 604 598 599
3 600 601 605
3 605 601 606
3 601 602 606
3 607 604 599
3 607 599 600
3 608 607 600
3 608 600 605
3 605 606 609
3 610 607 608
3 610 608 605
3 605 609 611
3 613 614 615
3 614 616 615
3 615 616 617
3 616 618 617
3 625 612 619
3 619 612 613
3 613 620 619
3 615 620 613
3 615 617 621
3 620 622 619
3 622 624 623
3 620 624 622
3 626 619 622
3 626 622 627
3 622 623 627
3 630 629 631
3 630 633 632
3 630 631 633
3 632 634 636
3 632 633 634
3 633 635 634
3 643 628 629
3 637 629 630
3 638 637 630
3 636 634 638
3 634 639 638
3 640 643 629
3 640 629 637
3 637 638 641
3 641 638 642
3 638 639 642
3 644 640 637
3 644 637 645
3 637 641 645
3 647 646 648
3 648 646 649
3 648 649 650
3 650 649 651
3 653 647 652
3 648 652 647
3 654 648 650
3 654 650 655
3 657 658 656
3 659 660 658
3 661 663 662
3 664 663 661
3 665 666 667
3 666 668 667
3 670 671 669
3 672 671 670
3 673 675 674
3 676 675 673
3 678 679 677
3 677 679 680
3 682 683 681
3 673 685 676
3 685 684 676
3 685 686 687
3 673 686 685
3 687 688 689
3 686 688 687
3 689 690 691
3 688 690 689
3 692 696 695
3 693 694 697
3 694 699 697
3 699 698 697
3 698 699 700
3 700 699 701
3 693 697 702
3 697 703 702
3 703 697 704
3 704 697 698
3 705 707 708
3 707 706 708
3 709 711 710
3 710 711 712
3 714 713 715
3 715 713 716
3 715 716 717
3 717 716 718
3 719 721 720
3 720 721 722
3 721 718 722
3 717 718 721
3 723 725 726
3 725 724 726
3 730 731 727
3 727 731 728
3 730 727 732
3 732 727 729
3 734 733 735
3 735 733 736
3 737 739 738
3 738 739 740
3 741 743 742
3 742 743 744
3 748 749 746
3 748 746 747
3 747 746 745
3 747 750 748
3 748 750 751
3 750 753 751
3 752 753 750
3 755 754 756
3 755 756 757
3 757 756 758
3 759 761 760
3 760 761 762
3 761 758 762
3 757 758 761
3 763 755 757
3 763 757 764
3 764 757 765
3 761 766 757
3 766 765 757
3 761 767 766
3 764 769 768
3 769 764 765
3 770 765 766
3 768 772 771
3 769 772 768
3 772 769 765
3 774 773 775
3 775 773 776
3 777 778 779
3 780 778 781
3 782 780 781
3 778 780 779
3 783 780 782
3 785 784 783
3 780 784 786
3 783 784 780
3 787 780 788
3 788 780 789
3 789 780 786
3 790 789 791
3 788 789 790
3 794 792 793
3 795 792 796
3 797 792 794
3 796 797 798
3 792 797 796
3 799 796 800
3 799 801 796
3 801 795 796
3 806 803 802
3 806 802 805
3 805 802 804
3 804 807 805
3 805 807 808
3 807 809 808
3 808 809 810
3 809 811 810
3 810 811 812
3 814 813 815
3 815 813 816
3 817 819 818
3 818 819 820
3 821 824 823
3 821 823 822
3 822 823 815
3 814 815 823
3 815 817 822
3 819 817 815
3 825 824 821
3 826 829 828
3 826 827 829
3 830 829 827
3 831 829 830
3 831 830 832
3 832 830 833
3 832 833 834
3 834 833 835
3 836 839 837
3 841 843 840
3 841 844 843
3 844 842 843
3 840 845 846
3 841 840 846
3 838 831 832
3 838 832 847
3 841 831 838
3 848 831 841
3 846 848 841
3 849 848 846
3 850 832 834
3 850 834 851
3 852 837 839
3 853 837 852
3 840 837 853
3 845 840 853
3 850 855 832
3 855 847 832
3 850 857 858
3 857 856 858
3 850 858 855
3 860 859 861
3 861 859 854
3 861 854 862
3 862 854 847
3 855 862 847
3 862 855 863
